<?xml version="1.0" encoding="UTF-8" standalone="no"?>
<!-- Created with Inkscape (http://www.inkscape.org/) -->

<svg
   xmlns:dc="http://purl.org/dc/elements/1.1/"
   xmlns:cc="http://creativecommons.org/ns#"
   xmlns:rdf="http://www.w3.org/1999/02/22-rdf-syntax-ns#"
   xmlns:svg="http://www.w3.org/2000/svg"
   xmlns="http://www.w3.org/2000/svg"
   xmlns:sodipodi="http://sodipodi.sourceforge.net/DTD/sodipodi-0.dtd"
   xmlns:inkscape="http://www.inkscape.org/namespaces/inkscape"
   width="16"
   height="16"
   id="svg3529"
   version="1.1"
   inkscape:version="0.48.4 r9939"
   sodipodi:docname="media-optical-video.svg">
  <metadata
     id="metadata12">
    <rdf:RDF>
      <cc:Work
         rdf:about="">
        <dc:format>image/svg+xml</dc:format>
        <dc:type
           rdf:resource="http://purl.org/dc/dcmitype/StillImage" />
      </cc:Work>
    </rdf:RDF>
  </metadata>
  <defs
     id="defs10" />
  <sodipodi:namedview
     pagecolor="#ffffff"
     bordercolor="#666666"
     borderopacity="1"
     objecttolerance="10"
     gridtolerance="10"
     guidetolerance="10"
     inkscape:pageopacity="0"
     inkscape:pageshadow="2"
     inkscape:window-width="1864"
     inkscape:window-height="1060"
     id="namedview8"
     showgrid="false"
     inkscape:zoom="41.7193"
     inkscape:cx="11.595367"
     inkscape:cy="8.3983626"
     inkscape:window-x="54"
     inkscape:window-y="-3"
     inkscape:window-maximized="1"
     inkscape:current-layer="layer1" />
  <g
     inkscape:label="Capa 1"
     inkscape:groupmode="layer"
     id="layer1"
     transform="translate(-456.14285,-657.36218)">
    <path
       style="opacity:1;fill:#f2f2f2;fill-opacity:1;stroke:none"
       d="M 8 2 C 4.6862915 2 2 4.6862915 2 8 C 2 11.313708 4.6862915 14 8 14 L 8 13 C 5.2385763 13 3 10.761424 3 8 C 3 5.2385763 5.2385763 3 8 3 C 10.761424 3 13 5.2385763 13 8 L 14 8 C 14 4.6862915 11.313708 2 8 2 z M 8 6 C 6.8954305 6 6 6.8954305 6 8 C 6 9.1045695 6.8954305 10 8 10 L 8 9 C 7.4477153 9 7 8.5522847 7 8 C 7 7.4477153 7.4477153 7 8 7 C 8.5522847 7 9 7.4477153 9 8 L 10 8 C 10 6.8954305 9.1045695 6 8 6 z "
       transform="translate(456.14285,657.36218)"
       id="path3784" />
    <path
       style="fill:#f2f2f2;fill-opacity:1;stroke:none"
       d="M 9.5 9 C 8.6715729 9 8 9.6715729 8 10.5 C 8 11.155838 8.413588 11.70241 9 11.90625 L 9 14 L 13 14 L 13 12 C 13.552285 12 14 11.552285 14 11 C 14 10.447715 13.552285 10 13 10 C 12.447715 10 12 10.447715 12 11 L 10.90625 11 C 10.959892 10.845681 11 10.672589 11 10.5 C 11 9.6715729 10.328427 9 9.5 9 z M 10 12 L 12 12 L 12 13 L 10 13 L 10 12 z "
       transform="translate(456.14285,657.36218)"
       id="rect3002" />
  </g>
</svg>
