<?xml version="1.0" encoding="UTF-8" standalone="no"?>
<!-- Created with Inkscape (http://www.inkscape.org/) -->

<svg
   xmlns:dc="http://purl.org/dc/elements/1.1/"
   xmlns:cc="http://creativecommons.org/ns#"
   xmlns:rdf="http://www.w3.org/1999/02/22-rdf-syntax-ns#"
   xmlns:svg="http://www.w3.org/2000/svg"
   xmlns="http://www.w3.org/2000/svg"
   xmlns:xlink="http://www.w3.org/1999/xlink"
   xmlns:sodipodi="http://sodipodi.sourceforge.net/DTD/sodipodi-0.dtd"
   xmlns:inkscape="http://www.inkscape.org/namespaces/inkscape"
   width="32"
   height="32"
   id="svg5453"
   version="1.1"
   inkscape:version="0.91 r13725"
   sodipodi:docname="applications-office.svg">
  <defs
     id="defs5455">
    <linearGradient
       inkscape:collect="always"
       id="linearGradient4393">
      <stop
         style="stop-color:#fcfcfc;stop-opacity:1;"
         offset="0"
         id="stop4395" />
      <stop
         style="stop-color:#e1e1e1;stop-opacity:1"
         offset="1"
         id="stop4397" />
    </linearGradient>
    <linearGradient
       id="linearGradient4177"
       inkscape:collect="always">
      <stop
         id="stop4189"
         offset="0"
         style="stop-color:#49d685;stop-opacity:1" />
      <stop
         id="stop4191"
         offset="1"
         style="stop-color:#41a26a;stop-opacity:1" />
    </linearGradient>
    <linearGradient
       inkscape:collect="always"
       xlink:href="#linearGradient4177"
       id="linearGradient4339"
       gradientUnits="userSpaceOnUse"
       x1="16"
       y1="4"
       x2="16"
       y2="29.999973"
       gradientTransform="translate(384.57143,514.79803)" />
    <linearGradient
       inkscape:collect="always"
       xlink:href="#linearGradient4393"
       id="linearGradient4399"
       x1="400.57144"
       y1="523.79797"
       x2="400.57144"
       y2="543.79797"
       gradientUnits="userSpaceOnUse"
       gradientTransform="translate(0,-0.99997363)" />
  </defs>
  <sodipodi:namedview
     id="base"
     pagecolor="#ffffff"
     bordercolor="#666666"
     borderopacity="1.0"
     inkscape:pageopacity="0"
     inkscape:pageshadow="2"
     inkscape:zoom="16"
     inkscape:cx="19.172587"
     inkscape:cy="19.787662"
     inkscape:document-units="px"
     inkscape:current-layer="layer1"
     showgrid="true"
     fit-margin-top="0"
     fit-margin-left="0"
     fit-margin-right="0"
     fit-margin-bottom="0"
     inkscape:window-width="1920"
     inkscape:window-height="1013"
     inkscape:window-x="-4"
     inkscape:window-y="0"
     inkscape:window-maximized="1"
     inkscape:showpageshadow="false"
     borderlayer="true"
     showguides="true"
     inkscape:snap-bbox="true"
     inkscape:bbox-nodes="true"
     inkscape:snap-global="true"
     inkscape:snap-nodes="true"
     inkscape:object-paths="true"
     inkscape:object-nodes="true">
    <inkscape:grid
       type="xygrid"
       id="grid4063" />
    <sodipodi:guide
       position="4.2167969e-05,32.000026"
       orientation="32,0"
       id="guide4625" />
    <sodipodi:guide
       position="4.2167969e-05,2.6367188e-05"
       orientation="0,31.999969"
       id="guide4627" />
    <sodipodi:guide
       position="32.000012,2.6367188e-05"
       orientation="-32,0"
       id="guide4629" />
    <sodipodi:guide
       position="32.000012,32.000026"
       orientation="0,-31.999969"
       id="guide4631" />
    <sodipodi:guide
       position="2,26"
       orientation="28,0"
       id="guide4633" />
    <sodipodi:guide
       position="2.0000422,2.0000264"
       orientation="0,27.999969"
       id="guide4635" />
    <sodipodi:guide
       position="30,17"
       orientation="-28,0"
       id="guide4637" />
    <sodipodi:guide
       position="30.000012,30.000026"
       orientation="0,-27.999969"
       id="guide4639" />
    <sodipodi:guide
       position="9,17"
       orientation="14,0"
       id="guide4429" />
    <sodipodi:guide
       position="9.0000117,10.000271"
       orientation="0,14.000031"
       id="guide4431" />
    <sodipodi:guide
       position="23.000042,10.000271"
       orientation="-14,0"
       id="guide4433" />
    <sodipodi:guide
       position="23.000042,24.000271"
       orientation="0,-14.000031"
       id="guide4435" />
  </sodipodi:namedview>
  <metadata
     id="metadata5458">
    <rdf:RDF>
      <cc:Work
         rdf:about="">
        <dc:format>image/svg+xml</dc:format>
        <dc:type
           rdf:resource="http://purl.org/dc/dcmitype/StillImage" />
        <dc:title />
      </cc:Work>
    </rdf:RDF>
  </metadata>
  <g
     inkscape:label="Capa 1"
     inkscape:groupmode="layer"
     id="layer1"
     transform="translate(-384.57143,-515.798)">
    <path
       style="opacity:1;fill:url(#linearGradient4339);fill-opacity:1;stroke:none;stroke-width:4;stroke-miterlimit:4;stroke-dasharray:none;stroke-dashoffset:0;stroke-opacity:1"
       d="m 395.57143,518.79803 c 0.0417,-0.0126 0,2 0,2 l -4,0 c 0.0417,-0.0126 0,2 0,2 l 1,0 c 0.0417,-0.0126 0,20 0,20 l -2,0 c 0.0417,-0.0126 0,2 0,2 l 20,0 0,-2 -2,0 0,-20 1,0 0,-2 -4,0 0,-2 z"
       id="rect4167"
       inkscape:connector-curvature="0"
       sodipodi:nodetypes="ccccccccccccccccc" />
    <path
       id="rect4337"
       style="opacity:1;fill:url(#linearGradient4399);fill-opacity:1;stroke:none;stroke-width:4;stroke-miterlimit:4;stroke-dasharray:none;stroke-dashoffset:0;stroke-opacity:1"
       d="m 405.57144,540.79776 2,0 0,2 -2,0 z m -3,2.4e-4 2,0 0,2 -2,0 z m -3,0 2,0 0,2 -2,0 z m -3,0 2,0 0,2 -2,0 z m -3,0 2,0 0,2 -2,0 z m 12,-3.00024 2,0 0,2 -2,0 z m -3,2.4e-4 2,0 0,2 -2,0 z m -3,0 2,0 0,2 -2,0 z m -3,0 2,0 0,2 -2,0 z m -3,0 2,0 0,2 -2,0 z m 12,-2.4e-4 2,0 0,2 -2,0 z m -3,2.4e-4 2,0 0,2 -2,0 z m -3,0 2,0 0,2 -2,0 z m -3,0 2,0 0,2 -2,0 z m -3,0 2,0 0,2 -2,0 z m 12,-2.4e-4 2,0 0,2 -2,0 z m -3,2.4e-4 2,0 0,2 -2,0 z m -3,0 2,0 0,2 -2,0 z m -3,0 2,0 0,2 -2,0 z m -3,0 2,0 0,2 -2,0 z m 12,-2.4e-4 2,0 0,2 -2,0 z m -3,2.4e-4 2,0 0,2 -2,0 z m -3,0 2,0 0,2 -2,0 z m -3,0 2,0 0,2 -2,0 z m -3,0 2,0 0,2 -2,0 z m 12,-3.00048 2,0 0,2 -2,0 z m -3,2.4e-4 2,0 0,2 -2,0 z m -3,0 2,0 0,2 -2,0 z m -3,0 2,0 0,2 -2,0 z m -3,0 2,0 0,2 -2,0 z m 12,-3 2,0 0,2 -2,0 z m -3,2.4e-4 2,0 0,2 -2,0 z m -3,0 2,0 0,2 -2,0 z m -3,0 2,0 0,2 -2,0 z m -3,0 2,0 0,2 -2,0 z m 12,-3.00024 2,0 0,2 -2,0 z m -3,2.4e-4 2,0 0,2 -2,0 z m -3,0 2,0 0,2 -2,0 z m -3,0 2,0 0,2 -2,0 z m -3,0 2,0 0,2 -2,0 z m 12,-3.00024 2,0 0,2 -2,0 z m -3,2.4e-4 2,0 0,2 -2,0 z m -3,0 2,0 0,2 -2,0 z m -3,0 2,0 0,2 -2,0 z m -3,0 2,0 0,2 -2,0 z m 12,-3.00024 2,0 0,2 -2,0 z m -3,2.4e-4 2,0 0,2 -2,0 z m -3,0 2,0 0,2 -2,0 z m -3,0 2,0 0,2 -2,0 z m -3,0 2,0 0,2 -2,0 z"
       inkscape:connector-curvature="0" />
    <rect
       style="opacity:1;fill:#437057;fill-opacity:1;stroke:none;stroke-width:4;stroke-miterlimit:4;stroke-dasharray:none;stroke-dashoffset:0;stroke-opacity:1"
       id="rect4401"
       width="20.000011"
       height="0.99997365"
       x="390.57144"
       y="544.79797" />
  </g>
</svg>
