<?xml version="1.0" encoding="UTF-8" standalone="no"?>
<!-- Created with Inkscape (http://www.inkscape.org/) -->

<svg
   xmlns:dc="http://purl.org/dc/elements/1.1/"
   xmlns:cc="http://creativecommons.org/ns#"
   xmlns:rdf="http://www.w3.org/1999/02/22-rdf-syntax-ns#"
   xmlns:svg="http://www.w3.org/2000/svg"
   xmlns="http://www.w3.org/2000/svg"
   xmlns:sodipodi="http://sodipodi.sourceforge.net/DTD/sodipodi-0.dtd"
   xmlns:inkscape="http://www.inkscape.org/namespaces/inkscape"
   width="24"
   height="24"
   id="svg3869"
   version="1.1"
   inkscape:version="0.91 r13725"
   sodipodi:docname="edit-image-face-recognize.svg">
  <defs
     id="defs3871">
    <linearGradient
       id="linearGradient3257">
      <stop
         offset="0"
         style="stop-color:#a50000;stop-opacity:1"
         id="stop3259" />
      <stop
         offset="1"
         style="stop-color:#e73800;stop-opacity:1"
         id="stop3261" />
    </linearGradient>
  </defs>
  <sodipodi:namedview
     id="base"
     pagecolor="#ffffff"
     bordercolor="#666666"
     borderopacity="1.0"
     inkscape:pageopacity="0.0"
     inkscape:pageshadow="2"
     inkscape:zoom="22.627416"
     inkscape:cx="5.4926209"
     inkscape:cy="10.264796"
     inkscape:document-units="px"
     inkscape:current-layer="layer1"
     showgrid="true"
     fit-margin-top="0"
     fit-margin-left="0"
     fit-margin-right="0"
     fit-margin-bottom="0"
     inkscape:window-width="1366"
     inkscape:window-height="709"
     inkscape:window-x="-4"
     inkscape:window-y="0"
     inkscape:window-maximized="1"
     inkscape:showpageshadow="false"
     inkscape:object-nodes="true"
     inkscape:snap-bbox="true">
    <inkscape:grid
       type="xygrid"
       id="grid4132" />
    <sodipodi:guide
       position="4,18"
       orientation="18,0"
       id="guide4138" />
    <sodipodi:guide
       position="5,3"
       orientation="0,18"
       id="guide4140" />
    <sodipodi:guide
       position="20,2.0000174"
       orientation="-18,0"
       id="guide4142" />
    <sodipodi:guide
       position="2,21"
       orientation="0,-18"
       id="guide4144" />
    <sodipodi:guide
       position="3,19.000017"
       orientation="16,0"
       id="guide4146" />
    <sodipodi:guide
       position="2,4"
       orientation="0,16"
       id="guide4148" />
    <sodipodi:guide
       position="21,20"
       orientation="-16,0"
       id="guide4150" />
    <sodipodi:guide
       position="2,20"
       orientation="0,-16"
       id="guide4152" />
  </sodipodi:namedview>
  <metadata
     id="metadata3874">
    <rdf:RDF>
      <cc:Work
         rdf:about="">
        <dc:format>image/svg+xml</dc:format>
        <dc:type
           rdf:resource="http://purl.org/dc/dcmitype/StillImage" />
        <dc:title></dc:title>
      </cc:Work>
    </rdf:RDF>
  </metadata>
  <g
     inkscape:label="Capa 1"
     inkscape:groupmode="layer"
     id="layer1"
     transform="translate(-326,-532.3622)">
    <g
       transform="translate(-274.71428,16.14287)"
       id="layer1-9"
       inkscape:label="Capa 1">
      <path
         id="path4131"
         transform="translate(601.71428,517.21933)"
         d="m 3,3 0,1 0,15 1,0 15,0 0,-1 L 19,3 3,3 Z M 4,4 18,4 18,18 4,18 4,4 Z M 5,5 5,6 5,8 6,8 6,6 8,6 8,5 5,5 Z m 9,0 0,1 2,0 0,2 1,0 0,-2 0,-1 -3,0 z m -3.089844,1.78125 c -0.6075,0 -1.3155466,0.1355469 -1.8105466,0.5292969 l 0.2460937,0.7421875 c 0.25875,-0.16875 0.7542189,-0.4394532 1.4179689,-0.4394532 0.73125,0 1.227031,0.3034376 1.238281,1.0234376 0,1.08 -1.564453,2.8464062 -1.564453,4.1289062 l 0.472656,0 c 0.82125,-1.845 1.990235,-2.710781 1.990235,-4.2070312 0,-1.1475001 -0.831485,-1.7773438 -1.990235,-1.7773438 z m -0.158203,6.986328 c -0.48375,0 -0.730469,0.360703 -0.730469,0.720703 0,0.36 0.246719,0.730469 0.730469,0.730469 0.48375,0 0.732422,-0.370469 0.732422,-0.730469 0,-0.36 -0.248672,-0.720703 -0.732422,-0.720703 z M 5,14 l 0,2 0,1 3,0 0,-1 -2,0 0,-2 -1,0 z m 11,0 0,2 -2,0 0,1 3,0 0,-1 0,-2 -1,0 z"
         style="opacity:1;fill:#f2f2f2;fill-opacity:1;stroke:none"
         inkscape:connector-curvature="0" />
    </g>
  </g>
</svg>
