<?xml version="1.0" encoding="UTF-8" standalone="no"?>
<!-- Created with Inkscape (http://www.inkscape.org/) -->

<svg
   xmlns:dc="http://purl.org/dc/elements/1.1/"
   xmlns:cc="http://creativecommons.org/ns#"
   xmlns:rdf="http://www.w3.org/1999/02/22-rdf-syntax-ns#"
   xmlns:svg="http://www.w3.org/2000/svg"
   xmlns="http://www.w3.org/2000/svg"
   xmlns:sodipodi="http://sodipodi.sourceforge.net/DTD/sodipodi-0.dtd"
   xmlns:inkscape="http://www.inkscape.org/namespaces/inkscape"
   width="24"
   height="24"
   id="svg3869"
   version="1.1"
   inkscape:version="0.91 r13725"
   sodipodi:docname="im-icq.svg">
  <defs
     id="defs3871">
    <inkscape:perspective
       sodipodi:type="inkscape:persp3d"
       inkscape:vp_x="0 : 12 : 1"
       inkscape:vp_y="0 : 1000 : 0"
       inkscape:vp_z="24 : 12 : 1"
       inkscape:persp3d-origin="12 : 8 : 1"
       id="perspective4146" />
    <inkscape:perspective
       sodipodi:type="inkscape:persp3d"
       inkscape:vp_x="0 : 12 : 1"
       inkscape:vp_y="0 : 1000 : 0"
       inkscape:vp_z="24 : 12 : 1"
       inkscape:persp3d-origin="12 : 8 : 1"
       id="perspective4090" />
  </defs>
  <sodipodi:namedview
     id="base"
     pagecolor="#ffffff"
     bordercolor="#666666"
     borderopacity="1.0"
     inkscape:pageopacity="0.0"
     inkscape:pageshadow="2"
     inkscape:zoom="22.627416"
     inkscape:cx="5.4926209"
     inkscape:cy="12.032563"
     inkscape:document-units="px"
     inkscape:current-layer="layer1"
     showgrid="true"
     fit-margin-top="0"
     fit-margin-left="0"
     fit-margin-right="0"
     fit-margin-bottom="0"
     inkscape:window-width="1366"
     inkscape:window-height="709"
     inkscape:window-x="-4"
     inkscape:window-y="0"
     inkscape:window-maximized="1"
     inkscape:showpageshadow="false"
     inkscape:object-nodes="true"
     inkscape:snap-bbox="true">
    <inkscape:grid
       type="xygrid"
       id="grid4132" />
    <sodipodi:guide
       position="4,18"
       orientation="18,0"
       id="guide4138" />
    <sodipodi:guide
       position="5,3"
       orientation="0,18"
       id="guide4140" />
    <sodipodi:guide
       position="20,2.0000174"
       orientation="-18,0"
       id="guide4142" />
    <sodipodi:guide
       position="2,21"
       orientation="0,-18"
       id="guide4144" />
    <sodipodi:guide
       position="3,19.000017"
       orientation="16,0"
       id="guide4146" />
    <sodipodi:guide
       position="2,4"
       orientation="0,16"
       id="guide4148" />
    <sodipodi:guide
       position="21,20"
       orientation="-16,0"
       id="guide4150" />
    <sodipodi:guide
       position="2,20"
       orientation="0,-16"
       id="guide4152" />
  </sodipodi:namedview>
  <metadata
     id="metadata3874">
    <rdf:RDF>
      <cc:Work
         rdf:about="">
        <dc:format>image/svg+xml</dc:format>
        <dc:type
           rdf:resource="http://purl.org/dc/dcmitype/StillImage" />
        <dc:title></dc:title>
      </cc:Work>
    </rdf:RDF>
  </metadata>
  <g
     inkscape:label="Capa 1"
     inkscape:groupmode="layer"
     id="layer1"
     transform="translate(-326,-532.3622)">
    <g
       transform="translate(327,-497)"
       id="layer1-7"
       inkscape:label="Capa 1">
      <path
         id="rect4108"
         transform="translate(0,1030.3622)"
         d="M 11,3 A 1.9999995,3 0 0 0 9,6 1.9999995,3 0 0 0 9.0058594,6.1855469 3,1.9999995 45 0 0 8.8789062,6.0507812 3,1.9999995 45 0 0 5.34375,5.34375 3,1.9999995 45 0 0 6.0507812,8.8789062 3,1.9999995 45 0 0 6.1835938,9.0058594 3,1.9999995 0 0 0 6,9 3,1.9999995 0 0 0 3,11 3,1.9999995 0 0 0 6,13 3,1.9999995 0 0 0 6.1855469,12.994141 1.9999995,3 45 0 0 6.0507812,13.121094 1.9999995,3 45 0 0 5.34375,16.65625 1.9999995,3 45 0 0 8.8789062,15.949219 1.9999995,3 45 0 0 9.0058594,15.816406 1.9999995,3 0 0 0 9,16 a 1.9999995,3 0 0 0 2,3 1.9999995,3 0 0 0 2,-3 1.9999995,3 0 0 0 -0.0059,-0.185547 3,1.9999995 45 0 0 0.126953,0.134766 A 3,1.9999995 45 0 0 16.65625,16.65625 3,1.9999995 45 0 0 15.949219,13.121094 3,1.9999995 45 0 0 15.816406,12.994141 3,1.9999995 0 0 0 16,13 3,1.9999995 0 0 0 19,11 3,1.9999995 0 0 0 16,9 3,1.9999995 0 0 0 15.814453,9.0058594 1.9999995,3 45 0 0 15.949219,8.8789062 1.9999995,3 45 0 0 16.65625,5.34375 1.9999995,3 45 0 0 13.121094,6.0507812 1.9999995,3 45 0 0 12.994141,6.1835938 1.9999995,3 0 0 0 13,6 1.9999995,3 0 0 0 11,3 Z m 0.994141,5.5976562 A 1.9999995,3 45 0 0 12.414062,9.5859375 1.9999995,3 45 0 0 13.400391,10.005859 3,1.9999995 0 0 0 13,11 3,1.9999995 0 0 0 13.402344,11.994141 3,1.9999995 45 0 0 12.414062,12.414062 3,1.9999995 45 0 0 11.994141,13.400391 1.9999995,3 0 0 0 11,13 1.9999995,3 0 0 0 10.005859,13.400391 1.9999995,3 45 0 0 9.5859375,12.414062 1.9999995,3 45 0 0 8.5996094,11.994141 3,1.9999995 0 0 0 9,11 3,1.9999995 0 0 0 8.5996094,10.005859 3,1.9999995 45 0 0 9.5859375,9.5859375 3,1.9999995 45 0 0 10.005859,8.5996094 1.9999995,3 0 0 0 11,9 1.9999995,3 0 0 0 11.994141,8.5976562 Z M 11,10 c -0.554,0 -1,0.446 -1,1 0,0.554 0.446,1 1,1 0.554,0 1,-0.446 1,-1 0,-0.554 -0.446,-1 -1,-1 z"
         style="opacity:1;fill:#f2f2f2;fill-opacity:1;stroke:none"
         inkscape:connector-curvature="0" />
    </g>
  </g>
</svg>
