<?xml version="1.0" encoding="UTF-8" standalone="no"?>
<!-- Created with Inkscape (http://www.inkscape.org/) -->

<svg
   xmlns:dc="http://purl.org/dc/elements/1.1/"
   xmlns:cc="http://creativecommons.org/ns#"
   xmlns:rdf="http://www.w3.org/1999/02/22-rdf-syntax-ns#"
   xmlns:svg="http://www.w3.org/2000/svg"
   xmlns="http://www.w3.org/2000/svg"
   xmlns:sodipodi="http://sodipodi.sourceforge.net/DTD/sodipodi-0.dtd"
   xmlns:inkscape="http://www.inkscape.org/namespaces/inkscape"
   width="24"
   height="24"
   id="svg2"
   version="1.1"
   inkscape:version="0.91 r13725"
   viewBox="0 0 24 24"
   sodipodi:docname="media-playlist-shuffle.svg">
  <defs
     id="defs4" />
  <sodipodi:namedview
     id="base"
     pagecolor="#ffffff"
     bordercolor="#666666"
     borderopacity="1.0"
     inkscape:pageopacity="0.0"
     inkscape:pageshadow="2"
     inkscape:zoom="16.841998"
     inkscape:cx="3.7196543"
     inkscape:cy="4.4184422"
     inkscape:document-units="px"
     inkscape:current-layer="layer1"
     showgrid="true"
     inkscape:showpageshadow="false"
     borderlayer="true"
     inkscape:window-width="2560"
     inkscape:window-height="955"
     inkscape:window-x="0"
     inkscape:window-y="35"
     inkscape:window-maximized="1"
     units="px"
     fit-margin-top="0"
     fit-margin-left="0"
     fit-margin-right="0"
     fit-margin-bottom="0"
     inkscape:snap-bbox="true">
    <sodipodi:guide
       position="3,20.999966"
       orientation="18,0"
       id="guide4085" />
    <sodipodi:guide
       position="3,2.9999652"
       orientation="0,18"
       id="guide4087" />
    <sodipodi:guide
       position="21,2.9999652"
       orientation="-18,0"
       id="guide4089" />
    <sodipodi:guide
       position="21,20.999966"
       orientation="0,-18"
       id="guide4091" />
    <sodipodi:guide
       position="4,19.999966"
       orientation="16,0"
       id="guide4093" />
    <sodipodi:guide
       position="4,3.9999652"
       orientation="0,16"
       id="guide4095" />
    <sodipodi:guide
       position="20,3.9999652"
       orientation="-16,0"
       id="guide4097" />
    <sodipodi:guide
       position="20,19.999966"
       orientation="0,-16"
       id="guide4099" />
    <inkscape:grid
       type="xygrid"
       id="grid4101"
       originx="1"
       originy="0.99994785" />
    <sodipodi:guide
       position="4,19.999966"
       orientation="16,0"
       id="guide4123" />
    <sodipodi:guide
       position="4,3.9999652"
       orientation="0,2.000001"
       id="guide4125" />
    <sodipodi:guide
       position="6.000001,19.999966"
       orientation="0,-2.000001"
       id="guide4129" />
    <sodipodi:guide
       position="18,3.9999652"
       orientation="0,2"
       id="guide4133" />
    <sodipodi:guide
       position="20,3.9999652"
       orientation="-16,0"
       id="guide4135" />
    <sodipodi:guide
       position="20,19.999966"
       orientation="0,-2"
       id="guide4137" />
  </sodipodi:namedview>
  <metadata
     id="metadata7">
    <rdf:RDF>
      <cc:Work
         rdf:about="">
        <dc:format>image/svg+xml</dc:format>
        <dc:type
           rdf:resource="http://purl.org/dc/dcmitype/StillImage" />
        <dc:title></dc:title>
      </cc:Work>
    </rdf:RDF>
  </metadata>
  <g
     inkscape:label="Capa 1"
     inkscape:groupmode="layer"
     id="layer1"
     transform="translate(1,-1029.3622)">
    <path
       style="opacity:1;fill:#f2f2f2;fill-opacity:1;stroke:none"
       d="m 16,5 0,2 -3,0 c -2.216,0 -4,1.784 -4,4 0,1.662 -1.338,3 -3,3 l -3,0 0,1 3,0 c 2.216,0 4,-1.784 4,-4 0,-1.662 1.338,-3 3,-3 l 3,0 0,2 L 19,7.5 16,5 Z M 3,7 3,8 6,8 C 6.8536128,8 7.6168144,8.3572581 8.1621094,8.9257812 8.2578781,8.5814037 8.3956215,8.2568349 8.5742188,7.9570312 7.8779049,7.3680394 6.9875937,7 6,7 L 3,7 Z m 13,5 0,2 -3,0 c -0.853613,0 -1.616814,-0.357258 -2.162109,-0.925781 -0.09577,0.344378 -0.233512,0.668946 -0.41211,0.96875 C 11.122095,14.631961 12.012406,15 13,15 l 3,0 0,2 3,-2.5 -3,-2.5 z"
       transform="translate(0,1030.3622)"
       id="rect3353"
       inkscape:connector-curvature="0" />
  </g>
</svg>
