<?xml version="1.0" encoding="UTF-8" standalone="no"?>
<!-- Created with Inkscape (http://www.inkscape.org/) -->

<svg
   xmlns:dc="http://purl.org/dc/elements/1.1/"
   xmlns:cc="http://creativecommons.org/ns#"
   xmlns:rdf="http://www.w3.org/1999/02/22-rdf-syntax-ns#"
   xmlns:svg="http://www.w3.org/2000/svg"
   xmlns="http://www.w3.org/2000/svg"
   xmlns:sodipodi="http://sodipodi.sourceforge.net/DTD/sodipodi-0.dtd"
   xmlns:inkscape="http://www.inkscape.org/namespaces/inkscape"
   width="24"
   height="24"
   id="svg3049"
   version="1.1"
   inkscape:version="0.91 r13725"
   sodipodi:docname="media-repeat-track-amarok.svg"
   inkscape:export-filename="/home/uri/.kde/share/icons/NITRUX-KDE/16x16/actions/view-right-new.png"
   inkscape:export-xdpi="30"
   inkscape:export-ydpi="30">
  <defs
     id="defs3051" />
  <sodipodi:namedview
     id="base"
     pagecolor="#ffffff"
     bordercolor="#666666"
     borderopacity="1.0"
     inkscape:pageopacity="0.0"
     inkscape:pageshadow="2"
     inkscape:zoom="22.627417"
     inkscape:cx="10.614482"
     inkscape:cy="12.256684"
     inkscape:document-units="px"
     inkscape:current-layer="layer1"
     showgrid="true"
     fit-margin-top="0"
     fit-margin-left="0"
     fit-margin-right="0"
     fit-margin-bottom="0"
     inkscape:window-width="2560"
     inkscape:window-height="955"
     inkscape:window-x="0"
     inkscape:window-y="35"
     inkscape:window-maximized="1"
     inkscape:showpageshadow="false"
     borderlayer="true"
     showguides="true"
     inkscape:object-nodes="true">
    <sodipodi:guide
       position="3,21"
       orientation="18,0"
       id="guide4067" />
    <sodipodi:guide
       position="3,3"
       orientation="0,18"
       id="guide4069" />
    <sodipodi:guide
       position="21,3"
       orientation="-18,0"
       id="guide4071" />
    <sodipodi:guide
       position="21,21"
       orientation="0,-18"
       id="guide4073" />
    <sodipodi:guide
       position="4,20"
       orientation="16,0"
       id="guide4077" />
    <sodipodi:guide
       position="4,4"
       orientation="0,16"
       id="guide4079" />
    <sodipodi:guide
       position="20,4"
       orientation="-16,0"
       id="guide4081" />
    <sodipodi:guide
       position="20,20"
       orientation="0,-16"
       id="guide4083" />
    <inkscape:grid
       type="xygrid"
       id="grid4085"
       originx="0.99999557"
       originy="0.99997045" />
  </sodipodi:namedview>
  <metadata
     id="metadata3054">
    <rdf:RDF>
      <cc:Work
         rdf:about="">
        <dc:format>image/svg+xml</dc:format>
        <dc:type
           rdf:resource="http://purl.org/dc/dcmitype/StillImage" />
        <dc:title></dc:title>
      </cc:Work>
    </rdf:RDF>
  </metadata>
  <g
     inkscape:label="Capa 1"
     inkscape:groupmode="layer"
     id="layer1"
     transform="translate(-420.71429,-524.79071)">
    <path
       style="fill:#f2f2f2;fill-opacity:1;stroke:none"
       d="m 425.71429,538.79074 0,1 -1,0 0,1 1,0 0,2 -1,0 0,1 1,0 0,1 1,0 0,-1 2,0 0,1 1,0 0,-1 1,0 0,-1 -1,0 0,-2 1,0 0,-1 -1,0 0,-1 -1,0 0,1 -2,0 0,-1 -1,0 z m 1,2 2,0 0,2 -2,0 0,-2 z"
       id="rect4233"
       inkscape:connector-curvature="0" />
    <path
       style="opacity:1;fill:#f2f2f2;fill-opacity:1;stroke:none"
       d="M 11,3 C 6.568,3 3,6.568 3,11 l 1,0 c 0,-3.878 3.122,-7 7,-7 3.878,0 7,3.122 7,7 l 1,0 C 19,6.568 15.432,3 11,3 Z m 0,2 C 7.676,5 5,7.676 5,11 l 3,0 C 8,9.338 9.338,8 11,8 l 0,-3 z m 0,4 C 9.892,9 9,9.892 9,11 l 1,0 c 0,-0.554 0.446,-1 1,-1 0.554,0 1,0.446 1,1 l 1,0 C 13,9.892 12.108,9 11,9 Z"
       transform="translate(421.71429,525.79074)"
       id="rect4119-0"
       inkscape:connector-curvature="0" />
    <path
       sodipodi:nodetypes="ccccsccscccscccccscc"
       inkscape:connector-curvature="0"
       id="rect3344"
       d="m 433.71429,537.79074 -2,1.5 2,1.5 0,-1 5,0 c 0.554,0 1,0.446 1,1 l 1,0 c 0,-1.10801 -0.89199,-2 -2,-2 l -5,0 z m -2,4 c 0,1.10801 0.89199,2 2,2 l 5,0 0,1 2,-1.5 -2,-1.5 0,1 -5,0 c -0.554,0 -1,-0.446 -1,-1 z"
       style="opacity:1;fill:#f2f2f2;fill-opacity:1;stroke:none" />
  </g>
</svg>
