<?xml version="1.0" encoding="UTF-8" standalone="no"?>
<!-- Created with Inkscape (http://www.inkscape.org/) -->

<svg
   xmlns:dc="http://purl.org/dc/elements/1.1/"
   xmlns:cc="http://creativecommons.org/ns#"
   xmlns:rdf="http://www.w3.org/1999/02/22-rdf-syntax-ns#"
   xmlns:svg="http://www.w3.org/2000/svg"
   xmlns="http://www.w3.org/2000/svg"
   xmlns:sodipodi="http://sodipodi.sourceforge.net/DTD/sodipodi-0.dtd"
   xmlns:inkscape="http://www.inkscape.org/namespaces/inkscape"
   width="24"
   height="24"
   id="svg3760"
   version="1.1"
   inkscape:version="0.91 r13725"
   sodipodi:docname="player-volume.svg">
  <defs
     id="defs3762" />
  <sodipodi:namedview
     id="base"
     pagecolor="#ffffff"
     bordercolor="#666666"
     borderopacity="1.0"
     inkscape:pageopacity="0.0"
     inkscape:pageshadow="2"
     inkscape:zoom="16"
     inkscape:cx="-3.77948"
     inkscape:cy="15.683081"
     inkscape:document-units="px"
     inkscape:current-layer="layer1"
     showgrid="true"
     fit-margin-top="0"
     fit-margin-left="0"
     fit-margin-right="0"
     fit-margin-bottom="0"
     inkscape:window-width="2560"
     inkscape:window-height="955"
     inkscape:window-x="0"
     inkscape:window-y="35"
     inkscape:window-maximized="1"
     inkscape:showpageshadow="false"
     showguides="true">
    <inkscape:grid
       type="xygrid"
       id="grid4106"
       originx="1.8863594e-05"
       originy="-1.7016406e-05" />
    <sodipodi:guide
       position="3.0000144,20.999978"
       orientation="0,18"
       id="guide4229" />
    <sodipodi:guide
       position="21.000014,20.999978"
       orientation="18,0"
       id="guide4231" />
    <sodipodi:guide
       position="21.000014,2.9999782"
       orientation="0,-18"
       id="guide4233" />
    <sodipodi:guide
       position="3.0000144,2.9999782"
       orientation="-18,0"
       id="guide4235" />
    <sodipodi:guide
       position="20.000014,3.9999782"
       orientation="0,-16"
       id="guide4241" />
    <sodipodi:guide
       position="4,20"
       orientation="6,0"
       id="guide4155" />
    <sodipodi:guide
       position="20,14"
       orientation="-6,0"
       id="guide4167" />
    <sodipodi:guide
       position="20,20"
       orientation="0,-6"
       id="guide4169" />
  </sodipodi:namedview>
  <metadata
     id="metadata3765">
    <rdf:RDF>
      <cc:Work
         rdf:about="">
        <dc:format>image/svg+xml</dc:format>
        <dc:type
           rdf:resource="http://purl.org/dc/dcmitype/StillImage" />
        <dc:title></dc:title>
      </cc:Work>
    </rdf:RDF>
  </metadata>
  <g
     inkscape:label="Capa 1"
     inkscape:groupmode="layer"
     id="layer1"
     transform="translate(-550.28571,-606.64789)">
    <path
       id="path4226"
       d="m 562.27399,610.64788 -4.98828,4.99023 0,0.01 0,1 0,4 0,1 0,0.01 4.98828,4.9902 1.01172,0 0,-0.40234 0,-15.19532 0,-0.40234 -1.01172,0 z m -7.98828,5 0,1 0,4 0,1 2,0 0,-1 0,-4 0,-1 -2,0 z"
       style="opacity:1;fill:#f2f2f2;fill-opacity:1;stroke:none"
       inkscape:connector-curvature="0" />
    <path
       id="path4183"
       d="m 565.60993,614.92913 -0.53906,0.86133 a 4,4 0 0 1 1.21484,2.85742 4,4 0 0 1 -1.21094,2.86133 l 0.53906,0.86328 a 5,5 0 0 0 1.67188,-3.72461 5,5 0 0 0 -1.67578,-3.71875 z"
       style="opacity:1;fill:#f2f2f2;fill-opacity:1;stroke:none"
       inkscape:connector-curvature="0" />
    <path
       id="path4188"
       d="m 565.15094,611.18499 -0.24414,0.97656 a 7,7 0 0 1 4.37891,6.48633 7,7 0 0 1 -4.38086,6.47852 l 0.24414,0.9746 a 8,8 0 0 0 5.13672,-7.45312 8,8 0 0 0 -5.13477,-7.46289 z"
       style="opacity:1;fill:#f2f2f2;fill-opacity:1;stroke:none"
       inkscape:connector-curvature="0" />
  </g>
</svg>
