<?xml version="1.0" encoding="UTF-8" standalone="no"?>
<!-- Created with Inkscape (http://www.inkscape.org/) -->

<svg
   xmlns:dc="http://purl.org/dc/elements/1.1/"
   xmlns:cc="http://creativecommons.org/ns#"
   xmlns:rdf="http://www.w3.org/1999/02/22-rdf-syntax-ns#"
   xmlns:svg="http://www.w3.org/2000/svg"
   xmlns="http://www.w3.org/2000/svg"
   xmlns:sodipodi="http://sodipodi.sourceforge.net/DTD/sodipodi-0.dtd"
   xmlns:inkscape="http://www.inkscape.org/namespaces/inkscape"
   width="24"
   height="24"
   id="svg3049"
   version="1.1"
   inkscape:version="0.91 r13725"
   sodipodi:docname="run-build-clean.svg"
   inkscape:export-filename="/home/uri/.kde/share/icons/NITRUX-KDE/16x16/actions/view-right-new.png"
   inkscape:export-xdpi="30"
   inkscape:export-ydpi="30">
  <defs
     id="defs3051" />
  <sodipodi:namedview
     id="base"
     pagecolor="#ffffff"
     bordercolor="#666666"
     borderopacity="1.0"
     inkscape:pageopacity="0.0"
     inkscape:pageshadow="2"
     inkscape:zoom="24.451296"
     inkscape:cx="7.3897747"
     inkscape:cy="15.229305"
     inkscape:document-units="px"
     inkscape:current-layer="layer1"
     showgrid="true"
     fit-margin-top="0"
     fit-margin-left="0"
     fit-margin-right="0"
     fit-margin-bottom="0"
     inkscape:window-width="2560"
     inkscape:window-height="955"
     inkscape:window-x="0"
     inkscape:window-y="35"
     inkscape:window-maximized="1"
     inkscape:showpageshadow="false"
     borderlayer="true">
    <sodipodi:guide
       position="3,21"
       orientation="18,0"
       id="guide4067" />
    <sodipodi:guide
       position="3,3"
       orientation="0,18"
       id="guide4069" />
    <sodipodi:guide
       position="21,3"
       orientation="-18,0"
       id="guide4071" />
    <sodipodi:guide
       position="21,21"
       orientation="0,-18"
       id="guide4073" />
    <sodipodi:guide
       position="4,20"
       orientation="16,0"
       id="guide4077" />
    <sodipodi:guide
       position="4,4"
       orientation="0,16"
       id="guide4079" />
    <sodipodi:guide
       position="20,4"
       orientation="-16,0"
       id="guide4081" />
    <sodipodi:guide
       position="20,20"
       orientation="0,-16"
       id="guide4083" />
    <inkscape:grid
       type="xygrid"
       id="grid4085"
       originx="0.99999557"
       originy="0.99997045" />
  </sodipodi:namedview>
  <metadata
     id="metadata3054">
    <rdf:RDF>
      <cc:Work
         rdf:about="">
        <dc:format>image/svg+xml</dc:format>
        <dc:type
           rdf:resource="http://purl.org/dc/dcmitype/StillImage" />
        <dc:title></dc:title>
      </cc:Work>
    </rdf:RDF>
  </metadata>
  <g
     inkscape:label="Capa 1"
     inkscape:groupmode="layer"
     id="layer1"
     transform="translate(-420.71429,-524.79071)">
    <path
       style="opacity:1;fill:#f2f2f2;fill-opacity:1;stroke:none;stroke-width:2.79999995;stroke-miterlimit:4;stroke-dasharray:none;stroke-opacity:0.55026455"
       d="m 430.71429,533.79074 0,6 5,-3 -5,-3 z"
       id="rect4144"
       inkscape:connector-curvature="0" />
    <path
       style="fill:#f2f2f2;fill-opacity:1;fill-rule:evenodd;stroke:none;stroke-width:1px;stroke-linecap:butt;stroke-linejoin:miter;stroke-opacity:1"
       d="m 15,15 -2,2 2,2 4,0 0,-4 z m 0.6,1 2.4,0 0,2 -2.4,0 -1,-1 z"
       transform="translate(421.71429,525.79074)"
       id="path3349"
       inkscape:connector-curvature="0"
       sodipodi:nodetypes="cccccccccccc" />
    <path
       style="opacity:1;fill:#f2f2f2;fill-opacity:1;stroke:none"
       d="M 11,3 C 10.324795,3.00379 9.6527857,3.093036 9,3.265625 l 0,1.0332031 0,0.011719 A 7,7 0 0 0 7.6835938,4.8554688 L 7.6757838,4.8476588 6.943362,4.115237 C 5.7764063,4.803287 4.8032868,5.7764065 4.115237,6.943362 l 0.5214844,0.5214844 0.21875,0.21875 A 7,7 0 0 0 4.3085938,9 L 4.2949219,9 3.2597656,9 C 3.089154,9.6530391 3.001872,10.325045 3,11 c 0.00378,0.675205 0.093036,1.347214 0.265625,2 l 1.0332031,0 0.011719,0 a 7,7 0 0 0 0.5449219,1.316406 l -0.21875,0.21875 -0.5214844,0.521485 c 0.6880498,1.166955 1.6611693,2.140075 2.828125,2.828125 l 0.5214844,-0.521485 0.21875,-0.21875 A 7,7 0 0 0 9,17.691406 L 9,18 9,18.740234 c 0.6530391,0.170612 1.325044,0.257894 2,0.259766 0.334998,-0.0019 0.668533,-0.02662 1,-0.07031 l 0,-1.00586 C 11.669555,17.97264 11.334906,17.99887 11,18 10.664546,17.999498 10.331064,17.97413 10,17.92578 L 10,17.92188 10,17 10,16.910156 A 6,6 0 0 1 7.5273438,15.886719 l -0.0625,0.0625 -0.6503907,0.65039 -0.00391,0.0039 C 6.2742384,16.201454 5.7991129,15.72484 5.3984375,15.1875 l 0.00195,-0.002 0.6503906,-0.650391 0.064453,-0.06445 A 6,6 0 0 1 5.0859375,12 L 5,12 4.0800781,12 4.0761719,12 C 4.0273622,11.669555 4.0011276,11.334906 4,11 4.0005022,10.664546 4.025871,10.331064 4.074219,10 L 4.078125,10 5,10 5.0898438,10 A 6,6 0 0 1 6.1132812,7.5273438 l -0.0625,-0.0625 -0.6503906,-0.6503907 -0.00391,-0.00391 C 5.7985462,6.2742384 6.2751604,5.7991129 6.8125,5.3984375 l 0.00195,0.00195 0.6503907,0.6503906 0.064453,0.064453 A 6,6 0 0 1 10,5.0859375 L 10,5 10,4.0800781 10,4.0761719 C 10.330445,4.0273622 10.665094,4.0011276 11,4 c 0.335454,5.001e-4 0.668936,0.02587 1,0.074219 L 12,4.078125 12,5 12,5.089844 a 6,6 0 0 1 2.472656,1.0234374 l 0.0625,-0.0625 0.650391,-0.6503906 0.0039,-0.00391 c 0.536309,0.4020618 1.011435,0.878676 1.412109,1.4160156 l -0.002,0.00195 -0.65039,0.6503907 -0.06445,0.064453 A 6,6 0 0 1 16.914062,10 L 17,10 l 0.919922,0 0.0039,0 c 0.04881,0.330445 0.07504,0.665094 0.07617,1 -4.95e-4,0.335454 -0.02587,0.668936 -0.07422,1 l -0.0039,0 L 17,12 16.91016,12 a 6,6 0 0 1 -0.730468,2 l 1.134765,0 A 7,7 0 0 0 17.69141,13 L 18,13 18.740234,13 C 18.910846,12.346961 18.998128,11.674956 19,11 18.996215,10.324795 18.906964,9.6527857 18.734375,9 L 18,9 17.689453,9 A 7,7 0 0 0 17.144531,7.6835938 l 0.0078,-0.00781 0.732422,-0.7324218 C 17.196716,5.7764039 16.223597,4.8032844 15.056641,4.1152344 L 14.328125,4.84375 14.316406,4.8554688 A 7,7 0 0 0 13,4.3085938 l 0,-0.013672 0,-1.0351563 C 12.346961,3.0891541 11.674956,3.0018721 11,3 Z"
       transform="translate(421.71429,525.79074)"
       id="path3344"
       inkscape:connector-curvature="0" />
  </g>
</svg>
