<?xml version="1.0" encoding="UTF-8" standalone="no"?>
<!-- Created with Inkscape (http://www.inkscape.org/) -->

<svg
   xmlns:dc="http://purl.org/dc/elements/1.1/"
   xmlns:cc="http://creativecommons.org/ns#"
   xmlns:rdf="http://www.w3.org/1999/02/22-rdf-syntax-ns#"
   xmlns:svg="http://www.w3.org/2000/svg"
   xmlns="http://www.w3.org/2000/svg"
   xmlns:sodipodi="http://sodipodi.sourceforge.net/DTD/sodipodi-0.dtd"
   xmlns:inkscape="http://www.inkscape.org/namespaces/inkscape"
   width="24"
   height="24"
   id="svg3869"
   version="1.1"
   inkscape:version="0.91 r13725"
   sodipodi:docname="view-web-browser-dom-tree.svg">
  <defs
     id="defs3871">
    <linearGradient
       id="linearGradient3257">
      <stop
         offset="0"
         style="stop-color:#a50000;stop-opacity:1"
         id="stop3259" />
      <stop
         offset="1"
         style="stop-color:#e73800;stop-opacity:1"
         id="stop3261" />
    </linearGradient>
    <clipPath
       clipPathUnits="userSpaceOnUse"
       id="clipPath4210">
      <rect
         y="1024.3622"
         x="-7"
         height="34"
         width="34"
         id="rect4212"
         style="opacity:1;fill:#0000ff;fill-opacity:0.51376145;stroke:none;stroke-opacity:1" />
    </clipPath>
    <clipPath
       clipPathUnits="userSpaceOnUse"
       id="clipPath4160">
      <rect
         style="opacity:1;fill:#aade87;fill-opacity:0.47247709;stroke:none;stroke-opacity:1"
         id="rect4162"
         width="32"
         height="32.000015"
         x="-6"
         y="1028.3619" />
    </clipPath>
    <clipPath
       id="clipPath4160-4"
       clipPathUnits="userSpaceOnUse">
      <rect
         y="1023.3622"
         x="7"
         height="1"
         width="1"
         id="rect4162-5"
         style="opacity:1;fill:#f2f2f2;fill-opacity:1;stroke:none;stroke-opacity:1" />
    </clipPath>
    <clipPath
       clipPathUnits="userSpaceOnUse"
       id="clipPath16">
      <path
         d="m 0,706.465 1490.926,0 L 1490.926,0 0,0 0,706.465 Z"
         id="path18" />
    </clipPath>
    <clipPath
       clipPathUnits="userSpaceOnUse"
       id="clipPath24">
      <path
         d="m 22.1953,686.117 1447.7347,0 0,-667.1902 -1447.7347,0 L 22.1953,686.117 Z"
         id="path26" />
    </clipPath>
  </defs>
  <sodipodi:namedview
     id="base"
     pagecolor="#ffffff"
     bordercolor="#666666"
     borderopacity="1.0"
     inkscape:pageopacity="0.0"
     inkscape:pageshadow="2"
     inkscape:zoom="22.627416"
     inkscape:cx="5.4926209"
     inkscape:cy="10.264796"
     inkscape:document-units="px"
     inkscape:current-layer="layer1"
     showgrid="true"
     fit-margin-top="0"
     fit-margin-left="0"
     fit-margin-right="0"
     fit-margin-bottom="0"
     inkscape:window-width="1366"
     inkscape:window-height="709"
     inkscape:window-x="-4"
     inkscape:window-y="0"
     inkscape:window-maximized="1"
     inkscape:showpageshadow="false"
     inkscape:object-nodes="true"
     inkscape:snap-bbox="true">
    <inkscape:grid
       type="xygrid"
       id="grid4132" />
    <sodipodi:guide
       position="4,18"
       orientation="18,0"
       id="guide4138" />
    <sodipodi:guide
       position="5,3"
       orientation="0,18"
       id="guide4140" />
    <sodipodi:guide
       position="20,2.0000174"
       orientation="-18,0"
       id="guide4142" />
    <sodipodi:guide
       position="2,21"
       orientation="0,-18"
       id="guide4144" />
    <sodipodi:guide
       position="3,19.000017"
       orientation="16,0"
       id="guide4146" />
    <sodipodi:guide
       position="2,4"
       orientation="0,16"
       id="guide4148" />
    <sodipodi:guide
       position="21,20"
       orientation="-16,0"
       id="guide4150" />
    <sodipodi:guide
       position="2,20"
       orientation="0,-16"
       id="guide4152" />
  </sodipodi:namedview>
  <metadata
     id="metadata3874">
    <rdf:RDF>
      <cc:Work
         rdf:about="">
        <dc:format>image/svg+xml</dc:format>
        <dc:type
           rdf:resource="http://purl.org/dc/dcmitype/StillImage" />
        <dc:title></dc:title>
      </cc:Work>
    </rdf:RDF>
  </metadata>
  <g
     inkscape:label="Capa 1"
     inkscape:groupmode="layer"
     id="layer1"
     transform="translate(-326,-532.3622)">
    <g
       transform="translate(-217.57141,-209.57139)"
       id="layer1-9"
       inkscape:label="Capa 1">
      <path
         id="rect4148"
         transform="translate(544.57141,742.93359)"
         d="M 11,3 C 10.359239,3 9.7390484,3.0836225 9.1425781,3.2246094 8.8645821,3.2903189 8.593898,3.3711113 8.328125,3.4648438 8.2207614,3.5027084 8.1129919,3.5378298 8.0078125,3.5800781 c -0.00191,7.662e-4 -0.00395,0.00119 -0.00586,0.00195 C 7.3901779,3.828317 6.8200864,4.1511536 6.2949213,4.5332 6.2620663,4.557097 6.2297353,4.581081 6.1972653,4.605466 5.9568771,4.7860025 5.7259633,4.9775945 5.5078122,5.183591 c -0.01141,0.010781 -0.02381,0.020402 -0.035156,0.03125 -0.4705869,0.4496231 -0.8829219,0.9567761 -1.2324218,1.5097656 -0.015468,0.024507 -0.029714,0.04953 -0.044922,0.074219 -0.1643025,0.2663418 -0.3145457,0.5420556 -0.4472656,0.828125 -0.00392,0.00847 -0.00782,0.016902 -0.011719,0.025391 C 3.4548939,8.2645879 3.2488676,8.9166639 3.1289062,9.6015625 3.0493045,10.056037 3,10.522037 3,11 c 0,3.40348 2.1080956,6.289329 5.0917969,7.449219 0.00236,0.001 0.00352,0.0029 0.00586,0.0039 0.0063,0.0024 0.013223,0.0034 0.019531,0.0059 0.3314543,0.127546 0.6721021,0.233274 1.0234375,0.316407 0.00401,9.48e-4 0.00771,0.003 0.011719,0.0039 C 9.7457167,18.91873 10.362885,19 11,19 c 0.692897,0 1.360436,-0.09687 2,-0.261719 l 0,-1.037109 C 12.365849,17.88958 11.697021,18 11,18 10.152336,18 9.3444634,17.841978 8.59375,17.568359 c 0.013605,-0.01272 0.034981,-0.01887 0.039063,-0.03906 0.009,-0.0397 -0.00962,-0.05761 -0.011719,-0.121094 0.015,-0.0652 0.086009,-0.07228 0.099609,-0.138672 -0.0278,-0.0476 -0.092866,-0.01652 -0.1347656,-0.04102 -0.0407,-0.0237 -0.058534,-0.07654 -0.052734,-0.126954 0.0696,-0.0294 0.2040163,0.07016 0.2539063,-0.02734 0.0249,-0.0461 -0.027841,-0.158568 0.00586,-0.205078 0.0234,-0.0314 0.1517818,-0.03282 0.2011718,-0.04102 0.0709,-0.0123 0.1533894,-0.02663 0.1933594,-0.05273 0.0436,-0.0286 0.1072294,-0.1111 0.099609,-0.19336 -0.004,-0.0394 -0.030647,-0.05319 -0.060547,-0.08789 -0.0251,-0.0292 -0.034634,-0.06605 -0.052734,-0.09375 -0.0313,-0.0468 -0.07995,-0.03852 -0.09375,-0.105469 0.0958,-0.0188 0.2422794,0.07806 0.3808594,0.03906 0.0657,-0.0185 0.15701,-0.159023 0.1875,-0.220703 0.01,-0.0194 0.00923,-0.04847 0.019531,-0.07227 0.0123,-0.0259 0.037116,-0.04715 0.041016,-0.06055 0.01,-0.0364 0.00352,-0.06499 0.011719,-0.08789 0.0243,-0.0678 0.086833,-0.08858 0.1269531,-0.138672 0.0304,-0.0378 0.045419,-0.08331 0.074219,-0.121094 0.0314,-0.0411 0.059378,-0.077 0.080078,-0.113281 0.0197,-0.12187 -0.048131,-0.207723 -0.019531,-0.314453 0.032,-0.1199 0.1963606,-0.192004 0.3125006,-0.246094 0.04,-0.0186 0.08072,-0.04905 0.113281,-0.06055 0.0804,-0.0282 0.180396,-0.01206 0.253906,-0.03906 0.1251,-0.0457 0.139492,-0.180962 0.201172,-0.294922 0.0294,-0.0539 0.06647,-0.108064 0.07227,-0.146484 0.005,-0.0346 -0.01236,-0.06658 -0.0059,-0.107422 0.006,-0.0401 0.04369,-0.07486 0.05469,-0.119141 0.0145,-0.0577 0.01953,-0.142621 0.01953,-0.207031 0,-0.0528 -0.02494,-0.09871 -0.02734,-0.146484 -0.009,-0.17315 0.06294,-0.19285 0.126954,-0.28711 0.0319,-0.0468 0.04586,-0.101175 0.06836,-0.134765 0.10752,-0.16049 0.292817,-0.237889 0.279297,-0.480469 -0.005,-0.0803 -0.0541,-0.26148 -0.113281,-0.287109 -0.0337,-0.0147 -0.111267,-1.32e-4 -0.160157,-0.01953 -0.1578,-0.0589 -0.250553,-0.255068 -0.414062,-0.267578 -0.0348,-0.002 -0.06818,0.01447 -0.107422,0.01367 -0.0647,-0.001 -0.160782,-0.04453 -0.232422,-0.05273 -0.0455,-0.005 -0.107444,0.0134 -0.134766,0 -0.0418,-0.0202 -0.04628,-0.09821 -0.08008,-0.121094 -0.0271,-0.0184 -0.07834,-0.02336 -0.11914,-0.03906 -0.0657,-0.0255 -0.1194232,-0.05534 -0.1953133,-0.06055 -0.0234,-9.99e-4 -0.051025,0.0099 -0.078125,0.0059 -0.042,-0.006 -0.076354,-0.05648 -0.1152343,-0.08008 -0.0484,-0.0294 -0.093221,-0.04374 -0.1132813,-0.08594 0.0439,-0.14379 -0.076009,-0.184488 -0.1054687,-0.267578 -0.0139,-0.0389 -0.00683,-0.08447 -0.019531,-0.11914 -0.0173,-0.0498 -0.067124,-0.07961 -0.1210937,-0.121094 -0.0966,-0.0743 -0.1822325,-0.143119 -0.3203125,-0.160156 -0.0607,-0.007 -0.1200394,0.01837 -0.1933594,0.01367 -0.0777,-0.005 -0.176235,-0.07423 -0.234375,-0.140625 -0.0565,-0.0649 -0.083502,-0.121333 -0.1328125,-0.152343 -0.0467,-0.0297 -0.108805,-0.03025 -0.140625,-0.06055 -0.0141,-0.0135 -0.012844,-0.03531 -0.027344,-0.06641 -0.0234,-0.0485 -0.062503,-0.07462 -0.033203,-0.132813 -0.0533,-0.0272 -0.055021,0.04926 -0.1132812,0.03906 -0.052,-0.0737 -0.095071,-0.109481 -0.2128906,-0.08789 -0.0538,0.01 -0.083514,0.07828 -0.1464844,0.08008 -0.0516,0.001 -0.092016,-0.05661 -0.1601563,-0.06641 -0.0515,-0.007 -0.1118675,0.01531 -0.1484375,0.0078 -0.0569,-0.011 -0.074833,-0.05945 -0.1269531,-0.09375 -0.038,-0.0251 -0.1113725,-0.06896 -0.1328125,-0.06836 -0.0671,0.001 -0.1145214,0.14278 -0.2070312,0.09375 -0.0451,-0.0569 0.072831,-0.0854 0.019531,-0.138672 -0.0404,-0.0405 -0.073119,0.01676 -0.1054688,0.03906 -0.0369,0.0255 -0.072311,0.05131 -0.1132812,0.06641 -0.0917,0.0342 -0.1490431,0.01769 -0.2207031,0.05469 -0.0665,0.0345 -0.069762,0.09192 -0.1074219,0.160156 -0.0309,0.056 -0.1003644,0.137253 -0.1464844,0.140626 -0.0559,0.004 -0.1094462,-0.07963 -0.1601562,-0.101563 -0.1529,-0.0662 -0.2265456,0.05875 -0.3535156,0.06055 -0.1178201,0.001 -0.28717,-0.190001 -0.28125,-0.300781 0.004,-0.0675 0.038775,-0.170287 0.046875,-0.253907 0.006,-0.0665 0.052134,-0.105275 0.052734,-0.166015 10e-4,-0.081 -0.1056431,-0.144697 -0.1582031,-0.154297 -0.12474,-0.0229 -0.2984462,0.05044 -0.4414062,-0.0059 -0.0272,-0.045098 0.031575,-0.07526 0.046875,-0.1191401 0.009,-0.025 0.00447,-0.06039 0.013672,-0.087891 0.0158,-0.0423 0.060178,-0.075994 0.080078,-0.1210937 0.015,-0.0343 0.018003,-0.084243 0.033203,-0.1269531 0.0173,-0.0485 0.048934,-0.077268 0.052734,-0.1113282 0.005,-0.0451 -0.011175,-0.097243 -0.046875,-0.1269531 -0.1109599,0.006 -0.1830337,0.00996 -0.2460937,0.039063 -0.14447,0.0657 -0.1174188,0.2604407 -0.2617187,0.3066406 -0.0499,0.0161 -0.1188982,0.017444 -0.1738282,0.027344 -0.0473,0.009 -0.1034237,0.034103 -0.1523437,0.033203 -0.0577,-10e-4 -0.1589794,-0.05675 -0.1933594,-0.09375 -0.012703,-0.013738 -0.027029,-0.053997 -0.046875,-0.09375 0.078563,-0.3796487 0.193058,-0.7455157 0.3300781,-1.0996093 0.093223,-0.051019 0.1734702,-0.1274283 0.2832032,-0.1347657 0.0566,-0.004 0.1408825,0.016044 0.1953124,0.027344 0.0503,0.01 0.089313,0.043575 0.1328126,0.046875 0.1233899,0.01 0.1532462,-0.086835 0.2539062,-0.140625 0.10397,0.0146 0.171695,-0.018913 0.265625,-0.00781 0.064,0.007 0.1101862,0.078231 0.1601562,0.082031 0.0421,0.002 0.080514,-0.041556 0.1210938,-0.035156 0.0395,0.006 0.1069114,0.092435 0.1132812,0.140625 0.007,0.0599 -0.044444,0.1157206 -0.027344,0.1816406 0.0629,0.064 0.1777281,0.076411 0.2675781,0.1132812 0.0585,-0.0483 0.009,-0.1372312 0,-0.2070312 -0.002,-0.0309 0.004,-0.059591 0,-0.087891 -0.006,-0.0481 -0.027144,-0.091603 -0.027344,-0.1328125 -6.1e-4,-0.18999 0.15381,-0.2784957 0.28125,-0.3535157 0.0552,-0.0326 0.098615,-0.089401 0.1464843,-0.1132812 0.0675,-0.0338 0.1179182,-0.042619 0.1738282,-0.074219 0.10115,-0.0568 0.1884981,-0.1035687 0.2675781,-0.1679687 0.0367,-0.0861 0.00186,-0.2000263 0.00586,-0.2851563 0.0367,-0.0224 0.066729,0.00986 0.1054687,0.00586 0.0611,-0.013 0.067023,-0.1003656 0.1015625,-0.1347656 0.02,-0.0197 0.074709,-0.033134 0.099609,-0.052734 0.0609,-0.0477 0.079702,-0.120075 0.1328125,-0.140625 0.019,-0.007 0.06375,-0.00497 0.09375,-0.013672 0.0397,-0.011 0.095716,-0.058078 0.1601562,-0.080078 0.0418,-0.0143 0.1382669,-0.017003 0.1542969,-0.033203 0.0197,-0.02 6.94e-5,-0.075319 0.00586,-0.1054687 0.0324,-0.15072 0.2603213,-0.183645 0.3945313,-0.234375 0.094,-0.0357 0.1896187,-0.1001682 0.2929687,-0.080078 -0.0202,0.0716 -0.1160594,0.045913 -0.099609,0.1328125 0.0228,0.12076 0.1839225,-0.034834 0.2265625,-0.052734 0.0814,-0.0342 0.2193119,-0.05495 0.3261719,-0.09375 0.0938,-0.034 0.2621681,-0.086179 0.1738281,-0.1933594 -0.0737,-0.005 -0.1095881,0.085811 -0.1738281,0.1132812 -0.0444,0.006 -0.034466,-0.037416 -0.072266,-0.041016 -0.0358,-0.002 -0.05685,0.033744 -0.09375,0.027344 -0.0367,-0.006 -0.08805,-0.064462 -0.09375,-0.1074219 -0.0147,-0.11144 0.094435,-0.1551613 0.140625,-0.2382813 -0.0305,-0.10078 -0.1696163,-0.021147 -0.2539063,-0.060547 0.009,-0.0601 0.070545,-0.1017513 0.140625,-0.1132813 0.0574,-0.01 0.1864828,-0.00261 0.2207032,0.025391 0.02,0.0168 0.0016,0.059991 0.033203,0.087891 0.0341,0.0308 0.074851,0.026831 0.1191406,0.019531 0.0161,-0.076 -0.098437,-0.057082 -0.085937,-0.1074219 0.0901,-0.059 0.2372562,-0.00949 0.3476562,-0.025391 0.0635,-0.01 0.1292369,-0.056091 0.1855469,-0.087891 0.0536,-0.0303 0.1248104,-0.083103 0.1816407,-0.033203 0.0156,0.0544 -0.049778,0.072479 -0.080078,0.099609 -0.10213,0.0909 -0.2076993,0.1952613 -0.2871094,0.3007813 0.0488,0.0476 0.1363203,0.023503 0.21875,0.033203 0.0322,0.004 0.073362,0.015484 0.1074219,0.021484 0.0398,0.007 0.082121,0.00462 0.1132813,0.011719 0.0562,0.0138 0.071542,0.074219 0.126954,0.074219 0.0913,-1.7e-4 0.09272,-0.098416 0.04101,-0.1601563 0.0163,-0.063 0.04173,-0.096435 0.01953,-0.140625 -0.0411,-0.0823 -0.1934119,-0.00226 -0.2011719,-0.1074219 -0.005,-0.0666 0.055878,-0.063421 0.080078,-0.1132812 -0.011,-0.12864 0.1061609,-0.1385962 0.09375,-0.2539062 -0.006,-0.0483 -0.04618,-0.046597 -0.08008,-0.091797 -0.017498,-0.0233 -0.025774,-0.069991 -0.046874,-0.087891 -0.0698,-0.059 -0.21016,-0.047516 -0.21875,-0.1601562 -0.004,-0.0664 0.015659,-0.1212594 0.00586,-0.1933594 -0.009,-0.0673 -0.054421,-0.2547281 -0.1132813,-0.2675781 -0.0745,-0.0162 -0.1528475,0.1120069 -0.2421875,0.1542969 -0.0486,0.0231 -0.1173056,0.048262 -0.1660156,0.039063 -0.0316,-0.006 -0.094809,-0.052111 -0.099609,-0.1132813 -0.006,-0.0701 0.047747,-0.071714 0.060547,-0.1464844 -0.011,-0.0441 -0.058333,-0.033306 -0.1015625,-0.066406 -0.049,-0.0373 -0.087084,-0.1178731 -0.1523437,-0.1269531 -0.0325,-0.005 -0.075062,0.025144 -0.1074219,0.027344 -0.059672,0.00361 -0.1058752,-0.011467 -0.15625,-0.027344 0.1608794,-0.056524 0.324143,-0.1074426 0.4902343,-0.1523438 0.0311,0.0334 0.042178,0.097151 0.080078,0.1191407 0.0253,0.0145 0.069009,0.010131 0.099609,0.019531 0.098,0.0297 0.1798993,0.083147 0.2871093,0.060547 0.0368,-0.0646 -0.075703,-0.082113 -0.033203,-0.1328125 0.0718,0.006 0.1185281,0.036194 0.1738281,0.058594 0.0772,-0.0565 0.12776,-0.061584 0.125,-0.1523437 C 9.8918564,4.1698325 9.8488483,4.1439456 9.8203125,4.1054688 9.8798122,4.0954267 9.9399906,4.0866659 10,4.078125 c 0.01323,0.014508 0.02425,0.036593 0.04102,0.039063 0.038,0.006 0.151048,-0.049547 0.173828,-0.060547 0.0042,-0.00207 0.01146,-0.010333 0.01758,-0.013672 C 10.484937,4.0156094 10.739974,4 11,4 c 1.195632,0 2.318214,0.2980754 3.300781,0.8222656 -0.03314,0.010152 -0.06567,0.017198 -0.105469,0.03125 -0.0471,0.0166 -0.134354,0.098133 -0.146484,0.1269532 -0.0201,0.0476 0.005,0.098685 0,0.171875 0.0381,0.0166 0.06184,0.091233 0.126953,0.1269531 0.0246,0.0135 0.05622,0.00683 0.07813,0.019531 0.0381,0.0215 0.06835,0.069262 0.06055,0.1074219 -0.011,0.0548 -0.08197,0.039478 -0.119141,0.080078 0.006,0.0777 -0.05472,0.088735 -0.07422,0.140625 0.0123,0.0329 0.06111,0.026906 0.06641,0.066406 -0.007,0.0426 -0.08291,0.04885 -0.06641,0.09375 0.0715,0.0558 0.147244,-0.010831 0.214844,-0.019531 0.14935,-0.0186 0.300858,0.019266 0.392578,-0.052734 -0.0125,-0.0714 0.07606,-0.096416 0.06836,-0.1601563 -0.006,-0.0481 -0.08601,-0.054691 -0.121094,-0.087891 -0.0188,-0.0178 -0.02398,-0.05925 -0.04687,-0.09375 -0.0264,-0.0396 -0.07613,-0.066819 -0.105468,-0.1054688 -0.0392,-0.0521 -0.121334,-0.1283287 -0.121094,-0.1679687 6.1e-4,-0.0455 0.05621,-0.056861 0.06641,-0.1191406 -0.0123,-0.0572 -0.118703,-0.019378 -0.126953,-0.080078 0.0021,-0.019406 0.01155,-0.032593 0.02148,-0.044922 0.306537,0.1675636 0.594818,0.3623189 0.871094,0.5722656 -0.0031,4.258e-4 -0.0088,-5.243e-4 -0.01172,0 -0.0669,0.0123 -0.09141,0.096069 -0.146484,0.1621094 -0.0382,0.0461 -0.111169,0.094641 -0.167969,0.1191406 -0.0277,0.0123 -0.06054,0.011144 -0.08594,0.027344 -0.0375,0.0249 -0.05115,0.084501 -0.09375,0.1132813 -0.0307,0.0208 -0.147308,0.079478 -0.179688,0.080078 -0.038,6.1e-4 -0.07241,-0.036144 -0.09961,-0.027344 -0.0401,0.0126 -0.03674,0.091362 -0.08203,0.1074218 -0.0885,0.0314 -0.234782,-0.079166 -0.265626,0.052734 0.0379,0.0764 0.132989,0.057409 0.199219,0.099609 0.0417,0.0262 0.129655,0.14282 0.140625,0.1875 0.01,0.0378 -0.0041,0.1864525 -0.01953,0.2265625 -0.0413,0.10655 -0.139169,0.071059 -0.261719,0.068359 -0.0335,-6.099e-4 -0.06861,0.00886 -0.09961,0.00586 -0.20669,-0.014 -0.414413,-0.088706 -0.507813,0.058594 0.007,0.11329 0.03291,0.1906025 0.0078,0.2890625 -0.0183,0.0723 -0.08328,0.1365087 -0.08008,0.1992187 0.002,0.0322 0.03908,0.063782 0.04687,0.1074219 0.005,0.0233 -0.011,0.07265 0,0.09375 0.034,0.0657 0.125177,0.00983 0.185547,0.019531 0.059,0.01 0.127573,0.094116 0.126953,0.1601562 -6.1e-4,0.0461 -0.04297,0.1216656 -0.07227,0.1660156 -0.0584,0.0885 -0.137253,0.093345 -0.220703,0.140625 -0.0696,0.0395 -0.09984,0.1051678 -0.140625,0.1738282 -0.0443,0.0742 -0.07093,0.1192026 -0.05273,0.2265624 -0.0597,0.1183102 -0.149848,0.1917469 -0.273438,0.2480469 -0.0367,0.0166 -0.08762,0.022575 -0.121094,0.046875 -0.0266,0.0192 -0.04218,0.070621 -0.08008,0.1132813 -0.0467,0.0522 -0.09446,0.073401 -0.11914,0.1132812 -0.019,0.031 -0.02608,0.091513 -0.04687,0.1328125 -0.0286,0.056 -0.08954,0.083835 -0.126953,0.140625 -0.0172,0.0262 -0.02787,0.078801 -0.04688,0.1132813 -0.0423,0.0769 -0.115151,0.1335621 -0.107421,0.2011718 0.007,0.0655 0.08289,0.075822 0.08789,0.1328126 0.004,0.0322 -0.02288,0.050838 -0.02148,0.085937 0.001,0.0512 0.03702,0.087533 0.04101,0.1269532 0.01,0.0992 -0.03609,0.1392712 -0.05469,0.2070312 -0.009,0.0324 -0.0035,0.06855 -0.01172,0.09375 -0.0163,0.0495 -0.08669,0.09554 -0.08789,0.154296 -10e-4,0.0418 0.04327,0.07432 0.04687,0.132813 0.002,0.0402 -0.02087,0.08399 -0.01367,0.121094 0.0142,0.0727 0.144712,0.15643 0.201172,0.21289 0.0755,0.0755 0.174481,0.133311 0.207031,0.212891 0.0275,0.0675 0.02758,0.158034 0.08008,0.208984 0.0389,0.0374 0.102444,0.06051 0.152344,0.09961 0.0466,0.0362 0.09876,0.06673 0.148437,0.105468 0.0813,0.0636 0.202543,0.191411 0.332031,0.181641 0.0675,-0.005 0.138154,-0.06062 0.214844,-0.07422 0.079,-0.0139 0.180176,-0.02177 0.259766,-0.01367 0.0611,0.006 0.12412,0.04216 0.1875,0.03906 0.067,-0.004 0.144673,-0.05274 0.220703,-0.08594 0.13166,-0.0573 0.327201,-0.133639 0.519531,-0.105469 0.1465,0.0213 0.140708,0.187703 0.242188,0.251953 0.11783,0.01 0.211467,-0.04253 0.304687,-0.01953 0.0705,0.0174 0.15536,0.123867 0.16211,0.179687 0.007,0.0579 -0.03252,0.145911 -0.04102,0.181641 -0.0184,0.0779 -0.0192,0.16937 -0.0332,0.21875 -0.011,0.0382 -0.04162,0.06141 -0.04102,0.09961 6.1e-4,0.0351 0.04428,0.122079 0.08008,0.167969 0.0439,0.0563 0.114719,0.09912 0.167969,0.160156 0.0977,0.11169 0.139421,0.247181 0.207031,0.394531 0.01716,0.03733 0.03513,0.08764 0.05078,0.134766 l 2.685546,0 c 0.05362,-0.217675 0.114731,-0.432478 0.152344,-0.65625 0.01344,-0.07922 0.026,-0.158272 0.03711,-0.238281 C 18.965752,11.743461 19,11.376104 19,11 19,10.697842 18.979577,10.400691 18.947266,10.107422 18.914899,9.8136513 18.863849,9.5253178 18.800781,9.2421875 18.752423,9.0250918 18.700279,8.8095547 18.634766,8.5996094 18.622896,8.5615732 18.606707,8.5257014 18.59375,8.4882812 18.554629,8.3692354 18.511262,8.2531906 18.466797,8.1367188 18.410771,7.9899661 18.351361,7.845532 18.287109,7.703125 c -0.0023,-0.00506 -0.0037,-0.010495 -0.0059,-0.015625 -0.0018,-0.00398 -0.004,-0.00774 -0.0059,-0.011719 -0.02463,-0.054057 -0.05233,-0.1067591 -0.07813,-0.1601562 -0.09663,-0.2000577 -0.200135,-0.3956761 -0.3125,-0.5859375 -0.0015,-0.0025 -0.0024,-0.00531 -0.0039,-0.00781 C 17.822835,6.8238713 17.765158,6.726089 17.703125,6.6308594 17.547114,6.3913605 17.381269,6.160133 17.201172,5.9394531 17.021484,5.7192749 16.830759,5.5082276 16.628906,5.3085938 16.536244,5.21695 16.436899,5.1319581 16.339844,5.0449219 c -0.0014,-0.00122 -0.0025,-0.00269 -0.0039,-0.00391 C 16.053186,4.787804 15.75652,4.5510771 15.439453,4.3398438 14.170485,3.4944441 12.645621,3 11,3 Z M 8.484375,4.4707031 c -0.022823,0.043406 -0.045344,0.0873 -0.091797,0.1015625 0.0123,0.0652 -0.076137,0.1066231 -0.085937,0.1582032 -0.006,0.0347 0.00952,0.075872 0.011719,0.1074218 0.02,0.3193 -0.2436575,0.4695475 -0.5546875,0.4609375 -0.0611,0.0584 -0.045025,0.1679869 -0.078125,0.2480469 -0.028,0.0673 -0.1280525,0.1385525 -0.1953125,0.1328125 -0.0497,-0.004 -0.1053488,-0.074724 -0.1054688,-0.1210937 -1.6e-4,-0.0571 0.082603,-0.087084 0.033203,-0.1523438 0.007,-0.0444 0.1059099,-0.069935 0.09375,-0.140625 C 7.4992187,5.192025 7.3963475,5.23015 7.3046875,5.21875 7.2530835,5.2117869 7.1928237,5.1821676 7.1386719,5.15625 7.5570634,4.8799554 8.0090231,4.6529982 8.484375,4.4707031 Z m 5.40625,0.7519531 c -0.0272,0.004 -0.05397,0.00954 -0.07617,0.023438 -0.0508,0.031 -0.06816,0.07865 -0.107422,0.09375 -0.0542,0.0205 -0.09161,0.00293 -0.09961,0.052734 -0.006,0.0411 0.0345,0.061109 0.0332,0.099609 -0.0197,0.049 -0.07614,0.061904 -0.08594,0.1210937 0.0675,0.11034 0.230503,0.011828 0.314453,-0.013672 0.0378,-0.011 0.09087,-0.00896 0.111328,-0.039063 0.0233,-0.0353 0.0031,-0.097368 0.02148,-0.1484375 0.0194,-0.0562 0.07301,-0.063101 0.06641,-0.1132813 -0.006,-0.0498 -0.09592,-0.084272 -0.177734,-0.076172 z M 6.5507812,6 c 0.0606,0.0158 0.2209207,0.1913869 0.087891,0.2480469 -0.0126,0.006 -0.1950325,0.024931 -0.2265625,0.019531 -0.0461,-0.007 -0.074424,-0.071878 -0.1210938,-0.080078 -0.0922,-0.0162 -0.2160868,0.1105494 -0.2792968,0.00586 0.0161,-0.0593 0.081894,-0.060978 0.1523437,-0.080078 C 6.2891625,6.0791813 6.4425412,5.97172 6.5507812,6 Z m 0.2539063,0.3222656 c 0.0313,0.002 0.069682,0.036263 0.1074219,0.039063 0.0357,0.002 0.064037,-0.019272 0.085937,-0.013672 0.0558,0.0147 0.079944,0.099345 0.027344,0.140625 -0.0436,0.005 -0.06075,-0.019472 -0.09375,-0.013672 -0.0907,0.0156 -0.1255992,0.19338 -0.1933594,0.1875 -0.0639,-0.006 -0.098103,-0.1606613 -0.033203,-0.2070313 0.002,-0.0405 -0.029444,-0.047991 -0.027344,-0.087891 0.0196,-0.025 0.073743,-0.049422 0.1269531,-0.044922 z m -0.3007813,0.019531 c 0.0185,6.1e-4 0.034116,0.00607 0.041016,0.013672 -0.009,0.0711 -0.066224,0.066379 -0.1210938,0.099609 -0.0949,0.0573 -0.1494975,0.1451982 -0.1796875,0.2675781 -0.009,0.0359 -0.1013242,0.1285307 -0.1464844,0.1191407 -0.1059299,-0.0222 0.028634,-0.2164238 0.052734,-0.2460938 0.0266,-0.0329 0.06225,-0.06171 0.09375,-0.099609 0.0305,-0.0368 0.050678,-0.087062 0.080078,-0.1074219 0.0323,-0.0222 0.1239074,-0.048975 0.1796874,-0.046875 z m 9.5058598,0.041016 0.002,0 c 0.04758,0.012868 0.04392,0.054889 0.08008,0.080078 0.0266,0.0185 0.0619,0.014503 0.0918,0.033203 0.0351,0.0221 0.05415,0.079911 0.09375,0.1132812 0.056,0.0471 0.155505,0.081541 0.234375,0.1191406 0.01568,0.00746 0.03442,0.01872 0.05273,0.027344 0.05055,0.066268 0.102193,0.1311076 0.150391,0.1992187 -0.0011,0.00891 -0.0032,0.01941 -0.002,0.027344 0.006,0.0396 0.03373,0.081062 0.05273,0.1074219 0.0516,0.0711 0.124821,0.1344031 0.181641,0.2207031 -7.04e-4,0.082534 0.03393,0.1293666 0.0918,0.1523437 0.10756,0.1838038 0.206097,0.3722952 0.296876,0.5664063 -0.02969,-0.00196 -0.06038,-0.00403 -0.08984,-0.011719 -0.0657,-0.11587 -0.397312,-0.123565 -0.425782,0.046875 -0.0127,0.0752 0.03758,0.1803894 -0.07422,0.1933594 -0.071,0.009 -0.142965,-0.07265 -0.240235,-0.09375 -0.0399,-0.009 -0.09593,-0.00247 -0.126953,-0.013672 -0.0728,-0.0251 -0.06434,-0.094482 -0.126953,-0.1386718 -0.0364,-0.0255 -0.13,-0.062059 -0.1875,-0.068359 -0.0358,-0.004 -0.06966,0.010859 -0.107422,0.00586 -0.0449,-0.005 -0.108564,-0.035494 -0.146484,-0.058594 -0.0362,-0.0221 -0.109941,-0.056291 -0.119141,-0.087891 -0.0142,-0.0492 0.09025,-0.1046344 0.09375,-0.1464844 0.002,-0.0315 -0.03908,-0.051109 -0.04687,-0.099609 -0.005,-0.0293 0.01216,-0.060578 0.0059,-0.080078 -0.01,-0.0345 -0.0673,-0.073219 -0.121094,-0.074219 -0.0476,-6.101e-4 -0.0921,0.039816 -0.132813,0.041016 -0.0587,10e-4 -0.153902,-0.033044 -0.226562,-0.027344 -0.0445,0.004 -0.08554,0.030003 -0.126953,0.033203 -0.11635,0.01 -0.210765,-0.006 -0.300781,0 -0.0656,0.004 -0.179215,0.024934 -0.240235,0.052734 -0.031,0.0141 -0.05385,0.048159 -0.09375,0.068359 -0.018,0.009 -0.04251,0.00863 -0.06641,0.019531 -0.0379,0.0172 -0.07721,0.057306 -0.113281,0.066406 -0.0522,0.0134 -0.132163,-0.00986 -0.226563,-0.00586 -0.0678,0.004 -0.18072,0.00212 -0.181641,-0.080078 -9.99e-4,-0.12356 0.211443,-0.077909 0.328126,-0.099609 0.044,-0.009 0.06667,-0.048878 0.11914,-0.080078 0.0251,-0.015 0.05648,-0.017003 0.08008,-0.033203 0.0405,-0.0278 0.101532,-0.094823 0.107422,-0.1269531 0.006,-0.0297 -0.01717,-0.07175 -0.01367,-0.09375 0.005,-0.0281 0.03792,-0.05795 0.07422,-0.09375 0.0563,-0.0555 0.116457,-0.1295857 0.185547,-0.1660157 0.0472,-0.0249 0.113092,-0.022947 0.134766,-0.060547 0.005,-0.0428 -0.0069,-0.068562 -0.0059,-0.1074218 0.0291,-0.0265 0.04797,-0.047534 0.07227,-0.052734 0.072,-0.0156 0.142772,0.050475 0.226562,0.046875 0.0362,-0.002 0.06856,-0.026934 0.107422,-0.052734 0.0327,-0.0217 0.06761,-0.038387 0.09961,-0.054687 0.0353,-0.0183 0.07245,-0.057847 0.115234,-0.060547 0.10507,-0.006 0.145629,0.1105582 0.193359,0.1738282 0.04,0.0526 0.15319,0.1427575 0.21875,0.1796875 0.0369,0.0207 0.08633,0.022616 0.126953,0.041016 0.0867,0.0389 0.258959,0.1689363 0.261719,0.2539063 0.002,0.0424 -0.0398,0.074211 -0.0332,0.1132812 0.0656,0.011 0.137142,-0.061243 0.138672,-0.1269531 6.1e-4,-0.0411 -0.0411,-0.064172 -0.0332,-0.1074219 0.0307,-0.0661 0.120596,0.00162 0.160156,-0.025391 -0.007,-0.0747 -0.110068,-0.082314 -0.173828,-0.1210938 -0.0344,-0.021 -0.0561,-0.065478 -0.0918,-0.080078 -0.0517,-0.0212 -0.108178,-0.015775 -0.148438,-0.046875 -0.0378,-0.0292 -0.0546,-0.094292 -0.0918,-0.1386719 -0.0542,-0.0645 -0.173165,-0.075093 -0.140625,-0.2207031 0.01591,-0.0216 0.05293,-0.054479 0.07812,-0.046875 z M 7.2949219,6.5839844 c 0.0338,6.2e-4 0.064125,0.00448 0.078125,0.017578 -0.0217,0.0882 -0.21178,0.066856 -0.28125,0.035156 0.004,-0.0331 0.056009,-0.042475 0.099609,-0.046875 0.0309,-0.002 0.069526,-0.00586 0.1035157,-0.00586 z M 15.5625,6.7441406 c -0.0433,0.0142 -0.0659,0.1075007 0,0.1191406 0.0307,-0.0184 0.05448,-0.043209 0.04687,-0.099609 -0.0169,-0.0183 -0.03257,-0.024331 -0.04687,-0.019531 z m -8.7011719,0.00195 c 0.0228,-6.101e-4 0.046613,7.656e-4 0.070312,0.00977 -0.0616,0.0515 -0.128845,0.079901 -0.234375,0.1132812 -0.0508,0.0161 -0.1379044,0.037169 -0.1464844,-0.019531 -0.011,-0.0694 0.074714,-0.054447 0.1210938,-0.060547 0.0584,-0.007 0.1210631,-0.040769 0.1894531,-0.042969 z m 8.6835939,0.1855468 c -0.0215,0.006 -0.04546,0.020922 -0.06836,0.044922 0.001,0.0746 0.0091,0.12275 -0.0059,0.1875 0.043,0.0823 0.138216,0.00932 0.160156,-0.046875 0.0258,-0.13896 -0.02184,-0.2030469 -0.08594,-0.1855469 z m 0.568359,0.3691406 c -0.05867,-0.00185 -0.114112,6.598e-4 -0.148437,0.029297 0.0489,0.0801 0.150355,0.1071931 0.259765,0.1269531 0.0395,-0.0296 0.04255,-0.095414 0.06055,-0.1464843 -0.04736,6.031e-4 -0.1111,-0.0067 -0.169922,-0.00977 l -0.002,0 z M 4.2675781,10.011719 c 0.1637,-0.005 0.2349975,0.207857 0.3671875,0.273437 0.0331,0.0167 0.076361,0.01764 0.1191406,0.02734 0.0347,0.007 0.06055,0.0219 0.09375,0.0332 0.0706,0.0239 0.1583738,0.02177 0.2148438,0.04687 0.0851,0.0378 0.14556,0.197426 0.21875,0.240234 0.004,0.0432 -0.00714,0.100583 0.00586,0.132813 0.0346,0.0468 0.083655,0.03776 0.140625,0.06836 0.0681,0.0368 0.089737,0.131157 0.1542968,0.160157 0.022,0.01 0.078111,0.0091 0.1132813,0.01953 0.0885,0.0267 0.1174594,0.129832 0.1933594,0.107422 0.0498,-0.0145 0.044835,-0.06571 0.052734,-0.113282 0.0329,-0.0358 0.069814,-0.09275 0.1210938,-0.09375 0.083,-9.99e-4 0.090804,0.0854 0.1210938,0.166016 0.0169,0.0455 0.060566,0.0848 0.072266,0.132813 0.0205,0.083 0.011141,0.331259 -0.00586,0.380859 -0.021,0.0609 -0.1035469,0.08685 -0.1542969,0.154297 -0.0238,0.0315 -0.034534,0.07741 -0.052734,0.09961 -0.0325,0.0398 -0.083072,0.05109 -0.1074219,0.08789 -0.0139,0.0206 -0.025863,0.06585 -0.039063,0.09375 -0.0402,0.085 -0.094247,0.144114 -0.060547,0.246094 0.0138,0.0419 0.079878,0.06976 0.080078,0.11914 1.3e-4,0.0582 -0.1232125,0.110068 -0.1328125,0.173828 -0.007,0.0472 0.037834,0.133603 0.052734,0.195313 0.011,0.0467 0.099433,0.07443 0.1269531,0.105469 0.0468,0.0526 0.084133,0.127279 0.1269532,0.193359 0.0846,0.12999 0.151955,0.288143 0.234375,0.414062 0.0433,0.066 0.1037724,0.12492 0.1328124,0.19336 0.0147,0.0346 0.013444,0.07637 0.027344,0.107422 0.0477,0.10777 0.2584375,0.219987 0.3671875,0.273437 0.0509,0.025 0.1056337,0.03435 0.1523437,0.06055 0.0707,0.0395 0.2123169,0.144981 0.2480469,0.207031 0.032,0.0558 0.050806,0.190627 0.066406,0.279297 0.0206,0.11721 8.594e-4,0.207075 0.00586,0.333985 0.004,0.0687 0.026444,0.138231 0.027344,0.207031 3.1e-4,0.024 -0.012772,0.04366 -0.013672,0.06836 -0.002,0.0832 0.020872,0.175976 0.013672,0.259766 -0.004,0.0456 -0.017072,0.083 -0.013672,0.121094 0.004,0.0414 0.024144,0.07506 0.027344,0.111328 0.002,0.0391 -0.011813,0.0907 -0.00781,0.121093 0.009,0.0843 0.071291,0.149503 0.087891,0.226563 0.0132,0.0614 0.021572,0.188209 0.013672,0.261719 -0.005,0.0386 -0.027303,0.07687 -0.033203,0.11914 -0.004,0.0334 0.005,0.06841 0,0.09961 -0.006,0.0467 -0.036003,0.08342 -0.033203,0.126953 0.006,0.09 0.1050407,0.163866 0.1191407,0.253906 0.005,0.0302 -0.00686,0.06465 -0.00586,0.09375 9.881e-4,0.02742 0.011616,0.05128 0.019531,0.07617 C 5.4177136,15.874477 4,13.610488 4,11 c 0,-0.31298 0.026979,-0.618034 0.066406,-0.919922 0.0633,3.1e-4 0.1313919,-0.06646 0.2011719,-0.06836 z m 2.7167969,0.755859 c 0.0641,-0.0294 0.080044,0.09293 0.027344,0.101563 -0.0499,0.007 -0.075744,-0.07923 -0.027344,-0.101563 z M 14,14 l 0,1 0,1 0,1 0,1 1,0 1,0 0,1 3,0 0,-2 -3,0 -1,0 0,-1 1,0 3,0 0,-2 -3,0 0,1 -1,0 0,-1 -1,0 z"
         style="opacity:1;fill:#f2f2f2;fill-opacity:1;stroke:none;stroke-width:2.79999995;stroke-miterlimit:4;stroke-dasharray:none;stroke-opacity:0.55026455"
         inkscape:connector-curvature="0" />
    </g>
  </g>
</svg>
