<?xml version="1.0" encoding="UTF-8" standalone="no"?>
<!-- Created with Inkscape (http://www.inkscape.org/) -->

<svg
   xmlns:dc="http://purl.org/dc/elements/1.1/"
   xmlns:cc="http://creativecommons.org/ns#"
   xmlns:rdf="http://www.w3.org/1999/02/22-rdf-syntax-ns#"
   xmlns:svg="http://www.w3.org/2000/svg"
   xmlns="http://www.w3.org/2000/svg"
   xmlns:sodipodi="http://sodipodi.sourceforge.net/DTD/sodipodi-0.dtd"
   xmlns:inkscape="http://www.inkscape.org/namespaces/inkscape"
   width="24"
   height="24"
   id="svg3869"
   version="1.1"
   inkscape:version="0.91 r13725"
   sodipodi:docname="view-calendar-birthday.svg">
  <defs
     id="defs3871">
    <linearGradient
       id="linearGradient4290-48">
      <stop
         id="stop4292-0"
         offset="0"
         style="stop-color:#a5a5a5;stop-opacity:1;" />
      <stop
         id="stop4294-0"
         offset="1"
         style="stop-color:#f5f2f5;stop-opacity:1;" />
    </linearGradient>
    <inkscape:perspective
       id="perspective4146-9"
       inkscape:persp3d-origin="12 : 8 : 1"
       inkscape:vp_z="24 : 12 : 1"
       inkscape:vp_y="0 : 1000 : 0"
       inkscape:vp_x="0 : 12 : 1"
       sodipodi:type="inkscape:persp3d" />
    <inkscape:perspective
       id="perspective4146"
       inkscape:persp3d-origin="12 : 8 : 1"
       inkscape:vp_z="24 : 12 : 1"
       inkscape:vp_y="0 : 1000 : 0"
       inkscape:vp_x="0 : 12 : 1"
       sodipodi:type="inkscape:persp3d" />
    <inkscape:perspective
       sodipodi:type="inkscape:persp3d"
       inkscape:vp_x="0 : 12 : 1"
       inkscape:vp_y="0 : 1000 : 0"
       inkscape:vp_z="24 : 12 : 1"
       inkscape:persp3d-origin="12 : 8 : 1"
       id="perspective4146-9-1" />
    <inkscape:perspective
       sodipodi:type="inkscape:persp3d"
       inkscape:vp_x="0 : 12 : 1"
       inkscape:vp_y="0 : 1000 : 0"
       inkscape:vp_z="24 : 12 : 1"
       inkscape:persp3d-origin="12 : 8 : 1"
       id="perspective4146-96" />
  </defs>
  <sodipodi:namedview
     id="base"
     pagecolor="#ffffff"
     bordercolor="#666666"
     borderopacity="1.0"
     inkscape:pageopacity="0.0"
     inkscape:pageshadow="2"
     inkscape:zoom="22.627416"
     inkscape:cx="5.4926209"
     inkscape:cy="10.264796"
     inkscape:document-units="px"
     inkscape:current-layer="layer1"
     showgrid="true"
     fit-margin-top="0"
     fit-margin-left="0"
     fit-margin-right="0"
     fit-margin-bottom="0"
     inkscape:window-width="1366"
     inkscape:window-height="709"
     inkscape:window-x="-4"
     inkscape:window-y="0"
     inkscape:window-maximized="1"
     inkscape:showpageshadow="false"
     inkscape:snap-bbox="true"
     inkscape:object-nodes="true">
    <inkscape:grid
       type="xygrid"
       id="grid4132" />
    <sodipodi:guide
       position="4,18"
       orientation="18,0"
       id="guide4138" />
    <sodipodi:guide
       position="5,3"
       orientation="0,18"
       id="guide4140" />
    <sodipodi:guide
       position="20,2.0000174"
       orientation="-18,0"
       id="guide4142" />
    <sodipodi:guide
       position="2,21"
       orientation="0,-18"
       id="guide4144" />
    <sodipodi:guide
       position="3,19.000017"
       orientation="16,0"
       id="guide4146" />
    <sodipodi:guide
       position="2,4"
       orientation="0,16"
       id="guide4148" />
    <sodipodi:guide
       position="21,20"
       orientation="-16,0"
       id="guide4150" />
    <sodipodi:guide
       position="2,20"
       orientation="0,-16"
       id="guide4152" />
  </sodipodi:namedview>
  <metadata
     id="metadata3874">
    <rdf:RDF>
      <cc:Work
         rdf:about="">
        <dc:format>image/svg+xml</dc:format>
        <dc:type
           rdf:resource="http://purl.org/dc/dcmitype/StillImage" />
        <dc:title></dc:title>
      </cc:Work>
    </rdf:RDF>
  </metadata>
  <g
     inkscape:label="Capa 1"
     inkscape:groupmode="layer"
     id="layer1"
     transform="translate(-326,-532.3622)">
    <g
       transform="translate(-94.71429,7.57146)"
       id="layer1-9"
       inkscape:label="Capa 1">
      <path
         id="rect4144"
         transform="translate(421.71429,525.79074)"
         d="M 3.7070312,3 C 4.1604012,3.0923 4.5,3.4912262 4.5,3.9726562 4.5,4.2614562 4.3751475,4.5181287 4.1796875,4.6992188 4.0702975,4.5696287 4.0039062,4.4043731 4.0039062,4.2207031 c 0,-0.04036 0.00172,-0.078187 0.011719,-0.1171875 -0.30271,0.16985 -0.5078125,0.4882182 -0.5078125,0.8613282 0,0.55029 0.4418975,0.9941406 0.9921875,0.9941406 0.55008,0 0.9941406,-0.4438506 0.9941406,-0.9941406 C 5.4941406,3.9333337 4.7110212,3.10135 3.7070312,3 Z m 4,0 C 8.1604012,3.0923 8.5,3.4912262 8.5,3.9726562 8.5,4.2614562 8.3751475,4.5181287 8.1796875,4.6992188 8.0702975,4.5696287 8.0039062,4.4043731 8.0039062,4.2207031 c 0,-0.04036 0.00172,-0.078187 0.011719,-0.1171875 -0.30271,0.16985 -0.5078125,0.4882182 -0.5078125,0.8613282 0,0.55029 0.4418975,0.9941406 0.9921875,0.9941406 0.55008,0 0.9941406,-0.4438506 0.9941406,-0.9941406 C 9.4941406,3.9333337 8.7110212,3.10135 7.7070312,3 Z M 12.707031,3 C 13.160401,3.0923 13.5,3.4912262 13.5,3.9726562 c 0,0.2888 -0.124852,0.5454725 -0.320312,0.7265626 -0.10939,-0.1295901 -0.175782,-0.2948457 -0.175782,-0.4785157 0,-0.04036 0.0017,-0.078187 0.01172,-0.1171875 -0.30271,0.16985 -0.507813,0.4882182 -0.507813,0.8613282 0,0.55029 0.441898,0.9941406 0.992188,0.9941406 0.55008,0 0.994141,-0.4438506 0.994141,-0.9941406 C 14.494141,3.9333337 13.711021,3.10135 12.707031,3 Z m 4,0 C 17.160401,3.0923 17.5,3.4912262 17.5,3.9726562 c 0,0.2888 -0.124852,0.5454725 -0.320312,0.7265626 -0.10939,-0.1295901 -0.175782,-0.2948457 -0.175782,-0.4785157 0,-0.04036 0.0017,-0.078187 0.01172,-0.1171875 -0.30271,0.16985 -0.507813,0.4882182 -0.507813,0.8613282 0,0.55029 0.441898,0.9941406 0.992188,0.9941406 0.55008,0 0.994141,-0.4438506 0.994141,-0.9941406 C 18.494141,3.9333337 17.711021,3.10135 16.707031,3 Z M 4,7 4,9 3,9 l 0,1 0,4 0,1 0,3 0,1 16,0 0,-1 0,-3 0,-1 0,-4 0,-1 -1,0 0,-2 -1,0 0,2 -3,0 0,-2 -1,0 0,2 L 9,9 9,7 8,7 8,9 5,9 5,7 4,7 Z m 0,3 14,0 0,4 -0.544922,0 C 16.095248,14 15,12.904752 15,11.544922 L 15,11 l -1,0 0,0.544922 C 14,12.904752 12.904752,14 11.544922,14 l -1.089844,0 C 9.0952484,14 8,12.904752 8,11.544922 L 8,11 7,11 7,11.544922 C 7,12.904753 5.9047534,14 4.5449219,14 L 4,14 4,10 Z m 3.5,3.658203 C 8.0362186,14.467346 8.9524765,15 10,15 l 2,0 c 1.04752,0 1.96378,-0.532647 2.5,-1.341797 C 15.03622,14.467353 15.95248,15 17,15 l 1,0 0,1 -14,0 0,-1 1,0 c 1.0475212,0 1.9637806,-0.532654 2.5,-1.341797 z M 4,17 l 14,0 0,1 -14,0 0,-1 z"
         style="opacity:1;fill:#f2f2f2;fill-opacity:1;stroke:none;stroke-width:0.1;stroke-miterlimit:4;stroke-dasharray:none;stroke-opacity:1"
         inkscape:connector-curvature="0" />
    </g>
  </g>
</svg>
