<?xml version="1.0" encoding="UTF-8" standalone="no"?>
<!-- Created with Inkscape (http://www.inkscape.org/) -->

<svg
   xmlns:dc="http://purl.org/dc/elements/1.1/"
   xmlns:cc="http://creativecommons.org/ns#"
   xmlns:rdf="http://www.w3.org/1999/02/22-rdf-syntax-ns#"
   xmlns:svg="http://www.w3.org/2000/svg"
   xmlns="http://www.w3.org/2000/svg"
   xmlns:sodipodi="http://sodipodi.sourceforge.net/DTD/sodipodi-0.dtd"
   xmlns:inkscape="http://www.inkscape.org/namespaces/inkscape"
   width="24"
   height="24"
   id="svg4355"
   version="1.1"
   inkscape:version="0.91 r13725"
   sodipodi:docname="zoom-next.svg">
  <defs
     id="defs4357" />
  <sodipodi:namedview
     id="base"
     pagecolor="#ffffff"
     bordercolor="#666666"
     borderopacity="1.0"
     inkscape:pageopacity="0.0"
     inkscape:pageshadow="2"
     inkscape:zoom="23.780045"
     inkscape:cx="24.204063"
     inkscape:cy="15.318255"
     inkscape:document-units="px"
     inkscape:current-layer="layer1"
     showgrid="true"
     width="0px"
     height="0px"
     fit-margin-top="0"
     fit-margin-left="0"
     fit-margin-right="0"
     fit-margin-bottom="0"
     inkscape:window-width="2560"
     inkscape:window-height="957"
     inkscape:window-x="0"
     inkscape:window-y="30"
     inkscape:window-maximized="1"
     inkscape:showpageshadow="false">
    <inkscape:grid
       type="xygrid"
       id="grid4114"
       originx="0.99999887"
       originy="1.0000038" />
    <sodipodi:guide
       position="3,21"
       orientation="18,0"
       id="guide4120" />
    <sodipodi:guide
       position="3,3"
       orientation="0,18"
       id="guide4122" />
    <sodipodi:guide
       position="21,3"
       orientation="-18,0"
       id="guide4124" />
    <sodipodi:guide
       position="21,21"
       orientation="0,-18"
       id="guide4126" />
    <sodipodi:guide
       position="4,20"
       orientation="16,0"
       id="guide4128" />
    <sodipodi:guide
       position="4,4"
       orientation="0,16"
       id="guide4130" />
    <sodipodi:guide
       position="20,4"
       orientation="-16,0"
       id="guide4132" />
    <sodipodi:guide
       position="20,20"
       orientation="0,-16"
       id="guide4134" />
  </sodipodi:namedview>
  <metadata
     id="metadata4360">
    <rdf:RDF>
      <cc:Work
         rdf:about="">
        <dc:format>image/svg+xml</dc:format>
        <dc:type
           rdf:resource="http://purl.org/dc/dcmitype/StillImage" />
        <dc:title></dc:title>
      </cc:Work>
    </rdf:RDF>
  </metadata>
  <g
     inkscape:label="Capa 1"
     inkscape:groupmode="layer"
     id="layer1"
     transform="translate(-543.57141,-741.93359)">
    <path
       style="opacity:1;fill:#f2f2f2;fill-opacity:1;stroke:none"
       d="M 3,3 3,4 3,6 4,6 4,4 6,4 6,3 4,3 3,3 Z"
       transform="translate(544.57141,742.93359)"
       id="path4162"
       inkscape:connector-curvature="0" />
    <path
       style="opacity:1;fill:#f2f2f2;fill-opacity:1;stroke:none"
       d="m 18,16 0,2 -2,0 0,1 3,0 0,-3 -1,0 z"
       transform="translate(544.57141,742.93359)"
       id="rect4134"
       inkscape:connector-curvature="0" />
    <path
       style="opacity:1;fill:#f2f2f2;fill-opacity:1;stroke:none"
       d="m 16,3 0,1 2,0 0,2 1,0 0,-2 0,-1 -1,0 -2,0 z"
       transform="translate(544.57141,742.93359)"
       id="path4170"
       inkscape:connector-curvature="0" />
    <path
       style="opacity:1;fill:#f2f2f2;fill-opacity:1;stroke:none"
       d="m 3,16 0,2 0,1 3,0 0,-1 -2,0 0,-2 -1,0 z"
       transform="translate(544.57141,742.93359)"
       id="path4172"
       inkscape:connector-curvature="0" />
    <path
       style="fill:#f2f2f2;fill-opacity:1;stroke:none"
       d="m 554.28606,750.25781 1.80273,1.80078 1.875,1.875 -1.875,1.875 -1.80273,1.80078 -0.70703,-0.70703 1.80273,-1.80078 1.16797,-1.16797 -1.16797,-1.16797 -1.80273,-1.80078 0.70703,-0.70703 z"
       id="rect4176"
       inkscape:connector-curvature="0" />
  </g>
</svg>
