<?xml version="1.0" encoding="UTF-8" standalone="no"?>
<!-- Created with Inkscape (http://www.inkscape.org/) -->

<svg
   xmlns:dc="http://purl.org/dc/elements/1.1/"
   xmlns:cc="http://creativecommons.org/ns#"
   xmlns:rdf="http://www.w3.org/1999/02/22-rdf-syntax-ns#"
   xmlns:svg="http://www.w3.org/2000/svg"
   xmlns="http://www.w3.org/2000/svg"
   xmlns:sodipodi="http://sodipodi.sourceforge.net/DTD/sodipodi-0.dtd"
   xmlns:inkscape="http://www.inkscape.org/namespaces/inkscape"
   width="16"
   height="16"
   id="svg3049"
   version="1.1"
   inkscape:version="0.48.4 r9939"
   sodipodi:docname="sc_setobjecttoforeground.svg"
   inkscape:export-filename="/home/uri/.kde/share/icons/NITRUX-KDE/16x16/actions/view-right-new.png"
   inkscape:export-xdpi="30"
   inkscape:export-ydpi="30">
  <defs
     id="defs3051" />
  <sodipodi:namedview
     id="base"
     pagecolor="#ffffff"
     bordercolor="#666666"
     borderopacity="1.0"
     inkscape:pageopacity="0.0"
     inkscape:pageshadow="2"
     inkscape:zoom="32"
     inkscape:cx="6.570401"
     inkscape:cy="11.167389"
     inkscape:document-units="px"
     inkscape:current-layer="layer1"
     showgrid="true"
     fit-margin-top="0"
     fit-margin-left="0"
     fit-margin-right="0"
     fit-margin-bottom="0"
     inkscape:window-width="1868"
     inkscape:window-height="1060"
     inkscape:window-x="50"
     inkscape:window-y="-3"
     inkscape:window-maximized="1"
     inkscape:showpageshadow="false"
     borderlayer="true"
     inkscape:snap-bbox="true"
     inkscape:snap-global="true">
    <inkscape:grid
       type="xygrid"
       id="grid4085" />
    <sodipodi:guide
       position="2.0000044,14.00003"
       orientation="12,0"
       id="guide4075" />
    <sodipodi:guide
       position="2.0000044,2.0000296"
       orientation="0,12"
       id="guide4077" />
    <sodipodi:guide
       position="14.000004,2.0000296"
       orientation="-12,0"
       id="guide4079" />
    <sodipodi:guide
       position="14.000004,14.00003"
       orientation="0,-12"
       id="guide4081" />
  </sodipodi:namedview>
  <metadata
     id="metadata3054">
    <rdf:RDF>
      <cc:Work
         rdf:about="">
        <dc:format>image/svg+xml</dc:format>
        <dc:type
           rdf:resource="http://purl.org/dc/dcmitype/StillImage" />
        <dc:title></dc:title>
      </cc:Work>
    </rdf:RDF>
  </metadata>
  <g
     inkscape:label="Capa 1"
     inkscape:groupmode="layer"
     id="layer1"
     transform="translate(-421.71429,-531.79074)">
    <path
       style="fill:#4d4d4d;fill-opacity:1;stroke:none"
       d="M 9.15625 2 L 2 9.125 L 2 12 C 3.07486 12.0189 4.84375 12 4.84375 12 L 12 4.84375 L 9.15625 2 z M 8.4375 4.15625 L 9.84375 5.5625 L 7 8.4375 L 5.5625 7 L 8.4375 4.15625 z M 4.84375 7.71875 L 6.28125 9.125 L 5.5625 9.84375 L 4.15625 8.4375 L 4.84375 7.71875 z M 12.125 9 C 11.92876 9.001 11.39351 9.046 10.5625 9.5625 C 10.30271 9.7241 10.1092 9.907 9.8125 10.125 C 9.65412 10.2414 9.08632 10.6193 8.875 10.75 C 8.25574 11.1332 8.03434 11.2299 7.5 11.5 C 6.98287 11.7615 6.44076 11.9987 6.0625 12.1875 C 4.47033 12.9823 2 13 2 13 L 2 14 C 2 14 4.49556 14.032 6.3125 13.125 C 6.55352 13.0047 6.98142 12.8074 7.375 12.625 C 7.375 12.625 9.22776 13.38785 10.625 13.78125 C 11.76895 14.19325 12.65813 13.9299 13.09375 13.625 C 13.72129 13.1478 14.02192 12.28855 14 11.46875 C 13.996 11.18085 13.9499 10.9437 13.84375 10.625 C 13.73757 10.3064 13.57792 9.9489 13.34375 9.6875 C 12.98236 9.2643 12.80101 9.0781 12.125 9 z M 12.125 10 C 12.0914 10.0002 12.25534 10.00975 12.40625 10.09375 C 12.55716 10.17775 12.71703 10.32735 12.84375 10.46875 C 13.08924 10.80065 13.20002 11.0539 13.25 11.5 C 13.2307 12.182 13.05453 12.39575 12.6875 12.78125 C 12.20309 13.20915 11.30755 12.9346 10.75 12.8125 C 9.80297 12.5459 9.11675 12.27625 8.5 12.03125 C 8.69571 11.92225 8.86107 11.83885 9.15625 11.65625 C 9.38473 11.51485 9.93153 11.1652 10.15625 11 C 10.48641 10.7574 10.69879 10.57825 10.875 10.46875 C 11.26003 10.16635 11.69537 9.9864 12.125 10 z "
       transform="translate(421.71429,531.79074)"
       id="rect4112" />
  </g>
</svg>
