<?xml version="1.0" encoding="UTF-8" standalone="no"?>
<!-- Created with Inkscape (http://www.inkscape.org/) -->

<svg
   xmlns:dc="http://purl.org/dc/elements/1.1/"
   xmlns:cc="http://creativecommons.org/ns#"
   xmlns:rdf="http://www.w3.org/1999/02/22-rdf-syntax-ns#"
   xmlns:svg="http://www.w3.org/2000/svg"
   xmlns="http://www.w3.org/2000/svg"
   xmlns:sodipodi="http://sodipodi.sourceforge.net/DTD/sodipodi-0.dtd"
   xmlns:inkscape="http://www.inkscape.org/namespaces/inkscape"
   width="16"
   height="16"
   id="svg3049"
   version="1.1"
   inkscape:version="0.48.4 r9939"
   sodipodi:docname="sc_numberformatscientific.svg"
   inkscape:export-filename="/home/uri/.kde/share/icons/NITRUX-KDE/16x16/actions/view-right-new.png"
   inkscape:export-xdpi="30"
   inkscape:export-ydpi="30">
  <defs
     id="defs3051" />
  <sodipodi:namedview
     id="base"
     pagecolor="#ffffff"
     bordercolor="#666666"
     borderopacity="1.0"
     inkscape:pageopacity="0.0"
     inkscape:pageshadow="2"
     inkscape:zoom="45.254834"
     inkscape:cx="7.2810532"
     inkscape:cy="5.8462363"
     inkscape:document-units="px"
     inkscape:current-layer="g5674"
     showgrid="true"
     fit-margin-top="0"
     fit-margin-left="0"
     fit-margin-right="0"
     fit-margin-bottom="0"
     inkscape:window-width="1407"
     inkscape:window-height="1053"
     inkscape:window-x="509"
     inkscape:window-y="0"
     inkscape:window-maximized="0"
     inkscape:showpageshadow="false"
     borderlayer="true"
     inkscape:snap-bbox="true"
     inkscape:snap-global="true">
    <inkscape:grid
       type="xygrid"
       id="grid4085" />
    <sodipodi:guide
       position="2,15"
       orientation="12,0"
       id="guide4075" />
    <sodipodi:guide
       position="17,2"
       orientation="0,12"
       id="guide4077" />
    <sodipodi:guide
       position="14,13"
       orientation="-12,0"
       id="guide4079" />
    <sodipodi:guide
       position="0,14"
       orientation="0,-12"
       id="guide4081" />
  </sodipodi:namedview>
  <metadata
     id="metadata3054">
    <rdf:RDF>
      <cc:Work
         rdf:about="">
        <dc:format>image/svg+xml</dc:format>
        <dc:type
           rdf:resource="http://purl.org/dc/dcmitype/StillImage" />
        <dc:title></dc:title>
      </cc:Work>
    </rdf:RDF>
  </metadata>
  <g
     inkscape:label="Capa 1"
     inkscape:groupmode="layer"
     id="layer1"
     transform="translate(-421.71429,-531.79074)">
    <g
       transform="translate(418.71429,-499.57146)"
       id="layer1-1"
       inkscape:label="Capa 1" />
    <g
       id="g5674"
       transform="matrix(-1,0,0,1,859.42858,0)">
      <path
         style="color:#000000;fill:#4d4d4d;fill-opacity:1;fill-rule:nonzero;stroke:none;stroke-width:2;marker:none;visibility:visible;display:inline;overflow:visible;enable-background:accumulate"
         d="m 426.21251,533.79074 c 1.933,0 3.5,1.567 3.5,3.5 0,0.031 0.004,0.0627 0,0.0937 l 0,0.40625 -0.0312,0 -0.96875,0 c 0.006,-0.1862 0,-0.3274 0,-0.5 0,-1.3807 -1.11929,-2.5 -2.5,-2.5 -1.38071,0 -2.43166,1.121 -2.5,2.5 -0.0312,0.6306 0.22213,1.16245 0.53125,1.59375 1.1824,1.30961 3.29589,3.4414 5.3125,5.40625 0.10866,0.1599 0.15217,0.34425 0.15625,0.53125 -0.0171,0.5373 -0.45854,0.96875 -1,0.96875 l -0.625,0 -1.40625,0 -4,0 0,-1 0.0312,0 2,0 3.8125,0 c -1.84945,-1.92584 -3.50958,-3.6956 -5.1875,-5.53125 -0.16667,-0.2789 -0.24209,-0.41815 -0.34375,-0.59375 -0.18037,-0.4215 -0.28125,-0.8852 -0.28125,-1.375 0,-1.7226 1.23601,-3.1462 2.875,-3.4375 0.19474,-0.044 0.40665,-0.0625 0.625,-0.0625 z"
         id="path3864"
         inkscape:connector-curvature="0"
         sodipodi:nodetypes="ssccccssccccscccccccccscs" />
      <path
         style="color:#000000;fill:#4d4d4d;fill-opacity:1;fill-rule:nonzero;stroke:none;stroke-width:1;marker:none;visibility:visible;display:inline;overflow:visible;enable-background:accumulate"
         d="m 433.93126,533.79074 0.75,0.46875 2.15625,1.28125 -0.625,1.03125 -0.53125,-0.3125 -2,-1.125 c 0,0 -0.004,7.82415 0,10.65625 l -1,0 0,-12 c 0,0 1.22982,0.022 1.25,0 z"
         id="rect2993"
         inkscape:connector-curvature="0" />
      <path
         style="color:#000000;fill:#4d4d4d;fill-opacity:1;fill-rule:nonzero;stroke:none;stroke-width:2;marker:none;visibility:visible;display:inline;overflow:visible;enable-background:accumulate"
         d="m 431.68126,544.79073 0,0.5 0,0.5 -1,0 0,-1 0.96875,0 0.0312,0 z"
         id="rect3772"
         inkscape:connector-curvature="0" />
    </g>
  </g>
</svg>
