<?xml version="1.0" encoding="UTF-8" standalone="no"?>
<!-- Created with Inkscape (http://www.inkscape.org/) -->

<svg
   xmlns:dc="http://purl.org/dc/elements/1.1/"
   xmlns:cc="http://creativecommons.org/ns#"
   xmlns:rdf="http://www.w3.org/1999/02/22-rdf-syntax-ns#"
   xmlns:svg="http://www.w3.org/2000/svg"
   xmlns="http://www.w3.org/2000/svg"
   xmlns:sodipodi="http://sodipodi.sourceforge.net/DTD/sodipodi-0.dtd"
   xmlns:inkscape="http://www.inkscape.org/namespaces/inkscape"
   width="16"
   height="16"
   id="svg3049"
   version="1.1"
   inkscape:version="0.48.4 r9939"
   sodipodi:docname="sc_numberformatdecdecimals.svg"
   inkscape:export-filename="/home/uri/.kde/share/icons/NITRUX-KDE/16x16/actions/view-right-new.png"
   inkscape:export-xdpi="30"
   inkscape:export-ydpi="30">
  <defs
     id="defs3051" />
  <sodipodi:namedview
     id="base"
     pagecolor="#ffffff"
     bordercolor="#666666"
     borderopacity="1.0"
     inkscape:pageopacity="0.0"
     inkscape:pageshadow="2"
     inkscape:zoom="32"
     inkscape:cx="8.0639967"
     inkscape:cy="8.7070727"
     inkscape:document-units="px"
     inkscape:current-layer="g5674"
     showgrid="true"
     fit-margin-top="0"
     fit-margin-left="0"
     fit-margin-right="0"
     fit-margin-bottom="0"
     inkscape:window-width="1407"
     inkscape:window-height="1053"
     inkscape:window-x="264"
     inkscape:window-y="0"
     inkscape:window-maximized="0"
     inkscape:showpageshadow="false"
     borderlayer="true"
     inkscape:snap-bbox="true"
     inkscape:snap-global="true">
    <inkscape:grid
       type="xygrid"
       id="grid4085" />
    <sodipodi:guide
       position="2,15"
       orientation="12,0"
       id="guide4075" />
    <sodipodi:guide
       position="6,2"
       orientation="0,12"
       id="guide4077" />
    <sodipodi:guide
       position="14,13"
       orientation="-12,0"
       id="guide4079" />
    <sodipodi:guide
       position="0,14"
       orientation="0,-12"
       id="guide4081" />
  </sodipodi:namedview>
  <metadata
     id="metadata3054">
    <rdf:RDF>
      <cc:Work
         rdf:about="">
        <dc:format>image/svg+xml</dc:format>
        <dc:type
           rdf:resource="http://purl.org/dc/dcmitype/StillImage" />
        <dc:title></dc:title>
      </cc:Work>
    </rdf:RDF>
  </metadata>
  <g
     inkscape:label="Capa 1"
     inkscape:groupmode="layer"
     id="layer1"
     transform="translate(-421.71429,-531.79074)">
    <g
       transform="translate(418.71429,-499.57146)"
       id="layer1-1"
       inkscape:label="Capa 1" />
    <g
       id="g5674"
       transform="matrix(-1,0,0,1,859.42858,0)">
      <g
         id="layer1-6"
         inkscape:label="Capa 1"
         transform="matrix(-1,0,0,1,455.64781,-508.31208)" />
      <rect
         style="color:#000000;fill:#4d4d4d;fill-opacity:1;fill-rule:nonzero;stroke:none;stroke-width:2;marker:none;visibility:visible;display:inline;overflow:visible;enable-background:accumulate"
         id="rect3984"
         width="1"
         height="1"
         x="-430.21429"
         y="543.79071"
         transform="scale(-1,1)" />
      <path
         style="color:#000000;fill:#4d4d4d;fill-opacity:1;fill-rule:nonzero;stroke:none;stroke-width:2;marker:none;visibility:visible;display:inline;overflow:visible;enable-background:accumulate"
         d="M 4.5 3 C 3.11929 3 2 4.11929 2 5.5 L 2 7.5 L 2 8.5 L 2 9 L 2 10.5 C 2 11.88071 3.11929 13 4.5 13 C 5.88071 13 7 11.88071 7 10.5 L 7 10 L 7 7.5 L 7 6 L 7 5.5 C 7 4.11929 5.88071 3 4.5 3 z M 4.5 4 C 5.32843 4 6 4.67157 6 5.5 L 6 6 L 6 7.5 L 6 8.5 L 6 10 L 6 10.5 C 6 11.32843 5.32843 12 4.5 12 C 3.67157 12 3 11.32843 3 10.5 L 3 10 L 3 7.5 L 3 6 L 3 5.5 C 3 4.67157 3.67157 4 4.5 4 z "
         transform="matrix(-1,0,0,1,437.71429,531.79074)"
         id="path3986" />
      <path
         style="color:#000000;fill:#4d4d4d;fill-opacity:1;fill-rule:nonzero;stroke:none;stroke-width:2;marker:none;visibility:visible;display:inline;overflow:visible;enable-background:accumulate"
         d="M 11.5 3 C 10.11929 3 9 4.11929 9 5.5 L 9 7.5 L 9 8.5 L 9 10 L 9 10.5 C 9 11.88071 10.11929 13 11.5 13 C 12.88071 13 14 11.88071 14 10.5 L 14 10 L 14 7.5 L 14 6 L 14 5.5 C 14 4.11929 12.88071 3 11.5 3 z M 11.5 4 C 12.32843 4 13 4.67157 13 5.5 L 13 6 L 13 8 L 13 8.5 L 13 10.5 C 13 11.32843 12.32843 12 11.5 12 C 10.67157 12 10 11.32843 10 10.5 L 10 8.5 L 10 7.5 L 10 6 L 10 5.5 C 10 4.67157 10.67157 4 11.5 4 z "
         transform="matrix(-1,0,0,1,437.71429,531.79074)"
         id="path3986-9" />
    </g>
  </g>
</svg>
