<?xml version="1.0" encoding="UTF-8" standalone="no"?>
<!-- Created with Inkscape (http://www.inkscape.org/) -->

<svg
   xmlns:dc="http://purl.org/dc/elements/1.1/"
   xmlns:cc="http://creativecommons.org/ns#"
   xmlns:rdf="http://www.w3.org/1999/02/22-rdf-syntax-ns#"
   xmlns:svg="http://www.w3.org/2000/svg"
   xmlns="http://www.w3.org/2000/svg"
   xmlns:sodipodi="http://sodipodi.sourceforge.net/DTD/sodipodi-0.dtd"
   xmlns:inkscape="http://www.inkscape.org/namespaces/inkscape"
   width="16"
   height="16"
   id="svg3049"
   version="1.1"
   inkscape:version="0.48.4 r9939"
   sodipodi:docname="sc_overline.svg"
   inkscape:export-filename="/home/uri/.kde/share/icons/NITRUX-KDE/16x16/actions/view-right-new.png"
   inkscape:export-xdpi="30"
   inkscape:export-ydpi="30">
  <defs
     id="defs3051" />
  <sodipodi:namedview
     id="base"
     pagecolor="#ffffff"
     bordercolor="#666666"
     borderopacity="1.0"
     inkscape:pageopacity="0.0"
     inkscape:pageshadow="2"
     inkscape:zoom="48.822612"
     inkscape:cx="7.8050852"
     inkscape:cy="5.8543971"
     inkscape:document-units="px"
     inkscape:current-layer="layer1"
     showgrid="true"
     fit-margin-top="0"
     fit-margin-left="0"
     fit-margin-right="0"
     fit-margin-bottom="0"
     inkscape:window-width="1407"
     inkscape:window-height="1053"
     inkscape:window-x="509"
     inkscape:window-y="0"
     inkscape:window-maximized="0"
     inkscape:showpageshadow="false"
     borderlayer="true"
     inkscape:snap-bbox="true"
     inkscape:snap-global="true">
    <inkscape:grid
       type="xygrid"
       id="grid4085" />
    <sodipodi:guide
       position="2,15"
       orientation="12,0"
       id="guide4075" />
    <sodipodi:guide
       position="17,2"
       orientation="0,12"
       id="guide4077" />
    <sodipodi:guide
       position="14,13"
       orientation="-12,0"
       id="guide4079" />
    <sodipodi:guide
       position="0,14"
       orientation="0,-12"
       id="guide4081" />
  </sodipodi:namedview>
  <metadata
     id="metadata3054">
    <rdf:RDF>
      <cc:Work
         rdf:about="">
        <dc:format>image/svg+xml</dc:format>
        <dc:type
           rdf:resource="http://purl.org/dc/dcmitype/StillImage" />
        <dc:title></dc:title>
      </cc:Work>
    </rdf:RDF>
  </metadata>
  <g
     inkscape:label="Capa 1"
     inkscape:groupmode="layer"
     id="layer1"
     transform="translate(-421.71429,-531.79074)">
    <g
       transform="translate(418.71429,-499.57146)"
       id="layer1-1"
       inkscape:label="Capa 1" />
    <g
       style="font-size:14.99414538999999991px;font-style:normal;font-weight:normal;line-height:125%;letter-spacing:0px;word-spacing:0px;fill:#4d4d4d;fill-opacity:1;stroke:none;font-family:Sans"
       id="text6323"
       transform="matrix(1.0137978,0,0,1.0137978,-5.7339861,-7.5306811)">
      <path
         d="m 430.11217,541.2954 c -1.02988,-2.99199 -1.59851,-4.67346 -1.70588,-5.04442 -1e-5,10e-6 -0.59304,1.68148 -1.77909,5.04442 l 3.48497,0 m 1.67659,4.49531 -1.2666,-3.43372 -4.3196,0 -1.31052,3.43372 -1.28856,0 4.15853,-10.85026 1.29588,0 4.03407,10.85026 -1.3032,0"
         style="font-variant:normal;font-stretch:normal;font-family:Oxygen;-inkscape-font-specification:Oxygen;fill:#4d4d4d;fill-opacity:1"
         id="path6328"
         inkscape:connector-curvature="0" />
    </g>
    <path
       style="color:#000000;fill:#4d4d4d;fill-opacity:1;fill-rule:nonzero;stroke:none;stroke-width:1;marker:none;visibility:visible;display:inline;overflow:visible;enable-background:accumulate;opacity:1"
       d="M 10 2 L 10 7 L 11 7 L 12.5 7 C 13.328427 7 14 6.3284271 14 5.5 C 14 4.9667001 13.731802 4.4847286 13.3125 4.21875 C 13.427958 4.00621 13.5 3.7588844 13.5 3.5 C 13.5 2.67157 12.82843 2 12 2 L 11 2 L 10 2 z M 11 3 L 12 3 C 12.27614 3 12.5 3.22386 12.5 3.5 C 12.5 3.77614 12.27614 4 12 4 L 11 4 L 11 3 z M 11 5 L 12 5 L 12.5 5 C 12.776141 5 13 5.2238567 13 5.5 C 13 5.7761433 12.776141 6 12.5 6 L 11 6 L 11 5 z "
       transform="translate(421.71429,531.79074)"
       id="rect6367" />
    <path
       style="fill:none;stroke:#000000;stroke-width:0;stroke-linecap:butt;stroke-linejoin:miter;stroke-opacity:1;stroke-miterlimit:4;stroke-dasharray:none"
       d="M 2,14 6,3"
       id="path6452"
       inkscape:connector-curvature="0"
       transform="translate(421.71429,531.79074)" />
  </g>
</svg>
