<?xml version="1.0" encoding="UTF-8" standalone="no"?>
<!-- Created with Inkscape (http://www.inkscape.org/) -->

<svg
   xmlns:dc="http://purl.org/dc/elements/1.1/"
   xmlns:cc="http://creativecommons.org/ns#"
   xmlns:rdf="http://www.w3.org/1999/02/22-rdf-syntax-ns#"
   xmlns:svg="http://www.w3.org/2000/svg"
   xmlns="http://www.w3.org/2000/svg"
   xmlns:sodipodi="http://sodipodi.sourceforge.net/DTD/sodipodi-0.dtd"
   xmlns:inkscape="http://www.inkscape.org/namespaces/inkscape"
   width="22"
   height="22"
   id="svg2"
   version="1.1"
   inkscape:version="0.91pre2 r"
   viewBox="0 0 22 22"
   sodipodi:docname="plasma.svg">
  <defs
     id="defs4" />
  <sodipodi:namedview
     id="base"
     pagecolor="#ffffff"
     bordercolor="#666666"
     borderopacity="1.0"
     inkscape:pageopacity="0.0"
     inkscape:pageshadow="2"
     inkscape:zoom="22.627417"
     inkscape:cx="7.6662963"
     inkscape:cy="11.508125"
     inkscape:document-units="px"
     inkscape:current-layer="layer1"
     showgrid="true"
     units="px"
     inkscape:showpageshadow="false"
     inkscape:window-width="1366"
     inkscape:window-height="669"
     inkscape:window-x="-4"
     inkscape:window-y="25"
     inkscape:window-maximized="1"
     showguides="true">
    <inkscape:grid
       type="xygrid"
       id="grid4101" />
    <sodipodi:guide
       position="2,20.000017"
       orientation="18,0"
       id="guide4107" />
    <sodipodi:guide
       position="2,2.0000174"
       orientation="0,18"
       id="guide4109" />
    <sodipodi:guide
       position="20,2.0000174"
       orientation="-18,0"
       id="guide4111" />
    <sodipodi:guide
       position="20,20.000017"
       orientation="0,-18"
       id="guide4113" />
    <sodipodi:guide
       position="3,19.000017"
       orientation="16,0"
       id="guide4115" />
    <sodipodi:guide
       position="3,3.0000174"
       orientation="0,16"
       id="guide4117" />
    <sodipodi:guide
       position="19,3.0000174"
       orientation="-16,0"
       id="guide4119" />
    <sodipodi:guide
       position="19,19.000017"
       orientation="0,-16"
       id="guide4121" />
    <sodipodi:guide
       position="10,6.0000174"
       orientation="-7,0"
       id="guide4162" />
    <sodipodi:guide
       position="11,12.000017"
       orientation="5,0"
       id="guide4280" />
    <sodipodi:guide
       position="11,7.0000174"
       orientation="0,5"
       id="guide4282" />
    <sodipodi:guide
       position="16,7.0000174"
       orientation="-5,0"
       id="guide4284" />
    <sodipodi:guide
       position="16,12.000017"
       orientation="0,-5"
       id="guide4286" />
    <sodipodi:guide
       position="5,13.000017"
       orientation="6,0"
       id="guide4294" />
    <sodipodi:guide
       position="5,7.0000174"
       orientation="0,6"
       id="guide4296" />
    <sodipodi:guide
       position="11,7.0000174"
       orientation="-6,0"
       id="guide4298" />
  </sodipodi:namedview>
  <metadata
     id="metadata7">
    <rdf:RDF>
      <cc:Work
         rdf:about="">
        <dc:format>image/svg+xml</dc:format>
        <dc:type
           rdf:resource="http://purl.org/dc/dcmitype/StillImage" />
        <dc:title />
      </cc:Work>
    </rdf:RDF>
  </metadata>
  <g
     inkscape:label="Capa 1"
     inkscape:groupmode="layer"
     id="layer1"
     transform="translate(0,-1030.3622)">
    <path
       style="opacity:1;fill:#4d4d4d;fill-opacity:1;stroke:none"
       d="M 7 3 C 6.446 3 6 3.446 6 4 C 6 4.554 6.446 5 7 5 C 7.554 5 8 4.554 8 4 C 8 3.446 7.554 3 7 3 z M 14 3 L 12 5 L 15 8 L 12 11 L 14 13 L 17 10 L 19 8 L 14 3 z M 4.5 9 C 3.669 9 3 9.669 3 10.5 C 3 11.331 3.669 12 4.5 12 C 5.331 12 6 11.331 6 10.5 C 6 9.669 5.331 9 4.5 9 z M 9 15 C 7.892 15 7 15.892 7 17 C 7 18.108 7.892 19 9 19 C 10.108 19 11 18.108 11 17 C 11 15.892 10.108 15 9 15 z "
       transform="translate(0,1030.3622)"
       id="rect4231" />
  </g>
</svg>
