<?xml version="1.0" encoding="UTF-8" standalone="no"?>
<!-- Created with Inkscape (http://www.inkscape.org/) -->

<svg
   xmlns:osb="http://www.openswatchbook.org/uri/2009/osb"
   xmlns:dc="http://purl.org/dc/elements/1.1/"
   xmlns:cc="http://creativecommons.org/ns#"
   xmlns:rdf="http://www.w3.org/1999/02/22-rdf-syntax-ns#"
   xmlns:svg="http://www.w3.org/2000/svg"
   xmlns="http://www.w3.org/2000/svg"
   xmlns:xlink="http://www.w3.org/1999/xlink"
   xmlns:sodipodi="http://sodipodi.sourceforge.net/DTD/sodipodi-0.dtd"
   xmlns:inkscape="http://www.inkscape.org/namespaces/inkscape"
   width="256"
   height="256"
   viewBox="0 0 256 256"
   id="svg2"
   version="1.1"
   inkscape:version="0.91 r13725"
   sodipodi:docname="org.kde.plasma.systemtray.svg">
  <defs
     id="defs4">
    <style
       id="current-color-scheme"
       type="text/css">
      .ColorScheme-Text {
        color:#7B7C7E;
      }
      .ColorScheme-Background{
        color:#EFF0F1;
      }
      .ColorScheme-Highlight{
        color:#3DAEE6;
      }
      .ColorScheme-ViewText {
        color:#7B7C7E;
      }
      .ColorScheme-ViewBackground{
        color:#FCFCFC;
      }
      .ColorScheme-ViewHover {
        color:#3DAEE6;
      }
      .ColorScheme-ViewFocus{
        color:#1E92FF;
      }
      .ColorScheme-ButtonText {
        color:#7B7C7E;
      }
      .ColorScheme-ButtonBackground{
        color:#EFF0F1;
      }
      .ColorScheme-ButtonHover {
        color:#3DAEE6;
      }
      .ColorScheme-ButtonFocus{
        color:#1E92FF;
      }
</style>
    <linearGradient
       id="linearGradient4736">
      <stop
         style="stop-color:#232629;stop-opacity:0.2972973;"
         offset="0"
         id="stop4738" />
      <stop
         id="stop4740"
         offset="0.60000002"
         style="stop-color:#1a1c1e;stop-opacity:0.2972973;" />
      <stop
         style="stop-color:#151719;stop-opacity:0.20392157;"
         offset="0.70322156"
         id="stop4742" />
      <stop
         id="stop4744"
         offset="0.80443013"
         style="stop-color:#111314;stop-opacity:0.11486486;" />
      <stop
         style="stop-color:#08090a;stop-opacity:0.0627451;"
         offset="0.86581892"
         id="stop4746" />
      <stop
         id="stop4748"
         offset="0.91512764"
         style="stop-color:#040405;stop-opacity:0.01568627;" />
      <stop
         style="stop-color:#020202;stop-opacity:0.01176471;"
         offset="0.95787072"
         id="stop4750" />
      <stop
         style="stop-color:#000000;stop-opacity:0;"
         offset="1"
         id="stop4752" />
    </linearGradient>
    <linearGradient
       id="linearGradient4776">
      <stop
         id="stop4788"
         offset="0"
         style="stop-color:#232629;stop-opacity:0.58823532;" />
      <stop
         style="stop-color:#232629;stop-opacity:0.58823532;"
         offset="0.24146508"
         id="stop4794" />
      <stop
         id="stop4804"
         offset="0.37810224"
         style="stop-color:#151719;stop-opacity:0.12941177;" />
      <stop
         style="stop-color:#08090a;stop-opacity:0.04705882;"
         offset="0.45617974"
         id="stop4798" />
      <stop
         id="stop4831"
         offset="0.52831918"
         style="stop-color:#040405;stop-opacity:0.00392157;" />
      <stop
         style="stop-color:#000000;stop-opacity:0;"
         offset="1"
         id="stop4792" />
    </linearGradient>
    <style
       id="current-color-scheme-5"
       type="text/css">
      .ColorScheme-Text {
        color:#7B7C7E;
      }
      .ColorScheme-Background{
        color:#EFF0F1;
      }
      .ColorScheme-Highlight{
        color:#3DAEE6;
      }
      .ColorScheme-ViewText {
        color:#7B7C7E;
      }
      .ColorScheme-ViewBackground{
        color:#FCFCFC;
      }
      .ColorScheme-ViewHover {
        color:#3DAEE6;
      }
      .ColorScheme-ViewFocus{
        color:#1E92FF;
      }
      .ColorScheme-ButtonText {
        color:#7B7C7E;
      }
      .ColorScheme-ButtonBackground{
        color:#EFF0F1;
      }
      .ColorScheme-ButtonHover {
        color:#3DAEE6;
      }
      .ColorScheme-ButtonFocus{
        color:#1E92FF;
      }
</style>
    <radialGradient
       r="6"
       fy="241.35715"
       fx="46.642857"
       cy="241.35715"
       cx="46.642857"
       gradientTransform="matrix(-4.0000029,5.6221756e-6,5.6221603e-6,3.9999917,210.57022,-145.06477)"
       gradientUnits="userSpaceOnUse"
       id="radialGradient4942-8"
       xlink:href="#linearGradient4736"
       inkscape:collect="always" />
    <radialGradient
       r="6"
       fy="238.95715"
       fx="49.042854"
       cy="238.95715"
       cx="49.042854"
       gradientTransform="matrix(-2.6666676,2.2940537e-6,2.2940523e-6,2.6666663,146.78045,175.14306)"
       gradientUnits="userSpaceOnUse"
       id="radialGradient4944-9"
       xlink:href="#linearGradient4776"
       inkscape:collect="always" />
    <linearGradient
       inkscape:collect="always"
       xlink:href="#linearGradient4776"
       id="linearGradient7255"
       gradientUnits="userSpaceOnUse"
       gradientTransform="matrix(28,0,0,1,-8691.9997,714.36213)"
       x1="316"
       y1="98"
       x2="316"
       y2="82" />
    <linearGradient
       inkscape:collect="always"
       xlink:href="#linearGradient4736"
       id="linearGradient7259"
       gradientUnits="userSpaceOnUse"
       gradientTransform="matrix(6.4999983,0,0,0.99999999,-300.99994,575.36555)"
       x1="64.999992"
       y1="244.99657"
       x2="64.999992"
       y2="220.99657" />
    <radialGradient
       r="6"
       fy="241.35715"
       fx="46.642857"
       cy="241.35715"
       cx="46.642857"
       gradientTransform="matrix(-5.6221744e-6,-3.9999963,-3.999991,5.622151e-6,1197.4268,1006.9321)"
       gradientUnits="userSpaceOnUse"
       id="radialGradient4720-8-6"
       xlink:href="#linearGradient4736"
       inkscape:collect="always" />
    <radialGradient
       r="6"
       fy="238.95715"
       fx="49.042854"
       cy="238.95715"
       cx="49.042854"
       gradientTransform="matrix(-2.2940537e-6,-2.6666677,-2.6666662,2.2940523e-6,877.21909,943.1426)"
       gradientUnits="userSpaceOnUse"
       id="radialGradient4756-4-1"
       xlink:href="#linearGradient4776"
       inkscape:collect="always" />
    <linearGradient
       inkscape:collect="always"
       xlink:href="#linearGradient4736"
       id="linearGradient7259-3"
       gradientUnits="userSpaceOnUse"
       gradientTransform="matrix(6.4999983,0,0,0.99999999,495.3622,-476.99659)"
       x1="64.999992"
       y1="244.99657"
       x2="64.999992"
       y2="220.99657" />
    <linearGradient
       inkscape:collect="always"
       xlink:href="#linearGradient4776"
       id="linearGradient7255-9"
       gradientUnits="userSpaceOnUse"
       gradientTransform="matrix(28,0,0,1,-7895.6375,-338.00007)"
       x1="316"
       y1="98"
       x2="316"
       y2="82" />
    <radialGradient
       r="6"
       fy="241.35715"
       fx="46.642857"
       cy="241.35715"
       cx="46.642857"
       gradientTransform="matrix(4.0000029,-5.6221756e-6,-5.6221603e-6,-3.9999917,45.42983,1993.7891)"
       gradientUnits="userSpaceOnUse"
       id="radialGradient4942-8-5"
       xlink:href="#linearGradient4736"
       inkscape:collect="always" />
    <radialGradient
       r="6"
       fy="238.95715"
       fx="49.042854"
       cy="238.95715"
       cx="49.042854"
       gradientTransform="matrix(2.6666676,-2.2940537e-6,-2.2940523e-6,-2.6666663,109.2196,1673.5812)"
       gradientUnits="userSpaceOnUse"
       id="radialGradient4944-9-1"
       xlink:href="#linearGradient4776"
       inkscape:collect="always" />
    <radialGradient
       r="6"
       fy="241.35715"
       fx="46.642857"
       cy="241.35715"
       cx="46.642857"
       gradientTransform="matrix(5.6221744e-6,3.9999963,3.999991,-5.622151e-6,-941.42675,841.7921)"
       gradientUnits="userSpaceOnUse"
       id="radialGradient4720-8-6-7"
       xlink:href="#linearGradient4736"
       inkscape:collect="always" />
    <radialGradient
       r="6"
       fy="238.95715"
       fx="49.042854"
       cy="238.95715"
       cx="49.042854"
       gradientTransform="matrix(2.2940537e-6,2.6666677,2.6666662,-2.2940523e-6,-621.21904,905.58156)"
       gradientUnits="userSpaceOnUse"
       id="radialGradient4756-4-1-9"
       xlink:href="#linearGradient4776"
       inkscape:collect="always" />
    <linearGradient
       inkscape:collect="always"
       xlink:href="#linearGradient4776"
       id="linearGradient9711"
       gradientUnits="userSpaceOnUse"
       gradientTransform="matrix(28,0,0,1,-8947.9998,-1134.3622)"
       x1="316"
       y1="98"
       x2="316"
       y2="82" />
    <linearGradient
       inkscape:collect="always"
       xlink:href="#linearGradient4736"
       id="linearGradient9713"
       gradientUnits="userSpaceOnUse"
       gradientTransform="matrix(6.4999983,0,0,0.99999999,-556.99999,-1273.3588)"
       x1="64.999992"
       y1="244.99657"
       x2="64.999992"
       y2="220.99657" />
    <linearGradient
       inkscape:collect="always"
       xlink:href="#linearGradient4736"
       id="linearGradient9715"
       gradientUnits="userSpaceOnUse"
       gradientTransform="matrix(6.4999983,0,0,0.99999999,-1353.3621,-220.99654)"
       x1="64.999992"
       y1="244.99657"
       x2="64.999992"
       y2="220.99657" />
    <linearGradient
       inkscape:collect="always"
       xlink:href="#linearGradient4776"
       id="linearGradient9717"
       gradientUnits="userSpaceOnUse"
       gradientTransform="matrix(28,0,0,1,-9744.3618,-82.00002)"
       x1="316"
       y1="98"
       x2="316"
       y2="82" />
    <linearGradient
       osb:paint="gradient"
       id="linearGradient4207">
      <stop
         id="stop3371"
         offset="0"
         style="stop-color:#3498db;stop-opacity:1;" />
      <stop
         id="stop3373"
         offset="1"
         style="stop-color:#3498db;stop-opacity:0;" />
    </linearGradient>
    <style
       type="text/css"
       id="current-color-scheme-4">
      .ColorScheme-Text {
        color:#7B7C7E;
      }
      .ColorScheme-Background{
        color:#EFF0F1;
      }
      .ColorScheme-Highlight{
        color:#3DAEE6;
      }
      .ColorScheme-ViewText {
        color:#7B7C7E;
      }
      .ColorScheme-ViewBackground{
        color:#FCFCFC;
      }
      .ColorScheme-ViewHover {
        color:#3DAEE6;
      }
      .ColorScheme-ViewFocus{
        color:#1E92FF;
      }
      .ColorScheme-ButtonText {
        color:#7B7C7E;
      }
      .ColorScheme-ButtonBackground{
        color:#EFF0F1;
      }
      .ColorScheme-ButtonHover {
        color:#3DAEE6;
      }
      .ColorScheme-ButtonFocus{
        color:#1E92FF;
      }
</style>
    <style
       type="text/css"
       id="current-color-scheme-5-9">
      .ColorScheme-Text {
        color:#7B7C7E;
      }
      .ColorScheme-Background{
        color:#EFF0F1;
      }
      .ColorScheme-Highlight{
        color:#3DAEE6;
      }
      .ColorScheme-ViewText {
        color:#7B7C7E;
      }
      .ColorScheme-ViewBackground{
        color:#FCFCFC;
      }
      .ColorScheme-ViewHover {
        color:#3DAEE6;
      }
      .ColorScheme-ViewFocus{
        color:#1E92FF;
      }
      .ColorScheme-ButtonText {
        color:#7B7C7E;
      }
      .ColorScheme-ButtonBackground{
        color:#EFF0F1;
      }
      .ColorScheme-ButtonHover {
        color:#3DAEE6;
      }
      .ColorScheme-ButtonFocus{
        color:#1E92FF;
      }
</style>
    <style
       id="current-color-scheme-7"
       type="text/css">
      .ColorScheme-Text {
        color:#7B7C7E;
      }
      .ColorScheme-Background{
        color:#EFF0F1;
      }
      .ColorScheme-Highlight{
        color:#3DAEE6;
      }
      .ColorScheme-ViewText {
        color:#7B7C7E;
      }
      .ColorScheme-ViewBackground{
        color:#FCFCFC;
      }
      .ColorScheme-ViewHover {
        color:#3DAEE6;
      }
      .ColorScheme-ViewFocus{
        color:#1E92FF;
      }
      .ColorScheme-ButtonText {
        color:#7B7C7E;
      }
      .ColorScheme-ButtonBackground{
        color:#EFF0F1;
      }
      .ColorScheme-ButtonHover {
        color:#3DAEE6;
      }
      .ColorScheme-ButtonFocus{
        color:#1E92FF;
      }
</style>
    <style
       id="current-color-scheme-5-8"
       type="text/css">
      .ColorScheme-Text {
        color:#7B7C7E;
      }
      .ColorScheme-Background{
        color:#EFF0F1;
      }
      .ColorScheme-Highlight{
        color:#3DAEE6;
      }
      .ColorScheme-ViewText {
        color:#7B7C7E;
      }
      .ColorScheme-ViewBackground{
        color:#FCFCFC;
      }
      .ColorScheme-ViewHover {
        color:#3DAEE6;
      }
      .ColorScheme-ViewFocus{
        color:#1E92FF;
      }
      .ColorScheme-ButtonText {
        color:#7B7C7E;
      }
      .ColorScheme-ButtonBackground{
        color:#EFF0F1;
      }
      .ColorScheme-ButtonHover {
        color:#3DAEE6;
      }
      .ColorScheme-ButtonFocus{
        color:#1E92FF;
      }
</style>
    <style
       id="current-color-scheme-8"
       type="text/css">
      .ColorScheme-Text {
        color:#7B7C7E;
      }
      .ColorScheme-Background{
        color:#EFF0F1;
      }
      .ColorScheme-Highlight{
        color:#3DAEE6;
      }
      .ColorScheme-ViewText {
        color:#7B7C7E;
      }
      .ColorScheme-ViewBackground{
        color:#FCFCFC;
      }
      .ColorScheme-ViewHover {
        color:#3DAEE6;
      }
      .ColorScheme-ViewFocus{
        color:#1E92FF;
      }
      .ColorScheme-ButtonText {
        color:#7B7C7E;
      }
      .ColorScheme-ButtonBackground{
        color:#EFF0F1;
      }
      .ColorScheme-ButtonHover {
        color:#3DAEE6;
      }
      .ColorScheme-ButtonFocus{
        color:#1E92FF;
      }
</style>
    <style
       id="current-color-scheme-5-1"
       type="text/css">
      .ColorScheme-Text {
        color:#7B7C7E;
      }
      .ColorScheme-Background{
        color:#EFF0F1;
      }
      .ColorScheme-Highlight{
        color:#3DAEE6;
      }
      .ColorScheme-ViewText {
        color:#7B7C7E;
      }
      .ColorScheme-ViewBackground{
        color:#FCFCFC;
      }
      .ColorScheme-ViewHover {
        color:#3DAEE6;
      }
      .ColorScheme-ViewFocus{
        color:#1E92FF;
      }
      .ColorScheme-ButtonText {
        color:#7B7C7E;
      }
      .ColorScheme-ButtonBackground{
        color:#EFF0F1;
      }
      .ColorScheme-ButtonHover {
        color:#3DAEE6;
      }
      .ColorScheme-ButtonFocus{
        color:#1E92FF;
      }
</style>
    <style
       id="current-color-scheme-78"
       type="text/css">
      .ColorScheme-Text {
        color:#7B7C7E;
      }
      .ColorScheme-Background{
        color:#EFF0F1;
      }
      .ColorScheme-Highlight{
        color:#3DAEE6;
      }
      .ColorScheme-ViewText {
        color:#7B7C7E;
      }
      .ColorScheme-ViewBackground{
        color:#FCFCFC;
      }
      .ColorScheme-ViewHover {
        color:#3DAEE6;
      }
      .ColorScheme-ViewFocus{
        color:#1E92FF;
      }
      .ColorScheme-ButtonText {
        color:#7B7C7E;
      }
      .ColorScheme-ButtonBackground{
        color:#EFF0F1;
      }
      .ColorScheme-ButtonHover {
        color:#3DAEE6;
      }
      .ColorScheme-ButtonFocus{
        color:#1E92FF;
      }
</style>
    <style
       id="current-color-scheme-5-82"
       type="text/css">
      .ColorScheme-Text {
        color:#7B7C7E;
      }
      .ColorScheme-Background{
        color:#EFF0F1;
      }
      .ColorScheme-Highlight{
        color:#3DAEE6;
      }
      .ColorScheme-ViewText {
        color:#7B7C7E;
      }
      .ColorScheme-ViewBackground{
        color:#FCFCFC;
      }
      .ColorScheme-ViewHover {
        color:#3DAEE6;
      }
      .ColorScheme-ViewFocus{
        color:#1E92FF;
      }
      .ColorScheme-ButtonText {
        color:#7B7C7E;
      }
      .ColorScheme-ButtonBackground{
        color:#EFF0F1;
      }
      .ColorScheme-ButtonHover {
        color:#3DAEE6;
      }
      .ColorScheme-ButtonFocus{
        color:#1E92FF;
      }
</style>
    <style
       type="text/css"
       id="current-color-scheme-0">
      .ColorScheme-Text {
        color:#7B7C7E;
      }
      .ColorScheme-Background{
        color:#EFF0F1;
      }
      .ColorScheme-Highlight{
        color:#3DAEE6;
      }
      .ColorScheme-ViewText {
        color:#7B7C7E;
      }
      .ColorScheme-ViewBackground{
        color:#FCFCFC;
      }
      .ColorScheme-ViewHover {
        color:#3DAEE6;
      }
      .ColorScheme-ViewFocus{
        color:#1E92FF;
      }
      .ColorScheme-ButtonText {
        color:#7B7C7E;
      }
      .ColorScheme-ButtonBackground{
        color:#EFF0F1;
      }
      .ColorScheme-ButtonHover {
        color:#3DAEE6;
      }
      .ColorScheme-ButtonFocus{
        color:#1E92FF;
      }
</style>
    <style
       id="current-color-scheme-2"
       type="text/css">
      .ColorScheme-Text {
        color:#31363b;
      }
      .ColorScheme-Background{
        color:#E9E8E8;
      }
      .ColorScheme-ViewText {
        color:#000000;
      }
      .ColorScheme-ViewBackground{
        color:#ffffff;
      }
      .ColorScheme-ViewHover {
        color:#000000;
      }
      .ColorScheme-ViewFocus{
        color:#5a5a5a;
      }
      .ColorScheme-ButtonText {
        color:#000000;
      }
      .ColorScheme-ButtonBackground{
        color:#E9E8E8;
      }
      .ColorScheme-ButtonHover {
        color:#1489ff;
      }
      .ColorScheme-ButtonFocus{
        color:#2B74C7;
      }
</style>
    <style
       type="text/css"
       id="current-color-scheme-9">
      .ColorScheme-Text {
        color:#7B7C7E;
      }
      .ColorScheme-Background{
        color:#EFF0F1;
      }
      .ColorScheme-Highlight{
        color:#3DAEE6;
      }
      .ColorScheme-ViewText {
        color:#7B7C7E;
      }
      .ColorScheme-ViewBackground{
        color:#FCFCFC;
      }
      .ColorScheme-ViewHover {
        color:#3DAEE6;
      }
      .ColorScheme-ViewFocus{
        color:#1E92FF;
      }
      .ColorScheme-ButtonText {
        color:#7B7C7E;
      }
      .ColorScheme-ButtonBackground{
        color:#EFF0F1;
      }
      .ColorScheme-ButtonHover {
        color:#3DAEE6;
      }
      .ColorScheme-ButtonFocus{
        color:#1E92FF;
      }
</style>
    <style
       type="text/css"
       id="current-color-scheme-03">
      .ColorScheme-Text {
        color:#7B7C7E;
      }
      .ColorScheme-Background{
        color:#EFF0F1;
      }
      .ColorScheme-Highlight{
        color:#3DAEE6;
      }
      .ColorScheme-ViewText {
        color:#7B7C7E;
      }
      .ColorScheme-ViewBackground{
        color:#FCFCFC;
      }
      .ColorScheme-ViewHover {
        color:#3DAEE6;
      }
      .ColorScheme-ViewFocus{
        color:#1E92FF;
      }
      .ColorScheme-ButtonText {
        color:#7B7C7E;
      }
      .ColorScheme-ButtonBackground{
        color:#EFF0F1;
      }
      .ColorScheme-ButtonHover {
        color:#3DAEE6;
      }
      .ColorScheme-ButtonFocus{
        color:#1E92FF;
      }
</style>
    <style
       type="text/css"
       id="current-color-scheme-93">
      .ColorScheme-Text {
        color:#7B7C7E;
      }
      .ColorScheme-Background{
        color:#EFF0F1;
      }
      .ColorScheme-Highlight{
        color:#3DAEE6;
      }
      .ColorScheme-ViewText {
        color:#7B7C7E;
      }
      .ColorScheme-ViewBackground{
        color:#FCFCFC;
      }
      .ColorScheme-ViewHover {
        color:#3DAEE6;
      }
      .ColorScheme-ViewFocus{
        color:#1E92FF;
      }
      .ColorScheme-ButtonText {
        color:#7B7C7E;
      }
      .ColorScheme-ButtonBackground{
        color:#EFF0F1;
      }
      .ColorScheme-ButtonHover {
        color:#3DAEE6;
      }
      .ColorScheme-ButtonFocus{
        color:#1E92FF;
      }
</style>
    <style
       type="text/css"
       id="current-color-scheme-70">
      .ColorScheme-Text {
        color:#7B7C7E;
      }
      .ColorScheme-Background{
        color:#EFF0F1;
      }
      .ColorScheme-Highlight{
        color:#3DAEE6;
      }
      .ColorScheme-ViewText {
        color:#7B7C7E;
      }
      .ColorScheme-ViewBackground{
        color:#FCFCFC;
      }
      .ColorScheme-ViewHover {
        color:#3DAEE6;
      }
      .ColorScheme-ViewFocus{
        color:#1E92FF;
      }
      .ColorScheme-ButtonText {
        color:#7B7C7E;
      }
      .ColorScheme-ButtonBackground{
        color:#EFF0F1;
      }
      .ColorScheme-ButtonHover {
        color:#3DAEE6;
      }
      .ColorScheme-ButtonFocus{
        color:#1E92FF;
      }
</style>
  </defs>
  <sodipodi:namedview
     id="base"
     pagecolor="#ffffff"
     bordercolor="#666666"
     borderopacity="1.0"
     inkscape:pageopacity="0.0"
     inkscape:pageshadow="2"
     inkscape:zoom="1.979899"
     inkscape:cx="165.60385"
     inkscape:cy="93.630871"
     inkscape:document-units="px"
     inkscape:current-layer="layer2"
     showgrid="false"
     units="px"
     showguides="true"
     inkscape:guide-bbox="true"
     inkscape:snap-bbox="true"
     inkscape:object-nodes="true"
     inkscape:window-width="1581"
     inkscape:window-height="953"
     inkscape:window-x="331"
     inkscape:window-y="0"
     inkscape:window-maximized="0">
    <inkscape:grid
       type="xygrid"
       id="grid3336" />
    <sodipodi:guide
       position="111,244"
       orientation="0,1"
       id="guide3338" />
    <sodipodi:guide
       position="17,12"
       orientation="0,1"
       id="guide4157" />
    <sodipodi:guide
       position="12,11"
       orientation="1,0"
       id="guide4174" />
    <sodipodi:guide
       position="244,35"
       orientation="1,0"
       id="guide4191" />
  </sodipodi:namedview>
  <metadata
     id="metadata7">
    <rdf:RDF>
      <cc:Work
         rdf:about="">
        <dc:format>image/svg+xml</dc:format>
        <dc:type
           rdf:resource="http://purl.org/dc/dcmitype/StillImage" />
        <dc:title></dc:title>
      </cc:Work>
    </rdf:RDF>
  </metadata>
  <g
     inkscape:label="frame"
     inkscape:groupmode="layer"
     id="layer1"
     transform="translate(0,-796.36216)">
    <path
       inkscape:connector-curvature="0"
       id="path11378"
       d="m 11.999997,808.36216 0,232.00004 232.000003,0 0,-232.00004 -232.000003,0 z"
       style="color:#31363b;display:inline;fill:#31363b;fill-opacity:1"
       class="ColorScheme-Background" />
    <text
       sodipodi:linespacing="125%"
       id="text4270"
       y="406.09674"
       x="192.93683"
       style="font-style:normal;font-variant:normal;font-weight:bold;font-stretch:normal;font-size:13.87941551px;line-height:125%;font-family:'Gill Sans';text-align:justify;writing-mode:lr-tb;text-anchor:start;fill:#000000;fill-opacity:1;stroke:none;stroke-width:1px;stroke-linecap:butt;stroke-linejoin:miter;stroke-opacity:1"
       xml:space="preserve"
       transform="scale(1.0001607,0.99983933)"><tspan
         y="406.09674"
         x="192.93683"
         id="tspan4272"
         sodipodi:role="line" /></text>
    <text
       sodipodi:linespacing="125%"
       id="text4270-3"
       y="230.06847"
       x="192.93683"
       style="font-style:normal;font-variant:normal;font-weight:bold;font-stretch:normal;font-size:13.87941551px;line-height:125%;font-family:'Gill Sans';text-align:justify;writing-mode:lr-tb;text-anchor:start;fill:#000000;fill-opacity:1;stroke:none;stroke-width:1px;stroke-linecap:butt;stroke-linejoin:miter;stroke-opacity:1"
       xml:space="preserve"
       transform="scale(1.0001607,0.99983933)"><tspan
         y="230.06847"
         x="192.93683"
         id="tspan4272-0"
         sodipodi:role="line" /></text>
    <text
       sodipodi:linespacing="125%"
       id="text4270-2"
       y="406.09674"
       x="368.90857"
       style="font-style:normal;font-variant:normal;font-weight:bold;font-stretch:normal;font-size:13.87941551px;line-height:125%;font-family:'Gill Sans';text-align:justify;writing-mode:lr-tb;text-anchor:start;fill:#000000;fill-opacity:1;stroke:none;stroke-width:1px;stroke-linecap:butt;stroke-linejoin:miter;stroke-opacity:1"
       xml:space="preserve"
       transform="scale(1.0001607,0.99983933)"><tspan
         y="406.09674"
         x="368.90857"
         id="tspan4272-2"
         sodipodi:role="line" /></text>
    <text
       sodipodi:linespacing="125%"
       id="text4270-3-0"
       y="230.06847"
       x="368.90857"
       style="font-style:normal;font-variant:normal;font-weight:bold;font-stretch:normal;font-size:13.87941551px;line-height:125%;font-family:'Gill Sans';text-align:justify;writing-mode:lr-tb;text-anchor:start;fill:#000000;fill-opacity:1;stroke:none;stroke-width:1px;stroke-linecap:butt;stroke-linejoin:miter;stroke-opacity:1"
       xml:space="preserve"
       transform="scale(1.0001607,0.99983933)"><tspan
         y="230.06847"
         x="368.90857"
         id="tspan4272-0-7"
         sodipodi:role="line" /></text>
    <rect
       style="fill:url(#linearGradient7255);fill-opacity:1;stroke:none"
       id="rect4821-2"
       width="224"
       height="12"
       x="16"
       y="796.36218" />
    <rect
       y="796.36212"
       x="24"
       height="12"
       width="208"
       id="rect4692-4"
       style="opacity:0.3;fill:url(#linearGradient7259);fill-opacity:1;stroke:none" />
    <path
       inkscape:label="#path3838"
       style="opacity:0.3;fill:url(#radialGradient4942-8);fill-opacity:1;stroke:none"
       d="m 0,796.36216 16,0 8,0 c 0,0.522 0,9.33334 0,12 l -8,0 c -2.20914,0 -4,1.79086 -4,4 l 0,8 -12,0 0,-8 z"
       id="path4934-0"
       inkscape:connector-curvature="0"
       inkscape:transform-center-x="-5.04263"
       inkscape:transform-center-y="-5.0442507"
       sodipodi:nodetypes="cccccccccc" />
    <path
       sodipodi:nodetypes="cccccc"
       inkscape:transform-center-y="-5.0442507"
       inkscape:transform-center-x="-5.0426301"
       inkscape:connector-curvature="0"
       id="path4936-7"
       d="m 0,796.36216 16,0 0,12 c -2.20914,0 -4,1.79086 -4,4 l -12,0 z"
       style="fill:url(#radialGradient4944-9);fill-opacity:1;stroke:none"
       inkscape:label="#path3838" />
    <path
       sodipodi:nodetypes="cccccccccc"
       inkscape:transform-center-y="-5.0442422"
       inkscape:transform-center-x="-5.0426524"
       inkscape:connector-curvature="0"
       id="path4688-1-5"
       d="m 256,796.36216 0,15.99993 0,8.00007 c -0.52201,0 -9.33333,0 -12,0 l 0,-8.00007 c 0,-2.20907 -1.79087,-3.99998 -4,-3.99998 l -8,0 0,-11.99995 8,0 z"
       style="opacity:0.3;fill:url(#radialGradient4720-8-6);fill-opacity:1;stroke:none"
       inkscape:label="#path3838" />
    <path
       inkscape:label="#path3838"
       style="fill:url(#radialGradient4756-4-1);fill-opacity:1;stroke:none"
       d="m 256,796.36216 0,16 -12,0 c 0,-2.20914 -1.79086,-4 -4,-4 l 0,-12 z"
       id="path4754-9-4"
       inkscape:connector-curvature="0"
       inkscape:transform-center-x="-5.0426301"
       inkscape:transform-center-y="-5.0442507"
       sodipodi:nodetypes="cccccc" />
    <rect
       y="-256"
       x="820.36218"
       height="12"
       width="208"
       id="rect4692-4-2"
       style="opacity:0.3;fill:url(#linearGradient7259-3);fill-opacity:1;stroke:none"
       transform="matrix(0,1,-1,0,0,0)" />
    <rect
       style="fill:url(#linearGradient7255-9);fill-opacity:1;stroke:none"
       id="rect4821-2-6"
       width="224"
       height="12"
       x="812.36218"
       y="-256"
       transform="matrix(0,1,-1,0,0,0)" />
    <rect
       style="fill:url(#linearGradient9711);fill-opacity:1;stroke:none"
       id="rect4821-2-7"
       width="224"
       height="12"
       x="-240.00005"
       y="-1052.3621"
       transform="scale(-1,-1)" />
    <rect
       y="-1052.3622"
       x="-232.00005"
       height="12"
       width="208"
       id="rect4692-4-5"
       style="opacity:0.3;fill:url(#linearGradient9713);fill-opacity:1;stroke:none"
       transform="scale(-1,-1)" />
    <path
       inkscape:label="#path3838"
       style="opacity:0.3;fill:url(#radialGradient4942-8-5);fill-opacity:1;stroke:none"
       d="m 256.00005,1052.362 -16,0 -8,0 c 0,-0.522 0,-9.3333 0,-12 l 8,0 c 2.20914,0 4,-1.7908 4,-4 l 0,-8 12,0 0,8 z"
       id="path4934-0-5"
       inkscape:connector-curvature="0"
       inkscape:transform-center-x="-5.04263"
       inkscape:transform-center-y="-5.0442507"
       sodipodi:nodetypes="cccccccccc" />
    <path
       sodipodi:nodetypes="cccccc"
       inkscape:transform-center-y="-5.0442507"
       inkscape:transform-center-x="-5.0426301"
       inkscape:connector-curvature="0"
       id="path4936-7-1"
       d="m 256.00005,1052.362 -16,0 0,-12 c 2.20914,0 4,-1.7908 4,-4 l 12,0 z"
       style="fill:url(#radialGradient4944-9-1);fill-opacity:1;stroke:none"
       inkscape:label="#path3838" />
    <path
       sodipodi:nodetypes="cccccccccc"
       inkscape:transform-center-y="-5.0442422"
       inkscape:transform-center-x="-5.0426524"
       inkscape:connector-curvature="0"
       id="path4688-1-5-7"
       d="m 5e-5,1052.362 0,-15.9999 0,-8.0001 c 0.52201,0 9.33333,0 12,0 l 0,8.0001 c 0,2.2091 1.79087,4 4,4 l 8,0 0,11.9999 -8,0 z"
       style="opacity:0.3;fill:url(#radialGradient4720-8-6-7);fill-opacity:1;stroke:none"
       inkscape:label="#path3838" />
    <path
       inkscape:label="#path3838"
       style="fill:url(#radialGradient4756-4-1-9);fill-opacity:1;stroke:none"
       d="m 5e-5,1052.362 0,-16 12,0 c 0,2.2092 1.79086,4 4,4 l 0,12 z"
       id="path4754-9-4-0"
       inkscape:connector-curvature="0"
       inkscape:transform-center-x="-5.0426301"
       inkscape:transform-center-y="-5.0442507"
       sodipodi:nodetypes="cccccc" />
    <rect
       y="4.9999999e-05"
       x="-1028.3621"
       height="12"
       width="208"
       id="rect4692-4-2-4"
       style="opacity:0.3;fill:url(#linearGradient9715);fill-opacity:1;stroke:none"
       transform="matrix(0,-1,1,0,0,0)" />
    <rect
       style="fill:url(#linearGradient9717);fill-opacity:1;stroke:none"
       id="rect4821-2-6-8"
       width="224"
       height="12"
       x="-1036.3621"
       y="4.9999999e-05"
       transform="matrix(0,-1,1,0,0,0)" />
  </g>
  <g
     inkscape:groupmode="layer"
     id="layer2"
     inkscape:label="image">
    <g
       transform="matrix(1.9999512,0,0,1.9999512,-825.55237,-982.09799)"
       id="layer1-55"
       inkscape:label="Capa 1">
      <path
         inkscape:connector-curvature="0"
         id="path4149"
         d="m 432.71429,528.79032 a 3.9999902,4.0000296 0 0 0 -4,4 3.9999902,4.0000296 0 0 0 4,4 3.9999902,4.0000296 0 0 0 4,-4 3.9999902,4.0000296 0 0 0 -4,-4 z m 0,1 a 3,3.0000296 0 0 1 3,3 3,3.0000296 0 0 1 -3,3 3,3.0000296 0 0 1 -3,-3 3,3.0000296 0 0 1 3,-3 z"
         style="opacity:1;fill:#43be80;fill-opacity:1;stroke:none" />
      <path
         id="ellipse4156"
         transform="translate(421.71429,525.79071)"
         d="m 11,12 a 7.9999504,8.0000296 0 0 0 -7.9277344,7 l 1.0078125,0 A 6.9999604,7.0000296 0 0 1 11,13 a 6.9999604,7.0000296 0 0 1 1,0.08008 l 0,-1.009766 A 7.9999504,8.0000296 0 0 0 11,12 Z"
         style="opacity:1;fill:#43be80;fill-opacity:1;stroke:none"
         inkscape:connector-curvature="0" />
      <circle
         r="3.5"
         cy="541.29071"
         cx="437.21429"
         id="path4144"
         style="opacity:1;fill:#43be80;fill-opacity:1;stroke:none" />
      <path
         inkscape:connector-curvature="0"
         id="path4166"
         d="m 438.71428,539.79074 1,1 -3,3 -2,-2 1,-1 1,1 z"
         style="fill:#ffffff;fill-rule:evenodd;stroke:none;stroke-width:1px;stroke-linecap:butt;stroke-linejoin:miter;stroke-opacity:1" />
    </g>
    <path
       style="opacity:1;fill:#f2f2f2;fill-opacity:1;stroke:none;stroke-width:0.1;stroke-linecap:square;stroke-linejoin:miter;stroke-miterlimit:4;stroke-dasharray:none;stroke-dashoffset:0;stroke-opacity:1"
       d="m 210.00003,75.456847 0,32.000003 20,0 0,-32.000003 z m 6,2 8,0 0,2 -8,0 z m -4,4 16,0 0,11 -2.21484,-0.554599 c -0.1344,-0.504401 -0.334,-0.9888 -0.59376,-1.441401 l 1.17188,-1.953199 -1.41406,-1.414 -1.95312,1.1718 c -0.45344,-0.2628 -0.93934,-0.465 -1.44532,-0.6016 l -0.55078,-2.207 -2,0 -0.55468,2.2148 c -0.50426,0.134 -0.98882,0.334 -1.44142,0.5938 l -1.95312,-1.1718 -1.41406,1.414 1.17188,1.953199 c -0.26278,0.453401 -0.46502,0.9392 -0.60156,1.4452 l -2.20704,0.5508 z m 8,8 c 0.133,-2e-4 0.26604,0 0.39844,0.02 0.1324,0.02 0.26408,0.032 0.39452,0.058 0.1318,0.028 0.26222,0.062 0.39064,0.102001 0.1272,0.04 0.25234,0.086 0.375,0.135999 0.1226,0.052 0.2425,0.108001 0.35936,0.172 0.1168,0.064 0.23016,0.136 0.33986,0.2108 0.1108,0.076 0.21766,0.156001 0.3203,0.2422 0.1022,0.086 0.2,0.178 0.29298,0.2736 0.092,0.094 0.1794,0.194001 0.26172,0.296801 0.0836,0.105999 0.1618,0.214799 0.23436,0.328199 0.0722,0.112 0.1386,0.2284 0.1992,0.3476 0.0594,0.118 0.1128,0.2396 0.1602,0.363201 0.0492,0.123999 0.0922,0.2506 0.1288,0.379 0.0352,0.128 0.0638,0.259 0.086,0.3906 0.0222,0.132 0.038,0.265 0.0468,0.3984 0.008,0.094 0.012,0.188 0.012,0.2812 1.2e-4,0.134 -0.006,0.2662 -0.02,0.3986 -0.014,0.132 -0.0326,0.264 -0.0586,0.3944 -0.0272,0.132 -0.0612,0.2622 -0.1016,0.3906 -0.0394,0.128 -0.085,0.2524 -0.1368,0.375 -0.0512,0.122 -0.1086,0.2426 -0.1718,0.3594 -0.0646,0.116 -0.135,0.2302 -0.21092,0.3398 -0.0754,0.11 -0.1562,0.2178 -0.2422,0.3204 -0.0862,0.102 -0.1774,0.2 -0.27344,0.293 -0.0946,0.092 -0.1936,0.18 -0.29686,0.2616 -0.1054,0.084 -0.21488,0.162 -0.32814,0.2344 -0.1124,0.072 -0.22852,0.138 -0.34764,0.2 -0.1184,0.06 -0.23962,0.112 -0.3633,0.16 -0.124,0.05 -0.25052,0.092 -0.3789,0.128 -0.1286,0.034 -0.25906,0.064 -0.39062,0.086 -0.132,0.022 -0.26492,0.038 -0.39844,0.046 -0.056,0 -0.1118,0 -0.168,0.02 l -0.27344,0 c -0.0796,-0.0016 -0.159,0 -0.23828,-0.02 -0.1324,-0.02 -0.26408,-0.032 -0.39454,-0.058 -0.1318,-0.028 -0.2622,-0.062 -0.39062,-0.102 -0.1272,-0.04 -0.25234,-0.086 -0.375,-0.136 -0.1226,-0.052 -0.2425,-0.108 -0.35938,-0.172 -0.1168,-0.064 -0.23014,-0.136 -0.33984,-0.211 -0.1108,-0.076 -0.21766,-0.156 -0.3203,-0.2422 -0.0602,-0.052 -0.1188,-0.108 -0.1758,-0.164 l -0.1758,-0.176 c -0.0706,-0.074 -0.1384,-0.15 -0.20314,-0.2304 -0.0836,-0.106 -0.1618,-0.215 -0.23436,-0.3282 -0.0722,-0.112 -0.1386,-0.2284 -0.1992,-0.3476 -0.0594,-0.118 -0.1128,-0.2396 -0.1602,-0.3632 -0.0492,-0.124 -0.0922,-0.2506 -0.129,-0.379 -0.0352,-0.128 -0.0638,-0.259 -0.086,-0.3906 -0.0222,-0.132 -0.038,-0.265 -0.0468,-0.3984 -0.008,-0.094 -0.012,-0.188 -0.012,-0.2814 -1.2e-4,-0.132 0.006,-0.266 0.02,-0.3984 0.012,-0.132 0.0326,-0.264 0.0586,-0.3944 0.0272,-0.132 0.0612,-0.2622 0.1016,-0.3908 0.0394,-0.128 0.085,-0.2522 0.1368,-0.375 0.0512,-0.122 0.1086,-0.2424 0.1718,-0.3592 0.0646,-0.116 0.135,-0.2302 0.21092,-0.34 0.0754,-0.11 0.1562,-0.217601 0.2422,-0.3202 0.0862,-0.102001 0.1774,-0.2 0.27344,-0.293001 0.0946,-0.092 0.1936,-0.18 0.29686,-0.261799 0.1054,-0.084 0.21488,-0.162001 0.32814,-0.2342 0.1124,-0.072 0.22852,-0.138001 0.34766,-0.200001 0.1184,-0.06 0.2396,-0.111999 0.36328,-0.159999 0.124,-0.05 0.25052,-0.092 0.3789,-0.128 0.1288,-0.036 0.25906,-0.064 0.39062,-0.086 0.132,-0.022 0.26492,-0.038 0.39844,-0.046 0.0934,0 0.1872,-0.02 0.28124,-0.02 z m -8,5 2.21484,0.5546 c 0.1344,0.5044 0.334,0.9888 0.59376,1.4414 l -1.17188,1.9532 1.41406,1.414 1.95312,-1.1718 c 0.45344,0.2628 0.93934,0.465 1.44532,0.6016 l 0.55078,2.207003 2,0 0.55468,-2.214803 c 0.50426,-0.134 0.98882,-0.334 1.44142,-0.5938 l 1.95312,1.1718 1.41406,-1.414 -1.17188,-1.9532 c 0.26278,-0.4534 0.46502,-0.9392 0.60156,-1.4452 l 2.20704,-0.5508 0,7.000003 0,2 -4,0 -8,0 -4,0 0,-2 z"
       id="rect4403"
       inkscape:connector-curvature="0"
       sodipodi:nodetypes="ccccccccccccccccccccccccccccccccccccccccccccccccccccccccccccccccccccccccccccccccccccccccccccccccccccccccccccccccccccccc" />
    <g
       transform="matrix(2,0,0,2,61.972946,-1919.1817)"
       id="layer1-8"
       inkscape:label="Capa 1">
      <path
         inkscape:connector-curvature="0"
         id="path4173"
         d="m 11,1046.3622 c -0.554,0 -1,0.446 -1,1 0,0.028 0.01333,0.052 0.01563,0.08 -1.6215174,0.2312 -3.01563,0.92 -3.01563,0.92 l 0,1 8,0 0,-1 c 0,0 -1.394113,-0.6888 -3.015625,-0.9199 0.0023,-0.028 0.01563,-0.052 0.01563,-0.08 0,-0.554 -0.446,-1 -1,-1 z"
         style="fill:#f2f2f2;fill-rule:evenodd;stroke:none;stroke-width:1px;stroke-linecap:butt;stroke-linejoin:miter;stroke-opacity:1" />
      <path
         inkscape:connector-curvature="0"
         id="path4144-1"
         d="m 11,1034.3622 a 6,6 0 0 0 -4.453125,2 l -2.546875,0 c -0.554,0 -1,0.446 -1,1 l 0,6 c 0,0.554 0.446,1 1,1 l 2.5371094,0 a 6,6 0 0 0 4.4628906,2 6,6 0 0 0 4.453125,-2 l 2.546875,0 c 0.554,0 1,-0.446 1,-1 l 0,-6 c 0,-0.554 -0.446,-1 -1,-1 l -2.537109,0 a 6,6 0 0 0 -4.462891,-2 z m 0,1 a 5,5 0 0 1 3.091797,1.084 5,5 0 0 1 0.199219,0.164 5,5 0 0 1 0.183593,0.1719 5,5 0 0 1 0.183594,0.1875 5,5 0 0 1 0.177735,0.2012 5,5 0 0 1 0.15625,0.1914 l 1.197265,0 1.810547,0 0,1 -1,0 0,4 1,0 0,1 -1.8125,0 -1.195312,0 a 5,5 0 0 1 -1.001954,1 5,5 0 0 1 -2.990234,1 5,5 0 0 1 -3.0917969,-1.084 5,5 0 0 1 -0.1992187,-0.164 5,5 0 0 1 -0.1835938,-0.1719 5,5 0 0 1 -0.1835937,-0.1875 5,5 0 0 1 -0.1777344,-0.2012 5,5 0 0 1 -0.15625,-0.1914 l -1.1972656,0 -1.8105469,0 0,-1 1,0 0,-4 -1,0 0,-1 1.8125,0 1.1953125,0 a 5,5 0 0 1 0.3203125,-0.3848 5,5 0 0 1 0.6816406,-0.6152 5,5 0 0 1 2.9902344,-1 z"
         style="color:#000000;display:inline;overflow:visible;visibility:visible;opacity:1;fill:#f2f2f2;fill-opacity:1;fill-rule:nonzero;stroke:none;stroke-width:3;stroke-linecap:round;stroke-linejoin:round;stroke-miterlimit:4;stroke-dasharray:none;stroke-opacity:1;marker:none;enable-background:accumulate" />
      <circle
         style="color:#000000;display:inline;overflow:visible;visibility:visible;opacity:1;fill:#f67400;fill-opacity:1;fill-rule:nonzero;stroke:none;stroke-width:3;stroke-linecap:round;stroke-linejoin:round;stroke-miterlimit:4;stroke-dasharray:none;stroke-opacity:1;marker:none;enable-background:accumulate"
         id="path4147"
         cx="10.999995"
         cy="1040.3622"
         r="1.9999826" />
    </g>
    <g
       transform="matrix(2,0,0,2,-1084.6075,-1072.7535)"
       id="layer1-73"
       inkscape:label="Capa 1">
      <path
         inkscape:connector-curvature="0"
         style="opacity:1;fill:#f2f2f2;fill-opacity:1;stroke:none"
         d="m 562.27399,610.64788 -4.98828,4.99023 0,0.01 0,1 0,4 0,1 0,0.01 4.98828,4.9902 1.01172,0 0,-0.40234 0,-15.19532 0,-0.40234 -1.01172,0 z m -7.98828,5 0,1 0,4 0,1 2,0 0,-1 0,-4 0,-1 -2,0 z"
         id="path4226" />
      <path
         inkscape:connector-curvature="0"
         style="opacity:1;fill:#f2f2f2;fill-opacity:1;stroke:none"
         d="m 565.60993,614.92913 -0.53906,0.86133 a 4,4 0 0 1 1.21484,2.85742 4,4 0 0 1 -1.21094,2.86133 l 0.53906,0.86328 a 5,5 0 0 0 1.67188,-3.72461 5,5 0 0 0 -1.67578,-3.71875 z"
         id="path4183-7" />
      <path
         inkscape:connector-curvature="0"
         style="opacity:1;fill:#f2f2f2;fill-opacity:1;stroke:none"
         d="m 565.15094,611.18499 -0.24414,0.97656 a 7,7 0 0 1 4.37891,6.48633 7,7 0 0 1 -4.38086,6.47852 l 0.24414,0.9746 a 8,8 0 0 0 5.13672,-7.45312 8,8 0 0 0 -5.13477,-7.46289 z"
         id="path4188-5" />
    </g>
    <g
       transform="matrix(2,0,0,2,192.00003,-1918.1817)"
       id="layer1-95"
       inkscape:label="Capa 1">
      <path
         id="path4943-7"
         d="m 11,1033.3622 c 0,0 -2,2.6575 -8,3.3242 0,0 0,9.3339 8,12.6758 8,-3.3419 8,-12.6758 8,-12.6758 -6,-0.6667 -8,-3.3242 -8,-3.3242 z m 0,1.377 c 1.586995,1.3447 3.87716,2.2417 6.845703,2.6933 -0.161259,1.4452 -0.315875,2.5328 -0.689453,3.584 -0.78509,2.2091 -1.700475,3.553 -2.521484,4.5195 -1.272228,1.4977 -2.427574,2.1039 -3.634766,2.7071 -1.207192,-0.6032 -2.362539,-1.2094 -3.634766,-2.7071 -0.821009,-0.9665 -1.736394,-2.3104 -2.521484,-4.5195 -0.373578,-1.0512 -0.528194,-2.1388 -0.689453,-3.584 2.968543,-0.4516 5.258708,-1.3486 6.845703,-2.6933 z"
         style="fill:#f2f2f2;fill-opacity:1;stroke:none"
         inkscape:connector-curvature="0" />
      <g
         transform="translate(4,4)"
         id="layer1-9"
         inkscape:label="Capa 1">
        <rect
           ry="4"
           y="1037.3622"
           x="7"
           height="8"
           width="8"
           id="rect4153"
           style="opacity:1;fill:#27ae60;fill-opacity:1;stroke:none" />
        <path
           inkscape:connector-curvature="0"
           id="path4142"
           d="m 13,1039.3622 -3,3 -1,-1 -1,1 1,1 1,1 4,-4 -1,-1 z"
           style="fill:#ffffff;fill-opacity:1;fill-rule:evenodd;stroke:none;stroke-width:1px;stroke-linecap:butt;stroke-linejoin:miter;stroke-opacity:1" />
      </g>
    </g>
    <path
       class="ColorScheme-Text"
       sodipodi:nodetypes="ccccccccccccccccccccccccccccccccc"
       inkscape:connector-curvature="0"
       id="path3783"
       d="m 122.82556,75.456847 0.0626,9.913725 -4.01569,0 0,22.086278 28.1098,0 0,-22.086278 -4.01568,0 0.0626,-9.913725 z m 2.07059,1.882353 16.06274,0.06274 0,7.968627 -16.06274,-0.06275 z m 1.9451,2.007843 0.0626,4.015686 4.01569,0 0,-3.952941 z m 12.17255,0 -4.20393,0.06275 0,3.952941 4.14118,0 z m -6.21177,10.039215 8.15686,8.031372 -16.06274,0 z m -7.90588,10.039215 16.06274,0 0,2.007847 -16.06274,0 z"
       style="color:#7b7c7e;fill:#f2f2f2;fill-opacity:1;stroke:none" />
    <path
       style="color:#31363b;fill:#f2f2f2;fill-opacity:1"
       d="m 163.1785,148.54272 c -1.75818,0 -3.1875,1.42932 -3.1875,3.1875 l 0,25.625 c 0,1.75818 1.42932,3.1875 3.1875,3.1875 l 19.625,0 c 1.75818,0 3.1875,-1.42932 3.1875,-3.1875 l 0,-25.625 c 0,-1.75818 -1.42932,-3.1875 -3.1875,-3.1875 l -19.625,0 z m 0,2.125 19.625,0 c 0.60424,0 1.0625,0.45826 1.0625,1.0625 l 0,25.625 c 0,0.60424 -0.45826,1.0625 -1.0625,1.0625 l -19.625,0 c -0.60424,0 -1.0625,-0.45826 -1.0625,-1.0625 l 0,-25.625 c 0,-0.60424 0.45826,-1.0625 1.0625,-1.0625 z m 9.8125,1.875 c -4.79058,0 -9,4.20164 -9,9 0,4.79836 4.20942,9 9,9 0.0818,0 0.1686,0.002 0.25,0 0.73214,1.14098 1.45518,2.2979 2.1875,3.4375 0.004,0.016 -0.004,0.0458 0,0.0624 0.1234,0.48568 0.33712,0.96954 0.6875,1.375 1.20332,1.39262 3.3122,1.54832 4.6875,0.3125 1.3753,-1.23582 1.51658,-3.48162 0.3125,-4.875 -0.38834,-0.4494 -0.92578,-0.69346 -1.4375,-0.875 -0.51384,-0.38132 -0.963,-0.79462 -1.4375,-1.1875 2.2543,-1.66134 3.75,-4.35924 3.75,-7.25 0,-4.79836 -4.20942,-9 -9,-9 z m 0,1.9375 c 3.66102,0 7.125,3.44664 7.125,7.0625 0,2.32368 -1.45054,4.5565 -3.4375,5.875 -0.78126,-0.72326 -1.5276,-1.42438 -2.3125,-2.25 -0.35008,-0.40512 -0.87546,-0.60124 -1.375,-0.625 -0.49954,-0.0238 -0.96546,0.132 -1.375,0.5 -0.8191,0.73594 -0.95014,2.00226 -0.25,2.8125 0.1674,0.2133 0.34176,0.41048 0.5,0.625 -3.20126,-0.63012 -6,-3.71034 -6,-6.9375 0,-3.61586 3.46398,-7.0625 7.125,-7.0625 z m 0,5.0625 c -1.10592,0 -2.00098,0.84986 -2,2 9.8e-4,1.14876 0.8954,2 2,2 1.10458,0 1.99902,-0.85124 2,-2 9.8e-4,-1.15014 -0.89408,-2 -2,-2 z m -7,13 c -1.04666,0 -2.00078,0.93898 -2,2 7.8e-4,1.06 0.95434,2 2,2 1.04566,0 1.99922,-0.94 2,-2 7.8e-4,-1.06102 -0.95334,-2 -2,-2 z"
       id="path3020"
       class="ColorScheme-Text"
       inkscape:connector-curvature="0" />
    <path
       inkscape:connector-curvature="0"
       style="color:#7b7c7e;fill:#f2f2f2;fill-opacity:1;stroke:none"
       d="m 123.98197,148.54272 0,2 0,10 2,0 0,-10 8,0 0,10 2,0 0,-12 z m -6.58594,10.60156 -1.41406,1.41406 8.58594,8.58594 0.016,-0.016 5.41408,5.41404 5.39844,-5.39844 8.58594,-8.58594 -1.41406,-1.41406 -8.58594,8.58594 -4,4 -4,-4 z m -5.41406,15.39844 0,4 0,2 2,0 34,0 0,-2 0,-4 -2,0 0,4 -32,0 0,-4 z"
       id="rect4282"
       sodipodi:nodetypes="cccccccccccccccccccccccccccccccccc"
       class="ColorScheme-Text" />
    <path
       inkscape:connector-curvature="0"
       class="ColorScheme-Text"
       id="path3016"
       d="m 87.363592,75.456847 c -8.863999,0 -15.999998,7.135999 -15.999998,15.999998 0,8.863995 7.135999,16.000005 15.999998,16.000005 8.863999,0 15.999998,-7.13601 15.999998,-16.000005 0,-8.863999 -7.135999,-15.999998 -15.999998,-15.999998 z m -0.3125,2 0.625,0 c 7.586345,0 13.687498,6.101181 13.687498,13.687498 l 0,0.625 c 0,7.586317 -6.101153,13.687495 -13.687498,13.687495 l -0.625,0 c -7.586345,0 -13.687498,-6.101177 -13.687498,-13.687495 l 0,-0.625 c 0,-7.586316 6.101153,-13.687498 13.687498,-13.687498 z m -1.3125,5.999999 0,11.187499 3.25,0 0,-11.187499 -3.25,0 z m 1.625,12.812499 c -0.736372,0 -1.625,0.82612 -1.625,1.5625 0,0.736379 0.888628,1.625 1.625,1.625 0.736372,0 1.625,-0.888621 1.625,-1.625 0,-0.73638 -0.888628,-1.5625 -1.625,-1.5625 z"
       style="color:#7b7c7e;fill:#f2f2f2;fill-opacity:1;stroke:none" />
    <path
       style="color:#3daee6;fill:currentColor;fill-opacity:1;stroke:none"
       d="m 178.49115,75.456847 c -8.83656,0 -16,7.163444 -16,16 0,8.836553 7.16344,16.000003 16,16.000003 8.83656,0 16,-7.16345 16,-16.000003 0,-8.836556 -7.16344,-16 -16,-16 z m 0,2 c 7.73198,0 14,6.268014 14,14 0,7.731986 -6.26802,14.000003 -14,14.000003 -7.73198,0 -14,-6.268017 -14,-14.000003 0,-7.731986 6.26802,-14 14,-14 z m 4,14 c -3.3137,0 -6,2.686292 -6,6 0,3.313713 2.6863,6.000003 6,6.000003 3.3137,0 6,-2.68629 6,-6.000003 0,-3.313708 -2.6863,-6 -6,-6 z"
       id="path3787"
       class="ColorScheme-Highlight"
       inkscape:connector-curvature="0" />
  </g>
</svg>
