<?xml version="1.0" encoding="UTF-8" standalone="no"?>
<!-- Created with Inkscape (http://www.inkscape.org/) -->

<svg
   xmlns:dc="http://purl.org/dc/elements/1.1/"
   xmlns:cc="http://creativecommons.org/ns#"
   xmlns:rdf="http://www.w3.org/1999/02/22-rdf-syntax-ns#"
   xmlns:svg="http://www.w3.org/2000/svg"
   xmlns="http://www.w3.org/2000/svg"
   xmlns:sodipodi="http://sodipodi.sourceforge.net/DTD/sodipodi-0.dtd"
   xmlns:inkscape="http://www.inkscape.org/namespaces/inkscape"
   width="22"
   height="22"
   id="svg3869"
   version="1.1"
   inkscape:version="0.91 r13725"
   sodipodi:docname="android-package-archive.svg">
  <defs
     id="defs3871" />
  <sodipodi:namedview
     id="base"
     pagecolor="#ffffff"
     bordercolor="#666666"
     borderopacity="1.0"
     inkscape:pageopacity="0.0"
     inkscape:pageshadow="2"
     inkscape:zoom="22.627416"
     inkscape:cx="16.321637"
     inkscape:cy="8.9820331"
     inkscape:document-units="px"
     inkscape:current-layer="layer1-23"
     showgrid="true"
     fit-margin-top="0"
     fit-margin-left="0"
     fit-margin-right="0"
     fit-margin-bottom="0"
     inkscape:window-width="1920"
     inkscape:window-height="957"
     inkscape:window-x="-4"
     inkscape:window-y="0"
     inkscape:window-maximized="1"
     inkscape:showpageshadow="false"
     inkscape:snap-bbox="true"
     inkscape:object-nodes="true"
     inkscape:snap-global="true">
    <inkscape:grid
       type="xygrid"
       id="grid4132" />
    <sodipodi:guide
       position="2,20.000017"
       orientation="18,0"
       id="guide4138" />
    <sodipodi:guide
       position="2,2.0000174"
       orientation="0,18"
       id="guide4140" />
    <sodipodi:guide
       position="20,2.0000174"
       orientation="-18,0"
       id="guide4142" />
    <sodipodi:guide
       position="13,20"
       orientation="0,-18"
       id="guide4144" />
    <sodipodi:guide
       position="3,19.000017"
       orientation="16,0"
       id="guide4146" />
    <sodipodi:guide
       position="3,3.0000174"
       orientation="0,16"
       id="guide4148" />
    <sodipodi:guide
       position="19,3.0000174"
       orientation="-16,0"
       id="guide4150" />
    <sodipodi:guide
       position="24.562501,19.000001"
       orientation="0,-16"
       id="guide4152" />
  </sodipodi:namedview>
  <metadata
     id="metadata3874">
    <rdf:RDF>
      <cc:Work
         rdf:about="">
        <dc:format>image/svg+xml</dc:format>
        <dc:type
           rdf:resource="http://purl.org/dc/dcmitype/StillImage" />
        <dc:title></dc:title>
      </cc:Work>
    </rdf:RDF>
  </metadata>
  <g
     inkscape:label="Capa 1"
     inkscape:groupmode="layer"
     id="layer1"
     transform="translate(-326,-534.3622)">
    <rect
       style="fill:#8e44ad;fill-opacity:1;stroke:none"
       id="rect4035"
       width="0"
       height="14.668059"
       x="273.38181"
       y="518.47876" />
    <rect
       style="fill:#8e44ad;fill-opacity:1;stroke:none"
       id="rect4035-8"
       width="0"
       height="14.668059"
       x="280.34238"
       y="541.04938" />
    <rect
       style="fill:#8e44ad;fill-opacity:1;stroke:none"
       id="rect4035-0"
       width="0"
       height="14.668059"
       x="282.15567"
       y="539.98865" />
    <g
       transform="matrix(1.3333333,0,0,1.3333333,326.33333,-847.1207)"
       id="layer1-2"
       inkscape:label="Capa 1"
       style="fill:#8e44ad;fill-opacity:1" />
    <g
       id="layer1-23"
       inkscape:label="Capa 1">
      <rect
         y="518.47876"
         x="273.38181"
         height="14.668059"
         width="0"
         id="rect4035-3"
         style="fill:#04896a;fill-opacity:1;stroke:none" />
      <rect
         y="541.04938"
         x="280.34238"
         height="14.668059"
         width="0"
         id="rect4035-8-9"
         style="fill:#04896a;fill-opacity:1;stroke:none" />
      <rect
         y="539.98865"
         x="282.15567"
         height="14.668059"
         width="0"
         id="rect4035-0-4"
         style="fill:#04896a;fill-opacity:1;stroke:none" />
      <path
         style="fill:#04896a;fill-opacity:1;stroke:none;stroke-width:2;stroke-miterlimit:4;stroke-dasharray:none"
         d="M 3.4980469 2.9960938 A 0.50005 0.50005 0 0 0 3.1503906 3.8535156 L 5.0097656 5.7128906 A 8 8 0 0 0 3 11 L 3 19 L 19 19 L 19 11 A 8 8 0 0 0 17.001953 5.7207031 L 18.861328 3.8613281 A 0.50005 0.50005 0 0 0 18.503906 3 A 0.50005 0.50005 0 0 0 18.154297 3.1542969 L 16.292969 5.015625 A 8 8 0 0 0 11 3 A 8 8 0 0 0 5.7148438 5.0039062 L 3.8574219 3.1464844 A 0.50005 0.50005 0 0 0 3.4980469 2.9960938 z M 10.908203 4 A 7 7 0 0 1 11 4 A 7 7 0 0 1 15.587891 5.7207031 A 7 7 0 0 1 16.291016 6.4316406 A 7 7 0 0 1 18 11 L 4 11 A 7 7 0 0 1 5.7148438 6.4179688 A 7 7 0 0 1 6.3574219 5.7734375 A 7 7 0 0 1 6.4238281 5.7128906 A 7 7 0 0 1 10.908203 4 z M 8 7 A 1 1 0 0 0 7 8 A 1 1 0 0 0 8 9 A 1 1 0 0 0 9 8 A 1 1 0 0 0 8 7 z M 14 7 A 1 1 0 0 0 13 8 A 1 1 0 0 0 14 9 A 1 1 0 0 0 15 8 A 1 1 0 0 0 14 7 z M 4 12 L 10 12 L 10 13 L 11 13 L 11 12 L 18 12 L 18 18 L 4 18 L 4 12 z M 11 13 L 11 14 L 12 14 L 12 13 L 11 13 z M 11 14 L 10 14 L 10 15 L 10 16 L 12 16 L 12 15 L 11 15 L 11 14 z "
         transform="translate(326,534.3622)"
         id="rect4723" />
    </g>
  </g>
</svg>
