<?xml version="1.0" encoding="UTF-8" standalone="no"?>
<!-- Created with Inkscape (http://www.inkscape.org/) -->

<svg
   xmlns:dc="http://purl.org/dc/elements/1.1/"
   xmlns:cc="http://creativecommons.org/ns#"
   xmlns:rdf="http://www.w3.org/1999/02/22-rdf-syntax-ns#"
   xmlns:svg="http://www.w3.org/2000/svg"
   xmlns="http://www.w3.org/2000/svg"
   xmlns:sodipodi="http://sodipodi.sourceforge.net/DTD/sodipodi-0.dtd"
   xmlns:inkscape="http://www.inkscape.org/namespaces/inkscape"
   width="22"
   height="22"
   id="svg3869"
   version="1.1"
   inkscape:version="0.91 r13725"
   sodipodi:docname="application-octet-stream.svg">
  <defs
     id="defs3871" />
  <sodipodi:namedview
     id="base"
     pagecolor="#ffffff"
     bordercolor="#666666"
     borderopacity="1.0"
     inkscape:pageopacity="0.0"
     inkscape:pageshadow="2"
     inkscape:zoom="15.590909"
     inkscape:cx="11"
     inkscape:cy="11"
     inkscape:document-units="px"
     inkscape:current-layer="layer1"
     showgrid="true"
     fit-margin-top="0"
     fit-margin-left="0"
     fit-margin-right="0"
     fit-margin-bottom="0"
     inkscape:window-width="1012"
     inkscape:window-height="526"
     inkscape:window-x="0"
     inkscape:window-y="0"
     inkscape:window-maximized="0"
     inkscape:showpageshadow="false">
    <inkscape:grid
       type="xygrid"
       id="grid4132" />
    <sodipodi:guide
       position="2,20.000017"
       orientation="18,0"
       id="guide4138" />
    <sodipodi:guide
       position="2,2.0000174"
       orientation="0,18"
       id="guide4140" />
    <sodipodi:guide
       position="20,2.0000174"
       orientation="-18,0"
       id="guide4142" />
    <sodipodi:guide
       position="20,20.000017"
       orientation="0,-18"
       id="guide4144" />
    <sodipodi:guide
       position="3,19.000017"
       orientation="16,0"
       id="guide4146" />
    <sodipodi:guide
       position="3,3.0000174"
       orientation="0,16"
       id="guide4148" />
    <sodipodi:guide
       position="19,3.0000174"
       orientation="-16,0"
       id="guide4150" />
    <sodipodi:guide
       position="19,19.000017"
       orientation="0,-16"
       id="guide4152" />
  </sodipodi:namedview>
  <metadata
     id="metadata3874">
    <rdf:RDF>
      <cc:Work
         rdf:about="">
        <dc:format>image/svg+xml</dc:format>
        <dc:type
           rdf:resource="http://purl.org/dc/dcmitype/StillImage" />
        <dc:title />
      </cc:Work>
    </rdf:RDF>
  </metadata>
  <g
     inkscape:label="Capa 1"
     inkscape:groupmode="layer"
     id="layer1"
     transform="translate(-326,-534.3622)">
    <rect
       style="fill:#6c7a89;fill-opacity:1;stroke:none"
       id="rect4035"
       width="0"
       height="10.999983"
       x="326.49567"
       y="535.98694" />
    <rect
       style="fill:#6c7a89;fill-opacity:1;stroke:none"
       id="rect4035-7"
       width="0"
       height="10.999983"
       x="321.94366"
       y="538.50604" />
    <rect
       style="fill:#6c7a89;fill-opacity:1;stroke:none"
       id="rect4035-9"
       width="0"
       height="10.999983"
       x="317.43588"
       y="526.08746" />
    <path
       inkscape:connector-curvature="0"
       style="opacity:1;fill:#6c7a89;fill-opacity:1;stroke:none"
       d="m 329,537.3622 0,4 0,11 0,1 10,0 6,0 0,-1 0,-5 0,-6 0,-4 -16,0 z m 1,4 14,0 0,6 0,5 -5,0 -9,0 0,-11 z"
       id="rect4138" />
    <path
       inkscape:connector-curvature="0"
       style="opacity:1;fill:#6c7a89;fill-opacity:1;stroke:none;stroke-width:2;stroke-linecap:round;stroke-linejoin:round;stroke-miterlimit:4;stroke-dasharray:none;stroke-opacity:1"
       d="m 336.9995,542.3622 c -0.83305,0 -1.61102,0.25574 -2.15908,0.73537 C 334.29225,543.5772 334,544.25818 334,544.98718 l 1.71383,0 c 0,-0.39586 0.13665,-0.6525 0.33838,-0.8289 0.20159,-0.17672 0.49525,-0.2961 0.94729,-0.2961 0.45287,0 0.7457,0.1194 0.94782,0.2961 0.20184,0.1764 0.33785,0.43304 0.33785,0.8289 0,0.3438 -0.076,0.49004 -0.18053,0.61969 -0.4469,0.39461 -0.98704,0.73165 -1.42122,1.05465 -0.49028,0.32186 -0.96904,0.74396 -0.96904,1.32568 l 0,0.37498 1.71403,0 0,-0.37498 c 0.60947,-0.54572 1.51702,-1.02166 2.0825,-1.522 0.29841,-0.37423 0.48909,-0.88402 0.48909,-1.47828 0,-0.729 -0.29241,-1.40972 -0.84025,-1.88935 -0.54823,-0.47963 -1.32672,-0.73537 -2.1599,-0.73537 z m -1.28512,7.50028 0,1.49972 1.71403,0 0,-1.49972 z"
       id="rect4169-4"
       sodipodi:nodetypes="ssccssssccsccccsssccccc" />
  </g>
</svg>
