<?xml version="1.0" encoding="UTF-8" standalone="no"?>
<!-- Created with Inkscape (http://www.inkscape.org/) -->

<svg
   xmlns:dc="http://purl.org/dc/elements/1.1/"
   xmlns:cc="http://creativecommons.org/ns#"
   xmlns:rdf="http://www.w3.org/1999/02/22-rdf-syntax-ns#"
   xmlns:svg="http://www.w3.org/2000/svg"
   xmlns="http://www.w3.org/2000/svg"
   xmlns:sodipodi="http://sodipodi.sourceforge.net/DTD/sodipodi-0.dtd"
   xmlns:inkscape="http://www.inkscape.org/namespaces/inkscape"
   width="22"
   height="22"
   id="svg3869"
   version="1.1"
   inkscape:version="0.91 r13725"
   sodipodi:docname="application-x-plasma.svg">
  <defs
     id="defs3871" />
  <sodipodi:namedview
     id="base"
     pagecolor="#ffffff"
     bordercolor="#666666"
     borderopacity="1.0"
     inkscape:pageopacity="0.0"
     inkscape:pageshadow="2"
     inkscape:zoom="31.999999"
     inkscape:cx="13.208143"
     inkscape:cy="11.37926"
     inkscape:document-units="px"
     inkscape:current-layer="layer1"
     showgrid="true"
     fit-margin-top="0"
     fit-margin-left="0"
     fit-margin-right="0"
     fit-margin-bottom="0"
     inkscape:window-width="1920"
     inkscape:window-height="957"
     inkscape:window-x="-4"
     inkscape:window-y="0"
     inkscape:window-maximized="1"
     inkscape:showpageshadow="false"
     inkscape:snap-bbox="true"
     inkscape:object-nodes="true"
     inkscape:snap-global="true">
    <inkscape:grid
       type="xygrid"
       id="grid4132" />
    <sodipodi:guide
       position="2,20.000017"
       orientation="18,0"
       id="guide4138" />
    <sodipodi:guide
       position="2,2.0000174"
       orientation="0,18"
       id="guide4140" />
    <sodipodi:guide
       position="20,2.0000174"
       orientation="-18,0"
       id="guide4142" />
    <sodipodi:guide
       position="13,20"
       orientation="0,-18"
       id="guide4144" />
    <sodipodi:guide
       position="3,19.000017"
       orientation="16,0"
       id="guide4146" />
    <sodipodi:guide
       position="3,3.0000174"
       orientation="0,16"
       id="guide4148" />
    <sodipodi:guide
       position="19,3.0000174"
       orientation="-16,0"
       id="guide4150" />
    <sodipodi:guide
       position="24.562501,19.000001"
       orientation="0,-16"
       id="guide4152" />
  </sodipodi:namedview>
  <metadata
     id="metadata3874">
    <rdf:RDF>
      <cc:Work
         rdf:about="">
        <dc:format>image/svg+xml</dc:format>
        <dc:type
           rdf:resource="http://purl.org/dc/dcmitype/StillImage" />
        <dc:title></dc:title>
      </cc:Work>
    </rdf:RDF>
  </metadata>
  <g
     inkscape:label="Capa 1"
     inkscape:groupmode="layer"
     id="layer1"
     transform="translate(-326,-534.3622)">
    <rect
       style="fill:#8e44ad;fill-opacity:1;stroke:none"
       id="rect4035"
       width="0"
       height="14.668059"
       x="273.38181"
       y="518.47876" />
    <rect
       style="fill:#8e44ad;fill-opacity:1;stroke:none"
       id="rect4035-8"
       width="0"
       height="14.668059"
       x="280.34238"
       y="541.04938" />
    <rect
       style="fill:#8e44ad;fill-opacity:1;stroke:none"
       id="rect4035-0"
       width="0"
       height="14.668059"
       x="282.15567"
       y="539.98865" />
    <g
       transform="matrix(1.3333333,0,0,1.3333333,326.33333,-847.1207)"
       id="layer1-2"
       inkscape:label="Capa 1"
       style="fill:#8e44ad;fill-opacity:1" />
    <g
       transform="translate(326,-496)"
       id="layer1-1"
       inkscape:label="Capa 1"
       style="fill:#8e44ad;fill-opacity:1">
      <path
         id="rect4231"
         transform="translate(0,1030.3622)"
         d="M 7,3 C 6.446,3 6,3.446 6,4 6,4.554 6.446,5 7,5 7.554,5 8,4.554 8,4 8,3.446 7.554,3 7,3 Z m 7,0 -2,2 3,3 -3,3 2,2 3,-3 2,-2 -5,-5 z M 4.5,9 C 3.669,9 3,9.669 3,10.5 3,11.331 3.669,12 4.5,12 5.331,12 6,11.331 6,10.5 6,9.669 5.331,9 4.5,9 Z M 9,15 c -1.108,0 -2,0.892 -2,2 0,1.108 0.892,2 2,2 1.108,0 2,-0.892 2,-2 0,-1.108 -0.892,-2 -2,-2 z"
         style="opacity:1;fill:#8e44ad;fill-opacity:1;stroke:none"
         inkscape:connector-curvature="0" />
    </g>
  </g>
</svg>
