<?xml version="1.0" encoding="UTF-8" standalone="no"?>
<!-- Created with Inkscape (http://www.inkscape.org/) -->

<svg
   xmlns:dc="http://purl.org/dc/elements/1.1/"
   xmlns:cc="http://creativecommons.org/ns#"
   xmlns:rdf="http://www.w3.org/1999/02/22-rdf-syntax-ns#"
   xmlns:svg="http://www.w3.org/2000/svg"
   xmlns="http://www.w3.org/2000/svg"
   xmlns:sodipodi="http://sodipodi.sourceforge.net/DTD/sodipodi-0.dtd"
   xmlns:inkscape="http://www.inkscape.org/namespaces/inkscape"
   width="22"
   height="22"
   id="svg3869"
   version="1.1"
   inkscape:version="0.91 r13725"
   sodipodi:docname="application-x-cd-image.svg">
  <defs
     id="defs3871" />
  <sodipodi:namedview
     id="base"
     pagecolor="#ffffff"
     bordercolor="#666666"
     borderopacity="1.0"
     inkscape:pageopacity="0.0"
     inkscape:pageshadow="2"
     inkscape:zoom="31.999999"
     inkscape:cx="14.660686"
     inkscape:cy="8.4093802"
     inkscape:document-units="px"
     inkscape:current-layer="layer1"
     showgrid="true"
     fit-margin-top="0"
     fit-margin-left="0"
     fit-margin-right="0"
     fit-margin-bottom="0"
     inkscape:window-width="1920"
     inkscape:window-height="957"
     inkscape:window-x="-4"
     inkscape:window-y="0"
     inkscape:window-maximized="1"
     inkscape:showpageshadow="false"
     inkscape:snap-bbox="true"
     inkscape:object-nodes="true"
     inkscape:snap-global="true">
    <inkscape:grid
       type="xygrid"
       id="grid4132" />
    <sodipodi:guide
       position="2,20.000017"
       orientation="18,0"
       id="guide4138" />
    <sodipodi:guide
       position="2,2.0000174"
       orientation="0,18"
       id="guide4140" />
    <sodipodi:guide
       position="20,2.0000174"
       orientation="-18,0"
       id="guide4142" />
    <sodipodi:guide
       position="13,20"
       orientation="0,-18"
       id="guide4144" />
    <sodipodi:guide
       position="3,19.000017"
       orientation="16,0"
       id="guide4146" />
    <sodipodi:guide
       position="3,3.0000174"
       orientation="0,16"
       id="guide4148" />
    <sodipodi:guide
       position="19,3.0000174"
       orientation="-16,0"
       id="guide4150" />
    <sodipodi:guide
       position="24.562501,19.000001"
       orientation="0,-16"
       id="guide4152" />
  </sodipodi:namedview>
  <metadata
     id="metadata3874">
    <rdf:RDF>
      <cc:Work
         rdf:about="">
        <dc:format>image/svg+xml</dc:format>
        <dc:type
           rdf:resource="http://purl.org/dc/dcmitype/StillImage" />
        <dc:title></dc:title>
      </cc:Work>
    </rdf:RDF>
  </metadata>
  <g
     inkscape:label="Capa 1"
     inkscape:groupmode="layer"
     id="layer1"
     transform="translate(-326,-534.3622)">
    <rect
       style="fill:#6c7a89;fill-opacity:1;stroke:none"
       id="rect4035"
       width="0"
       height="14.668059"
       x="256.22556"
       y="514.69751" />
    <rect
       style="fill:#6c7a89;fill-opacity:1;stroke:none"
       id="rect4035-8"
       width="0"
       height="14.668059"
       x="263.18613"
       y="537.26813" />
    <rect
       style="fill:#6c7a89;fill-opacity:1;stroke:none"
       id="rect4035-0"
       width="0"
       height="14.668059"
       x="264.99942"
       y="536.2074" />
    <g
       transform="matrix(1.3333333,0,0,1.3333333,309.17708,-850.90195)"
       id="layer1-2"
       inkscape:label="Capa 1"
       style="fill:#6c7a89;fill-opacity:1" />
    <rect
       style="fill:#6c7a89;fill-opacity:1;stroke:none"
       id="rect4035-3"
       width="0"
       height="14.668059"
       x="256.22556"
       y="514.69751" />
    <rect
       style="fill:#6c7a89;fill-opacity:1;stroke:none"
       id="rect4035-8-9"
       width="0"
       height="14.668059"
       x="263.18613"
       y="537.26813" />
    <rect
       style="fill:#6c7a89;fill-opacity:1;stroke:none"
       id="rect4035-0-4"
       width="0"
       height="14.668059"
       x="264.99942"
       y="536.2074" />
    <g
       style="fill:#6c7a89;fill-opacity:1"
       inkscape:label="Capa 1"
       id="layer1-7"
       transform="translate(326,-496)">
      <g
         style="fill:#6c7a89;fill-opacity:1"
         id="layer1-0"
         inkscape:label="Capa 1">
        <path
           id="rect4119"
           transform="translate(0,1030.3622)"
           d="m 11,3 c -4.432,0 -8,3.568 -8,8 0,4.432 3.568,8 8,8 4.432,0 8,-3.568 8,-8 0,-4.432 -3.568,-8 -8,-8 z m 0,1 c 3.878,0 7,3.122 7,7 0,3.878 -3.122,7 -7,7 C 7.122,18 4,14.878 4,11 4,7.122 7.122,4 11,4 Z m 0,1 C 7.676004,5 5,7.676004 5,11 l 3,0 C 8,9.3380018 9.3380018,8 11,8 l 0,-3 z m 0,4 c -1.1079987,0 -2,0.8920013 -2,2 0,1.107999 0.8920013,2 2,2 1.107999,0 2,-0.892001 2,-2 0,-1.1079987 -0.892001,-2 -2,-2 z m 0,1 c 0.553999,0 1,0.446001 1,1 0,0.553999 -0.446001,1 -1,1 -0.553999,0 -1,-0.446001 -1,-1 0,-0.553999 0.446001,-1 1,-1 z m 3,1 c 0,1.661998 -1.338002,3 -3,3 l 0,3 c 3.323996,0 6,-2.676004 6,-6 l -3,0 z"
           style="opacity:1;fill:#6c7a89;fill-opacity:1;stroke:none"
           inkscape:connector-curvature="0" />
      </g>
    </g>
  </g>
</svg>
