<?xml version="1.0" encoding="UTF-8" standalone="no"?>
<!-- Created with Inkscape (http://www.inkscape.org/) -->

<svg
   xmlns:dc="http://purl.org/dc/elements/1.1/"
   xmlns:cc="http://creativecommons.org/ns#"
   xmlns:rdf="http://www.w3.org/1999/02/22-rdf-syntax-ns#"
   xmlns:svg="http://www.w3.org/2000/svg"
   xmlns="http://www.w3.org/2000/svg"
   xmlns:sodipodi="http://sodipodi.sourceforge.net/DTD/sodipodi-0.dtd"
   xmlns:inkscape="http://www.inkscape.org/namespaces/inkscape"
   width="22"
   height="22"
   id="svg3869"
   version="1.1"
   inkscape:version="0.91 r13725"
   sodipodi:docname="application-x-javascript.svg">
  <defs
     id="defs3871" />
  <sodipodi:namedview
     id="base"
     pagecolor="#ffffff"
     bordercolor="#666666"
     borderopacity="1.0"
     inkscape:pageopacity="0.0"
     inkscape:pageshadow="2"
     inkscape:zoom="45.254832"
     inkscape:cx="10.654477"
     inkscape:cy="10.530535"
     inkscape:document-units="px"
     inkscape:current-layer="layer1-8"
     showgrid="true"
     fit-margin-top="0"
     fit-margin-left="0"
     fit-margin-right="0"
     fit-margin-bottom="0"
     inkscape:window-width="1920"
     inkscape:window-height="1021"
     inkscape:window-x="-4"
     inkscape:window-y="0"
     inkscape:window-maximized="1"
     inkscape:showpageshadow="false"
     inkscape:snap-bbox="true"
     inkscape:object-nodes="true"
     inkscape:snap-global="true">
    <inkscape:grid
       type="xygrid"
       id="grid4132" />
    <sodipodi:guide
       position="2,20.000017"
       orientation="18,0"
       id="guide4138" />
    <sodipodi:guide
       position="2,2.0000174"
       orientation="0,18"
       id="guide4140" />
    <sodipodi:guide
       position="20,2.0000174"
       orientation="-18,0"
       id="guide4142" />
    <sodipodi:guide
       position="13,20"
       orientation="0,-18"
       id="guide4144" />
    <sodipodi:guide
       position="3,19.000017"
       orientation="16,0"
       id="guide4146" />
    <sodipodi:guide
       position="3,3.0000174"
       orientation="0,16"
       id="guide4148" />
    <sodipodi:guide
       position="19,3.0000174"
       orientation="-16,0"
       id="guide4150" />
    <sodipodi:guide
       position="24.562501,19.000001"
       orientation="0,-16"
       id="guide4152" />
  </sodipodi:namedview>
  <metadata
     id="metadata3874">
    <rdf:RDF>
      <cc:Work
         rdf:about="">
        <dc:format>image/svg+xml</dc:format>
        <dc:type
           rdf:resource="http://purl.org/dc/dcmitype/StillImage" />
        <dc:title></dc:title>
      </cc:Work>
    </rdf:RDF>
  </metadata>
  <g
     inkscape:label="Capa 1"
     inkscape:groupmode="layer"
     id="layer1"
     transform="translate(-326,-534.3622)">
    <rect
       style="fill:#04896a;fill-opacity:1;stroke:none"
       id="rect4035"
       width="0"
       height="14.668059"
       x="273.38181"
       y="518.47876" />
    <rect
       style="fill:#16907d;fill-opacity:1;stroke:none"
       id="rect4035-8"
       width="0"
       height="14.668059"
       x="280.34238"
       y="541.04938" />
    <rect
       style="fill:#6c7a89;fill-opacity:1;stroke:none"
       id="rect4035-0"
       width="0"
       height="14.668059"
       x="282.15567"
       y="539.98865" />
    <g
       transform="translate(331.61181,-496.88303)"
       id="layer1-5"
       inkscape:label="Capa 1" />
    <g
       transform="translate(339.69934,-496.3748)"
       id="layer1-8"
       inkscape:label="Capa 1">
      <path
         inkscape:connector-curvature="0"
         style="font-style:normal;font-variant:normal;font-weight:normal;font-stretch:normal;font-size:medium;line-height:125%;font-family:oxygen;-inkscape-font-specification:oxygen;letter-spacing:0px;word-spacing:0px;fill:#f27935;fill-opacity:1;stroke:none"
         d="m -3.654418,1033.737 c -1.7768301,0 -2.5214845,0.7064 -2.5214845,2.5098 l 0,2.4414 c 0,1.1138 -0.034195,2.4043 -1.015625,2.4043 l -0.5078125,0 0,1.289 0.5078125,0 c 0.98148,0 1.015625,1.2905 1.015625,2.4043 l 0,2.4414 c 0,1.8034 0.7446544,2.5098 2.5214845,2.5098 l 0,-1.1836 c -1.1845501,0 -1.201172,-0.4783 -1.201172,-2.2109 l 0,-2.0157 c 0,-0.8309 -0.204705,-2.0673 -1.203125,-2.58 0.99842,-0.5127 1.203125,-1.7511 1.203125,-2.5821 l 0,-2.0332 c 0,-1.7326 0.016592,-2.2109 1.201172,-2.2109 l 0,-1.1836 z m 1.894531,0 0,1.1836 c 1.18456,0 1.216797,0.4783 1.216797,2.2109 l 0,2.0332 c 0,0.831 0.204705,2.0694 1.203125,2.5821 -0.99842,0.5127 -1.203125,1.7491 -1.203125,2.58 l 0,2.0157 c 0,1.7326 -0.03219,2.2109 -1.216797,2.2109 l 0,1.1836 c 1.77684,0 2.537109,-0.7064 2.537109,-2.5098 l 0,-2.4414 c 0,-1.1138 0.06864,-2.4043 1.033204,-2.4043 l 0.490234,0 0,-1.289 -0.490234,0 c -0.96457,0 -1.033204,-1.2905 -1.033204,-2.4043 l 0,-2.4414 c 0,-1.8034 -0.760269,-2.5098 -2.537109,-2.5098 z"
         id="path4121" />
      <path
         style="opacity:1;fill:#f27935;fill-opacity:1;stroke:none;stroke-opacity:1"
         d="M 11 8 A 1 1 0 0 0 10 9 A 1 1 0 0 0 11 10 A 1 1 0 0 0 12 9 A 1 1 0 0 0 11 8 z M 11 12 A 1 1 0 0 0 10 13 A 1 1 0 0 0 11 14 L 11 15 L 11.130859 15 C 11.368132 14.743 11.817146 13.990719 11.945312 13.324219 A 1 1 0 0 0 12 13.03125 A 1 1 0 0 0 12 13 A 1 1 0 0 0 11 12 z "
         transform="translate(-13.69934,1030.737)"
         id="path4211" />
    </g>
  </g>
</svg>
