<?xml version="1.0" encoding="UTF-8" standalone="no"?>
<!-- Created with Inkscape (http://www.inkscape.org/) -->

<svg
   xmlns:dc="http://purl.org/dc/elements/1.1/"
   xmlns:cc="http://creativecommons.org/ns#"
   xmlns:rdf="http://www.w3.org/1999/02/22-rdf-syntax-ns#"
   xmlns:svg="http://www.w3.org/2000/svg"
   xmlns="http://www.w3.org/2000/svg"
   xmlns:sodipodi="http://sodipodi.sourceforge.net/DTD/sodipodi-0.dtd"
   xmlns:inkscape="http://www.inkscape.org/namespaces/inkscape"
   width="22"
   height="22"
   id="svg3869"
   version="1.1"
   inkscape:version="0.91 r13725"
   sodipodi:docname="image-x-psd.svg">
  <defs
     id="defs3871" />
  <sodipodi:namedview
     id="base"
     pagecolor="#ffffff"
     bordercolor="#666666"
     borderopacity="1.0"
     inkscape:pageopacity="0.0"
     inkscape:pageshadow="2"
     inkscape:zoom="22.627416"
     inkscape:cx="12.869877"
     inkscape:cy="7.6160225"
     inkscape:document-units="px"
     inkscape:current-layer="layer1"
     showgrid="true"
     fit-margin-top="0"
     fit-margin-left="0"
     fit-margin-right="0"
     fit-margin-bottom="0"
     inkscape:window-width="1920"
     inkscape:window-height="957"
     inkscape:window-x="-4"
     inkscape:window-y="0"
     inkscape:window-maximized="1"
     inkscape:showpageshadow="false"
     inkscape:snap-bbox="true"
     inkscape:object-nodes="true"
     inkscape:snap-global="true">
    <inkscape:grid
       type="xygrid"
       id="grid4132" />
    <sodipodi:guide
       position="2,20.000017"
       orientation="18,0"
       id="guide4138" />
    <sodipodi:guide
       position="2,2.0000174"
       orientation="0,18"
       id="guide4140" />
    <sodipodi:guide
       position="20,2.0000174"
       orientation="-18,0"
       id="guide4142" />
    <sodipodi:guide
       position="13,20"
       orientation="0,-18"
       id="guide4144" />
    <sodipodi:guide
       position="3,19.000017"
       orientation="16,0"
       id="guide4146" />
    <sodipodi:guide
       position="3,3.0000174"
       orientation="0,16"
       id="guide4148" />
    <sodipodi:guide
       position="19,3.0000174"
       orientation="-16,0"
       id="guide4150" />
    <sodipodi:guide
       position="24.562501,19.000001"
       orientation="0,-16"
       id="guide4152" />
  </sodipodi:namedview>
  <metadata
     id="metadata3874">
    <rdf:RDF>
      <cc:Work
         rdf:about="">
        <dc:format>image/svg+xml</dc:format>
        <dc:type
           rdf:resource="http://purl.org/dc/dcmitype/StillImage" />
        <dc:title></dc:title>
      </cc:Work>
    </rdf:RDF>
  </metadata>
  <g
     inkscape:label="Capa 1"
     inkscape:groupmode="layer"
     id="layer1"
     transform="translate(-326,-534.3622)">
    <rect
       style="fill:#e00a5e;fill-opacity:1;stroke:none"
       id="rect4035"
       width="0"
       height="14.668059"
       x="256.22556"
       y="514.69751" />
    <rect
       style="fill:#e00a5e;fill-opacity:1;stroke:none"
       id="rect4035-8"
       width="0"
       height="14.668059"
       x="263.18613"
       y="537.26813" />
    <rect
       style="fill:#e00a5e;fill-opacity:1;stroke:none"
       id="rect4035-0"
       width="0"
       height="14.668059"
       x="264.99942"
       y="536.2074" />
    <rect
       style="fill:#e00a5e;fill-opacity:1;stroke:none"
       id="rect4035-3"
       width="0"
       height="14.668059"
       x="256.22556"
       y="514.69751" />
    <rect
       style="fill:#e00a5e;fill-opacity:1;stroke:none"
       id="rect4035-8-9"
       width="0"
       height="14.668059"
       x="263.18613"
       y="537.26813" />
    <rect
       style="fill:#e00a5e;fill-opacity:1;stroke:none"
       id="rect4035-0-4"
       width="0"
       height="14.668059"
       x="264.99942"
       y="536.2074" />
    <rect
       style="fill:#e00a5e;fill-opacity:1;stroke:none"
       id="rect4035-2"
       width="0"
       height="14.668059"
       x="256.22556"
       y="514.69751" />
    <rect
       style="fill:#e00a5e;fill-opacity:1;stroke:none"
       id="rect4035-8-99"
       width="0"
       height="14.668059"
       x="263.18613"
       y="537.26813" />
    <rect
       style="fill:#e00a5e;fill-opacity:1;stroke:none"
       id="rect4035-0-43"
       width="0"
       height="14.668059"
       x="264.99942"
       y="536.2074" />
    <rect
       style="fill:#e00a5e;fill-opacity:1;stroke:none"
       id="rect4035-3-9"
       width="0"
       height="14.668059"
       x="256.22556"
       y="514.69751" />
    <rect
       style="fill:#e00a5e;fill-opacity:1;stroke:none"
       id="rect4035-8-9-9"
       width="0"
       height="14.668059"
       x="263.18613"
       y="537.26813" />
    <rect
       style="fill:#e00a5e;fill-opacity:1;stroke:none"
       id="rect4035-0-4-4"
       width="0"
       height="14.668059"
       x="264.99942"
       y="536.2074" />
    <path
       style="fill:#3a539b;fill-opacity:1;stroke:none;stroke-width:6;stroke-miterlimit:4;stroke-dasharray:none"
       d="M 7 3 C 4.7908611 3.0000003 3.0000003 4.7908611 3 7 L 3 8 L 3.3144531 8.4941406 L 4.1113281 9.7480469 C 4.1119596 9.7487175 4.1126494 9.7493298 4.1132812 9.75 L 10 19 L 10 11 L 15 11 C 17.209139 11 19 9.2091389 19 7 C 19 4.7908611 17.209139 3.0000003 15 3 L 7 3 z M 15 4 A 3 3 0 0 1 15.576172 4.0585938 A 3 3 0 0 1 15.595703 4.0605469 C 15.613785 4.0641866 15.630474 4.0702555 15.648438 4.0742188 A 3 3 0 0 1 16.167969 4.2363281 A 3 3 0 0 1 16.646484 4.4941406 C 16.659939 4.5029989 16.674198 4.5104634 16.6875 4.5195312 A 3 3 0 0 1 16.693359 4.5234375 A 3 3 0 0 1 17.103516 4.8632812 C 17.111714 4.8713527 17.120801 4.8785542 17.128906 4.8867188 A 3 3 0 0 1 17.451172 5.2773438 C 17.468741 5.3022899 17.487086 5.3260646 17.503906 5.3515625 A 3 3 0 0 1 17.746094 5.8007812 C 17.753865 5.8185508 17.762096 5.8355684 17.769531 5.8535156 A 3 3 0 0 1 17.923828 6.3457031 C 17.929966 6.3732473 17.937984 6.3999104 17.943359 6.4277344 A 3 3 0 0 1 18 7 A 3 3 0 0 1 17.941406 7.5761719 A 3 3 0 0 1 17.939453 7.5957031 C 17.935813 7.6137845 17.929745 7.6304754 17.925781 7.6484375 A 3 3 0 0 1 17.763672 8.1679688 A 3 3 0 0 1 17.505859 8.6464844 C 17.497001 8.6599387 17.489537 8.6741979 17.480469 8.6875 A 3 3 0 0 1 17.476562 8.6933594 A 3 3 0 0 1 17.136719 9.1035156 C 17.128647 9.1117138 17.121446 9.120801 17.113281 9.1289062 A 3 3 0 0 1 16.722656 9.4511719 C 16.69771 9.4687411 16.673935 9.4870866 16.648438 9.5039062 A 3 3 0 0 1 16.199219 9.7460938 C 16.181449 9.7538646 16.164432 9.7620965 16.146484 9.7695312 A 3 3 0 0 1 15.654297 9.9238281 C 15.626753 9.9299663 15.60009 9.9379844 15.572266 9.9433594 A 3 3 0 0 1 15 10 A 3 3 0 0 1 12 7 A 3 3 0 0 1 15 4 z "
       transform="translate(326,534.3622)"
       id="path4831" />
  </g>
</svg>
