<?xml version="1.0" encoding="UTF-8" standalone="no"?>
<!-- Created with Inkscape (http://www.inkscape.org/) -->

<svg
   xmlns:dc="http://purl.org/dc/elements/1.1/"
   xmlns:cc="http://creativecommons.org/ns#"
   xmlns:rdf="http://www.w3.org/1999/02/22-rdf-syntax-ns#"
   xmlns:svg="http://www.w3.org/2000/svg"
   xmlns="http://www.w3.org/2000/svg"
   xmlns:sodipodi="http://sodipodi.sourceforge.net/DTD/sodipodi-0.dtd"
   xmlns:inkscape="http://www.inkscape.org/namespaces/inkscape"
   width="22"
   height="22"
   id="svg3869"
   version="1.1"
   inkscape:version="0.91 r13725"
   sodipodi:docname="text-x-csrc.svg">
  <defs
     id="defs3871" />
  <sodipodi:namedview
     id="base"
     pagecolor="#ffffff"
     bordercolor="#666666"
     borderopacity="1.0"
     inkscape:pageopacity="0.0"
     inkscape:pageshadow="2"
     inkscape:zoom="31.999999"
     inkscape:cx="1.9752366"
     inkscape:cy="9.8603513"
     inkscape:document-units="px"
     inkscape:current-layer="layer1"
     showgrid="true"
     fit-margin-top="0"
     fit-margin-left="0"
     fit-margin-right="0"
     fit-margin-bottom="0"
     inkscape:window-width="1920"
     inkscape:window-height="957"
     inkscape:window-x="-4"
     inkscape:window-y="0"
     inkscape:window-maximized="1"
     inkscape:showpageshadow="false"
     inkscape:snap-bbox="true"
     inkscape:object-nodes="true"
     inkscape:snap-global="true">
    <inkscape:grid
       type="xygrid"
       id="grid4132" />
    <sodipodi:guide
       position="2,20.000017"
       orientation="18,0"
       id="guide4138" />
    <sodipodi:guide
       position="2,2.0000174"
       orientation="0,18"
       id="guide4140" />
    <sodipodi:guide
       position="20,2.0000174"
       orientation="-18,0"
       id="guide4142" />
    <sodipodi:guide
       position="13,20"
       orientation="0,-18"
       id="guide4144" />
    <sodipodi:guide
       position="3,19.000017"
       orientation="16,0"
       id="guide4146" />
    <sodipodi:guide
       position="3,3.0000174"
       orientation="0,16"
       id="guide4148" />
    <sodipodi:guide
       position="19,3.0000174"
       orientation="-16,0"
       id="guide4150" />
    <sodipodi:guide
       position="24.562501,19.000001"
       orientation="0,-16"
       id="guide4152" />
  </sodipodi:namedview>
  <metadata
     id="metadata3874">
    <rdf:RDF>
      <cc:Work
         rdf:about="">
        <dc:format>image/svg+xml</dc:format>
        <dc:type
           rdf:resource="http://purl.org/dc/dcmitype/StillImage" />
        <dc:title></dc:title>
      </cc:Work>
    </rdf:RDF>
  </metadata>
  <g
     inkscape:label="Capa 1"
     inkscape:groupmode="layer"
     id="layer1"
     transform="translate(-326,-534.3622)">
    <rect
       style="fill:#16907d;fill-opacity:1;stroke:none"
       id="rect4035"
       width="0"
       height="14.668059"
       x="256.22556"
       y="514.69751" />
    <rect
       style="fill:#16907d;fill-opacity:1;stroke:none"
       id="rect4035-8"
       width="0"
       height="14.668059"
       x="263.18613"
       y="537.26813" />
    <rect
       style="fill:#16907d;fill-opacity:1;stroke:none"
       id="rect4035-0"
       width="0"
       height="14.668059"
       x="264.99942"
       y="536.2074" />
    <rect
       style="fill:#16907d;fill-opacity:1;stroke:none"
       id="rect4035-3"
       width="0"
       height="14.668059"
       x="256.22556"
       y="514.69751" />
    <rect
       style="fill:#16907d;fill-opacity:1;stroke:none"
       id="rect4035-8-9"
       width="0"
       height="14.668059"
       x="263.18613"
       y="537.26813" />
    <rect
       style="fill:#16907d;fill-opacity:1;stroke:none"
       id="rect4035-0-4"
       width="0"
       height="14.668059"
       x="264.99942"
       y="536.2074" />
    <rect
       style="fill:#16907d;fill-opacity:1;stroke:none"
       id="rect4035-2"
       width="0"
       height="14.668059"
       x="256.22556"
       y="514.69751" />
    <rect
       style="fill:#16907d;fill-opacity:1;stroke:none"
       id="rect4035-8-99"
       width="0"
       height="14.668059"
       x="263.18613"
       y="537.26813" />
    <rect
       style="fill:#16907d;fill-opacity:1;stroke:none"
       id="rect4035-0-43"
       width="0"
       height="14.668059"
       x="264.99942"
       y="536.2074" />
    <rect
       style="fill:#16907d;fill-opacity:1;stroke:none"
       id="rect4035-3-9"
       width="0"
       height="14.668059"
       x="256.22556"
       y="514.69751" />
    <rect
       style="fill:#16907d;fill-opacity:1;stroke:none"
       id="rect4035-8-9-9"
       width="0"
       height="14.668059"
       x="263.18613"
       y="537.26813" />
    <rect
       style="fill:#16907d;fill-opacity:1;stroke:none"
       id="rect4035-0-4-4"
       width="0"
       height="14.668059"
       x="264.99942"
       y="536.2074" />
    <path
       style="fill:#16907d;fill-opacity:1;stroke:none;stroke-width:2;stroke-miterlimit:4;stroke-dasharray:none"
       d="M 7 3 L 7 4 L 16 4 L 16 3 L 7 3 z M 16 4 L 16 5 L 17 5 L 17 4 L 16 4 z M 17 5 L 17 6 L 18 6 L 18 5 L 17 5 z M 18 6 L 18 7 L 19 7 L 19 6 L 18 6 z M 7 4 L 6 4 L 6 5 L 7 5 L 7 4 z M 6 5 L 5 5 L 5 6 L 6 6 L 6 5 z M 5 6 L 4 6 L 4 7 L 5 7 L 5 6 z M 4 7 L 3 7 L 3 15 L 4 15 L 4 7 z M 4 15 L 4 16 L 5 16 L 5 15 L 4 15 z M 5 16 L 5 17 L 6 17 L 6 16 L 5 16 z M 6 17 L 6 18 L 7 18 L 7 17 L 6 17 z M 7 18 L 7 19 L 16 19 L 16 18 L 7 18 z M 16 18 L 17 18 L 17 17 L 16 17 L 16 18 z M 17 17 L 18 17 L 18 16 L 17 16 L 17 17 z M 18 16 L 19 16 L 19 15 L 18 15 L 18 16 z "
       transform="translate(326,534.3622)"
       id="rect4503" />
  </g>
</svg>
