<?xml version="1.0" encoding="UTF-8" standalone="no"?>
<!-- Created with Inkscape (http://www.inkscape.org/) -->

<svg
   xmlns:dc="http://purl.org/dc/elements/1.1/"
   xmlns:cc="http://creativecommons.org/ns#"
   xmlns:rdf="http://www.w3.org/1999/02/22-rdf-syntax-ns#"
   xmlns:svg="http://www.w3.org/2000/svg"
   xmlns="http://www.w3.org/2000/svg"
   xmlns:xlink="http://www.w3.org/1999/xlink"
   xmlns:sodipodi="http://sodipodi.sourceforge.net/DTD/sodipodi-0.dtd"
   xmlns:inkscape="http://www.inkscape.org/namespaces/inkscape"
   width="32"
   height="32"
   id="svg5453"
   version="1.1"
   inkscape:version="0.91 r13725"
   sodipodi:docname="folder-html.svg">
  <defs
     id="defs5455">
    <linearGradient
       inkscape:collect="always"
       id="linearGradient4233">
      <stop
         style="stop-color:#345671;stop-opacity:1;"
         offset="0"
         id="stop4235" />
      <stop
         style="stop-color:#345671;stop-opacity:0;"
         offset="1"
         id="stop4237" />
    </linearGradient>
    <linearGradient
       id="linearGradient4232-7"
       inkscape:collect="always">
      <stop
         id="stop4234-8"
         offset="0"
         style="stop-color:#3d6584;stop-opacity:1" />
      <stop
         id="stop4236-3"
         offset="1"
         style="stop-color:#4a7ba3;stop-opacity:1" />
    </linearGradient>
    <linearGradient
       inkscape:collect="always"
       id="linearGradient4172-6">
      <stop
         style="stop-color:#6298d5;stop-opacity:1"
         offset="0"
         id="stop4174-2" />
      <stop
         style="stop-color:#8ab7e1;stop-opacity:1"
         offset="1"
         id="stop4176-1" />
    </linearGradient>
    <linearGradient
       inkscape:collect="always"
       xlink:href="#linearGradient4172-6"
       id="linearGradient4178-7"
       x1="414.57144"
       y1="541.79797"
       x2="414.57144"
       y2="499.798"
       gradientUnits="userSpaceOnUse"
       gradientTransform="matrix(0.43103448,0,0,0.42293923,-165.05664,-202.14763)" />
    <linearGradient
       inkscape:collect="always"
       xlink:href="#linearGradient4232-7"
       id="linearGradient4182-2"
       gradientUnits="userSpaceOnUse"
       x1="414.57144"
       y1="523.79797"
       x2="414.57144"
       y2="505.798"
       gradientTransform="matrix(0.42087412,0,0,0.42288419,223.46281,306.90942)" />
    <linearGradient
       inkscape:collect="always"
       xlink:href="#linearGradient4233"
       id="linearGradient4239"
       x1="384.57144"
       y1="477.798"
       x2="404.57144"
       y2="497.798"
       gradientUnits="userSpaceOnUse"
       gradientTransform="matrix(0.42087413,0,0,0.42307692,223.46281,313.57577)" />
  </defs>
  <sodipodi:namedview
     id="base"
     pagecolor="#ffffff"
     bordercolor="#666666"
     borderopacity="1.0"
     inkscape:pageopacity="0"
     inkscape:pageshadow="2"
     inkscape:zoom="31.375"
     inkscape:cx="18.012544"
     inkscape:cy="15.05515"
     inkscape:document-units="px"
     inkscape:current-layer="layer1"
     showgrid="true"
     fit-margin-top="0"
     fit-margin-left="0"
     fit-margin-right="0"
     fit-margin-bottom="0"
     inkscape:window-width="1920"
     inkscape:window-height="957"
     inkscape:window-x="-4"
     inkscape:window-y="0"
     inkscape:window-maximized="1"
     inkscape:showpageshadow="false"
     borderlayer="true"
     showguides="true"
     inkscape:guide-bbox="true"
     inkscape:object-nodes="true"
     inkscape:snap-bbox="true">
    <inkscape:grid
       type="xygrid"
       id="grid4063" />
    <sodipodi:guide
       position="2.0000117,30.000026"
       orientation="28,0"
       id="guide4167" />
    <sodipodi:guide
       position="17,5"
       orientation="0,28"
       id="guide4169" />
    <sodipodi:guide
       position="30.000012,2.0000264"
       orientation="-28,0"
       id="guide4171" />
    <sodipodi:guide
       position="30.000012,30.000026"
       orientation="0,-28"
       id="guide4173" />
    <sodipodi:guide
       position="2.0000117,30.000026"
       orientation="28,0"
       id="guide4181" />
    <sodipodi:guide
       position="16.000012,30.000026"
       orientation="0,-14"
       id="guide4187" />
    <sodipodi:guide
       position="5.0000117,30.000026"
       orientation="28,0"
       id="guide4143" />
    <sodipodi:guide
       position="5.0000117,2.0000264"
       orientation="0,22"
       id="guide4145" />
    <sodipodi:guide
       position="27.000012,2.0000264"
       orientation="-28,0"
       id="guide4147" />
    <sodipodi:guide
       position="27.000012,30.000026"
       orientation="0,-22"
       id="guide4149" />
    <sodipodi:guide
       position="27,30"
       orientation="0,-7"
       id="guide4155" />
    <sodipodi:guide
       position="27.00001,23"
       orientation="-7,-1e-05"
       id="guide4162" />
    <sodipodi:guide
       position="24,27"
       orientation="0,1"
       id="guide3378" />
  </sodipodi:namedview>
  <metadata
     id="metadata5458">
    <rdf:RDF>
      <cc:Work
         rdf:about="">
        <dc:format>image/svg+xml</dc:format>
        <dc:type
           rdf:resource="http://purl.org/dc/dcmitype/StillImage" />
        <dc:title></dc:title>
      </cc:Work>
    </rdf:RDF>
  </metadata>
  <g
     inkscape:label="Capa 1"
     inkscape:groupmode="layer"
     id="layer1"
     transform="translate(-384.57143,-515.798)">
    <path
       inkscape:connector-curvature="0"
       style="fill:url(#linearGradient4182-2);fill-opacity:1;stroke:none"
       d="m 387.57143,520.798 0,2 0.005,9.04061 c 1.2e-4,0.23427 -0.2107,0.80555 0.0225,0.80555 l 22.5519,0 c 0.23316,0 0.42127,-0.18881 0.42088,-0.42308 l -0.0159,-9.47886 0.0159,0.0558 0,0 0,0 -12,-2e-5 -1.0471,-1.99983 -9.9529,-1.7e-4 z"
       id="rect4180-7"
       sodipodi:nodetypes="ccsssscccccccc" />
    <path
       style="fill:url(#linearGradient4239);fill-opacity:1;fill-rule:evenodd;stroke:none;stroke-width:1px;stroke-linecap:butt;stroke-linejoin:miter;stroke-opacity:1"
       d="m 387.57143,520.798 11,11 -0.20535,0.42308 12.20535,-7.08365 0,-2.33943 -12,0 -1,-2 z"
       id="path4230"
       inkscape:connector-curvature="0"
       sodipodi:nodetypes="cccccccc" />
    <path
       style="fill:url(#linearGradient4178-7);fill-opacity:1;stroke:none"
       d="M 10,9 9,11 3,11 2.0000117,11 2,11 l 1.17e-5,0 c 1.17e-5,-1 -0.00417,-0.0088 0,0 L 2,26.576172 2,27 2.4316406,27 26.568359,27 27,27 l 0,-0.423828 0,-15.22461 0,-0.0059 L 27,9 Z"
       transform="translate(384.57143,515.798)"
       id="rect4113-8"
       inkscape:connector-curvature="0"
       sodipodi:nodetypes="ccccccccccccccccc" />
    <path
       inkscape:connector-curvature="0"
       style="fill:#2f6db0;fill-opacity:1;stroke:none"
       d="m 386.57144,541.798 0,1 0.43104,0 24.13793,0 0.43103,0 0,-1 -0.43103,0 -24.13793,0 -0.43104,0 z"
       id="path4151" />
    <path
       style="fill:#8fb1cc;fill-opacity:1;fill-rule:evenodd;stroke:none;stroke-width:1px;stroke-linecap:butt;stroke-linejoin:miter;stroke-opacity:1"
       d="m 410.57143,522.798 0,1 -12,0 -1,-3 2,2 z"
       id="path4222"
       inkscape:connector-curvature="0"
       sodipodi:nodetypes="cccccc" />
    <path
       style="fill:#ffffff;fill-opacity:0.23529412;fill-rule:evenodd;stroke:none;stroke-width:1px;stroke-linecap:butt;stroke-linejoin:miter;stroke-opacity:1"
       d="m 386.57144,526.798 0,1 6.99999,0 1,-3 -1,2 z"
       id="path4224"
       inkscape:connector-curvature="0"
       sodipodi:nodetypes="cccccc" />
    <path
       style="fill:#345671;fill-opacity:1;fill-rule:evenodd;stroke:none;stroke-width:1px;stroke-linecap:butt;stroke-linejoin:miter;stroke-opacity:1"
       d="m 387.57143,525.798 0,1 6,0 1,-2 -2,1 z"
       id="path4228"
       inkscape:connector-curvature="0"
       sodipodi:nodetypes="cccccc" />
    <g
       transform="matrix(0.69471484,0,0,0.34284934,-8.64442,567.7009)"
       style="opacity:0.4;fill:#387ecc;fill-opacity:1"
       id="g3712" />
    <g
       id="g4038"
       transform="matrix(0.599999,0,0,0.599999,-984.16989,615.696)"
       style="fill:#387ecc;fill-opacity:1" />
    <path
       inkscape:connector-curvature="0"
       style="color:#000000;fill:#387ecc;fill-opacity:1;fill-rule:nonzero"
       d="m 403.82143,528.298 c -3.31371,0 -6,2.68629 -6,6 0,3.31371 2.68629,6 6,6 3.31371,0 6,-2.68629 6,-6 0,-3.31371 -2.68629,-6 -6,-6 z m 0,1 c 0.17259,0 0.33191,0.0142 0.5,0.0312 0.0403,0.004 0.085,-0.005 0.125,0 0.0526,0.007 0.10415,0.023 0.15625,0.0312 0.14365,0.0226 0.26703,0.0592 0.40625,0.0937 0.2566,0.0633 0.51072,0.14879 0.75,0.25 0.13193,0.0558 0.24915,0.12099 0.375,0.1875 -7e-5,0.009 8e-4,0.0203 0,0.0312 0.029,0.013 0.0448,0.0667 0.0937,0.0937 0.018,0.01 0.0143,0.0222 0.0312,0.0312 0.029,0.016 0.0685,0.0335 0.0625,0.0625 -0.008,0.04 -0.0658,0.0315 -0.0937,0.0625 0.004,0.058 -0.0475,0.0548 -0.0625,0.0937 0.009,0.025 0.0585,0.0325 0.0625,0.0625 -0.005,0.032 -0.0745,0.0295 -0.0625,0.0625 0.054,0.042 0.10525,0.01 0.15625,0 0.11199,-0.014 0.21225,-0.005 0.28125,-0.0625 -0.009,-0.053 0.0997,-0.0457 0.0937,-0.0937 0.0287,0.0209 0.0653,0.0413 0.0937,0.0625 -0.0108,0.0101 -0.0192,0.0258 -0.0312,0.0312 -0.021,0.01 -0.0435,0.0192 -0.0625,0.0312 -0.028,0.018 -0.0617,0.0415 -0.0937,0.0625 -0.023,0.016 -0.0697,0.0937 -0.0937,0.0937 -0.029,0 -0.0728,-0.0372 -0.0937,-0.0312 -0.03,0.01 -0.0286,0.0505 -0.0625,0.0625 -0.066,0.024 -0.19576,-0.0365 -0.21875,0.0625 0.028,0.057 0.1375,0.0305 0.1875,0.0625 0.031,0.02 0.0857,0.091 0.0937,0.125 0.008,0.028 0.012,0.1575 0,0.1875 -0.031,0.08 -0.12676,0.0635 -0.21875,0.0625 l -0.0625,0 c -0.15498,-0.01 -0.305,-0.0797 -0.375,0.0312 0.005,0.085 0.019,0.14475 0,0.21875 -0.014,0.054 -0.0968,0.10965 -0.0937,0.15625 0.001,0.024 0.0565,0.0598 0.0625,0.0937 0.004,0.018 -0.008,0.0455 0,0.0625 0.026,0.049 0.079,-0.01 0.125,0 0.044,0.01 0.0937,0.0758 0.0937,0.125 0,0.035 -0.009,0.0911 -0.0312,0.125 -0.044,0.066 -0.1245,0.0577 -0.1875,0.0937 -0.052,0.03 -0.0627,0.10465 -0.0937,0.15625 -0.033,0.056 -0.0755,0.0761 -0.0625,0.15625 -0.045,0.089 -0.0945,0.1445 -0.1875,0.1875 -0.027,0.012 -0.0688,0.0132 -0.0937,0.0312 -0.02,0.014 -0.0345,0.0617 -0.0625,0.0937 -0.035,0.039 -0.0747,0.0638 -0.0937,0.0937 -0.014,0.023 -0.0163,0.0617 -0.0312,0.0937 -0.022,0.042 -0.0658,0.0516 -0.0937,0.0937 -0.013,0.02 -0.0173,0.0678 -0.0312,0.0937 -0.032,0.058 -0.0685,0.10525 -0.0625,0.15625 0.005,0.048 0.0595,0.0498 0.0625,0.0937 0.003,0.024 -0.0322,0.0355 -0.0312,0.0625 0.001,0.038 0.0283,0.0638 0.0312,0.0937 0.007,0.074 -0.0485,0.10565 -0.0625,0.15625 -0.007,0.024 0.006,0.0425 0,0.0625 -0.012,0.037 -0.0615,0.0808 -0.0625,0.125 -0.001,0.031 0.0595,0.0498 0.0625,0.0937 0.002,0.029 -0.0372,0.0657 -0.0312,0.0937 0.011,0.054 0.11426,0.11425 0.15625,0.15625 0.057,0.057 0.13126,0.0963 0.15625,0.15625 0.021,0.051 0.0235,0.1494 0.0625,0.1875 0.029,0.028 0.088,0.0325 0.125,0.0625 0.035,0.027 0.0567,0.0325 0.0937,0.0625 0.061,0.048 0.153,0.16325 0.25,0.15625 0.051,-0.01 0.0992,-0.0525 0.15625,-0.0625 0.059,-0.01 0.12751,-0.0362 0.1875,-0.0312 0.046,0.01 0.10825,0.0343 0.15625,0.0312 0.05,-0.01 0.0993,-0.006 0.15625,-0.0312 0.099,-0.043 0.26227,-0.11445 0.40625,-0.0937 0.10999,0.016 0.1105,0.1385 0.1875,0.1875 0.088,0.01 0.14876,-0.017 0.21875,0 0.053,0.013 0.12,0.0834 0.125,0.125 0.005,0.043 -0.0565,0.0978 -0.0625,0.125 -0.014,0.058 0.01,0.11925 0,0.15625 -0.008,0.029 -0.0322,0.0648 -0.0312,0.0937 0,0.026 0.0355,0.0908 0.0625,0.125 0.033,0.042 0.085,0.0798 0.125,0.125 0.073,0.084 0.10525,0.17025 0.15625,0.28125 0.013,0.028 -0.012,0.0577 0,0.0937 -0.022,0.1679 -0.0775,0.28285 -0.1875,0.46875 -0.052,0.06 -0.126,0.1126 -0.125,0.1875 -0.004,0.18 0.10175,0.29475 0.0937,0.46875 -0.018,0.2339 0.018,0.2501 0,0.375 0.079,0.04 0.023,0.1669 0,0.25 -0.034,0.099 -0.0747,0.1215 -0.0937,0.1875 0.0531,0.0231 0.12852,0.0136 0.1875,0 -0.0298,0.0314 -0.0632,0.0632 -0.0937,0.0937 -0.22621,0.22621 -0.484,0.44529 -0.75,0.625 -0.51604,0.34863 -1.09001,0.61345 -1.71875,0.75 -0.34354,0.0746 -0.69661,0.0937 -1.0625,0.0937 -0.19033,0 -0.37813,-0.01 -0.5625,-0.0312 -0.14686,-0.0168 -0.29479,-0.0333 -0.4375,-0.0625 -0.28317,-0.058 -0.54897,-0.17763 -0.8125,-0.28125 -0.009,-0.0172 -0.0334,-0.0424 -0.0312,-0.0625 0.052,-0.022 0.14951,0.074 0.1875,0 0.019,-0.035 -0.025,-0.12125 0,-0.15625 0.018,-0.024 0.11926,-0.0243 0.15625,-0.0312 0.053,-0.01 0.12625,-0.0172 0.15625,-0.0312 0.033,-0.021 0.0685,-0.0947 0.0625,-0.15625 -0.003,-0.029 -0.0396,-0.0365 -0.0625,-0.0625 -0.019,-0.022 0.013,-0.0415 0,-0.0625 -0.024,-0.035 -0.0838,-0.0427 -0.0937,-0.0937 0.072,-0.014 0.17726,0.0602 0.28125,0.0312 0.049,-0.014 0.13325,-0.11015 0.15625,-0.15625 0.007,-0.014 -0.008,-0.0445 0,-0.0625 0.009,-0.018 0.0282,-0.0525 0.0312,-0.0625 0.007,-0.027 -0.006,-0.0132 0,-0.0312 0.018,-0.051 0.0637,-0.0887 0.0937,-0.125 0.023,-0.028 0.0727,-0.0648 0.0937,-0.0937 0.024,-0.031 0.0153,-0.0345 0.0312,-0.0625 0.015,-0.091 -0.0533,-0.1701 -0.0312,-0.25 0.024,-0.09 0.16301,-0.1465 0.25,-0.1875 0.03,-0.014 0.0687,-0.0222 0.0937,-0.0312 0.06,-0.021 0.1315,-0.0425 0.1875,-0.0625 0.094,-0.034 0.11025,-0.1016 0.15625,-0.1875 0.022,-0.04 0.0585,-0.0957 0.0625,-0.125 0.004,-0.026 -0.005,-0.0315 0,-0.0625 0.005,-0.029 -0.008,-0.0598 0,-0.0937 0.011,-0.043 0.0312,-0.1396 0.0312,-0.1875 0,-0.04 -0.0303,-0.0578 -0.0312,-0.0937 -0.007,-0.13 0.0458,-0.1165 0.0937,-0.1875 0.024,-0.035 0.0456,-0.0999 0.0625,-0.125 0.081,-0.12 0.22875,-0.16175 0.21875,-0.34375 -0.004,-0.06 -0.0498,-0.19975 -0.0937,-0.21875 -0.025,-0.011 -0.0568,-0.0182 -0.0937,-0.0312 -0.11799,-0.044 -0.22076,-0.1775 -0.34375,-0.1875 l -0.0625,0 c -0.048,0 -0.10226,-0.0243 -0.15625,-0.0312 -0.034,-0.01 -0.105,0.01 -0.125,0 -0.031,-0.015 -0.0375,-0.0767 -0.0625,-0.0937 -0.02,-0.014 -0.0628,-0.0203 -0.0937,-0.0312 -0.049,-0.018 -0.068,-0.0585 -0.125,-0.0625 -0.018,0 -0.0425,0.01 -0.0625,0 -0.031,-0.01 -0.0648,-0.0132 -0.0937,-0.0312 -0.036,-0.022 -0.0788,-0.0315 -0.0937,-0.0625 0.033,-0.1079 -0.0718,-0.1245 -0.0937,-0.1875 -0.01,-0.029 0.01,-0.099 0,-0.125 -0.013,-0.037 -0.0528,-0.0628 -0.0937,-0.0937 -0.072,-0.056 -0.11576,-0.0809 -0.21875,-0.0937 -0.046,-0.01 -0.10126,0.01 -0.15625,0 -0.058,-0.01 -0.14351,-0.0438 -0.1875,-0.0937 -0.042,-0.049 -0.0568,-0.1019 -0.0937,-0.125 -0.035,-0.022 -0.0697,-0.0395 -0.0937,-0.0625 -0.011,-0.01 -0.0212,-0.008 -0.0312,-0.0312 -0.018,-0.037 -0.0533,-0.0488 -0.0312,-0.0937 -0.04,-0.02 -0.0195,0.0382 -0.0625,0.0312 -0.039,-0.055 -0.0683,-0.10975 -0.15625,-0.0937 -0.04,0.01 -0.078,0.0928 -0.125,0.0937 -0.039,0 -0.074,-0.0857 -0.125,-0.0937 -0.039,-0.01 -0.098,0.0362 -0.125,0.0312 -0.043,-0.01 -0.0548,-0.0365 -0.0937,-0.0625 -0.029,-0.019 -0.0778,-0.0635 -0.0937,-0.0625 -0.05,0 -0.0873,0.0989 -0.15625,0.0625 -0.034,-0.043 0.0713,-0.0538 0.0312,-0.0937 -0.03,-0.029 -0.0385,0.0172 -0.0625,0.0312 -0.028,0.018 -0.0628,0.0203 -0.0937,0.0312 -0.069,0.026 -0.13351,0.0335 -0.1875,0.0625 -0.05,0.026 -0.0648,0.0425 -0.0937,0.0937 -0.023,0.042 -0.0588,0.123 -0.0937,0.125 -0.042,0 -0.0558,-0.0455 -0.0937,-0.0625 -0.11499,-0.05 -0.18626,0.0293 -0.28125,0.0312 -0.088,0 -0.22275,-0.13575 -0.21875,-0.21875 0.003,-0.051 0.0253,-0.1245 0.0312,-0.1875 0.005,-0.05 0.0616,-0.11065 0.0625,-0.15625 0.001,-0.062 -0.11625,-0.0866 -0.15625,-0.0937 -0.094,-0.017 -0.20551,0.042 -0.3125,0 -0.02,-0.034 0.0193,-0.0598 0.0312,-0.0937 0.007,-0.018 -0.007,-0.0415 0,-0.0625 0.012,-0.032 0.0788,-0.0598 0.0937,-0.0937 0.011,-0.026 -0.011,-0.0607 0,-0.0937 0.013,-0.036 0.0595,-0.0678 0.0625,-0.0937 0.004,-0.034 -0.0356,-0.0717 -0.0625,-0.0937 -0.083,0.01 -0.1395,0.007 -0.1875,0.0312 -0.10799,0.049 -0.0785,0.18475 -0.1875,0.21875 -0.037,0.012 -0.083,0.0243 -0.125,0.0312 -0.0183,0.01 -0.042,-0.002 -0.0625,0 0.002,-0.0101 -0.002,-0.0212 0,-0.0312 0.005,-0.0228 0.0263,-0.0398 0.0312,-0.0625 0.0713,-0.325 0.18139,-0.63957 0.3125,-0.9375 l 0.0312,0 c 0.038,0.01 0.0607,0.0595 0.0937,0.0625 0.092,0.01 0.1115,-0.0848 0.1875,-0.125 0.078,0.011 0.11651,-0.01 0.1875,0 0.048,0.01 0.11826,0.0585 0.15625,0.0625 0.032,0 0.0325,-0.0353 0.0625,-0.0312 0.03,0.01 0.0888,0.0577 0.0937,0.0937 0.005,0.045 -0.0443,0.10665 -0.0312,0.15625 0.047,0.048 0.15175,0.0657 0.21875,0.0937 0.044,-0.037 0.007,-0.10425 0,-0.15625 -0.001,-0.023 0.003,-0.0728 0,-0.0937 -0.005,-0.036 -0.0312,-0.0628 -0.0312,-0.0937 0,-0.143 0.12276,-0.1941 0.21875,-0.25 0.041,-0.024 0.089,-0.0757 0.125,-0.0937 0.051,-0.025 0.083,-0.007 0.125,-0.0312 0.076,-0.043 0.1285,-0.10755 0.1875,-0.15625 0.027,-0.065 -0.003,-0.15475 0,-0.21875 0.027,-0.017 0.0648,0 0.0937,0 0.046,-0.01 0.0677,-0.0678 0.0937,-0.0937 0.015,-0.015 0.0445,-0.0163 0.0625,-0.0312 0.046,-0.036 0.0537,-0.0778 0.0937,-0.0937 0.014,-0.01 0.0405,-0.0243 0.0625,-0.0312 0.03,-0.01 0.077,-0.0132 0.125,-0.0312 0.031,-0.011 0.113,-0.0182 0.125,-0.0312 0.015,-0.015 -0.004,-0.0707 0,-0.0937 0.024,-0.1129 0.18026,-0.11815 0.28125,-0.15625 0.07,-0.026 0.14075,-0.10775 0.21875,-0.0937 -0.015,0.054 -0.0755,0.0599 -0.0625,0.125 0.017,0.091 0.12425,-0.0182 0.15625,-0.0312 0.061,-0.026 0.17,-0.0638 0.25,-0.0937 0.07,-0.025 0.19099,-0.0444 0.125,-0.125 -0.055,-0.01 -0.077,0.0425 -0.125,0.0625 -0.033,0.01 -0.0345,-0.0282 -0.0625,-0.0312 -0.027,0 -0.0355,0.0362 -0.0625,0.0312 -0.027,-0.01 -0.0585,-0.0607 -0.0625,-0.0937 -0.011,-0.084 0.0598,-0.0943 0.0937,-0.15625 -0.023,-0.076 -0.12351,-0.0325 -0.1875,-0.0625 0.007,-0.045 0.0408,-0.0838 0.0937,-0.0937 0.043,-0.01 0.1615,0.008 0.1875,0.0312 0.015,0.013 -0.0229,0.0415 0,0.0625 0.026,0.023 0.0597,0.01 0.0937,0 0.012,-0.057 -0.0725,-0.0255 -0.0625,-0.0625 0.068,-0.044 0.19826,-0.0203 0.28125,-0.0312 0.048,-0.01 0.11325,-0.0395 0.15625,-0.0625 0.04,-0.023 0.0517,-0.0693 0.0937,-0.0312 0.012,0.041 -0.008,0.0717 -0.0312,0.0937 -0.077,0.068 -0.15876,0.13985 -0.21875,0.21875 0.037,0.036 0.0942,0.0243 0.15625,0.0312 0.024,0.01 0.0687,-0.005 0.0937,0 0.03,0.01 0.0697,-0.01 0.0937,0 0.042,0.01 0.0518,0.0937 0.0937,0.0937 0.068,0 0.039,-0.0798 0,-0.125 0.012,-0.047 0.0483,-0.0918 0.0312,-0.125 -0.031,-0.062 -0.15025,0.0185 -0.15625,-0.0625 -0.004,-0.05 0.0445,-0.0557 0.0625,-0.0937 -0.008,-0.096 0.0725,-0.1005 0.0625,-0.1875 -0.005,-0.036 -0.0375,-0.0285 -0.0625,-0.0625 -0.013,-0.018 -0.0163,-0.0797 -0.0312,-0.0937 -0.052,-0.044 -0.15025,-0.01 -0.15625,-0.0937 -0.003,-0.05 0.007,-0.10265 0,-0.15625 -0.007,-0.051 -0.0498,-0.20875 -0.0937,-0.21875 -0.056,-0.012 -0.0892,0.0937 -0.15625,0.125 -0.036,0.017 -0.11926,0.0372 -0.15625,0.0312 -0.024,-0.01 -0.0595,-0.0155 -0.0625,-0.0625 -0.004,-0.0424 0.0469,-0.0613 0.0625,-0.0937 0.004,-0.008 -0.002,-0.02 0,-0.0312 0.0726,-0.0203 0.14497,-0.0452 0.21875,-0.0625 0.0419,-0.01 0.0827,-0.0226 0.125,-0.0312 0.0299,-0.006 0.0637,0.006 0.0937,0 0.13355,-0.0248 0.2692,-0.0486 0.40625,-0.0625 0.16624,-0.0175 0.3289,-0.0312 0.5,-0.0312 z m -2.03125,0.46875 c -0.0318,0.18257 -0.20275,0.25527 -0.40625,0.25 -0.046,0.044 -0.006,0.1265 -0.0312,0.1875 -0.021,0.051 -0.10526,0.0978 -0.15625,0.0937 -0.037,0 -0.0937,-0.0588 -0.0937,-0.0937 0,-0.043 0.0683,-0.0445 0.0312,-0.0937 0.002,-0.01 0.0208,-0.0213 0.0312,-0.0312 0.0202,-0.0127 0.0421,-0.0188 0.0625,-0.0312 0.1812,-0.11152 0.36696,-0.19317 0.5625,-0.28125 z m 4.1875,0.1875 c -0.0184,0.01 -0.015,0.0213 -0.0312,0.0312 -0.038,0.023 -0.0647,0.0515 -0.0937,0.0625 -0.041,0.015 -0.0878,0.0255 -0.0937,0.0625 -0.005,0.031 0.0323,0.0335 0.0312,0.0625 -0.015,0.037 -0.0232,0.0488 -0.0312,0.0937 0.051,0.083 0.15576,-0.0182 0.21875,-0.0312 0.028,-0.01 0.0475,-0.007 0.0625,-0.0312 0.017,-0.027 0.0183,-0.0556 0.0312,-0.0937 0.014,-0.042 0.0675,-0.0567 0.0625,-0.0937 -0.004,-0.037 -0.0943,-0.0675 -0.15625,-0.0625 z m -5.46875,0.625 c 0.0474,0.0381 0.11406,0.1206 0.0312,0.15625 -0.01,0.01 -0.13225,0.0353 -0.15625,0.0312 -0.01,0 -0.0228,-0.024 -0.0312,-0.0312 0.0517,-0.0503 0.10246,-0.1082 0.15625,-0.15625 z m 0.1875,0.1875 c 0.024,0 0.0345,0.0605 0.0625,0.0625 0.027,0 0.0465,-0.0353 0.0625,-0.0312 0.042,0.011 0.0713,0.0938 0.0312,0.125 -0.033,0.01 -0.0385,-0.0353 -0.0625,-0.0312 -0.068,0.012 -0.10525,0.16025 -0.15625,0.15625 -0.048,-0.01 -0.0803,-0.12125 -0.0312,-0.15625 0.001,-0.03 -0.002,-0.0315 0,-0.0625 0.015,-0.018 0.0537,-0.0655 0.0937,-0.0625 z m -0.25,0.0312 c 0.014,0 0.0263,-0.01 0.0312,0 -0.007,0.053 -0.0215,0.0688 -0.0625,0.0937 -0.071,0.043 -0.13325,0.096 -0.15625,0.1875 -0.007,0.027 -0.091,0.10045 -0.125,0.0937 -0.079,-0.017 0.0445,-0.1646 0.0625,-0.1875 0.02,-0.025 0.0395,-0.0335 0.0625,-0.0625 0.023,-0.028 0.0405,-0.0778 0.0625,-0.0937 0.024,-0.017 0.083,-0.0332 0.125,-0.0312 z m 6.78125,0.15625 c 0.079,-0.01 0.12025,0.0774 0.15625,0.125 0.03,0.039 0.10725,0.0978 0.15625,0.125 0.028,0.015 0.0627,0.0485 0.0937,0.0625 0.065,0.029 0.1845,0.1235 0.1875,0.1875 0.001,0.032 -0.0363,0.0638 -0.0312,0.0937 0.049,0.01 0.0927,-0.0758 0.0937,-0.125 0.0919,0.13001 0.1706,0.26766 0.25,0.40625 0.0375,0.0655 0.0904,0.12005 0.125,0.1875 -0.0441,0.013 -0.0554,0.0195 -0.0625,0.0625 -0.01,0.056 0.0215,0.14635 -0.0625,0.15625 -0.053,0.01 -0.11451,-0.0455 -0.1875,-0.0625 -0.03,-0.01 -0.0697,0.01 -0.0937,0 -0.055,-0.018 -0.0468,-0.0917 -0.0937,-0.125 -0.027,-0.019 -0.11325,-0.0575 -0.15625,-0.0625 -0.027,0 -0.0345,0.01 -0.0625,0 -0.034,-0.01 -0.097,0.014 -0.125,0 -0.027,-0.017 -0.0867,-0.0707 -0.0937,-0.0937 -0.011,-0.037 0.0917,-0.0625 0.0937,-0.0937 0.002,-0.024 -0.0263,-0.0567 -0.0312,-0.0937 -0.004,-0.022 0.005,-0.0475 0,-0.0625 -0.007,-0.026 -0.0528,-0.0303 -0.0937,-0.0312 -0.036,0 -0.0628,0 -0.0937,0 -0.044,0 -0.13251,-0.004 -0.1875,0 -0.033,0 -0.0627,-0.003 -0.0937,0 -0.087,0.01 -0.15075,-0.01 -0.21875,0 -0.049,0 -0.1415,0.0415 -0.1875,0.0625 -0.023,0.011 -0.0325,0.0163 -0.0625,0.0312 -0.014,0.01 -0.0445,0.0232 -0.0625,0.0312 -0.028,0.013 -0.0668,0.0545 -0.0937,0.0625 -0.039,0.01 -0.0853,-0.01 -0.15625,0 -0.051,0 -0.124,-0.0327 -0.125,-0.0937 -0.001,-0.093 0.16201,-0.0455 0.25,-0.0625 0.033,-0.01 0.0537,-0.0385 0.0937,-0.0625 0.019,-0.011 0.0133,-0.0193 0.0312,-0.0312 0.03,-0.021 0.0888,-0.0697 0.0937,-0.0937 0.004,-0.022 -0.003,-0.0455 0,-0.0625 0.004,-0.021 0.0355,-0.0345 0.0625,-0.0625 0.042,-0.042 0.073,-0.0978 0.125,-0.125 0.035,-0.018 0.0777,-0.0335 0.0937,-0.0625 0.004,-0.032 -0.001,-0.0325 0,-0.0625 0.022,-0.02 0.0445,-0.0272 0.0625,-0.0312 0.054,-0.012 0.0933,0.003 0.15625,0 0.027,0 0.0648,0.013 0.0937,0 0.024,-0.016 0.0385,-0.0505 0.0625,-0.0625 0.026,-0.014 0.0617,-0.0293 0.0937,-0.0312 z m 0.5625,0.59375 -0.125,0 c -0.044,0 -0.099,-0.023 -0.125,0 0.037,0.06 0.10451,0.0788 0.1875,0.0937 0.03,-0.022 0.0485,-0.0554 0.0625,-0.0937 z m -6.84375,-0.5625 0.0937,0 c 0.025,0 0.0525,-0.01 0.0625,0 -0.016,0.066 -0.16675,0.0553 -0.21875,0.0312 0.003,-0.025 0.0305,-0.0272 0.0625,-0.0312 z m -0.21875,0.125 c -0.0437,0.0318 -0.0869,0.0721 -0.15625,0.0937 -0.038,0.012 -0.0867,0.0108 -0.0937,-0.0312 -0.008,-0.052 0.0597,-0.0263 0.0937,-0.0312 0.044,-0.01 0.10525,-0.0293 0.15625,-0.0312 z m 6.5,0 c -0.033,0.011 -0.049,0.0838 0,0.0937 0.023,-0.014 0.0373,-0.0507 0.0312,-0.0937 -0.013,-0.014 -0.0213,-0.01 -0.0312,0 z m -0.0625,0.15625 c 0.001,0.056 0.011,0.10765 0,0.15625 0.032,0.062 0.10901,0.0108 0.125,-0.0312 0.019,-0.104 -0.0145,-0.138 -0.0625,-0.125 -0.016,0.01 -0.0456,-0.013 -0.0625,0 z m -8.28125,2.34375 c 0.0564,0.051 0.0888,0.12285 0.15625,0.15625 0.025,0.013 0.0617,0.0232 0.0937,0.0312 0.026,0.01 0.0375,-0.008 0.0625,0 0.053,0.018 0.11426,0.0435 0.15625,0.0625 0.064,0.028 0.1325,0.12425 0.1875,0.15625 0.003,0.032 -0.01,0.0697 0,0.0937 0.026,0.035 0.0517,0.0697 0.0937,0.0937 0.051,0.028 0.077,0.0716 0.125,0.0937 0.017,0.01 0.0365,-0.01 0.0625,0 0.066,0.02 0.0992,0.11055 0.15625,0.0937 0.037,-0.011 0.0253,-0.0578 0.0312,-0.0937 0.025,-0.027 0.0547,-0.0625 0.0937,-0.0625 0.062,0 0.0707,0.0956 0.0937,0.15625 0.013,0.034 0.0535,0.0577 0.0625,0.0937 0.015,0.062 0.013,0.24425 0,0.28125 -0.016,0.046 -0.087,0.0435 -0.125,0.0937 -0.018,0.024 -0.0173,0.0767 -0.0312,0.0937 -0.024,0.029 -0.0445,0.0345 -0.0625,0.0625 -0.01,0.015 -0.0223,0.0415 -0.0312,0.0625 -0.03,0.064 -0.0875,0.1105 -0.0625,0.1875 0.01,0.031 0.0625,0.0567 0.0625,0.0937 0,0.044 -0.0867,0.0768 -0.0937,0.125 -0.005,0.035 0.0203,0.0783 0.0312,0.125 0.008,0.035 0.0727,0.0707 0.0937,0.0937 0.035,0.039 0.0617,0.10675 0.0937,0.15625 0.063,0.097 0.0943,0.2175 0.15625,0.3125 0.033,0.049 0.103,0.0734 0.125,0.125 0.011,0.026 -0.01,0.0697 0,0.0937 0.036,0.081 0.20026,0.17885 0.28125,0.21875 0.038,0.019 0.09,0.0113 0.125,0.0312 0.053,0.03 0.16051,0.10965 0.1875,0.15625 0.024,0.042 0.0193,0.15185 0.0312,0.21875 0.015,0.088 -0.004,0.1549 0,0.25 0.003,0.052 0.0312,0.0734 0.0312,0.125 0,0.018 0.001,0.0747 0,0.0937 -0.001,0.062 0.005,0.1245 0,0.1875 -0.003,0.034 -0.002,0.0648 0,0.0937 0.003,0.031 0.0293,0.0345 0.0312,0.0625 0.002,0.029 -0.0343,0.0707 -0.0312,0.0937 0.007,0.063 0.0505,0.0982 0.0625,0.15625 0.01,0.046 0.0372,0.16375 0.0312,0.21875 -0.004,0.029 -0.0272,0.0607 -0.0312,0.0937 -0.003,0.026 0.004,0.0385 0,0.0625 -0.003,0.023 0.006,0.0435 0,0.0625 -0.0319,-0.0205 -0.0624,-0.0413 -0.0937,-0.0625 -0.266,-0.17971 -0.52379,-0.39879 -0.75,-0.625 -0.0306,-0.0306 -0.064,-0.0624 -0.0937,-0.0937 -0.18058,-0.19015 -0.35086,-0.40832 -0.5,-0.625 -0.0135,-0.0196 -0.018,-0.0427 -0.0312,-0.0625 -0.17305,-0.25927 -0.31469,-0.52213 -0.4375,-0.8125 -0.009,-0.0209 -0.0227,-0.0414 -0.0312,-0.0625 -0.10538,-0.259 -0.18893,-0.53398 -0.25,-0.8125 -0.0115,-0.0526 -0.0214,-0.10308 -0.0312,-0.15625 -0.0248,-0.13355 -0.0486,-0.2692 -0.0625,-0.40625 -0.0171,-0.16809 -0.0312,-0.32741 -0.0312,-0.5 0,-0.23764 0.0304,-0.4587 0.0625,-0.6875 z m 1.9375,0.53125 c 0.048,-0.022 0.039,0.0555 0,0.0625 -0.037,0.01 -0.036,-0.0445 0,-0.0625 z"
       id="path26" />
  </g>
</svg>
