<?xml version="1.0" encoding="UTF-8" standalone="no"?>
<!-- Created with Inkscape (http://www.inkscape.org/) -->

<svg
   xmlns:dc="http://purl.org/dc/elements/1.1/"
   xmlns:cc="http://creativecommons.org/ns#"
   xmlns:rdf="http://www.w3.org/1999/02/22-rdf-syntax-ns#"
   xmlns:svg="http://www.w3.org/2000/svg"
   xmlns="http://www.w3.org/2000/svg"
   xmlns:sodipodi="http://sodipodi.sourceforge.net/DTD/sodipodi-0.dtd"
   xmlns:inkscape="http://www.inkscape.org/namespaces/inkscape"
   width="64"
   height="64"
   id="svg5453"
   version="1.1"
   inkscape:version="0.91+devel r"
   sodipodi:docname="distributor-logo-nitrux.svg">
  <defs
     id="defs5455" />
  <sodipodi:namedview
     id="base"
     pagecolor="#ffffff"
     bordercolor="#666666"
     borderopacity="1.0"
     inkscape:pageopacity="0"
     inkscape:pageshadow="2"
     inkscape:zoom="8"
     inkscape:cx="43.829897"
     inkscape:cy="35.003186"
     inkscape:document-units="px"
     inkscape:current-layer="layer1"
     showgrid="true"
     fit-margin-top="0"
     fit-margin-left="0"
     fit-margin-right="0"
     fit-margin-bottom="0"
     inkscape:window-width="1366"
     inkscape:window-height="670"
     inkscape:window-x="-4"
     inkscape:window-y="29"
     inkscape:window-maximized="1"
     inkscape:showpageshadow="false"
     borderlayer="true"
     showguides="true">
    <sodipodi:guide
       position="6.0000117,57.999996"
       orientation="51.999969,0"
       id="guide4097" />
    <sodipodi:guide
       position="6.0000117,6.0000264"
       orientation="0,52"
       id="guide4099" />
    <sodipodi:guide
       position="58.000012,6.0000264"
       orientation="-51.999969,0"
       id="guide4101" />
    <sodipodi:guide
       position="58.000012,57.999996"
       orientation="0,-52"
       id="guide4103" />
    <sodipodi:guide
       position="3.0000117,60.999996"
       orientation="57.999969,0"
       id="guide4105" />
    <sodipodi:guide
       position="3.0000117,3.0000264"
       orientation="0,58"
       id="guide4107" />
    <sodipodi:guide
       position="61.000012,3.0000264"
       orientation="-57.999969,0"
       id="guide4109" />
    <sodipodi:guide
       position="61.000012,60.999996"
       orientation="0,-58"
       id="guide4111" />
    <inkscape:grid
       type="xygrid"
       id="grid4115" />
    <sodipodi:guide
       position="16.000012,47.999996"
       orientation="31.999969,0"
       id="guide4169" />
    <sodipodi:guide
       position="16.000012,16.000026"
       orientation="0,31.999969"
       id="guide4171" />
    <sodipodi:guide
       position="47.999981,16.000026"
       orientation="-31.999969,0"
       id="guide4173" />
    <sodipodi:guide
       position="47.999981,47.999996"
       orientation="0,-31.999969"
       id="guide4175" />
  </sodipodi:namedview>
  <metadata
     id="metadata5458">
    <rdf:RDF>
      <cc:Work
         rdf:about="">
        <dc:format>image/svg+xml</dc:format>
        <dc:type
           rdf:resource="http://purl.org/dc/dcmitype/StillImage" />
        <dc:title />
      </cc:Work>
    </rdf:RDF>
  </metadata>
  <g
     inkscape:label="Capa 1"
     inkscape:groupmode="layer"
     id="layer1"
     transform="translate(-384.57143,-483.798)">
    <rect
       style="display:inline;fill:#231f20;fill-opacity:1;stroke:none"
       id="rect3589"
       width="51.999985"
       height="51.999985"
       x="390.57144"
       y="489.798"
       ry="0" />
    <path
       style="fill:#ffffff;fill-opacity:1;stroke:none"
       d="M 15,16 15,22.666016 15,48 l 2,0 0,-11.333985 0,-5.666992 0,-2.833496 0,-0.708374 0,-0.708374 c 0,-0.355584 0.560649,-0.669173 1.0625,0 l 1.0625,1.416748 2.125,2.833496 4.25,5.666992 L 34,48 35,48 35,42.666016 35,36 l 9,12 5,0 -6.545899,-8.727539 -3.272949,-4.363769 -1.636474,-2.181885 -0.818238,-1.090943 -0.409118,-0.545471 -0.20456,-0.272735 c -0.131329,-0.194684 -0.0038,-0.480507 0.138703,-0.727265 L 36.594726,29.635864 37.28125,28.726807 38.654297,26.908692 41.40039,23.272461 44.146484,19.63623 46.892578,16 45.640625,16 35.285156,29.712891 25,16 20,16 32.775391,33.033203 30.267578,36.355469 17,18.666016 17,18.625 Z m 19,19.499268 0,0.833252 0,1.666503 0,3.333008 -3.109375,-4.144531 1.254883,-1.661133 0.627441,-0.830566 C 33.242822,34.054676 34,34.56974 34,35.499268 Z"
       id="rect4165"
       inkscape:connector-curvature="0"
       sodipodi:nodetypes="ccccccccccccccccccccccccccccccccccccccccccccccccc"
       transform="translate(384.57143,483.798)" />
  </g>
</svg>
