<?xml version="1.0" encoding="UTF-8" standalone="no"?>
<!-- Created with Inkscape (http://www.inkscape.org/) -->

<svg
   xmlns:dc="http://purl.org/dc/elements/1.1/"
   xmlns:cc="http://creativecommons.org/ns#"
   xmlns:rdf="http://www.w3.org/1999/02/22-rdf-syntax-ns#"
   xmlns:svg="http://www.w3.org/2000/svg"
   xmlns="http://www.w3.org/2000/svg"
   xmlns:xlink="http://www.w3.org/1999/xlink"
   xmlns:sodipodi="http://sodipodi.sourceforge.net/DTD/sodipodi-0.dtd"
   xmlns:inkscape="http://www.inkscape.org/namespaces/inkscape"
   width="64"
   height="64"
   id="svg5453"
   version="1.1"
   inkscape:version="0.91pre2 r"
   sodipodi:docname="folder-tar.svg">
  <defs
     id="defs5455">
    <linearGradient
       id="linearGradient4233"
       inkscape:collect="always">
      <stop
         id="stop4235"
         offset="0"
         style="stop-color:#345671;stop-opacity:1;" />
      <stop
         id="stop4237"
         offset="1"
         style="stop-color:#345671;stop-opacity:0;" />
    </linearGradient>
    <linearGradient
       inkscape:collect="always"
       id="linearGradient4232-9">
      <stop
         style="stop-color:#3d6584;stop-opacity:1"
         offset="0"
         id="stop4234-4" />
      <stop
         style="stop-color:#4a7ba3;stop-opacity:1"
         offset="1"
         id="stop4236-7" />
    </linearGradient>
    <linearGradient
       id="linearGradient4172-7"
       inkscape:collect="always">
      <stop
         id="stop4174-2"
         offset="0"
         style="stop-color:#6298d5;stop-opacity:1" />
      <stop
         id="stop4176-0"
         offset="1"
         style="stop-color:#8ab7e1;stop-opacity:1" />
    </linearGradient>
    <linearGradient
       gradientTransform="matrix(1,0,0,0.99967455,-384.57143,-483.62167)"
       gradientUnits="userSpaceOnUse"
       y2="499.798"
       x2="414.57144"
       y1="541.79797"
       x1="414.57144"
       id="linearGradient4178-1"
       xlink:href="#linearGradient4172-7"
       inkscape:collect="always" />
    <linearGradient
       gradientTransform="matrix(1,0,0,0.99954446,-384.57143,-499.55484)"
       y2="505.798"
       x2="414.57144"
       y1="523.79797"
       x1="414.57144"
       gradientUnits="userSpaceOnUse"
       id="linearGradient4182-9"
       xlink:href="#linearGradient4232-9"
       inkscape:collect="always" />
    <linearGradient
       gradientUnits="userSpaceOnUse"
       y2="497.798"
       x2="404.57144"
       y1="477.798"
       x1="384.57144"
       id="linearGradient4239"
       xlink:href="#linearGradient4233"
       inkscape:collect="always" />
  </defs>
  <sodipodi:namedview
     id="base"
     pagecolor="#ffffff"
     bordercolor="#666666"
     borderopacity="1.0"
     inkscape:pageopacity="0"
     inkscape:pageshadow="2"
     inkscape:zoom="22.627417"
     inkscape:cx="30.459096"
     inkscape:cy="17.841336"
     inkscape:document-units="px"
     inkscape:current-layer="layer1"
     showgrid="true"
     fit-margin-top="0"
     fit-margin-left="0"
     fit-margin-right="0"
     fit-margin-bottom="0"
     inkscape:window-width="1366"
     inkscape:window-height="672"
     inkscape:window-x="-4"
     inkscape:window-y="25"
     inkscape:window-maximized="1"
     inkscape:showpageshadow="false"
     borderlayer="true"
     inkscape:snap-bbox="true">
    <sodipodi:guide
       position="6.0000117,57.999996"
       orientation="51.999969,0"
       id="guide4097" />
    <sodipodi:guide
       position="6.0000117,6.0000264"
       orientation="0,52"
       id="guide4099" />
    <sodipodi:guide
       position="58.000012,6.0000264"
       orientation="-51.999969,0"
       id="guide4101" />
    <sodipodi:guide
       position="58.000012,57.999996"
       orientation="0,-52"
       id="guide4103" />
    <sodipodi:guide
       position="3.0000117,60.999996"
       orientation="57.999969,0"
       id="guide4105" />
    <sodipodi:guide
       position="3.0000117,3.0000264"
       orientation="0,58"
       id="guide4107" />
    <sodipodi:guide
       position="61.000012,3.0000264"
       orientation="-57.999969,0"
       id="guide4109" />
    <sodipodi:guide
       position="61.000012,60.999996"
       orientation="0,-58"
       id="guide4111" />
    <inkscape:grid
       type="xygrid"
       id="grid4115" />
    <sodipodi:guide
       position="20.000012,38.999996"
       orientation="23.999969,0"
       id="guide4129" />
    <sodipodi:guide
       position="20.000012,15.000026"
       orientation="0,24"
       id="guide4131" />
    <sodipodi:guide
       position="44.000012,15.000026"
       orientation="-23.999969,0"
       id="guide4133" />
    <sodipodi:guide
       position="44.000012,38.999996"
       orientation="0,-24"
       id="guide4135" />
    <sodipodi:guide
       position="22.000015,36.999992"
       orientation="19.999975,0"
       id="guide4137" />
    <sodipodi:guide
       position="22.000015,17.000017"
       orientation="0,20"
       id="guide4139" />
    <sodipodi:guide
       position="42,34"
       orientation="-19.999975,0"
       id="guide4141" />
    <sodipodi:guide
       position="42.000015,36.999992"
       orientation="0,-20"
       id="guide4143" />
    <sodipodi:guide
       position="22.000012,36.999996"
       orientation="7.9999695,0"
       id="guide4187" />
    <sodipodi:guide
       position="30.000012,36.999996"
       orientation="0,-8"
       id="guide4193" />
    <sodipodi:guide
       position="26.000012,17.000026"
       orientation="0,12"
       id="guide4300" />
  </sodipodi:namedview>
  <metadata
     id="metadata5458">
    <rdf:RDF>
      <cc:Work
         rdf:about="">
        <dc:format>image/svg+xml</dc:format>
        <dc:type
           rdf:resource="http://purl.org/dc/dcmitype/StillImage" />
        <dc:title />
      </cc:Work>
    </rdf:RDF>
  </metadata>
  <g
     inkscape:label="Capa 1"
     inkscape:groupmode="layer"
     id="layer1"
     transform="translate(-384.57143,-483.798)">
    <g
       id="layer1-2"
       inkscape:label="Capa 1">
      <path
         id="rect4180-6"
         transform="translate(384.57143,483.798)"
         d="m 4,6 0,5 0,22 c 0,0.55374 0.446,1 1,1 l 54,0 c 0.55399,0 1,-0.44626 1,-1 l 0,-21.990234 c 0,-0.0035 -0.0019,-0.0063 -0.002,-0.0098 L 60,11 60,10 32,10 29,6 4,6 Z"
         style="fill:url(#linearGradient4182-9);fill-opacity:1;stroke:none"
         inkscape:connector-curvature="0" />
      <path
         inkscape:connector-curvature="0"
         id="path4230"
         d="m 388.57143,489.798 26,26 1,1 29,-16.74316 0,-6.25684 -28,0 -3,-4 z"
         style="fill:url(#linearGradient4239);fill-opacity:1;fill-rule:evenodd;stroke:none;stroke-width:1px;stroke-linecap:butt;stroke-linejoin:miter;stroke-opacity:1" />
      <path
         id="rect4113-3"
         transform="translate(384.57143,483.798)"
         d="m 22,16 -3,4 -16,0 0,1 0.00195,0 C 3.0019037,21.004115 3,21.007592 3,21.011719 L 3,57 l 0,1 1,0 56,0 1,0 0,-1 L 61,21.011719 61,21 61,16 22,16 Z"
         style="fill:url(#linearGradient4178-1);fill-opacity:1;stroke:none"
         inkscape:connector-curvature="0" />
      <path
         id="path4151"
         transform="translate(384.57143,483.798)"
         d="m 3,57 0,1 1,0 56,0 1,0 0,-1 -1,0 -56,0 -1,0 z"
         style="fill:#2f6db0;fill-opacity:1;stroke:none"
         inkscape:connector-curvature="0" />
      <path
         inkscape:connector-curvature="0"
         id="path4222"
         d="m 444.57143,493.798 0,1 -29,0 -2,-5 3,4 z"
         style="fill:#8fb1cc;fill-opacity:1;fill-rule:evenodd;stroke:none;stroke-width:1px;stroke-linecap:butt;stroke-linejoin:miter;stroke-opacity:1" />
      <path
         inkscape:connector-curvature="0"
         id="path4224"
         d="m 387.57144,503.798 0,1 16.99999,0 2,-5 -3,4 z"
         style="fill:#ffffff;fill-opacity:0.23529412;fill-rule:evenodd;stroke:none;stroke-width:1px;stroke-linecap:butt;stroke-linejoin:miter;stroke-opacity:1" />
      <path
         inkscape:connector-curvature="0"
         id="path4228"
         d="m 388.57143,502.798 0,1 15,0 3,-4 -5,3 z"
         style="fill:#345671;fill-opacity:1;fill-rule:evenodd;stroke:none;stroke-width:1px;stroke-linecap:butt;stroke-linejoin:miter;stroke-opacity:1" />
    </g>
    <path
       sodipodi:nodetypes="ccccccccccccccccccccccccccccccccccccccccc"
       id="rect4173"
       d="m 406.57143,510.798 0,20 20,0 0,-20 z m 1,1 7,0 0,2 2,0 0,-2 9,0 0,18 -18,0 z m 9,2 0,2 2,0 0,-2 z m 0,2 -2,0 0,2 2,0 z m 0,2 0,2 2,0 0,-2 z m 0,2 -2,0 0,2 2,0 z m 0,3 -2,0 0,2 4,0 c 0,-2 0,-1.82594 0,-3 l -2,0 c 0,0.66666 0,0.33334 0,1 z"
       style="fill:#387ecc;fill-opacity:1;stroke:none"
       inkscape:connector-curvature="0" />
  </g>
</svg>
