<?xml version="1.0" encoding="UTF-8" standalone="no"?>
<!-- Created with Inkscape (http://www.inkscape.org/) -->

<svg
   xmlns:dc="http://purl.org/dc/elements/1.1/"
   xmlns:cc="http://creativecommons.org/ns#"
   xmlns:rdf="http://www.w3.org/1999/02/22-rdf-syntax-ns#"
   xmlns:svg="http://www.w3.org/2000/svg"
   xmlns="http://www.w3.org/2000/svg"
   xmlns:xlink="http://www.w3.org/1999/xlink"
   xmlns:sodipodi="http://sodipodi.sourceforge.net/DTD/sodipodi-0.dtd"
   xmlns:inkscape="http://www.inkscape.org/namespaces/inkscape"
   width="32"
   height="32"
   id="svg5453"
   version="1.1"
   inkscape:version="0.91 r13725"
   sodipodi:docname="application-x-perl.svg">
  <defs
     id="defs5455">
    <linearGradient
       gradientTransform="matrix(0.49999977,0,0,0.48275841,384.57144,516.34974)"
       inkscape:collect="always"
       xlink:href="#linearGradient4300"
       id="linearGradient4306"
       x1="32"
       y1="61"
       x2="32"
       y2="3"
       gradientUnits="userSpaceOnUse" />
    <linearGradient
       inkscape:collect="always"
       id="linearGradient4300">
      <stop
         style="stop-color:#22a7f0;stop-opacity:1"
         offset="0"
         id="stop4302" />
      <stop
         style="stop-color:#19b5fe;stop-opacity:1"
         offset="1"
         id="stop4304" />
    </linearGradient>
    <linearGradient
       gradientTransform="matrix(0.48275841,0,0,0.48275841,385.26109,516.10836)"
       inkscape:collect="always"
       xlink:href="#linearGradient4351"
       id="linearGradient4357"
       x1="47"
       y1="61"
       x2="47"
       y2="47"
       gradientUnits="userSpaceOnUse" />
    <linearGradient
       inkscape:collect="always"
       id="linearGradient4351">
      <stop
         style="stop-color:#c8e3fe;stop-opacity:1"
         offset="0"
         id="stop4353" />
      <stop
         style="stop-color:#ffffff;stop-opacity:1"
         offset="1"
         id="stop4355" />
    </linearGradient>
    <linearGradient
       gradientTransform="matrix(0.48275841,0,0,-0.48275841,378.50247,553.76351)"
       inkscape:collect="always"
       xlink:href="#linearGradient4410"
       id="linearGradient4427"
       x1="54"
       y1="31"
       x2="39.500008"
       y2="16.500048"
       gradientUnits="userSpaceOnUse" />
    <linearGradient
       inkscape:collect="always"
       id="linearGradient4410">
      <stop
         style="stop-color:#383e51;stop-opacity:1"
         offset="0"
         id="stop4412" />
      <stop
         style="stop-color:#655c6f;stop-opacity:0"
         offset="1"
         id="stop4414" />
    </linearGradient>
  </defs>
  <sodipodi:namedview
     id="base"
     pagecolor="#ffffff"
     bordercolor="#666666"
     borderopacity="1.0"
     inkscape:pageopacity="0"
     inkscape:pageshadow="2"
     inkscape:zoom="22.185475"
     inkscape:cx="32.664321"
     inkscape:cy="18.467969"
     inkscape:document-units="px"
     inkscape:current-layer="layer1"
     showgrid="true"
     fit-margin-top="0"
     fit-margin-left="0"
     fit-margin-right="0"
     fit-margin-bottom="0"
     inkscape:window-width="1920"
     inkscape:window-height="957"
     inkscape:window-x="-4"
     inkscape:window-y="0"
     inkscape:window-maximized="1"
     inkscape:showpageshadow="false"
     borderlayer="true"
     showguides="true"
     inkscape:guide-bbox="true"
     inkscape:object-nodes="true"
     inkscape:snap-bbox="true">
    <inkscape:grid
       type="xygrid"
       id="grid4063" />
    <sodipodi:guide
       position="2.0000117,30.000026"
       orientation="28,0"
       id="guide4167" />
    <sodipodi:guide
       position="17,5"
       orientation="0,28"
       id="guide4169" />
    <sodipodi:guide
       position="30.000012,2.0000264"
       orientation="-28,0"
       id="guide4171" />
    <sodipodi:guide
       position="30.000012,30.000026"
       orientation="0,-28"
       id="guide4173" />
    <sodipodi:guide
       position="2.0000117,30.000026"
       orientation="28,0"
       id="guide4181" />
    <sodipodi:guide
       position="16.000012,30.000026"
       orientation="0,-14"
       id="guide4187" />
    <sodipodi:guide
       position="5.0000117,30.000026"
       orientation="28,0"
       id="guide4143" />
    <sodipodi:guide
       position="5.0000117,2.0000264"
       orientation="0,22"
       id="guide4145" />
    <sodipodi:guide
       position="27.000012,2.0000264"
       orientation="-28,0"
       id="guide4147" />
    <sodipodi:guide
       position="27.000012,30.000026"
       orientation="0,-22"
       id="guide4149" />
    <sodipodi:guide
       position="27,30"
       orientation="0,-7"
       id="guide4155" />
    <sodipodi:guide
       position="27.00001,23"
       orientation="-7,-1e-05"
       id="guide4162" />
    <sodipodi:guide
       position="24,27"
       orientation="0,1"
       id="guide3378" />
  </sodipodi:namedview>
  <metadata
     id="metadata5458">
    <rdf:RDF>
      <cc:Work
         rdf:about="">
        <dc:format>image/svg+xml</dc:format>
        <dc:type
           rdf:resource="http://purl.org/dc/dcmitype/StillImage" />
        <dc:title></dc:title>
      </cc:Work>
    </rdf:RDF>
  </metadata>
  <g
     inkscape:label="Capa 1"
     inkscape:groupmode="layer"
     id="layer1"
     transform="translate(-384.57143,-515.798)">
    <path
       inkscape:connector-curvature="0"
       style="fill:url(#linearGradient4306);fill-opacity:1;stroke:none"
       d="m 389.57144,517.79801 0,27.99999 14.99999,0 7.00003,-7 -3e-5,-14.24137 0,-6.75862 -7,0 z"
       id="rect3500"
       sodipodi:nodetypes="cccccccc" />
    <rect
       style="opacity:1;fill:#2e3132;fill-opacity:0.29411765;stroke:none"
       id="rect4169"
       width="14.999983"
       height="0.99997306"
       x="389.57144"
       y="544.79797" />
    <rect
       style="opacity:1;fill:#ffffff;fill-opacity:0.40983605;stroke:none"
       id="rect4236"
       width="21.999994"
       height="1.0000261"
       x="389.57144"
       y="517.79797" />
    <path
       style="fill:url(#linearGradient4357);fill-opacity:1;fill-rule:evenodd;stroke:none;stroke-width:1px;stroke-linecap:butt;stroke-linejoin:miter;stroke-opacity:1"
       d="m 411.57144,538.798 -7.00001,7 0,-7 z"
       id="path4314"
       inkscape:connector-curvature="0"
       sodipodi:nodetypes="cccc" />
    <path
       inkscape:connector-curvature="0"
       id="path4320"
       d="m 397.57143,545.79797 7,-6.99997 0,7 z"
       style="opacity:0.2;fill:url(#linearGradient4427);fill-opacity:1;fill-rule:evenodd;stroke:none;stroke-width:1px;stroke-linecap:butt;stroke-linejoin:miter;stroke-opacity:1"
       sodipodi:nodetypes="cccc" />
    <rect
       style="fill:#ffffff;fill-opacity:1;stroke:none"
       id="rect4035"
       width="0"
       height="10.999983"
       x="375.89221"
       y="526.79797" />
    <g
       id="layer1-6"
       inkscape:label="Capa 1"
       transform="translate(391.90968,-512.56378)"
       style="fill:#ffffff;fill-opacity:1">
      <path
         style="fill:#ffffff;fill-opacity:1"
         d="m 5.3500993,1050.2576 c -0.2392426,-0.062 -0.2151548,-0.1292 0.1792979,-0.4976 0.679276,-0.6346 0.7924083,-1.2668 0.5990519,-3.3474 -0.1541672,-1.6588 -0.1887549,-1.7859 -0.448254,-1.647 -0.5615013,0.3005 -1.2631714,-0.087 -2.0597655,-1.1377 -0.3938664,-0.5195 -0.4312462,-0.6716 -0.3636172,-1.4812 0.041493,-0.4962 0.1261702,-1.0952 0.1882378,-1.3311 0.095316,-0.3621 0.064541,-0.4287 -0.1980598,-0.4287 -0.171013,0 -0.3993721,-0.1066 -0.5074503,-0.2368 -0.2721546,-0.3279 0.2129343,-0.8547 0.7870864,-0.8547 0.2334825,0 0.5118537,-0.1052 0.6186118,-0.2338 0.2756161,-0.3322 0.6971151,-0.2899 1.1703475,0.1171 0.5030517,0.4327 0.6743282,1.4346 0.3916692,2.2911 -0.3194988,0.9681 -0.097587,1.063 0.3493787,0.1494 0.2501069,-0.5112 0.6032198,-0.9571 0.893928,-1.1288 0.2642856,-0.1561 0.6504911,-0.5532 0.8582474,-0.8822 0.207747,-0.3292 0.4682753,-0.6564 0.5789378,-0.7272 0.3397144,-0.2174 1.2744329,-0.5162 1.6224551,-0.5188 0.474765,-0.01 1.111511,0.5524 1.225007,1.0691 0.05361,0.2441 0.339668,0.8197 0.635647,1.2791 0.295984,0.4595 0.538162,0.9158 0.538162,1.0141 0,0.098 0.210493,0.4435 0.467763,0.7673 0.385291,0.4848 0.466605,0.7291 0.461223,1.3857 -0.0074,0.9006 -0.492483,2.0486 -0.670069,1.5858 -0.05603,-0.146 -0.03258,-0.395 0.05222,-0.5534 0.177064,-0.3309 0.02068,-1.7988 -0.171133,-1.607 -0.133851,0.1339 -0.221316,1.5659 -0.183771,3.0089 0.04876,1.8738 -0.04237,3.6404 -0.190116,3.6875 -0.377722,0.1201 -0.542809,-0.1914 -0.387801,-0.7319 0.233496,-0.8142 0.185496,-2.9787 -0.07364,-3.3207 -0.119709,-0.1581 -0.263921,-0.5611 -0.32045,-0.8958 -0.05654,-0.3346 -0.163873,-0.6462 -0.238517,-0.6923 -0.245792,-0.1519 -0.616757,0.8315 -0.616757,1.635 0,0.6289 -0.09478,0.9195 -0.467767,1.4345 -0.5277961,0.7286 -0.5690803,0.9443 -0.2338801,1.2225 0.2614331,0.217 0.3122301,0.7128 0.087258,0.8519 -0.080644,0.05 -0.2911418,-0.064 -0.4677582,-0.2541 -0.2497426,-0.2681 -0.3211423,-0.2902 -0.3211423,-0.1 0,0.2852 -0.5779778,0.4785 -0.8969972,0.2999 -0.1707364,-0.095 -0.1304531,-0.1804 0.1831379,-0.3859 0.5585199,-0.366 0.5046772,-0.6662 -0.2418635,-1.3486 -0.5819062,-0.5319 -0.6337318,-0.639 -0.5383229,-1.1124 0.3019096,-1.4981 0.300696,-1.5373 -0.048093,-1.5373 -0.228447,0 -0.3288964,0.098 -0.3288964,0.3221 0,0.1771 -0.077441,0.4667 -0.1720794,0.6436 -0.1669797,0.312 -0.2167795,0.5629 -0.620758,3.1272 -0.2013308,1.2779 -0.2510243,1.3267 -1.1207123,1.1002 z m 4.1865195,-2.7218 c 0.2024993,-0.3916 0.2319084,-0.7269 0.1450844,-1.6536 -0.1153796,-1.2312 -0.2000485,-1.2741 -0.5373771,-0.272 -0.1154761,0.343 -0.3402958,0.791 -0.4995952,0.9955 -0.3710386,0.4764 -0.3643465,0.62 0.049374,1.0604 0.4428818,0.4714 0.5390244,0.4565 0.8425125,-0.1303 z"
         id="path1119-5"
         inkscape:connector-curvature="0" />
    </g>
  </g>
</svg>
