<?xml version="1.0" encoding="UTF-8" standalone="no"?>
<!-- Created with Inkscape (http://www.inkscape.org/) -->

<svg
   xmlns:dc="http://purl.org/dc/elements/1.1/"
   xmlns:cc="http://creativecommons.org/ns#"
   xmlns:rdf="http://www.w3.org/1999/02/22-rdf-syntax-ns#"
   xmlns:svg="http://www.w3.org/2000/svg"
   xmlns="http://www.w3.org/2000/svg"
   xmlns:sodipodi="http://sodipodi.sourceforge.net/DTD/sodipodi-0.dtd"
   xmlns:inkscape="http://www.inkscape.org/namespaces/inkscape"
   width="32"
   height="32"
   id="svg5453"
   version="1.1"
   inkscape:version="0.91 r13725"
   sodipodi:docname="document-edit-decrypt.svg"
   viewBox="0 0 32 32">
  <defs
     id="defs5455" />
  <sodipodi:namedview
     id="base"
     pagecolor="#ffffff"
     bordercolor="#666666"
     borderopacity="1.0"
     inkscape:pageopacity="0"
     inkscape:pageshadow="2"
     inkscape:zoom="23.098816"
     inkscape:cx="6.4318148"
     inkscape:cy="13.87735"
     inkscape:document-units="px"
     inkscape:current-layer="layer1"
     showgrid="true"
     fit-margin-top="0"
     fit-margin-left="0"
     fit-margin-right="0"
     fit-margin-bottom="0"
     inkscape:window-width="1920"
     inkscape:window-height="957"
     inkscape:window-x="-4"
     inkscape:window-y="0"
     inkscape:window-maximized="1"
     inkscape:showpageshadow="false"
     borderlayer="true"
     showguides="true"
     inkscape:guide-bbox="true"
     inkscape:object-nodes="true"
     inkscape:snap-bbox="true"
     inkscape:snap-global="true">
    <inkscape:grid
       type="xygrid"
       id="grid4063" />
    <sodipodi:guide
       position="4,24"
       orientation="28,0"
       id="guide4280" />
    <sodipodi:guide
       position="13,4"
       orientation="0,28"
       id="guide4282" />
    <sodipodi:guide
       position="28,25"
       orientation="-28,0"
       id="guide4284" />
    <sodipodi:guide
       position="15,28"
       orientation="0,-28"
       id="guide4286" />
  </sodipodi:namedview>
  <metadata
     id="metadata5458">
    <rdf:RDF>
      <cc:Work
         rdf:about="">
        <dc:format>image/svg+xml</dc:format>
        <dc:type
           rdf:resource="http://purl.org/dc/dcmitype/StillImage" />
        <dc:title></dc:title>
      </cc:Work>
    </rdf:RDF>
  </metadata>
  <g
     inkscape:label="Capa 1"
     inkscape:groupmode="layer"
     id="layer1"
     transform="translate(-384.57143,-515.798)">
    <rect
       style="fill:#49535a;fill-opacity:1;stroke:none"
       id="rect4035"
       width="0"
       height="16.499973"
       x="-473.27368"
       y="-541.36725"
       transform="scale(-1,-1)" />
    <rect
       style="fill:#49535a;fill-opacity:1;stroke:none"
       id="rect4035-5"
       width="0"
       height="16.499973"
       x="-446.21246"
       y="-544.44415"
       transform="scale(-1,-1)" />
    <rect
       style="fill:#49535a;fill-opacity:1;stroke:none"
       id="rect4035-8"
       width="0"
       height="16.499973"
       x="-473.27368"
       y="-541.36725"
       transform="scale(-1,-1)" />
    <rect
       style="fill:#49535a;fill-opacity:1;stroke:none"
       id="rect4035-59"
       width="0"
       height="16.499973"
       x="-473.27368"
       y="-541.36725"
       transform="scale(-1,-1)" />
    <rect
       style="fill:#49535a;fill-opacity:1;stroke:none"
       id="rect4035-6"
       width="0"
       height="16.499973"
       x="-484.23587"
       y="-548.61914"
       transform="scale(-1,-1)" />
    <rect
       style="fill:#49535a;fill-opacity:1;stroke:none"
       id="rect4035-5-1"
       width="0"
       height="16.499973"
       x="-457.17471"
       y="-551.69623"
       transform="scale(-1,-1)" />
    <rect
       style="fill:#49535a;fill-opacity:1;stroke:none"
       id="rect4035-8-3"
       width="0"
       height="16.499973"
       x="-484.23587"
       y="-548.61914"
       transform="scale(-1,-1)" />
    <rect
       style="fill:#49535a;fill-opacity:1;stroke:none"
       id="rect4035-59-4"
       width="0"
       height="16.499973"
       x="-484.23587"
       y="-548.61914"
       transform="scale(-1,-1)" />
    <rect
       style="fill:#49535a;fill-opacity:1;stroke:none"
       id="rect4035-1"
       width="0"
       height="16.499973"
       x="-475.21313"
       y="-542.29486"
       transform="scale(-1,-1)" />
    <rect
       style="fill:#49535a;fill-opacity:1;stroke:none"
       id="rect4035-5-0"
       width="0"
       height="16.499973"
       x="-448.15192"
       y="-545.37177"
       transform="scale(-1,-1)" />
    <rect
       style="fill:#49535a;fill-opacity:1;stroke:none"
       id="rect4035-8-1"
       width="0"
       height="16.499973"
       x="-475.21313"
       y="-542.29486"
       transform="scale(-1,-1)" />
    <rect
       style="fill:#49535a;fill-opacity:1;stroke:none"
       id="rect4035-59-1"
       width="0"
       height="16.499973"
       x="-475.21313"
       y="-542.29486"
       transform="scale(-1,-1)" />
    <rect
       y="-541.36725"
       x="-473.27368"
       height="16.499973"
       width="0"
       id="rect4035-7"
       style="fill:#49535a;fill-opacity:1;stroke:none"
       transform="scale(-1,-1)" />
    <rect
       y="-544.44415"
       x="-446.21246"
       height="16.499973"
       width="0"
       id="rect4035-5-7"
       style="fill:#49535a;fill-opacity:1;stroke:none"
       transform="scale(-1,-1)" />
    <rect
       y="-541.36725"
       x="-473.27368"
       height="16.499973"
       width="0"
       id="rect4035-8-16"
       style="fill:#49535a;fill-opacity:1;stroke:none"
       transform="scale(-1,-1)" />
    <rect
       y="-541.36725"
       x="-473.27368"
       height="16.499973"
       width="0"
       id="rect4035-59-18"
       style="fill:#49535a;fill-opacity:1;stroke:none"
       transform="scale(-1,-1)" />
    <rect
       y="-548.61914"
       x="-484.23587"
       height="16.499973"
       width="0"
       id="rect4035-6-5"
       style="fill:#49535a;fill-opacity:1;stroke:none"
       transform="scale(-1,-1)" />
    <rect
       y="-551.69623"
       x="-457.17471"
       height="16.499973"
       width="0"
       id="rect4035-5-1-8"
       style="fill:#49535a;fill-opacity:1;stroke:none"
       transform="scale(-1,-1)" />
    <rect
       y="-548.61914"
       x="-484.23587"
       height="16.499973"
       width="0"
       id="rect4035-8-3-8"
       style="fill:#49535a;fill-opacity:1;stroke:none"
       transform="scale(-1,-1)" />
    <rect
       y="-548.61914"
       x="-484.23587"
       height="16.499973"
       width="0"
       id="rect4035-59-4-7"
       style="fill:#49535a;fill-opacity:1;stroke:none"
       transform="scale(-1,-1)" />
    <rect
       y="-542.29486"
       x="-475.21313"
       height="16.499973"
       width="0"
       id="rect4035-1-7"
       style="fill:#49535a;fill-opacity:1;stroke:none"
       transform="scale(-1,-1)" />
    <rect
       y="-545.37177"
       x="-448.15192"
       height="16.499973"
       width="0"
       id="rect4035-5-0-8"
       style="fill:#49535a;fill-opacity:1;stroke:none"
       transform="scale(-1,-1)" />
    <rect
       y="-542.29486"
       x="-475.21313"
       height="16.499973"
       width="0"
       id="rect4035-8-1-0"
       style="fill:#49535a;fill-opacity:1;stroke:none"
       transform="scale(-1,-1)" />
    <rect
       y="-542.29486"
       x="-475.21313"
       height="16.499973"
       width="0"
       id="rect4035-59-1-3"
       style="fill:#49535a;fill-opacity:1;stroke:none"
       transform="scale(-1,-1)" />
    <rect
       y="-536.29797"
       x="-477.07141"
       height="16.499973"
       width="0"
       id="rect4035-0"
       style="fill:#49535a;fill-opacity:1;stroke:none"
       transform="scale(-1,-1)" />
    <rect
       y="-539.37488"
       x="-450.01025"
       height="16.499973"
       width="0"
       id="rect4035-5-5"
       style="fill:#49535a;fill-opacity:1;stroke:none"
       transform="scale(-1,-1)" />
    <rect
       y="-536.29797"
       x="-477.07141"
       height="16.499973"
       width="0"
       id="rect4035-8-6"
       style="fill:#49535a;fill-opacity:1;stroke:none"
       transform="scale(-1,-1)" />
    <rect
       y="-536.29797"
       x="-477.07141"
       height="16.499973"
       width="0"
       id="rect4035-59-11"
       style="fill:#49535a;fill-opacity:1;stroke:none"
       transform="scale(-1,-1)" />
    <rect
       y="-541.74884"
       x="-501.05356"
       height="16.499973"
       width="0"
       id="rect4035-9"
       style="fill:#49535a;fill-opacity:1;stroke:none"
       transform="scale(-1,-1)" />
    <rect
       y="-544.82574"
       x="-473.9924"
       height="16.499973"
       width="0"
       id="rect4035-5-8"
       style="fill:#49535a;fill-opacity:1;stroke:none"
       transform="scale(-1,-1)" />
    <rect
       y="-541.74884"
       x="-501.05356"
       height="16.499973"
       width="0"
       id="rect4035-8-0"
       style="fill:#49535a;fill-opacity:1;stroke:none"
       transform="scale(-1,-1)" />
    <rect
       y="-541.74884"
       x="-501.05356"
       height="16.499973"
       width="0"
       id="rect4035-59-1-8"
       style="fill:#49535a;fill-opacity:1;stroke:none"
       transform="scale(-1,-1)" />
    <rect
       style="fill:#49535a;fill-opacity:1;stroke:none"
       id="rect4035-3"
       width="0"
       height="16.499973"
       x="-473.27368"
       y="-541.36725"
       transform="scale(-1,-1)" />
    <rect
       style="fill:#49535a;fill-opacity:1;stroke:none"
       id="rect4035-5-2"
       width="0"
       height="16.499973"
       x="-446.21246"
       y="-544.44415"
       transform="scale(-1,-1)" />
    <rect
       style="fill:#49535a;fill-opacity:1;stroke:none"
       id="rect4035-8-7"
       width="0"
       height="16.499973"
       x="-473.27368"
       y="-541.36725"
       transform="scale(-1,-1)" />
    <rect
       style="fill:#49535a;fill-opacity:1;stroke:none"
       id="rect4035-59-43"
       width="0"
       height="16.499973"
       x="-473.27368"
       y="-541.36725"
       transform="scale(-1,-1)" />
    <rect
       style="fill:#49535a;fill-opacity:1;stroke:none"
       id="rect4035-6-2"
       width="0"
       height="16.499973"
       x="-484.23587"
       y="-548.61914"
       transform="scale(-1,-1)" />
    <rect
       style="fill:#49535a;fill-opacity:1;stroke:none"
       id="rect4035-5-1-6"
       width="0"
       height="16.499973"
       x="-457.17471"
       y="-551.69623"
       transform="scale(-1,-1)" />
    <rect
       style="fill:#49535a;fill-opacity:1;stroke:none"
       id="rect4035-8-3-4"
       width="0"
       height="16.499973"
       x="-484.23587"
       y="-548.61914"
       transform="scale(-1,-1)" />
    <rect
       style="fill:#49535a;fill-opacity:1;stroke:none"
       id="rect4035-59-4-8"
       width="0"
       height="16.499973"
       x="-484.23587"
       y="-548.61914"
       transform="scale(-1,-1)" />
    <rect
       style="fill:#49535a;fill-opacity:1;stroke:none"
       id="rect4035-1-8"
       width="0"
       height="16.499973"
       x="-475.21313"
       y="-542.29486"
       transform="scale(-1,-1)" />
    <rect
       style="fill:#49535a;fill-opacity:1;stroke:none"
       id="rect4035-5-0-0"
       width="0"
       height="16.499973"
       x="-448.15192"
       y="-545.37177"
       transform="scale(-1,-1)" />
    <rect
       style="fill:#49535a;fill-opacity:1;stroke:none"
       id="rect4035-8-1-3"
       width="0"
       height="16.499973"
       x="-475.21313"
       y="-542.29486"
       transform="scale(-1,-1)" />
    <rect
       style="fill:#49535a;fill-opacity:1;stroke:none"
       id="rect4035-59-1-1"
       width="0"
       height="16.499973"
       x="-475.21313"
       y="-542.29486"
       transform="scale(-1,-1)" />
    <rect
       style="fill:#f2f2f2;fill-opacity:1;stroke:none"
       id="rect4035-89"
       width="0"
       height="10.999983"
       x="-438.65182"
       y="-521.8714"
       transform="scale(-1,-1)" />
    <rect
       style="fill:#f2f2f2;fill-opacity:1;stroke:none"
       id="rect4035-5-9"
       width="0"
       height="10.999983"
       x="-420.61102"
       y="-523.92267"
       transform="scale(-1,-1)" />
    <rect
       style="fill:#f2f2f2;fill-opacity:1;stroke:none"
       id="rect4035-8-8"
       width="0"
       height="10.999983"
       x="-438.65182"
       y="-521.8714"
       transform="scale(-1,-1)" />
    <rect
       style="fill:#f2f2f2;fill-opacity:1;stroke:none"
       id="rect4035-59-7"
       width="0"
       height="10.999983"
       x="-438.65182"
       y="-521.8714"
       transform="scale(-1,-1)" />
    <rect
       style="fill:#f2f2f2;fill-opacity:1;stroke:none"
       id="rect4035-6-6"
       width="0"
       height="10.999983"
       x="-445.95996"
       y="-526.70599"
       transform="scale(-1,-1)" />
    <rect
       style="fill:#f2f2f2;fill-opacity:1;stroke:none"
       id="rect4035-5-1-0"
       width="0"
       height="10.999983"
       x="-427.91919"
       y="-528.75739"
       transform="scale(-1,-1)" />
    <rect
       style="fill:#f2f2f2;fill-opacity:1;stroke:none"
       id="rect4035-8-3-7"
       width="0"
       height="10.999983"
       x="-445.95996"
       y="-526.70599"
       transform="scale(-1,-1)" />
    <rect
       style="fill:#f2f2f2;fill-opacity:1;stroke:none"
       id="rect4035-59-4-84"
       width="0"
       height="10.999983"
       x="-445.95996"
       y="-526.70599"
       transform="scale(-1,-1)" />
    <rect
       style="fill:#f2f2f2;fill-opacity:1;stroke:none"
       id="rect4035-1-3"
       width="0"
       height="10.999983"
       x="-439.94479"
       y="-522.48981"
       transform="scale(-1,-1)" />
    <rect
       style="fill:#f2f2f2;fill-opacity:1;stroke:none"
       id="rect4035-5-0-1"
       width="0"
       height="10.999983"
       x="-421.90399"
       y="-524.54108"
       transform="scale(-1,-1)" />
    <rect
       style="fill:#f2f2f2;fill-opacity:1;stroke:none"
       id="rect4035-8-1-01"
       width="0"
       height="10.999983"
       x="-439.94479"
       y="-522.48981"
       transform="scale(-1,-1)" />
    <rect
       style="fill:#f2f2f2;fill-opacity:1;stroke:none"
       id="rect4035-59-1-7"
       width="0"
       height="10.999983"
       x="-439.94479"
       y="-522.48981"
       transform="scale(-1,-1)" />
    <path
       inkscape:connector-curvature="0"
       style="fill:#f2f2f2;fill-opacity:1;stroke:none;stroke-width:2;stroke-linecap:butt;stroke-linejoin:round;stroke-miterlimit:4;stroke-dasharray:none"
       d="m 393.57143,530.798 0,-2 2,0 0,2 -2,0 z m 6,0 0,-2 2,0 0,2 -2,0 z m 6,0 0,-2 2,0 0,2 -2,0 z m -15,-3 0,-2 2,0 0,2 -2,0 z m 6,0 0,-2 2,0 0,2 -2,0 z m 6,0 0,-2 2,0 0,2 -2,0 z m 6,0 0,-2 2,0 0,2 -2,0 z m -15,-3 0,-2 2,0 0,2 -2,0 z m 6,0 0,-2 2,0 0,2 -2,0 z m 6,0 0,-2 2,0 0,2 -2,0 z m -15,-3 0,-2 2,0 0,2 -2,0 z m 6,0 0,-2 2,0 0,2 -2,0 z m 6,0 0,-2 2,0 0,2 -2,0 z m 6,0 0,-2 2,0 0,2 -2,0 z"
       id="rect4898" />
    <path
       style="fill:#f2f2f2;fill-opacity:1;stroke:none;stroke-width:2;stroke-miterlimit:4;stroke-dasharray:none"
       d="M 6 15 L 6 28 L 18 28 L 19 28 L 26 21 L 26 20 L 26 15 L 25 15 L 25 20 L 18 20 L 18 27 L 7 27 L 7 15 L 6 15 z "
       transform="translate(384.57143,515.798)"
       id="rect4140" />
  </g>
</svg>
