<?xml version="1.0" encoding="UTF-8" standalone="no"?>
<!-- Created with Inkscape (http://www.inkscape.org/) -->

<svg
   xmlns:dc="http://purl.org/dc/elements/1.1/"
   xmlns:cc="http://creativecommons.org/ns#"
   xmlns:rdf="http://www.w3.org/1999/02/22-rdf-syntax-ns#"
   xmlns:svg="http://www.w3.org/2000/svg"
   xmlns="http://www.w3.org/2000/svg"
   xmlns:sodipodi="http://sodipodi.sourceforge.net/DTD/sodipodi-0.dtd"
   xmlns:inkscape="http://www.inkscape.org/namespaces/inkscape"
   width="32"
   height="32"
   id="svg5453"
   version="1.1"
   inkscape:version="0.91 r13725"
   sodipodi:docname="document-edit-encrypt.svg"
   viewBox="0 0 32 32">
  <defs
     id="defs5455" />
  <sodipodi:namedview
     id="base"
     pagecolor="#ffffff"
     bordercolor="#666666"
     borderopacity="1.0"
     inkscape:pageopacity="0"
     inkscape:pageshadow="2"
     inkscape:zoom="23.098816"
     inkscape:cx="6.4318148"
     inkscape:cy="13.87735"
     inkscape:document-units="px"
     inkscape:current-layer="layer1"
     showgrid="true"
     fit-margin-top="0"
     fit-margin-left="0"
     fit-margin-right="0"
     fit-margin-bottom="0"
     inkscape:window-width="1920"
     inkscape:window-height="957"
     inkscape:window-x="-4"
     inkscape:window-y="0"
     inkscape:window-maximized="1"
     inkscape:showpageshadow="false"
     borderlayer="true"
     showguides="true"
     inkscape:guide-bbox="true"
     inkscape:object-nodes="true"
     inkscape:snap-bbox="true"
     inkscape:snap-global="true">
    <inkscape:grid
       type="xygrid"
       id="grid4063" />
    <sodipodi:guide
       position="4,24"
       orientation="28,0"
       id="guide4280" />
    <sodipodi:guide
       position="13,4"
       orientation="0,28"
       id="guide4282" />
    <sodipodi:guide
       position="28,25"
       orientation="-28,0"
       id="guide4284" />
    <sodipodi:guide
       position="15,28"
       orientation="0,-28"
       id="guide4286" />
  </sodipodi:namedview>
  <metadata
     id="metadata5458">
    <rdf:RDF>
      <cc:Work
         rdf:about="">
        <dc:format>image/svg+xml</dc:format>
        <dc:type
           rdf:resource="http://purl.org/dc/dcmitype/StillImage" />
        <dc:title />
      </cc:Work>
    </rdf:RDF>
  </metadata>
  <g
     inkscape:label="Capa 1"
     inkscape:groupmode="layer"
     id="layer1"
     transform="translate(-384.57143,-515.798)">
    <rect
       style="fill:#49535a;fill-opacity:1;stroke:none"
       id="rect4035"
       width="0"
       height="16.499973"
       x="-473.27368"
       y="522.22876"
       transform="scale(-1,1)" />
    <rect
       style="fill:#49535a;fill-opacity:1;stroke:none"
       id="rect4035-5"
       width="0"
       height="16.499973"
       x="-446.21246"
       y="519.15186"
       transform="scale(-1,1)" />
    <rect
       style="fill:#49535a;fill-opacity:1;stroke:none"
       id="rect4035-8"
       width="0"
       height="16.499973"
       x="-473.27368"
       y="522.22876"
       transform="scale(-1,1)" />
    <rect
       style="fill:#49535a;fill-opacity:1;stroke:none"
       id="rect4035-59"
       width="0"
       height="16.499973"
       x="-473.27368"
       y="522.22876"
       transform="scale(-1,1)" />
    <rect
       style="fill:#49535a;fill-opacity:1;stroke:none"
       id="rect4035-6"
       width="0"
       height="16.499973"
       x="-484.23587"
       y="514.97687"
       transform="scale(-1,1)" />
    <rect
       style="fill:#49535a;fill-opacity:1;stroke:none"
       id="rect4035-5-1"
       width="0"
       height="16.499973"
       x="-457.17471"
       y="511.89975"
       transform="scale(-1,1)" />
    <rect
       style="fill:#49535a;fill-opacity:1;stroke:none"
       id="rect4035-8-3"
       width="0"
       height="16.499973"
       x="-484.23587"
       y="514.97687"
       transform="scale(-1,1)" />
    <rect
       style="fill:#49535a;fill-opacity:1;stroke:none"
       id="rect4035-59-4"
       width="0"
       height="16.499973"
       x="-484.23587"
       y="514.97687"
       transform="scale(-1,1)" />
    <rect
       style="fill:#49535a;fill-opacity:1;stroke:none"
       id="rect4035-1"
       width="0"
       height="16.499973"
       x="-475.21313"
       y="521.30115"
       transform="scale(-1,1)" />
    <rect
       style="fill:#49535a;fill-opacity:1;stroke:none"
       id="rect4035-5-0"
       width="0"
       height="16.499973"
       x="-448.15192"
       y="518.22424"
       transform="scale(-1,1)" />
    <rect
       style="fill:#49535a;fill-opacity:1;stroke:none"
       id="rect4035-8-1"
       width="0"
       height="16.499973"
       x="-475.21313"
       y="521.30115"
       transform="scale(-1,1)" />
    <rect
       style="fill:#49535a;fill-opacity:1;stroke:none"
       id="rect4035-59-1"
       width="0"
       height="16.499973"
       x="-475.21313"
       y="521.30115"
       transform="scale(-1,1)" />
    <rect
       y="522.22876"
       x="-473.27368"
       height="16.499973"
       width="0"
       id="rect4035-7"
       style="fill:#49535a;fill-opacity:1;stroke:none"
       transform="scale(-1,1)" />
    <rect
       y="519.15186"
       x="-446.21246"
       height="16.499973"
       width="0"
       id="rect4035-5-7"
       style="fill:#49535a;fill-opacity:1;stroke:none"
       transform="scale(-1,1)" />
    <rect
       y="522.22876"
       x="-473.27368"
       height="16.499973"
       width="0"
       id="rect4035-8-16"
       style="fill:#49535a;fill-opacity:1;stroke:none"
       transform="scale(-1,1)" />
    <rect
       y="522.22876"
       x="-473.27368"
       height="16.499973"
       width="0"
       id="rect4035-59-18"
       style="fill:#49535a;fill-opacity:1;stroke:none"
       transform="scale(-1,1)" />
    <rect
       y="514.97687"
       x="-484.23587"
       height="16.499973"
       width="0"
       id="rect4035-6-5"
       style="fill:#49535a;fill-opacity:1;stroke:none"
       transform="scale(-1,1)" />
    <rect
       y="511.89975"
       x="-457.17471"
       height="16.499973"
       width="0"
       id="rect4035-5-1-8"
       style="fill:#49535a;fill-opacity:1;stroke:none"
       transform="scale(-1,1)" />
    <rect
       y="514.97687"
       x="-484.23587"
       height="16.499973"
       width="0"
       id="rect4035-8-3-8"
       style="fill:#49535a;fill-opacity:1;stroke:none"
       transform="scale(-1,1)" />
    <rect
       y="514.97687"
       x="-484.23587"
       height="16.499973"
       width="0"
       id="rect4035-59-4-7"
       style="fill:#49535a;fill-opacity:1;stroke:none"
       transform="scale(-1,1)" />
    <rect
       y="521.30115"
       x="-475.21313"
       height="16.499973"
       width="0"
       id="rect4035-1-7"
       style="fill:#49535a;fill-opacity:1;stroke:none"
       transform="scale(-1,1)" />
    <rect
       y="518.22424"
       x="-448.15192"
       height="16.499973"
       width="0"
       id="rect4035-5-0-8"
       style="fill:#49535a;fill-opacity:1;stroke:none"
       transform="scale(-1,1)" />
    <rect
       y="521.30115"
       x="-475.21313"
       height="16.499973"
       width="0"
       id="rect4035-8-1-0"
       style="fill:#49535a;fill-opacity:1;stroke:none"
       transform="scale(-1,1)" />
    <rect
       y="521.30115"
       x="-475.21313"
       height="16.499973"
       width="0"
       id="rect4035-59-1-3"
       style="fill:#49535a;fill-opacity:1;stroke:none"
       transform="scale(-1,1)" />
    <rect
       y="527.29803"
       x="-477.07141"
       height="16.499973"
       width="0"
       id="rect4035-0"
       style="fill:#49535a;fill-opacity:1;stroke:none"
       transform="scale(-1,1)" />
    <rect
       y="524.22113"
       x="-450.01025"
       height="16.499973"
       width="0"
       id="rect4035-5-5"
       style="fill:#49535a;fill-opacity:1;stroke:none"
       transform="scale(-1,1)" />
    <rect
       y="527.29803"
       x="-477.07141"
       height="16.499973"
       width="0"
       id="rect4035-8-6"
       style="fill:#49535a;fill-opacity:1;stroke:none"
       transform="scale(-1,1)" />
    <rect
       y="527.29803"
       x="-477.07141"
       height="16.499973"
       width="0"
       id="rect4035-59-11"
       style="fill:#49535a;fill-opacity:1;stroke:none"
       transform="scale(-1,1)" />
    <rect
       y="521.84717"
       x="-501.05356"
       height="16.499973"
       width="0"
       id="rect4035-9"
       style="fill:#49535a;fill-opacity:1;stroke:none"
       transform="scale(-1,1)" />
    <rect
       y="518.77026"
       x="-473.9924"
       height="16.499973"
       width="0"
       id="rect4035-5-8"
       style="fill:#49535a;fill-opacity:1;stroke:none"
       transform="scale(-1,1)" />
    <rect
       y="521.84717"
       x="-501.05356"
       height="16.499973"
       width="0"
       id="rect4035-8-0"
       style="fill:#49535a;fill-opacity:1;stroke:none"
       transform="scale(-1,1)" />
    <rect
       y="521.84717"
       x="-501.05356"
       height="16.499973"
       width="0"
       id="rect4035-59-1-8"
       style="fill:#49535a;fill-opacity:1;stroke:none"
       transform="scale(-1,1)" />
    <rect
       style="fill:#49535a;fill-opacity:1;stroke:none"
       id="rect4035-3"
       width="0"
       height="16.499973"
       x="-473.27368"
       y="522.22876"
       transform="scale(-1,1)" />
    <rect
       style="fill:#49535a;fill-opacity:1;stroke:none"
       id="rect4035-5-2"
       width="0"
       height="16.499973"
       x="-446.21246"
       y="519.15186"
       transform="scale(-1,1)" />
    <rect
       style="fill:#49535a;fill-opacity:1;stroke:none"
       id="rect4035-8-7"
       width="0"
       height="16.499973"
       x="-473.27368"
       y="522.22876"
       transform="scale(-1,1)" />
    <rect
       style="fill:#49535a;fill-opacity:1;stroke:none"
       id="rect4035-59-43"
       width="0"
       height="16.499973"
       x="-473.27368"
       y="522.22876"
       transform="scale(-1,1)" />
    <rect
       style="fill:#49535a;fill-opacity:1;stroke:none"
       id="rect4035-6-2"
       width="0"
       height="16.499973"
       x="-484.23587"
       y="514.97687"
       transform="scale(-1,1)" />
    <rect
       style="fill:#49535a;fill-opacity:1;stroke:none"
       id="rect4035-5-1-6"
       width="0"
       height="16.499973"
       x="-457.17471"
       y="511.89975"
       transform="scale(-1,1)" />
    <rect
       style="fill:#49535a;fill-opacity:1;stroke:none"
       id="rect4035-8-3-4"
       width="0"
       height="16.499973"
       x="-484.23587"
       y="514.97687"
       transform="scale(-1,1)" />
    <rect
       style="fill:#49535a;fill-opacity:1;stroke:none"
       id="rect4035-59-4-8"
       width="0"
       height="16.499973"
       x="-484.23587"
       y="514.97687"
       transform="scale(-1,1)" />
    <rect
       style="fill:#49535a;fill-opacity:1;stroke:none"
       id="rect4035-1-8"
       width="0"
       height="16.499973"
       x="-475.21313"
       y="521.30115"
       transform="scale(-1,1)" />
    <rect
       style="fill:#49535a;fill-opacity:1;stroke:none"
       id="rect4035-5-0-0"
       width="0"
       height="16.499973"
       x="-448.15192"
       y="518.22424"
       transform="scale(-1,1)" />
    <rect
       style="fill:#49535a;fill-opacity:1;stroke:none"
       id="rect4035-8-1-3"
       width="0"
       height="16.499973"
       x="-475.21313"
       y="521.30115"
       transform="scale(-1,1)" />
    <rect
       style="fill:#49535a;fill-opacity:1;stroke:none"
       id="rect4035-59-1-1"
       width="0"
       height="16.499973"
       x="-475.21313"
       y="521.30115"
       transform="scale(-1,1)" />
    <rect
       style="fill:#f2f2f2;fill-opacity:1;stroke:none"
       id="rect4035-89"
       width="0"
       height="10.999983"
       x="-438.65182"
       y="541.72461"
       transform="scale(-1,1)" />
    <rect
       style="fill:#f2f2f2;fill-opacity:1;stroke:none"
       id="rect4035-5-9"
       width="0"
       height="10.999983"
       x="-420.61102"
       y="539.67334"
       transform="scale(-1,1)" />
    <rect
       style="fill:#f2f2f2;fill-opacity:1;stroke:none"
       id="rect4035-8-8"
       width="0"
       height="10.999983"
       x="-438.65182"
       y="541.72461"
       transform="scale(-1,1)" />
    <rect
       style="fill:#f2f2f2;fill-opacity:1;stroke:none"
       id="rect4035-59-7"
       width="0"
       height="10.999983"
       x="-438.65182"
       y="541.72461"
       transform="scale(-1,1)" />
    <rect
       style="fill:#f2f2f2;fill-opacity:1;stroke:none"
       id="rect4035-6-6"
       width="0"
       height="10.999983"
       x="-445.95996"
       y="536.89001"
       transform="scale(-1,1)" />
    <rect
       style="fill:#f2f2f2;fill-opacity:1;stroke:none"
       id="rect4035-5-1-0"
       width="0"
       height="10.999983"
       x="-427.91919"
       y="534.83862"
       transform="scale(-1,1)" />
    <rect
       style="fill:#f2f2f2;fill-opacity:1;stroke:none"
       id="rect4035-8-3-7"
       width="0"
       height="10.999983"
       x="-445.95996"
       y="536.89001"
       transform="scale(-1,1)" />
    <rect
       style="fill:#f2f2f2;fill-opacity:1;stroke:none"
       id="rect4035-59-4-84"
       width="0"
       height="10.999983"
       x="-445.95996"
       y="536.89001"
       transform="scale(-1,1)" />
    <rect
       style="fill:#f2f2f2;fill-opacity:1;stroke:none"
       id="rect4035-1-3"
       width="0"
       height="10.999983"
       x="-439.94479"
       y="541.1062"
       transform="scale(-1,1)" />
    <rect
       style="fill:#f2f2f2;fill-opacity:1;stroke:none"
       id="rect4035-5-0-1"
       width="0"
       height="10.999983"
       x="-421.90399"
       y="539.05493"
       transform="scale(-1,1)" />
    <rect
       style="fill:#f2f2f2;fill-opacity:1;stroke:none"
       id="rect4035-8-1-01"
       width="0"
       height="10.999983"
       x="-439.94479"
       y="541.1062"
       transform="scale(-1,1)" />
    <rect
       style="fill:#f2f2f2;fill-opacity:1;stroke:none"
       id="rect4035-59-1-7"
       width="0"
       height="10.999983"
       x="-439.94479"
       y="541.1062"
       transform="scale(-1,1)" />
    <path
       style="fill:#f2f2f2;fill-opacity:1;stroke:none;stroke-width:2;stroke-linecap:butt;stroke-linejoin:round;stroke-miterlimit:4;stroke-dasharray:none"
       d="M 6 4 L 6 16 L 7 16 L 7 5 L 25 5 L 25 16 L 26 16 L 26 4 L 6 4 z "
       transform="translate(384.57143,515.798)"
       id="rect4581" />
    <path
       style="fill:#f2f2f2;fill-opacity:1;stroke:none;stroke-width:2;stroke-linecap:butt;stroke-linejoin:round;stroke-miterlimit:4;stroke-dasharray:none"
       d="M 9 17 L 9 19 L 11 19 L 11 17 L 9 17 z M 15 17 L 15 19 L 17 19 L 17 17 L 15 17 z M 21 17 L 21 19 L 23 19 L 23 17 L 21 17 z M 6 20 L 6 22 L 8 22 L 8 20 L 6 20 z M 12 20 L 12 22 L 14 22 L 14 20 L 12 20 z M 18 20 L 18 22 L 20 22 L 20 20 L 18 20 z M 24 20 L 24 22 L 26 22 L 26 20 L 24 20 z M 9 23 L 9 25 L 11 25 L 11 23 L 9 23 z M 15 23 L 15 25 L 17 25 L 17 23 L 15 23 z M 21 23 L 21 25 L 23 25 L 23 23 L 21 23 z M 6 26 L 6 28 L 8 28 L 8 26 L 6 26 z M 12 26 L 12 28 L 14 28 L 14 26 L 12 26 z M 18 26 L 18 28 L 20 28 L 20 26 L 18 26 z M 24 26 L 24 28 L 26 28 L 26 26 L 24 26 z "
       transform="translate(384.57143,515.798)"
       id="rect4898" />
  </g>
</svg>
