<?xml version="1.0" encoding="UTF-8" standalone="no"?>
<!-- Created with Inkscape (http://www.inkscape.org/) -->

<svg
   xmlns:dc="http://purl.org/dc/elements/1.1/"
   xmlns:cc="http://creativecommons.org/ns#"
   xmlns:rdf="http://www.w3.org/1999/02/22-rdf-syntax-ns#"
   xmlns:svg="http://www.w3.org/2000/svg"
   xmlns="http://www.w3.org/2000/svg"
   xmlns:sodipodi="http://sodipodi.sourceforge.net/DTD/sodipodi-0.dtd"
   xmlns:inkscape="http://www.inkscape.org/namespaces/inkscape"
   width="32"
   height="32"
   id="svg5453"
   version="1.1"
   inkscape:version="0.91 r13725"
   sodipodi:docname="folder-sync.svg"
   viewBox="0 0 32 32">
  <defs
     id="defs5455" />
  <sodipodi:namedview
     id="base"
     pagecolor="#ffffff"
     bordercolor="#666666"
     borderopacity="1.0"
     inkscape:pageopacity="0"
     inkscape:pageshadow="2"
     inkscape:zoom="32.666659"
     inkscape:cx="20.304664"
     inkscape:cy="10.712526"
     inkscape:document-units="px"
     inkscape:current-layer="layer1"
     showgrid="true"
     fit-margin-top="0"
     fit-margin-left="0"
     fit-margin-right="0"
     fit-margin-bottom="0"
     inkscape:window-width="1920"
     inkscape:window-height="957"
     inkscape:window-x="-4"
     inkscape:window-y="0"
     inkscape:window-maximized="1"
     inkscape:showpageshadow="false"
     borderlayer="true"
     showguides="true"
     inkscape:guide-bbox="true"
     inkscape:object-nodes="true"
     inkscape:snap-bbox="true"
     inkscape:snap-global="true">
    <inkscape:grid
       type="xygrid"
       id="grid4063" />
    <sodipodi:guide
       position="4,24"
       orientation="28,0"
       id="guide4280" />
    <sodipodi:guide
       position="13,4"
       orientation="0,28"
       id="guide4282" />
    <sodipodi:guide
       position="28,25"
       orientation="-28,0"
       id="guide4284" />
    <sodipodi:guide
       position="15,28"
       orientation="0,-28"
       id="guide4286" />
  </sodipodi:namedview>
  <metadata
     id="metadata5458">
    <rdf:RDF>
      <cc:Work
         rdf:about="">
        <dc:format>image/svg+xml</dc:format>
        <dc:type
           rdf:resource="http://purl.org/dc/dcmitype/StillImage" />
        <dc:title></dc:title>
      </cc:Work>
    </rdf:RDF>
  </metadata>
  <g
     inkscape:label="Capa 1"
     inkscape:groupmode="layer"
     id="layer1"
     transform="translate(-384.57143,-515.798)">
    <rect
       style="fill:#49535a;fill-opacity:1;stroke:none"
       id="rect4035"
       width="0"
       height="16.499973"
       x="327.86917"
       y="522.22876" />
    <rect
       style="fill:#49535a;fill-opacity:1;stroke:none"
       id="rect4035-5"
       width="0"
       height="16.499973"
       x="354.93039"
       y="519.15186" />
    <rect
       style="fill:#49535a;fill-opacity:1;stroke:none"
       id="rect4035-8"
       width="0"
       height="16.499973"
       x="327.86917"
       y="522.22876" />
    <rect
       style="fill:#49535a;fill-opacity:1;stroke:none"
       id="rect4035-59"
       width="0"
       height="16.499973"
       x="327.86917"
       y="522.22876" />
    <rect
       style="fill:#49535a;fill-opacity:1;stroke:none"
       id="rect4035-6"
       width="0"
       height="16.499973"
       x="316.90698"
       y="514.97687" />
    <rect
       style="fill:#49535a;fill-opacity:1;stroke:none"
       id="rect4035-5-1"
       width="0"
       height="16.499973"
       x="343.96814"
       y="511.89975" />
    <rect
       style="fill:#49535a;fill-opacity:1;stroke:none"
       id="rect4035-8-3"
       width="0"
       height="16.499973"
       x="316.90698"
       y="514.97687" />
    <rect
       style="fill:#49535a;fill-opacity:1;stroke:none"
       id="rect4035-59-4"
       width="0"
       height="16.499973"
       x="316.90698"
       y="514.97687" />
    <rect
       style="fill:#49535a;fill-opacity:1;stroke:none"
       id="rect4035-1"
       width="0"
       height="16.499973"
       x="325.92972"
       y="521.30115" />
    <rect
       style="fill:#49535a;fill-opacity:1;stroke:none"
       id="rect4035-5-0"
       width="0"
       height="16.499973"
       x="352.99094"
       y="518.22424" />
    <rect
       style="fill:#49535a;fill-opacity:1;stroke:none"
       id="rect4035-8-1"
       width="0"
       height="16.499973"
       x="325.92972"
       y="521.30115" />
    <rect
       style="fill:#49535a;fill-opacity:1;stroke:none"
       id="rect4035-59-1"
       width="0"
       height="16.499973"
       x="325.92972"
       y="521.30115" />
    <rect
       y="522.22876"
       x="327.86917"
       height="16.499973"
       width="0"
       id="rect4035-7"
       style="fill:#49535a;fill-opacity:1;stroke:none" />
    <rect
       y="519.15186"
       x="354.93039"
       height="16.499973"
       width="0"
       id="rect4035-5-7"
       style="fill:#49535a;fill-opacity:1;stroke:none" />
    <rect
       y="522.22876"
       x="327.86917"
       height="16.499973"
       width="0"
       id="rect4035-8-16"
       style="fill:#49535a;fill-opacity:1;stroke:none" />
    <rect
       y="522.22876"
       x="327.86917"
       height="16.499973"
       width="0"
       id="rect4035-59-18"
       style="fill:#49535a;fill-opacity:1;stroke:none" />
    <rect
       y="514.97687"
       x="316.90698"
       height="16.499973"
       width="0"
       id="rect4035-6-5"
       style="fill:#49535a;fill-opacity:1;stroke:none" />
    <rect
       y="511.89975"
       x="343.96814"
       height="16.499973"
       width="0"
       id="rect4035-5-1-8"
       style="fill:#49535a;fill-opacity:1;stroke:none" />
    <rect
       y="514.97687"
       x="316.90698"
       height="16.499973"
       width="0"
       id="rect4035-8-3-8"
       style="fill:#49535a;fill-opacity:1;stroke:none" />
    <rect
       y="514.97687"
       x="316.90698"
       height="16.499973"
       width="0"
       id="rect4035-59-4-7"
       style="fill:#49535a;fill-opacity:1;stroke:none" />
    <rect
       y="521.30115"
       x="325.92972"
       height="16.499973"
       width="0"
       id="rect4035-1-7"
       style="fill:#49535a;fill-opacity:1;stroke:none" />
    <rect
       y="518.22424"
       x="352.99094"
       height="16.499973"
       width="0"
       id="rect4035-5-0-8"
       style="fill:#49535a;fill-opacity:1;stroke:none" />
    <rect
       y="521.30115"
       x="325.92972"
       height="16.499973"
       width="0"
       id="rect4035-8-1-0"
       style="fill:#49535a;fill-opacity:1;stroke:none" />
    <rect
       y="521.30115"
       x="325.92972"
       height="16.499973"
       width="0"
       id="rect4035-59-1-3"
       style="fill:#49535a;fill-opacity:1;stroke:none" />
    <rect
       y="527.29803"
       x="324.07144"
       height="16.499973"
       width="0"
       id="rect4035-0"
       style="fill:#49535a;fill-opacity:1;stroke:none" />
    <rect
       y="524.22113"
       x="351.1326"
       height="16.499973"
       width="0"
       id="rect4035-5-5"
       style="fill:#49535a;fill-opacity:1;stroke:none" />
    <rect
       y="527.29803"
       x="324.07144"
       height="16.499973"
       width="0"
       id="rect4035-8-6"
       style="fill:#49535a;fill-opacity:1;stroke:none" />
    <rect
       y="527.29803"
       x="324.07144"
       height="16.499973"
       width="0"
       id="rect4035-59-11"
       style="fill:#49535a;fill-opacity:1;stroke:none" />
    <rect
       y="521.84717"
       x="300.08929"
       height="16.499973"
       width="0"
       id="rect4035-9"
       style="fill:#49535a;fill-opacity:1;stroke:none" />
    <rect
       y="518.77026"
       x="327.15045"
       height="16.499973"
       width="0"
       id="rect4035-5-8"
       style="fill:#49535a;fill-opacity:1;stroke:none" />
    <rect
       y="521.84717"
       x="300.08929"
       height="16.499973"
       width="0"
       id="rect4035-8-0"
       style="fill:#49535a;fill-opacity:1;stroke:none" />
    <rect
       y="521.84717"
       x="300.08929"
       height="16.499973"
       width="0"
       id="rect4035-59-1-8"
       style="fill:#49535a;fill-opacity:1;stroke:none" />
    <rect
       style="fill:#49535a;fill-opacity:1;stroke:none"
       id="rect4035-3"
       width="0"
       height="16.499973"
       x="327.86917"
       y="522.22876" />
    <rect
       style="fill:#49535a;fill-opacity:1;stroke:none"
       id="rect4035-5-2"
       width="0"
       height="16.499973"
       x="354.93039"
       y="519.15186" />
    <rect
       style="fill:#49535a;fill-opacity:1;stroke:none"
       id="rect4035-8-7"
       width="0"
       height="16.499973"
       x="327.86917"
       y="522.22876" />
    <rect
       style="fill:#49535a;fill-opacity:1;stroke:none"
       id="rect4035-59-43"
       width="0"
       height="16.499973"
       x="327.86917"
       y="522.22876" />
    <rect
       style="fill:#49535a;fill-opacity:1;stroke:none"
       id="rect4035-6-2"
       width="0"
       height="16.499973"
       x="316.90698"
       y="514.97687" />
    <rect
       style="fill:#49535a;fill-opacity:1;stroke:none"
       id="rect4035-5-1-6"
       width="0"
       height="16.499973"
       x="343.96814"
       y="511.89975" />
    <rect
       style="fill:#49535a;fill-opacity:1;stroke:none"
       id="rect4035-8-3-4"
       width="0"
       height="16.499973"
       x="316.90698"
       y="514.97687" />
    <rect
       style="fill:#49535a;fill-opacity:1;stroke:none"
       id="rect4035-59-4-8"
       width="0"
       height="16.499973"
       x="316.90698"
       y="514.97687" />
    <rect
       style="fill:#49535a;fill-opacity:1;stroke:none"
       id="rect4035-1-8"
       width="0"
       height="16.499973"
       x="325.92972"
       y="521.30115" />
    <rect
       style="fill:#49535a;fill-opacity:1;stroke:none"
       id="rect4035-5-0-0"
       width="0"
       height="16.499973"
       x="352.99094"
       y="518.22424" />
    <rect
       style="fill:#49535a;fill-opacity:1;stroke:none"
       id="rect4035-8-1-3"
       width="0"
       height="16.499973"
       x="325.92972"
       y="521.30115" />
    <rect
       style="fill:#49535a;fill-opacity:1;stroke:none"
       id="rect4035-59-1-1"
       width="0"
       height="16.499973"
       x="325.92972"
       y="521.30115" />
    <rect
       style="fill:#f2f2f2;fill-opacity:1;stroke:none"
       id="rect4035-89"
       width="0"
       height="10.999983"
       x="362.49103"
       y="541.72461" />
    <rect
       style="fill:#f2f2f2;fill-opacity:1;stroke:none"
       id="rect4035-5-9"
       width="0"
       height="10.999983"
       x="380.53183"
       y="539.67334" />
    <rect
       style="fill:#f2f2f2;fill-opacity:1;stroke:none"
       id="rect4035-8-8"
       width="0"
       height="10.999983"
       x="362.49103"
       y="541.72461" />
    <rect
       style="fill:#f2f2f2;fill-opacity:1;stroke:none"
       id="rect4035-59-7"
       width="0"
       height="10.999983"
       x="362.49103"
       y="541.72461" />
    <rect
       style="fill:#f2f2f2;fill-opacity:1;stroke:none"
       id="rect4035-6-6"
       width="0"
       height="10.999983"
       x="355.18289"
       y="536.89001" />
    <rect
       style="fill:#f2f2f2;fill-opacity:1;stroke:none"
       id="rect4035-5-1-0"
       width="0"
       height="10.999983"
       x="373.22366"
       y="534.83862" />
    <rect
       style="fill:#f2f2f2;fill-opacity:1;stroke:none"
       id="rect4035-8-3-7"
       width="0"
       height="10.999983"
       x="355.18289"
       y="536.89001" />
    <rect
       style="fill:#f2f2f2;fill-opacity:1;stroke:none"
       id="rect4035-59-4-84"
       width="0"
       height="10.999983"
       x="355.18289"
       y="536.89001" />
    <rect
       style="fill:#f2f2f2;fill-opacity:1;stroke:none"
       id="rect4035-1-3"
       width="0"
       height="10.999983"
       x="361.19806"
       y="541.1062" />
    <rect
       style="fill:#f2f2f2;fill-opacity:1;stroke:none"
       id="rect4035-5-0-1"
       width="0"
       height="10.999983"
       x="379.23886"
       y="539.05493" />
    <rect
       style="fill:#f2f2f2;fill-opacity:1;stroke:none"
       id="rect4035-8-1-01"
       width="0"
       height="10.999983"
       x="361.19806"
       y="541.1062" />
    <rect
       style="fill:#f2f2f2;fill-opacity:1;stroke:none"
       id="rect4035-59-1-7"
       width="0"
       height="10.999983"
       x="361.19806"
       y="541.1062" />
    <path
       style="fill:#f2f2f2;fill-opacity:1;stroke:none;stroke-width:2;stroke-linecap:butt;stroke-linejoin:round;stroke-miterlimit:4;stroke-dasharray:none"
       d="M 4 4 L 4 7 L 4 28 L 16 28 L 16 27 L 5 27 L 5 14 L 10 14 L 13 11 L 27 11 L 27 16 L 28 16 L 28 7 L 18 7 L 15 4 L 4 4 z "
       transform="translate(384.57143,515.798)"
       id="rect4717" />
    <path
       style="fill:#f2f2f2;fill-opacity:1;stroke:none;stroke-width:2;stroke-linecap:butt;stroke-linejoin:round;stroke-miterlimit:4;stroke-dasharray:none"
       d="M 22 16 A 6 6 0 0 0 16 22 A 6 6 0 0 0 16.835938 25.042969 L 17.568359 24.310547 A 5 5 0 0 1 17 22 A 5 5 0 0 1 22 17 A 5 5 0 0 1 24.308594 17.570312 L 25.042969 16.835938 A 6 6 0 0 0 22 16 z M 27.164062 18.957031 L 26.431641 19.689453 A 5 5 0 0 1 27 22 A 5 5 0 0 1 22 27 A 5 5 0 0 1 19.691406 26.429688 L 18.957031 27.164062 A 6 6 0 0 0 22 28 A 6 6 0 0 0 28 22 A 6 6 0 0 0 27.164062 18.957031 z "
       transform="translate(384.57143,515.798)"
       id="path5325" />
  </g>
</svg>
