<?xml version="1.0" encoding="UTF-8" standalone="no"?>
<!-- Created with Inkscape (http://www.inkscape.org/) -->

<svg
   xmlns:dc="http://purl.org/dc/elements/1.1/"
   xmlns:cc="http://creativecommons.org/ns#"
   xmlns:rdf="http://www.w3.org/1999/02/22-rdf-syntax-ns#"
   xmlns:svg="http://www.w3.org/2000/svg"
   xmlns="http://www.w3.org/2000/svg"
   xmlns:sodipodi="http://sodipodi.sourceforge.net/DTD/sodipodi-0.dtd"
   xmlns:inkscape="http://www.inkscape.org/namespaces/inkscape"
   width="24"
   height="24"
   id="svg3760"
   version="1.1"
   inkscape:version="0.91+devel r"
   sodipodi:docname="lc_insertobjectchart.svg">
  <defs
     id="defs3762" />
  <sodipodi:namedview
     id="base"
     pagecolor="#ffffff"
     bordercolor="#666666"
     borderopacity="1.0"
     inkscape:pageopacity="0.0"
     inkscape:pageshadow="2"
     inkscape:zoom="48.150246"
     inkscape:cx="13.964804"
     inkscape:cy="8.2432896"
     inkscape:document-units="px"
     inkscape:current-layer="layer1"
     showgrid="true"
     fit-margin-top="0"
     fit-margin-left="0"
     fit-margin-right="0"
     fit-margin-bottom="0"
     inkscape:window-width="1366"
     inkscape:window-height="670"
     inkscape:window-x="-4"
     inkscape:window-y="29"
     inkscape:window-maximized="1"
     inkscape:showpageshadow="false"
     showguides="true">
    <inkscape:grid
       type="xygrid"
       id="grid4106"
       originx="1.8863594e-05px"
       originy="-1.7016406e-05px" />
    <sodipodi:guide
       position="3.0000144,20.999978"
       orientation="0,18"
       id="guide4229" />
    <sodipodi:guide
       position="21.000014,20.999978"
       orientation="18,0"
       id="guide4231" />
    <sodipodi:guide
       position="21.000014,2.9999782"
       orientation="0,-18"
       id="guide4233" />
    <sodipodi:guide
       position="3.0000144,2.9999782"
       orientation="-18,0"
       id="guide4235" />
    <sodipodi:guide
       position="4.0000144,19.999978"
       orientation="0,16"
       id="guide4237" />
    <sodipodi:guide
       position="20.000014,19.999978"
       orientation="16,0"
       id="guide4239" />
    <sodipodi:guide
       position="20.000014,3.9999782"
       orientation="0,-16"
       id="guide4241" />
    <sodipodi:guide
       position="4.0000144,3.9999782"
       orientation="-16,0"
       id="guide4243" />
  </sodipodi:namedview>
  <metadata
     id="metadata3765">
    <rdf:RDF>
      <cc:Work
         rdf:about="">
        <dc:format>image/svg+xml</dc:format>
        <dc:type
           rdf:resource="http://purl.org/dc/dcmitype/StillImage" />
        <dc:title />
      </cc:Work>
    </rdf:RDF>
  </metadata>
  <g
     inkscape:label="Capa 1"
     inkscape:groupmode="layer"
     id="layer1"
     transform="translate(-550.28571,-606.64789)">
    <path
       style="opacity:1;fill:#4d4d4d;fill-opacity:1;stroke:none;stroke-width:2.79999995;stroke-miterlimit:4;stroke-dasharray:none;stroke-opacity:0.55026455"
       d="M 12 4 A 8 8 0 0 0 11.193359 4.0410156 C 8.9781011 4.2609055 7.0390519 5.3804736 5.7324219 7.0273438 C 5.5681981 7.2343306 5.4148513 7.44885 5.2714844 7.671875 A 8 8 0 0 0 5.2578125 7.6953125 C 5.1186928 7.9133575 4.9889588 8.1372489 4.8710938 8.3691406 A 8 8 0 0 0 4.8691406 8.375 C 4.7565457 8.5969449 4.6544255 8.8251921 4.5625 9.0585938 A 8 8 0 0 0 4.5058594 9.2128906 C 4.4362008 9.401092 4.3720515 9.5904937 4.3164062 9.7851562 A 8 8 0 0 0 4.2539062 10.021484 C 4.2090992 10.198613 4.1675988 10.376901 4.1347656 10.558594 A 8 8 0 0 0 4.0917969 10.839844 C 4.0692022 10.996314 4.048625 11.153178 4.0351562 11.3125 A 8 8 0 0 0 4 12 A 8 8 0 0 0 4.0410156 12.806641 C 4.2609055 15.0219 5.3804736 16.960948 7.0273438 18.267578 C 7.2343306 18.431802 7.44885 18.585149 7.671875 18.728516 A 8 8 0 0 0 7.6953125 18.742188 C 7.9133575 18.881307 8.1372489 19.011041 8.3691406 19.128906 L 8.3710938 19.128906 A 8 8 0 0 0 8.375 19.130859 C 8.5969449 19.243454 8.8251921 19.345575 9.0585938 19.4375 A 8 8 0 0 0 9.2128906 19.494141 C 9.401092 19.563799 9.5904937 19.627949 9.7851562 19.683594 A 8 8 0 0 0 10.021484 19.746094 C 10.198613 19.790901 10.376901 19.832401 10.558594 19.865234 A 8 8 0 0 0 10.839844 19.908203 C 10.996314 19.930798 11.153178 19.951375 11.3125 19.964844 A 8 8 0 0 0 12 20 A 8 8 0 0 0 12.966797 19.935547 C 13.020741 19.928711 13.073351 19.918053 13.126953 19.910156 A 8 8 0 0 0 13.916016 19.755859 C 13.943468 19.749109 13.972652 19.747234 14 19.740234 L 14 19.734375 L 14 18.703125 A 7 7 0 0 1 13.953125 18.716797 C 13.667749 18.799242 13.375174 18.865115 13.076172 18.912109 A 7 7 0 0 1 12.910156 18.931641 C 12.611803 18.971286 12.309571 19 12 19 A 7 7 0 0 1 11.300781 18.964844 A 7 7 0 0 1 10.677734 18.871094 A 7 7 0 0 1 10.609375 18.861328 L 10.607422 18.861328 A 7 7 0 0 1 5.765625 15.181641 A 7 7 0 0 1 5.7539062 15.160156 A 7 7 0 0 1 5.4863281 14.560547 C 5.4752533 14.532247 5.4657947 14.503089 5.4550781 14.474609 A 7 7 0 0 1 5.2734375 13.927734 C 5.2554901 13.864605 5.2408237 13.800182 5.2246094 13.736328 A 7 7 0 0 1 5.1210938 13.279297 C 5.1038531 13.185357 5.0915996 13.089377 5.078125 12.994141 A 7 7 0 0 1 5.0292969 12.589844 C 5.0131018 12.394712 5 12.199454 5 12 C 5 11.763555 5.0124807 11.53107 5.0351562 11.300781 A 7 7 0 0 1 5.1289062 10.677734 A 7 7 0 0 1 5.1386719 10.607422 A 7 7 0 0 1 8.8183594 5.765625 A 7 7 0 0 1 8.8398438 5.7539062 A 7 7 0 0 1 9.4394531 5.4863281 C 9.4677527 5.4752533 9.4969107 5.4657947 9.5253906 5.4550781 A 7 7 0 0 1 10.072266 5.2734375 C 10.135395 5.2554901 10.199818 5.2408237 10.263672 5.2246094 A 7 7 0 0 1 10.720703 5.1210938 C 10.814643 5.1038531 10.910623 5.0915996 11.005859 5.078125 A 7 7 0 0 1 11.410156 5.0292969 C 11.605288 5.0131018 11.800546 5 12 5 L 12 12 L 19 11.992188 A 7 7 0 0 1 19 12 C 19 12.314195 18.972448 12.621202 18.931641 12.923828 A 7 7 0 0 1 18.900391 13.126953 C 18.854749 13.403836 18.796815 13.676301 18.720703 13.941406 A 7 7 0 0 1 18.701172 14 L 19.740234 14 A 8 8 0 0 0 19.912109 13.117188 C 19.922894 13.043347 19.930694 12.969017 19.939453 12.894531 A 8 8 0 0 0 20 12 C 20 11.73027 19.986759 11.463892 19.960938 11.201172 A 8 8 0 0 0 19.958984 11.193359 C 19.739094 8.9781011 18.619526 7.0390519 16.972656 5.7324219 C 16.765669 5.5681981 16.55115 5.4148513 16.328125 5.2714844 C 16.326152 5.270216 16.32424 5.2688449 16.322266 5.2675781 A 8 8 0 0 0 16.304688 5.2578125 C 16.086642 5.1186928 15.862751 4.9889588 15.630859 4.8710938 L 15.628906 4.8710938 A 8 8 0 0 0 15.625 4.8691406 C 15.403055 4.7565457 15.174808 4.6544255 14.941406 4.5625 A 8 8 0 0 0 14.787109 4.5058594 C 14.598908 4.4362008 14.409506 4.3720515 14.214844 4.3164062 A 8 8 0 0 0 13.978516 4.2539062 C 13.801387 4.2090992 13.623099 4.1675988 13.441406 4.1347656 A 8 8 0 0 0 13.160156 4.0917969 C 13.003686 4.0692022 12.846822 4.048625 12.6875 4.0351562 A 8 8 0 0 0 12 4 z M 17 15 L 17 17 L 15 17 L 15 18 L 17 18 L 17 20 L 18 20 L 18 18 L 20 18 L 20 17 L 18 17 L 18 15 L 17 15 z "
       transform="translate(550.28571,606.64789)"
       id="rect4147" />
  </g>
</svg>
