<?xml version="1.0" encoding="UTF-8" standalone="no"?>
<!-- Created with Inkscape (http://www.inkscape.org/) -->

<svg
   xmlns:dc="http://purl.org/dc/elements/1.1/"
   xmlns:cc="http://creativecommons.org/ns#"
   xmlns:rdf="http://www.w3.org/1999/02/22-rdf-syntax-ns#"
   xmlns:svg="http://www.w3.org/2000/svg"
   xmlns="http://www.w3.org/2000/svg"
   xmlns:sodipodi="http://sodipodi.sourceforge.net/DTD/sodipodi-0.dtd"
   xmlns:inkscape="http://www.inkscape.org/namespaces/inkscape"
   width="24"
   height="24"
   id="svg3760"
   version="1.1"
   inkscape:version="0.91+devel r"
   sodipodi:docname="lc_insertsymbol.svg">
  <defs
     id="defs3762" />
  <sodipodi:namedview
     id="base"
     pagecolor="#ffffff"
     bordercolor="#666666"
     borderopacity="1.0"
     inkscape:pageopacity="0.0"
     inkscape:pageshadow="2"
     inkscape:zoom="22.627417"
     inkscape:cx="9.6535362"
     inkscape:cy="10.710188"
     inkscape:document-units="px"
     inkscape:current-layer="layer1"
     showgrid="true"
     fit-margin-top="0"
     fit-margin-left="0"
     fit-margin-right="0"
     fit-margin-bottom="0"
     inkscape:window-width="1366"
     inkscape:window-height="670"
     inkscape:window-x="-4"
     inkscape:window-y="29"
     inkscape:window-maximized="1"
     inkscape:showpageshadow="false"
     showguides="true">
    <inkscape:grid
       type="xygrid"
       id="grid4106"
       originx="1.8863594e-05px"
       originy="-1.7016406e-05px" />
    <sodipodi:guide
       position="3.0000144,20.999978"
       orientation="0,18"
       id="guide4229" />
    <sodipodi:guide
       position="21.000014,20.999978"
       orientation="18,0"
       id="guide4231" />
    <sodipodi:guide
       position="21.000014,2.9999782"
       orientation="0,-18"
       id="guide4233" />
    <sodipodi:guide
       position="3.0000144,2.9999782"
       orientation="-18,0"
       id="guide4235" />
    <sodipodi:guide
       position="4.0000144,19.999978"
       orientation="0,16"
       id="guide4237" />
    <sodipodi:guide
       position="20.000014,19.999978"
       orientation="16,0"
       id="guide4239" />
    <sodipodi:guide
       position="20.000014,3.9999782"
       orientation="0,-16"
       id="guide4241" />
    <sodipodi:guide
       position="4.0000144,3.9999782"
       orientation="-16,0"
       id="guide4243" />
  </sodipodi:namedview>
  <metadata
     id="metadata3765">
    <rdf:RDF>
      <cc:Work
         rdf:about="">
        <dc:format>image/svg+xml</dc:format>
        <dc:type
           rdf:resource="http://purl.org/dc/dcmitype/StillImage" />
        <dc:title></dc:title>
      </cc:Work>
    </rdf:RDF>
  </metadata>
  <g
     inkscape:label="Capa 1"
     inkscape:groupmode="layer"
     id="layer1"
     transform="translate(-550.28571,-606.64789)">
    <path
       style="fill:#4d4d4d;fill-opacity:1;fill-rule:evenodd;stroke:none;stroke-width:1px;stroke-linecap:butt;stroke-linejoin:miter;stroke-opacity:1"
       d="M 12 4 A 8 6.9999976 0 0 0 4 11 A 8 6.9999976 0 0 0 8.0175781 17.054688 L 8.3339844 18 L 5 18 C 3.94099 17.71621 4 17 4 17 L 4 20 L 10.400391 20 L 10.400391 18 L 10.400391 17.599609 L 9.8847656 17.378906 A 4.9999757 6.4999814 0 0 1 7 11.5 A 4.9999757 6.4999814 0 0 1 12 5 A 4.9999757 6.4999814 0 0 1 17 11.5 A 4.9999757 6.4999814 0 0 1 16.611328 14 L 19.214844 14 A 8 6.9999976 0 0 0 20 11 A 8 6.9999976 0 0 0 12 4 z M 17 15 L 17 17 L 15 17 L 15 18 L 17 18 L 17 20 L 18 20 L 18 18 L 20 18 L 20 17 L 18 17 L 18 15 L 17 15 z "
       transform="translate(550.28571,606.64789)"
       id="path4172" />
  </g>
</svg>
