<?xml version="1.0" encoding="UTF-8" standalone="no"?>
<!-- Created with Inkscape (http://www.inkscape.org/) -->

<svg
   xmlns:dc="http://purl.org/dc/elements/1.1/"
   xmlns:cc="http://creativecommons.org/ns#"
   xmlns:rdf="http://www.w3.org/1999/02/22-rdf-syntax-ns#"
   xmlns:svg="http://www.w3.org/2000/svg"
   xmlns="http://www.w3.org/2000/svg"
   xmlns:sodipodi="http://sodipodi.sourceforge.net/DTD/sodipodi-0.dtd"
   xmlns:inkscape="http://www.inkscape.org/namespaces/inkscape"
   width="24"
   height="24"
   id="svg3813"
   version="1.1"
   inkscape:version="0.91+devel r"
   sodipodi:docname="lc_paragraphdialog.svg">
  <defs
     id="defs3815" />
  <sodipodi:namedview
     id="base"
     pagecolor="#ffffff"
     bordercolor="#666666"
     borderopacity="1.0"
     inkscape:pageopacity="0.0"
     inkscape:pageshadow="2"
     inkscape:zoom="47.958612"
     inkscape:cx="12.216729"
     inkscape:cy="6.4701036"
     inkscape:document-units="px"
     inkscape:current-layer="layer1"
     showgrid="true"
     fit-margin-top="0"
     fit-margin-left="0"
     fit-margin-right="0"
     fit-margin-bottom="0"
     inkscape:window-width="1366"
     inkscape:window-height="670"
     inkscape:window-x="-4"
     inkscape:window-y="29"
     inkscape:window-maximized="1"
     inkscape:showpageshadow="false"
     inkscape:snap-bbox="true">
    <inkscape:grid
       type="xygrid"
       id="grid4109"
       originx="0.99999278px"
       originy="1.0000071px" />
    <sodipodi:guide
       position="3,21"
       orientation="18,0"
       id="guide4115" />
    <sodipodi:guide
       position="3,3"
       orientation="0,18"
       id="guide4117" />
    <sodipodi:guide
       position="21,3"
       orientation="-18,0"
       id="guide4119" />
    <sodipodi:guide
       position="21,21"
       orientation="0,-18"
       id="guide4121" />
    <sodipodi:guide
       position="4,20"
       orientation="16,0"
       id="guide4123" />
    <sodipodi:guide
       position="4,4"
       orientation="0,16"
       id="guide4125" />
    <sodipodi:guide
       position="20,4"
       orientation="-16,0"
       id="guide4127" />
    <sodipodi:guide
       position="20,20"
       orientation="0,-16"
       id="guide4129" />
  </sodipodi:namedview>
  <metadata
     id="metadata3818">
    <rdf:RDF>
      <cc:Work
         rdf:about="">
        <dc:format>image/svg+xml</dc:format>
        <dc:type
           rdf:resource="http://purl.org/dc/dcmitype/StillImage" />
        <dc:title />
      </cc:Work>
    </rdf:RDF>
  </metadata>
  <g
     inkscape:label="Capa 1"
     inkscape:groupmode="layer"
     id="layer1"
     transform="translate(-377.85715,-539.07648)">
    <path
       style="color:#000000;display:inline;overflow:visible;visibility:visible;opacity:0.98692812;fill:#4d4d4d;fill-opacity:1;fill-rule:nonzero;stroke:none;stroke-width:4;marker:none;enable-background:accumulate"
       d="M 9 4 C 6.23858 4 4 6.23857 4 9 C 4 11.76142 6.23858 14 9 14 L 9 17 L 10 17 L 10 5 L 11 5 L 11 17 L 12 17 L 12 4 L 10 4 L 9 4 z M 11 18 A 1 1 0 0 0 10 19 A 1 1 0 0 0 11 20 A 1 1 0 0 0 12 19 A 1 1 0 0 0 11 18 z M 15 18 A 1 1 0 0 0 14 19 A 1 1 0 0 0 15 20 A 1 1 0 0 0 16 19 A 1 1 0 0 0 15 18 z M 19 18 A 1 1 0 0 0 18 19 A 1 1 0 0 0 19 20 A 1 1 0 0 0 20 19 A 1 1 0 0 0 19 18 z "
       transform="translate(377.85715,539.07648)"
       id="rect3016" />
  </g>
</svg>
