<?xml version="1.0" encoding="UTF-8" standalone="no"?>
<!-- Created with Inkscape (http://www.inkscape.org/) -->

<svg
   xmlns:dc="http://purl.org/dc/elements/1.1/"
   xmlns:cc="http://creativecommons.org/ns#"
   xmlns:rdf="http://www.w3.org/1999/02/22-rdf-syntax-ns#"
   xmlns:svg="http://www.w3.org/2000/svg"
   xmlns="http://www.w3.org/2000/svg"
   xmlns:sodipodi="http://sodipodi.sourceforge.net/DTD/sodipodi-0.dtd"
   xmlns:inkscape="http://www.inkscape.org/namespaces/inkscape"
   width="24"
   height="24"
   id="svg3869"
   version="1.1"
   inkscape:version="0.91+devel r"
   sodipodi:docname="lc_sendmail.svg">
  <defs
     id="defs3871" />
  <sodipodi:namedview
     id="base"
     pagecolor="#ffffff"
     bordercolor="#666666"
     borderopacity="1.0"
     inkscape:pageopacity="0.0"
     inkscape:pageshadow="2"
     inkscape:zoom="22.98097"
     inkscape:cx="8.0258866"
     inkscape:cy="13.459726"
     inkscape:document-units="px"
     inkscape:current-layer="layer1"
     showgrid="true"
     fit-margin-top="0"
     fit-margin-left="0"
     fit-margin-right="0"
     fit-margin-bottom="0"
     inkscape:window-width="1366"
     inkscape:window-height="670"
     inkscape:window-x="-4"
     inkscape:window-y="29"
     inkscape:window-maximized="1"
     inkscape:showpageshadow="false">
    <inkscape:grid
       type="xygrid"
       id="grid4132"
       originx="1px"
       originy="0.99998262px" />
    <sodipodi:guide
       position="1,22.999997"
       orientation="22,0"
       id="guide4160" />
    <sodipodi:guide
       position="1,0.99999738"
       orientation="0,22"
       id="guide4162" />
    <sodipodi:guide
       position="23,0.99999738"
       orientation="-22,0"
       id="guide4164" />
    <sodipodi:guide
       position="23,22.999997"
       orientation="0,-22"
       id="guide4166" />
    <sodipodi:guide
       position="4,19.999997"
       orientation="16,0"
       id="guide4168" />
    <sodipodi:guide
       position="4,3.9999974"
       orientation="0,16"
       id="guide4170" />
    <sodipodi:guide
       position="20,3.9999974"
       orientation="-16,0"
       id="guide4172" />
    <sodipodi:guide
       position="20,19.999997"
       orientation="0,-16"
       id="guide4174" />
  </sodipodi:namedview>
  <metadata
     id="metadata3874">
    <rdf:RDF>
      <cc:Work
         rdf:about="">
        <dc:format>image/svg+xml</dc:format>
        <dc:type
           rdf:resource="http://purl.org/dc/dcmitype/StillImage" />
        <dc:title />
      </cc:Work>
    </rdf:RDF>
  </metadata>
  <g
     inkscape:label="Capa 1"
     inkscape:groupmode="layer"
     id="layer1"
     transform="translate(-325,-533.36218)">
    <path
       style="color:#000000;text-decoration:none;text-decoration-line:none;text-decoration-style:solid;text-decoration-color:#000000;clip-rule:nonzero;display:inline;overflow:visible;visibility:visible;opacity:1;isolation:auto;mix-blend-mode:normal;color-interpolation:sRGB;color-interpolation-filters:linearRGB;solid-color:#000000;solid-opacity:1;fill:#4d4d4d;fill-opacity:1;fill-rule:nonzero;stroke:none;stroke-width:1;stroke-linecap:butt;stroke-linejoin:miter;stroke-miterlimit:4;stroke-dasharray:none;stroke-dashoffset:0;stroke-opacity:1;color-rendering:auto;image-rendering:auto;shape-rendering:auto;text-rendering:auto;enable-background:accumulate"
       d="m 344.5595,538.77619 c 1.1752,1.1752 1.17521,3.06743 0,4.24264 l -0.70711,0.70711 -8.46123,8.46123 c -1.56695,1.56695 -4.08991,1.56695 -5.65685,0 -1.56696,-1.56694 -1.56696,-4.0899 0,-5.65686 l 9.16834,-9.16834 0.7071,0.70711 -9.16834,9.16835 c -1.17522,1.17521 -1.17522,3.06743 0,4.24264 1.17521,1.17521 3.06743,1.17521 4.24264,0 l 9.16834,-9.16835 c 0.78348,-0.78348 0.78348,-2.04496 0,-2.82842 -0.78347,-0.78349 -2.04494,-0.78349 -2.82842,0 l -0.70711,0.7071 -8.46123,8.46123 c -0.39175,0.39175 -0.39174,1.0225 0,1.41422 0.39172,0.39174 1.02247,0.39174 1.41421,0 l 0.7071,-0.7071 7.75413,-7.75413 0.70711,0.7071 -8.46123,8.46123 c -0.78348,0.78349 -2.04496,0.78349 -2.82844,10e-6 -0.78347,-0.78347 -0.78347,-2.04495 1e-5,-2.82843 l 8.46123,-8.46123 0.70711,-0.70711 c 1.17521,-1.17521 3.06743,-1.17521 4.24264,0 z"
       id="rect4173"
       inkscape:connector-curvature="0"
       sodipodi:nodetypes="sscsssccsssscscscscccssscss" />
  </g>
</svg>
