<?xml version="1.0" encoding="UTF-8" standalone="no"?>
<!-- Created with Inkscape (http://www.inkscape.org/) -->

<svg
   xmlns:dc="http://purl.org/dc/elements/1.1/"
   xmlns:cc="http://creativecommons.org/ns#"
   xmlns:rdf="http://www.w3.org/1999/02/22-rdf-syntax-ns#"
   xmlns:svg="http://www.w3.org/2000/svg"
   xmlns="http://www.w3.org/2000/svg"
   xmlns:sodipodi="http://sodipodi.sourceforge.net/DTD/sodipodi-0.dtd"
   xmlns:inkscape="http://www.inkscape.org/namespaces/inkscape"
   width="24"
   height="24"
   id="svg2"
   version="1.1"
   inkscape:version="0.91+devel r"
   viewBox="0 0 24 24"
   sodipodi:docname="lc_tablesort.svg">
  <defs
     id="defs4" />
  <sodipodi:namedview
     id="base"
     pagecolor="#ffffff"
     bordercolor="#666666"
     borderopacity="1.0"
     inkscape:pageopacity="0.0"
     inkscape:pageshadow="2"
     inkscape:zoom="25.15656"
     inkscape:cx="5.3954464"
     inkscape:cy="12.805664"
     inkscape:document-units="px"
     inkscape:current-layer="layer1"
     showgrid="true"
     inkscape:showpageshadow="false"
     units="px"
     inkscape:window-width="1366"
     inkscape:window-height="670"
     inkscape:window-x="-4"
     inkscape:window-y="29"
     inkscape:window-maximized="1"
     showguides="true"
     fit-margin-top="0"
     fit-margin-left="0"
     fit-margin-right="0"
     fit-margin-bottom="0">
    <inkscape:grid
       type="xygrid"
       id="grid4120"
       originx="1px"
       originy="0.99998262px" />
    <sodipodi:guide
       position="3,21"
       orientation="18,0"
       id="guide4126" />
    <sodipodi:guide
       position="3,3"
       orientation="0,18"
       id="guide4128" />
    <sodipodi:guide
       position="21,3"
       orientation="-18,0"
       id="guide4130" />
    <sodipodi:guide
       position="21,21"
       orientation="0,-18"
       id="guide4132" />
    <sodipodi:guide
       position="4,20"
       orientation="16,0"
       id="guide4134" />
    <sodipodi:guide
       position="4,4"
       orientation="0,16"
       id="guide4136" />
    <sodipodi:guide
       position="20,4"
       orientation="-16,0"
       id="guide4138" />
    <sodipodi:guide
       position="20,20"
       orientation="0,-16"
       id="guide4140" />
    <sodipodi:guide
       position="20,14"
       orientation="-6,0"
       id="guide4199" />
    <sodipodi:guide
       position="20,20"
       orientation="0,-6.0000172"
       id="guide4201" />
  </sodipodi:namedview>
  <metadata
     id="metadata7">
    <rdf:RDF>
      <cc:Work
         rdf:about="">
        <dc:format>image/svg+xml</dc:format>
        <dc:type
           rdf:resource="http://purl.org/dc/dcmitype/StillImage" />
        <dc:title />
      </cc:Work>
    </rdf:RDF>
  </metadata>
  <g
     inkscape:label="Capa 1"
     inkscape:groupmode="layer"
     id="layer1"
     transform="translate(1,-1029.3622)">
    <path
       style="font-style:normal;font-variant:normal;font-weight:bold;font-stretch:normal;font-size:medium;line-height:125%;font-family:Oxygen;-inkscape-font-specification:'Oxygen Bold';letter-spacing:0px;word-spacing:0px;fill:#4d4d4d;fill-opacity:1;stroke:none;stroke-width:1px;stroke-linecap:butt;stroke-linejoin:miter;stroke-opacity:1"
       d="M 6.09375 4 C 5.31051 4.018 4.7105975 4.1550688 4.2734375 4.3554688 L 4.5195312 5.2558594 C 4.7290013 5.1828594 5.5218481 4.9296875 5.9863281 4.9296875 L 6.0488281 4.9296875 C 6.6954581 4.9566875 6.7421875 5.1925469 6.7421875 5.7480469 L 6.7421875 5.9667969 L 6.4042969 6.0214844 C 4.8378069 6.2485844 4 6.4403781 4 7.6425781 C 4 8.4804781 4.6107106 9 5.4941406 9 C 6.1043406 9 6.5042325 8.7445375 6.9140625 8.3984375 L 7.0410156 8.9082031 L 8.0078125 8.9082031 L 8.0078125 5.5390625 C 8.0078125 4.5099625 7.296025 4 6.203125 4 L 6.09375 4 z M 6.7421875 6.6777344 L 6.7421875 7.796875 C 6.4052175 8.024575 6.1500506 8.1894531 5.7128906 8.1894531 C 5.3212706 8.1894531 5.1289063 7.9437562 5.1289062 7.5976562 C 5.1289062 6.9419562 5.7030169 6.8326219 6.4042969 6.7324219 L 6.7421875 6.6777344 z M 9.8535156 9.1464844 L 9.1464844 9.8535156 L 13.292969 14 L 10 14 L 10 15 L 15 15 L 15 14 L 15 10 L 14 10 L 14 13.292969 L 9.8535156 9.1464844 z M 16.28125 15.199219 L 16.28125 16.013672 L 18.353516 16.013672 L 16.171875 19.269531 L 16.171875 20 L 20 20 L 20 19.148438 L 17.751953 19.148438 L 19.925781 15.857422 L 19.925781 15.199219 L 16.28125 15.199219 z "
       transform="translate(-1,1029.3622)"
       id="path4153" />
  </g>
</svg>
