<?xml version="1.0" encoding="UTF-8" standalone="no"?>
<!-- Created with Inkscape (http://www.inkscape.org/) -->

<svg
   xmlns:dc="http://purl.org/dc/elements/1.1/"
   xmlns:cc="http://creativecommons.org/ns#"
   xmlns:rdf="http://www.w3.org/1999/02/22-rdf-syntax-ns#"
   xmlns:svg="http://www.w3.org/2000/svg"
   xmlns="http://www.w3.org/2000/svg"
   xmlns:sodipodi="http://sodipodi.sourceforge.net/DTD/sodipodi-0.dtd"
   xmlns:inkscape="http://www.inkscape.org/namespaces/inkscape"
   width="24"
   height="24"
   id="svg2"
   version="1.1"
   inkscape:version="0.91 r13725"
   viewBox="0 0 24 24"
   sodipodi:docname="kdeconnect-tray.svg">
  <defs
     id="defs4" />
  <sodipodi:namedview
     id="base"
     pagecolor="#ffffff"
     bordercolor="#666666"
     borderopacity="1.0"
     inkscape:pageopacity="0.0"
     inkscape:pageshadow="2"
     inkscape:zoom="23.270241"
     inkscape:cx="11.078624"
     inkscape:cy="14.671194"
     inkscape:document-units="px"
     inkscape:current-layer="layer1"
     showgrid="true"
     inkscape:showpageshadow="false"
     units="px"
     inkscape:window-width="2560"
     inkscape:window-height="955"
     inkscape:window-x="0"
     inkscape:window-y="35"
     inkscape:window-maximized="1"
     inkscape:snap-bbox="true"
     inkscape:object-nodes="true"
     fit-margin-top="0"
     fit-margin-left="0"
     fit-margin-right="0"
     fit-margin-bottom="0"
     showguides="true">
    <inkscape:grid
       type="xygrid"
       id="grid4101"
       originx="1"
       originy="0.99998262" />
    <sodipodi:guide
       position="3,21"
       orientation="18,0"
       id="guide4107" />
    <sodipodi:guide
       position="3,3"
       orientation="0,18"
       id="guide4109" />
    <sodipodi:guide
       position="21,3"
       orientation="-18,0"
       id="guide4111" />
    <sodipodi:guide
       position="21,21"
       orientation="0,-18"
       id="guide4113" />
    <sodipodi:guide
       position="4,20"
       orientation="16,0"
       id="guide4115" />
    <sodipodi:guide
       position="4,4"
       orientation="0,16"
       id="guide4117" />
    <sodipodi:guide
       position="20,4"
       orientation="-16,0"
       id="guide4119" />
    <sodipodi:guide
       position="20,20"
       orientation="0,-16"
       id="guide4121" />
  </sodipodi:namedview>
  <metadata
     id="metadata7">
    <rdf:RDF>
      <cc:Work
         rdf:about="">
        <dc:format>image/svg+xml</dc:format>
        <dc:type
           rdf:resource="http://purl.org/dc/dcmitype/StillImage" />
        <dc:title />
      </cc:Work>
    </rdf:RDF>
  </metadata>
  <g
     inkscape:label="Capa 1"
     inkscape:groupmode="layer"
     id="layer1"
     transform="translate(1,-1029.3622)">
    <path
       style="opacity:1;fill:#f2f2f2;fill-opacity:1;stroke:none;stroke-width:0.1;stroke-linecap:square;stroke-linejoin:miter;stroke-miterlimit:4;stroke-dasharray:none;stroke-dashoffset:0;stroke-opacity:1"
       d="m 6,1033.3622 0,16 10,0 0,-16 z m 3,1 4,0 0,1 -4,0 z m -2,2 8,0 0,5.5 -1.107422,-0.2773 c -0.0672,-0.2522 -0.166996,-0.4944 -0.296875,-0.7207 l 0.585938,-0.9766 -0.707032,-0.707 -0.976562,0.5859 c -0.226716,-0.1314 -0.469668,-0.2325 -0.722656,-0.3008 L 11.5,1038.3622 l -1,0 -0.277344,1.1074 c -0.252122,0.067 -0.494401,0.167 -0.720703,0.2969 l -0.976562,-0.5859 -0.707032,0.707 0.585938,0.9766 c -0.131391,0.2267 -0.232511,0.4696 -0.300781,0.7226 L 7,1041.8622 Z m 4,4 c 0.06653,-10e-5 0.133016,0 0.199219,0.01 0.0662,0.01 0.132038,0.016 0.197265,0.029 0.06592,0.014 0.131105,0.031 0.195313,0.051 0.0636,0.02 0.126177,0.043 0.1875,0.068 0.06129,0.026 0.121256,0.054 0.179687,0.086 0.05836,0.032 0.115076,0.068 0.169922,0.1054 0.05538,0.038 0.108832,0.078 0.160156,0.1211 0.05108,0.043 0.09997,0.089 0.146485,0.1368 0.04604,0.047 0.08971,0.097 0.130859,0.1484 0.0418,0.053 0.08091,0.1074 0.117188,0.1641 0.03609,0.056 0.06933,0.1142 0.09961,0.1738 0.02968,0.059 0.05641,0.1198 0.08008,0.1816 0.02463,0.062 0.04614,0.1253 0.06445,0.1895 0.01757,0.064 0.03191,0.1295 0.04297,0.1953 0.01114,0.066 0.01896,0.1325 0.02344,0.1992 0.0036,0.047 0.0056,0.094 0.0059,0.1406 6e-5,0.067 -0.0032,0.1331 -0.0098,0.1993 -0.0065,0.066 -0.01626,0.132 -0.0293,0.1972 -0.01363,0.066 -0.03058,0.1311 -0.05078,0.1953 -0.01965,0.064 -0.04247,0.1262 -0.06836,0.1875 -0.02564,0.061 -0.05432,0.1213 -0.08594,0.1797 -0.0323,0.058 -0.0675,0.1151 -0.105468,0.1699 -0.03766,0.055 -0.07807,0.1089 -0.121094,0.1602 -0.0431,0.051 -0.08873,0.1 -0.136719,0.1465 -0.04729,0.046 -0.09683,0.09 -0.148437,0.1308 -0.05268,0.042 -0.10744,0.081 -0.164063,0.1172 -0.05624,0.036 -0.114258,0.069 -0.173828,0.1 -0.05918,0.03 -0.119806,0.056 -0.181641,0.08 -0.06204,0.025 -0.125266,0.046 -0.189453,0.064 -0.06435,0.017 -0.129532,0.032 -0.195312,0.043 -0.06597,0.011 -0.132462,0.019 -0.199219,0.023 -0.02795,0 -0.05595,0 -0.08398,0.01 l -0.136719,0 c -0.03976,-8e-4 -0.07949,0 -0.119141,-0.01 -0.0662,-0.01 -0.132038,-0.016 -0.197265,-0.029 -0.06592,-0.014 -0.131105,-0.031 -0.195313,-0.051 -0.0636,-0.02 -0.126177,-0.043 -0.1875,-0.068 -0.06129,-0.026 -0.121256,-0.054 -0.179687,-0.086 -0.05836,-0.032 -0.115076,-0.068 -0.169922,-0.1055 -0.05538,-0.038 -0.108832,-0.078 -0.160156,-0.1211 -0.03011,-0.026 -0.05942,-0.054 -0.08789,-0.082 l -0.08789,-0.088 c -0.03532,-0.037 -0.0692,-0.075 -0.101562,-0.1152 -0.0418,-0.053 -0.08091,-0.1075 -0.117188,-0.1641 -0.03609,-0.056 -0.06933,-0.1142 -0.09961,-0.1738 -0.02968,-0.059 -0.05641,-0.1198 -0.08008,-0.1816 -0.02463,-0.062 -0.04614,-0.1253 -0.06445,-0.1895 -0.01757,-0.064 -0.03191,-0.1295 -0.04297,-0.1953 -0.01114,-0.066 -0.01896,-0.1325 -0.02344,-0.1992 -0.0036,-0.047 -0.0056,-0.094 -0.0059,-0.1407 -6e-5,-0.066 0.0032,-0.133 0.0098,-0.1992 0.0065,-0.066 0.01626,-0.132 0.0293,-0.1972 0.01363,-0.066 0.03058,-0.1311 0.05078,-0.1954 0.01965,-0.064 0.04247,-0.1261 0.06836,-0.1875 0.02564,-0.061 0.05432,-0.1212 0.08594,-0.1796 0.0323,-0.058 0.0675,-0.1151 0.105468,-0.17 0.03766,-0.055 0.07807,-0.1088 0.121094,-0.1601 0.0431,-0.051 0.08873,-0.1 0.136719,-0.1465 0.04729,-0.046 0.09683,-0.09 0.148437,-0.1309 0.05268,-0.042 0.10744,-0.081 0.164063,-0.1171 0.05624,-0.036 0.114258,-0.069 0.173828,-0.1 0.05918,-0.03 0.119806,-0.056 0.181641,-0.08 0.06204,-0.025 0.125266,-0.046 0.189453,-0.064 0.06435,-0.018 0.129532,-0.032 0.195312,-0.043 0.06597,-0.011 0.132462,-0.019 0.199219,-0.023 0.04674,0 0.09364,-0.01 0.140619,-0.01 z m -4,2.5 1.107422,0.2773 c 0.0672,0.2522 0.166996,0.4944 0.296875,0.7207 l -0.585938,0.9766 0.707032,0.707 0.976562,-0.5859 c 0.226716,0.1314 0.469668,0.2325 0.722656,0.3008 l 0.275391,1.1035 1,0 0.277344,-1.1074 c 0.252122,-0.067 0.494401,-0.167 0.720703,-0.2969 l 0.976562,0.5859 0.707032,-0.707 -0.585938,-0.9766 c 0.131391,-0.2267 0.232511,-0.4696 0.300781,-0.7226 L 15,1042.8622 l 0,3.5 0,1 -2,0 -4,0 -2,0 0,-1 z"
       id="rect4403"
       inkscape:connector-curvature="0"
       sodipodi:nodetypes="ccccccccccccccccccccccccccccccccccccccccccccccccccccccccccccccccccccccccccccccccccccccccccccccccccccccccccccccccccccccc" />
  </g>
</svg>
