<?xml version="1.0" encoding="UTF-8" standalone="no"?>
<!-- Created with Inkscape (http://www.inkscape.org/) -->

<svg
   xmlns:dc="http://purl.org/dc/elements/1.1/"
   xmlns:cc="http://creativecommons.org/ns#"
   xmlns:rdf="http://www.w3.org/1999/02/22-rdf-syntax-ns#"
   xmlns:svg="http://www.w3.org/2000/svg"
   xmlns="http://www.w3.org/2000/svg"
   xmlns:sodipodi="http://sodipodi.sourceforge.net/DTD/sodipodi-0.dtd"
   xmlns:inkscape="http://www.inkscape.org/namespaces/inkscape"
   width="22"
   height="22"
   id="svg952"
   version="1.1"
   inkscape:version="0.91 r13725"
   sodipodi:docname="security-high.svg">
  <defs
     id="defs954" />
  <sodipodi:namedview
     id="base"
     pagecolor="#ffffff"
     bordercolor="#666666"
     borderopacity="1.0"
     inkscape:pageopacity="0.0"
     inkscape:pageshadow="2"
     inkscape:zoom="8"
     inkscape:cx="32.248922"
     inkscape:cy="6.4422027"
     inkscape:document-units="px"
     inkscape:current-layer="layer1"
     showgrid="true"
     inkscape:window-width="1366"
     inkscape:window-height="709"
     inkscape:window-x="-4"
     inkscape:window-y="0"
     inkscape:window-maximized="1"
     showguides="true"
     inkscape:guide-bbox="true"
     inkscape:showpageshadow="false"
     borderlayer="true"
     inkscape:snap-bbox="true"
     inkscape:bbox-nodes="true"
     inkscape:object-nodes="true"
     inkscape:snap-global="true">
    <inkscape:grid
       type="xygrid"
       id="grid4063" />
    <sodipodi:guide
       position="3,5"
       orientation="12,0"
       id="guide3284" />
    <sodipodi:guide
       position="7,3"
       orientation="0,12"
       id="guide3286" />
    <sodipodi:guide
       position="19,2"
       orientation="-12,0"
       id="guide3288" />
    <sodipodi:guide
       position="11,19"
       orientation="0,1"
       id="guide4143" />
  </sodipodi:namedview>
  <metadata
     id="metadata957">
    <rdf:RDF>
      <cc:Work
         rdf:about="">
        <dc:format>image/svg+xml</dc:format>
        <dc:type
           rdf:resource="http://purl.org/dc/dcmitype/StillImage" />
        <dc:title />
      </cc:Work>
    </rdf:RDF>
  </metadata>
  <g
     inkscape:label="Capa 1"
     inkscape:groupmode="layer"
     id="layer1"
     transform="translate(0,-1030.3622)">
    <path
       inkscape:connector-curvature="0"
       style="fill:#f2f2f2;fill-opacity:1;stroke:none"
       d="m 11,1035.9384 c -1.743491,1.2103 -3.702151,1.8232 -5.667969,2.2402 0.930846,5.282 2.936084,7.5407 5.667969,8.9551 2.731885,-1.4144 4.737124,-3.6731 5.667969,-8.9551 -1.965818,-0.417 -3.924478,-1.0299 -5.667969,-2.2402 z"
       id="path4943-9-4-1-2" />
    <path
       inkscape:connector-curvature="0"
       style="fill:#f2f2f2;fill-opacity:1;stroke:none"
       d="m 11,1033.3622 c 0,0 -2,2.6575 -8,3.3242 0,0 0,9.3339 8,12.6758 8,-3.3419 8,-12.6758 8,-12.6758 -6,-0.6667 -8,-3.3242 -8,-3.3242 z m 0,1.377 c 1.586995,1.3447 3.87716,2.2417 6.845703,2.6933 -0.161259,1.4452 -0.315875,2.5328 -0.689453,3.584 -0.78509,2.2091 -1.700475,3.553 -2.521484,4.5195 -1.272228,1.4977 -2.427574,2.1039 -3.634766,2.7071 -1.207192,-0.6032 -2.362539,-1.2094 -3.634766,-2.7071 -0.821009,-0.9665 -1.736394,-2.3104 -2.521484,-4.5195 -0.373578,-1.0512 -0.528194,-2.1388 -0.689453,-3.584 2.968543,-0.4516 5.258708,-1.3486 6.845703,-2.6933 z"
       id="path4943-7" />
    <g
       inkscape:label="Capa 1"
       id="layer1-9"
       transform="translate(4,4)">
      <rect
         style="opacity:1;fill:#27ae60;fill-opacity:1;stroke:none"
         id="rect4153"
         width="8"
         height="8"
         x="7"
         y="1037.3622"
         ry="4" />
      <path
         style="fill:#ffffff;fill-opacity:1;fill-rule:evenodd;stroke:none;stroke-width:1px;stroke-linecap:butt;stroke-linejoin:miter;stroke-opacity:1"
         d="m 13,1039.3622 -3,3 -1,-1 -1,1 1,1 1,1 4,-4 -1,-1 z"
         id="path4142"
         inkscape:connector-curvature="0" />
    </g>
  </g>
</svg>
