<?xml version="1.0" encoding="UTF-8" standalone="no"?>
<!-- Created with Inkscape (http://www.inkscape.org/) -->

<svg
   xmlns:dc="http://purl.org/dc/elements/1.1/"
   xmlns:cc="http://creativecommons.org/ns#"
   xmlns:rdf="http://www.w3.org/1999/02/22-rdf-syntax-ns#"
   xmlns:svg="http://www.w3.org/2000/svg"
   xmlns="http://www.w3.org/2000/svg"
   xmlns:xlink="http://www.w3.org/1999/xlink"
   xmlns:sodipodi="http://sodipodi.sourceforge.net/DTD/sodipodi-0.dtd"
   xmlns:inkscape="http://www.inkscape.org/namespaces/inkscape"
   width="32"
   height="32"
   id="svg5453"
   version="1.1"
   inkscape:version="0.91+devel r"
   sodipodi:docname="applications-internet.svg"
   viewBox="0 0 32 32">
  <defs
     id="defs5455">
    <linearGradient
       id="linearGradient4232">
      <stop
         id="stop4234-0"
         offset="0"
         style="stop-color:#3889e9;stop-opacity:1" />
      <stop
         id="stop4236"
         offset="1"
         style="stop-color:#5ea5fb;stop-opacity:1" />
    </linearGradient>
    <linearGradient
       inkscape:collect="always"
       xlink:href="#linearGradient4232"
       id="linearGradient3426"
       x1="399.57144"
       y1="545.79797"
       x2="399.57144"
       y2="517.79797"
       gradientUnits="userSpaceOnUse" />
    <linearGradient
       inkscape:collect="always"
       id="linearGradient4143">
      <stop
         style="stop-color:#197cf1;stop-opacity:1"
         offset="0"
         id="stop4145" />
      <stop
         style="stop-color:#20bcfa;stop-opacity:1"
         offset="1"
         id="stop4147" />
    </linearGradient>
    <linearGradient
       id="linearGradient4290"
       inkscape:collect="always">
      <stop
         id="stop4292"
         offset="0"
         style="stop-color:#7cbaf8;stop-opacity:1" />
      <stop
         id="stop4294"
         offset="1"
         style="stop-color:#f4fcff;stop-opacity:1" />
    </linearGradient>
    <linearGradient
       inkscape:collect="always"
       xlink:href="#linearGradient4143"
       id="linearGradient4229"
       gradientUnits="userSpaceOnUse"
       x1="399.57144"
       y1="545.79797"
       x2="399.57144"
       y2="517.79797" />
    <linearGradient
       inkscape:collect="always"
       xlink:href="#linearGradient4290"
       id="linearGradient4161-1-2"
       x1="16.000011"
       y1="29.999973"
       x2="16.000011"
       y2="1.999974"
       gradientUnits="userSpaceOnUse"
       gradientTransform="matrix(1.0501212,0,0,1.0501212,383.71407,514.99087)" />
  </defs>
  <sodipodi:namedview
     id="base"
     pagecolor="#ffffff"
     bordercolor="#666666"
     borderopacity="1.0"
     inkscape:pageopacity="0"
     inkscape:pageshadow="2"
     inkscape:zoom="11.313709"
     inkscape:cx="20.360409"
     inkscape:cy="18.582143"
     inkscape:document-units="px"
     inkscape:current-layer="layer1"
     showgrid="true"
     fit-margin-top="0"
     fit-margin-left="0"
     fit-margin-right="0"
     fit-margin-bottom="0"
     inkscape:window-width="2560"
     inkscape:window-height="957"
     inkscape:window-x="-4"
     inkscape:window-y="29"
     inkscape:window-maximized="1"
     inkscape:showpageshadow="false"
     borderlayer="true"
     showguides="true"
     inkscape:snap-bbox="true"
     inkscape:bbox-nodes="true"
     inkscape:snap-global="true"
     inkscape:object-nodes="true">
    <inkscape:grid
       type="xygrid"
       id="grid4063" />
    <sodipodi:guide
       position="4.2167969e-05,32.000026"
       orientation="32,0"
       id="guide4625" />
    <sodipodi:guide
       position="4.2167969e-05,2.6367188e-05"
       orientation="0,31.999969"
       id="guide4627" />
    <sodipodi:guide
       position="32.000012,2.6367188e-05"
       orientation="-32,0"
       id="guide4629" />
    <sodipodi:guide
       position="32.000012,32.000026"
       orientation="0,-31.999969"
       id="guide4631" />
    <sodipodi:guide
       position="2,26"
       orientation="28,0"
       id="guide4633" />
    <sodipodi:guide
       position="2.0000422,2.0000264"
       orientation="0,27.999969"
       id="guide4635" />
    <sodipodi:guide
       position="30,17"
       orientation="-28,0"
       id="guide4637" />
    <sodipodi:guide
       position="30.000012,30.000026"
       orientation="0,-27.999969"
       id="guide4639" />
    <sodipodi:guide
       position="9.0000117,24.000271"
       orientation="14,0"
       id="guide4429" />
    <sodipodi:guide
       position="9.0000117,10.000271"
       orientation="0,14.000031"
       id="guide4431" />
    <sodipodi:guide
       position="23.000042,10.000271"
       orientation="-14,0"
       id="guide4433" />
    <sodipodi:guide
       position="43,24.000271"
       orientation="0,-14.000031"
       id="guide4435" />
  </sodipodi:namedview>
  <metadata
     id="metadata5458">
    <rdf:RDF>
      <cc:Work
         rdf:about="">
        <dc:format>image/svg+xml</dc:format>
        <dc:type
           rdf:resource="http://purl.org/dc/dcmitype/StillImage" />
        <dc:title></dc:title>
      </cc:Work>
    </rdf:RDF>
  </metadata>
  <g
     inkscape:label="Capa 1"
     inkscape:groupmode="layer"
     id="layer1"
     transform="translate(-384.57143,-515.798)">
    <circle
       style="opacity:1;fill:url(#linearGradient4229);fill-opacity:1;stroke:none;stroke-width:4;stroke-miterlimit:4;stroke-dasharray:none;stroke-dashoffset:0;stroke-opacity:1"
       id="path3377"
       cx="400.57138"
       cy="531.79791"
       r="13.999958" />
    <ellipse
       r="13.999958"
       cy="531.79791"
       cx="400.57138"
       id="ellipse4233"
       style="opacity:1;fill:url(#linearGradient3426);fill-opacity:1;stroke:none;stroke-width:4;stroke-miterlimit:4;stroke-dasharray:none;stroke-dashoffset:0;stroke-opacity:1" />
    <path
       id="path34-7-3"
       d="m 400.54266,517.79799 c -1.76581,0 -3.44655,0.33686 -4.99979,0.92831 -0.11294,0.10381 -0.25978,0.18353 -0.37598,0.17365 -0.0159,-0.002 -0.0317,-0.0116 -0.048,-0.0173 -0.76565,0.32032 -1.49196,0.71281 -2.18065,1.15799 0.0895,0.14527 0.11608,0.30699 -0.0683,0.38556 -0.031,0.0131 -0.4204,0.0523 -0.55642,0.0493 -1.95843,1.42304 -3.52947,3.33698 -4.5336,5.57129 0.0162,-0.003 0.0302,-0.01 0.0466,-0.0108 0.15241,-0.003 0.37179,0.0413 0.51816,0.0724 0.13508,0.0277 0.24403,0.11837 0.36092,0.12715 0.33177,0.0252 0.41157,-0.23281 0.68224,-0.37733 0.27965,0.0396 0.46521,-0.0472 0.71777,-0.019 0.17216,0.019 0.29651,0.20296 0.43067,0.2133 0.11282,0.0116 0.21209,-0.10575 0.32129,-0.0891 0.10608,0.0163 0.289,0.24768 0.30626,0.37734 0.022,0.16138 -0.11875,0.30672 -0.0724,0.48399 0.16905,0.17217 0.47621,0.20706 0.71777,0.30625 0.15733,-0.12963 0.0207,-0.37016 0,-0.55782 -0.003,-0.0826 0.0116,-0.1563 0,-0.23242 -0.0145,-0.12922 -0.0701,-0.24759 -0.071,-0.3582 -0.003,-0.51081 0.41206,-0.74986 0.75466,-0.95155 0.14832,-0.0879 0.2651,-0.24191 0.39376,-0.30626 0.18174,-0.0912 0.3171,-0.11234 0.46759,-0.19687 0.27191,-0.15275 0.50514,-0.27536 0.71777,-0.44845 0.0983,-0.23161 0.01,-0.54218 0.0177,-0.77109 0.0984,-0.0603 0.18284,0.0258 0.28713,0.0173 0.16408,-0.0341 0.1777,-0.26574 0.27069,-0.35816 0.0537,-0.0529 0.20219,-0.0909 0.26933,-0.14358 0.16349,-0.12828 0.21676,-0.32205 0.35958,-0.37734 0.0509,-0.0206 0.16943,-0.0149 0.2502,-0.0368 0.10629,-0.0282 0.25753,-0.15391 0.43064,-0.21325 0.11281,-0.0396 0.3712,-0.0468 0.41425,-0.0902 0.0529,-0.0539 -7e-4,-0.20603 0.0177,-0.28709 0.087,-0.40523 0.69742,-0.49111 1.0582,-0.62755 0.2529,-0.0957 0.51238,-0.27126 0.79024,-0.2174 -0.0543,0.19259 -0.31321,0.12434 -0.26934,0.35822 0.0606,0.32453 0.49513,-0.0929 0.60978,-0.14082 0.21899,-0.0923 0.59448,-0.14868 0.88182,-0.25294 0.25196,-0.0923 0.7037,-0.2327 0.46623,-0.52088 -0.19808,-0.0116 -0.29358,0.23243 -0.46623,0.30623 -0.11925,0.0191 -0.0965,-0.0998 -0.19824,-0.10932 -0.0967,-0.0116 -0.15085,0.0892 -0.25021,0.0723 -0.0989,-0.0163 -0.23746,-0.17163 -0.25291,-0.28712 -0.0396,-0.29964 0.25323,-0.42318 0.37733,-0.64668 -0.0821,-0.27104 -0.45699,-0.0551 -0.68358,-0.16132 0.0219,-0.16138 0.18883,-0.27267 0.37734,-0.30352 0.15452,-0.0258 0.50134,-0.0129 0.59336,0.0696 0.0531,0.0456 0.004,0.15851 0.0902,0.23378 0.0916,0.0826 0.20397,0.074 0.32268,0.0547 0.0425,-0.20453 -0.26598,-0.15323 -0.23243,-0.28847 0.24248,-0.15862 0.63692,-0.0285 0.9338,-0.0724 0.17089,-0.0252 0.3503,-0.14583 0.50175,-0.23103 0.14403,-0.0817 0.33116,-0.22448 0.484,-0.0903 0.0411,0.14658 -0.1331,0.19508 -0.21466,0.26796 -0.27467,0.24432 -0.5576,0.52423 -0.77109,0.808 0.13097,0.12775 0.36901,0.0636 0.59062,0.0902 0.0866,0.0116 0.19549,0.0371 0.28709,0.0534 0.10727,0.0191 0.22109,0.0136 0.30489,0.0358 0.15079,0.037 0.19113,0.19823 0.34045,0.19823 0.24557,-4.3e-4 0.2485,-0.26609 0.10931,-0.43203 0.044,-0.16941 0.11282,-0.25731 0.0534,-0.37598 -0.1106,-0.22126 -0.51644,-0.0116 -0.5373,-0.28709 -0.0131,-0.17901 0.14976,-0.171 0.21465,-0.30488 -0.0295,-0.34582 0.28365,-0.37088 0.25019,-0.68085 -0.0145,-0.12968 -0.12383,-0.13145 -0.21464,-0.25295 -0.0456,-0.0593 -0.0693,-0.17418 -0.12168,-0.22558 -0.41888,-0.0369 -0.84254,-0.0601 -1.27147,-0.0601 z m -7.2242,2.8246 0.002,0 c 0.0835,0.0116 0.18452,0.10166 0.28574,0.10944 0.0957,0.003 0.17479,-0.0527 0.23379,-0.0369 0.15009,0.0397 0.2134,0.26624 0.0722,0.37734 -0.11734,0.0145 -0.1631,-0.0513 -0.25156,-0.0359 -0.24381,0.0415 -0.33733,0.51895 -0.51954,0.50314 -0.1718,-0.0145 -0.26481,-0.43317 -0.0901,-0.5578 0.0116,-0.10886 -0.0793,-0.12626 -0.0737,-0.23379 0.0515,-0.0664 0.199,-0.13729 0.3418,-0.12574 z m -0.80799,0.0561 c 0.0495,0.002 0.0873,0.0136 0.10661,0.0356 -0.0237,0.19134 -0.17352,0.17878 -0.32129,0.26796 -0.25522,0.15404 -0.40277,0.38876 -0.48398,0.71778 -0.0234,0.0957 -0.27501,0.34942 -0.39648,0.32404 -0.28465,-0.06 0.0786,-0.58473 0.14356,-0.66447 0.0722,-0.0884 0.1683,-0.16591 0.25292,-0.26797 0.0817,-0.0989 0.13555,-0.23226 0.21465,-0.28709 0.0866,-0.06 0.33404,-0.13155 0.48399,-0.12575 z m 2.12458,0.6453 c 0.0912,0.002 0.17315,0.0163 0.21054,0.0534 -0.0585,0.23706 -0.56928,0.17446 -0.75604,0.0887 0.0116,-0.0894 0.15185,-0.1141 0.26934,-0.12575 0.0826,-0.003 0.18515,-0.0191 0.27616,-0.0163 z m -1.16208,0.43752 c 0.0606,-0.002 0.12217,0.0116 0.18593,0.0285 -0.1652,0.13818 -0.34385,0.21646 -0.62755,0.30623 -0.1364,0.0429 -0.37198,0.0965 -0.39511,-0.0561 -0.0282,-0.1867 0.19947,-0.14326 0.32401,-0.15996 0.15683,-0.0216 0.32899,-0.11305 0.51272,-0.119 z m 17.82809,1.06365 c -0.0212,0.0512 -0.0368,0.10123 -0.0344,0.15038 0.0116,0.0866 0.10597,0.16995 0.12714,0.28712 0.0116,0.0624 -0.0291,0.1963 0,0.25296 0.0864,0.1676 0.31262,0.0471 0.47443,0.0561 -0.18382,-0.25312 -0.36738,-0.50666 -0.5674,-0.74648 z m 0.91737,1.23458 c -0.0257,0.12369 -0.10978,0.28498 -0.17771,0.38828 -0.15648,0.23799 -0.36901,0.24908 -0.59336,0.37598 -0.18711,0.10607 -0.26765,0.28308 -0.37736,0.46757 -0.11887,0.19929 -0.1925,0.31969 -0.14353,0.60843 -0.16041,0.31816 -0.4033,0.5131 -0.73555,0.66443 -0.0983,0.0444 -0.2325,0.061 -0.32266,0.12574 -0.0719,0.0515 -0.11258,0.19025 -0.21464,0.30486 -0.12587,0.1401 -0.25786,0.1992 -0.32405,0.30626 -0.0509,0.0826 -0.0691,0.24722 -0.12574,0.35821 -0.0764,0.15074 -0.23982,0.2246 -0.34045,0.37734 -0.0457,0.0709 -0.0763,0.21376 -0.12714,0.30626 -0.11375,0.20665 -0.30799,0.35553 -0.28713,0.53728 0.0206,0.17566 0.2202,0.20646 0.23379,0.35959 0.003,0.0865 -0.0571,0.13946 -0.0534,0.23379 0.003,0.13774 0.0961,0.23442 0.10662,0.34043 0.0267,0.26649 -0.0906,0.37285 -0.14082,0.55506 -0.0237,0.087 -0.0135,0.18497 -0.0369,0.25295 -0.0442,0.13341 -0.23008,0.25379 -0.23379,0.41152 -0.002,0.11211 0.11504,0.20222 0.12447,0.35957 0.003,0.10862 -0.0533,0.22429 -0.0341,0.32403 0.0383,0.19532 0.38685,0.42245 0.53869,0.57421 0.20306,0.20308 0.46891,0.36024 0.55642,0.57422 0.0737,0.18171 0.0731,0.41811 0.21467,0.55508 0.10468,0.10112 0.27877,0.16414 0.41288,0.2693 0.12512,0.0982 0.26142,0.18296 0.39513,0.28711 0.21847,0.17094 0.5488,0.51165 0.89686,0.48538 0.18177,-0.0131 0.36805,-0.16162 0.57424,-0.19824 0.2121,-0.0381 0.48736,-0.0577 0.70134,-0.0356 0.16391,0.016 0.33274,0.11445 0.50313,0.10661 0.1799,-0.0116 0.38621,-0.14449 0.59063,-0.23378 0.16448,-0.0717 0.36634,-0.15092 0.58788,-0.2092 0.10167,-0.68287 0.15587,-1.38248 0.15587,-2.09452 0,-2.86665 -0.85718,-5.52366 -2.32421,-7.73828 z m -23.15467,4.70449 c -0.29817,0.0162 -0.49356,0.0299 -0.66305,0.10661 -0.38842,0.17674 -0.31336,0.7016 -0.70139,0.82578 -0.13421,0.0429 -0.31847,0.045 -0.46619,0.0723 -0.12753,0.0233 -0.28285,0.0929 -0.41428,0.0901 -0.0369,-4.8e-4 -0.0882,-0.0278 -0.13398,-0.0425 -0.0344,0.24612 -0.0631,0.49499 -0.0849,0.74512 0.36914,0.0709 0.55966,0.56 0.88595,0.72188 0.0894,0.0443 0.2062,0.0467 0.32129,0.0723 0.0928,0.0206 0.16342,0.06 0.2529,0.0904 0.18986,0.0645 0.42238,0.0566 0.57424,0.12447 0.22881,0.10156 0.39658,0.53156 0.59335,0.6467 0.0116,0.11596 -0.0226,0.27171 0.0177,0.35816 0.0929,0.12613 0.2242,0.0983 0.37736,0.18047 0.1832,0.0989 0.23925,0.35404 0.41286,0.43202 0.0599,0.0266 0.21021,0.0229 0.30491,0.052 0.23792,0.0719 0.31559,0.34727 0.51954,0.28711 0.13375,-0.0396 0.1232,-0.17704 0.1449,-0.30489 0.0884,-0.0957 0.18485,-0.2475 0.32267,-0.2502 0.22303,-0.0116 0.24289,0.23046 0.324,0.44706 0.0457,0.12244 0.1656,0.22909 0.19689,0.35822 0.0555,0.22305 0.0279,0.89069 -0.0191,1.02401 -0.0561,0.16356 -0.27772,0.23293 -0.41426,0.41427 -0.0645,0.085 -0.0951,0.20958 -0.14356,0.26932 -0.0879,0.10715 -0.21858,0.13504 -0.28435,0.2338 -0.0373,0.0555 -0.0732,0.17499 -0.10944,0.25018 -0.1078,0.22842 -0.252,0.39026 -0.16135,0.66448 0.0381,0.11282 0.2142,0.18846 0.21466,0.32128 5e-4,0.15629 -0.33241,0.29622 -0.35818,0.46756 -0.0191,0.1275 0.10296,0.35503 0.14352,0.52091 0.0297,0.12537 0.26655,0.20372 0.34046,0.28712 0.126,0.14145 0.22667,0.34185 0.34176,0.51953 0.22762,0.34946 0.40597,0.77567 0.62758,1.11426 0.1171,0.17734 0.28154,0.3368 0.35954,0.52089 0.0401,0.0929 0.0344,0.20363 0.071,0.28711 0.12827,0.28953 0.69477,0.59182 0.9871,0.73555 0.13685,0.0667 0.28867,0.0902 0.41427,0.15995 0.19022,0.10607 0.56705,0.391 0.66308,0.55782 0.0856,0.14993 0.13887,0.51491 0.18046,0.75332 0.0556,0.31507 6.4e-4,0.55698 0.0177,0.89824 0.0116,0.18452 0.0705,0.37007 0.0724,0.55509 7e-4,0.0649 -0.0344,0.11294 -0.0371,0.17909 -1e-4,0.0108 0.004,0.0229 0.004,0.0341 1.76313,0.79793 3.71685,1.25237 5.78456,1.25237 0.37357,0 0.74275,-0.0193 1.10878,-0.048 0.016,-0.0275 0.0308,-0.0562 0.0507,-0.0818 0.0843,-0.1106 0.1591,-0.20746 0.21468,-0.30486 0.0529,-0.32774 -0.13072,-0.55667 -0.0534,-0.84356 0.0857,-0.32226 0.53127,-0.51907 0.84358,-0.66446 0.10737,-0.0495 0.21736,-0.13094 0.30486,-0.16132 0.21613,-0.0751 0.486,-0.0343 0.68359,-0.10662 0.3363,-0.12307 0.37144,-0.48384 0.5373,-0.79026 0.0781,-0.14508 0.18155,-0.29039 0.1969,-0.39372 0.0135,-0.0929 -0.0342,-0.18031 -0.019,-0.28986 0.0161,-0.10838 0.11351,-0.20216 0.14356,-0.3213 0.0396,-0.15546 0.0561,-0.38324 0.0561,-0.55642 0,-0.14217 -0.0667,-0.2669 -0.072,-0.39514 -0.0232,-0.46557 0.16817,-0.51767 0.34045,-0.77106 0.0864,-0.12587 0.11874,-0.26938 0.17908,-0.35959 0.28921,-0.43147 0.79099,-0.63977 0.75469,-1.292 -0.0116,-0.2158 -0.14747,-0.70355 -0.30625,-0.77243 -0.0909,-0.0397 -0.29924,-0.003 -0.43066,-0.0534 -0.42428,-0.15824 -0.67327,-0.68417 -1.11288,-0.71777 -0.0939,-0.0116 -0.18009,0.0387 -0.28575,0.0369 -0.17399,-0.0116 -0.43628,-0.1218 -0.62891,-0.14354 -0.12242,-0.0131 -0.28608,0.0365 -0.35957,0 -0.112,-0.0544 -0.12346,-0.26107 -0.21466,-0.32266 -0.0721,-0.0498 -0.21299,-0.0668 -0.32264,-0.10932 -0.17677,-0.0677 -0.31693,-0.1471 -0.5209,-0.1613 -0.063,-0.003 -0.14135,0.0299 -0.21465,0.0191 -0.11282,-0.0191 -0.20211,-0.15264 -0.30623,-0.21602 -0.13044,-0.0793 -0.25097,-0.11786 -0.30491,-0.23104 0.11785,-0.38664 -0.20784,-0.49439 -0.2871,-0.71778 -0.0381,-0.10468 -0.0203,-0.23065 -0.0534,-0.32403 -0.0467,-0.13375 -0.17905,-0.21105 -0.32404,-0.32264 -0.25972,-0.19992 -0.49013,-0.38762 -0.86131,-0.4334 -0.16321,-0.0206 -0.32511,0.0488 -0.52229,0.0369 -0.20891,-0.0131 -0.47123,-0.19598 -0.62751,-0.3746 -0.15193,-0.17441 -0.22584,-0.33092 -0.35822,-0.41427 -0.12535,-0.0803 -0.29175,-0.0783 -0.37734,-0.15997 -0.0385,-0.0358 -0.0313,-0.0966 -0.0723,-0.18047 -0.0631,-0.13055 -0.16888,-0.20313 -0.0901,-0.35955 -0.14304,-0.0735 -0.14699,0.1365 -0.30351,0.10932 -0.13954,-0.19805 -0.25741,-0.29187 -0.57424,-0.2338 -0.14507,0.0267 -0.22607,0.21012 -0.3951,0.21466 -0.13864,0.0116 -0.24755,-0.15446 -0.43066,-0.18047 -0.13824,-0.0191 -0.29537,0.0374 -0.39377,0.0187 -0.15319,-0.0306 -0.20048,-0.15817 -0.34044,-0.25018 -0.10263,-0.0676 -0.302,-0.1823 -0.35955,-0.18047 -0.18043,0.0116 -0.30899,0.3834 -0.5578,0.25157 -0.12092,-0.15325 0.19695,-0.234 0.0534,-0.37738 -0.10872,-0.10873 -0.20012,0.0493 -0.2871,0.10944 -0.0997,0.069 -0.19337,0.13696 -0.30353,0.17773 -0.24657,0.0923 -0.40067,0.0442 -0.59335,0.14355 -0.17842,0.0924 -0.18602,0.24705 -0.28711,0.43066 -0.0826,0.15042 -0.27092,0.36964 -0.3951,0.37871 -0.15046,0.0116 -0.29424,-0.21033 -0.43067,-0.26932 -0.41109,-0.17806 -0.61022,0.15811 -0.95155,0.16269 -0.3168,0.0116 -0.76927,-0.51155 -0.75332,-0.80938 0.003,-0.18173 0.10446,-0.45741 0.12574,-0.68222 0.0191,-0.17881 0.14152,-0.28659 0.14359,-0.44981 0.003,-0.21802 -0.28921,-0.38566 -0.43069,-0.41153 -0.33535,-0.0617 -0.80098,0.13494 -1.18533,-0.0191 -0.0734,-0.12167 0.086,-0.20571 0.12715,-0.32404 0.0233,-0.0674 0.01,-0.15706 0.0343,-0.23105 0.0429,-0.11433 0.16242,-0.20291 0.21602,-0.32402 0.04,-0.0924 0.0498,-0.22575 0.0901,-0.34042 0.0471,-0.1306 0.13346,-0.21468 0.14356,-0.30627 0.0131,-0.12091 -0.0325,-0.2607 -0.12716,-0.34042 z m 4.79884,3.79941 c 0.12167,0.0116 0.13691,0.26279 0.0127,0.28305 -0.13421,0.0207 -0.20246,-0.21055 -0.0722,-0.27075 0.0218,-0.0116 0.043,-0.0116 0.0601,-0.0108 l 0,-0.002 z"
       style="fill:url(#linearGradient4161-1-2);fill-opacity:1;fill-rule:nonzero;stroke:none;stroke-width:0.69999957"
       inkscape:connector-curvature="0" />
  </g>
</svg>
