<?xml version="1.0" encoding="UTF-8" standalone="no"?>
<!-- Created with Inkscape (http://www.inkscape.org/) -->

<svg
   xmlns:dc="http://purl.org/dc/elements/1.1/"
   xmlns:cc="http://creativecommons.org/ns#"
   xmlns:rdf="http://www.w3.org/1999/02/22-rdf-syntax-ns#"
   xmlns:svg="http://www.w3.org/2000/svg"
   xmlns="http://www.w3.org/2000/svg"
   xmlns:sodipodi="http://sodipodi.sourceforge.net/DTD/sodipodi-0.dtd"
   xmlns:inkscape="http://www.inkscape.org/namespaces/inkscape"
   width="16"
   height="16"
   id="svg2"
   version="1.1"
   inkscape:version="0.48.4 r9939"
   viewBox="0 0 16 16"
   sodipodi:docname="folder-network.svg">
  <defs
     id="defs4" />
  <sodipodi:namedview
     id="base"
     pagecolor="#ffffff"
     bordercolor="#666666"
     borderopacity="1.0"
     inkscape:pageopacity="0.0"
     inkscape:pageshadow="2"
     inkscape:zoom="44.8"
     inkscape:cx="-1.6571903"
     inkscape:cy="5.5590204"
     inkscape:document-units="px"
     inkscape:current-layer="layer1"
     showgrid="true"
     inkscape:showpageshadow="false"
     borderlayer="true"
     units="px"
     inkscape:window-width="1864"
     inkscape:window-height="1060"
     inkscape:window-x="56"
     inkscape:window-y="0"
     inkscape:window-maximized="1"
     inkscape:snap-global="true"
     inkscape:snap-bbox="true">
    <inkscape:grid
       type="xygrid"
       id="grid4062" />
    <sodipodi:guide
       position="2,14.000017"
       orientation="12,0"
       id="guide4066" />
    <sodipodi:guide
       position="2,2.0000174"
       orientation="0,12"
       id="guide4068" />
    <sodipodi:guide
       position="14,2.0000174"
       orientation="-12,0"
       id="guide4070" />
    <sodipodi:guide
       position="14,14.000017"
       orientation="0,-12"
       id="guide4072" />
  </sodipodi:namedview>
  <metadata
     id="metadata7">
    <rdf:RDF>
      <cc:Work
         rdf:about="">
        <dc:format>image/svg+xml</dc:format>
        <dc:type
           rdf:resource="http://purl.org/dc/dcmitype/StillImage" />
        <dc:title />
      </cc:Work>
    </rdf:RDF>
  </metadata>
  <g
     inkscape:label="Capa 1"
     inkscape:groupmode="layer"
     id="layer1"
     transform="translate(0,-1036.3622)">
    <path
       inkscape:connector-curvature="0"
       style="fill:#f2f2f2;fill-opacity:1;stroke:none"
       d="m 8,1038.3622 c -3.324,0 -6,2.676 -6,6 0,3.324 2.676,6 6,6 3.324,0 6,-2.676 6,-6 0,-3.324 -2.676,-6 -6,-6 z m 0,1 c 2.9916,0 5,2.0084 5,5 0,2.9916 -2.0084,5 -5,5 -2.9916,0 -5,-2.0084 -5,-5 0,-2.9916 2.0084,-5 5,-5 z"
       id="rect4175"
       sodipodi:nodetypes="ssssssssss" />
    <path
       sodipodi:type="arc"
       style="color:#000000;fill:#f2f2f2;fill-opacity:1;fill-rule:nonzero;stroke:none;stroke-width:0.10000000000000001;marker:none;visibility:visible;display:inline;overflow:visible;enable-background:accumulate"
       id="path2989"
       sodipodi:cx="6"
       sodipodi:cy="8"
       sodipodi:rx="1"
       sodipodi:ry="1"
       d="M 7,8 C 7,8.5522847 6.5522847,9 6,9 5.4477153,9 5,8.5522847 5,8 5,7.4477153 5.4477153,7 6,7 6.5522847,7 7,7.4477153 7,8 z"
       transform="translate(-0.5,1036.3622)" />
    <path
       sodipodi:type="arc"
       style="color:#000000;fill:#f2f2f2;fill-opacity:1;fill-rule:nonzero;stroke:none;stroke-width:0.10000000000000001;marker:none;visibility:visible;display:inline;overflow:visible;enable-background:accumulate"
       id="path2991"
       sodipodi:cx="10"
       sodipodi:cy="10"
       sodipodi:rx="1"
       sodipodi:ry="1"
       d="m 11,10 c 0,0.552285 -0.447715,1 -1,1 -0.5522847,0 -1,-0.447715 -1,-1 0,-0.5522847 0.4477153,-1 1,-1 0.552285,0 1,0.4477153 1,1 z"
       transform="translate(-0.5,1036.3622)" />
    <path
       sodipodi:type="arc"
       style="color:#000000;fill:#f2f2f2;fill-opacity:1;fill-rule:nonzero;stroke:none;stroke-width:0.10000000000000001;marker:none;visibility:visible;display:inline;overflow:visible;enable-background:accumulate"
       id="path2993"
       sodipodi:cx="10"
       sodipodi:cy="6"
       sodipodi:rx="1"
       sodipodi:ry="1"
       d="M 11,6 C 11,6.5522847 10.552285,7 10,7 9.4477153,7 9,6.5522847 9,6 9,5.4477153 9.4477153,5 10,5 c 0.552285,0 1,0.4477153 1,1 z"
       transform="translate(-0.5,1036.3622)" />
    <path
       sodipodi:type="arc"
       style="color:#000000;fill:#f2f2f2;fill-opacity:1;fill-rule:nonzero;stroke:none;stroke-width:0.10000000000000001;marker:none;visibility:visible;display:inline;overflow:visible;enable-background:accumulate"
       id="path2995"
       sodipodi:cx="7.5"
       sodipodi:cy="6.5"
       sodipodi:rx="0.5"
       sodipodi:ry="0.5"
       d="M 8,6.5 C 8,6.7761424 7.7761424,7 7.5,7 7.2238576,7 7,6.7761424 7,6.5 7,6.2238576 7.2238576,6 7.5,6 7.7761424,6 8,6.2238576 8,6.5 z"
       transform="translate(0,1036.8622)" />
    <path
       sodipodi:type="arc"
       style="color:#000000;fill:#f2f2f2;fill-opacity:1;fill-rule:nonzero;stroke:none;stroke-width:0.10000000000000001;marker:none;visibility:visible;display:inline;overflow:visible;enable-background:accumulate"
       id="path2995-7"
       sodipodi:cx="7.5"
       sodipodi:cy="6.5"
       sodipodi:rx="0.5"
       sodipodi:ry="0.5"
       d="M 8,6.5 C 8,6.7761424 7.7761424,7 7.5,7 7.2238576,7 7,6.7761424 7,6.5 7,6.2238576 7.2238576,6 7.5,6 7.7761424,6 8,6.2238576 8,6.5 z"
       transform="translate(0,1038.8622)" />
  </g>
</svg>
