<?xml version="1.0" encoding="UTF-8" standalone="no"?>
<!-- Created with Inkscape (http://www.inkscape.org/) -->

<svg
   xmlns:dc="http://purl.org/dc/elements/1.1/"
   xmlns:cc="http://creativecommons.org/ns#"
   xmlns:rdf="http://www.w3.org/1999/02/22-rdf-syntax-ns#"
   xmlns:svg="http://www.w3.org/2000/svg"
   xmlns="http://www.w3.org/2000/svg"
   xmlns:sodipodi="http://sodipodi.sourceforge.net/DTD/sodipodi-0.dtd"
   xmlns:inkscape="http://www.inkscape.org/namespaces/inkscape"
   width="16"
   height="16"
   id="svg3049"
   version="1.1"
   inkscape:version="0.91 r13725"
   sodipodi:docname="chronometer.svg"
   inkscape:export-filename="/home/uri/.kde/share/icons/NITRUX-KDE/16x16/actions/view-right-new.png"
   inkscape:export-xdpi="30"
   inkscape:export-ydpi="30">
  <defs
     id="defs3051" />
  <sodipodi:namedview
     id="base"
     pagecolor="#ffffff"
     bordercolor="#666666"
     borderopacity="1.0"
     inkscape:pageopacity="0.0"
     inkscape:pageshadow="2"
     inkscape:zoom="24.411306"
     inkscape:cx="4.3338535"
     inkscape:cy="7.4750462"
     inkscape:document-units="px"
     inkscape:current-layer="layer1"
     showgrid="true"
     fit-margin-top="0"
     fit-margin-left="0"
     fit-margin-right="0"
     fit-margin-bottom="0"
     inkscape:window-width="1482"
     inkscape:window-height="984"
     inkscape:window-x="430"
     inkscape:window-y="0"
     inkscape:window-maximized="0"
     inkscape:showpageshadow="false"
     borderlayer="true"
     inkscape:snap-bbox="true"
     inkscape:snap-smooth-nodes="false"
     inkscape:object-nodes="true"
     inkscape:snap-global="true">
    <inkscape:grid
       type="xygrid"
       id="grid4085" />
    <sodipodi:guide
       position="2.0000044,14.00003"
       orientation="12,0"
       id="guide4075" />
    <sodipodi:guide
       position="2.0000044,2.0000296"
       orientation="0,12"
       id="guide4077" />
    <sodipodi:guide
       position="14.000004,2.0000296"
       orientation="-12,0"
       id="guide4079" />
    <sodipodi:guide
       position="7,14"
       orientation="0,-12"
       id="guide4081" />
  </sodipodi:namedview>
  <metadata
     id="metadata3054">
    <rdf:RDF>
      <cc:Work
         rdf:about="">
        <dc:format>image/svg+xml</dc:format>
        <dc:type
           rdf:resource="http://purl.org/dc/dcmitype/StillImage" />
        <dc:title></dc:title>
      </cc:Work>
    </rdf:RDF>
  </metadata>
  <g
     inkscape:label="Capa 1"
     inkscape:groupmode="layer"
     id="layer1"
     transform="translate(-421.71429,-531.79074)">
    <path
       style="opacity:1;fill:#f2f2f2;fill-opacity:1;stroke:none;stroke-width:0.1;stroke-linecap:round;stroke-miterlimit:4;stroke-dasharray:none;stroke-opacity:1"
       d="M 8 2 A 1.5 1.5 0 0 0 6.5 3.5 A 1.5 1.5 0 0 0 6.6679688 4.1855469 A 5 5 0 0 0 3 9 A 5 5 0 0 0 8 14 A 5 5 0 0 0 13 9 A 5 5 0 0 0 11.867188 5.8378906 L 12.810547 4.8925781 A 0.5 0.5 0 0 0 12.828125 4.875 L 12.832031 4.8730469 A 0.5 0.5 0 0 0 13 4.5 A 0.5 0.5 0 0 0 12.5 4 A 0.5 0.5 0 0 0 12.126953 4.1679688 L 12.125 4.1660156 L 11.160156 5.1308594 A 5 5 0 0 0 9.3359375 4.1816406 A 1.5 1.5 0 0 0 9.3359375 4.1796875 A 1.5 1.5 0 0 0 9.5 3.5 A 1.5 1.5 0 0 0 8 2 z M 8 3 A 0.5 0.5 0 0 1 8.5 3.5 A 0.5 0.5 0 0 1 8 4 A 0.5 0.5 0 0 1 7.5 3.5 A 0.5 0.5 0 0 1 8 3 z M 8 5 A 4 4 0 0 1 12 9 A 4 4 0 0 1 8 13 A 4 4 0 0 1 4 9 A 4 4 0 0 1 8 5 z M 8 6 L 8 8 A 1 1 0 0 1 9 9 L 11 9 A 3 3 0 0 0 8 6 z "
       transform="translate(421.71429,531.79074)"
       id="path4259" />
  </g>
</svg>
