<?xml version="1.0" encoding="UTF-8" standalone="no"?>
<!-- Created with Inkscape (http://www.inkscape.org/) -->

<svg
   xmlns:dc="http://purl.org/dc/elements/1.1/"
   xmlns:cc="http://creativecommons.org/ns#"
   xmlns:rdf="http://www.w3.org/1999/02/22-rdf-syntax-ns#"
   xmlns:svg="http://www.w3.org/2000/svg"
   xmlns="http://www.w3.org/2000/svg"
   xmlns:sodipodi="http://sodipodi.sourceforge.net/DTD/sodipodi-0.dtd"
   xmlns:inkscape="http://www.inkscape.org/namespaces/inkscape"
   width="16"
   height="16"
   id="svg3049"
   version="1.1"
   inkscape:version="0.91+devel r"
   sodipodi:docname="run-build-install.svg"
   inkscape:export-filename="/home/uri/.kde/share/icons/NITRUX-KDE/16x16/actions/view-right-new.png"
   inkscape:export-xdpi="30"
   inkscape:export-ydpi="30"
   viewBox="0 0 16 16">
  <defs
     id="defs3051" />
  <sodipodi:namedview
     id="base"
     pagecolor="#ffffff"
     bordercolor="#666666"
     borderopacity="1.0"
     inkscape:pageopacity="0.0"
     inkscape:pageshadow="2"
     inkscape:zoom="69.0456"
     inkscape:cx="5.6322817"
     inkscape:cy="5.6155182"
     inkscape:document-units="px"
     inkscape:current-layer="layer1"
     showgrid="true"
     fit-margin-top="0"
     fit-margin-left="0"
     fit-margin-right="0"
     fit-margin-bottom="0"
     inkscape:window-width="2560"
     inkscape:window-height="964"
     inkscape:window-x="-4"
     inkscape:window-y="34"
     inkscape:window-maximized="1"
     inkscape:showpageshadow="false"
     borderlayer="true"
     inkscape:snap-bbox="true"
     inkscape:object-nodes="true">
    <inkscape:grid
       type="xygrid"
       id="grid4085" />
    <sodipodi:guide
       position="2.0000044,14.00003"
       orientation="12,0"
       id="guide4075" />
    <sodipodi:guide
       position="2.0000044,2.0000296"
       orientation="0,12"
       id="guide4077" />
    <sodipodi:guide
       position="14.000004,2.0000296"
       orientation="-12,0"
       id="guide4079" />
    <sodipodi:guide
       position="14.000004,14.00003"
       orientation="0,-12"
       id="guide4081" />
  </sodipodi:namedview>
  <metadata
     id="metadata3054">
    <rdf:RDF>
      <cc:Work
         rdf:about="">
        <dc:format>image/svg+xml</dc:format>
        <dc:type
           rdf:resource="http://purl.org/dc/dcmitype/StillImage" />
        <dc:title />
      </cc:Work>
    </rdf:RDF>
  </metadata>
  <g
     inkscape:label="Capa 1"
     inkscape:groupmode="layer"
     id="layer1"
     transform="translate(-421.71429,-531.79074)">
    <path
       style="fill:#f2f2f2;fill-opacity:1;fill-rule:evenodd;stroke:none"
       d="M 7,2 V 3.1015625 A 5,5 0 0 0 5.2460938,3.8320312 l -0.78125,-0.78125 -1.4140626,1.4140626 0.78125,0.78125 A 5,5 0 0 0 3.1054688,7 H 2 v 2 h 1.1015625 a 5,5 0 0 0 0.7304687,1.753906 l -0.78125,0.78125 1.4140626,1.414063 0.78125,-0.78125 A 5,5 0 0 0 7,12.894531 V 14 H 8 V 12 A 4,4 0 0 1 5.1308594,10.787109 4,4 0 0 1 4,8 4,4 0 0 1 5.2128906,5.1308594 4,4 0 0 1 8,4 4,4 0 0 1 10.869141,5.2128906 4,4 0 0 1 12,8 h 2 V 7 H 12.898438 A 5,5 0 0 0 12.167969,5.2460938 l 0.78125,-0.78125 -1.414063,-1.4140626 -0.78125,0.78125 A 5,5 0 0 0 9,3.1054688 V 2 Z"
       transform="translate(421.71429,531.79074)"
       id="path4146"
       inkscape:connector-curvature="0" />
    <path
       style="fill:#f2f2f2;fill-opacity:1;fill-rule:evenodd;stroke:none;stroke-width:1px;stroke-linecap:butt;stroke-linejoin:miter;stroke-opacity:1"
       d="m 428.71429,537.79074 v 4 l 3,-2 z"
       id="path4180"
       inkscape:connector-curvature="0"
       sodipodi:nodetypes="cccc" />
    <path
       style="fill:#f2f2f2;fill-opacity:1;stroke:none"
       d="m 433.21429,546.79032 -1.8789,-1.87891 -0.94923,-0.94922 0.70703,-0.70703 0.94922,0.94922 0.67188,0.67188 v -4.08552 h 1 v 4.08552 l 0.67187,-0.67188 0.94923,-0.94922 0.70702,0.70703 -0.94922,0.94922 z"
       id="rect4176"
       inkscape:connector-curvature="0"
       sodipodi:nodetypes="cccccccccccccc" />
  </g>
</svg>
