<?xml version="1.0" encoding="UTF-8" standalone="no"?>
<!-- Created with Inkscape (http://www.inkscape.org/) -->

<svg
   xmlns:dc="http://purl.org/dc/elements/1.1/"
   xmlns:cc="http://creativecommons.org/ns#"
   xmlns:rdf="http://www.w3.org/1999/02/22-rdf-syntax-ns#"
   xmlns:svg="http://www.w3.org/2000/svg"
   xmlns="http://www.w3.org/2000/svg"
   xmlns:sodipodi="http://sodipodi.sourceforge.net/DTD/sodipodi-0.dtd"
   xmlns:inkscape="http://www.inkscape.org/namespaces/inkscape"
   width="22"
   height="22"
   id="svg2"
   version="1.1"
   inkscape:version="0.48+devel r"
   sodipodi:docname="im-icq.svg">
  <defs
     id="defs4" />
  <sodipodi:namedview
     id="base"
     pagecolor="#ffffff"
     bordercolor="#666666"
     borderopacity="1.0"
     inkscape:pageopacity="0.0"
     inkscape:pageshadow="2"
     inkscape:zoom="23.069359"
     inkscape:cx="8.9451647"
     inkscape:cy="10.966984"
     inkscape:document-units="px"
     inkscape:current-layer="layer1"
     showgrid="true"
     inkscape:window-width="1366"
     inkscape:window-height="668"
     inkscape:window-x="-2"
     inkscape:window-y="23"
     inkscape:window-maximized="1"
     inkscape:showpageshadow="false"
     showguides="true">
    <inkscape:grid
       type="xygrid"
       id="grid4109" />
    <sodipodi:guide
       position="2,20.000017"
       orientation="18,0"
       id="guide4113" />
    <sodipodi:guide
       position="2,2.0000174"
       orientation="0,18"
       id="guide4115" />
    <sodipodi:guide
       position="20,2.0000174"
       orientation="-18,0"
       id="guide4117" />
    <sodipodi:guide
       position="20,20.000017"
       orientation="0,-18"
       id="guide4119" />
    <sodipodi:guide
       position="3,19.000017"
       orientation="16,0"
       id="guide4121" />
    <sodipodi:guide
       position="3,3.0000174"
       orientation="0,16"
       id="guide4123" />
    <sodipodi:guide
       position="19,3.0000174"
       orientation="-16,0"
       id="guide4125" />
    <sodipodi:guide
       position="19,19.000017"
       orientation="0,-16"
       id="guide4127" />
  </sodipodi:namedview>
  <metadata
     id="metadata7">
    <rdf:RDF>
      <cc:Work
         rdf:about="">
        <dc:format>image/svg+xml</dc:format>
        <dc:type
           rdf:resource="http://purl.org/dc/dcmitype/StillImage" />
        <dc:title />
      </cc:Work>
    </rdf:RDF>
  </metadata>
  <g
     inkscape:label="Capa 1"
     inkscape:groupmode="layer"
     id="layer1"
     transform="translate(0,-1030.3622)">
    <path
       style="opacity:1;fill:#f2f2f2;fill-opacity:1;stroke:none"
       d="M 11 3 A 1.9999995 3 0 0 0 9 6 A 1.9999995 3 0 0 0 9.0058594 6.1855469 A 3 1.9999995 45 0 0 8.8789062 6.0507812 A 3 1.9999995 45 0 0 5.34375 5.34375 A 3 1.9999995 45 0 0 6.0507812 8.8789062 A 3 1.9999995 45 0 0 6.1835938 9.0058594 A 3 1.9999995 0 0 0 6 9 A 3 1.9999995 0 0 0 3 11 A 3 1.9999995 0 0 0 6 13 A 3 1.9999995 0 0 0 6.1855469 12.994141 A 1.9999995 3 45 0 0 6.0507812 13.121094 A 1.9999995 3 45 0 0 5.34375 16.65625 A 1.9999995 3 45 0 0 8.8789062 15.949219 A 1.9999995 3 45 0 0 9.0058594 15.816406 A 1.9999995 3 0 0 0 9 16 A 1.9999995 3 0 0 0 11 19 A 1.9999995 3 0 0 0 13 16 A 1.9999995 3 0 0 0 12.994141 15.814453 A 3 1.9999995 45 0 0 13.121094 15.949219 A 3 1.9999995 45 0 0 16.65625 16.65625 A 3 1.9999995 45 0 0 15.949219 13.121094 A 3 1.9999995 45 0 0 15.816406 12.994141 A 3 1.9999995 0 0 0 16 13 A 3 1.9999995 0 0 0 19 11 A 3 1.9999995 0 0 0 16 9 A 3 1.9999995 0 0 0 15.814453 9.0058594 A 1.9999995 3 45 0 0 15.949219 8.8789062 A 1.9999995 3 45 0 0 16.65625 5.34375 A 1.9999995 3 45 0 0 13.121094 6.0507812 A 1.9999995 3 45 0 0 12.994141 6.1835938 A 1.9999995 3 0 0 0 13 6 A 1.9999995 3 0 0 0 11 3 z M 11.994141 8.5976562 A 1.9999995 3 45 0 0 12.414062 9.5859375 A 1.9999995 3 45 0 0 13.400391 10.005859 A 3 1.9999995 0 0 0 13 11 A 3 1.9999995 0 0 0 13.402344 11.994141 A 3 1.9999995 45 0 0 12.414062 12.414062 A 3 1.9999995 45 0 0 11.994141 13.400391 A 1.9999995 3 0 0 0 11 13 A 1.9999995 3 0 0 0 10.005859 13.400391 A 1.9999995 3 45 0 0 9.5859375 12.414062 A 1.9999995 3 45 0 0 8.5996094 11.994141 A 3 1.9999995 0 0 0 9 11 A 3 1.9999995 0 0 0 8.5996094 10.005859 A 3 1.9999995 45 0 0 9.5859375 9.5859375 A 3 1.9999995 45 0 0 10.005859 8.5996094 A 1.9999995 3 0 0 0 11 9 A 1.9999995 3 0 0 0 11.994141 8.5976562 z M 11 10 C 10.446 10 10 10.446 10 11 C 10 11.554 10.446 12 11 12 C 11.554 12 12 11.554 12 11 C 12 10.446 11.554 10 11 10 z "
       transform="translate(0,1030.3622)"
       id="rect4108" />
  </g>
</svg>
