<?xml version="1.0" encoding="UTF-8" standalone="no"?>
<!-- Created with Inkscape (http://www.inkscape.org/) -->

<svg
   xmlns:dc="http://purl.org/dc/elements/1.1/"
   xmlns:cc="http://creativecommons.org/ns#"
   xmlns:rdf="http://www.w3.org/1999/02/22-rdf-syntax-ns#"
   xmlns:svg="http://www.w3.org/2000/svg"
   xmlns="http://www.w3.org/2000/svg"
   xmlns:sodipodi="http://sodipodi.sourceforge.net/DTD/sodipodi-0.dtd"
   xmlns:inkscape="http://www.inkscape.org/namespaces/inkscape"
   width="22"
   height="22"
   id="svg3049"
   version="1.1"
   inkscape:version="0.91 r13725"
   sodipodi:docname="network-server-database.svg"
   inkscape:export-filename="/home/uri/.kde/share/icons/NITRUX-KDE/16x16/actions/view-right-new.png"
   inkscape:export-xdpi="30"
   inkscape:export-ydpi="30">
  <defs
     id="defs3051" />
  <sodipodi:namedview
     id="base"
     pagecolor="#ffffff"
     bordercolor="#666666"
     borderopacity="1.0"
     inkscape:pageopacity="0.0"
     inkscape:pageshadow="2"
     inkscape:zoom="32"
     inkscape:cx="15.051698"
     inkscape:cy="14.600921"
     inkscape:document-units="px"
     inkscape:current-layer="layer1"
     showgrid="true"
     fit-margin-top="0"
     fit-margin-left="0"
     fit-margin-right="0"
     fit-margin-bottom="0"
     inkscape:window-width="1920"
     inkscape:window-height="957"
     inkscape:window-x="-4"
     inkscape:window-y="0"
     inkscape:window-maximized="1"
     inkscape:showpageshadow="false"
     borderlayer="true"
     inkscape:object-nodes="true"
     inkscape:snap-global="true"
     inkscape:snap-bbox="true">
    <sodipodi:guide
       position="2.0000044,20.00003"
       orientation="18,0"
       id="guide4067" />
    <sodipodi:guide
       position="2.0000044,2.0000296"
       orientation="0,18"
       id="guide4069" />
    <sodipodi:guide
       position="20.000004,2.0000296"
       orientation="-18,0"
       id="guide4071" />
    <sodipodi:guide
       position="35,19.9375"
       orientation="0,-18"
       id="guide4073" />
    <sodipodi:guide
       position="3.0000044,19.00003"
       orientation="16,0"
       id="guide4077" />
    <sodipodi:guide
       position="3.0000044,3.0000296"
       orientation="0,16"
       id="guide4079" />
    <sodipodi:guide
       position="19,6"
       orientation="-16,0"
       id="guide4081" />
    <sodipodi:guide
       position="19.000004,19.00003"
       orientation="0,-16"
       id="guide4083" />
    <inkscape:grid
       type="xygrid"
       id="grid4085" />
  </sodipodi:namedview>
  <metadata
     id="metadata3054">
    <rdf:RDF>
      <cc:Work
         rdf:about="">
        <dc:format>image/svg+xml</dc:format>
        <dc:type
           rdf:resource="http://purl.org/dc/dcmitype/StillImage" />
        <dc:title></dc:title>
      </cc:Work>
    </rdf:RDF>
  </metadata>
  <g
     inkscape:label="Capa 1"
     inkscape:groupmode="layer"
     id="layer1"
     transform="translate(-421.71429,-525.79074)">
    <rect
       style="fill:#f2f2f2;fill-opacity:1;stroke:none"
       id="rect4035"
       width="0"
       height="19.557413"
       x="343.99515"
       y="498.30029" />
    <rect
       style="fill:#f2f2f2;fill-opacity:1;stroke:none"
       id="rect4035-8"
       width="0"
       height="19.557413"
       x="353.27591"
       y="528.39447" />
    <rect
       style="fill:#f2f2f2;fill-opacity:1;stroke:none"
       id="rect4035-0"
       width="0"
       height="19.557413"
       x="355.69363"
       y="526.98016" />
    <rect
       style="fill:#f2f2f2;fill-opacity:1;stroke:none"
       id="rect4035-06"
       width="0"
       height="19.557413"
       x="321.12015"
       y="493.25864" />
    <rect
       style="fill:#f2f2f2;fill-opacity:1;stroke:none"
       id="rect4035-8-7"
       width="0"
       height="19.557413"
       x="330.40091"
       y="523.35278" />
    <rect
       style="fill:#f2f2f2;fill-opacity:1;stroke:none"
       id="rect4035-0-42"
       width="0"
       height="19.557413"
       x="332.81863"
       y="521.93848" />
    <rect
       style="fill:#f2f2f2;fill-opacity:1;stroke:none"
       id="rect4035-3"
       width="0"
       height="19.557413"
       x="321.12015"
       y="493.25864" />
    <rect
       style="fill:#f2f2f2;fill-opacity:1;stroke:none"
       id="rect4035-8-9"
       width="0"
       height="19.557413"
       x="330.40091"
       y="523.35278" />
    <rect
       style="fill:#f2f2f2;fill-opacity:1;stroke:none"
       id="rect4035-0-4"
       width="0"
       height="19.557413"
       x="332.81863"
       y="521.93848" />
    <rect
       style="fill:#f2f2f2;fill-opacity:1;stroke:none"
       id="rect4035-2"
       width="0"
       height="19.557413"
       x="321.12015"
       y="493.25864" />
    <rect
       style="fill:#f2f2f2;fill-opacity:1;stroke:none"
       id="rect4035-8-99"
       width="0"
       height="19.557413"
       x="330.40091"
       y="523.35278" />
    <rect
       style="fill:#f2f2f2;fill-opacity:1;stroke:none"
       id="rect4035-0-43"
       width="0"
       height="19.557413"
       x="332.81863"
       y="521.93848" />
    <rect
       style="fill:#f2f2f2;fill-opacity:1;stroke:none"
       id="rect4035-3-9"
       width="0"
       height="19.557413"
       x="321.12015"
       y="493.25864" />
    <rect
       style="fill:#f2f2f2;fill-opacity:1;stroke:none"
       id="rect4035-8-9-9"
       width="0"
       height="19.557413"
       x="330.40091"
       y="523.35278" />
    <rect
       style="fill:#f2f2f2;fill-opacity:1;stroke:none"
       id="rect4035-0-4-4"
       width="0"
       height="19.557413"
       x="332.81863"
       y="521.93848" />
    <rect
       style="fill:#f2f2f2;fill-opacity:1;stroke:none"
       id="rect4035-5"
       width="0"
       height="14.666644"
       x="414.81363"
       y="521.64453" />
    <rect
       style="fill:#f2f2f2;fill-opacity:1;stroke:none"
       id="rect4035-7"
       width="0"
       height="14.666644"
       x="408.74429"
       y="525.00336" />
    <rect
       style="fill:#f2f2f2;fill-opacity:1;stroke:none"
       id="rect4035-9"
       width="0"
       height="14.666644"
       x="402.73392"
       y="508.44525" />
    <rect
       style="fill:#f2f2f2;fill-opacity:1;stroke:none"
       id="rect4035-96"
       width="0"
       height="14.666644"
       x="403.85928"
       y="524.76184" />
    <rect
       style="fill:#f2f2f2;fill-opacity:1;stroke:none"
       id="rect4035-7-0"
       width="0"
       height="14.666644"
       x="397.78995"
       y="528.12061" />
    <rect
       style="fill:#f2f2f2;fill-opacity:1;stroke:none"
       id="rect4035-9-6"
       width="0"
       height="14.666644"
       x="391.77957"
       y="511.5625" />
    <rect
       style="fill:#f2f2f2;fill-opacity:1;stroke:none"
       id="rect4035-1"
       width="0"
       height="14.666644"
       x="414.81363"
       y="521.64453" />
    <rect
       style="fill:#f2f2f2;fill-opacity:1;stroke:none"
       id="rect4035-7-2"
       width="0"
       height="14.666644"
       x="408.74429"
       y="525.00336" />
    <rect
       style="fill:#f2f2f2;fill-opacity:1;stroke:none"
       id="rect4035-9-0"
       width="0"
       height="14.666644"
       x="402.73392"
       y="508.44525" />
    <rect
       style="fill:#f2f2f2;fill-opacity:1;stroke:none"
       id="rect4035-96-9"
       width="0"
       height="14.666644"
       x="403.85928"
       y="524.76184" />
    <rect
       style="fill:#f2f2f2;fill-opacity:1;stroke:none"
       id="rect4035-7-0-9"
       width="0"
       height="14.666644"
       x="397.78995"
       y="528.12061" />
    <rect
       style="fill:#f2f2f2;fill-opacity:1;stroke:none"
       id="rect4035-9-6-9"
       width="0"
       height="14.666644"
       x="391.77957"
       y="511.5625" />
    <rect
       style="fill:#f2f2f2;fill-opacity:1;stroke:none"
       id="rect4035-70"
       width="0"
       height="14.668059"
       x="369.0961"
       y="509.90729" />
    <rect
       style="fill:#f2f2f2;fill-opacity:1;stroke:none"
       id="rect4035-8-94"
       width="0"
       height="14.668059"
       x="376.05667"
       y="532.47791" />
    <rect
       style="fill:#f2f2f2;fill-opacity:1;stroke:none"
       id="rect4035-0-6"
       width="0"
       height="14.668059"
       x="377.86996"
       y="531.41718" />
    <path
       inkscape:connector-curvature="0"
       style="fill:#f2f2f2;fill-opacity:1;stroke:none;stroke-width:2;stroke-miterlimit:4;stroke-dasharray:none"
       d="m 432.71429,528.79074 a 8,3.0000005 0 0 0 -8,3 l 0,10 a 8,3.0000005 0 0 0 8,3 8,3.0000005 0 0 0 8,-3 l 0,-10 a 8,3.0000005 0 0 0 -8,-3 z m 0,1 a 7,2 0 0 1 7,2 7,2 0 0 1 -7,2 7,2 0 0 1 -7,-2 7,2 0 0 1 7,-2 z m 7,3.44531 0,3.55469 a 7,2 0 0 1 -7,2 7,2 0 0 1 -7,-2 l 0,-3.54883 a 8,3.0000005 0 0 0 7,1.54883 8,3.0000005 0 0 0 7,-1.55469 z m 0,5 0,3.55469 a 7,2 0 0 1 -7,2 7,2 0 0 1 -7,-2 l 0,-3.54883 a 8,3.0000005 0 0 0 7,1.54883 8,3.0000005 0 0 0 7,-1.55469 z"
       id="path4146" />
  </g>
</svg>
