<?xml version="1.0" encoding="UTF-8" standalone="no"?>
<!-- Created with Inkscape (http://www.inkscape.org/) -->

<svg
   xmlns:dc="http://purl.org/dc/elements/1.1/"
   xmlns:cc="http://creativecommons.org/ns#"
   xmlns:rdf="http://www.w3.org/1999/02/22-rdf-syntax-ns#"
   xmlns:svg="http://www.w3.org/2000/svg"
   xmlns="http://www.w3.org/2000/svg"
   xmlns:sodipodi="http://sodipodi.sourceforge.net/DTD/sodipodi-0.dtd"
   xmlns:inkscape="http://www.inkscape.org/namespaces/inkscape"
   width="8"
   height="8"
   id="svg2"
   version="1.1"
   inkscape:version="0.91+devel r"
   viewBox="0 0 8 8"
   sodipodi:docname="emblem-unmounted.svg">
  <defs
     id="defs4" />
  <sodipodi:namedview
     id="base"
     pagecolor="#ffffff"
     bordercolor="#666666"
     borderopacity="1.0"
     inkscape:pageopacity="0.0"
     inkscape:pageshadow="2"
     inkscape:zoom="46"
     inkscape:cx="5.3324124"
     inkscape:cy="4.3122364"
     inkscape:document-units="px"
     inkscape:current-layer="layer1"
     showgrid="true"
     inkscape:showpageshadow="false"
     borderlayer="true"
     units="px"
     inkscape:window-width="1366"
     inkscape:window-height="670"
     inkscape:window-x="-4"
     inkscape:window-y="29"
     inkscape:window-maximized="1"
     inkscape:snap-bbox="true"
     showguides="false"
     fit-margin-top="0"
     fit-margin-left="0"
     fit-margin-right="0"
     fit-margin-bottom="0">
    <inkscape:grid
       type="xygrid"
       id="grid4062"
       originx="-7"
       originy="-7.0000174" />
  </sodipodi:namedview>
  <metadata
     id="metadata7">
    <rdf:RDF>
      <cc:Work
         rdf:about="">
        <dc:format>image/svg+xml</dc:format>
        <dc:type
           rdf:resource="http://purl.org/dc/dcmitype/StillImage" />
        <dc:title></dc:title>
      </cc:Work>
    </rdf:RDF>
  </metadata>
  <g
     inkscape:label="Capa 1"
     inkscape:groupmode="layer"
     id="layer1"
     transform="translate(-7,-1037.3622)">
    <rect
       style="opacity:1;fill:#da4453;fill-opacity:1;stroke:none"
       id="rect4153"
       width="8"
       height="8"
       x="7"
       y="1037.3622"
       ry="0.36364365" />
    <path
       style="opacity:1;fill:#ffffff;fill-opacity:1;stroke:none"
       d="M 1.2734375 1 C 1.1223436 1 1 1.1223436 1 1.2734375 L 1 6.7265625 C 1 6.8776564 1.1223436 7 1.2734375 7 L 6.7265625 7 C 6.8776564 7 7 6.8776564 7 6.7265625 L 7 1.2734375 C 7 1.1223436 6.8776564 1 6.7265625 1 L 1.2734375 1 z M 2.1816406 2 L 5.8183594 2 C 5.9190887 2 6 2.0809113 6 2.1816406 L 6 5.8183594 C 6 5.9190887 5.9190887 6 5.8183594 6 L 2.1816406 6 C 2.0809113 6 2 5.9190887 2 5.8183594 L 2 2.1816406 C 2 2.0809113 2.0809113 2 2.1816406 2 z "
       transform="translate(7,1037.3622)"
       id="rect4253" />
  </g>
</svg>
