<?xml version="1.0" encoding="UTF-8" standalone="no"?>
<!-- Created with Inkscape (http://www.inkscape.org/) -->

<svg
   xmlns:dc="http://purl.org/dc/elements/1.1/"
   xmlns:cc="http://creativecommons.org/ns#"
   xmlns:rdf="http://www.w3.org/1999/02/22-rdf-syntax-ns#"
   xmlns:svg="http://www.w3.org/2000/svg"
   xmlns="http://www.w3.org/2000/svg"
   xmlns:sodipodi="http://sodipodi.sourceforge.net/DTD/sodipodi-0.dtd"
   xmlns:inkscape="http://www.inkscape.org/namespaces/inkscape"
   width="16"
   height="16"
   id="svg2"
   version="1.1"
   inkscape:version="0.91+devel r"
   viewBox="0 0 16 16"
   sodipodi:docname="text-x-patch.svg">
  <defs
     id="defs4" />
  <sodipodi:namedview
     id="base"
     pagecolor="#ffffff"
     bordercolor="#666666"
     borderopacity="1.0"
     inkscape:pageopacity="0.0"
     inkscape:pageshadow="2"
     inkscape:zoom="33.782026"
     inkscape:cx="7.9323902"
     inkscape:cy="8.4497585"
     inkscape:document-units="px"
     inkscape:current-layer="layer1"
     showgrid="true"
     inkscape:showpageshadow="false"
     borderlayer="true"
     units="px"
     inkscape:window-width="1366"
     inkscape:window-height="670"
     inkscape:window-x="-4"
     inkscape:window-y="29"
     inkscape:window-maximized="1">
    <inkscape:grid
       type="xygrid"
       id="grid4062" />
    <sodipodi:guide
       position="2,14.000017"
       orientation="12,0"
       id="guide4066" />
    <sodipodi:guide
       position="2,2.0000174"
       orientation="0,12"
       id="guide4068" />
    <sodipodi:guide
       position="14,2.0000174"
       orientation="-12,0"
       id="guide4070" />
    <sodipodi:guide
       position="14,14.000017"
       orientation="0,-12"
       id="guide4072" />
  </sodipodi:namedview>
  <metadata
     id="metadata7">
    <rdf:RDF>
      <cc:Work
         rdf:about="">
        <dc:format>image/svg+xml</dc:format>
        <dc:type
           rdf:resource="http://purl.org/dc/dcmitype/StillImage" />
        <dc:title />
      </cc:Work>
    </rdf:RDF>
  </metadata>
  <g
     inkscape:label="Capa 1"
     inkscape:groupmode="layer"
     id="layer1"
     transform="translate(0,-1036.3622)">
    <path
       style="opacity:1;fill:#6c7a89;fill-opacity:1;stroke:none;stroke-opacity:1"
       d="M 5.5 2 A 1.5 1.5 0 0 0 4 3.5 A 1.5 1.5 0 0 0 5 4.9121094 L 5 11.087891 A 1.4999913 1.4999913 0 0 0 4 12.5 A 1.4999913 1.4999913 0 0 0 5.5 14 A 1.4999913 1.4999913 0 0 0 7 12.5 A 1.4999913 1.4999913 0 0 0 6 11.087891 L 6 4.9121094 A 1.5 1.5 0 0 0 7 3.5 A 1.5 1.5 0 0 0 5.5 2 z M 9 2 L 7 3.4003906 L 9 5 L 9 4 L 10 4 C 10.554 4 11 4.446 11 5 L 11 11.087891 A 1.4999913 1.4999913 0 0 0 10 12.5 A 1.4999913 1.4999913 0 0 0 11.5 14 A 1.4999913 1.4999913 0 0 0 13 12.5 A 1.4999913 1.4999913 0 0 0 12 11.087891 L 12 5 C 12 3.892 11.106618 3.0553 10 3 L 9 3 L 9 2 z M 5.5 3 A 0.5 0.5 0 0 1 6 3.5 A 0.5 0.5 0 0 1 5.5 4 A 0.5 0.5 0 0 1 5 3.5 A 0.5 0.5 0 0 1 5.5 3 z M 5.5 12 A 0.4999913 0.4999913 0 0 1 6 12.5 A 0.4999913 0.4999913 0 0 1 5.5 13 A 0.4999913 0.4999913 0 0 1 5 12.5 A 0.4999913 0.4999913 0 0 1 5.5 12 z M 11.5 12 A 0.4999913 0.4999913 0 0 1 12 12.5 A 0.4999913 0.4999913 0 0 1 11.5 13 A 0.4999913 0.4999913 0 0 1 11 12.5 A 0.4999913 0.4999913 0 0 1 11.5 12 z "
       transform="translate(0,1036.3622)"
       id="rect4143" />
  </g>
</svg>
