<?xml version="1.0" encoding="UTF-8" standalone="no"?>
<!-- Created with Inkscape (http://www.inkscape.org/) -->

<svg
   xmlns:dc="http://purl.org/dc/elements/1.1/"
   xmlns:cc="http://creativecommons.org/ns#"
   xmlns:rdf="http://www.w3.org/1999/02/22-rdf-syntax-ns#"
   xmlns:svg="http://www.w3.org/2000/svg"
   xmlns="http://www.w3.org/2000/svg"
   xmlns:sodipodi="http://sodipodi.sourceforge.net/DTD/sodipodi-0.dtd"
   xmlns:inkscape="http://www.inkscape.org/namespaces/inkscape"
   width="16"
   height="16"
   id="svg2"
   version="1.1"
   inkscape:version="0.91 r13725"
   viewBox="0 0 16 16"
   sodipodi:docname="application-octet-stream.svg">
  <defs
     id="defs4" />
  <sodipodi:namedview
     id="base"
     pagecolor="#ffffff"
     bordercolor="#666666"
     borderopacity="1.0"
     inkscape:pageopacity="0.0"
     inkscape:pageshadow="2"
     inkscape:zoom="21.8125"
     inkscape:cx="8"
     inkscape:cy="8"
     inkscape:document-units="px"
     inkscape:current-layer="layer1"
     showgrid="true"
     inkscape:showpageshadow="false"
     borderlayer="true"
     inkscape:window-width="1024"
     inkscape:window-height="532"
     inkscape:window-x="0"
     inkscape:window-y="0"
     inkscape:window-maximized="1"
     units="px"
     inkscape:snap-bbox="true">
    <inkscape:grid
       type="xygrid"
       id="grid4101" />
    <sodipodi:guide
       position="2,14.000017"
       orientation="12,0"
       id="guide4071" />
    <sodipodi:guide
       position="2,2.0000174"
       orientation="0,12"
       id="guide4073" />
    <sodipodi:guide
       position="14,2.0000174"
       orientation="-12,0"
       id="guide4075" />
    <sodipodi:guide
       position="14,14.000017"
       orientation="0,-12"
       id="guide4077" />
  </sodipodi:namedview>
  <metadata
     id="metadata7">
    <rdf:RDF>
      <cc:Work
         rdf:about="">
        <dc:format>image/svg+xml</dc:format>
        <dc:type
           rdf:resource="http://purl.org/dc/dcmitype/StillImage" />
        <dc:title />
      </cc:Work>
    </rdf:RDF>
  </metadata>
  <g
     inkscape:label="Capa 1"
     inkscape:groupmode="layer"
     id="layer1"
     transform="translate(0,-1036.3622)">
    <path
       style="fill:#6c7a89;fill-opacity:1;stroke:none"
       d="M 2,2 2,5 2,13.25 2,14 14,14 14,13.25 14,9.5 14,5 14,2 Z m 1,3 10,0 0,8 C 9.449069,12.963 6.549687,12.923 3,13 Z"
       id="rect4138"
       transform="translate(0,1036.3622)"
       inkscape:connector-curvature="0"
       sodipodi:nodetypes="ccccccccccccccc" />
    <path
       inkscape:connector-curvature="0"
       style="opacity:1;fill:#6c7a89;fill-opacity:1;stroke:none;stroke-width:2;stroke-linecap:round;stroke-linejoin:round;stroke-miterlimit:4;stroke-dasharray:none;stroke-opacity:1"
       d="m 8,1042.3622 c -0.5555545,0 -1.0742855,0.1705 -1.439737,0.4902 C 6.194823,1043.1722 6,1043.6261 6,1044.1122 l 1.142857,0 c 0,-0.2639 0.090858,-0.435 0.2254515,-0.5527 0.1345485,-0.1178 0.330103,-0.1973 0.6316915,-0.1973 0.3015885,0 0.497143,0.08 0.6316915,0.1973 0.13456,0.1177 0.2254515,0.2888 0.2254515,0.5527 0,0.2292 -0.051658,0.3267 -0.1205375,0.4131 -0.297874,0.2629 -0.6581255,0.4878 -0.9475425,0.7031 -0.3266745,0.2146 -0.646046,0.496 -0.646046,0.8838 l 0,0.25 1.1428575,0 0,-0.25 c 0.4061825,-0.3638 1.011417,-0.6811 1.3882285,-1.0146 C 9.873051,1044.848 10,1044.508 10,1044.1122 c 0,-0.4861 -0.194823,-0.94 -0.560263,-1.2598 C 9.0742855,1042.5327 8.5555545,1042.3622 8,1042.3622 Z m -0.856983,5 0,1 1.1428575,0 0,-1 z"
       id="rect4169-4"
       sodipodi:nodetypes="ssccssssccsccccsssccccc" />
  </g>
</svg>
