<?xml version="1.0" encoding="UTF-8" standalone="no"?>
<!-- Created with Inkscape (http://www.inkscape.org/) -->

<svg
   xmlns:dc="http://purl.org/dc/elements/1.1/"
   xmlns:cc="http://creativecommons.org/ns#"
   xmlns:rdf="http://www.w3.org/1999/02/22-rdf-syntax-ns#"
   xmlns:svg="http://www.w3.org/2000/svg"
   xmlns="http://www.w3.org/2000/svg"
   xmlns:sodipodi="http://sodipodi.sourceforge.net/DTD/sodipodi-0.dtd"
   xmlns:inkscape="http://www.inkscape.org/namespaces/inkscape"
   width="16"
   height="16"
   id="svg2"
   version="1.1"
   inkscape:version="0.91+devel r"
   viewBox="0 0 16 16"
   sodipodi:docname="application-x-designer.svg">
  <defs
     id="defs4" />
  <sodipodi:namedview
     id="base"
     pagecolor="#ffffff"
     bordercolor="#666666"
     borderopacity="1.0"
     inkscape:pageopacity="0.0"
     inkscape:pageshadow="2"
     inkscape:zoom="31.625"
     inkscape:cx="11.443404"
     inkscape:cy="6.102996"
     inkscape:document-units="px"
     inkscape:current-layer="layer1"
     showgrid="true"
     inkscape:showpageshadow="false"
     borderlayer="true"
     inkscape:window-width="1366"
     inkscape:window-height="670"
     inkscape:window-x="-4"
     inkscape:window-y="29"
     inkscape:window-maximized="1"
     units="px"
     inkscape:snap-bbox="true"
     inkscape:snap-global="true">
    <inkscape:grid
       type="xygrid"
       id="grid4101" />
    <sodipodi:guide
       position="2,14.000017"
       orientation="12,0"
       id="guide4071" />
    <sodipodi:guide
       position="2,2.0000174"
       orientation="0,12"
       id="guide4073" />
    <sodipodi:guide
       position="14,2.0000174"
       orientation="-12,0"
       id="guide4075" />
    <sodipodi:guide
       position="14,14.000017"
       orientation="0,-12"
       id="guide4077" />
  </sodipodi:namedview>
  <metadata
     id="metadata7">
    <rdf:RDF>
      <cc:Work
         rdf:about="">
        <dc:format>image/svg+xml</dc:format>
        <dc:type
           rdf:resource="http://purl.org/dc/dcmitype/StillImage" />
        <dc:title />
      </cc:Work>
    </rdf:RDF>
  </metadata>
  <g
     inkscape:label="Capa 1"
     inkscape:groupmode="layer"
     id="layer1"
     transform="translate(0,-1036.3622)">
    <path
       style="fill:#22a7f0;fill-opacity:1"
       d="M 12.501953 2 L 11.753906 2.7441406 L 11.751953 2.7441406 L 6 8.4765625 L 6.0039062 8.4863281 L 6 8.4980469 L 6.0058594 8.5078125 L 6.0019531 9.2480469 L 6 9.2480469 L 6 9.9902344 L 6 10.001953 L 7.5 10.001953 L 7.5039062 9.9902344 L 7.5078125 9.9902344 L 7.515625 9.9902344 L 7.5097656 9.9804688 L 8.25 9.2421875 L 13.251953 4.2558594 L 14 3.5097656 L 12.501953 2.0175781 L 12.501953 2 z M 2 9 L 2 10 L 2 14 L 3 14 L 14 14 L 14 13 L 14 10 L 14 9 L 10 9 L 10 10 L 13 10 L 13 13 L 11.900391 13 L 11.900391 12 L 10.900391 12 L 10.900391 13 L 9.9003906 13 L 9.9003906 11 L 8.9003906 11 L 8.9003906 13 L 7 13 L 7 12 L 6 12 L 6 13 L 5 13 L 5 11 L 4 11 L 4 13 L 3 13 L 3 10 L 5 10 L 5 9 L 2 9 z "
       transform="translate(0,1036.3622)"
       id="path4141" />
  </g>
</svg>
