<?xml version="1.0" encoding="UTF-8" standalone="no"?>
<!-- Created with Inkscape (http://www.inkscape.org/) -->

<svg
   xmlns:dc="http://purl.org/dc/elements/1.1/"
   xmlns:cc="http://creativecommons.org/ns#"
   xmlns:rdf="http://www.w3.org/1999/02/22-rdf-syntax-ns#"
   xmlns:svg="http://www.w3.org/2000/svg"
   xmlns="http://www.w3.org/2000/svg"
   xmlns:sodipodi="http://sodipodi.sourceforge.net/DTD/sodipodi-0.dtd"
   xmlns:inkscape="http://www.inkscape.org/namespaces/inkscape"
   width="16"
   height="16"
   id="svg2"
   version="1.1"
   inkscape:version="0.91+devel r"
   viewBox="0 0 16 16"
   sodipodi:docname="application-x-font-ttf.svg">
  <defs
     id="defs4" />
  <sodipodi:namedview
     id="base"
     pagecolor="#ffffff"
     bordercolor="#666666"
     borderopacity="1.0"
     inkscape:pageopacity="0.0"
     inkscape:pageshadow="2"
     inkscape:zoom="3.959798"
     inkscape:cx="-0.6733781"
     inkscape:cy="34.164271"
     inkscape:document-units="px"
     inkscape:current-layer="layer1"
     showgrid="true"
     inkscape:showpageshadow="false"
     borderlayer="true"
     inkscape:window-width="1366"
     inkscape:window-height="670"
     inkscape:window-x="-4"
     inkscape:window-y="29"
     inkscape:window-maximized="1"
     units="px"
     inkscape:snap-bbox="true"
     inkscape:snap-global="true">
    <inkscape:grid
       type="xygrid"
       id="grid4101" />
    <sodipodi:guide
       position="2,14.000017"
       orientation="12,0"
       id="guide4071" />
    <sodipodi:guide
       position="2,2.0000174"
       orientation="0,12"
       id="guide4073" />
    <sodipodi:guide
       position="14,2.0000174"
       orientation="-12,0"
       id="guide4075" />
    <sodipodi:guide
       position="14,14.000017"
       orientation="0,-12"
       id="guide4077" />
  </sodipodi:namedview>
  <metadata
     id="metadata7">
    <rdf:RDF>
      <cc:Work
         rdf:about="">
        <dc:format>image/svg+xml</dc:format>
        <dc:type
           rdf:resource="http://purl.org/dc/dcmitype/StillImage" />
        <dc:title />
      </cc:Work>
    </rdf:RDF>
  </metadata>
  <g
     inkscape:label="Capa 1"
     inkscape:groupmode="layer"
     id="layer1"
     transform="translate(0,-1036.3622)">
    <rect
       style="fill:#6c7a89;fill-opacity:1;stroke:none"
       id="rect4035"
       width="0"
       height="10.999983"
       x="-17"
       y="1039.3622" />
    <path
       inkscape:connector-curvature="0"
       id="path4124"
       style="font-size:medium;font-style:italic;font-variant:normal;font-weight:normal;font-stretch:normal;line-height:125%;letter-spacing:0px;word-spacing:0px;fill:#6c7a89;fill-opacity:1;stroke:none;font-family:Oxygen;-inkscape-font-specification:Oxygen Italic"
       d="m 6.7511089,1048.9387 c -0.978627,0 -1.6458726,-0.4892 -1.4679404,-1.7347 0.2224151,-1.557 1.156559,-2.0686 4.1146816,-2.4912 0.02224,0 0.9341429,-0.1556 0.9341429,-0.1556 l -0.3781054,2.758 c -0.8006948,1.0008 -2.2463933,1.6235 -3.2027787,1.6235 z m 3.0470879,-0.1333 0.044479,1.2899 1.2677672,0 1.156559,-8.3406 c 0.355865,-2.5355 -1.089835,-3.2695 -3.1138132,-3.2695 -1.4456985,0 -2.8691559,0.4226 -3.7143337,0.912 l 0.2446567,1.3789 c 0.9119024,-0.4448 2.1574275,-0.7561 3.2917451,-0.7561 1.4012161,0 1.9127701,0.6894 1.7348391,2.0239 l -0.200174,1.2678 -1.0453519,0.1334 c -2.6912238,0.4226 -5.3157233,0.8452 -5.7383122,3.8255 -0.3113813,2.1352 0.9563854,3.0916 2.6467411,3.0916 1.0675928,0 2.3798431,-0.4003 3.4251938,-1.5568 z" />
  </g>
</svg>
