<?xml version="1.0" encoding="UTF-8" standalone="no"?>
<!-- Created with Inkscape (http://www.inkscape.org/) -->

<svg
   xmlns:dc="http://purl.org/dc/elements/1.1/"
   xmlns:cc="http://creativecommons.org/ns#"
   xmlns:rdf="http://www.w3.org/1999/02/22-rdf-syntax-ns#"
   xmlns:svg="http://www.w3.org/2000/svg"
   xmlns="http://www.w3.org/2000/svg"
   xmlns:sodipodi="http://sodipodi.sourceforge.net/DTD/sodipodi-0.dtd"
   xmlns:inkscape="http://www.inkscape.org/namespaces/inkscape"
   width="16"
   height="16"
   id="svg2"
   version="1.1"
   inkscape:version="0.91+devel r"
   viewBox="0 0 16 16"
   sodipodi:docname="text-x-tex.svg">
  <defs
     id="defs4" />
  <sodipodi:namedview
     id="base"
     pagecolor="#ffffff"
     bordercolor="#666666"
     borderopacity="1.0"
     inkscape:pageopacity="0.0"
     inkscape:pageshadow="2"
     inkscape:zoom="33.782026"
     inkscape:cx="4.3010599"
     inkscape:cy="7.8925663"
     inkscape:document-units="px"
     inkscape:current-layer="layer1"
     showgrid="true"
     inkscape:showpageshadow="false"
     borderlayer="true"
     units="px"
     inkscape:window-width="1366"
     inkscape:window-height="670"
     inkscape:window-x="-4"
     inkscape:window-y="29"
     inkscape:window-maximized="1">
    <inkscape:grid
       type="xygrid"
       id="grid4062" />
    <sodipodi:guide
       position="2,14.000017"
       orientation="12,0"
       id="guide4066" />
    <sodipodi:guide
       position="2,2.0000174"
       orientation="0,12"
       id="guide4068" />
    <sodipodi:guide
       position="14,2.0000174"
       orientation="-12,0"
       id="guide4070" />
    <sodipodi:guide
       position="14,14.000017"
       orientation="0,-12"
       id="guide4072" />
  </sodipodi:namedview>
  <metadata
     id="metadata7">
    <rdf:RDF>
      <cc:Work
         rdf:about="">
        <dc:format>image/svg+xml</dc:format>
        <dc:type
           rdf:resource="http://purl.org/dc/dcmitype/StillImage" />
        <dc:title />
      </cc:Work>
    </rdf:RDF>
  </metadata>
  <g
     inkscape:label="Capa 1"
     inkscape:groupmode="layer"
     id="layer1"
     transform="translate(0,-1036.3622)">
    <path
       style="opacity:1;fill:#8e44ad;fill-opacity:1;stroke:none"
       d="M 2 2 L 2 3 L 14 3 L 14 2 L 2 2 z M 6.2675781 4 L 6.2851562 4.4863281 L 9.7148438 9 L 6 13.445312 L 6 14 L 14 14 L 14 11.222656 L 13.427734 11.222656 C 13.427734 11.777956 13.577305 12.122478 13.089844 12.455078 C 12.555426 12.819978 11.851357 12.888672 11.232422 12.888672 L 8.2851562 12.888672 L 11.142578 9 L 8.2851562 4.5546875 L 9.9648438 4.5546875 C 11.155757 4.5546875 12.851039 4.4480437 13.322266 5.8398438 C 13.402826 6.0774437 13.407457 6.5276437 13.427734 6.7773438 L 14 6.7773438 L 14 4 L 6.2675781 4 z M 2 5 L 2 6 L 6 6 L 6 5 L 2 5 z M 2 7 L 2 8 L 7 8 L 7 7 L 2 7 z M 2 10 L 2 11 L 7 11 L 7 10 L 2 10 z M 2 12 L 2 13 L 6 13 L 6 12 L 2 12 z "
       transform="translate(0,1036.3622)"
       id="rect4274" />
  </g>
</svg>
