<?xml version="1.0" encoding="UTF-8" standalone="no"?>
<!-- Created with Inkscape (http://www.inkscape.org/) -->

<svg
   xmlns:dc="http://purl.org/dc/elements/1.1/"
   xmlns:cc="http://creativecommons.org/ns#"
   xmlns:rdf="http://www.w3.org/1999/02/22-rdf-syntax-ns#"
   xmlns:svg="http://www.w3.org/2000/svg"
   xmlns="http://www.w3.org/2000/svg"
   xmlns:sodipodi="http://sodipodi.sourceforge.net/DTD/sodipodi-0.dtd"
   xmlns:inkscape="http://www.inkscape.org/namespaces/inkscape"
   width="16"
   height="16"
   id="svg2"
   version="1.1"
   inkscape:version="0.91+devel r"
   viewBox="0 0 16 16"
   sodipodi:docname="x-media-podcast.svg">
  <defs
     id="defs4" />
  <sodipodi:namedview
     id="base"
     pagecolor="#ffffff"
     bordercolor="#666666"
     borderopacity="1.0"
     inkscape:pageopacity="0.0"
     inkscape:pageshadow="2"
     inkscape:zoom="47.775"
     inkscape:cx="7.1069649"
     inkscape:cy="6.0446904"
     inkscape:document-units="px"
     inkscape:current-layer="layer1"
     showgrid="true"
     inkscape:showpageshadow="false"
     borderlayer="true"
     inkscape:window-width="1366"
     inkscape:window-height="670"
     inkscape:window-x="-4"
     inkscape:window-y="29"
     inkscape:window-maximized="1"
     units="px"
     inkscape:snap-bbox="true"
     inkscape:snap-global="true">
    <inkscape:grid
       type="xygrid"
       id="grid4101" />
    <sodipodi:guide
       position="2,14.000017"
       orientation="12,0"
       id="guide4071" />
    <sodipodi:guide
       position="2,2.0000174"
       orientation="0,12"
       id="guide4073" />
    <sodipodi:guide
       position="14,4"
       orientation="-12,0"
       id="guide4075" />
    <sodipodi:guide
       position="14,14.000017"
       orientation="0,-12"
       id="guide4077" />
  </sodipodi:namedview>
  <metadata
     id="metadata7">
    <rdf:RDF>
      <cc:Work
         rdf:about="">
        <dc:format>image/svg+xml</dc:format>
        <dc:type
           rdf:resource="http://purl.org/dc/dcmitype/StillImage" />
        <dc:title></dc:title>
      </cc:Work>
    </rdf:RDF>
  </metadata>
  <g
     inkscape:label="Capa 1"
     inkscape:groupmode="layer"
     id="layer1"
     transform="translate(0,-1036.3622)">
    <path
       style="opacity:1;fill:#8e44ad;fill-opacity:1;stroke:none;stroke-opacity:1"
       d="M 8 2 C 6.338 2 5 3.338 5 5 L 7 5 L 7 6 L 5 6 L 5 8 L 7 8 L 7 9 L 5.1816406 9 C 5.593201 10.1647 6.6909174 11 8 11 C 9.3090826 11 10.406799 10.1647 10.818359 9 L 9 9 L 9 8 L 11 8 L 11 6 L 9 6 L 9 5 L 11 5 C 11 3.338 9.662 2 8 2 z M 3.0996094 9 C 3.4953157 10.963449 5.0370263 12.495777 7 12.892578 L 7 13 L 6 14 L 7 14 L 9 14 L 10 14 L 9 13 L 9 12.892578 C 10.962973 12.495777 12.504684 10.963449 12.900391 9 L 11.861328 9 C 11.417636 10.7263 9.86855 12 8 12 C 6.13145 12 4.5823641 10.7263 4.1386719 9 L 3.0996094 9 z "
       transform="translate(0,1036.3622)"
       id="rect4160" />
  </g>
</svg>
