<?xml version="1.0" encoding="UTF-8" standalone="no"?>
<!-- Created with Inkscape (http://www.inkscape.org/) -->

<svg
   xmlns:dc="http://purl.org/dc/elements/1.1/"
   xmlns:cc="http://creativecommons.org/ns#"
   xmlns:rdf="http://www.w3.org/1999/02/22-rdf-syntax-ns#"
   xmlns:svg="http://www.w3.org/2000/svg"
   xmlns="http://www.w3.org/2000/svg"
   xmlns:sodipodi="http://sodipodi.sourceforge.net/DTD/sodipodi-0.dtd"
   xmlns:inkscape="http://www.inkscape.org/namespaces/inkscape"
   width="16"
   height="16"
   id="svg2"
   version="1.1"
   inkscape:version="0.91+devel r"
   viewBox="0 0 16 16"
   sodipodi:docname="x-office-contact.svg">
  <defs
     id="defs4" />
  <sodipodi:namedview
     id="base"
     pagecolor="#ffffff"
     bordercolor="#666666"
     borderopacity="1.0"
     inkscape:pageopacity="0.0"
     inkscape:pageshadow="2"
     inkscape:zoom="22.4"
     inkscape:cx="-5.1774171"
     inkscape:cy="8.988339"
     inkscape:document-units="px"
     inkscape:current-layer="layer1"
     showgrid="true"
     inkscape:showpageshadow="false"
     borderlayer="true"
     units="px"
     inkscape:window-width="1366"
     inkscape:window-height="670"
     inkscape:window-x="-4"
     inkscape:window-y="29"
     inkscape:window-maximized="1">
    <inkscape:grid
       type="xygrid"
       id="grid4062" />
    <sodipodi:guide
       position="2,14.000017"
       orientation="12,0"
       id="guide4066" />
    <sodipodi:guide
       position="2,2.0000174"
       orientation="0,12"
       id="guide4068" />
    <sodipodi:guide
       position="14,2.0000174"
       orientation="-12,0"
       id="guide4070" />
    <sodipodi:guide
       position="14,14.000017"
       orientation="0,-12"
       id="guide4072" />
  </sodipodi:namedview>
  <metadata
     id="metadata7">
    <rdf:RDF>
      <cc:Work
         rdf:about="">
        <dc:format>image/svg+xml</dc:format>
        <dc:type
           rdf:resource="http://purl.org/dc/dcmitype/StillImage" />
        <dc:title />
      </cc:Work>
    </rdf:RDF>
  </metadata>
  <g
     inkscape:label="Capa 1"
     inkscape:groupmode="layer"
     id="layer1"
     transform="translate(0,-1036.3622)">
    <path
       style="fill:#22a7f0;fill-opacity:1;stroke:none"
       d="M 6.5 2 C 5.115 2 4 3.115 4 4.5 C 4 5.885 5.115 7 6.5 7 C 7.885 7 9 5.885 9 4.5 C 9 3.115 7.885 2 6.5 2 z M 6.5 3 C 7.331 3 8 3.669 8 4.5 C 8 5.331 7.331 6 6.5 6 C 5.669 6 5 5.331 5 4.5 C 5 3.669 5.669 3 6.5 3 z M 12 4 C 10.892 4 10 4.892 10 6 C 10 7.108 10.892 8 12 8 C 13.108 8 14 7.108 14 6 C 14 4.892 13.108 4 12 4 z M 12 5 C 12.554 5 13 5.446 13 6 C 13 6.554 12.554 7 12 7 C 11.446 7 11 6.554 11 6 C 11 5.446 11.446 5 12 5 z M 6.5 8 C 4.0070124 8 2 10.007 2 12.5 L 2 13 L 2 14 L 2.2753906 14 L 3 14 L 3.3457031 14 L 9.6542969 14 L 10.724609 14 L 11 14 L 11 13 L 11 12.5 C 11 10.007 8.9929876 8 6.5 8 z M 6.5 9 C 8.4389876 9 10 10.561 10 12.5 L 10 13 L 3 13 L 3 12.5 C 3 10.561 4.5610124 9 6.5 9 z M 12 9 C 11.445274 9 10.933115 9.1595219 10.488281 9.4199219 C 10.731419 9.6568219 10.95369 9.9149656 11.144531 10.197266 C 11.404642 10.073866 11.69198 10 12 10 C 13.108 10 14 10.892 14 12 L 11.900391 12 C 11.965501 12.3231 12 12.6572 12 13 L 13.724609 13 L 14.818359 13 L 15 13 L 15 12 C 15 10.338 13.662 9 12 9 z "
       transform="translate(0,1036.3622)"
       id="rect4112" />
  </g>
</svg>
