<?xml version="1.0" encoding="UTF-8" standalone="no"?>
<!-- Created with Inkscape (http://www.inkscape.org/) -->

<svg
   xmlns:dc="http://purl.org/dc/elements/1.1/"
   xmlns:cc="http://creativecommons.org/ns#"
   xmlns:rdf="http://www.w3.org/1999/02/22-rdf-syntax-ns#"
   xmlns:svg="http://www.w3.org/2000/svg"
   xmlns="http://www.w3.org/2000/svg"
   xmlns:sodipodi="http://sodipodi.sourceforge.net/DTD/sodipodi-0.dtd"
   xmlns:inkscape="http://www.inkscape.org/namespaces/inkscape"
   width="22"
   height="22"
   viewBox="0 0 5.8208332 5.8208335"
   id="svg2"
   version="1.1"
   inkscape:version="0.91+devel r"
   sodipodi:docname="face-embarrassed.svg">
  <defs
     id="defs4" />
  <sodipodi:namedview
     id="base"
     pagecolor="#ffffff"
     bordercolor="#666666"
     borderopacity="1.0"
     inkscape:pageopacity="0.0"
     inkscape:pageshadow="2"
     inkscape:zoom="23"
     inkscape:cx="12.165458"
     inkscape:cy="10.598542"
     inkscape:document-units="px"
     inkscape:current-layer="layer1"
     showgrid="true"
     inkscape:window-width="1366"
     inkscape:window-height="670"
     inkscape:window-x="-4"
     inkscape:window-y="29"
     inkscape:window-maximized="1"
     units="px"
     inkscape:showpageshadow="false"
     borderlayer="true">
    <inkscape:grid
       type="xygrid"
       id="grid4160" />
    <sodipodi:guide
       position="-6.2596835e-15,5.8208248"
       orientation="21.999992,0"
       id="guide4164" />
    <sodipodi:guide
       position="-6.2596835e-15,-6.4613886e-06"
       orientation="0,22"
       id="guide4166" />
    <sodipodi:guide
       position="5.8208331,-6.4613886e-06"
       orientation="-21.999992,0"
       id="guide4168" />
    <sodipodi:guide
       position="5.8208331,5.8208248"
       orientation="0,-22"
       id="guide4170" />
    <sodipodi:guide
       position="0.52916662,5.29165"
       orientation="18.000046,0"
       id="guide4176" />
    <sodipodi:guide
       position="0.52916662,0.52913782"
       orientation="0,18"
       id="guide4178" />
    <sodipodi:guide
       position="5.2916665,0.52913782"
       orientation="-18.000046,0"
       id="guide4180" />
    <sodipodi:guide
       position="5.2916665,5.29165"
       orientation="0,-18"
       id="guide4182" />
    <sodipodi:guide
       position="0.52916662,1.3229305"
       orientation="3.0001614,0"
       id="guide4239" />
    <sodipodi:guide
       position="0.52916662,0.52913782"
       orientation="0,18"
       id="guide4241" />
    <sodipodi:guide
       position="5.2916665,0.52913782"
       orientation="-3.0001614,0"
       id="guide4243" />
    <sodipodi:guide
       position="5.2916665,1.3229305"
       orientation="0,-18"
       id="guide4245" />
    <sodipodi:guide
       position="0.52916662,5.2916805"
       orientation="4.9999614,0"
       id="guide4249" />
    <sodipodi:guide
       position="0.52916662,3.968774"
       orientation="0,18"
       id="guide4251" />
    <sodipodi:guide
       position="5.2916665,3.968774"
       orientation="-4.9999614,0"
       id="guide4253" />
    <sodipodi:guide
       position="5.2916665,5.2916805"
       orientation="0,-18"
       id="guide4255" />
  </sodipodi:namedview>
  <metadata
     id="metadata7">
    <rdf:RDF>
      <cc:Work
         rdf:about="">
        <dc:format>image/svg+xml</dc:format>
        <dc:type
           rdf:resource="http://purl.org/dc/dcmitype/StillImage" />
        <dc:title />
      </cc:Work>
    </rdf:RDF>
  </metadata>
  <g
     inkscape:label="Capa 1"
     inkscape:groupmode="layer"
     id="layer1"
     transform="translate(0,-291.17916)">
    <rect
       style="opacity:1;fill:#fdd583;fill-opacity:1;stroke:none"
       id="rect4152"
       width="5.291667"
       height="4.7625122"
       x="0.26458308"
       y="291.70834"
       ry="2.1166508" />
    <circle
       style="opacity:1;fill:#8f5315;fill-opacity:1;stroke:none"
       id="path4184"
       cx="1.7197909"
       cy="293.42813"
       r="0.39687502" />
    <circle
       r="0.39687502"
       cy="293.42813"
       cx="4.1010423"
       id="circle4186"
       style="opacity:1;fill:#8f5315;fill-opacity:1;stroke:none" />
    <rect
       style="opacity:1;fill:#8f5315;fill-opacity:1;stroke:none"
       id="rect4159"
       width="0.52916658"
       height="0.26455691"
       x="2.6458333"
       y="295.41251"
       ry="0.13227846" />
    <path
       style="opacity:1;fill:#ea5756;fill-opacity:1;stroke:none"
       d="m 1.483721,294.09108 c -0.049512,-0.006 -0.099927,0.0187 -0.1265243,0.0697 l -0.099519,0.19037 c -0.00564,-0.007 -0.00806,-0.0184 -0.016503,-0.0238 -0.035102,-0.0224 -0.079753,-0.01 -0.100019,0.0293 l -0.073014,0.14057 c -0.020266,0.0389 -0.0081,0.0882 0.027005,0.11067 0.035102,0.0224 0.079253,0.009 0.099519,-0.0299 l 0.027005,-0.0515 c 0.010081,0.0294 0.027796,0.056 0.05451,0.073 0.061423,0.0392 0.1390707,0.016 0.1745334,-0.052 l 0.021004,-0.0404 c 0.00741,0.0376 0.027917,0.0716 0.060512,0.0924 0.061423,0.0392 0.1390707,0.0165 0.1745335,-0.0515 l 0.1280245,-0.24571 c 0.035463,-0.068 0.014914,-0.15444 -0.046509,-0.19368 -0.061423,-0.0393 -0.1395707,-0.016 -0.1750334,0.052 l -0.021004,0.0404 c -0.00749,-0.0374 -0.027556,-0.0717 -0.060011,-0.0924 -0.015356,-0.01 -0.032005,-0.0154 -0.048509,-0.0177 z"
       id="rect4179"
       inkscape:connector-curvature="0" />
    <path
       inkscape:connector-curvature="0"
       id="path4216"
       d="m 4.3941384,294.09108 c -0.049512,-0.006 -0.099927,0.0187 -0.1265243,0.0697 l -0.099519,0.19037 c -0.00564,-0.007 -0.00806,-0.0184 -0.016503,-0.0238 -0.035102,-0.0224 -0.079753,-0.01 -0.100019,0.0293 l -0.073014,0.14057 c -0.020266,0.0389 -0.0081,0.0882 0.027005,0.11067 0.035102,0.0224 0.079253,0.009 0.099519,-0.0299 l 0.027005,-0.0515 c 0.010081,0.0294 0.027796,0.056 0.05451,0.073 0.061423,0.0392 0.1390707,0.016 0.1745334,-0.052 l 0.021004,-0.0404 c 0.00741,0.0376 0.027917,0.0716 0.060512,0.0924 0.061423,0.0392 0.1390707,0.0165 0.1745335,-0.0515 l 0.1280245,-0.24571 c 0.035463,-0.068 0.014914,-0.15444 -0.046509,-0.19368 -0.061423,-0.0393 -0.1395707,-0.016 -0.1750334,0.052 l -0.021004,0.0404 c -0.00749,-0.0374 -0.027556,-0.0717 -0.060011,-0.0924 -0.015356,-0.01 -0.032005,-0.0154 -0.048509,-0.0177 z"
       style="opacity:1;fill:#ea5756;fill-opacity:1;stroke:none" />
  </g>
</svg>
