<?xml version="1.0" encoding="UTF-8" standalone="no"?>
<!-- Created with Inkscape (http://www.inkscape.org/) -->

<svg
   xmlns:dc="http://purl.org/dc/elements/1.1/"
   xmlns:cc="http://creativecommons.org/ns#"
   xmlns:rdf="http://www.w3.org/1999/02/22-rdf-syntax-ns#"
   xmlns:svg="http://www.w3.org/2000/svg"
   xmlns="http://www.w3.org/2000/svg"
   xmlns:sodipodi="http://sodipodi.sourceforge.net/DTD/sodipodi-0.dtd"
   xmlns:inkscape="http://www.inkscape.org/namespaces/inkscape"
   width="22"
   height="22"
   id="svg3869"
   version="1.1"
   inkscape:version="0.91 r13725"
   sodipodi:docname="image-x-ico.svg">
  <defs
     id="defs3871" />
  <sodipodi:namedview
     id="base"
     pagecolor="#ffffff"
     bordercolor="#666666"
     borderopacity="1.0"
     inkscape:pageopacity="0.0"
     inkscape:pageshadow="2"
     inkscape:zoom="22.627416"
     inkscape:cx="10.656573"
     inkscape:cy="14.942389"
     inkscape:document-units="px"
     inkscape:current-layer="layer1"
     showgrid="true"
     fit-margin-top="0"
     fit-margin-left="0"
     fit-margin-right="0"
     fit-margin-bottom="0"
     inkscape:window-width="1270"
     inkscape:window-height="953"
     inkscape:window-x="646"
     inkscape:window-y="20"
     inkscape:window-maximized="0"
     inkscape:showpageshadow="false"
     inkscape:snap-bbox="true"
     inkscape:object-nodes="true">
    <inkscape:grid
       type="xygrid"
       id="grid4132" />
    <sodipodi:guide
       position="2,20.000017"
       orientation="18,0"
       id="guide4138" />
    <sodipodi:guide
       position="2,2.0000174"
       orientation="0,18"
       id="guide4140" />
    <sodipodi:guide
       position="20,2.0000174"
       orientation="-18,0"
       id="guide4142" />
    <sodipodi:guide
       position="20,20.000017"
       orientation="0,-18"
       id="guide4144" />
    <sodipodi:guide
       position="3,19.000017"
       orientation="16,0"
       id="guide4146" />
    <sodipodi:guide
       position="3,3.0000174"
       orientation="0,16"
       id="guide4148" />
    <sodipodi:guide
       position="19,3.0000174"
       orientation="-16,0"
       id="guide4150" />
    <sodipodi:guide
       position="19,19.000017"
       orientation="0,-16"
       id="guide4152" />
  </sodipodi:namedview>
  <metadata
     id="metadata3874">
    <rdf:RDF>
      <cc:Work
         rdf:about="">
        <dc:format>image/svg+xml</dc:format>
        <dc:type
           rdf:resource="http://purl.org/dc/dcmitype/StillImage" />
        <dc:title></dc:title>
      </cc:Work>
    </rdf:RDF>
  </metadata>
  <g
     inkscape:label="Capa 1"
     inkscape:groupmode="layer"
     id="layer1"
     transform="translate(-326,-534.3622)">
    <rect
       style="fill:#22a7f0;fill-opacity:1;stroke:none"
       id="rect4035"
       width="0"
       height="10.999983"
       x="326.49567"
       y="535.98694" />
    <rect
       style="fill:#22a7f0;fill-opacity:1;stroke:none"
       id="rect4035-7"
       width="0"
       height="10.999983"
       x="321.94366"
       y="538.50604" />
    <rect
       style="fill:#22a7f0;fill-opacity:1;stroke:none"
       id="rect4035-9"
       width="0"
       height="10.999983"
       x="317.43588"
       y="526.08746" />
    <rect
       style="fill:#22a7f0;fill-opacity:1;stroke:none"
       id="rect4035-96"
       width="0"
       height="10.999983"
       x="318.27991"
       y="538.32489" />
    <rect
       style="fill:#22a7f0;fill-opacity:1;stroke:none"
       id="rect4035-7-0"
       width="0"
       height="10.999983"
       x="313.72791"
       y="540.84399" />
    <rect
       style="fill:#22a7f0;fill-opacity:1;stroke:none"
       id="rect4035-9-6"
       width="0"
       height="10.999983"
       x="309.22012"
       y="528.42542" />
    <path
       style="opacity:1;fill:#22a7f0;fill-opacity:1;stroke:none"
       d="M 3 3 L 3 17 L 3 18 L 3 19 L 19 19 L 19 18 L 19 17 L 19 3 L 3 3 z M 4 4 L 17 4 L 18 4 L 18 16 L 17 16 L 4 16 L 4 4 z M 4 17 L 18 17 L 18 18 L 4 18 L 4 17 z "
       transform="translate(326,534.3622)"
       id="rect4112" />
    <path
       style="fill:#22a7f0;fill-opacity:1;stroke:none;stroke-width:2;stroke-miterlimit:4;stroke-dasharray:none"
       d="M 6 5 L 6 9 L 10 9 L 10 5 L 6 5 z M 12 5 L 12 9 L 16 9 L 16 5 L 12 5 z M 6 11 L 6 15 L 10 15 L 10 11 L 6 11 z M 12 11 L 12 15 L 16 15 L 16 11 L 12 11 z "
       transform="translate(326,534.3622)"
       id="rect5258-8" />
  </g>
</svg>
