<?xml version="1.0" encoding="UTF-8" standalone="no"?>
<!-- Created with Inkscape (http://www.inkscape.org/) -->

<svg
   xmlns:dc="http://purl.org/dc/elements/1.1/"
   xmlns:cc="http://creativecommons.org/ns#"
   xmlns:rdf="http://www.w3.org/1999/02/22-rdf-syntax-ns#"
   xmlns:svg="http://www.w3.org/2000/svg"
   xmlns="http://www.w3.org/2000/svg"
   xmlns:sodipodi="http://sodipodi.sourceforge.net/DTD/sodipodi-0.dtd"
   xmlns:inkscape="http://www.inkscape.org/namespaces/inkscape"
   width="16"
   height="16"
   id="svg3049"
   version="1.1"
   inkscape:version="0.91 r13725"
   sodipodi:docname="amarok_cart_add.svg"
   inkscape:export-filename="/home/uri/.kde/share/icons/NITRUX-KDE/16x16/actions/view-right-new.png"
   inkscape:export-xdpi="30"
   inkscape:export-ydpi="30">
  <defs
     id="defs3051" />
  <sodipodi:namedview
     id="base"
     pagecolor="#ffffff"
     bordercolor="#666666"
     borderopacity="1.0"
     inkscape:pageopacity="0.0"
     inkscape:pageshadow="2"
     inkscape:zoom="64"
     inkscape:cx="8.4240895"
     inkscape:cy="6.8758132"
     inkscape:document-units="px"
     inkscape:current-layer="layer1"
     showgrid="true"
     fit-margin-top="0"
     fit-margin-left="0"
     fit-margin-right="0"
     fit-margin-bottom="0"
     inkscape:window-width="1920"
     inkscape:window-height="1021"
     inkscape:window-x="-4"
     inkscape:window-y="0"
     inkscape:window-maximized="1"
     inkscape:showpageshadow="false"
     borderlayer="true"
     inkscape:snap-bbox="true"
     inkscape:snap-global="true"
     inkscape:object-nodes="true">
    <inkscape:grid
       type="xygrid"
       id="grid4085" />
    <sodipodi:guide
       position="2.0000044,14.00003"
       orientation="12,0"
       id="guide4075" />
    <sodipodi:guide
       position="2.0000044,2.0000296"
       orientation="0,12"
       id="guide4077" />
    <sodipodi:guide
       position="14.000004,2.0000296"
       orientation="-12,0"
       id="guide4079" />
    <sodipodi:guide
       position="14.000004,14.00003"
       orientation="0,-12"
       id="guide4081" />
  </sodipodi:namedview>
  <metadata
     id="metadata3054">
    <rdf:RDF>
      <cc:Work
         rdf:about="">
        <dc:format>image/svg+xml</dc:format>
        <dc:type
           rdf:resource="http://purl.org/dc/dcmitype/StillImage" />
        <dc:title />
      </cc:Work>
    </rdf:RDF>
  </metadata>
  <g
     inkscape:label="Capa 1"
     inkscape:groupmode="layer"
     id="layer1"
     transform="translate(-421.71429,-531.79074)">
    <path
       style="fill:#4d4d4d;fill-opacity:1;stroke:none"
       d="M 2 5 L 2 6 L 2 13 L 2 14 L 9 14 L 9 13 L 3 13 L 3 6 L 13 6 L 13 9 L 14 9 L 14 6 L 14 5 L 2 5 z "
       transform="translate(421.71429,531.79074)"
       id="rect4212" />
    <path
       style="fill:#4d4d4d;fill-opacity:1;stroke:none"
       d="M 8,2 C 6.3431458,2 5,3.3431458 5,5 L 5,7.0878906 C 4.4014078,7.2995242 4.0008908,7.8650979 4,8.5 4,9.3284271 4.6715729,10 5.5,10 6.3284271,10 7,9.3284271 7,8.5 6.9991092,7.8650979 6.5985922,7.2995242 6,7.0878906 L 6,5 C 6,3.8954305 6.8954305,3 8,3 c 1.1045695,0 2,0.8954305 2,2 l 0,3 1,0 0,-3 C 11,3.3431458 9.6568542,2 8,2 Z M 5.5,8 C 5.7761424,8 6,8.2238576 6,8.5 6,8.7761424 5.7761424,9 5.5,9 5.2238576,9 5,8.7761424 5,8.5 5,8.2238576 5.2238576,8 5.5,8 Z"
       transform="translate(421.71429,531.79074)"
       id="rect4220"
       inkscape:connector-curvature="0"
       sodipodi:nodetypes="ssccsccsssccsssssss" />
    <path
       style="opacity:1;fill:#4d4d4d;fill-opacity:1;stroke:none;stroke-width:2;stroke-linecap:round;stroke-miterlimit:4;stroke-dasharray:none;stroke-opacity:1"
       d="M 11 9 L 11 11 L 9 11 L 9 12 L 11 12 L 11 14 L 12 14 L 12 12 L 14 12 L 14 11 L 12 11 L 12 9 L 11 9 z "
       transform="translate(421.71429,531.79074)"
       id="rect4349" />
  </g>
</svg>
