<?xml version="1.0" encoding="UTF-8" standalone="no"?>
<!-- Created with Inkscape (http://www.inkscape.org/) -->

<svg
   xmlns:dc="http://purl.org/dc/elements/1.1/"
   xmlns:cc="http://creativecommons.org/ns#"
   xmlns:rdf="http://www.w3.org/1999/02/22-rdf-syntax-ns#"
   xmlns:svg="http://www.w3.org/2000/svg"
   xmlns="http://www.w3.org/2000/svg"
   xmlns:sodipodi="http://sodipodi.sourceforge.net/DTD/sodipodi-0.dtd"
   xmlns:inkscape="http://www.inkscape.org/namespaces/inkscape"
   width="16"
   height="16"
   id="svg3049"
   version="1.1"
   inkscape:version="0.91 r13725"
   sodipodi:docname="curve-connector.svg"
   inkscape:export-filename="/home/uri/.kde/share/icons/NITRUX-KDE/16x16/actions/view-right-new.png"
   inkscape:export-xdpi="30"
   inkscape:export-ydpi="30">
  <defs
     id="defs3051" />
  <sodipodi:namedview
     id="base"
     pagecolor="#ffffff"
     bordercolor="#666666"
     borderopacity="1.0"
     inkscape:pageopacity="0.0"
     inkscape:pageshadow="2"
     inkscape:zoom="24.411306"
     inkscape:cx="3.9466811"
     inkscape:cy="7.0096856"
     inkscape:document-units="px"
     inkscape:current-layer="layer1-8"
     showgrid="true"
     fit-margin-top="0"
     fit-margin-left="0"
     fit-margin-right="0"
     fit-margin-bottom="0"
     inkscape:window-width="1366"
     inkscape:window-height="709"
     inkscape:window-x="-4"
     inkscape:window-y="0"
     inkscape:window-maximized="1"
     inkscape:showpageshadow="false"
     borderlayer="true"
     inkscape:snap-bbox="true"
     inkscape:snap-global="true"
     showguides="true"
     inkscape:guide-bbox="true"
     inkscape:object-nodes="true">
    <inkscape:grid
       type="xygrid"
       id="grid4085" />
    <sodipodi:guide
       position="2,13"
       orientation="12,0"
       id="guide4075" />
    <sodipodi:guide
       position="13,2"
       orientation="0,12"
       id="guide4077" />
    <sodipodi:guide
       position="14,14.00003"
       orientation="-12,0"
       id="guide4079" />
    <sodipodi:guide
       position="14.000004,14.00003"
       orientation="0,-12"
       id="guide4081" />
  </sodipodi:namedview>
  <metadata
     id="metadata3054">
    <rdf:RDF>
      <cc:Work
         rdf:about="">
        <dc:format>image/svg+xml</dc:format>
        <dc:type
           rdf:resource="http://purl.org/dc/dcmitype/StillImage" />
        <dc:title></dc:title>
      </cc:Work>
    </rdf:RDF>
  </metadata>
  <g
     inkscape:label="Capa 1"
     inkscape:groupmode="layer"
     id="layer1"
     transform="translate(-421.71429,-531.79074)">
    <g
       transform="matrix(0.75000002,0,0,0.83333404,421.46429,-327.98583)"
       id="layer1-4"
       inkscape:label="Capa 1">
      <g
         transform="matrix(0.99999997,0,0,0.89999799,0,104.10707)"
         id="layer1-8"
         inkscape:label="Capa 1">
        <path
           style="opacity:1;fill:#4d4d4d;fill-opacity:1;stroke:none;stroke-linecap:round"
           d="M 4.5 4 A 2.4999997 2.5000001 0 0 0 2 6.5 A 2.4999997 2.5000001 0 0 0 4.5 9 L 11.5 9 A 1.5 1.5000001 0 0 1 13 10.5 A 1.5 1.5000001 0 0 1 11.5 12 L 4 12 L 4 13 L 11.5 13 A 2.4999998 2.5000001 0 0 0 14 10.5 A 2.4999998 2.5000001 0 0 0 11.5 8 L 4.5 8 A 1.5 1.5000001 0 0 1 3 6.5 A 1.5 1.5000001 0 0 1 4.5 5 L 12 5 L 12 4 L 4.5 4 z "
           transform="matrix(1.3333333,0,0,1.3333352,0.33333333,1030.6956)"
           id="rect4167" />
        <path
           style="opacity:1;fill:#1d99f3;fill-opacity:1;stroke:none;stroke-linecap:round"
           d="m 17,1034.6957 a 2,2.0000029 0 0 0 -2,2 2,2.0000029 0 0 0 2,2 2,2.0000029 0 0 0 2,-2 2,2.0000029 0 0 0 -2,-2 z m 0,1.3333 a 0.66666661,0.66666759 0 0 1 0.666666,0.6667 A 0.66666661,0.66666759 0 0 1 17,1037.3624 0.66666661,0.66666759 0 0 1 16.333333,1036.6957 0.66666661,0.66666759 0 0 1 17,1036.029 Z"
           id="path4147"
           inkscape:connector-curvature="0" />
        <path
           inkscape:connector-curvature="0"
           style="opacity:1;fill:#1d99f3;fill-opacity:1;stroke:none;stroke-linecap:round"
           d="m 5,1045.3623 a 2,2.0000029 0 0 0 -2,2 2,2.0000029 0 0 0 2,2 2,2.0000029 0 0 0 2,-2 2,2.0000029 0 0 0 -2,-2 z m 0,1.3333 a 0.66666663,0.66666758 0 0 1 0.6666667,0.6667 A 0.66666663,0.66666758 0 0 1 5,1048.0289 0.66666663,0.66666758 0 0 1 4.3333334,1047.3623 0.66666663,0.66666758 0 0 1 5,1046.6956 Z"
           id="path4147-7" />
      </g>
    </g>
  </g>
</svg>
