<?xml version="1.0" encoding="UTF-8" standalone="no"?>
<!-- Created with Inkscape (http://www.inkscape.org/) -->

<svg
   xmlns:dc="http://purl.org/dc/elements/1.1/"
   xmlns:cc="http://creativecommons.org/ns#"
   xmlns:rdf="http://www.w3.org/1999/02/22-rdf-syntax-ns#"
   xmlns:svg="http://www.w3.org/2000/svg"
   xmlns="http://www.w3.org/2000/svg"
   xmlns:sodipodi="http://sodipodi.sourceforge.net/DTD/sodipodi-0.dtd"
   xmlns:inkscape="http://www.inkscape.org/namespaces/inkscape"
   width="16"
   height="16"
   id="svg3049"
   version="1.1"
   inkscape:version="0.91 r13725"
   sodipodi:docname="draw-path.svg"
   inkscape:export-filename="/home/uri/.kde/share/icons/NITRUX-KDE/16x16/actions/view-right-new.png"
   inkscape:export-xdpi="30"
   inkscape:export-ydpi="30">
  <defs
     id="defs3051" />
  <sodipodi:namedview
     id="base"
     pagecolor="#ffffff"
     bordercolor="#666666"
     borderopacity="1.0"
     inkscape:pageopacity="0.0"
     inkscape:pageshadow="2"
     inkscape:zoom="24.411306"
     inkscape:cx="5.77456"
     inkscape:cy="1.6195469"
     inkscape:document-units="px"
     inkscape:current-layer="layer1"
     showgrid="true"
     fit-margin-top="0"
     fit-margin-left="0"
     fit-margin-right="0"
     fit-margin-bottom="0"
     inkscape:window-width="1920"
     inkscape:window-height="957"
     inkscape:window-x="-4"
     inkscape:window-y="0"
     inkscape:window-maximized="1"
     inkscape:showpageshadow="false"
     borderlayer="true"
     inkscape:snap-bbox="true"
     inkscape:snap-global="false"
     inkscape:object-nodes="true">
    <inkscape:grid
       type="xygrid"
       id="grid4085" />
    <sodipodi:guide
       position="2,15"
       orientation="12,0"
       id="guide4075" />
    <sodipodi:guide
       position="17,2"
       orientation="0,12"
       id="guide4077" />
    <sodipodi:guide
       position="14.000004,2.0000296"
       orientation="-12,0"
       id="guide4079" />
    <sodipodi:guide
       position="0,14"
       orientation="0,-12"
       id="guide4081" />
  </sodipodi:namedview>
  <metadata
     id="metadata3054">
    <rdf:RDF>
      <cc:Work
         rdf:about="">
        <dc:format>image/svg+xml</dc:format>
        <dc:type
           rdf:resource="http://purl.org/dc/dcmitype/StillImage" />
        <dc:title />
      </cc:Work>
    </rdf:RDF>
  </metadata>
  <g
     inkscape:label="Capa 1"
     inkscape:groupmode="layer"
     id="layer1"
     transform="translate(-421.71429,-531.79074)">
    <path
       style="color:#000000;display:inline;overflow:visible;visibility:visible;fill:#4d4d4d;fill-opacity:1;fill-rule:nonzero;stroke:none;stroke-width:2;marker:none;enable-background:accumulate"
       d="M 2 2 L 2 5 L 3 5 L 3 10 L 3 10.111328 L 2 11.125 L 2 12.5 L 2 14 C 2.5669591 14.009969 2.9082961 14.002744 3.5 14 C 4.0300681 13.997542 4.84375 14 4.84375 14 C 4.8476677 14.000164 5.6326634 13.194382 5.8261719 13 L 6 13 L 11 13 L 11 14 L 14 14 L 14 11 L 13 11 L 12 11 L 11 11 L 11 12 L 6.8105469 12 C 9.2200533 9.5566597 13.84375 4.84375 13.84375 4.84375 L 11 2 L 4 9.0976562 L 4 5 L 5 5 L 5 4 L 5 3 L 5 2 L 2 2 z M 3 3 L 4 3 L 4 4 L 3 4 L 3 3 z M 10.28125 4.15625 L 11.6875 5.5625 L 6.2734375 11.123047 L 4.8652344 9.7265625 L 10.28125 4.15625 z M 13.96875 9 C 13.96175 9.00003 13.939141 9.0058594 13.931641 9.0058594 L 14 9.0058594 C 13.9879 9.0038588 13.98115 9.002 13.96875 9 z M 12 12 L 13 12 L 13 13 L 12 13 L 12 12 z "
       transform="translate(421.71429,531.79074)"
       id="rect4874" />
  </g>
</svg>
