<?xml version="1.0" encoding="UTF-8" standalone="no"?>
<!-- Created with Inkscape (http://www.inkscape.org/) -->

<svg
   xmlns:dc="http://purl.org/dc/elements/1.1/"
   xmlns:cc="http://creativecommons.org/ns#"
   xmlns:rdf="http://www.w3.org/1999/02/22-rdf-syntax-ns#"
   xmlns:svg="http://www.w3.org/2000/svg"
   xmlns="http://www.w3.org/2000/svg"
   xmlns:sodipodi="http://sodipodi.sourceforge.net/DTD/sodipodi-0.dtd"
   xmlns:inkscape="http://www.inkscape.org/namespaces/inkscape"
   width="16"
   height="16"
   id="svg3049"
   version="1.1"
   inkscape:version="0.91 r13725"
   sodipodi:docname="im-identi.ca.svg"
   inkscape:export-filename="/home/uri/.kde/share/icons/NITRUX-KDE/16x16/actions/view-right-new.png"
   inkscape:export-xdpi="30"
   inkscape:export-ydpi="30">
  <defs
     id="defs3051" />
  <sodipodi:namedview
     id="base"
     pagecolor="#ffffff"
     bordercolor="#666666"
     borderopacity="1.0"
     inkscape:pageopacity="0.0"
     inkscape:pageshadow="2"
     inkscape:zoom="45.254834"
     inkscape:cx="7.9588147"
     inkscape:cy="5.7750892"
     inkscape:document-units="px"
     inkscape:current-layer="layer1"
     showgrid="true"
     fit-margin-top="0"
     fit-margin-left="0"
     fit-margin-right="0"
     fit-margin-bottom="0"
     inkscape:window-width="1920"
     inkscape:window-height="1016"
     inkscape:window-x="0"
     inkscape:window-y="0"
     inkscape:window-maximized="1"
     inkscape:showpageshadow="false"
     borderlayer="true"
     inkscape:snap-bbox="true"
     inkscape:snap-global="true"
     inkscape:object-nodes="true">
    <inkscape:grid
       type="xygrid"
       id="grid4085" />
    <sodipodi:guide
       position="2.0000044,14.00003"
       orientation="12,0"
       id="guide4075" />
    <sodipodi:guide
       position="2.0000044,2.0000296"
       orientation="0,12"
       id="guide4077" />
    <sodipodi:guide
       position="14.000004,2.0000296"
       orientation="-12,0"
       id="guide4079" />
    <sodipodi:guide
       position="14.000004,14.00003"
       orientation="0,-12"
       id="guide4081" />
  </sodipodi:namedview>
  <metadata
     id="metadata3054">
    <rdf:RDF>
      <cc:Work
         rdf:about="">
        <dc:format>image/svg+xml</dc:format>
        <dc:type
           rdf:resource="http://purl.org/dc/dcmitype/StillImage" />
        <dc:title></dc:title>
      </cc:Work>
    </rdf:RDF>
  </metadata>
  <g
     inkscape:label="Capa 1"
     inkscape:groupmode="layer"
     id="layer1"
     transform="translate(-421.71429,-531.79074)">
    <path
       style="fill:#4d4d4d;fill-opacity:1;stroke:none"
       d="M 7 2 A 5 5.0000148 0 0 0 2 7 A 5 5.0000148 0 0 0 2.8164062 9.7304688 L 2 13 L 4.5097656 11.328125 A 5 5.0000148 0 0 0 7 12 A 5 5.0000148 0 0 0 8.7578125 11.675781 A 3.5 3.5 0 0 1 8.25 10.794922 A 4 4 0 0 1 7 11 A 4 4 0 0 1 3 7 A 4 4 0 0 1 7 3 A 4 4 0 0 1 10.882812 6.0566406 A 3.5 3.5 0 0 1 11.5 6 A 3.5 3.5 0 0 1 11.904297 6.0253906 A 5 5.0000148 0 0 0 7 2 z "
       transform="translate(421.71429,531.79074)"
       id="path4388" />
    <path
       style="fill:#4d4d4d;fill-opacity:1;stroke:none"
       d="M 11.5 7 A 2.5 2.5 0 0 0 9 9.5 A 2.5 2.5 0 0 0 10.361328 11.722656 L 11.5 14 L 12.638672 11.722656 A 2.5 2.5 0 0 0 14 9.5 A 2.5 2.5 0 0 0 11.5 7 z M 11.5 8 A 1.5 1.5 0 0 1 13 9.5 A 1.5 1.5 0 0 1 11.5 11 A 1.5 1.5 0 0 1 10 9.5 A 1.5 1.5 0 0 1 11.5 8 z "
       transform="translate(421.71429,531.79074)"
       id="path4394" />
  </g>
</svg>
