<?xml version="1.0" encoding="UTF-8" standalone="no"?>
<!-- Created with Inkscape (http://www.inkscape.org/) -->

<svg
   xmlns:dc="http://purl.org/dc/elements/1.1/"
   xmlns:cc="http://creativecommons.org/ns#"
   xmlns:rdf="http://www.w3.org/1999/02/22-rdf-syntax-ns#"
   xmlns:svg="http://www.w3.org/2000/svg"
   xmlns="http://www.w3.org/2000/svg"
   xmlns:sodipodi="http://sodipodi.sourceforge.net/DTD/sodipodi-0.dtd"
   xmlns:inkscape="http://www.inkscape.org/namespaces/inkscape"
   width="16"
   height="16"
   id="svg3049"
   version="1.1"
   inkscape:version="0.91+devel r"
   sodipodi:docname="meeting-attending-tentative.svg"
   inkscape:export-filename="/home/uri/.kde/share/icons/NITRUX-KDE/16x16/actions/view-right-new.png"
   inkscape:export-xdpi="30"
   inkscape:export-ydpi="30"
   viewBox="0 0 16 16">
  <defs
     id="defs3051">
    <clipPath
       id="clipPath4160"
       clipPathUnits="userSpaceOnUse">
      <rect
         y="1023.3622"
         x="7"
         height="1"
         width="1"
         id="rect4162"
         style="opacity:1;fill:#4d4d4d;fill-opacity:1;stroke:none;stroke-opacity:1" />
    </clipPath>
    <clipPath
       clipPathUnits="userSpaceOnUse"
       id="clipPath4160-59">
      <rect
         style="opacity:1;fill:#4d4d4d;fill-opacity:1;stroke:none;stroke-opacity:1"
         id="rect4162-4"
         width="1"
         height="1"
         x="7"
         y="1023.3622" />
    </clipPath>
    <clipPath
       id="clipPath4160-5"
       clipPathUnits="userSpaceOnUse">
      <rect
         y="1023.3622"
         x="7"
         height="1"
         width="1"
         id="rect4162-7"
         style="opacity:1;fill:#4d4d4d;fill-opacity:1;stroke:none;stroke-opacity:1" />
    </clipPath>
  </defs>
  <sodipodi:namedview
     id="base"
     pagecolor="#ffffff"
     bordercolor="#666666"
     borderopacity="1.0"
     inkscape:pageopacity="0.0"
     inkscape:pageshadow="2"
     inkscape:zoom="24.411306"
     inkscape:cx="12.507734"
     inkscape:cy="4.3037589"
     inkscape:document-units="px"
     inkscape:current-layer="layer1"
     showgrid="true"
     fit-margin-top="0"
     fit-margin-left="0"
     fit-margin-right="0"
     fit-margin-bottom="0"
     inkscape:window-width="2560"
     inkscape:window-height="964"
     inkscape:window-x="-4"
     inkscape:window-y="34"
     inkscape:window-maximized="1"
     inkscape:showpageshadow="false"
     borderlayer="true"
     inkscape:snap-bbox="true"
     inkscape:snap-global="true"
     inkscape:object-nodes="true"
     showguides="true"
     inkscape:guide-bbox="true">
    <inkscape:grid
       type="xygrid"
       id="grid4085" />
    <sodipodi:guide
       position="2.0000044,14.00003"
       orientation="12,0"
       id="guide4075" />
    <sodipodi:guide
       position="2.0000044,2.0000296"
       orientation="0,12"
       id="guide4077" />
    <sodipodi:guide
       position="14.000004,2.0000296"
       orientation="-12,0"
       id="guide4079" />
    <sodipodi:guide
       position="14.000004,14.00003"
       orientation="0,-12"
       id="guide4081" />
  </sodipodi:namedview>
  <metadata
     id="metadata3054">
    <rdf:RDF>
      <cc:Work
         rdf:about="">
        <dc:format>image/svg+xml</dc:format>
        <dc:type
           rdf:resource="http://purl.org/dc/dcmitype/StillImage" />
        <dc:title />
      </cc:Work>
    </rdf:RDF>
  </metadata>
  <g
     inkscape:label="Capa 1"
     inkscape:groupmode="layer"
     id="layer1"
     transform="translate(-421.71429,-531.79074)">
    <path
       style="opacity:1;fill:#999999;fill-opacity:1;stroke:none;stroke-opacity:1"
       d="M 5 2 A 3 3 0 0 0 2 5 A 3 3 0 0 0 5 8 A 3 3 0 0 0 8 5 A 3 3 0 0 0 5 2 z M 5 3 A 2 2 0 0 1 7 5 A 2 2 0 0 1 5 7 A 2 2 0 0 1 3 5 A 2 2 0 0 1 5 3 z M 12 3 A 2.0000019 2.0000019 0 0 0 10 5 A 2.0000019 2.0000019 0 0 0 12 7 A 2.0000019 2.0000019 0 0 0 14 5 A 2.0000019 2.0000019 0 0 0 12 3 z M 12 4 A 1.0000019 1.0000019 0 0 1 13 5 A 1.0000019 1.0000019 0 0 1 12 6 A 1.0000019 1.0000019 0 0 1 11 5 A 1.0000019 1.0000019 0 0 1 12 4 z M 12 8 A 4.0000019 3.0000002 0 0 0 9.7265625 8.5332031 A 7 6.5 0 0 1 10.482422 9.2753906 A 3.0000002 2.0000007 0 0 1 12 9 A 3.0000002 2.0000007 0 0 1 15 11 L 11.537109 11 A 7 6.5 0 0 1 11.847656 12 L 16 12 L 16 11 A 4.0000019 3.0000002 0 0 0 12 8 z M 5 9 A 5 4.5 0 0 0 0 13.5 A 5 4.5 0 0 0 0.033203125 14 L 1 14 L 1.0449219 14 L 8.9550781 14 L 9 14 L 9.9628906 14 A 5 4.5 0 0 0 10 13.5 A 5 4.5 0 0 0 5 9 z M 5 10 A 4 3.5 0 0 1 8.9550781 13 L 1.0449219 13 A 4 3.5 0 0 1 5 10 z "
       transform="translate(421.71429,531.79074)"
       id="path16" />
  </g>
</svg>
