<?xml version="1.0" encoding="UTF-8" standalone="no"?>
<!-- Created with Inkscape (http://www.inkscape.org/) -->

<svg
   xmlns:dc="http://purl.org/dc/elements/1.1/"
   xmlns:cc="http://creativecommons.org/ns#"
   xmlns:rdf="http://www.w3.org/1999/02/22-rdf-syntax-ns#"
   xmlns:svg="http://www.w3.org/2000/svg"
   xmlns="http://www.w3.org/2000/svg"
   xmlns:sodipodi="http://sodipodi.sourceforge.net/DTD/sodipodi-0.dtd"
   xmlns:inkscape="http://www.inkscape.org/namespaces/inkscape"
   width="16"
   height="16"
   id="svg3049"
   version="1.1"
   inkscape:version="0.91 r13725"
   sodipodi:docname="view-web-browser-dom-tree.svg"
   inkscape:export-filename="/home/uri/.kde/share/icons/NITRUX-KDE/16x16/actions/view-right-new.png"
   inkscape:export-xdpi="30"
   inkscape:export-ydpi="30">
  <defs
     id="defs3051" />
  <sodipodi:namedview
     id="base"
     pagecolor="#ffffff"
     bordercolor="#666666"
     borderopacity="1.0"
     inkscape:pageopacity="0.0"
     inkscape:pageshadow="2"
     inkscape:zoom="24.411306"
     inkscape:cx="-4.8298735"
     inkscape:cy="8.5220019"
     inkscape:document-units="px"
     inkscape:current-layer="layer1"
     showgrid="true"
     fit-margin-top="0"
     fit-margin-left="0"
     fit-margin-right="0"
     fit-margin-bottom="0"
     inkscape:window-width="1920"
     inkscape:window-height="1021"
     inkscape:window-x="-4"
     inkscape:window-y="0"
     inkscape:window-maximized="1"
     inkscape:showpageshadow="false"
     borderlayer="true"
     inkscape:snap-bbox="true"
     inkscape:snap-global="true"
     inkscape:snap-intersection-paths="false"
     inkscape:object-nodes="true">
    <inkscape:grid
       type="xygrid"
       id="grid4085" />
    <sodipodi:guide
       position="2.0000044,14.00003"
       orientation="12,0"
       id="guide4075" />
    <sodipodi:guide
       position="2.0000044,2.0000296"
       orientation="0,12"
       id="guide4077" />
    <sodipodi:guide
       position="14.000004,2.0000296"
       orientation="-12,0"
       id="guide4079" />
    <sodipodi:guide
       position="14.000004,14.00003"
       orientation="0,-12"
       id="guide4081" />
  </sodipodi:namedview>
  <metadata
     id="metadata3054">
    <rdf:RDF>
      <cc:Work
         rdf:about="">
        <dc:format>image/svg+xml</dc:format>
        <dc:type
           rdf:resource="http://purl.org/dc/dcmitype/StillImage" />
        <dc:title />
      </cc:Work>
    </rdf:RDF>
  </metadata>
  <g
     inkscape:label="Capa 1"
     inkscape:groupmode="layer"
     id="layer1"
     transform="translate(-421.71429,-531.79074)">
    <rect
       style="fill:#4d4d4d;fill-opacity:1;stroke:none"
       id="rect4035"
       width="0"
       height="10.999983"
       x="404.71429"
       y="534.79071" />
    <path
       style="color:#000000;fill:#4d4d4d;fill-opacity:1;fill-rule:nonzero"
       d="M 8 2 C 4.68629 2 2 4.6863 2 8 C 2 11.3137 4.68629 14 8 14 L 8 12.996094 C 7.80967 12.996094 7.62187 12.985844 7.4375 12.964844 C 7.29064 12.947844 7.14271 12.931344 7 12.902344 C 6.71683 12.844344 6.45103 12.724694 6.1875 12.621094 C 6.1785 12.604094 6.15405 12.580547 6.15625 12.560547 C 6.20825 12.538547 6.30576 12.634547 6.34375 12.560547 C 6.36275 12.525547 6.31875 12.439297 6.34375 12.404297 C 6.36175 12.380297 6.46301 12.380047 6.5 12.373047 C 6.553 12.363047 6.62625 12.355797 6.65625 12.341797 C 6.68925 12.320797 6.72475 12.246847 6.71875 12.185547 C 6.71575 12.156547 6.67915 12.149047 6.65625 12.123047 C 6.63725 12.101047 6.66925 12.080547 6.65625 12.060547 C 6.63225 12.025547 6.5724 12.017797 6.5625 11.966797 C 6.6345 11.952797 6.73976 12.027047 6.84375 11.998047 C 6.89275 11.984047 6.977 11.887897 7 11.841797 C 7.007 11.827797 6.992 11.797297 7 11.779297 C 7.009 11.761297 7.02825 11.72775 7.03125 11.71875 C 7.03825 11.69175 7.02525 11.7055 7.03125 11.6875 C 7.04925 11.6365 7.095 11.5985 7.125 11.5625 C 7.148 11.5345 7.19775 11.49775 7.21875 11.46875 C 7.24275 11.43775 7.2341 11.43425 7.25 11.40625 C 7.265 11.31525 7.19675 11.23615 7.21875 11.15625 C 7.24275 11.06625 7.38176 11.00975 7.46875 10.96875 C 7.49875 10.95475 7.5376 10.9465 7.5625 10.9375 C 7.6225 10.9165 7.694 10.894 7.75 10.875 C 7.844 10.841 7.86025 10.7734 7.90625 10.6875 C 7.92825 10.6475 7.96475 10.5915 7.96875 10.5625 C 7.97275 10.5365 7.96375 10.531953 7.96875 10.501953 C 7.97375 10.472953 7.96075 10.442203 7.96875 10.408203 C 7.97975 10.365203 8 10.268603 8 10.220703 C 8 10.180703 7.96965 10.161 7.96875 10.125 C 7.9650532 10.056345 7.9798694 10.028052 8 10.005859 L 8 9.1210938 C 7.9398936 9.0772875 7.8788071 9.0385944 7.8125 9.0332031 L 7.75 9.0332031 C 7.702 9.0332031 7.64774 9.0089531 7.59375 9.0019531 C 7.55975 8.9919531 7.48875 9.0119531 7.46875 9.0019531 C 7.43775 8.9869531 7.43125 8.9252031 7.40625 8.9082031 C 7.38625 8.8942031 7.3434 8.8879531 7.3125 8.8769531 C 7.2635 8.8589531 7.2445 8.8174531 7.1875 8.8144531 C 7.1695 8.8144531 7.145 8.8244531 7.125 8.8144531 C 7.094 8.8044531 7.06015 8.8012031 7.03125 8.7832031 C 6.99525 8.7612031 6.9524 8.7517031 6.9375 8.7207031 C 6.9705 8.6128031 6.86565 8.5962031 6.84375 8.5332031 C 6.83375 8.5042031 6.85375 8.4342031 6.84375 8.4082031 C 6.83075 8.3712031 6.7909 8.3454531 6.75 8.3144531 C 6.678 8.2584531 6.63424 8.2337031 6.53125 8.2207031 C 6.48525 8.2107031 6.42999 8.2307031 6.375 8.2207031 C 6.317 8.2107031 6.23149 8.1769531 6.1875 8.1269531 C 6.1455 8.0779531 6.13065 8.0250531 6.09375 8.0019531 C 6.05875 7.9799531 6.024 7.9614531 6 7.9394531 C 5.989 7.9294531 5.97875 7.9292031 5.96875 7.9082031 C 5.95075 7.8712031 5.9155 7.8594531 5.9375 7.8144531 C 5.8975 7.7944531 5.918 7.8527031 5.875 7.8457031 C 5.836 7.7907031 5.8067 7.7361531 5.71875 7.7519531 C 5.67875 7.7619531 5.64075 7.8447031 5.59375 7.8457031 C 5.55475 7.8457031 5.51975 7.7599531 5.46875 7.7519531 C 5.42975 7.7419531 5.37075 7.7882031 5.34375 7.7832031 C 5.30075 7.7732031 5.2889 7.7467031 5.25 7.7207031 C 5.221 7.7017031 5.17225 7.6572031 5.15625 7.6582031 C 5.10625 7.6582031 5.06895 7.7577031 5 7.7207031 C 4.966 7.6777031 5.07135 7.6669531 5.03125 7.6269531 C 5.00125 7.5979531 4.99275 7.6442031 4.96875 7.6582031 C 4.94075 7.6762031 4.9059 7.6784531 4.875 7.6894531 C 4.806 7.7154531 4.74149 7.722 4.6875 7.75 C 4.6375 7.776 4.6246031 7.7947031 4.5957031 7.8457031 C 4.5727031 7.8877031 4.5368531 7.9687031 4.5019531 7.9707031 C 4.4599531 7.9707031 4.4462031 7.9252031 4.4082031 7.9082031 C 4.2932131 7.8582031 4.2219431 7.9374531 4.1269531 7.9394531 C 4.0389531 7.9394531 3.9042031 7.8037031 3.9082031 7.7207031 C 3.9112031 7.6697031 3.9335531 7.5962031 3.9394531 7.5332031 C 3.9444531 7.4832031 4.0010531 7.4225531 4.0019531 7.3769531 C 4.0029531 7.3149531 3.8857031 7.2902031 3.8457031 7.2832031 C 3.7517031 7.2662031 3.6401931 7.3252031 3.5332031 7.2832031 C 3.5132031 7.2492031 3.5525531 7.2215 3.5644531 7.1875 C 3.5714531 7.1695 3.5574531 7.1469531 3.5644531 7.1269531 C 3.5764531 7.0949531 3.64135 7.0672031 3.65625 7.0332031 C 3.66725 7.0072031 3.64525 6.9705 3.65625 6.9375 C 3.66925 6.9015 3.71575 6.86975 3.71875 6.84375 C 3.72275 6.80975 3.68315 6.772 3.65625 6.75 C 3.57325 6.76 3.51675 6.76025 3.46875 6.78125 C 3.36076 6.83025 3.39025 6.966 3.28125 7 C 3.24425 7.012 3.19825 7.02425 3.15625 7.03125 C 3.13795 7.04125 3.11425 7.03125 3.09375 7.03125 C 3.09575 7.02125 3.09175 7.01 3.09375 7 C 3.09875 6.977 3.1201 6.9595 3.125 6.9375 C 3.1963 6.6125 3.30639 6.2979 3.4375 6 L 3.46875 6 C 3.50675 6.01 3.5295 6.0605 3.5625 6.0625 C 3.6545 6.0725 3.674 5.9775 3.75 5.9375 C 3.828 5.9485 3.86651 5.9275 3.9375 5.9375 C 3.9855 5.9475 4.05576 5.996 4.09375 6 C 4.12575 6 4.12625 5.96475 4.15625 5.96875 C 4.18625 5.97875 4.2451 6.0265 4.25 6.0625 C 4.255 6.1075 4.20565 6.16915 4.21875 6.21875 C 4.26575 6.26675 4.3705 6.2845 4.4375 6.3125 C 4.4815 6.2755 4.4445 6.20825 4.4375 6.15625 C 4.4365 6.13325 4.4405 6.0835 4.4375 6.0625 C 4.4325 6.0265 4.40625 5.99975 4.40625 5.96875 C 4.40625 5.82575 4.52901 5.77465 4.625 5.71875 C 4.666 5.69475 4.714 5.643 4.75 5.625 C 4.801 5.6 4.833 5.61475 4.875 5.59375 C 4.951 5.55075 5.0035 5.4862 5.0625 5.4375 C 5.0895 5.3725 5.0595 5.28275 5.0625 5.21875 C 5.0895 5.20175 5.12735 5.21875 5.15625 5.21875 C 5.20225 5.20875 5.224 5.151 5.25 5.125 C 5.265 5.11 5.2945 5.10875 5.3125 5.09375 C 5.3585 5.05775 5.36625 5.016 5.40625 5 C 5.42025 4.99 5.44675 4.97575 5.46875 4.96875 C 5.49875 4.95875 5.54575 4.9555 5.59375 4.9375 C 5.62475 4.9265 5.70675 4.91925 5.71875 4.90625 C 5.73375 4.89125 5.71475 4.8355 5.71875 4.8125 C 5.74275 4.6996 5.89901 4.69435 6 4.65625 C 6.07 4.63025 6.14075 4.5487 6.21875 4.5625 C 6.20375 4.6165 6.14325 4.6225 6.15625 4.6875 C 6.17325 4.7785 6.2805 4.66925 6.3125 4.65625 C 6.3735 4.63025 6.4825 4.5925 6.5625 4.5625 C 6.6325 4.5375 6.75349 4.5185 6.6875 4.4375 C 6.6325 4.4275 6.6105 4.481 6.5625 4.5 C 6.5295 4.51 6.528 4.47175 6.5 4.46875 C 6.473 4.46875 6.4645 4.505 6.4375 4.5 C 6.4105 4.49 6.379 4.43925 6.375 4.40625 C 6.364 4.32225 6.43485 4.3123 6.46875 4.25 C 6.44575 4.174 6.34524 4.2165 6.28125 4.1875 C 6.28825 4.1425 6.3221 4.10375 6.375 4.09375 C 6.418 4.08375 6.5365 4.104 6.5625 4.125 C 6.5775 4.138 6.5396 4.1655469 6.5625 4.1855469 C 6.5885 4.2085469 6.62235 4.1955469 6.65625 4.1855469 C 6.66825 4.1285469 6.58375 4.162 6.59375 4.125 C 6.66175 4.081 6.79201 4.10475 6.875 4.09375 C 6.923 4.08375 6.98825 4.05425 7.03125 4.03125 C 7.07125 4.00825 7.083 3.962 7.125 4 C 7.137 4.041 7.11695 4.07175 7.09375 4.09375 C 7.01675 4.16175 6.93499 4.2336 6.875 4.3125 C 6.912 4.3485 6.9692 4.33675 7.03125 4.34375 C 7.05525 4.35375 7.1001 4.34375 7.125 4.34375 C 7.155 4.35375 7.19475 4.33375 7.21875 4.34375 C 7.26075 4.35375 7.2706 4.4375 7.3125 4.4375 C 7.3805 4.4375 7.3515 4.3575 7.3125 4.3125 C 7.3245 4.2655 7.36085 4.2205 7.34375 4.1875 C 7.31275 4.1255 7.1935 4.205 7.1875 4.125 C 7.1835 4.075 7.232 4.06925 7.25 4.03125 C 7.242 3.93525 7.3225 3.93075 7.3125 3.84375 C 7.3075 3.80775 7.275 3.8172031 7.25 3.7832031 C 7.237 3.7652031 7.23365 3.7015 7.21875 3.6875 C 7.16675 3.6435 7.0685 3.67775 7.0625 3.59375 C 7.0595 3.54375 7.0695 3.4911 7.0625 3.4375 C 7.0555 3.3865 7.01265 3.22875 6.96875 3.21875 C 6.91275 3.20675 6.87955 3.31275 6.8125 3.34375 C 6.7765 3.36075 6.69324 3.381 6.65625 3.375 C 6.63225 3.365 6.59675 3.3595 6.59375 3.3125 C 6.58975 3.2705 6.64065 3.25175 6.65625 3.21875 C 6.66025 3.20875 6.65425 3.1985 6.65625 3.1875 C 6.72885 3.1675 6.80122 3.1439531 6.875 3.1269531 C 6.9169 3.1169531 6.9577 3.1037031 7 3.0957031 C 7.0299 3.0857031 7.06375 3.1057031 7.09375 3.0957031 C 7.2273 3.0707031 7.36295 3.0462031 7.5 3.0332031 C 7.66624 3.0162031 7.8289 3.0019531 8 3.0019531 L 8 3 C 8.17259 3 8.33191 3.01425 8.5 3.03125 L 8.625 3.03125 C 8.6776 3.04125 8.72915 3.0545 8.78125 3.0625 C 8.9249 3.0855 9.04828 3.12125 9.1875 3.15625 C 9.4441 3.21925 9.69822 3.30495 9.9375 3.40625 C 10.06943 3.46225 10.18665 3.52715 10.3125 3.59375 C 10.31243 3.60375 10.3133 3.614 10.3125 3.625 C 10.3415 3.638 10.35735 3.69175 10.40625 3.71875 C 10.42425 3.72875 10.4206 3.741 10.4375 3.75 C 10.4665 3.766 10.506 3.7825469 10.5 3.8105469 C 10.492 3.8505469 10.43425 3.8430469 10.40625 3.8730469 C 10.41025 3.9310469 10.35875 3.9277969 10.34375 3.9667969 C 10.35275 3.9917969 10.40225 4.0002969 10.40625 4.0292969 C 10.40125 4.0612969 10.33175 4.0597969 10.34375 4.0917969 C 10.39775 4.1337969 10.449 4.1017969 10.5 4.0917969 C 10.61199 4.0777969 10.71225 4.0812969 10.78125 4.0292969 C 10.77225 3.9762969 10.881 3.9835469 10.875 3.9355469 C 10.9037 3.9565469 10.94035 3.9770469 10.96875 3.9980469 C 10.95795 4.0080469 10.9495 4.0242969 10.9375 4.0292969 C 10.9165 4.0392969 10.894 4.0465938 10.875 4.0585938 C 10.847 4.0765938 10.81325 4.1010938 10.78125 4.1210938 C 10.75825 4.1370937 10.7115 4.2148438 10.6875 4.2148438 C 10.6585 4.2148438 10.61475 4.1775937 10.59375 4.1835938 C 10.56375 4.1935937 10.56515 4.2350938 10.53125 4.2460938 C 10.46525 4.2700938 10.33549 4.2105938 10.3125 4.3085938 C 10.3405 4.3655938 10.45 4.3400937 10.5 4.3710938 C 10.531 4.3910937 10.58585 4.4620938 10.59375 4.4960938 C 10.60175 4.5240938 10.60575 4.6535938 10.59375 4.6835938 C 10.56275 4.7635938 10.46699 4.7451406 10.375 4.7441406 L 10.3125 4.7441406 C 10.15752 4.7341406 10.0075 4.6643906 9.9375 4.7753906 C 9.9425 4.8603906 9.9565 4.9201406 9.9375 4.9941406 C 9.9235 5.0481406 9.84075 5.1037906 9.84375 5.1503906 C 9.84475 5.1743906 9.90025 5.2101406 9.90625 5.2441406 C 9.91025 5.2621406 9.89825 5.2896406 9.90625 5.3066406 C 9.93225 5.3556406 9.98525 5.2966406 10.03125 5.3066406 C 10.07525 5.3166406 10.125 5.3826406 10.125 5.4316406 C 10.125 5.4666406 10.11595 5.5226406 10.09375 5.5566406 C 10.04975 5.6226406 9.96925 5.6143906 9.90625 5.6503906 C 9.85425 5.6803906 9.8435 5.7550406 9.8125 5.8066406 C 9.7795 5.8626406 9.737 5.8825906 9.75 5.9628906 C 9.705 6.0518906 9.6555 6.1073906 9.5625 6.1503906 C 9.5355 6.1623906 9.49365 6.1636406 9.46875 6.1816406 C 9.44875 6.1956406 9.43425 6.2433906 9.40625 6.2753906 C 9.37125 6.3143906 9.3315 6.3391406 9.3125 6.3691406 C 9.2985 6.3921406 9.29615 6.4328437 9.28125 6.4648438 C 9.25925 6.5068438 9.2154 6.5165937 9.1875 6.5585938 C 9.1745 6.5785937 9.17015 6.6263437 9.15625 6.6523438 C 9.12425 6.7103437 9.08775 6.7575937 9.09375 6.8085938 C 9.09875 6.8565938 9.15325 6.8583437 9.15625 6.9023438 C 9.15925 6.9263438 9.124 6.9388437 9.125 6.9648438 C 9.126 7.0028438 9.15335 7.0285937 9.15625 7.0585938 C 9.16325 7.1325937 9.10775 7.1642437 9.09375 7.2148438 C 9.08675 7.2388438 9.09975 7.2583437 9.09375 7.2773438 C 9.08175 7.3143438 9.03225 7.3583438 9.03125 7.4023438 C 9.03025 7.4333437 9.09075 7.4520937 9.09375 7.4960938 C 9.09575 7.5250937 9.0565 7.5618437 9.0625 7.5898438 C 9.0735 7.6438437 9.17676 7.7040937 9.21875 7.7460938 C 9.27575 7.8030938 9.35001 7.8420438 9.375 7.9023438 C 9.3859594 7.9289594 9.3995034 7.9628731 9.4082031 8 L 14 8 C 14 4.6863 11.31371 2 8 2 z M 5.96875 3.46875 C 5.93695 3.65125 5.766 3.72395 5.5625 3.71875 C 5.5165 3.76275 5.55645 3.84525 5.53125 3.90625 C 5.51025 3.95725 5.42599 4.004 5.375 4 C 5.338 4 5.28125 3.94125 5.28125 3.90625 C 5.28125 3.86325 5.3496 3.8615 5.3125 3.8125 C 5.3145 3.8025 5.33335 3.79125 5.34375 3.78125 C 5.36395 3.76825 5.38585 3.762 5.40625 3.75 C 5.58745 3.6385 5.77321 3.55675 5.96875 3.46875 z M 10.15625 3.6542969 L 10.15625 3.65625 C 10.13785 3.66625 10.1412 3.6775 10.125 3.6875 C 10.087 3.7105 10.06025 3.74 10.03125 3.75 C 9.99025 3.765 9.9434 3.7735469 9.9375 3.8105469 C 9.9325 3.8415469 9.96985 3.8450469 9.96875 3.8730469 C 9.95375 3.9100469 9.9455 3.9217969 9.9375 3.9667969 C 9.9885 4.0497969 10.09326 3.9485469 10.15625 3.9355469 C 10.18425 3.9255469 10.20375 3.9252969 10.21875 3.9042969 C 10.23575 3.8772969 10.2371 3.8485469 10.25 3.8105469 C 10.264 3.7685469 10.3175 3.7537969 10.3125 3.7167969 C 10.3085 3.6797969 10.2182 3.6492969 10.15625 3.6542969 z M 4.6875 4.28125 C 4.7349 4.31925 4.80161 4.4019 4.71875 4.4375 C 4.70875 4.4475 4.5865 4.47275 4.5625 4.46875 C 4.5525 4.46875 4.53965 4.4445 4.53125 4.4375 C 4.58295 4.3875 4.63371 4.32925 4.6875 4.28125 z M 4.875 4.4707031 C 4.8982172 4.4725505 4.9099375 4.5302656 4.9375 4.53125 C 4.9645 4.53125 4.984 4.496 5 4.5 C 5.042 4.511 5.07135 4.594 5.03125 4.625 C 4.99825 4.635 4.99275 4.58975 4.96875 4.59375 C 4.90075 4.60575 4.8635 4.754 4.8125 4.75 C 4.7645 4.74 4.73215 4.62875 4.78125 4.59375 C 4.78225 4.56375 4.77925 4.56225 4.78125 4.53125 C 4.79625 4.51325 4.835 4.4677031 4.875 4.4707031 z M 4.625 4.5 C 4.639 4.5 4.65135 4.49 4.65625 4.5 C 4.64925 4.553 4.63475 4.56875 4.59375 4.59375 C 4.52275 4.63675 4.4605 4.68975 4.4375 4.78125 C 4.4305 4.80825 4.3465 4.8814 4.3125 4.875 C 4.2335 4.858 4.357 4.7104 4.375 4.6875 C 4.395 4.6625 4.4145 4.653 4.4375 4.625 C 4.4605 4.597 4.478 4.54725 4.5 4.53125 C 4.524 4.51425 4.583 4.498 4.625 4.5 z M 11.40625 4.65625 C 11.48525 4.64625 11.5265 4.73325 11.5625 4.78125 C 11.5925 4.82025 11.66975 4.87925 11.71875 4.90625 C 11.74675 4.92125 11.7815 4.95575 11.8125 4.96875 C 11.8775 4.99775 11.997 5.09225 12 5.15625 C 12.001 5.18825 11.96365 5.22 11.96875 5.25 C 12.01775 5.26 12.0615 5.174 12.0625 5.125 C 12.1544 5.255 12.2331 5.39265 12.3125 5.53125 C 12.35 5.59625 12.4029 5.65125 12.4375 5.71875 C 12.3934 5.73175 12.3821 5.73925 12.375 5.78125 C 12.365 5.83725 12.3965 5.9276 12.3125 5.9375 C 12.2595 5.9475 12.19799 5.892 12.125 5.875 C 12.095 5.865 12.05525 5.885 12.03125 5.875 C 11.97625 5.857 11.9844 5.783 11.9375 5.75 C 11.9105 5.731 11.82425 5.6915 11.78125 5.6875 C 11.75425 5.6875 11.74675 5.6975 11.71875 5.6875 C 11.68475 5.6775 11.62175 5.7015 11.59375 5.6875 C 11.56675 5.6705 11.507 5.61675 11.5 5.59375 C 11.489 5.55675 11.59175 5.532 11.59375 5.5 C 11.59575 5.476 11.5674 5.44325 11.5625 5.40625 C 11.5585 5.38425 11.5675 5.35875 11.5625 5.34375 C 11.5555 5.31775 11.50965 5.3135 11.46875 5.3125 L 11.375 5.3125 L 11.1875 5.3125 L 11.09375 5.3125 C 11.00675 5.3225 10.943 5.3025 10.875 5.3125 C 10.826 5.3125 10.7335 5.355 10.6875 5.375 C 10.6645 5.386 10.655 5.39125 10.625 5.40625 C 10.611 5.41625 10.5805 5.4295 10.5625 5.4375 C 10.5345 5.4505 10.49565 5.4900469 10.46875 5.4980469 C 10.42975 5.5080469 10.38345 5.4880469 10.3125 5.4980469 C 10.2615 5.4980469 10.1885 5.4652969 10.1875 5.4042969 C 10.1865 5.3112969 10.34951 5.3587969 10.4375 5.3417969 C 10.4705 5.3317969 10.49125 5.30525 10.53125 5.28125 C 10.55025 5.27025 10.5446 5.262 10.5625 5.25 C 10.5925 5.229 10.65135 5.18025 10.65625 5.15625 C 10.66025 5.13425 10.65325 5.11075 10.65625 5.09375 C 10.66025 5.07275 10.69175 5.05925 10.71875 5.03125 C 10.76075 4.98925 10.79175 4.93325 10.84375 4.90625 C 10.87875 4.88825 10.9215 4.87175 10.9375 4.84375 C 10.9415 4.81175 10.9365 4.8132031 10.9375 4.7832031 C 10.9595 4.7632031 10.982 4.7559531 11 4.7519531 C 11.054 4.7399531 11.0933 4.7519531 11.15625 4.7519531 C 11.18325 4.7519531 11.2211 4.7649531 11.25 4.7519531 C 11.274 4.7359531 11.2885 4.7004531 11.3125 4.6894531 C 11.3385 4.6754531 11.37425 4.6602031 11.40625 4.6582031 L 11.40625 4.65625 z M 11.96875 5.25 L 11.84375 5.25 C 11.79975 5.25 11.74475 5.227 11.71875 5.25 C 11.75575 5.31 11.82326 5.32875 11.90625 5.34375 C 11.93625 5.32175 11.95475 5.289 11.96875 5.25 z M 5.125 4.6875 L 5.21875 4.6875 C 5.24375 4.6875 5.27125 4.6775 5.28125 4.6875 C 5.26525 4.7535 5.1145 4.74275 5.0625 4.71875 C 5.0655 4.69375 5.093 4.6915 5.125 4.6875 z M 4.90625 4.8125 C 4.86255 4.8445 4.81935 4.88425 4.75 4.90625 C 4.712 4.91825 4.66325 4.917 4.65625 4.875 C 4.64825 4.823 4.716 4.84875 4.75 4.84375 C 4.794 4.83375 4.85525 4.8145 4.90625 4.8125 z M 11.40625 4.8125 C 11.37325 4.8235 11.35725 4.89625 11.40625 4.90625 C 11.42925 4.89225 11.4436 4.8555 11.4375 4.8125 C 11.4245 4.7985 11.41615 4.8025 11.40625 4.8125 z M 11.34375 4.96875 C 11.34475 5.02475 11.35475 5.0764 11.34375 5.125 C 11.37575 5.187 11.45276 5.13575 11.46875 5.09375 C 11.48775 4.98975 11.45425 4.95575 11.40625 4.96875 C 11.39025 4.97875 11.36065 4.95575 11.34375 4.96875 z M 3.0625 7.3125 C 3.1189 7.3635 3.1513 7.43535 3.21875 7.46875 C 3.24375 7.48175 3.2806 7.492 3.3125 7.5 C 3.3385 7.51 3.35 7.49 3.375 7.5 C 3.428 7.518 3.48926 7.5435 3.53125 7.5625 C 3.59525 7.5905 3.66375 7.68675 3.71875 7.71875 C 3.72175 7.75075 3.70875 7.7885 3.71875 7.8125 C 3.74475 7.8475 3.7705 7.88225 3.8125 7.90625 C 3.8635 7.93425 3.8895 7.978 3.9375 8 C 3.9545 8.01 3.974 7.99 4 8 C 4.066 8.02 4.0992 8.11035 4.15625 8.09375 C 4.19325 8.08275 4.1816 8.036 4.1875 8 C 4.2125 7.973 4.24225 7.9375 4.28125 7.9375 C 4.34325 7.9375 4.352 8.03345 4.375 8.09375 C 4.388 8.12775 4.4285 8.1515 4.4375 8.1875 C 4.4525 8.2495 4.4505 8.43175 4.4375 8.46875 C 4.4215 8.51475 4.3505 8.5115 4.3125 8.5625 C 4.2945 8.5865 4.29515 8.6412031 4.28125 8.6582031 C 4.25725 8.6872031 4.23675 8.69175 4.21875 8.71875 C 4.20875 8.73375 4.1964 8.76125 4.1875 8.78125 C 4.1575 8.84525 4.1 8.89175 4.125 8.96875 C 4.135 8.99975 4.1875 9.0255 4.1875 9.0625 C 4.1875 9.1065 4.10075 9.1395 4.09375 9.1875 C 4.08875 9.2225 4.1141 9.2655 4.125 9.3125 C 4.133 9.3475 4.19775 9.38325 4.21875 9.40625 C 4.25375 9.44525 4.2806 9.513 4.3125 9.5625 C 4.3755 9.6595 4.4068 9.78 4.46875 9.875 C 4.50175 9.924 4.57175 9.948 4.59375 10 C 4.60475 10.026 4.58375 10.06975 4.59375 10.09375 C 4.62975 10.17475 4.79401 10.2726 4.875 10.3125 C 4.913 10.3315 4.965 10.32375 5 10.34375 C 5.053 10.37375 5.16051 10.4534 5.1875 10.5 C 5.2115 10.542 5.20685 10.65185 5.21875 10.71875 C 5.23375 10.80675 5.21475 10.87365 5.21875 10.96875 C 5.22175 11.02075 5.25 11.04175 5.25 11.09375 C 5.25 11.11175 5.251 11.1685 5.25 11.1875 C 5.249 11.2495 5.255 11.312 5.25 11.375 C 5.247 11.409 5.248 11.441703 5.25 11.470703 C 5.253 11.501703 5.27935 11.50425 5.28125 11.53125 C 5.28325 11.56025 5.2469 11.602 5.25 11.625 C 5.257 11.688 5.3005 11.72295 5.3125 11.78125 C 5.3225 11.82725 5.34975 11.945 5.34375 12 C 5.33975 12.029 5.3165 12.062703 5.3125 12.095703 C 5.3095 12.121703 5.3165 12.13325 5.3125 12.15625 C 5.3095 12.17925 5.3185 12.19975 5.3125 12.21875 C 5.2806 12.19875 5.25005 12.17725 5.21875 12.15625 C 4.95275 11.97645 4.69496 11.75745 4.46875 11.53125 C 4.43815 11.50025 4.4048 11.4695 4.375 11.4375 C 4.19442 11.2474 4.02414 11.0292 3.875 10.8125 C 3.8615 10.7925 3.85695 10.769 3.84375 10.75 C 3.6707 10.4907 3.52906 10.2279 3.40625 9.9375 C 3.39725 9.9165 3.3835 9.8979531 3.375 9.8769531 C 3.26962 9.6179531 3.18607 9.3429531 3.125 9.0644531 C 3.1135 9.0114531 3.10355 8.9613031 3.09375 8.9082031 C 3.06895 8.7746031 3.04515 8.6390531 3.03125 8.5019531 C 3.01415 8.3324531 3 8.1726 3 8 C 3 7.7624 3.0304 7.5413 3.0625 7.3125 z M 5 7.84375 C 5.048 7.82175 5.039 7.90025 5 7.90625 C 4.963 7.91625 4.964 7.86175 5 7.84375 z "
       transform="translate(421.71429,531.79074)"
       id="path26" />
    <path
       inkscape:connector-curvature="0"
       style="fill:#4d4d4d;fill-opacity:1;fill-rule:evenodd;stroke:none"
       d="m 430.71429,540.79071 0,4 1,0 1,0 0,1 3,0 0,-2 -3,0 -1,0 0,-1 1,0 3,0 0,-2 -3,0 0,1 -1,0 0,-1 -1,0 z"
       id="rect4155" />
  </g>
</svg>
