<?xml version="1.0" encoding="UTF-8" standalone="no"?>
<!-- Created with Inkscape (http://www.inkscape.org/) -->

<svg
   xmlns:dc="http://purl.org/dc/elements/1.1/"
   xmlns:cc="http://creativecommons.org/ns#"
   xmlns:rdf="http://www.w3.org/1999/02/22-rdf-syntax-ns#"
   xmlns:svg="http://www.w3.org/2000/svg"
   xmlns="http://www.w3.org/2000/svg"
   xmlns:sodipodi="http://sodipodi.sourceforge.net/DTD/sodipodi-0.dtd"
   xmlns:inkscape="http://www.inkscape.org/namespaces/inkscape"
   width="16"
   height="16"
   id="svg2"
   version="1.1"
   inkscape:version="0.91 r13725"
   viewBox="0 0 16 16"
   sodipodi:docname="kdeconnect-tray-16.svg">
  <defs
     id="defs4" />
  <sodipodi:namedview
     id="base"
     pagecolor="#ffffff"
     bordercolor="#666666"
     borderopacity="1.0"
     inkscape:pageopacity="0.0"
     inkscape:pageshadow="2"
     inkscape:zoom="13.03125"
     inkscape:cx="3.3009367"
     inkscape:cy="6.4925597"
     inkscape:document-units="px"
     inkscape:current-layer="layer1"
     showgrid="true"
     inkscape:showpageshadow="false"
     units="px"
     inkscape:window-width="1024"
     inkscape:window-height="600"
     inkscape:window-x="0"
     inkscape:window-y="0"
     inkscape:window-maximized="1"
     inkscape:snap-bbox="true"
     inkscape:object-nodes="true"
     fit-margin-top="0"
     fit-margin-left="0"
     fit-margin-right="0"
     fit-margin-bottom="0"
     showguides="true">
    <inkscape:grid
       type="xygrid"
       id="grid4101"
       originx="-3"
       originy="-3.0000522" />
    <sodipodi:guide
       position="2,13.999895"
       orientation="12,0"
       id="guide3380" />
    <sodipodi:guide
       position="2,1.9998953"
       orientation="0,12"
       id="guide3382" />
    <sodipodi:guide
       position="14,1.9998953"
       orientation="-12,0"
       id="guide3384" />
    <sodipodi:guide
       position="14,13.999895"
       orientation="0,-12"
       id="guide3386" />
  </sodipodi:namedview>
  <metadata
     id="metadata7">
    <rdf:RDF>
      <cc:Work
         rdf:about="">
        <dc:format>image/svg+xml</dc:format>
        <dc:type
           rdf:resource="http://purl.org/dc/dcmitype/StillImage" />
        <dc:title></dc:title>
      </cc:Work>
    </rdf:RDF>
  </metadata>
  <g
     inkscape:label="Capa 1"
     inkscape:groupmode="layer"
     id="layer1"
     transform="translate(-3,-1033.3622)">
    <path
       style="fill:#f2f2f2;fill-opacity:1;stroke:none"
       d="m 12.5,1039.3622 -0.277344,1.1074 a 3,3 0 0 0 -0.720703,0.2969 l -0.976562,-0.5859 -0.707032,0.707 0.585938,0.9766 a 3,3 0 0 0 -0.300781,0.7226 L 9,1042.8622 l 0,1 1.107422,0.2773 a 3,3 0 0 0 0.296875,0.7207 l -0.585938,0.9766 0.707032,0.707 0.976562,-0.5859 a 3,3 0 0 0 0.722656,0.3008 l 0.275391,1.1035 1,0 0.277344,-1.1074 a 3,3 0 0 0 0.720703,-0.2969 l 0.976562,0.5859 0.707032,-0.707 -0.585938,-0.9766 a 3,3 0 0 0 0.300781,-0.7226 L 17,1043.8622 l 0,-1 -1.107422,-0.2773 a 3,3 0 0 0 -0.296875,-0.7207 l 0.585938,-0.9766 -0.707032,-0.707 -0.976562,0.5859 a 3,3 0 0 0 -0.722656,-0.3008 L 13.5,1039.3622 l -1,0 z m 0.5,2 a 2,2 0 0 1 0.199219,0.01 2,2 0 0 1 0.197265,0.029 2,2 0 0 1 0.195313,0.051 2,2 0 0 1 0.1875,0.068 2,2 0 0 1 0.179687,0.086 2,2 0 0 1 0.169922,0.1054 2,2 0 0 1 0.160156,0.1211 2,2 0 0 1 0.146485,0.1368 2,2 0 0 1 0.130859,0.1484 2,2 0 0 1 0.117188,0.1641 2,2 0 0 1 0.09961,0.1738 2,2 0 0 1 0.08008,0.1816 2,2 0 0 1 0.06445,0.1895 2,2 0 0 1 0.04297,0.1953 2,2 0 0 1 0.02344,0.1992 2,2 0 0 1 0.0059,0.1406 2,2 0 0 1 -0.0098,0.1992 2,2 0 0 1 -0.0293,0.1973 2,2 0 0 1 -0.05078,0.1953 2,2 0 0 1 -0.06836,0.1875 2,2 0 0 1 -0.08594,0.1797 2,2 0 0 1 -0.105468,0.1699 2,2 0 0 1 -0.121094,0.1602 2,2 0 0 1 -0.136719,0.1464 2,2 0 0 1 -0.148437,0.1309 2,2 0 0 1 -0.164063,0.1172 2,2 0 0 1 -0.173828,0.1 2,2 0 0 1 -0.181641,0.08 2,2 0 0 1 -0.189453,0.064 2,2 0 0 1 -0.195312,0.043 2,2 0 0 1 -0.199219,0.023 2,2 0 0 1 -0.08394,0.01 l -0.136719,0 a 2,2 0 0 1 -0.119141,-0.01 2,2 0 0 1 -0.197265,-0.029 2,2 0 0 1 -0.195313,-0.051 2,2 0 0 1 -0.1875,-0.068 2,2 0 0 1 -0.179687,-0.086 2,2 0 0 1 -0.169922,-0.1054 2,2 0 0 1 -0.160156,-0.1211 2,2 0 0 1 -0.08789,-0.082 l -0.08789,-0.088 a 2,2 0 0 1 -0.101562,-0.1152 2,2 0 0 1 -0.117188,-0.1641 2,2 0 0 1 -0.09961,-0.1738 2,2 0 0 1 -0.08008,-0.1816 2,2 0 0 1 -0.06445,-0.1895 2,2 0 0 1 -0.04297,-0.1953 2,2 0 0 1 -0.02344,-0.1992 2,2 0 0 1 -0.0059,-0.1406 2,2 0 0 1 0.0098,-0.1992 2,2 0 0 1 0.0293,-0.1973 2,2 0 0 1 0.05078,-0.1953 2,2 0 0 1 0.06836,-0.1875 2,2 0 0 1 0.08594,-0.1797 2,2 0 0 1 0.105468,-0.1699 2,2 0 0 1 0.121094,-0.1602 2,2 0 0 1 0.136719,-0.1464 2,2 0 0 1 0.148437,-0.1309 2,2 0 0 1 0.164063,-0.1172 2,2 0 0 1 0.173828,-0.1 2,2 0 0 1 0.181641,-0.08 2,2 0 0 1 0.189453,-0.064 2,2 0 0 1 0.195312,-0.043 2,2 0 0 1 0.199219,-0.023 2,2 0 0 1 0.140586,-0.01 z"
       id="path3373"
       inkscape:connector-curvature="0" />
    <path
       style="fill:#f2f2f2;fill-opacity:1;stroke:none"
       d="M 4 2 L 4 14 L 6 14 L 6 13 L 5 13 L 5 3 L 11 3 L 11 6 L 12 6 L 12 2 L 4 2 z "
       id="rect3388"
       transform="translate(3,1033.3622)" />
    <rect
       style="fill:#f2f2f2;fill-opacity:1;stroke:none"
       id="rect3396"
       width="2"
       height="1"
       x="10"
       y="1036.3623" />
  </g>
</svg>
