<?xml version="1.0" encoding="UTF-8" standalone="no"?>
<!-- Created with Inkscape (http://www.inkscape.org/) -->

<svg
   xmlns:dc="http://purl.org/dc/elements/1.1/"
   xmlns:cc="http://creativecommons.org/ns#"
   xmlns:rdf="http://www.w3.org/1999/02/22-rdf-syntax-ns#"
   xmlns:svg="http://www.w3.org/2000/svg"
   xmlns="http://www.w3.org/2000/svg"
   xmlns:sodipodi="http://sodipodi.sourceforge.net/DTD/sodipodi-0.dtd"
   xmlns:inkscape="http://www.inkscape.org/namespaces/inkscape"
   width="22"
   height="22"
   id="svg4355"
   version="1.1"
   inkscape:version="0.91 r13725"
   sodipodi:docname="adjustlevels.svg">
  <defs
     id="defs4357">
    <clipPath
       clipPathUnits="userSpaceOnUse"
       id="clipPath4160">
      <rect
         style="opacity:1;fill:#f2f2f2;fill-opacity:1;stroke:none;stroke-opacity:1"
         id="rect4162"
         width="1"
         height="1"
         x="7"
         y="1023.3622" />
    </clipPath>
  </defs>
  <sodipodi:namedview
     id="base"
     pagecolor="#ffffff"
     bordercolor="#666666"
     borderopacity="1.0"
     inkscape:pageopacity="0.0"
     inkscape:pageshadow="2"
     inkscape:zoom="22.627417"
     inkscape:cx="11.922532"
     inkscape:cy="11.51795"
     inkscape:document-units="px"
     inkscape:current-layer="layer1"
     showgrid="true"
     width="0px"
     height="0px"
     fit-margin-top="0"
     fit-margin-left="0"
     fit-margin-right="0"
     fit-margin-bottom="0"
     inkscape:window-width="1366"
     inkscape:window-height="709"
     inkscape:window-x="-4"
     inkscape:window-y="0"
     inkscape:window-maximized="1"
     inkscape:showpageshadow="false"
     inkscape:snap-bbox="true"
     inkscape:snap-global="true"
     inkscape:object-nodes="true">
    <inkscape:grid
       type="xygrid"
       id="grid4114" />
    <sodipodi:guide
       position="2,13"
       orientation="18,0"
       id="guide4120" />
    <sodipodi:guide
       position="2.0000011,1.9999962"
       orientation="0,18"
       id="guide4122" />
    <sodipodi:guide
       position="20.000001,1.9999962"
       orientation="-18,0"
       id="guide4124" />
    <sodipodi:guide
       position="20.000001,19.999996"
       orientation="0,-18"
       id="guide4126" />
    <sodipodi:guide
       position="3,6"
       orientation="16,0"
       id="guide4128" />
    <sodipodi:guide
       position="3.0000011,2.9999962"
       orientation="0,16"
       id="guide4130" />
    <sodipodi:guide
       position="19.000001,2.9999962"
       orientation="-16,0"
       id="guide4132" />
    <sodipodi:guide
       position="6,19"
       orientation="0,-16"
       id="guide4134" />
  </sodipodi:namedview>
  <metadata
     id="metadata4360">
    <rdf:RDF>
      <cc:Work
         rdf:about="">
        <dc:format>image/svg+xml</dc:format>
        <dc:type
           rdf:resource="http://purl.org/dc/dcmitype/StillImage" />
        <dc:title></dc:title>
      </cc:Work>
    </rdf:RDF>
  </metadata>
  <g
     inkscape:label="Capa 1"
     inkscape:groupmode="layer"
     id="layer1"
     transform="translate(-544.57141,-742.93359)">
    <rect
       style="fill:#f2f2f2;fill-opacity:1;stroke:none"
       id="rect4035"
       width="0"
       height="10.999983"
       x="507.15402"
       y="747.55408" />
    <rect
       style="fill:#f2f2f2;fill-opacity:1;stroke:none"
       id="rect4035-5"
       width="0"
       height="10.999983"
       x="525.19482"
       y="745.50281" />
    <rect
       style="fill:#f2f2f2;fill-opacity:1;stroke:none"
       id="rect4035-8"
       width="0"
       height="10.999983"
       x="507.15402"
       y="747.55408" />
    <rect
       style="fill:#f2f2f2;fill-opacity:1;stroke:none"
       id="rect4035-59"
       width="0"
       height="10.999983"
       x="507.15402"
       y="747.55408" />
    <rect
       style="fill:#f2f2f2;fill-opacity:1;stroke:none"
       id="rect4035-6"
       width="0"
       height="10.999983"
       x="499.84589"
       y="742.71948" />
    <rect
       style="fill:#f2f2f2;fill-opacity:1;stroke:none"
       id="rect4035-5-1"
       width="0"
       height="10.999983"
       x="517.88666"
       y="740.66809" />
    <rect
       style="fill:#f2f2f2;fill-opacity:1;stroke:none"
       id="rect4035-8-3"
       width="0"
       height="10.999983"
       x="499.84589"
       y="742.71948" />
    <rect
       style="fill:#f2f2f2;fill-opacity:1;stroke:none"
       id="rect4035-59-4"
       width="0"
       height="10.999983"
       x="499.84589"
       y="742.71948" />
    <rect
       style="fill:#f2f2f2;fill-opacity:1;stroke:none"
       id="rect4035-1"
       width="0"
       height="10.999983"
       x="505.86105"
       y="746.93567" />
    <rect
       style="fill:#f2f2f2;fill-opacity:1;stroke:none"
       id="rect4035-5-0"
       width="0"
       height="10.999983"
       x="523.90186"
       y="744.8844" />
    <rect
       style="fill:#f2f2f2;fill-opacity:1;stroke:none"
       id="rect4035-8-1"
       width="0"
       height="10.999983"
       x="505.86105"
       y="746.93567" />
    <rect
       style="fill:#f2f2f2;fill-opacity:1;stroke:none"
       id="rect4035-59-1"
       width="0"
       height="10.999983"
       x="505.86105"
       y="746.93567" />
    <rect
       y="747.55408"
       x="507.15402"
       height="10.999983"
       width="0"
       id="rect4035-7"
       style="fill:#f2f2f2;fill-opacity:1;stroke:none" />
    <rect
       y="745.50281"
       x="525.19482"
       height="10.999983"
       width="0"
       id="rect4035-5-7"
       style="fill:#f2f2f2;fill-opacity:1;stroke:none" />
    <rect
       y="747.55408"
       x="507.15402"
       height="10.999983"
       width="0"
       id="rect4035-8-16"
       style="fill:#f2f2f2;fill-opacity:1;stroke:none" />
    <rect
       y="747.55408"
       x="507.15402"
       height="10.999983"
       width="0"
       id="rect4035-59-18"
       style="fill:#f2f2f2;fill-opacity:1;stroke:none" />
    <rect
       y="742.71948"
       x="499.84589"
       height="10.999983"
       width="0"
       id="rect4035-6-5"
       style="fill:#f2f2f2;fill-opacity:1;stroke:none" />
    <rect
       y="740.66809"
       x="517.88666"
       height="10.999983"
       width="0"
       id="rect4035-5-1-8"
       style="fill:#f2f2f2;fill-opacity:1;stroke:none" />
    <rect
       y="742.71948"
       x="499.84589"
       height="10.999983"
       width="0"
       id="rect4035-8-3-8"
       style="fill:#f2f2f2;fill-opacity:1;stroke:none" />
    <rect
       y="742.71948"
       x="499.84589"
       height="10.999983"
       width="0"
       id="rect4035-59-4-7"
       style="fill:#f2f2f2;fill-opacity:1;stroke:none" />
    <rect
       y="746.93567"
       x="505.86105"
       height="10.999983"
       width="0"
       id="rect4035-1-7"
       style="fill:#f2f2f2;fill-opacity:1;stroke:none" />
    <rect
       y="744.8844"
       x="523.90186"
       height="10.999983"
       width="0"
       id="rect4035-5-0-8"
       style="fill:#f2f2f2;fill-opacity:1;stroke:none" />
    <rect
       y="746.93567"
       x="505.86105"
       height="10.999983"
       width="0"
       id="rect4035-8-1-0"
       style="fill:#f2f2f2;fill-opacity:1;stroke:none" />
    <rect
       y="746.93567"
       x="505.86105"
       height="10.999983"
       width="0"
       id="rect4035-59-1-3"
       style="fill:#f2f2f2;fill-opacity:1;stroke:none" />
    <rect
       y="750.93359"
       x="504.62219"
       height="10.999983"
       width="0"
       id="rect4035-0"
       style="fill:#f2f2f2;fill-opacity:1;stroke:none" />
    <rect
       y="748.88232"
       x="522.66296"
       height="10.999983"
       width="0"
       id="rect4035-5-5"
       style="fill:#f2f2f2;fill-opacity:1;stroke:none" />
    <rect
       y="750.93359"
       x="504.62219"
       height="10.999983"
       width="0"
       id="rect4035-8-6"
       style="fill:#f2f2f2;fill-opacity:1;stroke:none" />
    <rect
       y="750.93359"
       x="504.62219"
       height="10.999983"
       width="0"
       id="rect4035-59-11"
       style="fill:#f2f2f2;fill-opacity:1;stroke:none" />
    <rect
       y="747.29968"
       x="488.63409"
       height="10.999983"
       width="0"
       id="rect4035-9"
       style="fill:#f2f2f2;fill-opacity:1;stroke:none" />
    <rect
       y="745.24841"
       x="506.67487"
       height="10.999983"
       width="0"
       id="rect4035-5-8"
       style="fill:#f2f2f2;fill-opacity:1;stroke:none" />
    <rect
       y="747.29968"
       x="488.63409"
       height="10.999983"
       width="0"
       id="rect4035-8-0"
       style="fill:#f2f2f2;fill-opacity:1;stroke:none" />
    <rect
       y="747.29968"
       x="488.63409"
       height="10.999983"
       width="0"
       id="rect4035-59-1-8"
       style="fill:#f2f2f2;fill-opacity:1;stroke:none" />
    <rect
       style="fill:#f2f2f2;fill-opacity:1;stroke:none"
       id="rect4035-3"
       width="0"
       height="10.999983"
       x="507.15402"
       y="747.55408" />
    <rect
       style="fill:#f2f2f2;fill-opacity:1;stroke:none"
       id="rect4035-5-2"
       width="0"
       height="10.999983"
       x="525.19482"
       y="745.50281" />
    <rect
       style="fill:#f2f2f2;fill-opacity:1;stroke:none"
       id="rect4035-8-7"
       width="0"
       height="10.999983"
       x="507.15402"
       y="747.55408" />
    <rect
       style="fill:#f2f2f2;fill-opacity:1;stroke:none"
       id="rect4035-59-43"
       width="0"
       height="10.999983"
       x="507.15402"
       y="747.55408" />
    <rect
       style="fill:#f2f2f2;fill-opacity:1;stroke:none"
       id="rect4035-6-2"
       width="0"
       height="10.999983"
       x="499.84589"
       y="742.71948" />
    <rect
       style="fill:#f2f2f2;fill-opacity:1;stroke:none"
       id="rect4035-5-1-6"
       width="0"
       height="10.999983"
       x="517.88666"
       y="740.66809" />
    <rect
       style="fill:#f2f2f2;fill-opacity:1;stroke:none"
       id="rect4035-8-3-4"
       width="0"
       height="10.999983"
       x="499.84589"
       y="742.71948" />
    <rect
       style="fill:#f2f2f2;fill-opacity:1;stroke:none"
       id="rect4035-59-4-8"
       width="0"
       height="10.999983"
       x="499.84589"
       y="742.71948" />
    <rect
       style="fill:#f2f2f2;fill-opacity:1;stroke:none"
       id="rect4035-1-8"
       width="0"
       height="10.999983"
       x="505.86105"
       y="746.93567" />
    <rect
       style="fill:#f2f2f2;fill-opacity:1;stroke:none"
       id="rect4035-5-0-0"
       width="0"
       height="10.999983"
       x="523.90186"
       y="744.8844" />
    <rect
       style="fill:#f2f2f2;fill-opacity:1;stroke:none"
       id="rect4035-8-1-3"
       width="0"
       height="10.999983"
       x="505.86105"
       y="746.93567" />
    <rect
       style="fill:#f2f2f2;fill-opacity:1;stroke:none"
       id="rect4035-59-1-1"
       width="0"
       height="10.999983"
       x="505.86105"
       y="746.93567" />
    <path
       inkscape:connector-curvature="0"
       style="fill:#f2f2f2;fill-opacity:1;stroke:none"
       d="m 556.12219,751.93359 c -1.21386,0 -2.21902,0.85593 -2.44922,2 l -6.05078,0 0,1 6.05078,0 c 0.2302,1.14407 1.23536,2 2.44922,2 1.21386,0 2.21902,-0.85593 2.44922,-2 l 5.05078,0 0,-1 -5.05078,0 c -0.2302,-1.14407 -1.23536,-2 -2.44922,-2 z"
       id="rect4139" />
    <path
       inkscape:connector-curvature="0"
       style="fill:#f2f2f2;fill-opacity:1;stroke:none"
       d="m 550.12219,756.93359 c -1.385,0 -2.5,1.115 -2.5,2.5 0,1.385 1.115,2.5 2.5,2.5 1.21386,0 2.21902,-0.85593 2.44922,-2 l 11.05078,0 0,-1 -11.05078,0 c -0.2302,-1.14407 -1.23536,-2 -2.44922,-2 z m 0,1 c 0.831,0 1.5,0.669 1.5,1.5 0,0.831 -0.669,1.5 -1.5,1.5 -0.831,0 -1.5,-0.669 -1.5,-1.5 0,-0.831 0.669,-1.5 1.5,-1.5 z"
       id="rect4141" />
    <path
       inkscape:connector-curvature="0"
       style="fill:#f2f2f2;fill-opacity:1;stroke:none"
       d="m 559.12219,745.93359 c -1.21386,0 -2.21902,0.85593 -2.44922,2 l -9.05078,0 0,1 9.05078,0 c 0.2302,1.14407 1.23536,2 2.44922,2 1.21386,0 2.21902,-0.85593 2.44922,-2 l 2.05078,0 0,-1 -2.05078,0 c -0.2302,-1.14407 -1.23536,-2 -2.44922,-2 z m 0,1 c 0.831,0 1.5,0.669 1.5,1.5 0,0.831 -0.669,1.5 -1.5,1.5 -0.831,0 -1.5,-0.669 -1.5,-1.5 0,-0.831 0.669,-1.5 1.5,-1.5 z"
       id="rect4200" />
  </g>
</svg>
