<?xml version="1.0" encoding="UTF-8" standalone="no"?>
<!-- Created with Inkscape (http://www.inkscape.org/) -->

<svg
   xmlns:dc="http://purl.org/dc/elements/1.1/"
   xmlns:cc="http://creativecommons.org/ns#"
   xmlns:rdf="http://www.w3.org/1999/02/22-rdf-syntax-ns#"
   xmlns:svg="http://www.w3.org/2000/svg"
   xmlns="http://www.w3.org/2000/svg"
   xmlns:sodipodi="http://sodipodi.sourceforge.net/DTD/sodipodi-0.dtd"
   xmlns:inkscape="http://www.inkscape.org/namespaces/inkscape"
   width="22"
   height="22"
   id="svg3760"
   version="1.1"
   inkscape:version="0.91 r13725"
   sodipodi:docname="map-globe.svg">
  <defs
     id="defs3762">
    <linearGradient
       id="linearGradient4324">
      <stop
         id="stop4326"
         offset="0"
         style="stop-color:#f62459;stop-opacity:1" />
      <stop
         id="stop4328"
         offset="1"
         style="stop-color:#f8567f;stop-opacity:1" />
    </linearGradient>
  </defs>
  <sodipodi:namedview
     id="base"
     pagecolor="#ffffff"
     bordercolor="#666666"
     borderopacity="1.0"
     inkscape:pageopacity="0.0"
     inkscape:pageshadow="2"
     inkscape:zoom="8"
     inkscape:cx="2.7980013"
     inkscape:cy="5.7962131"
     inkscape:document-units="px"
     inkscape:current-layer="layer1"
     showgrid="true"
     fit-margin-top="0"
     fit-margin-left="0"
     fit-margin-right="0"
     fit-margin-bottom="0"
     inkscape:window-width="1920"
     inkscape:window-height="1021"
     inkscape:window-x="-4"
     inkscape:window-y="0"
     inkscape:window-maximized="1"
     inkscape:showpageshadow="false"
     showguides="true"
     inkscape:snap-bbox="true"
     inkscape:object-nodes="true"
     inkscape:snap-global="true">
    <inkscape:grid
       type="xygrid"
       id="grid4106"
       originx="-0.99998557px"
       originy="-1.0000252px" />
    <sodipodi:guide
       position="2.00001,19.99997"
       orientation="0,18"
       id="guide4229" />
    <sodipodi:guide
       position="20.00001,19.99997"
       orientation="18,0"
       id="guide4231" />
    <sodipodi:guide
       position="20.00001,1.99997"
       orientation="0,-18"
       id="guide4233" />
    <sodipodi:guide
       position="2.00001,1.99997"
       orientation="-18,0"
       id="guide4235" />
    <sodipodi:guide
       position="19.00001,2.99997"
       orientation="0,-16"
       id="guide4241" />
    <sodipodi:guide
       position="2.9999956,18.999992"
       orientation="6,0"
       id="guide4155" />
    <sodipodi:guide
       position="18.999996,12.999992"
       orientation="-6,0"
       id="guide4167" />
    <sodipodi:guide
       position="18.999996,18.999992"
       orientation="0,-6"
       id="guide4169" />
  </sodipodi:namedview>
  <metadata
     id="metadata3765">
    <rdf:RDF>
      <cc:Work
         rdf:about="">
        <dc:format>image/svg+xml</dc:format>
        <dc:type
           rdf:resource="http://purl.org/dc/dcmitype/StillImage" />
        <dc:title></dc:title>
      </cc:Work>
    </rdf:RDF>
  </metadata>
  <g
     inkscape:label="Capa 1"
     inkscape:groupmode="layer"
     id="layer1"
     transform="translate(-551.28571,-607.64788)">
    <path
       style="fill:#f2f2f2;fill-opacity:1;stroke:none"
       d="M 11.117188 3 A 8.0000029 8.0000095 0 0 0 5.34375 5.34375 A 8.0000029 8.0000095 0 0 0 5.34375 16.65625 A 8.0000029 8.0000095 0 0 0 16.65625 16.65625 A 8.0000029 8.0000095 0 0 0 16.65625 5.34375 A 8.0000029 8.0000095 0 0 0 11.117188 3 z M 10.898438 4 A 7 7 0 0 1 15.578125 5.7148438 L 14.173828 7.1191406 A 8 5 45 0 0 8.75 4.3769531 A 7 7 0 0 1 10.898438 4 z M 7.8710938 5.3066406 A 7 4 45 0 1 13.464844 7.828125 L 11 10.292969 L 6.4492188 5.7421875 A 7 4 45 0 1 7.8710938 5.3066406 z M 16.291016 6.4160156 A 7 7 0 0 1 17.626953 13.226562 A 8 5 45 0 0 14.876953 7.8300781 L 16.291016 6.4160156 z M 5.7402344 6.4472656 L 10.292969 11 L 7.8261719 13.466797 A 7 4 45 0 1 5.7402344 6.4472656 z M 14.173828 8.5332031 A 7 4 45 0 1 16.259766 15.552734 L 11.707031 11 L 14.173828 8.5332031 z M 4.3730469 8.7734375 A 8 5 45 0 0 7.1230469 14.169922 L 5.7089844 15.583984 A 7 7 0 0 1 4.3730469 8.7734375 z M 11 11.707031 L 15.550781 16.257812 A 7 4 45 0 1 8.5351562 14.171875 L 11 11.707031 z M 7.8261719 14.880859 A 8 5 45 0 0 13.25 17.623047 A 7 7 0 0 1 6.421875 16.285156 L 7.8261719 14.880859 z "
       transform="translate(551.28571,607.64788)"
       id="path4521" />
  </g>
</svg>
