<?xml version="1.0" encoding="UTF-8" standalone="no"?>
<!-- Created with Inkscape (http://www.inkscape.org/) -->

<svg
   xmlns:dc="http://purl.org/dc/elements/1.1/"
   xmlns:cc="http://creativecommons.org/ns#"
   xmlns:rdf="http://www.w3.org/1999/02/22-rdf-syntax-ns#"
   xmlns:svg="http://www.w3.org/2000/svg"
   xmlns="http://www.w3.org/2000/svg"
   xmlns:sodipodi="http://sodipodi.sourceforge.net/DTD/sodipodi-0.dtd"
   xmlns:inkscape="http://www.inkscape.org/namespaces/inkscape"
   width="22"
   height="22"
   id="svg18109"
   version="1.1"
   inkscape:version="0.48+devel r"
   sodipodi:docname="object-flip-horizontal.svg">
  <defs
     id="defs18111" />
  <sodipodi:namedview
     id="base"
     pagecolor="#ffffff"
     bordercolor="#666666"
     borderopacity="1.0"
     inkscape:pageopacity="0.0"
     inkscape:pageshadow="2"
     inkscape:zoom="24.342444"
     inkscape:cx="10.997988"
     inkscape:cy="12.344861"
     inkscape:document-units="px"
     inkscape:current-layer="layer1"
     showgrid="true"
     inkscape:window-width="1366"
     inkscape:window-height="666"
     inkscape:window-x="-2"
     inkscape:window-y="25"
     inkscape:window-maximized="1"
     inkscape:showpageshadow="false"
     showguides="true">
    <inkscape:grid
       type="xygrid"
       id="grid4122" />
    <sodipodi:guide
       position="3,3.0000174"
       orientation="-16,0"
       id="guide4126" />
    <sodipodi:guide
       position="12,19.000017"
       orientation="0,16"
       id="guide4128" />
    <sodipodi:guide
       position="19,19.000017"
       orientation="16,0"
       id="guide4130" />
    <sodipodi:guide
       position="19,3.0000174"
       orientation="0,-16"
       id="guide4132" />
    <sodipodi:guide
       position="2,2.0000174"
       orientation="-18,0"
       id="guide4134" />
    <sodipodi:guide
       position="2,20.000017"
       orientation="0,18"
       id="guide4136" />
    <sodipodi:guide
       position="20,20.000017"
       orientation="18,0"
       id="guide4138" />
    <sodipodi:guide
       position="20,2.0000174"
       orientation="0,-18"
       id="guide4140" />
  </sodipodi:namedview>
  <metadata
     id="metadata18114">
    <rdf:RDF>
      <cc:Work
         rdf:about="">
        <dc:format>image/svg+xml</dc:format>
        <dc:type
           rdf:resource="http://purl.org/dc/dcmitype/StillImage" />
        <dc:title />
      </cc:Work>
    </rdf:RDF>
  </metadata>
  <g
     inkscape:label="Capa 1"
     inkscape:groupmode="layer"
     id="layer1"
     transform="translate(0,-1030.3622)">
    <path
       style="opacity:1;fill:#f2f2f2;fill-opacity:1;stroke:none;stroke-width:2.79999995;stroke-miterlimit:4;stroke-dasharray:none;stroke-opacity:0.55026455"
       d="m 16,1033.3622 0,1 -1,0 0,-1 1,0 z m -9,0 0,1 -1,0 0,-1 1,0 z m 9,2 0,1 3,0 0,10 -3,0 0,1 -1,0 0,-1 -3,0 0,-3 -2,0 0,3 -3,0 0,1 -1,0 0,-1 -3,0 0,-10 3,0 0,-1 1,0 0,1 3,0 0,3 2,0 0,-3 3,0 0,-1 1,0 z m 2,2 -5,0 0,8 5,0 0,-8 z m -9,0 -5,0 0,8 5,0 0,-8 z m 8,1 0,6 -3,0 0,-6 3,0 z m -5,2 -2,0 0,2 2,0 0,-2 z m 4,8 0,1 -1,0 0,-1 1,0 z m -9,0 0,1 -1,0 0,-1 1,0 z"
       id="rect4146"
       inkscape:connector-curvature="0" />
  </g>
</svg>
