<?xml version="1.0" encoding="UTF-8" standalone="no"?>
<!-- Created with Inkscape (http://www.inkscape.org/) -->

<svg
   xmlns:dc="http://purl.org/dc/elements/1.1/"
   xmlns:cc="http://creativecommons.org/ns#"
   xmlns:rdf="http://www.w3.org/1999/02/22-rdf-syntax-ns#"
   xmlns:svg="http://www.w3.org/2000/svg"
   xmlns="http://www.w3.org/2000/svg"
   xmlns:sodipodi="http://sodipodi.sourceforge.net/DTD/sodipodi-0.dtd"
   xmlns:inkscape="http://www.inkscape.org/namespaces/inkscape"
   width="16"
   height="16"
   id="svg2"
   version="1.1"
   inkscape:version="0.48.4 r9939"
   viewBox="0 0 16 16"
   sodipodi:docname="folder-text.svg">
  <defs
     id="defs4" />
  <sodipodi:namedview
     id="base"
     pagecolor="#ffffff"
     bordercolor="#666666"
     borderopacity="1.0"
     inkscape:pageopacity="0.0"
     inkscape:pageshadow="2"
     inkscape:zoom="63.356768"
     inkscape:cx="5.3286155"
     inkscape:cy="7.4869973"
     inkscape:document-units="px"
     inkscape:current-layer="layer1"
     showgrid="true"
     inkscape:showpageshadow="false"
     borderlayer="true"
     units="px"
     inkscape:window-width="1864"
     inkscape:window-height="1060"
     inkscape:window-x="54"
     inkscape:window-y="-3"
     inkscape:window-maximized="1"
     inkscape:snap-global="true"
     inkscape:snap-bbox="true">
    <inkscape:grid
       type="xygrid"
       id="grid4062" />
    <sodipodi:guide
       position="2,14.000017"
       orientation="12,0"
       id="guide4066" />
    <sodipodi:guide
       position="2,2.0000174"
       orientation="0,12"
       id="guide4068" />
    <sodipodi:guide
       position="14,2.0000174"
       orientation="-12,0"
       id="guide4070" />
    <sodipodi:guide
       position="14,14.000017"
       orientation="0,-12"
       id="guide4072" />
  </sodipodi:namedview>
  <metadata
     id="metadata7">
    <rdf:RDF>
      <cc:Work
         rdf:about="">
        <dc:format>image/svg+xml</dc:format>
        <dc:type
           rdf:resource="http://purl.org/dc/dcmitype/StillImage" />
        <dc:title></dc:title>
      </cc:Work>
    </rdf:RDF>
  </metadata>
  <g
     inkscape:label="Capa 1"
     inkscape:groupmode="layer"
     id="layer1"
     transform="translate(0,-1036.3622)">
    <g
       id="g3889"
       transform="matrix(0.54545455,0,0,0.54545455,-201.22077,760.29056)"
       style="fill:#4d4d4d;fill-opacity:1">
      <path
         inkscape:connector-curvature="0"
         style="fill:#4d4d4d;fill-opacity:1;stroke:none"
         d="m 372.57141,509.798 0,22 22,0 0,-22 z m 1.83333,1.83334 7.33334,0 0,1.83333 1.83333,0 0,-1.83333 9.16667,0 0,18.33333 -18.33334,0 z m 9.16667,1.83333 0,1.83333 1.83333,0 0,-1.83333 z m 0,1.83333 -1.83333,0 0,1.83334 1.83333,0 z m 0,1.83334 0,1.83333 1.83333,0 0,-1.83333 z m 0,1.83333 -1.83333,0 0,1.83333 1.83333,0 z m 0,3.66667 -1.83333,0 0,1.83333 3.66666,0 c 0,-2.2 0,-2.37521 0,-3.66667 l -1.83333,0 c 0,0.73333 0,1.10001 0,1.83334 z"
         id="rect4173"
         sodipodi:nodetypes="ccccccccccccccccccccccccccccccccccccccccc" />
    </g>
  </g>
</svg>
