<?xml version="1.0" encoding="UTF-8" standalone="no"?>
<!-- Created with Inkscape (http://www.inkscape.org/) -->

<svg
   xmlns:dc="http://purl.org/dc/elements/1.1/"
   xmlns:cc="http://creativecommons.org/ns#"
   xmlns:rdf="http://www.w3.org/1999/02/22-rdf-syntax-ns#"
   xmlns:svg="http://www.w3.org/2000/svg"
   xmlns="http://www.w3.org/2000/svg"
   xmlns:sodipodi="http://sodipodi.sourceforge.net/DTD/sodipodi-0.dtd"
   xmlns:inkscape="http://www.inkscape.org/namespaces/inkscape"
   width="16"
   height="16"
   id="svg3049"
   version="1.1"
   inkscape:version="0.91+devel r"
   sodipodi:docname="applications-system.svg"
   inkscape:export-filename="/home/uri/.kde/share/icons/NITRUX-KDE/16x16/actions/view-right-new.png"
   inkscape:export-xdpi="30"
   inkscape:export-ydpi="30"
   viewBox="0 0 16 16">
  <defs
     id="defs3051" />
  <sodipodi:namedview
     id="base"
     pagecolor="#ffffff"
     bordercolor="#666666"
     borderopacity="1.0"
     inkscape:pageopacity="0.0"
     inkscape:pageshadow="2"
     inkscape:zoom="48.822612"
     inkscape:cx="15.190201"
     inkscape:cy="7.5399959"
     inkscape:document-units="px"
     inkscape:current-layer="layer1"
     showgrid="true"
     fit-margin-top="0"
     fit-margin-left="0"
     fit-margin-right="0"
     fit-margin-bottom="0"
     inkscape:window-width="2560"
     inkscape:window-height="964"
     inkscape:window-x="-4"
     inkscape:window-y="34"
     inkscape:window-maximized="1"
     inkscape:showpageshadow="false"
     borderlayer="true"
     inkscape:snap-bbox="true"
     inkscape:snap-global="true"
     inkscape:object-nodes="true">
    <inkscape:grid
       type="xygrid"
       id="grid4085" />
    <sodipodi:guide
       position="2,15"
       orientation="12,0"
       id="guide4075" />
    <sodipodi:guide
       position="17,2"
       orientation="0,12"
       id="guide4077" />
    <sodipodi:guide
       position="14,13"
       orientation="-12,0"
       id="guide4079" />
    <sodipodi:guide
       position="0,14"
       orientation="0,-12"
       id="guide4081" />
  </sodipodi:namedview>
  <metadata
     id="metadata3054">
    <rdf:RDF>
      <cc:Work
         rdf:about="">
        <dc:format>image/svg+xml</dc:format>
        <dc:type
           rdf:resource="http://purl.org/dc/dcmitype/StillImage" />
        <dc:title></dc:title>
      </cc:Work>
    </rdf:RDF>
  </metadata>
  <g
     inkscape:label="Capa 1"
     inkscape:groupmode="layer"
     id="layer1"
     transform="translate(-421.71429,-531.79074)">
    <path
       style="opacity:1;fill:#f2f2f2;fill-opacity:1;stroke:none;stroke-opacity:1"
       d="M 10.5 2 A 2.5 2.5 0 0 0 8.0507812 4 L 2 4 L 2 5 L 8.0546875 5 A 2.5 2.5 0 0 0 10.5 7 A 2.5 2.5 0 0 0 12.949219 5 L 14 5 L 14 4 L 12.945312 4 A 2.5 2.5 0 0 0 10.5 2 z M 5.5 9 A 2.5 2.5 0 0 0 3.0546875 11 L 2 11 L 2 12 L 3.0507812 12 A 2.5 2.5 0 0 0 5.5 14 A 2.5 2.5 0 0 0 7.9453125 12 L 14 12 L 14 11 L 7.9492188 11 A 2.5 2.5 0 0 0 5.5 9 z M 5.5 10 A 1.5 1.5 0 0 1 6.9121094 11 A 1.5 1.5 0 0 1 6.9550781 11.142578 A 1.5 1.5 0 0 1 6.984375 11.287109 A 1.5 1.5 0 0 1 6.984375 11.291016 A 1.5 1.5 0 0 1 6.9863281 11.306641 A 1.5 1.5 0 0 1 6.9980469 11.433594 A 1.5 1.5 0 0 1 6.9980469 11.439453 A 1.5 1.5 0 0 1 7 11.5 A 1.5 1.5 0 0 1 6.9921875 11.650391 A 1.5 1.5 0 0 1 6.9121094 12 A 1.5 1.5 0 0 1 5.5 13 A 1.5 1.5 0 0 1 4.0878906 12 A 1.5 1.5 0 0 1 4.0449219 11.857422 A 1.5 1.5 0 0 1 4.015625 11.712891 A 1.5 1.5 0 0 1 4.0136719 11.693359 A 1.5 1.5 0 0 1 4.0019531 11.566406 A 1.5 1.5 0 0 1 4 11.5 A 1.5 1.5 0 0 1 4.0078125 11.349609 A 1.5 1.5 0 0 1 4.0878906 11 A 1.5 1.5 0 0 1 5.5 10 z "
       transform="translate(421.71429,531.79074)"
       id="path14" />
  </g>
</svg>
