<?xml version="1.0" encoding="UTF-8" standalone="no"?>
<svg
   xmlns:dc="http://purl.org/dc/elements/1.1/"
   xmlns:cc="http://creativecommons.org/ns#"
   xmlns:rdf="http://www.w3.org/1999/02/22-rdf-syntax-ns#"
   xmlns:svg="http://www.w3.org/2000/svg"
   xmlns="http://www.w3.org/2000/svg"
   xmlns:sodipodi="http://sodipodi.sourceforge.net/DTD/sodipodi-0.dtd"
   xmlns:inkscape="http://www.inkscape.org/namespaces/inkscape"
   width="16"
   viewBox="0 0 16 16"
   height="16"
   id="svg2"
   version="1.1"
   inkscape:version="0.91+devel r"
   sodipodi:docname="system-help.svg">
  <metadata
     id="metadata12">
    <rdf:RDF>
      <cc:Work
         rdf:about="">
        <dc:format>image/svg+xml</dc:format>
        <dc:type
           rdf:resource="http://purl.org/dc/dcmitype/StillImage" />
        <dc:title></dc:title>
      </cc:Work>
    </rdf:RDF>
  </metadata>
  <defs
     id="defs10" />
  <sodipodi:namedview
     pagecolor="#ffffff"
     bordercolor="#666666"
     borderopacity="1"
     objecttolerance="10"
     gridtolerance="10000"
     guidetolerance="10"
     inkscape:pageopacity="0"
     inkscape:pageshadow="2"
     inkscape:window-width="2560"
     inkscape:window-height="964"
     id="namedview8"
     showgrid="true"
     inkscape:showpageshadow="false"
     borderlayer="true"
     inkscape:zoom="64"
     inkscape:cx="9.1001631"
     inkscape:cy="8.3786027"
     inkscape:window-x="-4"
     inkscape:window-y="34"
     inkscape:window-maximized="1"
     inkscape:current-layer="svg2">
    <inkscape:grid
       type="xygrid"
       id="grid4141" />
    <sodipodi:guide
       position="0,16"
       orientation="16,0"
       id="guide4147" />
    <sodipodi:guide
       position="0,0"
       orientation="0,16"
       id="guide4149" />
    <sodipodi:guide
       position="16,0"
       orientation="-16,0"
       id="guide4151" />
    <sodipodi:guide
       position="16,16"
       orientation="0,-16"
       id="guide4153" />
    <sodipodi:guide
       position="2,14"
       orientation="12,0"
       id="guide4155" />
    <sodipodi:guide
       position="2,2"
       orientation="0,12"
       id="guide4157" />
    <sodipodi:guide
       position="14,2"
       orientation="-12,0"
       id="guide4159" />
    <sodipodi:guide
       position="14,14"
       orientation="0,-12"
       id="guide4161" />
    <sodipodi:guide
       position="2,8"
       orientation="6,0"
       id="guide4182" />
    <sodipodi:guide
       position="2,2"
       orientation="0,12"
       id="guide4184" />
    <sodipodi:guide
       position="14,2"
       orientation="-6,0"
       id="guide4186" />
    <sodipodi:guide
       position="14,8"
       orientation="0,-12"
       id="guide4188" />
    <sodipodi:guide
       position="2,11"
       orientation="3,0"
       id="guide4196" />
    <sodipodi:guide
       position="2,8"
       orientation="0,12"
       id="guide4198" />
    <sodipodi:guide
       position="14,8"
       orientation="-3,0"
       id="guide4200" />
    <sodipodi:guide
       position="14,11"
       orientation="0,-12"
       id="guide4202" />
    <sodipodi:guide
       position="8.546875,11"
       orientation="0,1.4140625"
       id="guide4225" />
    <sodipodi:guide
       position="6.9609375,8"
       orientation="0,-0.9609375"
       id="guide4229" />
    <sodipodi:guide
       position="8.546875,5"
       orientation="0,1.4140625"
       id="guide4237" />
  </sodipodi:namedview>
  <path
     style="opacity:1;fill:#f2f2f2;fill-opacity:1;stroke:none;stroke-opacity:1"
     d="M 8 2 A 6 6 0 0 0 2 8 A 6 6 0 0 0 8 14 A 6 6 0 0 0 14 8 A 6 6 0 0 0 8 2 z M 2 3 L 2 5 L 4 3 L 2 3 z M 8 3 A 5 5 0 0 1 10.390625 3.609375 L 8.8691406 5.1308594 A 3 3 0 0 0 8 5 A 3 3 0 0 0 7.1308594 5.1308594 L 5.6132812 3.6132812 A 5 5 0 0 1 8 3 z M 12 3 L 14 5 L 14 3 L 12 3 z M 3.609375 5.609375 L 5.1308594 7.1308594 A 3 3 0 0 0 5 8 A 3 3 0 0 0 5.1308594 8.8691406 L 3.6132812 10.386719 A 5 5 0 0 1 3 8 A 5 5 0 0 1 3.609375 5.609375 z M 12.386719 5.6132812 A 5 5 0 0 1 13 8 A 5 5 0 0 1 12.390625 10.390625 L 10.869141 8.8691406 A 3 3 0 0 0 11 8 A 3 3 0 0 0 10.869141 7.1308594 L 12.386719 5.6132812 z M 8 6 A 2 2 0 0 1 10 8 A 2 2 0 0 1 8 10 A 2 2 0 0 1 6 8 A 2 2 0 0 1 8 6 z M 7.1308594 10.869141 A 3 3 0 0 0 8 11 A 3 3 0 0 0 8.8691406 10.869141 L 10.386719 12.386719 A 5 5 0 0 1 8 13 A 5 5 0 0 1 5.609375 12.390625 L 7.1308594 10.869141 z M 2 11 L 2 13 L 4 13 L 2 11 z M 14 11 L 12 13 L 14 13 L 14 11 z "
     id="path59" />
</svg>
