<?xml version="1.0" encoding="UTF-8" standalone="no"?>
<!-- Created with Inkscape (http://www.inkscape.org/) -->

<svg
   xmlns:dc="http://purl.org/dc/elements/1.1/"
   xmlns:cc="http://creativecommons.org/ns#"
   xmlns:rdf="http://www.w3.org/1999/02/22-rdf-syntax-ns#"
   xmlns:svg="http://www.w3.org/2000/svg"
   xmlns="http://www.w3.org/2000/svg"
   xmlns:sodipodi="http://sodipodi.sourceforge.net/DTD/sodipodi-0.dtd"
   xmlns:inkscape="http://www.inkscape.org/namespaces/inkscape"
   width="22"
   height="22"
   id="svg2"
   version="1.1"
   inkscape:version="0.91pre2 r"
   viewBox="0 0 22 22"
   sodipodi:docname="kde.svg">
  <defs
     id="defs4" />
  <sodipodi:namedview
     id="base"
     pagecolor="#ffffff"
     bordercolor="#666666"
     borderopacity="1.0"
     inkscape:pageopacity="0.0"
     inkscape:pageshadow="2"
     inkscape:zoom="23.997436"
     inkscape:cx="0.90366048"
     inkscape:cy="12.561143"
     inkscape:document-units="px"
     inkscape:current-layer="layer1"
     showgrid="true"
     inkscape:showpageshadow="false"
     units="px"
     inkscape:window-width="1366"
     inkscape:window-height="716"
     inkscape:window-x="-4"
     inkscape:window-y="25"
     inkscape:window-maximized="1"
     showguides="true">
    <inkscape:grid
       type="xygrid"
       id="grid4101" />
    <sodipodi:guide
       position="2,20.000017"
       orientation="18,0"
       id="guide4107" />
    <sodipodi:guide
       position="2,2.0000174"
       orientation="0,18"
       id="guide4109" />
    <sodipodi:guide
       position="20,2.0000174"
       orientation="-18,0"
       id="guide4111" />
    <sodipodi:guide
       position="20,20.000017"
       orientation="0,-18"
       id="guide4113" />
    <sodipodi:guide
       position="3,19.000017"
       orientation="16,0"
       id="guide4115" />
    <sodipodi:guide
       position="3,3.0000174"
       orientation="0,16"
       id="guide4117" />
    <sodipodi:guide
       position="19,3.0000174"
       orientation="-16,0"
       id="guide4119" />
    <sodipodi:guide
       position="16,19.000017"
       orientation="0,-16"
       id="guide4121" />
    <sodipodi:guide
       position="19,7.0000174"
       orientation="-12,0"
       id="guide4148" />
    <sodipodi:guide
       position="19,19.000017"
       orientation="0,-9"
       id="guide4150" />
    <sodipodi:guide
       position="11,19"
       orientation="0,-1"
       id="guide4174" />
    <sodipodi:guide
       position="14.000058,14.707169"
       orientation="-4.2928339,4.2928339"
       id="guide4168" />
    <sodipodi:guide
       position="18.292892,19.000003"
       orientation="0.70710678,0.70710678"
       id="guide4170" />
    <sodipodi:guide
       position="18.999999,18.292896"
       orientation="4.2928339,-4.2928339"
       id="guide4172" />
    <sodipodi:guide
       position="14.707165,14.000062"
       orientation="-0.70710678,-0.70710678"
       id="guide4175" />
    <sodipodi:guide
       position="14.000058,11.292824"
       orientation="4.2928339,4.2928339"
       id="guide4188" />
    <sodipodi:guide
       position="18.292892,6.99999"
       orientation="-0.70710678,0.70710678"
       id="guide4190" />
    <sodipodi:guide
       position="18.999999,7.7070968"
       orientation="-4.2928339,-4.2928339"
       id="guide4192" />
    <sodipodi:guide
       position="14.707165,11.999931"
       orientation="0.70710678,-0.70710678"
       id="guide4194" />
    <sodipodi:guide
       position="11,19.000017"
       orientation="12,0"
       id="guide4132" />
    <sodipodi:guide
       position="11,7.0000174"
       orientation="0,8"
       id="guide4134" />
    <sodipodi:guide
       position="19,7.0000174"
       orientation="-12,0"
       id="guide4136" />
    <sodipodi:guide
       position="19,19.000017"
       orientation="0,-8"
       id="guide4138" />
  </sodipodi:namedview>
  <metadata
     id="metadata7">
    <rdf:RDF>
      <cc:Work
         rdf:about="">
        <dc:format>image/svg+xml</dc:format>
        <dc:type
           rdf:resource="http://purl.org/dc/dcmitype/StillImage" />
        <dc:title />
      </cc:Work>
    </rdf:RDF>
  </metadata>
  <g
     inkscape:label="Capa 1"
     inkscape:groupmode="layer"
     id="layer1"
     transform="translate(0,-1030.3622)">
    <path
       style="opacity:1;fill:#f2f2f2;fill-opacity:1;stroke:none"
       d="M 11 3 L 11 10.585938 L 11 12.585938 L 11 15 L 12 15 L 12 3 L 11 3 z M 18.292969 3 L 14 7.2929688 L 13 8.2929688 L 13 9.7070312 L 14 10.707031 L 16.326172 13.033203 C 16.219518 13.015752 16.111741 13 16 13 C 14.892 13 14 13.892 14 15 C 14 16.108 14.892 17 16 17 C 17.108 17 18 16.108 18 15 C 18 14.888259 17.984248 14.780482 17.966797 14.673828 L 18.292969 15 L 19 14.292969 L 14.707031 10 L 13.707031 9 L 14.707031 8 L 19 3.7070312 L 18.292969 3 z M 8 4 C 7.446 4 7 4.446 7 5 C 7 5.554 7.446 6 8 6 C 8.554 6 9 5.554 9 5 C 9 4.446 8.554 4 8 4 z M 4.5 8 C 3.669 8 3 8.669 3 9.5 C 3 10.331 3.669 11 4.5 11 C 5.331 11 6 10.331 6 9.5 C 6 8.669 5.331 8 4.5 8 z M 5.5 13 C 4.669 13 4 13.669 4 14.5 C 4 15.331 4.669 16 5.5 16 C 6.331 16 7 15.331 7 14.5 C 7 13.669 6.331 13 5.5 13 z M 10.5 16 C 9.6690048 16 9 16.669005 9 17.5 C 9 18.330995 9.6690048 19 10.5 19 C 11.330995 19 12 18.330995 12 17.5 C 12 16.669005 11.330995 16 10.5 16 z "
       transform="translate(0,1030.3622)"
       id="rect4159" />
  </g>
</svg>
