<?xml version="1.0" encoding="UTF-8" standalone="no"?>
<svg
   xmlns:dc="http://purl.org/dc/elements/1.1/"
   xmlns:cc="http://creativecommons.org/ns#"
   xmlns:rdf="http://www.w3.org/1999/02/22-rdf-syntax-ns#"
   xmlns:svg="http://www.w3.org/2000/svg"
   xmlns="http://www.w3.org/2000/svg"
   xmlns:xlink="http://www.w3.org/1999/xlink"
   xmlns:sodipodi="http://sodipodi.sourceforge.net/DTD/sodipodi-0.dtd"
   xmlns:inkscape="http://www.inkscape.org/namespaces/inkscape"
   viewBox="0 0 64 64"
   id="svg2"
   version="1.1"
   inkscape:version="0.91pre2 r"
   sodipodi:docname="source-ruby.svg"
   width="64"
   height="64">
  <metadata
     id="metadata84">
    <rdf:RDF>
      <cc:Work
         rdf:about="">
        <dc:format>image/svg+xml</dc:format>
        <dc:type
           rdf:resource="http://purl.org/dc/dcmitype/StillImage" />
        <dc:title />
      </cc:Work>
    </rdf:RDF>
  </metadata>
  <sodipodi:namedview
     pagecolor="#ffffff"
     bordercolor="#666666"
     borderopacity="1"
     objecttolerance="10"
     gridtolerance="10"
     guidetolerance="10"
     inkscape:pageopacity="0"
     inkscape:pageshadow="2"
     inkscape:window-width="1366"
     inkscape:window-height="673"
     id="namedview82"
     showgrid="true"
     inkscape:showpageshadow="false"
     inkscape:zoom="5.6568543"
     inkscape:cx="50.445559"
     inkscape:cy="26.595215"
     inkscape:window-x="-4"
     inkscape:window-y="24"
     inkscape:window-maximized="1"
     inkscape:current-layer="svg2"
     showguides="true">
    <inkscape:grid
       type="xygrid"
       id="grid3413" />
    <sodipodi:guide
       position="0,64"
       orientation="64,0"
       id="guide3482" />
    <sodipodi:guide
       position="0,0"
       orientation="0,64"
       id="guide3484" />
    <sodipodi:guide
       position="64,0"
       orientation="-64,0"
       id="guide3486" />
    <sodipodi:guide
       position="64,64"
       orientation="0,-64"
       id="guide3488" />
    <sodipodi:guide
       position="10,61"
       orientation="58,0"
       id="guide3492" />
    <sodipodi:guide
       position="10,3"
       orientation="0,44"
       id="guide3494" />
    <sodipodi:guide
       position="54,3"
       orientation="-58,0"
       id="guide3496" />
    <sodipodi:guide
       position="54,61"
       orientation="0,-44"
       id="guide3498" />
    <sodipodi:guide
       position="54,47"
       orientation="-14,0"
       id="guide4310" />
    <sodipodi:guide
       position="54,61"
       orientation="0,-14"
       id="guide4312" />
    <sodipodi:guide
       position="21,43"
       orientation="22,0"
       id="guide4250" />
    <sodipodi:guide
       position="21,21"
       orientation="0,22"
       id="guide4252" />
    <sodipodi:guide
       position="43,21"
       orientation="-22,0"
       id="guide4254" />
    <sodipodi:guide
       position="43,43"
       orientation="0,-22"
       id="guide4256" />
  </sodipodi:namedview>
  <defs
     id="defs4">
    <linearGradient
       inkscape:collect="always"
       id="linearGradient4351">
      <stop
         style="stop-color:#fb7d80;stop-opacity:1"
         offset="0"
         id="stop4353" />
      <stop
         style="stop-color:#fb9fa2;stop-opacity:1"
         offset="1"
         id="stop4355" />
    </linearGradient>
    <linearGradient
       inkscape:collect="always"
       id="linearGradient4300">
      <stop
         style="stop-color:#cf000f;stop-opacity:1"
         offset="0"
         id="stop4302" />
      <stop
         style="stop-color:#d91e18;stop-opacity:1"
         offset="1"
         id="stop4304" />
    </linearGradient>
    <linearGradient
       inkscape:collect="always"
       xlink:href="#linearGradient4300"
       id="linearGradient4306"
       x1="32"
       y1="61"
       x2="32"
       y2="3"
       gradientUnits="userSpaceOnUse" />
    <linearGradient
       gradientTransform="matrix(1,0,0,-1,-14,78)"
       inkscape:collect="always"
       xlink:href="#linearGradient4410"
       id="linearGradient4427"
       x1="54"
       y1="31"
       x2="40"
       y2="17"
       gradientUnits="userSpaceOnUse" />
    <linearGradient
       inkscape:collect="always"
       id="linearGradient4410">
      <stop
         style="stop-color:#383e51;stop-opacity:1"
         offset="0"
         id="stop4412" />
      <stop
         style="stop-color:#655c6f;stop-opacity:0"
         offset="1"
         id="stop4414" />
    </linearGradient>
    <linearGradient
       inkscape:collect="always"
       xlink:href="#linearGradient4351"
       id="linearGradient4357"
       x1="47"
       y1="61"
       x2="47"
       y2="47"
       gradientUnits="userSpaceOnUse" />
  </defs>
  <path
     style="fill:url(#linearGradient4306);fill-opacity:1;stroke:none"
     d="M 10 3 L 10 61 L 40 61 L 54 47 L 54 17 L 54 3 L 40 3 L 10 3 z "
     id="rect3500" />
  <rect
     style="opacity:1;fill:#2e3132;fill-opacity:0.29411765;stroke:none"
     id="rect4169"
     width="30"
     height="1"
     x="10"
     y="60" />
  <rect
     style="opacity:1;fill:#ffffff;fill-opacity:0.40983605;stroke:none"
     id="rect4236"
     width="44"
     height="1"
     x="10"
     y="3" />
  <path
     style="fill:url(#linearGradient4357);fill-opacity:1;fill-rule:evenodd;stroke:none;stroke-width:1px;stroke-linecap:butt;stroke-linejoin:miter;stroke-opacity:1"
     d="M 54,47 40,61 40,47 Z"
     id="path4314"
     inkscape:connector-curvature="0" />
  <path
     inkscape:connector-curvature="0"
     id="path4320"
     d="M 26,61 40,47 40,61 Z"
     style="opacity:0.2;fill:url(#linearGradient4427);fill-opacity:1;fill-rule:evenodd;stroke:none;stroke-width:1px;stroke-linecap:butt;stroke-linejoin:miter;stroke-opacity:1" />
  <path
     style="opacity:1;fill:#fb9fa2;fill-opacity:1;stroke:none"
     d="M 27.966797 21 L 27 21.259766 L 27.513672 23.173828 L 28.478516 22.914062 L 27.966797 21 z M 36.033203 21 L 35.521484 22.914062 L 36.486328 23.173828 L 37 21.259766 L 36.033203 21 z M 23.865234 21.400391 L 23 21.900391 L 25 25.363281 L 25.865234 24.863281 L 23.865234 21.400391 z M 40.134766 21.400391 L 38.134766 24.863281 L 39 25.363281 L 41 21.900391 L 40.134766 21.400391 z M 21.5 25.158203 L 21 26.023438 L 22.716797 27.015625 L 23.216797 26.148438 L 21.5 25.158203 z M 42.5 25.158203 L 40.783203 26.148438 L 41.283203 27.015625 L 43 26.023438 L 42.5 25.158203 z M 25.986328 27 L 22 30.986328 L 22 31 L 31.126953 41.953125 L 31.166016 42 L 32 43 L 32.873047 41.953125 L 32.931641 41.880859 L 42 31 L 42 30.992188 L 38.007812 27 L 38 27 L 27.080078 27 L 25.986328 27 z M 26.400391 28 L 27.349609 28 L 27.884766 30 L 24.400391 30 L 26.400391 28 z M 28.384766 28 L 30.828125 28 L 29.673828 30 L 28.921875 30 L 28.384766 28 z M 31.984375 28 L 32.015625 28 L 33.169922 30 L 30.830078 30 L 31.984375 28 z M 33.171875 28 L 35.615234 28 L 35.078125 30 L 34.326172 30 L 33.171875 28 z M 36.652344 28 L 37.59375 28 L 39.59375 30 L 36.115234 30 L 36.652344 28 z M 23.287109 31 L 23.400391 31 L 28.152344 31 L 30.462891 39.619141 L 23.287109 31 z M 29.189453 31 L 30.251953 31 L 33.748047 31 L 34.810547 31 L 32.009766 41.455078 L 32 41.466797 L 31.990234 41.455078 L 29.189453 31 z M 35.847656 31 L 40.59375 31 L 40.712891 31 L 33.537109 39.619141 L 35.847656 31 z "
     id="rect4186" />
</svg>
