<?xml version="1.0" encoding="UTF-8" standalone="no"?>
<!-- Created with Inkscape (http://www.inkscape.org/) -->

<svg
   xmlns:dc="http://purl.org/dc/elements/1.1/"
   xmlns:cc="http://creativecommons.org/ns#"
   xmlns:rdf="http://www.w3.org/1999/02/22-rdf-syntax-ns#"
   xmlns:svg="http://www.w3.org/2000/svg"
   xmlns="http://www.w3.org/2000/svg"
   xmlns:sodipodi="http://sodipodi.sourceforge.net/DTD/sodipodi-0.dtd"
   xmlns:inkscape="http://www.inkscape.org/namespaces/inkscape"
   width="22"
   height="22"
   id="svg3869"
   version="1.1"
   inkscape:version="0.91+devel r"
   sodipodi:docname="quota-missing.svg"
   viewBox="0 0 22 22">
  <defs
     id="defs3871" />
  <sodipodi:namedview
     id="base"
     pagecolor="#ffffff"
     bordercolor="#666666"
     borderopacity="1.0"
     inkscape:pageopacity="0.0"
     inkscape:pageshadow="2"
     inkscape:zoom="36"
     inkscape:cx="14.811839"
     inkscape:cy="12.101322"
     inkscape:document-units="px"
     inkscape:current-layer="layer1"
     showgrid="true"
     fit-margin-top="0"
     fit-margin-left="0"
     fit-margin-right="0"
     fit-margin-bottom="0"
     inkscape:window-width="2560"
     inkscape:window-height="964"
     inkscape:window-x="-4"
     inkscape:window-y="34"
     inkscape:window-maximized="1"
     inkscape:showpageshadow="false">
    <inkscape:grid
       type="xygrid"
       id="grid4132" />
    <sodipodi:guide
       position="2,20.000017"
       orientation="18,0"
       id="guide4138" />
    <sodipodi:guide
       position="2,2.0000174"
       orientation="0,18"
       id="guide4140" />
    <sodipodi:guide
       position="20,2.0000174"
       orientation="-18,0"
       id="guide4142" />
    <sodipodi:guide
       position="20,20.000017"
       orientation="0,-18"
       id="guide4144" />
    <sodipodi:guide
       position="3,19.000017"
       orientation="16,0"
       id="guide4146" />
    <sodipodi:guide
       position="3,3.0000174"
       orientation="0,16"
       id="guide4148" />
    <sodipodi:guide
       position="19,19.000017"
       orientation="0,-16"
       id="guide4152" />
  </sodipodi:namedview>
  <metadata
     id="metadata3874">
    <rdf:RDF>
      <cc:Work
         rdf:about="">
        <dc:format>image/svg+xml</dc:format>
        <dc:type
           rdf:resource="http://purl.org/dc/dcmitype/StillImage" />
        <dc:title />
      </cc:Work>
    </rdf:RDF>
  </metadata>
  <g
     inkscape:label="Capa 1"
     inkscape:groupmode="layer"
     id="layer1"
     transform="translate(-326,-534.3622)">
    <path
       inkscape:connector-curvature="0"
       style="fill:#f2f2f2;fill-opacity:1;stroke:none"
       d="m 328.99219,537.3622 v 1 15 h 1 9 v -1 h -9 v -8 h 3 v -0.01 l 0.008,0.01 2,-2 h 8.99219 v 3 h 1 v -6 H 338 l -2,-2 -0.008,0.01 v -0.01 h -6 z"
       id="rect4127"
       sodipodi:nodetypes="cccccccccccccccccccccc" />
    <path
       style="opacity:1;fill:#f2f2f2;fill-opacity:1;stroke:none;stroke-opacity:1"
       d="M 17 12 A 3 1 0 0 0 14 13 L 14 18 A 3 1 0 0 0 17 19 A 3 1 0 0 0 20 18 L 20 13 A 3 1 0 0 0 17 12 z M 17 13 A 3 1 0 0 1 19 13.257812 L 19 13.744141 A 3 1 0 0 1 17 14 A 3 1 0 0 1 15 13.742188 L 15 13.255859 A 3 1 0 0 1 17 13 z M 15 14.744141 A 3 1 0 0 0 17 15 A 3 1 0 0 0 19 14.744141 L 19 15.744141 A 3 1 0 0 1 17 16 A 3 1 0 0 1 15 15.742188 L 15 14.744141 z M 15 16.744141 A 3 1 0 0 0 17 17 A 3 1 0 0 0 19 16.744141 L 19 17.744141 A 3 1 0 0 1 17 18 A 3 1 0 0 1 15 17.742188 L 15 16.744141 z "
       transform="translate(326,534.3622)"
       id="path4203" />
    <path
       style="opacity:1;fill:#f47750;fill-opacity:1;stroke:none;stroke-opacity:1"
       d="M 11 9 C 10.44772 9 10 9.44772 10 10 C 10 10.55228 10.44772 14 11 14 C 11.55228 14 12 10.55228 12 10 C 12 9.44772 11.55228 9 11 9 z M 11 15 A 1 1 0 0 0 10 16 A 1 1 0 0 0 11 17 A 1 1 0 0 0 12 16 A 1 1 0 0 0 11 15 z "
       transform="translate(326,534.3622)"
       id="path4247" />
  </g>
</svg>
