<?xml version="1.0" encoding="UTF-8" standalone="no"?>
<!-- Created with Inkscape (http://www.inkscape.org/) -->

<svg
   xmlns:dc="http://purl.org/dc/elements/1.1/"
   xmlns:cc="http://creativecommons.org/ns#"
   xmlns:rdf="http://www.w3.org/1999/02/22-rdf-syntax-ns#"
   xmlns:svg="http://www.w3.org/2000/svg"
   xmlns="http://www.w3.org/2000/svg"
   xmlns:xlink="http://www.w3.org/1999/xlink"
   xmlns:sodipodi="http://sodipodi.sourceforge.net/DTD/sodipodi-0.dtd"
   xmlns:inkscape="http://www.inkscape.org/namespaces/inkscape"
   width="64"
   height="64"
   id="svg5453"
   version="1.1"
   inkscape:version="0.91 r13725"
   sodipodi:docname="media-flash-memory-stick.svg">
  <defs
     id="defs5455">
    <linearGradient
       gradientTransform="matrix(0,1.0271756,1,0,-499.79799,-395.97889)"
       gradientUnits="userSpaceOnUse"
       y2="537.79797"
       x2="401.07935"
       y1="537.79797"
       x1="432.23273"
       id="linearGradient4158"
       xlink:href="#linearGradient4271"
       inkscape:collect="always" />
    <linearGradient
       id="linearGradient4271"
       inkscape:collect="always">
      <stop
         id="stop4273"
         offset="0"
         style="stop-color:#2a2c2f;stop-opacity:1" />
      <stop
         id="stop4275"
         offset="1"
         style="stop-color:#424649;stop-opacity:1" />
    </linearGradient>
    <linearGradient
       inkscape:collect="always"
       xlink:href="#linearGradient4227"
       id="linearGradient4521"
       x1="23.999987"
       y1="32.000023"
       x2="47.999985"
       y2="56.000023"
       gradientUnits="userSpaceOnUse"
       gradientTransform="translate(362.57144,479.79797)" />
    <linearGradient
       inkscape:collect="always"
       id="linearGradient4227">
      <stop
         style="stop-color:#292c2f;stop-opacity:1"
         offset="0"
         id="stop4229" />
      <stop
         style="stop-color:#000000;stop-opacity:0;"
         offset="1"
         id="stop4231" />
    </linearGradient>
  </defs>
  <sodipodi:namedview
     id="base"
     pagecolor="#ffffff"
     bordercolor="#666666"
     borderopacity="1.0"
     inkscape:pageopacity="0"
     inkscape:pageshadow="2"
     inkscape:zoom="22.8125"
     inkscape:cx="55.407409"
     inkscape:cy="26.161662"
     inkscape:document-units="px"
     inkscape:current-layer="layer1"
     showgrid="true"
     fit-margin-top="0"
     fit-margin-left="0"
     fit-margin-right="0"
     fit-margin-bottom="0"
     inkscape:window-width="1024"
     inkscape:window-height="544"
     inkscape:window-x="0"
     inkscape:window-y="0"
     inkscape:window-maximized="1"
     inkscape:showpageshadow="false"
     borderlayer="true"
     showguides="true">
    <inkscape:grid
       type="xygrid"
       id="grid4063"
       originx="7.9999866px"
       originy="7.9999772px"
       empspacing="2" />
    <sodipodi:guide
       position="0,0"
       orientation="0,64"
       id="guide4196" />
    <sodipodi:guide
       position="64,0"
       orientation="-64,0"
       id="guide4198" />
    <sodipodi:guide
       position="64,64"
       orientation="0,-64"
       id="guide4200" />
    <sodipodi:guide
       position="6,58"
       orientation="52,0"
       id="guide4202" />
    <sodipodi:guide
       position="6,6"
       orientation="0,52"
       id="guide4204" />
    <sodipodi:guide
       position="58,6"
       orientation="-52,0"
       id="guide4206" />
    <sodipodi:guide
       position="58,58"
       orientation="0,-52"
       id="guide4208" />
  </sodipodi:namedview>
  <metadata
     id="metadata5458">
    <rdf:RDF>
      <cc:Work
         rdf:about="">
        <dc:format>image/svg+xml</dc:format>
        <dc:type
           rdf:resource="http://purl.org/dc/dcmitype/StillImage" />
        <dc:title />
      </cc:Work>
    </rdf:RDF>
  </metadata>
  <g
     inkscape:label="Capa 1"
     inkscape:groupmode="layer"
     id="layer1"
     transform="translate(-376.57144,-491.79797)">
    <path
       style="opacity:1;fill:url(#linearGradient4158);fill-opacity:1;stroke:none"
       d="M 6 16 L 6 41 L 13 48 L 21 48 L 23 48 L 28 48 L 30 48 L 58 48 L 58 42.638672 A 4 4 0 0 1 57 40 A 4 4 0 0 1 58 37.361328 L 58 16 L 33 16 L 20 16 L 6 16 z "
       transform="translate(376.57144,491.79797)"
       id="rect4139" />
    <path
       style="opacity:1;fill:#1c1e20;fill-opacity:1;stroke:none;stroke-width:2.79999995;stroke-miterlimit:4;stroke-dasharray:none;stroke-opacity:0.55026455"
       d="M 12 47 L 13 48 L 58 48 L 58 47 L 13 47 L 12 47 z "
       transform="translate(376.57144,491.79797)"
       id="rect4492" />
    <path
       style="opacity:0.2;fill:url(#linearGradient4521);fill-opacity:1;stroke:none"
       d="m 391.27847,511.09094 -1.41406,1.41406 8.05078,8.05078 -0.22461,0.24219 17,17 0.88086,0 0,-8.88086 -13.19531,-13.19531 -3.10352,3.36328 -7.99414,-7.99414 z m -2.14648,6.14648 -2.1211,2.1211 5.5,5.5 -1.35351,1.35351 11.58593,11.58594 6.94922,0 -20.56054,-20.56055 z"
       id="rect4500"
       inkscape:connector-curvature="0" />
    <path
       style="opacity:1;fill:#afc0c6;fill-opacity:1;stroke:none"
       d="m 390.57144,510.79797 c -0.554,0 -1,0.446 -1,1 0,0.554 0.446,1 1,1 0.554,0 1,-0.446 1,-1 0,-0.554 -0.446,-1 -1,-1 z"
       id="path4496"
       inkscape:connector-curvature="0" />
    <path
       style="opacity:1;fill:#afc0c6;fill-opacity:1;stroke:none"
       d="m 397.57144,510.79797 -2,2 3,3 -3,3 2,2 3,-3 2,-2 -5,-5 z"
       id="path4494"
       inkscape:connector-curvature="0" />
    <path
       style="opacity:1;fill:#afc0c6;fill-opacity:1;stroke:none"
       d="m 388.07144,516.79797 c -0.831,0 -1.5,0.669 -1.5,1.5 0,0.831 0.669,1.5 1.5,1.5 0.831,0 1.5,-0.669 1.5,-1.5 0,-0.831 -0.669,-1.5 -1.5,-1.5 z"
       id="path4492"
       inkscape:connector-curvature="0" />
    <path
       style="opacity:1;fill:#afc0c6;fill-opacity:1;stroke:none"
       d="m 392.57144,522.79797 c -1.108,0 -2,0.892 -2,2 0,1.108 0.892,2 2,2 1.108,0 2,-0.892 2,-2 0,-1.108 -0.892,-2 -2,-2 z"
       id="rect4231"
       inkscape:connector-curvature="0" />
    <path
       style="opacity:1;fill:#afc0c6;fill-opacity:1;stroke:none"
       d="m 414.57144,529.79797 0,1 12,0 0,-1 -12,0 z m 0,2 0,1 18,0 0,-1 -18,0 z m 0,2 0,1 8,0 0,-1 -8,0 z m 0,2 0,1 5,0 0,-1 -5,0 z"
       id="rect4604"
       inkscape:connector-curvature="0" />
    <path
       style="opacity:1;fill:#afc0c6;fill-opacity:1;stroke:none"
       d="m 391.57144,532.79797 0,1 5,0 0,-1 -5,0 z m 0,2 0,1 2,0 0,-1 -2,0 z"
       id="rect4618"
       inkscape:connector-curvature="0" />
    <path
       style="fill:#dfe6e8;fill-opacity:1;fill-rule:evenodd;stroke:none;stroke-width:1px;stroke-linecap:butt;stroke-linejoin:miter;stroke-opacity:1"
       d="m 432.57144,511.79799 -1.00001,0.99998 -0.99999,-0.99998 z"
       id="path4616"
       inkscape:connector-curvature="0"
       sodipodi:nodetypes="cccc" />
  </g>
</svg>
