<?xml version="1.0" encoding="UTF-8" standalone="no"?>
<!-- Created with Inkscape (http://www.inkscape.org/) -->

<svg
   xmlns:dc="http://purl.org/dc/elements/1.1/"
   xmlns:cc="http://creativecommons.org/ns#"
   xmlns:rdf="http://www.w3.org/1999/02/22-rdf-syntax-ns#"
   xmlns:svg="http://www.w3.org/2000/svg"
   xmlns="http://www.w3.org/2000/svg"
   xmlns:sodipodi="http://sodipodi.sourceforge.net/DTD/sodipodi-0.dtd"
   xmlns:inkscape="http://www.inkscape.org/namespaces/inkscape"
   width="22"
   height="22"
   viewBox="0 0 5.8208332 5.8208335"
   id="svg2"
   version="1.1"
   inkscape:version="0.91+devel r"
   sodipodi:docname="face-sleeping.svg">
  <defs
     id="defs4" />
  <sodipodi:namedview
     id="base"
     pagecolor="#ffffff"
     bordercolor="#666666"
     borderopacity="1.0"
     inkscape:pageopacity="0.0"
     inkscape:pageshadow="2"
     inkscape:zoom="22.627417"
     inkscape:cx="12.60351"
     inkscape:cy="13.377471"
     inkscape:document-units="px"
     inkscape:current-layer="layer1"
     showgrid="true"
     inkscape:window-width="1366"
     inkscape:window-height="670"
     inkscape:window-x="-4"
     inkscape:window-y="29"
     inkscape:window-maximized="1"
     units="px"
     inkscape:showpageshadow="false"
     borderlayer="true">
    <inkscape:grid
       type="xygrid"
       id="grid4160" />
    <sodipodi:guide
       position="-6.2596835e-15,5.8208248"
       orientation="21.999992,0"
       id="guide4164" />
    <sodipodi:guide
       position="-6.2596835e-15,-6.4613886e-06"
       orientation="0,22"
       id="guide4166" />
    <sodipodi:guide
       position="5.8208331,-6.4613886e-06"
       orientation="-21.999992,0"
       id="guide4168" />
    <sodipodi:guide
       position="5.8208331,5.8208248"
       orientation="0,-22"
       id="guide4170" />
    <sodipodi:guide
       position="0.52916662,5.29165"
       orientation="18.000046,0"
       id="guide4176" />
    <sodipodi:guide
       position="0.52916662,0.52913782"
       orientation="0,18"
       id="guide4178" />
    <sodipodi:guide
       position="5.2916665,0.52913782"
       orientation="-18.000046,0"
       id="guide4180" />
    <sodipodi:guide
       position="5.2916665,5.29165"
       orientation="0,-18"
       id="guide4182" />
    <sodipodi:guide
       position="0.52916662,1.3229305"
       orientation="3.0001614,0"
       id="guide4239" />
    <sodipodi:guide
       position="0.52916662,0.52913782"
       orientation="0,18"
       id="guide4241" />
    <sodipodi:guide
       position="5.2916665,0.52913782"
       orientation="-3.0001614,0"
       id="guide4243" />
    <sodipodi:guide
       position="5.2916665,1.3229305"
       orientation="0,-18"
       id="guide4245" />
    <sodipodi:guide
       position="0.52916662,5.2916805"
       orientation="4.9999614,0"
       id="guide4249" />
    <sodipodi:guide
       position="0.52916662,3.968774"
       orientation="0,18"
       id="guide4251" />
    <sodipodi:guide
       position="5.2916665,3.968774"
       orientation="-4.9999614,0"
       id="guide4253" />
    <sodipodi:guide
       position="5.2916665,5.2916805"
       orientation="0,-18"
       id="guide4255" />
  </sodipodi:namedview>
  <metadata
     id="metadata7">
    <rdf:RDF>
      <cc:Work
         rdf:about="">
        <dc:format>image/svg+xml</dc:format>
        <dc:type
           rdf:resource="http://purl.org/dc/dcmitype/StillImage" />
        <dc:title />
      </cc:Work>
    </rdf:RDF>
  </metadata>
  <g
     inkscape:label="Capa 1"
     inkscape:groupmode="layer"
     id="layer1"
     transform="translate(0,-291.17916)">
    <rect
       style="opacity:1;fill:#fdd583;fill-opacity:1;stroke:none"
       id="rect4152"
       width="5.291667"
       height="4.7625122"
       x="0.26458308"
       y="291.70834"
       ry="2.1166508" />
    <path
       inkscape:connector-curvature="0"
       style="opacity:1;fill:#8f5315;fill-opacity:1;stroke:none"
       d="m 4.1010419,294.88332 a 0.39687501,0.39687501 0 0 0 0.396875,-0.39688 0.39687501,0.39687501 0 0 0 -0.023254,-0.13229 0.39687501,0.39687501 0 0 1 -0.3736205,0.26459 0.39687501,0.39687501 0 0 1 -0.3736206,-0.26459 0.39687501,0.39687501 0 0 0 -0.023254,0.13229 0.39687501,0.39687501 0 0 0 0.3968751,0.39688 z"
       id="path4184" />
    <path
       id="path4231"
       d="m 1.7197912,294.88331 a 0.39687501,0.39687501 0 0 0 0.3968753,-0.39687 0.39687501,0.39687501 0 0 0 -0.023254,-0.13229 0.39687501,0.39687501 0 0 1 -0.3736206,0.26458 0.39687501,0.39687501 0 0 1 -0.3736205,-0.26458 0.39687501,0.39687501 0 0 0 -0.023254,0.13229 0.39687501,0.39687501 0 0 0 0.3968747,0.39687 z"
       style="opacity:1;fill:#8f5315;fill-opacity:1;stroke:none"
       inkscape:connector-curvature="0" />
    <path
       style="opacity:1;fill:#1aa3de;fill-opacity:1;stroke:none;stroke-width:3.77952743;stroke-linecap:butt;stroke-linejoin:miter;stroke-miterlimit:4;stroke-dasharray:none;stroke-dashoffset:0;stroke-opacity:1"
       d="m 2.9104165,295.8407 c -1.7e-6,0.1323 -1.3228734,0.21009 -1.3228795,-0.26457 -3.72e-5,-0.16388 0.1765522,-0.32853 0.387937,-0.16364 0.018266,0.0184 0.036608,0.036 0.055017,0.0528 0.022598,0.0206 0.045296,0.0399 0.068078,0.0582 0.037242,0.0298 0.074707,0.0566 0.1123192,0.0808 0.2335156,0.14998 0.4727189,0.1984 0.6995284,0.2365 z"
       id="path3362"
       inkscape:connector-curvature="0"
       sodipodi:nodetypes="cccssscc" />
    <path
       style="opacity:1;fill:#8f5315;fill-opacity:1;stroke:none;stroke-width:3.77952743;stroke-linecap:butt;stroke-linejoin:miter;stroke-miterlimit:4;stroke-dasharray:none;stroke-dashoffset:0;stroke-opacity:1"
       d="M 17 2 L 17 3 L 20.478516 3 L 17 5.9921875 L 17 6 L 17 7 L 17.359375 7 L 22 7 L 22 6 L 18.521484 6 L 22 3.0097656 L 22 2 L 17 2 z M 12 4 L 12 5 L 14.421875 5 L 12 6.9824219 L 12 7 L 12 8 L 12.337891 8 L 16 8 L 16 7 L 13.558594 7 L 16 5.0019531 L 16 5 L 16 4 L 12 4 z "
       transform="matrix(0.26458334,0,0,0.26458334,-2.5232634e-7,291.17916)"
       id="rect4190" />
  </g>
</svg>
