<?xml version="1.0" encoding="UTF-8" standalone="no"?>
<!-- Created with Inkscape (http://www.inkscape.org/) -->

<svg
   xmlns:dc="http://purl.org/dc/elements/1.1/"
   xmlns:cc="http://creativecommons.org/ns#"
   xmlns:rdf="http://www.w3.org/1999/02/22-rdf-syntax-ns#"
   xmlns:svg="http://www.w3.org/2000/svg"
   xmlns="http://www.w3.org/2000/svg"
   xmlns:sodipodi="http://sodipodi.sourceforge.net/DTD/sodipodi-0.dtd"
   xmlns:inkscape="http://www.inkscape.org/namespaces/inkscape"
   width="22"
   height="22"
   viewBox="0 0 5.8208332 5.8208335"
   id="svg2"
   version="1.1"
   inkscape:version="0.91+devel r"
   sodipodi:docname="face-laugh.svg">
  <defs
     id="defs4" />
  <sodipodi:namedview
     id="base"
     pagecolor="#ffffff"
     bordercolor="#666666"
     borderopacity="1.0"
     inkscape:pageopacity="0.0"
     inkscape:pageshadow="2"
     inkscape:zoom="32.526912"
     inkscape:cx="10.516459"
     inkscape:cy="10.493061"
     inkscape:document-units="px"
     inkscape:current-layer="layer1"
     showgrid="true"
     inkscape:window-width="1366"
     inkscape:window-height="670"
     inkscape:window-x="-4"
     inkscape:window-y="29"
     inkscape:window-maximized="1"
     units="px"
     inkscape:showpageshadow="false"
     borderlayer="true">
    <inkscape:grid
       type="xygrid"
       id="grid4160" />
    <sodipodi:guide
       position="-6.2596835e-15,5.8208248"
       orientation="21.999992,0"
       id="guide4164" />
    <sodipodi:guide
       position="-6.2596835e-15,-6.4613886e-06"
       orientation="0,22"
       id="guide4166" />
    <sodipodi:guide
       position="5.8208331,-6.4613886e-06"
       orientation="-21.999992,0"
       id="guide4168" />
    <sodipodi:guide
       position="5.8208331,5.8208248"
       orientation="0,-22"
       id="guide4170" />
    <sodipodi:guide
       position="0.52916662,5.29165"
       orientation="18.000046,0"
       id="guide4176" />
    <sodipodi:guide
       position="0.52916662,0.52913782"
       orientation="0,18"
       id="guide4178" />
    <sodipodi:guide
       position="5.2916665,0.52913782"
       orientation="-18.000046,0"
       id="guide4180" />
    <sodipodi:guide
       position="5.2916665,5.29165"
       orientation="0,-18"
       id="guide4182" />
    <sodipodi:guide
       position="0.52916662,1.3229305"
       orientation="3.0001614,0"
       id="guide4239" />
    <sodipodi:guide
       position="0.52916662,0.52913782"
       orientation="0,18"
       id="guide4241" />
    <sodipodi:guide
       position="5.2916665,0.52913782"
       orientation="-3.0001614,0"
       id="guide4243" />
    <sodipodi:guide
       position="5.2916665,1.3229305"
       orientation="0,-18"
       id="guide4245" />
    <sodipodi:guide
       position="0.52916662,5.2916805"
       orientation="4.9999614,0"
       id="guide4249" />
    <sodipodi:guide
       position="0.52916662,3.968774"
       orientation="0,18"
       id="guide4251" />
    <sodipodi:guide
       position="5.2916665,3.968774"
       orientation="-4.9999614,0"
       id="guide4253" />
    <sodipodi:guide
       position="5.2916665,5.2916805"
       orientation="0,-18"
       id="guide4255" />
  </sodipodi:namedview>
  <metadata
     id="metadata7">
    <rdf:RDF>
      <cc:Work
         rdf:about="">
        <dc:format>image/svg+xml</dc:format>
        <dc:type
           rdf:resource="http://purl.org/dc/dcmitype/StillImage" />
        <dc:title />
      </cc:Work>
    </rdf:RDF>
  </metadata>
  <g
     inkscape:label="Capa 1"
     inkscape:groupmode="layer"
     id="layer1"
     transform="translate(0,-291.17916)">
    <rect
       style="opacity:1;fill:#fdd583;fill-opacity:1;stroke:none"
       id="rect4152"
       width="5.291667"
       height="4.7625122"
       x="0.26458308"
       y="291.70834"
       ry="2.1166508" />
    <path
       inkscape:connector-curvature="0"
       style="opacity:1;fill:#8f5315;fill-opacity:1;stroke:none"
       d="m 1.7197914,293.03124 a 0.39687501,0.39687501 0 0 0 -0.396875,0.39688 0.39687501,0.39687501 0 0 0 0.023254,0.13229 0.39687501,0.39687501 0 0 1 0.3736206,-0.26459 0.39687501,0.39687501 0 0 1 0.3736207,0.26459 0.39687501,0.39687501 0 0 0 0.023254,-0.13229 0.39687501,0.39687501 0 0 0 -0.396875,-0.39688 z"
       id="path4184" />
    <path
       id="path4231"
       d="m 4.1010421,293.03125 a 0.39687501,0.39687501 0 0 0 -0.3968753,0.39687 0.39687501,0.39687501 0 0 0 0.023254,0.13229 0.39687501,0.39687501 0 0 1 0.3736206,-0.26458 0.39687501,0.39687501 0 0 1 0.3736206,0.26458 0.39687501,0.39687501 0 0 0 0.023254,-0.13229 0.39687501,0.39687501 0 0 0 -0.3968747,-0.39687 z"
       style="opacity:1;fill:#8f5315;fill-opacity:1;stroke:none"
       inkscape:connector-curvature="0" />
    <path
       style="opacity:1;fill:#ea5756;fill-opacity:1;stroke:none;stroke-width:3.77952743;stroke-linecap:butt;stroke-linejoin:miter;stroke-miterlimit:4;stroke-dasharray:none;stroke-dashoffset:0;stroke-opacity:1"
       d="M 6 13 C 6 15.216003 7.7839967 17 10 17 L 12 17 C 14.216003 17 16 15.216003 16 13 L 6 13 z "
       transform="matrix(0.26458334,0,0,0.26458334,-2.5232634e-7,291.17916)"
       id="rect4167" />
    <path
       style="opacity:1;fill:#f37b7a;fill-opacity:1;stroke:none;stroke-width:3.77952743;stroke-linecap:butt;stroke-linejoin:miter;stroke-miterlimit:4;stroke-dasharray:none;stroke-dashoffset:0;stroke-opacity:1"
       d="M 11 15 A 2 1.5 0 0 0 9 16.5 A 2 1.5 0 0 0 9.0664062 16.880859 C 9.3669408 16.952515 9.6769085 17 10 17 L 12 17 C 12.322232 17 12.631835 16.954099 12.931641 16.882812 A 2 1.5 0 0 0 13 16.5 A 2 1.5 0 0 0 11 15 z "
       transform="matrix(0.26458334,0,0,0.26458334,-2.5232634e-7,291.17916)"
       id="path4172" />
  </g>
</svg>
