<?xml version="1.0" encoding="UTF-8" standalone="no"?>
<!-- Created with Inkscape (http://www.inkscape.org/) -->

<svg
   xmlns:dc="http://purl.org/dc/elements/1.1/"
   xmlns:cc="http://creativecommons.org/ns#"
   xmlns:rdf="http://www.w3.org/1999/02/22-rdf-syntax-ns#"
   xmlns:svg="http://www.w3.org/2000/svg"
   xmlns="http://www.w3.org/2000/svg"
   xmlns:sodipodi="http://sodipodi.sourceforge.net/DTD/sodipodi-0.dtd"
   xmlns:inkscape="http://www.inkscape.org/namespaces/inkscape"
   width="22"
   height="22"
   viewBox="0 0 5.8208332 5.8208335"
   id="svg2"
   version="1.1"
   inkscape:version="0.91+devel r"
   sodipodi:docname="face-sick.svg">
  <defs
     id="defs4" />
  <sodipodi:namedview
     id="base"
     pagecolor="#ffffff"
     bordercolor="#666666"
     borderopacity="1.0"
     inkscape:pageopacity="0.0"
     inkscape:pageshadow="2"
     inkscape:zoom="32"
     inkscape:cx="12.581082"
     inkscape:cy="8.4946552"
     inkscape:document-units="px"
     inkscape:current-layer="layer1"
     showgrid="true"
     inkscape:window-width="1366"
     inkscape:window-height="670"
     inkscape:window-x="-4"
     inkscape:window-y="29"
     inkscape:window-maximized="1"
     units="px"
     inkscape:showpageshadow="false"
     borderlayer="true"
     showguides="true">
    <inkscape:grid
       type="xygrid"
       id="grid4160" />
    <sodipodi:guide
       position="-6.2596835e-15,5.8208248"
       orientation="21.999992,0"
       id="guide4164" />
    <sodipodi:guide
       position="-6.2596835e-15,-6.4613886e-06"
       orientation="0,22"
       id="guide4166" />
    <sodipodi:guide
       position="5.8208331,-6.4613886e-06"
       orientation="-21.999992,0"
       id="guide4168" />
    <sodipodi:guide
       position="5.8208331,5.8208248"
       orientation="0,-22"
       id="guide4170" />
    <sodipodi:guide
       position="0.52916662,5.29165"
       orientation="18.000046,0"
       id="guide4176" />
    <sodipodi:guide
       position="0.52916662,0.52913782"
       orientation="0,18"
       id="guide4178" />
    <sodipodi:guide
       position="5.2916665,0.52913782"
       orientation="-18.000046,0"
       id="guide4180" />
    <sodipodi:guide
       position="5.2916665,5.29165"
       orientation="0,-18"
       id="guide4182" />
    <sodipodi:guide
       position="0.52916662,1.3229305"
       orientation="3.0001614,0"
       id="guide4239" />
    <sodipodi:guide
       position="0.52916662,0.52913782"
       orientation="0,18"
       id="guide4241" />
    <sodipodi:guide
       position="5.2916665,0.52913782"
       orientation="-3.0001614,0"
       id="guide4243" />
    <sodipodi:guide
       position="5.2916665,1.3229305"
       orientation="0,-18"
       id="guide4245" />
    <sodipodi:guide
       position="0.52916662,5.2916805"
       orientation="4.9999614,0"
       id="guide4249" />
    <sodipodi:guide
       position="0.52916662,3.968774"
       orientation="0,18"
       id="guide4251" />
    <sodipodi:guide
       position="5.2916665,3.968774"
       orientation="-4.9999614,0"
       id="guide4253" />
    <sodipodi:guide
       position="5.2916665,5.2916805"
       orientation="0,-18"
       id="guide4255" />
  </sodipodi:namedview>
  <metadata
     id="metadata7">
    <rdf:RDF>
      <cc:Work
         rdf:about="">
        <dc:format>image/svg+xml</dc:format>
        <dc:type
           rdf:resource="http://purl.org/dc/dcmitype/StillImage" />
        <dc:title />
      </cc:Work>
    </rdf:RDF>
  </metadata>
  <g
     inkscape:label="Capa 1"
     inkscape:groupmode="layer"
     id="layer1"
     transform="translate(0,-291.17916)">
    <rect
       style="opacity:1;fill:#c5daa2;fill-opacity:1;stroke:none"
       id="rect4152"
       width="5.291667"
       height="4.7625122"
       x="0.26458308"
       y="291.70834"
       ry="2.1166508" />
    <path
       style="opacity:1;fill:#404046;fill-opacity:1;stroke:none"
       d="m 1.3387874,293.3345 a 0.39688697,0.39687501 60 0 0 0.037078,0.30917 0.39688697,0.39687501 60 0 0 0.5421414,0.14526 0.39688697,0.39687501 60 0 0 0.1452674,-0.54214 0.39688697,0.39687501 60 0 0 -0.060279,-0.0786 l -0.6642054,0.16628 z"
       id="path4229"
       inkscape:connector-curvature="0" />
    <path
       style="opacity:1;fill:#404046;fill-opacity:1;stroke:none"
       d="m 4.4818203,293.3248 -0.6646531,-0.16654 a 0.39687501,0.39688697 30 0 0 -0.059833,0.0788 0.39687501,0.39688697 30 0 0 0.1452663,0.54214 0.39687501,0.39688697 30 0 0 0.5421414,-0.14527 0.39687501,0.39688697 30 0 0 0.037079,-0.30916 z"
       id="ellipse4233"
       inkscape:connector-curvature="0" />
    <path
       style="opacity:1;fill:#404046;fill-opacity:1;stroke:none"
       d="M 10.994141 13 A 4.0000009 6.4999732 0 0 0 8.6757812 14.220703 A 3 1.9999478 0 0 0 7 13.234375 L 7 13.630859 A 3 1.9999478 0 0 1 8 15.115234 A 3 1.9999478 0 0 1 7 16.603516 L 7 17 A 3 1.9999478 0 0 0 9 15.117188 A 3 1.9999478 0 0 0 8.96875 14.847656 A 4.0000001 6 0 0 1 10.998047 14 A 4.0000001 6 0 0 1 13.03125 14.847656 A 3 1.9999478 0 0 0 13 15.117188 A 3 1.9999478 0 0 0 15 17 L 15 16.603516 A 3 1.9999478 0 0 1 14 15.115234 A 3 1.9999478 0 0 1 15 13.630859 L 15 13.234375 A 3 1.9999478 0 0 0 13.324219 14.21875 A 4.0000009 6.4999732 0 0 0 10.998047 13 A 4.0000009 6.4999732 0 0 0 10.994141 13 z "
       transform="matrix(0.26458334,0,0,0.26458334,-2.5232634e-7,291.17916)"
       id="path4233" />
  </g>
</svg>
