<?xml version="1.0" encoding="UTF-8" standalone="no"?>
<!-- Created with Inkscape (http://www.inkscape.org/) -->

<svg
   xmlns:dc="http://purl.org/dc/elements/1.1/"
   xmlns:cc="http://creativecommons.org/ns#"
   xmlns:rdf="http://www.w3.org/1999/02/22-rdf-syntax-ns#"
   xmlns:svg="http://www.w3.org/2000/svg"
   xmlns="http://www.w3.org/2000/svg"
   xmlns:sodipodi="http://sodipodi.sourceforge.net/DTD/sodipodi-0.dtd"
   xmlns:inkscape="http://www.inkscape.org/namespaces/inkscape"
   width="22"
   height="22"
   viewBox="0 0 5.8208332 5.8208335"
   id="svg2"
   version="1.1"
   inkscape:version="0.91+devel r"
   sodipodi:docname="face-worried.svg">
  <defs
     id="defs4" />
  <sodipodi:namedview
     id="base"
     pagecolor="#ffffff"
     bordercolor="#666666"
     borderopacity="1.0"
     inkscape:pageopacity="0.0"
     inkscape:pageshadow="2"
     inkscape:zoom="45.254834"
     inkscape:cx="10.391739"
     inkscape:cy="12.23659"
     inkscape:document-units="px"
     inkscape:current-layer="layer1"
     showgrid="true"
     inkscape:window-width="1366"
     inkscape:window-height="670"
     inkscape:window-x="-4"
     inkscape:window-y="29"
     inkscape:window-maximized="1"
     units="px"
     inkscape:showpageshadow="false"
     borderlayer="true">
    <inkscape:grid
       type="xygrid"
       id="grid4160" />
    <sodipodi:guide
       position="-6.2596835e-15,5.8208248"
       orientation="21.999992,0"
       id="guide4164" />
    <sodipodi:guide
       position="-6.2596835e-15,-6.4613886e-06"
       orientation="0,22"
       id="guide4166" />
    <sodipodi:guide
       position="5.8208331,-6.4613886e-06"
       orientation="-21.999992,0"
       id="guide4168" />
    <sodipodi:guide
       position="5.8208331,5.8208248"
       orientation="0,-22"
       id="guide4170" />
    <sodipodi:guide
       position="0.52916662,5.29165"
       orientation="18.000046,0"
       id="guide4176" />
    <sodipodi:guide
       position="0.52916662,0.52913782"
       orientation="0,18"
       id="guide4178" />
    <sodipodi:guide
       position="5.2916665,0.52913782"
       orientation="-18.000046,0"
       id="guide4180" />
    <sodipodi:guide
       position="5.2916665,5.29165"
       orientation="0,-18"
       id="guide4182" />
    <sodipodi:guide
       position="0.52916662,1.3229305"
       orientation="3.0001614,0"
       id="guide4239" />
    <sodipodi:guide
       position="0.52916662,0.52913782"
       orientation="0,18"
       id="guide4241" />
    <sodipodi:guide
       position="5.2916665,0.52913782"
       orientation="-3.0001614,0"
       id="guide4243" />
    <sodipodi:guide
       position="5.2916665,1.3229305"
       orientation="0,-18"
       id="guide4245" />
    <sodipodi:guide
       position="0.52916662,5.2916805"
       orientation="4.9999614,0"
       id="guide4249" />
    <sodipodi:guide
       position="0.52916662,3.968774"
       orientation="0,18"
       id="guide4251" />
    <sodipodi:guide
       position="5.2916665,3.968774"
       orientation="-4.9999614,0"
       id="guide4253" />
    <sodipodi:guide
       position="5.2916665,5.2916805"
       orientation="0,-18"
       id="guide4255" />
  </sodipodi:namedview>
  <metadata
     id="metadata7">
    <rdf:RDF>
      <cc:Work
         rdf:about="">
        <dc:format>image/svg+xml</dc:format>
        <dc:type
           rdf:resource="http://purl.org/dc/dcmitype/StillImage" />
        <dc:title />
      </cc:Work>
    </rdf:RDF>
  </metadata>
  <g
     inkscape:label="Capa 1"
     inkscape:groupmode="layer"
     id="layer1"
     transform="translate(0,-291.17916)">
    <rect
       style="opacity:1;fill:#fdd583;fill-opacity:1;stroke:none"
       id="rect4152"
       width="5.291667"
       height="4.7625122"
       x="0.26458308"
       y="291.70834"
       ry="2.1166508" />
    <path
       style="fill:#8f5315;fill-opacity:1"
       d="m 3.4104871,295.67408 c -0.152608,-0.013 -0.3309884,-0.065 -0.6323546,-0.18443 -0.1939884,-0.0769 -0.2622895,-0.0985 -0.347757,-0.11056 -0.078728,-0.0112 -0.1290553,-0.01 -0.1851005,0.0149 -0.076835,0.0308 -0.121315,0.10189 -0.1351673,0.21716 l -0.00631,0.0659 -0.125857,0 -0.1258571,0 3e-5,-0.0614 c 5.57e-5,-0.114 0.037043,-0.22252 0.103262,-0.3031 0.026166,-0.0319 0.083279,-0.0793 0.1200525,-0.0997 0.037668,-0.0209 0.1058681,-0.0451 0.1556597,-0.0551 0.066175,-0.0132 0.1973681,-0.0131 0.2747994,2e-5 0.1178289,0.0207 0.2447772,0.0613 0.5130087,0.16567 0.2361101,0.0918 0.3420788,0.11952 0.4577296,0.1198 0.061055,2e-4 0.068496,-6.6e-4 0.096678,-0.0112 0.053616,-0.0205 0.095394,-0.064 0.1183528,-0.12332 0.010332,-0.0269 0.023026,-0.0957 0.023063,-0.12527 l 3e-5,-0.0355 0.1270002,0 0.1270001,0 -4.2e-5,0.0569 c -4.8e-5,0.0512 -0.00686,0.10694 -0.018752,0.15353 -0.042686,0.16721 -0.1672307,0.27585 -0.3536576,0.30843 -0.037608,0.01 -0.1458081,0.0109 -0.1858194,0.01 z"
       id="path4202"
       inkscape:connector-curvature="0"
       sodipodi:nodetypes="csssscccsssscsscscccccsscc" />
    <path
       style="opacity:1;fill:#8f5315;fill-opacity:1;stroke:none"
       d="m 1.3387874,293.3345 a 0.39688697,0.39687501 60 0 0 0.037078,0.30917 0.39688697,0.39687501 60 0 0 0.5421414,0.14526 0.39688697,0.39687501 60 0 0 0.1452674,-0.54214 0.39688697,0.39687501 60 0 0 -0.060279,-0.0786 l -0.6642054,0.16628 z"
       id="path4229"
       inkscape:connector-curvature="0" />
    <path
       style="opacity:1;fill:#8f5315;fill-opacity:1;stroke:none"
       d="m 4.4818204,293.3248 -0.6646532,-0.16654 a 0.39687501,0.39688697 30 0 0 -0.059833,0.0788 0.39687501,0.39688697 30 0 0 0.1452663,0.54214 0.39687501,0.39688697 30 0 0 0.5421414,-0.14527 0.39687501,0.39688697 30 0 0 0.037079,-0.30916 z"
       id="ellipse4233"
       inkscape:connector-curvature="0" />
  </g>
</svg>
