<?xml version="1.0" encoding="UTF-8" standalone="no"?>
<!-- Created with Inkscape (http://www.inkscape.org/) -->

<svg
   xmlns:dc="http://purl.org/dc/elements/1.1/"
   xmlns:cc="http://creativecommons.org/ns#"
   xmlns:rdf="http://www.w3.org/1999/02/22-rdf-syntax-ns#"
   xmlns:svg="http://www.w3.org/2000/svg"
   xmlns="http://www.w3.org/2000/svg"
   xmlns:sodipodi="http://sodipodi.sourceforge.net/DTD/sodipodi-0.dtd"
   xmlns:inkscape="http://www.inkscape.org/namespaces/inkscape"
   width="22"
   height="22"
   id="svg3760"
   version="1.1"
   inkscape:version="0.91+devel r"
   sodipodi:docname="audio-volume-low.svg">
  <defs
     id="defs3762" />
  <sodipodi:namedview
     id="base"
     pagecolor="#ffffff"
     bordercolor="#666666"
     borderopacity="1.0"
     inkscape:pageopacity="0.0"
     inkscape:pageshadow="2"
     inkscape:zoom="22.627417"
     inkscape:cx="5.7124348"
     inkscape:cy="10.455408"
     inkscape:document-units="px"
     inkscape:current-layer="layer1"
     showgrid="true"
     fit-margin-top="0"
     fit-margin-left="0"
     fit-margin-right="0"
     fit-margin-bottom="0"
     inkscape:window-width="1366"
     inkscape:window-height="670"
     inkscape:window-x="-4"
     inkscape:window-y="29"
     inkscape:window-maximized="1"
     inkscape:showpageshadow="false"
     showguides="true">
    <inkscape:grid
       type="xygrid"
       id="grid4106"
       originx="-0.99998557px"
       originy="-1.0000252px" />
    <sodipodi:guide
       position="2.00001,19.99997"
       orientation="0,18"
       id="guide4229" />
    <sodipodi:guide
       position="20.00001,19.99997"
       orientation="18,0"
       id="guide4231" />
    <sodipodi:guide
       position="20.00001,1.99997"
       orientation="0,-18"
       id="guide4233" />
    <sodipodi:guide
       position="2.00001,1.99997"
       orientation="-18,0"
       id="guide4235" />
    <sodipodi:guide
       position="19.00001,2.99997"
       orientation="0,-16"
       id="guide4241" />
    <sodipodi:guide
       position="2.9999956,18.999992"
       orientation="6,0"
       id="guide4155" />
    <sodipodi:guide
       position="18.999996,12.999992"
       orientation="-6,0"
       id="guide4167" />
    <sodipodi:guide
       position="18.999996,18.999992"
       orientation="0,-6"
       id="guide4169" />
  </sodipodi:namedview>
  <metadata
     id="metadata3765">
    <rdf:RDF>
      <cc:Work
         rdf:about="">
        <dc:format>image/svg+xml</dc:format>
        <dc:type
           rdf:resource="http://purl.org/dc/dcmitype/StillImage" />
        <dc:title />
      </cc:Work>
    </rdf:RDF>
  </metadata>
  <g
     inkscape:label="Capa 1"
     inkscape:groupmode="layer"
     id="layer1"
     transform="translate(-551.28571,-607.64788)">
    <path
       style="opacity:1;fill:#4d4d4d;fill-opacity:1;stroke:none;stroke-width:2.79999995;stroke-miterlimit:4;stroke-dasharray:none;stroke-opacity:0.55026455"
       d="M 10.988281 3 L 6 6.9960938 L 6 8 L 6 15 L 6 15.003906 L 10.988281 19 L 11 19 L 12 19 L 12 18.529297 L 12 3.4707031 L 12 3 L 11 3 L 10.988281 3 z M 11 4.2714844 L 11 17.728516 L 7 14.523438 L 7 7.4765625 L 11 4.2714844 z M 3 8 L 3 14 L 5 14 L 5 8 L 3 8 z "
       transform="translate(551.28571,607.64788)"
       id="path4151" />
    <path
       style="opacity:0.5;fill:#4d4d4d;fill-opacity:1;stroke:none;stroke-width:2.79999995;stroke-miterlimit:4;stroke-dasharray:none;stroke-opacity:0.55026455"
       d="m 568.31501,612.07757 -0.77149,0.63086 a 11.000019,11 0 0 1 1.74219,5.93945 11.000019,11 0 0 1 -1.75,5.93164 l 0.7832,0.64258 a 12.000019,11.999998 0 0 0 1.9668,-6.57422 12.000019,11.999998 0 0 0 -1.9707,-6.57031 z"
       id="path4147" />
    <path
       style="opacity:0.5;fill:#4d4d4d;fill-opacity:1;stroke:none;stroke-width:2.79999995;stroke-miterlimit:4;stroke-dasharray:none;stroke-opacity:0.55026455"
       d="m 565.97516,613.99358 -0.78125,0.63867 a 8.000012,7.9999986 0 0 1 1.0918,4.01563 8.000012,7.9999986 0 0 1 -1.08984,4.01758 l 0.78125,0.64062 a 9.0000135,8.9999984 0 0 0 1.30859,-4.6582 9.0000135,8.9999984 0 0 0 -1.31055,-4.6543 z"
       id="path4145" />
  </g>
</svg>
