<?xml version="1.0" encoding="UTF-8" standalone="no"?>
<!-- Created with Inkscape (http://www.inkscape.org/) -->

<svg
   xmlns:dc="http://purl.org/dc/elements/1.1/"
   xmlns:cc="http://creativecommons.org/ns#"
   xmlns:rdf="http://www.w3.org/1999/02/22-rdf-syntax-ns#"
   xmlns:svg="http://www.w3.org/2000/svg"
   xmlns="http://www.w3.org/2000/svg"
   xmlns:sodipodi="http://sodipodi.sourceforge.net/DTD/sodipodi-0.dtd"
   xmlns:inkscape="http://www.inkscape.org/namespaces/inkscape"
   width="22"
   height="22"
   id="svg4355"
   version="1.1"
   inkscape:version="0.91 r13725"
   sodipodi:docname="adjustlevels.svg">
  <defs
     id="defs4357">
    <clipPath
       id="clipPath4160"
       clipPathUnits="userSpaceOnUse">
      <rect
         y="1023.3622"
         x="7"
         height="1"
         width="1"
         id="rect4162"
         style="opacity:1;fill:#f2f2f2;fill-opacity:1;stroke:none;stroke-opacity:1" />
    </clipPath>
  </defs>
  <sodipodi:namedview
     id="base"
     pagecolor="#ffffff"
     bordercolor="#666666"
     borderopacity="1.0"
     inkscape:pageopacity="0.0"
     inkscape:pageshadow="2"
     inkscape:zoom="23.414198"
     inkscape:cx="3.5877535"
     inkscape:cy="10.608276"
     inkscape:document-units="px"
     inkscape:current-layer="layer1"
     showgrid="true"
     width="0px"
     height="0px"
     fit-margin-top="0"
     fit-margin-left="0"
     fit-margin-right="0"
     fit-margin-bottom="0"
     inkscape:window-width="1366"
     inkscape:window-height="709"
     inkscape:window-x="-4"
     inkscape:window-y="0"
     inkscape:window-maximized="1"
     inkscape:showpageshadow="false"
     inkscape:snap-bbox="true"
     inkscape:snap-global="true"
     inkscape:object-nodes="true"
     showguides="true"
     inkscape:guide-bbox="true">
    <inkscape:grid
       type="xygrid"
       id="grid4114" />
    <sodipodi:guide
       position="2,13"
       orientation="18,0"
       id="guide4120" />
    <sodipodi:guide
       position="2.0000011,1.9999962"
       orientation="0,18"
       id="guide4122" />
    <sodipodi:guide
       position="20.000001,1.9999962"
       orientation="-18,0"
       id="guide4124" />
    <sodipodi:guide
       position="3,6"
       orientation="16,0"
       id="guide4128" />
    <sodipodi:guide
       position="3.0000011,2.9999962"
       orientation="0,16"
       id="guide4130" />
    <sodipodi:guide
       position="6,19"
       orientation="0,-16"
       id="guide4134" />
    <sodipodi:guide
       position="19,11"
       orientation="1,0"
       id="guide4431" />
  </sodipodi:namedview>
  <metadata
     id="metadata4360">
    <rdf:RDF>
      <cc:Work
         rdf:about="">
        <dc:format>image/svg+xml</dc:format>
        <dc:type
           rdf:resource="http://purl.org/dc/dcmitype/StillImage" />
        <dc:title />
      </cc:Work>
    </rdf:RDF>
  </metadata>
  <g
     inkscape:label="Capa 1"
     inkscape:groupmode="layer"
     id="layer1"
     transform="translate(-544.57141,-742.93359)">
    <rect
       style="fill:#4d4d4d;fill-opacity:1;stroke:none"
       id="rect4035"
       width="0"
       height="10.999983"
       x="507.10324"
       y="747.55408" />
    <rect
       style="fill:#4d4d4d;fill-opacity:1;stroke:none"
       id="rect4035-5"
       width="0"
       height="10.999983"
       x="525.14404"
       y="745.50281" />
    <rect
       style="fill:#4d4d4d;fill-opacity:1;stroke:none"
       id="rect4035-8"
       width="0"
       height="10.999983"
       x="507.10324"
       y="747.55408" />
    <rect
       style="fill:#4d4d4d;fill-opacity:1;stroke:none"
       id="rect4035-59"
       width="0"
       height="10.999983"
       x="507.10324"
       y="747.55408" />
    <rect
       style="fill:#4d4d4d;fill-opacity:1;stroke:none"
       id="rect4035-6"
       width="0"
       height="10.999983"
       x="499.7951"
       y="742.71948" />
    <rect
       style="fill:#4d4d4d;fill-opacity:1;stroke:none"
       id="rect4035-5-1"
       width="0"
       height="10.999983"
       x="517.83588"
       y="740.66809" />
    <rect
       style="fill:#4d4d4d;fill-opacity:1;stroke:none"
       id="rect4035-8-3"
       width="0"
       height="10.999983"
       x="499.7951"
       y="742.71948" />
    <rect
       style="fill:#4d4d4d;fill-opacity:1;stroke:none"
       id="rect4035-59-4"
       width="0"
       height="10.999983"
       x="499.7951"
       y="742.71948" />
    <rect
       style="fill:#4d4d4d;fill-opacity:1;stroke:none"
       id="rect4035-1"
       width="0"
       height="10.999983"
       x="505.81027"
       y="746.93567" />
    <rect
       style="fill:#4d4d4d;fill-opacity:1;stroke:none"
       id="rect4035-5-0"
       width="0"
       height="10.999983"
       x="523.85107"
       y="744.8844" />
    <rect
       style="fill:#4d4d4d;fill-opacity:1;stroke:none"
       id="rect4035-8-1"
       width="0"
       height="10.999983"
       x="505.81027"
       y="746.93567" />
    <rect
       style="fill:#4d4d4d;fill-opacity:1;stroke:none"
       id="rect4035-59-1"
       width="0"
       height="10.999983"
       x="505.81027"
       y="746.93567" />
    <rect
       y="747.55408"
       x="507.10324"
       height="10.999983"
       width="0"
       id="rect4035-7"
       style="fill:#4d4d4d;fill-opacity:1;stroke:none" />
    <rect
       y="745.50281"
       x="525.14404"
       height="10.999983"
       width="0"
       id="rect4035-5-7"
       style="fill:#4d4d4d;fill-opacity:1;stroke:none" />
    <rect
       y="747.55408"
       x="507.10324"
       height="10.999983"
       width="0"
       id="rect4035-8-16"
       style="fill:#4d4d4d;fill-opacity:1;stroke:none" />
    <rect
       y="747.55408"
       x="507.10324"
       height="10.999983"
       width="0"
       id="rect4035-59-18"
       style="fill:#4d4d4d;fill-opacity:1;stroke:none" />
    <rect
       y="742.71948"
       x="499.7951"
       height="10.999983"
       width="0"
       id="rect4035-6-5"
       style="fill:#4d4d4d;fill-opacity:1;stroke:none" />
    <rect
       y="740.66809"
       x="517.83588"
       height="10.999983"
       width="0"
       id="rect4035-5-1-8"
       style="fill:#4d4d4d;fill-opacity:1;stroke:none" />
    <rect
       y="742.71948"
       x="499.7951"
       height="10.999983"
       width="0"
       id="rect4035-8-3-8"
       style="fill:#4d4d4d;fill-opacity:1;stroke:none" />
    <rect
       y="742.71948"
       x="499.7951"
       height="10.999983"
       width="0"
       id="rect4035-59-4-7"
       style="fill:#4d4d4d;fill-opacity:1;stroke:none" />
    <rect
       y="746.93567"
       x="505.81027"
       height="10.999983"
       width="0"
       id="rect4035-1-7"
       style="fill:#4d4d4d;fill-opacity:1;stroke:none" />
    <rect
       y="744.8844"
       x="523.85107"
       height="10.999983"
       width="0"
       id="rect4035-5-0-8"
       style="fill:#4d4d4d;fill-opacity:1;stroke:none" />
    <rect
       y="746.93567"
       x="505.81027"
       height="10.999983"
       width="0"
       id="rect4035-8-1-0"
       style="fill:#4d4d4d;fill-opacity:1;stroke:none" />
    <rect
       y="746.93567"
       x="505.81027"
       height="10.999983"
       width="0"
       id="rect4035-59-1-3"
       style="fill:#4d4d4d;fill-opacity:1;stroke:none" />
    <rect
       y="750.93359"
       x="504.57141"
       height="10.999983"
       width="0"
       id="rect4035-0"
       style="fill:#4d4d4d;fill-opacity:1;stroke:none" />
    <rect
       y="748.88232"
       x="522.61218"
       height="10.999983"
       width="0"
       id="rect4035-5-5"
       style="fill:#4d4d4d;fill-opacity:1;stroke:none" />
    <rect
       y="750.93359"
       x="504.57141"
       height="10.999983"
       width="0"
       id="rect4035-8-6"
       style="fill:#4d4d4d;fill-opacity:1;stroke:none" />
    <rect
       y="750.93359"
       x="504.57141"
       height="10.999983"
       width="0"
       id="rect4035-59-11"
       style="fill:#4d4d4d;fill-opacity:1;stroke:none" />
    <rect
       y="747.29968"
       x="488.58331"
       height="10.999983"
       width="0"
       id="rect4035-9"
       style="fill:#4d4d4d;fill-opacity:1;stroke:none" />
    <rect
       y="745.24841"
       x="506.62408"
       height="10.999983"
       width="0"
       id="rect4035-5-8"
       style="fill:#4d4d4d;fill-opacity:1;stroke:none" />
    <rect
       y="747.29968"
       x="488.58331"
       height="10.999983"
       width="0"
       id="rect4035-8-0"
       style="fill:#4d4d4d;fill-opacity:1;stroke:none" />
    <rect
       y="747.29968"
       x="488.58331"
       height="10.999983"
       width="0"
       id="rect4035-59-1-8"
       style="fill:#4d4d4d;fill-opacity:1;stroke:none" />
    <rect
       style="fill:#4d4d4d;fill-opacity:1;stroke:none"
       id="rect4035-3"
       width="0"
       height="10.999983"
       x="507.10324"
       y="747.55408" />
    <rect
       style="fill:#4d4d4d;fill-opacity:1;stroke:none"
       id="rect4035-5-2"
       width="0"
       height="10.999983"
       x="525.14404"
       y="745.50281" />
    <rect
       style="fill:#4d4d4d;fill-opacity:1;stroke:none"
       id="rect4035-8-7"
       width="0"
       height="10.999983"
       x="507.10324"
       y="747.55408" />
    <rect
       style="fill:#4d4d4d;fill-opacity:1;stroke:none"
       id="rect4035-59-43"
       width="0"
       height="10.999983"
       x="507.10324"
       y="747.55408" />
    <rect
       style="fill:#4d4d4d;fill-opacity:1;stroke:none"
       id="rect4035-6-2"
       width="0"
       height="10.999983"
       x="499.7951"
       y="742.71948" />
    <rect
       style="fill:#4d4d4d;fill-opacity:1;stroke:none"
       id="rect4035-5-1-6"
       width="0"
       height="10.999983"
       x="517.83588"
       y="740.66809" />
    <rect
       style="fill:#4d4d4d;fill-opacity:1;stroke:none"
       id="rect4035-8-3-4"
       width="0"
       height="10.999983"
       x="499.7951"
       y="742.71948" />
    <rect
       style="fill:#4d4d4d;fill-opacity:1;stroke:none"
       id="rect4035-59-4-8"
       width="0"
       height="10.999983"
       x="499.7951"
       y="742.71948" />
    <rect
       style="fill:#4d4d4d;fill-opacity:1;stroke:none"
       id="rect4035-1-8"
       width="0"
       height="10.999983"
       x="505.81027"
       y="746.93567" />
    <rect
       style="fill:#4d4d4d;fill-opacity:1;stroke:none"
       id="rect4035-5-0-0"
       width="0"
       height="10.999983"
       x="523.85107"
       y="744.8844" />
    <rect
       style="fill:#4d4d4d;fill-opacity:1;stroke:none"
       id="rect4035-8-1-3"
       width="0"
       height="10.999983"
       x="505.81027"
       y="746.93567" />
    <rect
       style="fill:#4d4d4d;fill-opacity:1;stroke:none"
       id="rect4035-59-1-1"
       width="0"
       height="10.999983"
       x="505.81027"
       y="746.93567" />
    <path
       style="fill:#2ecc71;fill-opacity:1;stroke:none"
       d="M 11.5 9 C 10.286139 9 9.2809778 9.8559279 9.0507812 11 L 3 11 L 3 12 L 9.0507812 12 C 9.2809778 13.144072 10.286139 14 11.5 14 C 12.713861 14 13.719022 13.144072 13.949219 12 L 19 12 L 19 11 L 13.949219 11 C 13.719022 9.8559279 12.713861 9 11.5 9 z "
       transform="translate(544.57141,742.93359)"
       id="rect4139" />
    <path
       style="fill:#1d99f3;fill-opacity:1;stroke:none"
       d="M 5.5 14 C 4.115 14 3 15.115 3 16.5 C 3 17.885 4.115 19 5.5 19 C 6.7138603 19 7.7190223 18.144072 7.9492188 17 L 19 17 L 19 16 L 7.9492188 16 C 7.7190223 14.855928 6.7138603 14 5.5 14 z M 5.5 15 C 6.331 15 7 15.669 7 16.5 C 7 17.331 6.331 18 5.5 18 C 4.669 18 4 17.331 4 16.5 C 4 15.669 4.669 15 5.5 15 z "
       transform="translate(544.57141,742.93359)"
       id="rect4141" />
    <path
       style="fill:#da4453;fill-opacity:1;stroke:none"
       d="M 14.5 3 C 13.28614 3 12.280978 3.8559283 12.050781 5 L 3 5 L 3 6 L 12.050781 6 C 12.280978 7.1440717 13.28614 8 14.5 8 C 15.71386 8 16.719022 7.1440717 16.949219 6 L 19 6 L 19 5 L 16.949219 5 C 16.719022 3.8559283 15.71386 3 14.5 3 z M 14.5 4 C 15.331 4 16 4.669 16 5.5 C 16 6.331 15.331 7 14.5 7 C 13.669 7 13 6.331 13 5.5 C 13 4.669 13.669 4 14.5 4 z "
       transform="translate(544.57141,742.93359)"
       id="rect4200" />
  </g>
</svg>
