<?xml version="1.0" encoding="UTF-8" standalone="no"?>
<!-- Created with Inkscape (http://www.inkscape.org/) -->

<svg
   xmlns:dc="http://purl.org/dc/elements/1.1/"
   xmlns:cc="http://creativecommons.org/ns#"
   xmlns:rdf="http://www.w3.org/1999/02/22-rdf-syntax-ns#"
   xmlns:svg="http://www.w3.org/2000/svg"
   xmlns="http://www.w3.org/2000/svg"
   xmlns:sodipodi="http://sodipodi.sourceforge.net/DTD/sodipodi-0.dtd"
   xmlns:inkscape="http://www.inkscape.org/namespaces/inkscape"
   width="22"
   height="22"
   id="svg3869"
   version="1.1"
   inkscape:version="0.91 r13725"
   sodipodi:docname="align-vertical-baseline.svg">
  <defs
     id="defs3871" />
  <sodipodi:namedview
     id="base"
     pagecolor="#ffffff"
     bordercolor="#666666"
     borderopacity="1.0"
     inkscape:pageopacity="0.0"
     inkscape:pageshadow="2"
     inkscape:zoom="22.627416"
     inkscape:cx="5.4042324"
     inkscape:cy="12.032563"
     inkscape:document-units="px"
     inkscape:current-layer="layer1"
     showgrid="true"
     fit-margin-top="0"
     fit-margin-left="0"
     fit-margin-right="0"
     fit-margin-bottom="0"
     inkscape:window-width="1920"
     inkscape:window-height="1021"
     inkscape:window-x="-4"
     inkscape:window-y="0"
     inkscape:window-maximized="1"
     inkscape:showpageshadow="false">
    <inkscape:grid
       type="xygrid"
       id="grid4132" />
    <sodipodi:guide
       position="2,20.000017"
       orientation="18,0"
       id="guide4138" />
    <sodipodi:guide
       position="2,2.0000174"
       orientation="0,18"
       id="guide4140" />
    <sodipodi:guide
       position="20,2.0000174"
       orientation="-18,0"
       id="guide4142" />
    <sodipodi:guide
       position="20,20.000017"
       orientation="0,-18"
       id="guide4144" />
    <sodipodi:guide
       position="3,19.000017"
       orientation="16,0"
       id="guide4146" />
    <sodipodi:guide
       position="3,3.0000174"
       orientation="0,16"
       id="guide4148" />
    <sodipodi:guide
       position="19,3.0000174"
       orientation="-16,0"
       id="guide4150" />
    <sodipodi:guide
       position="19,19.000017"
       orientation="0,-16"
       id="guide4152" />
  </sodipodi:namedview>
  <metadata
     id="metadata3874">
    <rdf:RDF>
      <cc:Work
         rdf:about="">
        <dc:format>image/svg+xml</dc:format>
        <dc:type
           rdf:resource="http://purl.org/dc/dcmitype/StillImage" />
        <dc:title></dc:title>
      </cc:Work>
    </rdf:RDF>
  </metadata>
  <g
     inkscape:label="Capa 1"
     inkscape:groupmode="layer"
     id="layer1"
     transform="translate(-326,-534.3622)">
    <rect
       style="fill:#4d4d4d;fill-opacity:1;stroke:none"
       id="rect3779"
       width="1"
       height="16"
       x="548.36218"
       y="-345.00024"
       transform="matrix(0,1,-1,0,0,0)" />
    <path
       style="font-style:normal;font-variant:normal;font-weight:bold;font-stretch:normal;font-size:9.10746765px;line-height:125%;font-family:Oxygen;-inkscape-font-specification:'Oxygen Bold';letter-spacing:0px;word-spacing:0px;fill:#4d4d4d;fill-opacity:1;stroke:none"
       inkscape:connector-curvature="0"
       id="path4237"
       d="m 343.36387,546.5206 0.19092,0.7141 1.44546,0 0,-4.7177 c 0,-1.4408 -1.06364,-2.1548 -2.70001,-2.1548 l -0.16365,0 c -1.17273,0.025 -2.07273,0.2168 -2.72729,0.4973 l 0.36819,1.2623 c 0.31364,-0.1021 1.5,-0.4591 2.19546,-0.4591 l 0.0955,0 c 0.96819,0.038 1.03638,0.3698 1.03638,1.1476 l 0,0.306 -0.50454,0.077 c -2.34549,0.3188 -3.60004,0.5865 -3.60004,2.2696 0,1.173 0.91364,1.8998 2.23639,1.8998 0.91364,0 1.51365,-0.357 2.12727,-0.8416 z m -1.8,-0.2932 c -0.58637,0 -0.87274,-0.3443 -0.87274,-0.8288 0,-0.918 0.85909,-1.071 1.90912,-1.2113 l 0.50453,-0.076 0,1.5683 c -0.50453,0.3188 -0.88636,0.5483 -1.54091,0.5483 z" />
    <path
       style="color:#000000;font-style:normal;font-variant:normal;font-weight:normal;font-stretch:normal;font-size:medium;line-height:normal;font-family:Sans;-inkscape-font-specification:Sans;text-indent:0;text-align:start;text-decoration:none;text-decoration-line:none;letter-spacing:normal;word-spacing:normal;text-transform:none;direction:ltr;block-progression:tb;writing-mode:lr-tb;baseline-shift:baseline;text-anchor:start;display:inline;overflow:visible;visibility:visible;fill:#4d4d4d;fill-opacity:1;stroke:none;stroke-width:1.20000005;marker:none;enable-background:accumulate"
       d="m 332.09648,540.3622 c 0.26954,1.7782 0.96595,3.6477 2.54967,5.3531 -1.25782,1.583 -3.06491,3.0885 -5.92715,4.5371 l 0.59603,1.1098 c 6.20093,-3.1383 8.13296,-7.2676 9.40397,-11 l -1.35762,0 c -0.51195,1.5034 -1.10357,2.9318 -1.98675,4.3086 -1.26473,-1.4163 -1.85688,-2.7964 -2.08609,-4.3086 l -1.19206,0 z"
       id="path3007"
       inkscape:connector-curvature="0" />
  </g>
</svg>
