<?xml version="1.0" encoding="UTF-8" standalone="no"?>
<!-- Created with Inkscape (http://www.inkscape.org/) -->

<svg
   xmlns:dc="http://purl.org/dc/elements/1.1/"
   xmlns:cc="http://creativecommons.org/ns#"
   xmlns:rdf="http://www.w3.org/1999/02/22-rdf-syntax-ns#"
   xmlns:svg="http://www.w3.org/2000/svg"
   xmlns="http://www.w3.org/2000/svg"
   xmlns:sodipodi="http://sodipodi.sourceforge.net/DTD/sodipodi-0.dtd"
   xmlns:inkscape="http://www.inkscape.org/namespaces/inkscape"
   width="22"
   height="22"
   id="svg3780"
   version="1.1"
   inkscape:version="0.48+devel r"
   sodipodi:docname="dashboard-show.svg">
  <defs
     id="defs3782" />
  <sodipodi:namedview
     id="base"
     pagecolor="#ffffff"
     bordercolor="#666666"
     borderopacity="1.0"
     inkscape:pageopacity="0.0"
     inkscape:pageshadow="2"
     inkscape:zoom="13.953229"
     inkscape:cx="14.522891"
     inkscape:cy="9.3975967"
     inkscape:document-units="px"
     inkscape:current-layer="layer1"
     showgrid="true"
     inkscape:window-width="1366"
     inkscape:window-height="668"
     inkscape:window-x="-2"
     inkscape:window-y="23"
     inkscape:window-maximized="1"
     inkscape:showpageshadow="false"
     showguides="true">
    <inkscape:grid
       type="xygrid"
       id="grid3307" />
    <sodipodi:guide
       position="2,20.000017"
       orientation="18,0"
       id="guide3313" />
    <sodipodi:guide
       position="2,2.0000174"
       orientation="0,18"
       id="guide3315" />
    <sodipodi:guide
       position="20,2.0000174"
       orientation="-18,0"
       id="guide3317" />
    <sodipodi:guide
       position="20,20.000017"
       orientation="0,-18"
       id="guide3319" />
    <sodipodi:guide
       position="3,19.000017"
       orientation="16,0"
       id="guide3321" />
    <sodipodi:guide
       position="3,3.0000174"
       orientation="0,16"
       id="guide3323" />
    <sodipodi:guide
       position="19,3.0000174"
       orientation="-16,0"
       id="guide3325" />
    <sodipodi:guide
       position="19,19.000017"
       orientation="0,-16"
       id="guide3327" />
  </sodipodi:namedview>
  <metadata
     id="metadata3785">
    <rdf:RDF>
      <cc:Work
         rdf:about="">
        <dc:format>image/svg+xml</dc:format>
        <dc:type
           rdf:resource="http://purl.org/dc/dcmitype/StillImage" />
        <dc:title />
      </cc:Work>
    </rdf:RDF>
  </metadata>
  <g
     inkscape:label="Capa 1"
     inkscape:groupmode="layer"
     id="layer1"
     transform="translate(0,-1030.3622)">
    <path
       style="opacity:1;fill:#4d4d4d;fill-opacity:1;stroke:none"
       d="M 3 3 L 3 17 L 19 17 L 19 3 L 3 3 z M 4 4 L 18 4 L 18 16 L 4 16 L 4 4 z M 5 5 L 5 9 L 7 9 L 9 7 L 9 5 L 5 5 z M 13.5 6 C 11.561005 6 10 7.5610048 10 9.5 C 10 11.438995 11.561005 13 13.5 13 C 15.438995 13 17 11.438995 17 9.5 C 17 7.5610048 15.438995 6 13.5 6 z M 13.5 7 C 14.884997 7 16 8.1150033 16 9.5 C 16 10.884997 14.884997 12 13.5 12 C 12.115003 12 11 10.884997 11 9.5 C 11 8.1150033 12.115003 7 13.5 7 z M 9 8 L 8 9 L 9 9 L 9 8 z M 13 8 L 13 10 L 14 10 L 15 10 L 15 9 L 14 9 L 14 8 L 13 8 z M 5 12 L 5 14 L 7 14 L 8 15 L 8 14 L 8.2363281 14 L 8.2363281 12 L 5 12 z M 3 18 L 3 19 L 19 19 L 19 18 L 3 18 z "
       transform="translate(0,1030.3622)"
       id="rect4112" />
  </g>
</svg>
