<?xml version="1.0" encoding="UTF-8" standalone="no"?>
<!-- Created with Inkscape (http://www.inkscape.org/) -->

<svg
   xmlns:dc="http://purl.org/dc/elements/1.1/"
   xmlns:cc="http://creativecommons.org/ns#"
   xmlns:rdf="http://www.w3.org/1999/02/22-rdf-syntax-ns#"
   xmlns:svg="http://www.w3.org/2000/svg"
   xmlns="http://www.w3.org/2000/svg"
   xmlns:sodipodi="http://sodipodi.sourceforge.net/DTD/sodipodi-0.dtd"
   xmlns:inkscape="http://www.inkscape.org/namespaces/inkscape"
   width="22"
   height="22"
   id="svg3815"
   version="1.1"
   inkscape:version="0.91+devel r"
   sodipodi:docname="edit-table-insert-column-right.svg">
  <defs
     id="defs3817" />
  <sodipodi:namedview
     id="base"
     pagecolor="#ffffff"
     bordercolor="#666666"
     borderopacity="1.0"
     inkscape:pageopacity="0.0"
     inkscape:pageshadow="2"
     inkscape:zoom="26.436636"
     inkscape:cx="1.9162396"
     inkscape:cy="9.8767125"
     inkscape:document-units="px"
     inkscape:current-layer="layer1"
     showgrid="true"
     fit-margin-top="0"
     fit-margin-left="0"
     fit-margin-right="0"
     fit-margin-bottom="0"
     inkscape:window-width="1366"
     inkscape:window-height="670"
     inkscape:window-x="-4"
     inkscape:window-y="29"
     inkscape:window-maximized="1"
     inkscape:showpageshadow="false"
     borderlayer="false">
    <sodipodi:guide
       position="2.0000044,19.999979"
       orientation="18,0"
       id="guide3338" />
    <sodipodi:guide
       position="2.0000044,1.9999785"
       orientation="0,18"
       id="guide3340" />
    <sodipodi:guide
       position="20.000004,1.9999785"
       orientation="-18,0"
       id="guide3342" />
    <sodipodi:guide
       position="20.000004,19.999979"
       orientation="0,-18"
       id="guide3344" />
    <sodipodi:guide
       position="3.0000044,18.999979"
       orientation="16,0"
       id="guide3346" />
    <sodipodi:guide
       position="3.0000044,2.9999785"
       orientation="0,16"
       id="guide3348" />
    <sodipodi:guide
       position="19.000004,2.9999785"
       orientation="-16,0"
       id="guide3350" />
    <sodipodi:guide
       position="17,19"
       orientation="0,-16"
       id="guide3352" />
    <inkscape:grid
       type="xygrid"
       id="grid3354" />
  </sodipodi:namedview>
  <metadata
     id="metadata3820">
    <rdf:RDF>
      <cc:Work
         rdf:about="">
        <dc:format>image/svg+xml</dc:format>
        <dc:type
           rdf:resource="http://purl.org/dc/dcmitype/StillImage" />
        <dc:title />
      </cc:Work>
    </rdf:RDF>
  </metadata>
  <g
     inkscape:label="Capa 1"
     inkscape:groupmode="layer"
     id="layer1"
     transform="translate(-461.71429,-525.79075)">
    <path
       style="opacity:1;fill:#1d99f3;fill-opacity:1;stroke:none"
       d="M 13 4 L 13 9.2929688 L 13 12 L 14 12 L 14 9.7070312 L 18 5.7070312 L 18 8.2929688 L 14.292969 12 L 15.707031 12 L 18 9.7070312 L 18 12 L 19 12 L 19 4 L 18 4 L 18 4.2929688 L 14 8.2929688 L 14 4 L 13 4 z "
       transform="translate(461.71429,525.79075)"
       id="rect4197" />
    <path
       inkscape:connector-curvature="0"
       id="rect4139"
       d="m 478.71429,539.79075 0,2 2,0 0,1 -2,0 0,2 -1,0 0,-2 -2,0 0,-1 2,0 0,-2 1,0 z"
       style="fill:#4d4d4d;fill-opacity:1;stroke:none" />
    <path
       inkscape:connector-curvature="0"
       style="opacity:1;fill:#4d4d4d;fill-opacity:1;stroke:none"
       d="m 464.71429,528.79075 0,1 0,15 1,0 9,0 0,-1 -4,0 0,-2 4,0 0,-1 -4,0 0,-2 4,0 6,0 0,-1 -6,0 -4,0 0,-2 4,0 0,-1 -4,0 0,-2 4,0 0,-1 -4,0 0,-1 0,-1 4,0 6,0 0,-1 -6,0 -10,0 z m 1,1 4,0 0,1 0,1 -1,0 -3,0 0,-2 z m 0,3 3,0 1,0 0,2 -4,0 0,-2 z m 0,3 4,0 0,2 -4,0 0,-2 z m 0,3 4,0 0,2 -1,0 -3,0 0,-2 z m 0,3 3,0 1,0 0,1.09961 0,0.90039 -4,0 0,-2 z"
       id="rect4108-9" />
  </g>
</svg>
