<?xml version="1.0" encoding="UTF-8" standalone="no"?>
<!-- Created with Inkscape (http://www.inkscape.org/) -->

<svg
   xmlns:dc="http://purl.org/dc/elements/1.1/"
   xmlns:cc="http://creativecommons.org/ns#"
   xmlns:rdf="http://www.w3.org/1999/02/22-rdf-syntax-ns#"
   xmlns:svg="http://www.w3.org/2000/svg"
   xmlns="http://www.w3.org/2000/svg"
   xmlns:sodipodi="http://sodipodi.sourceforge.net/DTD/sodipodi-0.dtd"
   xmlns:inkscape="http://www.inkscape.org/namespaces/inkscape"
   width="22"
   height="22"
   id="svg3869"
   version="1.1"
   inkscape:version="0.91 r13725"
   sodipodi:docname="filename-and-amarok.svg">
  <defs
     id="defs3871" />
  <sodipodi:namedview
     id="base"
     pagecolor="#ffffff"
     bordercolor="#666666"
     borderopacity="1.0"
     inkscape:pageopacity="0.0"
     inkscape:pageshadow="2"
     inkscape:zoom="22.627416"
     inkscape:cx="11.001436"
     inkscape:cy="13.709233"
     inkscape:document-units="px"
     inkscape:current-layer="layer1"
     showgrid="true"
     fit-margin-top="0"
     fit-margin-left="0"
     fit-margin-right="0"
     fit-margin-bottom="0"
     inkscape:window-width="1920"
     inkscape:window-height="1021"
     inkscape:window-x="-4"
     inkscape:window-y="0"
     inkscape:window-maximized="1"
     inkscape:showpageshadow="false"
     inkscape:snap-bbox="true"
     inkscape:object-nodes="true">
    <inkscape:grid
       type="xygrid"
       id="grid4132" />
    <sodipodi:guide
       position="2,20.000017"
       orientation="18,0"
       id="guide4138" />
    <sodipodi:guide
       position="2,2.0000174"
       orientation="0,18"
       id="guide4140" />
    <sodipodi:guide
       position="20,2.0000174"
       orientation="-18,0"
       id="guide4142" />
    <sodipodi:guide
       position="20,20.000017"
       orientation="0,-18"
       id="guide4144" />
    <sodipodi:guide
       position="3,3.0000174"
       orientation="0,16"
       id="guide4148" />
    <sodipodi:guide
       position="19,3.0000174"
       orientation="-16,0"
       id="guide4150" />
    <sodipodi:guide
       position="19,19.000017"
       orientation="0,-16"
       id="guide4152" />
  </sodipodi:namedview>
  <metadata
     id="metadata3874">
    <rdf:RDF>
      <cc:Work
         rdf:about="">
        <dc:format>image/svg+xml</dc:format>
        <dc:type
           rdf:resource="http://purl.org/dc/dcmitype/StillImage" />
        <dc:title></dc:title>
      </cc:Work>
    </rdf:RDF>
  </metadata>
  <g
     inkscape:label="Capa 1"
     inkscape:groupmode="layer"
     id="layer1"
     transform="translate(-326,-534.3622)">
    <g
       style="font-style:normal;font-weight:normal;font-size:40px;line-height:125%;font-family:sans-serif;letter-spacing:0px;word-spacing:0px;fill:#4d4d4d;fill-opacity:1;stroke:none;stroke-width:1px;stroke-linecap:butt;stroke-linejoin:miter;stroke-opacity:1"
       id="text4294"
       transform="matrix(0.99436045,0,0,0.97415091,3.3426302,14.193811)">
      <path
         d="m 338.86505,540.29163 q 0,0.42846 -0.0769,0.81298 -0.0769,0.38453 -0.26367,0.7251 -0.17579,0.32959 -0.35157,0.60425 -0.17578,0.26367 -0.50537,0.54932 -0.3186,0.27465 -0.54931,0.46142 -0.23072,0.18677 -0.65918,0.43946 -0.41749,0.25268 -0.65918,0.38452 -0.2417,0.13183 -0.71412,0.38452 l 4.40552,4.77905 q 1.01074,-1.09863 1.84571,-2.59277 l 1.25244,0.82397 q -0.97779,1.70288 -2.08741,2.85645 l 1.74683,1.90063 -1.27441,1.05469 -1.68091,-1.86768 q -2.20825,1.6919 -4.63623,1.6919 -1.05469,0 -2.02149,-0.32959 -0.95581,-0.34058 -1.63696,-0.90088 -0.68115,-0.5603 -1.08765,-1.30737 -0.3955,-0.74707 -0.3955,-1.54908 0,-0.74707 0.17578,-1.39526 0.18676,-0.65918 0.47241,-1.13159 0.29663,-0.4834 0.73608,-0.91187 0.45044,-0.43945 0.8899,-0.73608 0.43945,-0.30762 1.01074,-0.62622 l -0.29663,-0.32959 q -1.61499,-1.77979 -1.61499,-3.59253 0,-1.53809 1.16455,-2.48291 1.17553,-0.95581 3.02124,-0.95581 1.72485,0 2.75757,0.83496 1.03271,0.83496 1.03271,2.40601 z m -4.66919,3.39477 q 0.58228,-0.29663 0.94483,-0.50537 0.36254,-0.21973 0.802,-0.53833 0.45044,-0.32959 0.69214,-0.63721 0.25268,-0.30761 0.41748,-0.73608 0.17578,-0.43945 0.17578,-0.92285 0,-0.9668 -0.53833,-1.47217 -0.53833,-0.51636 -1.59302,-0.51636 -1.07666,0 -1.83472,0.54932 -0.75805,0.54932 -0.75805,1.46118 0,1.48315 1.45019,3.0542 l 0.2417,0.26367 z m 4.10889,6.8335 -4.59229,-5.09766 q -1.16455,0.70313 -1.80175,1.54907 -0.63721,0.83496 -0.63721,2.06543 0,1.17554 0.98877,1.99951 0.98877,0.81299 2.46094,0.81299 1.81274,0 3.58154,-1.32934 z"
         style="font-style:normal;font-variant:normal;font-weight:normal;font-stretch:normal;font-size:22.5px;font-family:Oxygen-Sans;-inkscape-font-specification:Oxygen-Sans;fill:#4d4d4d;fill-opacity:1"
         id="path4299"
         inkscape:connector-curvature="0" />
    </g>
  </g>
</svg>
