<?xml version="1.0" encoding="UTF-8" standalone="no"?>
<!-- Created with Inkscape (http://www.inkscape.org/) -->

<svg
   xmlns:dc="http://purl.org/dc/elements/1.1/"
   xmlns:cc="http://creativecommons.org/ns#"
   xmlns:rdf="http://www.w3.org/1999/02/22-rdf-syntax-ns#"
   xmlns:svg="http://www.w3.org/2000/svg"
   xmlns="http://www.w3.org/2000/svg"
   xmlns:sodipodi="http://sodipodi.sourceforge.net/DTD/sodipodi-0.dtd"
   xmlns:inkscape="http://www.inkscape.org/namespaces/inkscape"
   width="22"
   height="22"
   id="svg4355"
   version="1.1"
   inkscape:version="0.91 r13725"
   sodipodi:docname="filmgrain.svg">
  <defs
     id="defs4357">
    <clipPath
       id="clipPath4160"
       clipPathUnits="userSpaceOnUse">
      <rect
         y="1023.3622"
         x="7"
         height="1"
         width="1"
         id="rect4162"
         style="opacity:1;fill:#f2f2f2;fill-opacity:1;stroke:none;stroke-opacity:1" />
    </clipPath>
  </defs>
  <sodipodi:namedview
     id="base"
     pagecolor="#ffffff"
     bordercolor="#666666"
     borderopacity="1.0"
     inkscape:pageopacity="0.0"
     inkscape:pageshadow="2"
     inkscape:zoom="23.414198"
     inkscape:cx="11.20259"
     inkscape:cy="8.1094446"
     inkscape:document-units="px"
     inkscape:current-layer="layer1"
     showgrid="true"
     width="0px"
     height="0px"
     fit-margin-top="0"
     fit-margin-left="0"
     fit-margin-right="0"
     fit-margin-bottom="0"
     inkscape:window-width="1366"
     inkscape:window-height="709"
     inkscape:window-x="-4"
     inkscape:window-y="0"
     inkscape:window-maximized="1"
     inkscape:showpageshadow="false"
     inkscape:snap-bbox="true"
     inkscape:snap-global="true"
     inkscape:object-nodes="true">
    <inkscape:grid
       type="xygrid"
       id="grid4114" />
    <sodipodi:guide
       position="2,13"
       orientation="18,0"
       id="guide4120" />
    <sodipodi:guide
       position="2.0000011,1.9999962"
       orientation="0,18"
       id="guide4122" />
    <sodipodi:guide
       position="20.000001,1.9999962"
       orientation="-18,0"
       id="guide4124" />
    <sodipodi:guide
       position="20.000001,19.999996"
       orientation="0,-18"
       id="guide4126" />
    <sodipodi:guide
       position="3,6"
       orientation="16,0"
       id="guide4128" />
    <sodipodi:guide
       position="3.0000011,2.9999962"
       orientation="0,16"
       id="guide4130" />
    <sodipodi:guide
       position="19.000001,2.9999962"
       orientation="-16,0"
       id="guide4132" />
    <sodipodi:guide
       position="6,19"
       orientation="0,-16"
       id="guide4134" />
  </sodipodi:namedview>
  <metadata
     id="metadata4360">
    <rdf:RDF>
      <cc:Work
         rdf:about="">
        <dc:format>image/svg+xml</dc:format>
        <dc:type
           rdf:resource="http://purl.org/dc/dcmitype/StillImage" />
        <dc:title></dc:title>
      </cc:Work>
    </rdf:RDF>
  </metadata>
  <g
     inkscape:label="Capa 1"
     inkscape:groupmode="layer"
     id="layer1"
     transform="translate(-544.57141,-742.93359)">
    <rect
       style="fill:#4d4d4d;fill-opacity:1;stroke:none"
       id="rect4035"
       width="0"
       height="10.999983"
       x="545.06708"
       y="745.05835" />
    <rect
       style="fill:#4d4d4d;fill-opacity:1;stroke:none"
       id="rect4035-7"
       width="0"
       height="10.999983"
       x="540.51508"
       y="747.57745" />
    <rect
       style="fill:#4d4d4d;fill-opacity:1;stroke:none"
       id="rect4035-9"
       width="0"
       height="10.999983"
       x="536.00726"
       y="735.15887" />
    <rect
       style="fill:#4d4d4d;fill-opacity:1;stroke:none"
       id="rect4035-96"
       width="0"
       height="10.999983"
       x="536.85132"
       y="747.3963" />
    <path
       inkscape:connector-curvature="0"
       style="fill:#4d4d4d;fill-opacity:1;stroke:none"
       d="m 547.57141,746.43359 0,15 1,0 2,0 10,0 2,0 1,0 0,-15 -1,0 -2,0 -10,0 -2,0 -1,0 z m 1,1 1,0 0,1 -1,0 0,-1 z m 2,0 10,0 0,5.5 -10,0 0,-5.5 z m 11,0 1,0 0,1 -1,0 0,-1 z m -13,3 1,0 0,1 -1,0 0,-1 z m 13,0 1,0 0,1 -1,0 0,-1 z m -13,3 1,0 0,1 -1,0 0,-1 z m 13,0 1,0 0,1 -1,0 0,-1 z m -11,1.5 10,0 0,5.5 -10,0 0,-5.5 z m -2,1.5 1,0 0,1 -1,0 0,-1 z m 13,0 1,0 0,1 -1,0 0,-1 z m -13,3 1,0 0,1 -1,0 0,-1 z m 13,0 1,0 0,1 -1,0 0,-1 z"
       id="rect3009" />
    <rect
       style="fill:#4d4d4d;fill-opacity:1;stroke:none"
       id="rect4035-7-0"
       width="0"
       height="10.999983"
       x="532.29932"
       y="749.91541" />
    <rect
       style="fill:#4d4d4d;fill-opacity:1;stroke:none"
       id="rect4035-9-6"
       width="0"
       height="10.999983"
       x="527.7915"
       y="737.49683" />
    <rect
       style="opacity:0.3878327;fill:#4d4d4d;fill-opacity:1;stroke:none;stroke-linecap:round"
       id="rect4544"
       width="0.99999887"
       height="0.99999624"
       x="551.57141"
       y="755.93359" />
    <rect
       style="opacity:0.3878327;fill:#4d4d4d;fill-opacity:1;stroke:none;stroke-linecap:round"
       id="rect4546"
       width="1"
       height="1"
       x="553.57141"
       y="757.93359" />
    <rect
       style="opacity:0.3878327;fill:#4d4d4d;fill-opacity:1;stroke:none;stroke-linecap:round"
       id="rect4548"
       width="1"
       height="1"
       x="553.57141"
       y="755.93359" />
    <rect
       style="opacity:0.3878327;fill:#4d4d4d;fill-opacity:1;stroke:none;stroke-linecap:round"
       id="rect4550"
       width="1"
       height="1"
       x="551.57141"
       y="757.93359" />
    <rect
       style="opacity:0.3878327;fill:#4d4d4d;fill-opacity:1;stroke:none;stroke-linecap:round"
       id="rect4552"
       width="1"
       height="1"
       x="556.57141"
       y="755.93359" />
    <rect
       style="opacity:0.3878327;fill:#4d4d4d;fill-opacity:1;stroke:none;stroke-linecap:round"
       id="rect4554"
       width="1"
       height="1"
       x="558.57141"
       y="755.93359" />
    <rect
       style="opacity:0.3878327;fill:#4d4d4d;fill-opacity:1;stroke:none;stroke-linecap:round"
       id="rect4556"
       width="1"
       height="1"
       x="558.57141"
       y="757.93359" />
    <rect
       style="opacity:0.3878327;fill:#4d4d4d;fill-opacity:1;stroke:none;stroke-linecap:round"
       id="rect4558"
       width="1"
       height="1"
       x="551.57141"
       y="750.93359" />
    <rect
       style="opacity:0.3878327;fill:#4d4d4d;fill-opacity:1;stroke:none;stroke-linecap:round"
       id="rect4552-1"
       width="1"
       height="1"
       x="556.57141"
       y="757.93359" />
    <rect
       style="opacity:0.3878327;fill:#4d4d4d;fill-opacity:1;stroke:none;stroke-linecap:round"
       id="rect4544-9"
       width="0.99999887"
       height="0.99999624"
       x="551.57141"
       y="748.93359" />
    <rect
       style="opacity:0.3878327;fill:#4d4d4d;fill-opacity:1;stroke:none;stroke-linecap:round"
       id="rect4546-5"
       width="1"
       height="1"
       x="553.57141"
       y="750.93359" />
    <rect
       style="opacity:0.3878327;fill:#4d4d4d;fill-opacity:1;stroke:none;stroke-linecap:round"
       id="rect4548-5"
       width="1"
       height="1"
       x="553.57141"
       y="748.93359" />
    <rect
       style="opacity:0.3878327;fill:#4d4d4d;fill-opacity:1;stroke:none;stroke-linecap:round"
       id="rect4552-3"
       width="1"
       height="1"
       x="556.57141"
       y="748.93359" />
    <rect
       style="opacity:0.3878327;fill:#4d4d4d;fill-opacity:1;stroke:none;stroke-linecap:round"
       id="rect4554-1"
       width="1"
       height="1"
       x="558.57141"
       y="748.93359" />
    <rect
       style="opacity:0.3878327;fill:#4d4d4d;fill-opacity:1;stroke:none;stroke-linecap:round"
       id="rect4556-5"
       width="1"
       height="1"
       x="558.57141"
       y="750.93359" />
    <rect
       style="opacity:0.3878327;fill:#4d4d4d;fill-opacity:1;stroke:none;stroke-linecap:round"
       id="rect4552-1-5"
       width="1"
       height="1"
       x="556.57141"
       y="750.93359" />
  </g>
</svg>
