<?xml version="1.0" encoding="UTF-8" standalone="no"?>
<!-- Created with Inkscape (http://www.inkscape.org/) -->

<svg
   xmlns:dc="http://purl.org/dc/elements/1.1/"
   xmlns:cc="http://creativecommons.org/ns#"
   xmlns:rdf="http://www.w3.org/1999/02/22-rdf-syntax-ns#"
   xmlns:svg="http://www.w3.org/2000/svg"
   xmlns="http://www.w3.org/2000/svg"
   xmlns:sodipodi="http://sodipodi.sourceforge.net/DTD/sodipodi-0.dtd"
   xmlns:inkscape="http://www.inkscape.org/namespaces/inkscape"
   width="22"
   height="22"
   id="svg3049"
   version="1.1"
   inkscape:version="0.48+devel r"
   sodipodi:docname="im-ban-kick-user.svg"
   inkscape:export-filename="/home/uri/.kde/share/icons/NITRUX-KDE/16x16/actions/view-right-new.png"
   inkscape:export-xdpi="30"
   inkscape:export-ydpi="30">
  <defs
     id="defs3051" />
  <sodipodi:namedview
     id="base"
     pagecolor="#ffffff"
     bordercolor="#666666"
     borderopacity="1.0"
     inkscape:pageopacity="0.0"
     inkscape:pageshadow="2"
     inkscape:zoom="18.292693"
     inkscape:cx="12.789997"
     inkscape:cy="12.831268"
     inkscape:document-units="px"
     inkscape:current-layer="layer1"
     showgrid="true"
     fit-margin-top="0"
     fit-margin-left="0"
     fit-margin-right="0"
     fit-margin-bottom="0"
     inkscape:window-width="1366"
     inkscape:window-height="668"
     inkscape:window-x="-2"
     inkscape:window-y="23"
     inkscape:window-maximized="1"
     inkscape:showpageshadow="false"
     borderlayer="true">
    <sodipodi:guide
       position="2.0000044,20.00003"
       orientation="18,0"
       id="guide4067" />
    <sodipodi:guide
       position="2.0000044,2.0000296"
       orientation="0,18"
       id="guide4069" />
    <sodipodi:guide
       position="20.000004,2.0000296"
       orientation="-18,0"
       id="guide4071" />
    <sodipodi:guide
       position="20.000004,20.00003"
       orientation="0,-18"
       id="guide4073" />
    <sodipodi:guide
       position="3.0000044,19.00003"
       orientation="16,0"
       id="guide4077" />
    <sodipodi:guide
       position="3.0000044,3.0000296"
       orientation="0,16"
       id="guide4079" />
    <sodipodi:guide
       position="19.000004,3.0000296"
       orientation="-16,0"
       id="guide4081" />
    <sodipodi:guide
       position="19.000004,19.00003"
       orientation="0,-16"
       id="guide4083" />
    <inkscape:grid
       type="xygrid"
       id="grid4085" />
  </sodipodi:namedview>
  <metadata
     id="metadata3054">
    <rdf:RDF>
      <cc:Work
         rdf:about="">
        <dc:format>image/svg+xml</dc:format>
        <dc:type
           rdf:resource="http://purl.org/dc/dcmitype/StillImage" />
        <dc:title />
      </cc:Work>
    </rdf:RDF>
  </metadata>
  <g
     inkscape:label="Capa 1"
     inkscape:groupmode="layer"
     id="layer1"
     transform="translate(-421.71429,-525.79074)">
    <path
       style="opacity:1;fill:#da4453;fill-opacity:1;stroke:none"
       d="M 11 3 C 6.5680082 3 3 6.5680082 3 11 C 3 15.431992 6.5680082 19 11 19 C 15.431992 19 19 15.431992 19 11 C 19 6.5680082 15.431992 3 11 3 z M 11 4 C 12.758459 4 14.357001 4.6457281 15.583984 5.7089844 L 11 10.292969 L 6.4160156 5.7089844 C 7.6429995 4.6457281 9.2415412 4 11 4 z M 6.1699219 5.9316406 L 5.9316406 6.1699219 C 6.009116 6.0886282 6.0886282 6.009116 6.1699219 5.9316406 z M 15.830078 5.9316406 C 15.911372 6.009116 15.990884 6.0886282 16.068359 6.1699219 L 15.830078 5.9316406 z M 5.7089844 6.4160156 L 10.292969 11 L 5.7089844 15.583984 C 4.6457281 14.357001 4 12.758459 4 11 C 4 9.2415412 4.6457281 7.6429995 5.7089844 6.4160156 z M 16.291016 6.4160156 C 17.354272 7.6429995 18 9.2415412 18 11 C 18 12.758459 17.354272 14.357001 16.291016 15.583984 L 11.707031 11 L 16.291016 6.4160156 z M 11 11.707031 L 15.583984 16.291016 C 14.357001 17.354272 12.758459 18 11 18 C 9.2415412 18 7.6429995 17.354272 6.4160156 16.291016 L 11 11.707031 z M 5.9316406 15.830078 L 6.1699219 16.068359 C 6.0886282 15.990884 6.009116 15.911372 5.9316406 15.830078 z M 16.068359 15.830078 C 15.990884 15.911372 15.911372 15.990884 15.830078 16.068359 L 16.068359 15.830078 z "
       transform="translate(421.71429,525.79074)"
       id="rect4110" />
  </g>
</svg>
