<?xml version="1.0" encoding="UTF-8" standalone="no"?>
<!-- Created with Inkscape (http://www.inkscape.org/) -->

<svg
   xmlns:dc="http://purl.org/dc/elements/1.1/"
   xmlns:cc="http://creativecommons.org/ns#"
   xmlns:rdf="http://www.w3.org/1999/02/22-rdf-syntax-ns#"
   xmlns:svg="http://www.w3.org/2000/svg"
   xmlns="http://www.w3.org/2000/svg"
   xmlns:sodipodi="http://sodipodi.sourceforge.net/DTD/sodipodi-0.dtd"
   xmlns:inkscape="http://www.inkscape.org/namespaces/inkscape"
   width="22"
   height="22"
   id="svg2"
   version="1.1"
   inkscape:version="0.48+devel r"
   sodipodi:docname="im-google.svg">
  <defs
     id="defs4" />
  <sodipodi:namedview
     id="base"
     pagecolor="#ffffff"
     bordercolor="#666666"
     borderopacity="1.0"
     inkscape:pageopacity="0.0"
     inkscape:pageshadow="2"
     inkscape:zoom="32"
     inkscape:cx="14.311076"
     inkscape:cy="11.02608"
     inkscape:document-units="px"
     inkscape:current-layer="layer1"
     showgrid="true"
     inkscape:window-width="1366"
     inkscape:window-height="668"
     inkscape:window-x="-2"
     inkscape:window-y="23"
     inkscape:window-maximized="1"
     inkscape:showpageshadow="false"
     showguides="true">
    <inkscape:grid
       type="xygrid"
       id="grid4109" />
    <sodipodi:guide
       position="2,20.000017"
       orientation="18,0"
       id="guide4113" />
    <sodipodi:guide
       position="2,2.0000174"
       orientation="0,18"
       id="guide4115" />
    <sodipodi:guide
       position="20,2.0000174"
       orientation="-18,0"
       id="guide4117" />
    <sodipodi:guide
       position="20,20.000017"
       orientation="0,-18"
       id="guide4119" />
    <sodipodi:guide
       position="3,19.000017"
       orientation="16,0"
       id="guide4121" />
    <sodipodi:guide
       position="3,3.0000174"
       orientation="0,16"
       id="guide4123" />
    <sodipodi:guide
       position="19,3.0000174"
       orientation="-16,0"
       id="guide4125" />
    <sodipodi:guide
       position="19,19.000017"
       orientation="0,-16"
       id="guide4127" />
  </sodipodi:namedview>
  <metadata
     id="metadata7">
    <rdf:RDF>
      <cc:Work
         rdf:about="">
        <dc:format>image/svg+xml</dc:format>
        <dc:type
           rdf:resource="http://purl.org/dc/dcmitype/StillImage" />
        <dc:title />
      </cc:Work>
    </rdf:RDF>
  </metadata>
  <g
     inkscape:label="Capa 1"
     inkscape:groupmode="layer"
     id="layer1"
     transform="translate(0,-1030.3622)">
    <path
       sodipodi:nodetypes="ccccccscccsscccccccssccccccccsccccccccccc"
       inkscape:connector-curvature="0"
       id="path4077-3"
       d="m 11.610909,1033.3622 c -0.181406,-10e-5 -0.597552,0.018 -1.105055,0.1135 -1.1995245,0.2262 -2.8614877,1.0386 -3.3307301,2.7581 -0.7257156,2.659 1.1361834,3.7315 1.1361834,3.7315 0,0 0.6635572,0.3918 0.9338496,0.4704 0.8123311,0.2364 1.6809291,0.1298 1.6809291,0.1298 0,0 -0.348426,1.1879 0.342411,2.028 0.164933,0.2005 0.04669,0.2109 0.04669,0.2109 0,0 -3.0219063,-0.073 -4.4513492,1.5088 -1.429443,1.5817 -0.6536945,3.0339 -0.6536945,3.0339 0,0 0.7517993,1.9155 3.9844237,2.0117 3.246984,0.097 5.240932,-1.9101 5.416326,-3.4232 0.08816,-0.7606 -0.0081,-1.4859 -0.37354,-2.1091 -0.355513,-0.606 -0.975612,-1.13 -1.57198,-1.6386 -0.370559,-0.316 -0.627652,-0.4834 -0.793771,-0.6652 -0.156938,-0.1716 -0.192322,-0.3857 -0.18677,-0.5516 0.0078,-0.2317 0.139434,-0.519 0.52918,-0.9896 0.711021,-0.8584 0.893358,-0.7365 1.322953,-1.3791 0.128789,-0.1926 0.225791,-0.4897 0.357977,-0.9085 0.07963,-0.2522 0.06225,-0.5031 0.06226,-0.7463 1.5e-5,-0.5255 -0.125416,-1.0379 -0.326847,-1.4601 -0.374336,-0.7846 -1.014928,-1.2919 -1.027233,-1.3304 l 1.120619,0 1.276259,-0.7787 -4.295706,-0.016 c -1.4e-5,-2e-4 -0.03291,-10e-5 -0.09338,-10e-5 z m -0.918286,0.73 c 0.656518,0.01 1.634657,0.3582 2.225674,2.2065 1.01421,3.1714 -1.105055,3.6666 -1.105055,3.6666 0,0 -2.4319667,0.387 -2.8793684,-2.4337 -0.4557541,-2.8731 0.6552105,-3.0259 1.0894914,-3.3096 0,0 0.275347,-0.1326 0.669258,-0.1298 z m 1.322954,9.3612 c 0,0 1.950052,1.2339 2.132289,2.1415 0.204179,1.0167 0.218818,1.7524 -1.260697,2.5633 -0.436762,0.2395 -1.198188,0.2738 -1.680928,0.2758 -1.18652,0.01 -2.0940873,-0.4589 -2.5369574,-0.6976 -0.2301548,-0.1239 -1.4911852,-1.6304 -0.544746,-2.9689 0.2380672,-0.3367 0.5019525,-0.4936 0.7470798,-0.6652 0.5216665,-0.365 1.0268379,-0.5287 1.9922116,-0.6165 0.321089,-0.029 0.731591,0 1.151748,-0.032 z"
       style="display:inline;fill:#4d4d4d;fill-opacity:1;stroke:none" />
  </g>
</svg>
