<?xml version="1.0" encoding="UTF-8" standalone="no"?>
<!-- Created with Inkscape (http://www.inkscape.org/) -->

<svg
   xmlns:dc="http://purl.org/dc/elements/1.1/"
   xmlns:cc="http://creativecommons.org/ns#"
   xmlns:rdf="http://www.w3.org/1999/02/22-rdf-syntax-ns#"
   xmlns:svg="http://www.w3.org/2000/svg"
   xmlns="http://www.w3.org/2000/svg"
   xmlns:sodipodi="http://sodipodi.sourceforge.net/DTD/sodipodi-0.dtd"
   xmlns:inkscape="http://www.inkscape.org/namespaces/inkscape"
   width="22"
   height="22"
   id="svg3813"
   version="1.1"
   inkscape:version="0.91 r13725"
   sodipodi:docname="kr_diskusage.svg">
  <defs
     id="defs3815" />
  <sodipodi:namedview
     id="base"
     pagecolor="#ffffff"
     bordercolor="#666666"
     borderopacity="1.0"
     inkscape:pageopacity="0.0"
     inkscape:pageshadow="2"
     inkscape:zoom="32"
     inkscape:cx="14.427263"
     inkscape:cy="11.039521"
     inkscape:document-units="px"
     inkscape:current-layer="layer1"
     showgrid="true"
     fit-margin-top="0"
     fit-margin-left="0"
     fit-margin-right="0"
     fit-margin-bottom="0"
     inkscape:window-width="1920"
     inkscape:window-height="1021"
     inkscape:window-x="-4"
     inkscape:window-y="0"
     inkscape:window-maximized="1"
     inkscape:showpageshadow="false">
    <inkscape:grid
       type="xygrid"
       id="grid4109" />
    <sodipodi:guide
       position="2.0000072,19.999993"
       orientation="18,0"
       id="guide4115" />
    <sodipodi:guide
       position="2.0000072,1.9999929"
       orientation="0,18"
       id="guide4117" />
    <sodipodi:guide
       position="20.000007,1.9999929"
       orientation="-18,0"
       id="guide4119" />
    <sodipodi:guide
       position="20.000007,19.999993"
       orientation="0,-18"
       id="guide4121" />
    <sodipodi:guide
       position="3.0000072,18.999993"
       orientation="16,0"
       id="guide4123" />
    <sodipodi:guide
       position="3.0000072,2.9999929"
       orientation="0,16"
       id="guide4125" />
    <sodipodi:guide
       position="19.000007,2.9999929"
       orientation="-16,0"
       id="guide4127" />
    <sodipodi:guide
       position="19.000007,18.999993"
       orientation="0,-16"
       id="guide4129" />
  </sodipodi:namedview>
  <metadata
     id="metadata3818">
    <rdf:RDF>
      <cc:Work
         rdf:about="">
        <dc:format>image/svg+xml</dc:format>
        <dc:type
           rdf:resource="http://purl.org/dc/dcmitype/StillImage" />
        <dc:title></dc:title>
      </cc:Work>
    </rdf:RDF>
  </metadata>
  <g
     inkscape:label="Capa 1"
     inkscape:groupmode="layer"
     id="layer1"
     transform="translate(-378.85714,-540.07647)">
    <path
       inkscape:connector-curvature="0"
       style="color:#000000;text-decoration:none;text-decoration-line:none;text-decoration-style:solid;text-decoration-color:#000000;clip-rule:nonzero;display:inline;overflow:visible;visibility:visible;opacity:1;isolation:auto;mix-blend-mode:normal;color-interpolation:sRGB;color-interpolation-filters:linearRGB;solid-color:#000000;solid-opacity:1;fill:#4d4d4d;fill-opacity:1;fill-rule:nonzero;stroke:none;stroke-width:1;stroke-linecap:butt;stroke-linejoin:miter;stroke-miterlimit:4;stroke-dasharray:none;stroke-dashoffset:0;stroke-opacity:1;color-rendering:auto;image-rendering:auto;shape-rendering:auto;text-rendering:auto;enable-background:accumulate"
       d="m 389.85714,543.07647 c -4.432,0 -8,3.568 -8,8 0,4.432 3.568,8 8,8 4.432,0 8,-3.568 8,-8 0,-4.432 -3.568,-8 -8,-8 z m 0,1 c 3.878,0 7,3.122 7,7 0,3.878 -3.122,7 -7,7 -3.878,0 -7,-3.122 -7,-7 0,-3.878 3.122,-7 7,-7 z"
       id="rect4185" />
    <path
       inkscape:connector-curvature="0"
       style="color:#000000;text-decoration:none;text-decoration-line:none;text-decoration-style:solid;text-decoration-color:#000000;clip-rule:nonzero;display:inline;overflow:visible;visibility:visible;opacity:1;isolation:auto;mix-blend-mode:normal;color-interpolation:sRGB;color-interpolation-filters:linearRGB;solid-color:#000000;solid-opacity:1;fill:#4d4d4d;fill-opacity:1;fill-rule:nonzero;stroke:none;stroke-width:1;stroke-linecap:butt;stroke-linejoin:miter;stroke-miterlimit:4;stroke-dasharray:none;stroke-dashoffset:0;stroke-opacity:1;color-rendering:auto;image-rendering:auto;shape-rendering:auto;text-rendering:auto;enable-background:accumulate"
       d="m 389.85714,547.07647 c -2.216,0 -4,1.784 -4,4 0,2.216 1.784,4 4,4 2.216,0 4,-1.784 4,-4 0,-2.216 -1.784,-4 -4,-4 z m 0,1 c 0.46399,0 0.89764,0.11233 1.28906,0.29883 0.18113,-0.1837 0.43139,-0.29883 0.71094,-0.29883 0.554,0 1,0.446 1,1 0,0.27955 -0.11513,0.52981 -0.29883,0.71094 0.18651,0.39142 0.29883,0.82507 0.29883,1.28906 0,1.662 -1.338,3 -3,3 -1.662,0 -3,-1.338 -3,-3 0,-1.662 1.338,-3 3,-3 z"
       id="rect4225" />
    <path
       inkscape:connector-curvature="0"
       style="color:#000000;text-decoration:none;text-decoration-line:none;text-decoration-style:solid;text-decoration-color:#000000;clip-rule:nonzero;display:inline;overflow:visible;visibility:visible;opacity:1;isolation:auto;mix-blend-mode:normal;color-interpolation:sRGB;color-interpolation-filters:linearRGB;solid-color:#000000;solid-opacity:1;fill:#4d4d4d;fill-opacity:1;fill-rule:nonzero;stroke:none;stroke-width:1;stroke-linecap:butt;stroke-linejoin:miter;stroke-miterlimit:4;stroke-dasharray:none;stroke-dashoffset:0;stroke-opacity:1;color-rendering:auto;image-rendering:auto;shape-rendering:auto;text-rendering:auto;enable-background:accumulate"
       d="m 391.85714,547.07647 c -1.108,0 -2,0.892 -2,2 0,1.108 0.892,2 2,2 1.108,0 2,-0.892 2,-2 0,-1.108 -0.892,-2 -2,-2 z m 0,1 c 0.554,0 1,0.446 1,1 0,0.554 -0.446,1 -1,1 -0.554,0 -1,-0.446 -1,-1 0,-0.554 0.446,-1 1,-1 z"
       id="rect4230" />
  </g>
</svg>
