<?xml version="1.0" encoding="UTF-8" standalone="no"?>
<!-- Created with Inkscape (http://www.inkscape.org/) -->

<svg
   xmlns:dc="http://purl.org/dc/elements/1.1/"
   xmlns:cc="http://creativecommons.org/ns#"
   xmlns:rdf="http://www.w3.org/1999/02/22-rdf-syntax-ns#"
   xmlns:svg="http://www.w3.org/2000/svg"
   xmlns="http://www.w3.org/2000/svg"
   xmlns:sodipodi="http://sodipodi.sourceforge.net/DTD/sodipodi-0.dtd"
   xmlns:inkscape="http://www.inkscape.org/namespaces/inkscape"
   width="22"
   height="22"
   id="svg2"
   version="1.1"
   inkscape:version="0.91+devel r"
   viewBox="0 0 22 22"
   sodipodi:docname="kt-remove-feeds.svg">
  <defs
     id="defs4" />
  <sodipodi:namedview
     id="base"
     pagecolor="#ffffff"
     bordercolor="#666666"
     borderopacity="1.0"
     inkscape:pageopacity="0.0"
     inkscape:pageshadow="2"
     inkscape:zoom="33.91186"
     inkscape:cx="1.5536195"
     inkscape:cy="8.6541092"
     inkscape:document-units="px"
     inkscape:current-layer="layer1"
     showgrid="true"
     units="px"
     borderlayer="true"
     inkscape:showpageshadow="false"
     inkscape:window-width="2560"
     inkscape:window-height="962"
     inkscape:window-x="-4"
     inkscape:window-y="32"
     inkscape:window-maximized="1"
     showguides="true"
     inkscape:object-nodes="true">
    <sodipodi:guide
       position="2,20.000017"
       orientation="18,0"
       id="guide4066" />
    <sodipodi:guide
       position="2,2.0000174"
       orientation="0,18"
       id="guide4068" />
    <sodipodi:guide
       position="20,2.0000174"
       orientation="-18,0"
       id="guide4070" />
    <sodipodi:guide
       position="20,20.000017"
       orientation="0,-18"
       id="guide4072" />
    <sodipodi:guide
       position="3,19.000017"
       orientation="16,0"
       id="guide4074" />
    <sodipodi:guide
       position="3,3.0000174"
       orientation="0,16"
       id="guide4076" />
    <sodipodi:guide
       position="19,3.0000174"
       orientation="-16,0"
       id="guide4078" />
    <sodipodi:guide
       position="19,19.000017"
       orientation="0,-16"
       id="guide4080" />
    <inkscape:grid
       type="xygrid"
       id="grid4101" />
    <sodipodi:guide
       position="8,19.000017"
       orientation="0,-5"
       id="guide4124" />
    <sodipodi:guide
       position="11,3.0000174"
       orientation="0,4"
       id="guide4241" />
  </sodipodi:namedview>
  <metadata
     id="metadata7">
    <rdf:RDF>
      <cc:Work
         rdf:about="">
        <dc:format>image/svg+xml</dc:format>
        <dc:type
           rdf:resource="http://purl.org/dc/dcmitype/StillImage" />
        <dc:title />
      </cc:Work>
    </rdf:RDF>
  </metadata>
  <g
     inkscape:label="Capa 1"
     inkscape:groupmode="layer"
     id="layer1"
     transform="translate(0,-1030.3622)">
    <rect
       style="opacity:1;fill:#da4453;fill-opacity:1;stroke:none;stroke-width:2.79999995;stroke-miterlimit:4;stroke-dasharray:none;stroke-opacity:0.55026455"
       id="rect4166"
       width="5.0000038"
       height="1"
       x="14.000005"
       y="1046.3622" />
    <path
       inkscape:connector-curvature="0"
       style="opacity:1;fill:#4d4d4d;fill-opacity:1;stroke:none;stroke-width:10.66666889;stroke-opacity:1"
       d="m 3,1033.3622 v 2 a 13.999998,13.999998 0 0 1 12.632812,8 h 2.1875 A 15.999998,15.999998 0 0 0 3,1033.3622 Z m 0,4 v 2 a 10,10 0 0 1 8,4.0293 v -0.029 h 1 1.380859 A 12,12 0 0 0 3,1037.3622 Z m 0,4 v 2 a 6,5.9999871 0 0 1 6,6 h 2 a 8,7.9999828 0 0 0 -8,-8 z m 1.5,5 a 1.5,1.5 0 0 0 -1.5,1.5 1.5,1.5 0 0 0 1.5,1.5 1.5,1.5 0 0 0 1.5,-1.5 1.5,1.5 0 0 0 -1.5,-1.5 z"
       id="circle4170" />
  </g>
</svg>
