<?xml version="1.0" encoding="UTF-8" standalone="no"?>
<!-- Created with Inkscape (http://www.inkscape.org/) -->

<svg
   xmlns:dc="http://purl.org/dc/elements/1.1/"
   xmlns:cc="http://creativecommons.org/ns#"
   xmlns:rdf="http://www.w3.org/1999/02/22-rdf-syntax-ns#"
   xmlns:svg="http://www.w3.org/2000/svg"
   xmlns="http://www.w3.org/2000/svg"
   xmlns:sodipodi="http://sodipodi.sourceforge.net/DTD/sodipodi-0.dtd"
   xmlns:inkscape="http://www.inkscape.org/namespaces/inkscape"
   width="22"
   height="22"
   id="svg3049"
   version="1.1"
   inkscape:version="0.48+devel r"
   sodipodi:docname="run-build.svg"
   inkscape:export-filename="/home/uri/.kde/share/icons/NITRUX-KDE/16x16/actions/view-right-new.png"
   inkscape:export-xdpi="30"
   inkscape:export-ydpi="30">
  <defs
     id="defs3051" />
  <sodipodi:namedview
     id="base"
     pagecolor="#ffffff"
     bordercolor="#666666"
     borderopacity="1.0"
     inkscape:pageopacity="0.0"
     inkscape:pageshadow="2"
     inkscape:zoom="24.075123"
     inkscape:cx="5.4941445"
     inkscape:cy="13.249798"
     inkscape:document-units="px"
     inkscape:current-layer="layer1"
     showgrid="true"
     fit-margin-top="0"
     fit-margin-left="0"
     fit-margin-right="0"
     fit-margin-bottom="0"
     inkscape:window-width="1366"
     inkscape:window-height="666"
     inkscape:window-x="-2"
     inkscape:window-y="25"
     inkscape:window-maximized="1"
     inkscape:showpageshadow="false"
     borderlayer="true">
    <sodipodi:guide
       position="2.0000044,20.00003"
       orientation="18,0"
       id="guide4067" />
    <sodipodi:guide
       position="2.0000044,2.0000296"
       orientation="0,18"
       id="guide4069" />
    <sodipodi:guide
       position="20.000004,2.0000296"
       orientation="-18,0"
       id="guide4071" />
    <sodipodi:guide
       position="20.000004,20.00003"
       orientation="0,-18"
       id="guide4073" />
    <sodipodi:guide
       position="3.0000044,19.00003"
       orientation="16,0"
       id="guide4077" />
    <sodipodi:guide
       position="3.0000044,3.0000296"
       orientation="0,16"
       id="guide4079" />
    <sodipodi:guide
       position="19.000004,3.0000296"
       orientation="-16,0"
       id="guide4081" />
    <sodipodi:guide
       position="19.000004,19.00003"
       orientation="0,-16"
       id="guide4083" />
    <inkscape:grid
       type="xygrid"
       id="grid4085" />
  </sodipodi:namedview>
  <metadata
     id="metadata3054">
    <rdf:RDF>
      <cc:Work
         rdf:about="">
        <dc:format>image/svg+xml</dc:format>
        <dc:type
           rdf:resource="http://purl.org/dc/dcmitype/StillImage" />
        <dc:title />
      </cc:Work>
    </rdf:RDF>
  </metadata>
  <g
     inkscape:label="Capa 1"
     inkscape:groupmode="layer"
     id="layer1"
     transform="translate(-421.71429,-525.79074)">
    <path
       style="opacity:1;fill:#4d4d4d;fill-opacity:1;stroke:none;stroke-width:2.79999995;stroke-miterlimit:4;stroke-dasharray:none;stroke-opacity:0.55026455"
       d="m 10,3 0,1.078125 C 8.8122451,4.2471732 7.7239491,4.7101021 6.8085938,5.3945312 L 5.4140625,4 4,5.4140625 5.3945312,6.8085938 C 4.7101021,7.7239491 4.2471732,8.8122451 4.078125,10 L 3,10 l 0,2 1.078125,0 c 0.1690482,1.187755 0.6319771,2.276051 1.3164062,3.191406 L 4,16.585938 5.4140625,18 6.8085938,16.605469 C 7.7239491,17.289898 8.8122451,17.752827 10,17.921875 L 10,19 l 2,0 0,-1.078125 c 1.187755,-0.169048 2.276051,-0.631977 3.191406,-1.316406 L 16.585938,18 18,16.585938 16.605469,15.191406 C 17.289898,14.276051 17.752827,13.187755 17.921875,12 L 19,12 19,10 17.921875,10 C 17.752827,8.8122451 17.289898,7.7239491 16.605469,6.8085938 L 18,5.4140625 16.585938,4 15.191406,5.3945312 C 14.276051,4.7101021 13.187755,4.2471732 12,4.078125 L 12,3 Z m 1,2 c 0.341536,0 0.674346,0.035541 1,0.089844 0.913243,0.1522826 1.754037,0.5060131 2.476562,1.0195312 0.547197,0.3889067 1.025156,0.8668665 1.414063,1.4140625 C 16.404143,8.2459631 16.757874,9.0867569 16.910156,10 16.964459,10.325654 17,10.658464 17,11 c 0,0.341536 -0.03554,0.674346 -0.08984,1 -0.152282,0.913243 -0.506013,1.754037 -1.019531,2.476562 -0.388907,0.547197 -0.866867,1.025156 -1.414063,1.414063 C 13.754037,16.404143 12.913243,16.757874 12,16.910156 11.674346,16.964459 11.341536,17 11,17 10.658464,17 10.325654,16.964459 10,16.910156 9.0867569,16.757874 8.2459631,16.404143 7.5234375,15.890625 6.9762415,15.501718 6.4982817,15.023758 6.109375,14.476562 5.5958569,13.754037 5.2421264,12.913243 5.0898438,12 5.0355412,11.674346 5,11.341536 5,11 5,10.658464 5.0355412,10.325654 5.0898438,10 5.2421264,9.0867569 5.5958569,8.2459631 6.109375,7.5234375 6.4982817,6.9762415 6.9762415,6.4982817 7.5234375,6.109375 8.2459631,5.5958569 9.0867569,5.2421264 10,5.0898438 10.325654,5.0355412 10.658464,5 11,5 Z m -2,3 0,6 5,-3 z"
       transform="translate(421.71429,525.79074)"
       id="rect4144"
       inkscape:connector-curvature="0"
       sodipodi:nodetypes="cccccccccccccccccccccccccccccccccssssssssssssssssssssscccc" />
  </g>
</svg>
