<?xml version="1.0" encoding="UTF-8" standalone="no"?>
<!-- Created with Inkscape (http://www.inkscape.org/) -->

<svg
   xmlns:dc="http://purl.org/dc/elements/1.1/"
   xmlns:cc="http://creativecommons.org/ns#"
   xmlns:rdf="http://www.w3.org/1999/02/22-rdf-syntax-ns#"
   xmlns:svg="http://www.w3.org/2000/svg"
   xmlns="http://www.w3.org/2000/svg"
   xmlns:xlink="http://www.w3.org/1999/xlink"
   xmlns:sodipodi="http://sodipodi.sourceforge.net/DTD/sodipodi-0.dtd"
   xmlns:inkscape="http://www.inkscape.org/namespaces/inkscape"
   width="64"
   height="64"
   id="svg5453"
   version="1.1"
   inkscape:version="0.91 r13725"
   sodipodi:docname="network-workgroup.svg">
  <defs
     id="defs5455">
    <linearGradient
       id="linearGradient4172-9"
       inkscape:collect="always">
      <stop
         id="stop4174-7"
         offset="0"
         style="stop-color:#3daee9;stop-opacity:1" />
      <stop
         id="stop4176-9"
         offset="1"
         style="stop-color:#6cc1ef;stop-opacity:1" />
    </linearGradient>
    <linearGradient
       gradientTransform="matrix(1,0,0,0.99967455,0,0.17645)"
       gradientUnits="userSpaceOnUse"
       y2="499.78421"
       x2="414.57144"
       y1="541.79797"
       x1="414.57144"
       id="linearGradient4178-9"
       xlink:href="#linearGradient4172-9"
       inkscape:collect="always" />
  </defs>
  <sodipodi:namedview
     id="base"
     pagecolor="#ffffff"
     bordercolor="#666666"
     borderopacity="1.0"
     inkscape:pageopacity="0"
     inkscape:pageshadow="2"
     inkscape:zoom="17.081048"
     inkscape:cx="46.500505"
     inkscape:cy="24.372484"
     inkscape:document-units="px"
     inkscape:current-layer="layer1"
     showgrid="true"
     fit-margin-top="0"
     fit-margin-left="0"
     fit-margin-right="0"
     fit-margin-bottom="0"
     inkscape:window-width="2560"
     inkscape:window-height="955"
     inkscape:window-x="0"
     inkscape:window-y="35"
     inkscape:window-maximized="1"
     inkscape:showpageshadow="false"
     borderlayer="true"
     showguides="true">
    <sodipodi:guide
       position="6.0000117,57.999996"
       orientation="51.999969,0"
       id="guide4097" />
    <sodipodi:guide
       position="6.0000117,6.0000264"
       orientation="0,52"
       id="guide4099" />
    <sodipodi:guide
       position="58.000012,6.0000264"
       orientation="-51.999969,0"
       id="guide4101" />
    <sodipodi:guide
       position="58.000012,57.999996"
       orientation="0,-52"
       id="guide4103" />
    <sodipodi:guide
       position="3.0000117,60.999996"
       orientation="57.999969,0"
       id="guide4105" />
    <sodipodi:guide
       position="3.0000117,3.0000264"
       orientation="0,58"
       id="guide4107" />
    <sodipodi:guide
       position="61.000012,3.0000264"
       orientation="-57.999969,0"
       id="guide4109" />
    <sodipodi:guide
       position="61.000012,60.999996"
       orientation="0,-58"
       id="guide4111" />
    <inkscape:grid
       type="xygrid"
       id="grid4115" />
    <sodipodi:guide
       position="20.000012,38.999996"
       orientation="23.999969,0"
       id="guide4129" />
    <sodipodi:guide
       position="20.000012,15.000026"
       orientation="0,24"
       id="guide4131" />
    <sodipodi:guide
       position="44.000012,15.000026"
       orientation="-23.999969,0"
       id="guide4133" />
    <sodipodi:guide
       position="44.000012,38.999996"
       orientation="0,-24"
       id="guide4135" />
    <sodipodi:guide
       position="22.000015,36.999992"
       orientation="19.999975,0"
       id="guide4137" />
    <sodipodi:guide
       position="42.000015,17.000017"
       orientation="-19.999975,0"
       id="guide4141" />
    <sodipodi:guide
       position="42.000015,36.999992"
       orientation="0,-20"
       id="guide4143" />
    <sodipodi:guide
       position="20.000012,15.000271"
       orientation="0,24"
       id="guide4138" />
    <sodipodi:guide
       position="44.000012,15.000271"
       orientation="-2,0"
       id="guide4140" />
    <sodipodi:guide
       position="44.000012,17.000271"
       orientation="0,-24"
       id="guide4142" />
    <sodipodi:guide
       position="23.000012,17.000271"
       orientation="0,3"
       id="guide4162" />
    <sodipodi:guide
       position="26.000012,36.999996"
       orientation="0,-3"
       id="guide4166" />
    <sodipodi:guide
       position="38.000073,17.000271"
       orientation="0,3"
       id="guide4170" />
    <sodipodi:guide
       position="41.000073,36.999996"
       orientation="0,-3"
       id="guide4174" />
    <sodipodi:guide
       position="22.000012,36.999996"
       orientation="1.9999695,0"
       id="guide4180" />
    <sodipodi:guide
       position="22.000012,35.000026"
       orientation="0,20"
       id="guide4182" />
    <sodipodi:guide
       position="42.000012,35.000026"
       orientation="-1.9999695,0"
       id="guide4184" />
    <sodipodi:guide
       position="42.000012,36.999996"
       orientation="0,-20"
       id="guide4186" />
    <sodipodi:guide
       position="42.000012,19.000271"
       orientation="0,-20"
       id="guide4194" />
  </sodipodi:namedview>
  <metadata
     id="metadata5458">
    <rdf:RDF>
      <cc:Work
         rdf:about="">
        <dc:format>image/svg+xml</dc:format>
        <dc:type
           rdf:resource="http://purl.org/dc/dcmitype/StillImage" />
        <dc:title></dc:title>
      </cc:Work>
    </rdf:RDF>
  </metadata>
  <g
     inkscape:label="Capa 1"
     inkscape:groupmode="layer"
     id="layer1"
     transform="translate(-384.57143,-483.798)">
    <g
       id="layer1-5"
       inkscape:label="Capa 1"
       transform="translate(0,5.0000001e-6)">
      <path
         sodipodi:nodetypes="ccsssssccccccc"
         inkscape:connector-curvature="0"
         id="rect4180-0"
         d="m 388.57143,489.79812 0,5 0,22 c 0,0.55373 0.446,1 1,1 l 54,0 c 0.55399,0 1,-0.44627 1,-1 l 0,-21.99023 c 0,-0.003 -0.002,-0.006 -0.002,-0.01 l 0.002,0 0,-1 -28,0 -4,-4 -24,0 z"
         style="fill:#147eb8;fill-opacity:1;stroke:none" />
      <path
         sodipodi:nodetypes="cccccscccccccccc"
         inkscape:connector-curvature="0"
         id="rect4113-6"
         d="m 410.57143,499.79812 -4,4 -19,0 0,1 0.002,0 c -5e-5,0.004 -0.002,0.008 -0.002,0.0117 l 0,35.98828 0,1 1,0 56,0 1,0 0,-1 0,-35.98828 0,-0.0117 0,-5 z"
         style="fill:url(#linearGradient4178-9);fill-opacity:1;stroke:none" />
      <path
         sodipodi:nodetypes="cccccc"
         inkscape:connector-curvature="0"
         id="path4224"
         d="m 387.57144,503.79812 0,1 19.99999,0 3,-5 -4,4 z"
         style="fill:#ffffff;fill-opacity:0.23529412;fill-rule:evenodd;stroke:none;stroke-width:1px;stroke-linecap:butt;stroke-linejoin:miter;stroke-opacity:1" />
      <path
         sodipodi:nodetypes="cccccc"
         inkscape:connector-curvature="0"
         id="path4228"
         d="m 388.57143,502.79812 0,1 18,0 4,-4 -6,3 z"
         style="fill:#000000;fill-opacity:0.23529412;fill-rule:evenodd;stroke:none;stroke-width:1px;stroke-linecap:butt;stroke-linejoin:miter;stroke-opacity:1" />
      <path
         id="path4151-2-6"
         d="m 387.57143,540.7981 0,1 1,0 56,0 1,0 0,-1 -1,0 -56,0 -1,0 z"
         style="fill:#000000;fill-opacity:0.23529412;stroke:none"
         inkscape:connector-curvature="0" />
      <path
         sodipodi:nodetypes="cccccccc"
         inkscape:connector-curvature="0"
         id="path4196-9"
         transform="translate(384.57143,483.798)"
         d="m 28,6 3,5 2,0 27,0 0,-1 -27,0 -1,0 z"
         style="fill:#ffffff;fill-opacity:0.23529412;fill-rule:evenodd;stroke:none;stroke-width:1px;stroke-linecap:butt;stroke-linejoin:miter;stroke-opacity:1" />
    </g>
    <path
       style="opacity:1;fill:#1272a5;fill-opacity:1;stroke:none"
       d="M 22 27 L 22 47 L 42 47 L 42 27 L 22 27 z M 23 28 L 41 28 L 41 30 L 23 30 L 23 28 z M 24 31 L 25 31 L 25 35 L 24 35 L 24 31 z M 26 31 L 27 31 L 27 35 L 26 35 L 26 31 z M 28 31 L 29 31 L 29 35 L 28 35 L 28 31 z M 30 31 L 31 31 L 31 35 L 30 35 L 30 31 z M 32 31 L 33 31 L 33 35 L 32 35 L 32 31 z M 34 31 L 35 31 L 35 35 L 34 35 L 34 31 z M 36 31 L 37 31 L 37 35 L 36 35 L 36 31 z M 39 32 L 41 32 L 41 33 L 39 33 L 39 32 z M 23 36 L 41 36 L 41 38 L 23 38 L 23 36 z M 24 39 L 25 39 L 25 43 L 24 43 L 24 39 z M 26 39 L 27 39 L 27 43 L 26 43 L 26 39 z M 28 39 L 29 39 L 29 43 L 28 43 L 28 39 z M 30 39 L 31 39 L 31 43 L 30 43 L 30 39 z M 32 39 L 33 39 L 33 43 L 32 43 L 32 39 z M 34 39 L 35 39 L 35 43 L 34 43 L 34 39 z M 36 39 L 37 39 L 37 43 L 36 43 L 36 39 z M 39 40 L 41 40 L 41 41 L 39 41 L 39 40 z M 23 44 L 41 44 L 41 46 L 23 46 L 23 44 z "
       transform="translate(384.57143,483.798)"
       id="rect4173" />
  </g>
</svg>
