<?xml version="1.0" encoding="UTF-8" standalone="no"?>
<!-- Created with Inkscape (http://www.inkscape.org/) -->

<svg
   xmlns:dc="http://purl.org/dc/elements/1.1/"
   xmlns:cc="http://creativecommons.org/ns#"
   xmlns:rdf="http://www.w3.org/1999/02/22-rdf-syntax-ns#"
   xmlns:svg="http://www.w3.org/2000/svg"
   xmlns="http://www.w3.org/2000/svg"
   xmlns:sodipodi="http://sodipodi.sourceforge.net/DTD/sodipodi-0.dtd"
   xmlns:inkscape="http://www.inkscape.org/namespaces/inkscape"
   width="16"
   height="16"
   id="svg2"
   version="1.1"
   inkscape:version="0.91 r13725"
   viewBox="0 0 16 16"
   sodipodi:docname="folder-owncloud.svg">
  <defs
     id="defs4" />
  <sodipodi:namedview
     id="base"
     pagecolor="#ffffff"
     bordercolor="#666666"
     borderopacity="1.0"
     inkscape:pageopacity="0.0"
     inkscape:pageshadow="2"
     inkscape:zoom="15.839192"
     inkscape:cx="-2.0618199"
     inkscape:cy="10.957393"
     inkscape:document-units="px"
     inkscape:current-layer="layer1"
     showgrid="true"
     inkscape:showpageshadow="false"
     borderlayer="true"
     units="px"
     inkscape:window-width="1920"
     inkscape:window-height="1016"
     inkscape:window-x="-4"
     inkscape:window-y="0"
     inkscape:window-maximized="1"
     inkscape:snap-global="false"
     inkscape:snap-bbox="true"
     inkscape:object-nodes="true">
    <inkscape:grid
       type="xygrid"
       id="grid4062" />
    <sodipodi:guide
       position="2,14.000017"
       orientation="12,0"
       id="guide4066" />
    <sodipodi:guide
       position="2,2.0000174"
       orientation="0,12"
       id="guide4068" />
    <sodipodi:guide
       position="14,2.0000174"
       orientation="-12,0"
       id="guide4070" />
    <sodipodi:guide
       position="14,14.000017"
       orientation="0,-12"
       id="guide4072" />
  </sodipodi:namedview>
  <metadata
     id="metadata7">
    <rdf:RDF>
      <cc:Work
         rdf:about="">
        <dc:format>image/svg+xml</dc:format>
        <dc:type
           rdf:resource="http://purl.org/dc/dcmitype/StillImage" />
        <dc:title></dc:title>
      </cc:Work>
    </rdf:RDF>
  </metadata>
  <g
     inkscape:label="Capa 1"
     inkscape:groupmode="layer"
     id="layer1"
     transform="translate(0,-1036.3622)">
    <path
       inkscape:connector-curvature="0"
       style="color:#000000;text-indent:0;text-transform:none;block-progression:tb;fill:#4d4d4d;fill-opacity:1;enable-background:accumulate"
       d="m 7.433127,1040.3621 c -0.893174,0 -1.614786,0.7785 -1.614786,1.742 0,0.3971 0.122598,0.7626 0.329293,1.0553 0.448408,-0.5599 1.110178,-0.9154 1.849109,-0.9154 0.36151,0 0.704332,0.086 1.013217,0.2391 0.025,-0.122 0.038,-0.2489 0.038,-0.379 0,-0.9635 -0.721612,-1.742 -1.614787,-1.742 z m -2.108754,0.8061 c -0.465168,0 -0.839053,0.4067 -0.839053,0.9086 0,0.1623 0.03885,0.3158 0.107654,0.4472 0.280688,-0.1707 0.605209,-0.2698 0.949894,-0.2698 0.03327,0 0.0653,0 0.09816,0 -0.0037,-0.051 -0.0063,-0.1025 -0.0063,-0.1536 0,-0.2794 0.05627,-0.5453 0.155147,-0.7855 -0.13313,-0.097 -0.292632,-0.1503 -0.465447,-0.1503 z m 3.983184,0.6251 c -0.03437,0 -0.06749,0 -0.101324,0.012 0.01464,0.099 0.02532,0.1999 0.02532,0.3039 0,0.1616 -0.01907,0.3178 -0.05382,0.4679 0.407486,0.2432 0.745931,0.6072 0.968895,1.0486 0.231268,-0.13 0.489248,-0.2126 0.763092,-0.2323 -0.07057,-0.8927 -0.756172,-1.595 -1.602146,-1.595 z m -1.310821,0.6488 c -1.249821,0 -2.260717,1.0906 -2.260717,2.4388 0,1.3482 1.010816,2.4387 2.260717,2.4387 1.249899,0 2.260717,-1.0905 2.260717,-2.4387 0,-1.3484 -1.010898,-2.4388 -2.260717,-2.4388 z m -2.453879,0.012 c -0.969656,0 -1.754108,0.8463 -1.754108,1.8922 0,0.6158 0.271968,1.1609 0.69341,1.5062 0.177676,-0.3695 0.534529,-0.6215 0.946735,-0.6215 0.04981,0 0.09763,0.012 0.145651,0.014 -0.01507,-0.1183 -0.02217,-0.2393 -0.02217,-0.3621 0,-0.5867 0.17707,-1.1293 0.478087,-1.5676 -0.180199,-0.2433 -0.309157,-0.5356 -0.364122,-0.854 -0.04074,0 -0.08202,-0.012 -0.123486,-0.012 z m 5.496488,1.1272 c -0.29443,0 -0.57021,0.081 -0.813734,0.2184 0.138271,0.3306 0.215308,0.697 0.215308,1.0829 0,0.7223 -0.269213,1.3781 -0.706091,1.8546 0.320937,0.3842 0.786572,0.625 1.304501,0.625 0.969655,0 1.754108,-0.8462 1.754108,-1.8921 0,-1.046 -0.784493,-1.8888 -1.754108,-1.8888 z m -7.421719,0.2493 C 2.724772,1043.8302 2,1044.6051 2,1045.5688 c 0,0.9633 0.724772,1.7452 1.617986,1.7452 0.33997,0 0.65489,-0.1139 0.915054,-0.3074 -0.107502,-0.1801 -0.170979,-0.3956 -0.170979,-0.6251 0,-0.1191 0.01629,-0.2335 0.04749,-0.3415 -0.487047,-0.3797 -0.804252,-0.9974 -0.804252,-1.6941 0,-0.177 0.02162,-0.3481 0.06016,-0.5123 -0.016,-4e-4 -0.03138,0 -0.0475,0 z m 9.495752,1.496 c -0.04765,0 -0.09376,0.012 -0.139314,0.014 0.0026,0.044 0.0032,0.085 0.0032,0.1299 0,0.5553 -0.203212,1.0597 -0.531929,1.4344 0.161722,0.2028 0.399271,0.3313 0.668091,0.3313 0.489647,0 0.886574,-0.4247 0.886574,-0.953 0,-0.5282 -0.396907,-0.9563 -0.886574,-0.9563 z m -7.684523,0.1025 c -0.489608,0 -0.883374,0.4247 -0.883374,0.9528 0,0.5282 0.393762,0.9564 0.883374,0.9564 0.375306,0 0.693851,-0.2526 0.823213,-0.6079 -0.315657,-0.3468 -0.542529,-0.7893 -0.64277,-1.2807 -0.05866,-0.013 -0.118194,-0.021 -0.180479,-0.021 z"
       id="path4145-6" />
  </g>
</svg>
