<?xml version="1.0" encoding="UTF-8" standalone="no"?>
<!-- Created with Inkscape (http://www.inkscape.org/) -->

<svg
   xmlns:dc="http://purl.org/dc/elements/1.1/"
   xmlns:cc="http://creativecommons.org/ns#"
   xmlns:rdf="http://www.w3.org/1999/02/22-rdf-syntax-ns#"
   xmlns:svg="http://www.w3.org/2000/svg"
   xmlns="http://www.w3.org/2000/svg"
   xmlns:xlink="http://www.w3.org/1999/xlink"
   xmlns:sodipodi="http://sodipodi.sourceforge.net/DTD/sodipodi-0.dtd"
   xmlns:inkscape="http://www.inkscape.org/namespaces/inkscape"
   width="64"
   height="64"
   id="svg5453"
   version="1.1"
   inkscape:version="0.48.4 r9939"
   sodipodi:docname="folder-favorites.svg">
  <defs
     id="defs5455">
    <linearGradient
       id="linearGradient4233"
       inkscape:collect="always">
      <stop
         id="stop4235"
         offset="0"
         style="stop-color:#345671;stop-opacity:1;" />
      <stop
         id="stop4237"
         offset="1"
         style="stop-color:#345671;stop-opacity:0;" />
    </linearGradient>
    <linearGradient
       inkscape:collect="always"
       id="linearGradient4232-9">
      <stop
         style="stop-color:#3d6584;stop-opacity:1"
         offset="0"
         id="stop4234-5" />
      <stop
         style="stop-color:#4a7ba3;stop-opacity:1"
         offset="1"
         id="stop4236-4" />
    </linearGradient>
    <linearGradient
       id="linearGradient4172-6"
       inkscape:collect="always">
      <stop
         id="stop4174-8"
         offset="0"
         style="stop-color:#6298d5;stop-opacity:1" />
      <stop
         id="stop4176-2"
         offset="1"
         style="stop-color:#8ab7e1;stop-opacity:1" />
    </linearGradient>
    <linearGradient
       gradientTransform="matrix(1,0,0,0.99967455,-384.57143,-483.62167)"
       gradientUnits="userSpaceOnUse"
       y2="499.798"
       x2="414.57144"
       y1="541.79797"
       x1="414.57144"
       id="linearGradient4178-2"
       xlink:href="#linearGradient4172-6"
       inkscape:collect="always" />
    <linearGradient
       gradientTransform="matrix(1,0,0,0.99954446,-384.57143,-499.55484)"
       y2="505.798"
       x2="414.57144"
       y1="523.79797"
       x1="414.57144"
       gradientUnits="userSpaceOnUse"
       id="linearGradient4182-8"
       xlink:href="#linearGradient4232-9"
       inkscape:collect="always" />
    <linearGradient
       gradientUnits="userSpaceOnUse"
       y2="497.798"
       x2="404.57144"
       y1="477.798"
       x1="384.57144"
       id="linearGradient4239"
       xlink:href="#linearGradient4233"
       inkscape:collect="always" />
  </defs>
  <sodipodi:namedview
     id="base"
     pagecolor="#ffffff"
     bordercolor="#666666"
     borderopacity="1.0"
     inkscape:pageopacity="0"
     inkscape:pageshadow="2"
     inkscape:zoom="15.999999"
     inkscape:cx="27.198091"
     inkscape:cy="24.975832"
     inkscape:document-units="px"
     inkscape:current-layer="layer1"
     showgrid="true"
     fit-margin-top="0"
     fit-margin-left="0"
     fit-margin-right="0"
     fit-margin-bottom="0"
     inkscape:window-width="1864"
     inkscape:window-height="1060"
     inkscape:window-x="54"
     inkscape:window-y="-3"
     inkscape:window-maximized="1"
     inkscape:showpageshadow="false"
     borderlayer="true">
    <sodipodi:guide
       position="6.0000117,57.999996"
       orientation="51.999969,0"
       id="guide4097" />
    <sodipodi:guide
       position="6.0000117,6.0000264"
       orientation="0,52"
       id="guide4099" />
    <sodipodi:guide
       position="58.000012,6.0000264"
       orientation="-51.999969,0"
       id="guide4101" />
    <sodipodi:guide
       position="58.000012,57.999996"
       orientation="0,-52"
       id="guide4103" />
    <sodipodi:guide
       position="3.0000117,60.999996"
       orientation="57.999969,0"
       id="guide4105" />
    <sodipodi:guide
       position="3.0000117,3.0000264"
       orientation="0,58"
       id="guide4107" />
    <sodipodi:guide
       position="61.000012,3.0000264"
       orientation="-57.999969,0"
       id="guide4109" />
    <sodipodi:guide
       position="61.000012,60.999996"
       orientation="0,-58"
       id="guide4111" />
    <inkscape:grid
       type="xygrid"
       id="grid4115" />
    <sodipodi:guide
       position="20.000012,38.999996"
       orientation="23.999969,0"
       id="guide4129" />
    <sodipodi:guide
       position="20.000012,15.000026"
       orientation="0,24"
       id="guide4131" />
    <sodipodi:guide
       position="44.000012,15.000026"
       orientation="-23.999969,0"
       id="guide4133" />
    <sodipodi:guide
       position="44.000012,38.999996"
       orientation="0,-24"
       id="guide4135" />
    <sodipodi:guide
       position="22.000015,36.999992"
       orientation="19.999975,0"
       id="guide4137" />
    <sodipodi:guide
       position="22.000015,17.000017"
       orientation="0,20"
       id="guide4139" />
    <sodipodi:guide
       position="42.000015,17.000017"
       orientation="-19.999975,0"
       id="guide4141" />
    <sodipodi:guide
       position="42.000015,36.999992"
       orientation="0,-20"
       id="guide4143" />
    <sodipodi:guide
       position="35.000012,23.000026"
       orientation="6,0"
       id="guide4132" />
    <sodipodi:guide
       position="35.000012,17.000026"
       orientation="0,5.9999695"
       id="guide4134" />
    <sodipodi:guide
       position="40.999981,17.000026"
       orientation="-6,0"
       id="guide4136" />
    <sodipodi:guide
       position="40.999981,23.000026"
       orientation="0,-5.9999695"
       id="guide4138" />
  </sodipodi:namedview>
  <metadata
     id="metadata5458">
    <rdf:RDF>
      <cc:Work
         rdf:about="">
        <dc:format>image/svg+xml</dc:format>
        <dc:type
           rdf:resource="http://purl.org/dc/dcmitype/StillImage" />
        <dc:title />
      </cc:Work>
    </rdf:RDF>
  </metadata>
  <g
     inkscape:label="Capa 1"
     inkscape:groupmode="layer"
     id="layer1"
     transform="translate(-384.57143,-483.798)">
    <g
       id="layer1-3"
       inkscape:label="Capa 1">
      <path
         id="rect4180-7"
         transform="translate(384.57143,483.798)"
         d="m 4,6 0,5 0,22 c 0,0.55374 0.446,1 1,1 l 54,0 c 0.55399,0 1,-0.44626 1,-1 l 0,-21.990234 c 0,-0.0035 -0.0019,-0.0063 -0.002,-0.0098 L 60,11 60,10 32,10 29,6 4,6 Z"
         style="fill:url(#linearGradient4182-8);fill-opacity:1;stroke:none"
         inkscape:connector-curvature="0" />
      <path
         inkscape:connector-curvature="0"
         id="path4230"
         d="m 388.57143,489.798 26,26 1,1 29,-16.74316 0,-6.25684 -28,0 -3,-4 z"
         style="fill:url(#linearGradient4239);fill-opacity:1;fill-rule:evenodd;stroke:none;stroke-width:1px;stroke-linecap:butt;stroke-linejoin:miter;stroke-opacity:1" />
      <path
         id="rect4113-1"
         transform="translate(384.57143,483.798)"
         d="m 22,16 -3,4 -16,0 0,1 0.00195,0 C 3.0019037,21.004115 3,21.007592 3,21.011719 L 3,57 l 0,1 1,0 56,0 1,0 0,-1 L 61,21.011719 61,21 61,16 22,16 Z"
         style="fill:url(#linearGradient4178-2);fill-opacity:1;stroke:none"
         inkscape:connector-curvature="0" />
      <path
         id="path4151"
         transform="translate(384.57143,483.798)"
         d="m 3,57 0,1 1,0 56,0 1,0 0,-1 -1,0 -56,0 -1,0 z"
         style="fill:#2f6db0;fill-opacity:1;stroke:none"
         inkscape:connector-curvature="0" />
      <path
         inkscape:connector-curvature="0"
         id="path4222"
         d="m 444.57143,493.798 0,1 -29,0 -2,-5 3,4 z"
         style="fill:#8fb1cc;fill-opacity:1;fill-rule:evenodd;stroke:none;stroke-width:1px;stroke-linecap:butt;stroke-linejoin:miter;stroke-opacity:1" />
      <path
         inkscape:connector-curvature="0"
         id="path4224"
         d="m 387.57144,503.798 0,1 16.99999,0 2,-5 -3,4 z"
         style="fill:#ffffff;fill-opacity:0.23529412;fill-rule:evenodd;stroke:none;stroke-width:1px;stroke-linecap:butt;stroke-linejoin:miter;stroke-opacity:1" />
      <path
         inkscape:connector-curvature="0"
         id="path4228"
         d="m 388.57143,502.798 0,1 15,0 3,-4 -5,3 z"
         style="fill:#345671;fill-opacity:1;fill-rule:evenodd;stroke:none;stroke-width:1px;stroke-linecap:butt;stroke-linejoin:miter;stroke-opacity:1" />
    </g>
    <path
       style="font-size:medium;font-style:normal;font-variant:normal;font-weight:normal;font-stretch:normal;text-indent:0;text-align:start;text-decoration:none;line-height:normal;letter-spacing:normal;word-spacing:normal;text-transform:none;direction:ltr;block-progression:tb;writing-mode:lr-tb;text-anchor:start;baseline-shift:baseline;color:#000000;fill:#387ecc;fill-opacity:1;stroke:none;stroke-width:2;marker:none;visibility:visible;display:inline;overflow:visible;enable-background:accumulate;font-family:Sans;-inkscape-font-specification:Sans"
       d="m 416.57143,510.79801 c -3,6.99999 0,0 -3,6.99999 l -6.99998,1 0,0 -2e-5,0 5,5 -1,6.99998 0,2e-5 0,0 6,-4 6,3.99998 0,0 0,0 -1,-6.99998 5.00002,-5 0,0 0,0 -7.00002,-1 c -1.22917,-2.02083 10e-6,0 -3,-6.99999 z m 0,2.53124 2.09375,4.875 0.21875,0.5 0.53125,0.0937 5,0.71875 -3.5625,3.5625 -0.34375,0.375 0.0625,0.5 0.6875,4.75 -4.125,-2.75 -0.5625,-0.34375 -0.5625,0.34375 -4.125,2.75 0.6875,-4.75 0.0625,-0.5 -0.34375,-0.375 -3.5625,-3.5625 5,-0.71875 0.53125,-0.0937 0.21875,-0.5 z"
       id="path3024"
       inkscape:connector-curvature="0"
       sodipodi:nodetypes="cccccccccccccccccccccccccccccccccccccccc" />
  </g>
</svg>
