<?xml version="1.0" encoding="UTF-8" standalone="no"?>
<!-- Created with Inkscape (http://www.inkscape.org/) -->

<svg
   xmlns:dc="http://purl.org/dc/elements/1.1/"
   xmlns:cc="http://creativecommons.org/ns#"
   xmlns:rdf="http://www.w3.org/1999/02/22-rdf-syntax-ns#"
   xmlns:svg="http://www.w3.org/2000/svg"
   xmlns="http://www.w3.org/2000/svg"
   xmlns:sodipodi="http://sodipodi.sourceforge.net/DTD/sodipodi-0.dtd"
   xmlns:inkscape="http://www.inkscape.org/namespaces/inkscape"
   width="22"
   height="22"
   id="svg2"
   version="1.1"
   inkscape:version="0.91+devel r"
   viewBox="0 0 22 22"
   sodipodi:docname="user-trash.svg">
  <defs
     id="defs4" />
  <sodipodi:namedview
     id="base"
     pagecolor="#ffffff"
     bordercolor="#666666"
     borderopacity="1.0"
     inkscape:pageopacity="0.0"
     inkscape:pageshadow="2"
     inkscape:zoom="22.4"
     inkscape:cx="4.8689748"
     inkscape:cy="6.4821188"
     inkscape:document-units="px"
     inkscape:current-layer="layer1"
     showgrid="true"
     units="px"
     inkscape:showpageshadow="false"
     showborder="true"
     borderlayer="true"
     inkscape:window-width="2560"
     inkscape:window-height="957"
     inkscape:window-x="-4"
     inkscape:window-y="29"
     inkscape:window-maximized="1"
     fit-margin-top="0"
     fit-margin-left="0"
     fit-margin-right="0"
     fit-margin-bottom="0">
    <inkscape:grid
       type="xygrid"
       id="grid4062"
       originx="3"
       originy="2.9999826" />
    <sodipodi:guide
       position="0,22.000017"
       orientation="22,0"
       id="guide4148" />
    <sodipodi:guide
       position="0,1.7382813e-05"
       orientation="0,22"
       id="guide4150" />
    <sodipodi:guide
       position="22,1.7382813e-05"
       orientation="-22,0"
       id="guide4152" />
    <sodipodi:guide
       position="22,22.000017"
       orientation="0,-22"
       id="guide4154" />
    <sodipodi:guide
       position="3,19.000017"
       orientation="16,0"
       id="guide4156" />
    <sodipodi:guide
       position="3,3.0000174"
       orientation="0,16"
       id="guide4158" />
    <sodipodi:guide
       position="19,3.0000174"
       orientation="-16,0"
       id="guide4160" />
    <sodipodi:guide
       position="19,19.000017"
       orientation="0,-16"
       id="guide4162" />
  </sodipodi:namedview>
  <metadata
     id="metadata7">
    <rdf:RDF>
      <cc:Work
         rdf:about="">
        <dc:format>image/svg+xml</dc:format>
        <dc:type
           rdf:resource="http://purl.org/dc/dcmitype/StillImage" />
        <dc:title></dc:title>
      </cc:Work>
    </rdf:RDF>
  </metadata>
  <g
     inkscape:label="Capa 1"
     inkscape:groupmode="layer"
     id="layer1"
     transform="translate(3,-1033.3622)">
    <path
       style="opacity:1;fill:#4d4d4d;fill-opacity:1;stroke:none;stroke-width:3.56737041px;stroke-linecap:butt;stroke-linejoin:miter;stroke-miterlimit:4;stroke-dasharray:none;stroke-dashoffset:0;stroke-opacity:1"
       d="M 8 3 L 8 5 L 4 5 L 4 6 L 5 6 L 5 19 L 6 19 L 17 19 L 17 18 L 17 6 L 18 6 L 18 5 L 14 5 L 14 3 L 8 3 z M 9 4 L 13 4 L 13 5 L 9 5 L 9 4 z M 6 6 L 8 6 L 9 6 L 13 6 L 14 6 L 16 6 L 16 18 L 6 18 L 6 6 z M 8 9 L 8 15 L 9 15 L 9 9 L 8 9 z M 13 9 L 13 15 L 14 15 L 14 9 L 13 9 z "
       transform="translate(-3,1033.3622)"
       id="rect4164" />
  </g>
</svg>
