<?xml version="1.0" encoding="UTF-8" standalone="no"?>
<!-- Created with Inkscape (http://www.inkscape.org/) -->

<svg
   xmlns:dc="http://purl.org/dc/elements/1.1/"
   xmlns:cc="http://creativecommons.org/ns#"
   xmlns:rdf="http://www.w3.org/1999/02/22-rdf-syntax-ns#"
   xmlns:svg="http://www.w3.org/2000/svg"
   xmlns="http://www.w3.org/2000/svg"
   xmlns:sodipodi="http://sodipodi.sourceforge.net/DTD/sodipodi-0.dtd"
   xmlns:inkscape="http://www.inkscape.org/namespaces/inkscape"
   width="16"
   height="16"
   id="svg3049"
   version="1.1"
   inkscape:version="0.91 r13725"
   sodipodi:docname="atmosphere.svg"
   inkscape:export-filename="/home/uri/.kde/share/icons/NITRUX-KDE/16x16/actions/view-right-new.png"
   inkscape:export-xdpi="30"
   inkscape:export-ydpi="30">
  <defs
     id="defs3051" />
  <sodipodi:namedview
     id="base"
     pagecolor="#ffffff"
     bordercolor="#666666"
     borderopacity="1.0"
     inkscape:pageopacity="0.0"
     inkscape:pageshadow="2"
     inkscape:zoom="39.774755"
     inkscape:cx="11.20249"
     inkscape:cy="8.188296"
     inkscape:document-units="px"
     inkscape:current-layer="layer1-6"
     showgrid="true"
     fit-margin-top="0"
     fit-margin-left="0"
     fit-margin-right="0"
     fit-margin-bottom="0"
     inkscape:window-width="1920"
     inkscape:window-height="1021"
     inkscape:window-x="-4"
     inkscape:window-y="0"
     inkscape:window-maximized="1"
     inkscape:showpageshadow="false"
     borderlayer="true"
     inkscape:snap-bbox="true"
     inkscape:snap-global="true"
     inkscape:object-nodes="true">
    <inkscape:grid
       type="xygrid"
       id="grid4085" />
    <sodipodi:guide
       position="2.0000044,14.00003"
       orientation="12,0"
       id="guide4075" />
    <sodipodi:guide
       position="2.0000044,2.0000296"
       orientation="0,12"
       id="guide4077" />
    <sodipodi:guide
       position="14,9"
       orientation="-12,0"
       id="guide4079" />
    <sodipodi:guide
       position="14,14"
       orientation="0,-12"
       id="guide4081" />
  </sodipodi:namedview>
  <metadata
     id="metadata3054">
    <rdf:RDF>
      <cc:Work
         rdf:about="">
        <dc:format>image/svg+xml</dc:format>
        <dc:type
           rdf:resource="http://purl.org/dc/dcmitype/StillImage" />
        <dc:title></dc:title>
      </cc:Work>
    </rdf:RDF>
  </metadata>
  <g
     inkscape:label="Capa 1"
     inkscape:groupmode="layer"
     id="layer1"
     transform="translate(-421.71429,-531.79074)">
    <g
       transform="matrix(0.75,0,0,0.74999813,421.46429,-241.22897)"
       id="layer1-0"
       inkscape:label="Capa 1">
      <g
         transform="translate(6.2937501e-7,-2.041003e-4)"
         id="layer1-6"
         inkscape:label="Capa 1">
        <path
           inkscape:connector-curvature="0"
           style="color:#000000;fill:#f2f2f2;fill-opacity:1;fill-rule:nonzero"
           d="m 10.999999,1033.3624 c -4.4182775,0 -7.9999994,3.5817 -7.9999994,8 0,4.4183 3.5817219,8 7.9999994,8 4.418278,0 8,-3.5817 8,-8 0,-4.4183 -3.581722,-8 -8,-8 z m 0,1.3333 c 0.230119,0 0.442553,0.019 0.666667,0.042 0.05379,0.01 0.113279,-0.01 0.166667,0 0.07016,0.01 0.138869,0.031 0.208333,0.042 0.191536,0.03 0.356034,0.079 0.541667,0.125 0.342128,0.084 0.680964,0.1984 1,0.3334 0.175901,0.074 0.332198,0.1613 0.5,0.25 -10e-5,0.012 0.0011,0.027 0,0.042 0.03864,0.017 0.05971,0.089 0.125,0.125 0.02397,0.013 0.01908,0.03 0.04167,0.042 0.03864,0.021 0.09132,0.045 0.08333,0.083 -0.01067,0.053 -0.08767,0.042 -0.125,0.083 0.0051,0.077 -0.06339,0.073 -0.08333,0.125 0.012,0.033 0.07805,0.043 0.08333,0.083 -0.0065,0.043 -0.09936,0.039 -0.08333,0.083 0.07201,0.056 0.140339,0.013 0.208334,0 0.149321,-0.019 0.283004,-0.01 0.375,-0.083 -0.012,-0.071 0.132986,-0.061 0.125,-0.125 0.03821,0.028 0.08707,0.055 0.125,0.083 -0.01435,0.014 -0.02556,0.034 -0.04167,0.042 -0.02801,0.013 -0.05799,0.026 -0.08333,0.042 -0.03733,0.024 -0.08229,0.055 -0.125,0.083 -0.03065,0.021 -0.093,0.125 -0.125,0.125 -0.03865,0 -0.097,-0.05 -0.125,-0.042 -0.04004,0.013 -0.03808,0.067 -0.08333,0.083 -0.08799,0.032 -0.261006,-0.049 -0.291666,0.083 0.03733,0.076 0.18334,0.041 0.25,0.083 0.04136,0.027 0.114333,0.1214 0.125,0.1667 0.01067,0.037 0.01599,0.21 0,0.25 -0.04136,0.1067 -0.169016,0.085 -0.291667,0.083 l -0.08333,0 c -0.206646,-0.013 -0.406668,-0.1063 -0.5,0.042 0.0066,0.1133 0.02537,0.193 0,0.2917 -0.01863,0.072 -0.128998,0.1462 -0.125,0.2083 0.0015,0.032 0.07534,0.08 0.08333,0.125 0.0051,0.024 -0.01076,0.061 0,0.083 0.03469,0.065 0.105339,-0.013 0.166667,0 0.05867,0.013 0.125,0.101 0.125,0.1666 0,0.047 -0.01227,0.1215 -0.04167,0.1667 -0.05867,0.088 -0.166004,0.077 -0.25,0.125 -0.0693,0.04 -0.08366,0.1395 -0.125,0.2083 -0.044,0.075 -0.100689,0.1016 -0.08333,0.2084 -0.05999,0.1186 -0.126016,0.1926 -0.25,0.25 -0.03601,0.016 -0.09167,0.018 -0.125,0.042 -0.02669,0.019 -0.04597,0.082 -0.08333,0.125 -0.04664,0.052 -0.09967,0.085 -0.125,0.125 -0.0187,0.031 -0.02172,0.082 -0.04167,0.125 -0.02933,0.056 -0.08767,0.069 -0.125,0.125 -0.01731,0.027 -0.02304,0.09 -0.04167,0.125 -0.04268,0.077 -0.09133,0.1404 -0.08333,0.2084 0.0066,0.064 0.07934,0.066 0.08333,0.125 0.0037,0.032 -0.04299,0.047 -0.04167,0.083 0.0015,0.051 0.03771,0.085 0.04167,0.125 0.0093,0.099 -0.06471,0.1409 -0.08333,0.2083 -0.0093,0.032 0.008,0.057 0,0.083 -0.01599,0.049 -0.082,0.1077 -0.08333,0.1666 -0.0015,0.041 0.07937,0.066 0.08333,0.125 0.0029,0.039 -0.04966,0.088 -0.04167,0.125 0.01467,0.072 0.152343,0.1524 0.208333,0.2084 0.076,0.076 0.175011,0.1283 0.208334,0.2083 0.02801,0.068 0.03138,0.1992 0.08333,0.25 0.03865,0.037 0.117343,0.043 0.166667,0.083 0.04664,0.036 0.07567,0.043 0.125,0.083 0.08133,0.064 0.204002,0.2176 0.333333,0.2083 0.06798,-0.013 0.132339,-0.07 0.208333,-0.083 0.07867,-0.013 0.170008,-0.048 0.25,-0.042 0.06131,0.013 0.144338,0.046 0.208334,0.042 0.06665,-0.013 0.132346,-0.01 0.208333,-0.042 0.132,-0.057 0.349688,-0.1526 0.541667,-0.125 0.146652,0.021 0.14734,0.1847 0.25,0.25 0.11732,0.013 0.198342,-0.023 0.291666,0 0.07069,0.017 0.160002,0.1112 0.166667,0.1667 0.0067,0.057 -0.07535,0.1304 -0.08333,0.1666 -0.01863,0.077 0.01333,0.159 0,0.2084 -0.01067,0.039 -0.04299,0.086 -0.04167,0.125 0,0.035 0.04731,0.121 0.08333,0.1666 0.044,0.056 0.113334,0.1064 0.166667,0.1667 0.09732,0.112 0.140339,0.227 0.208333,0.375 0.01731,0.037 -0.01599,0.077 0,0.125 -0.02933,0.2239 -0.103346,0.3771 -0.25,0.625 -0.06931,0.08 -0.168001,0.1501 -0.166666,0.25 -0.0051,0.24 0.135666,0.393 0.125,0.625 -0.02397,0.3119 0.02405,0.3335 0,0.5 0.105333,0.053 0.03065,0.2225 0,0.3333 -0.04532,0.132 -0.09967,0.162 -0.125,0.25 0.07077,0.031 0.171361,0.018 0.25,0 -0.03973,0.042 -0.08421,0.084 -0.125,0.125 -0.301608,0.3016 -0.645331,0.5938 -1,0.8334 -0.688058,0.4648 -1.453345,0.8179 -2.291667,1 -0.458052,0.1 -0.928815,0.125 -1.416667,0.125 -0.253777,0 -0.504179,-0.013 -0.75,-0.042 -0.195814,-0.022 -0.3930477,-0.044 -0.5833329,-0.083 -0.377566,-0.077 -0.7319625,-0.2369 -1.0833333,-0.375 -0.012493,-0.023 -0.044501,-0.056 -0.041667,-0.083 0.0693,-0.029 0.1993413,0.099 0.25,0 0.025373,-0.047 -0.033367,-0.1616 0,-0.2083 0.02398,-0.032 0.1590093,-0.032 0.2083333,-0.042 0.070693,-0.013 0.1683373,-0.023 0.2083333,-0.042 0.044,-0.028 0.091335,-0.1262 0.083333,-0.2084 -0.00367,-0.039 -0.052753,-0.049 -0.083333,-0.083 -0.0253,-0.029 0.017307,-0.055 0,-0.083 -0.031973,-0.047 -0.1116679,-0.057 -0.1249999,-0.125 0.095993,-0.019 0.2363486,0.08 0.3749999,0.042 0.06534,-0.019 0.1776654,-0.1468 0.2083334,-0.2083 0.00932,-0.019 -0.01064,-0.059 0,-0.083 0.012027,-0.024 0.037633,-0.07 0.041667,-0.083 0.00931,-0.036 -0.008,-0.018 0,-0.042 0.02398,-0.068 0.084996,-0.1183 0.125,-0.1667 0.030653,-0.037 0.096964,-0.086 0.125,-0.125 0.031973,-0.041 0.0204,-0.046 0.041667,-0.083 0.02002,-0.1214 -0.071,-0.2268 -0.041667,-0.3334 0.031973,-0.12 0.2173493,-0.1953 0.3333333,-0.25 0.03997,-0.019 0.09167,-0.03 0.125,-0.042 0.07999,-0.028 0.175339,-0.057 0.25,-0.083 0.125327,-0.045 0.146997,-0.1354 0.208333,-0.25 0.02933,-0.053 0.07798,-0.1276 0.08333,-0.1666 0.0051,-0.035 -0.0066,-0.042 0,-0.083 0.0066,-0.039 -0.01064,-0.08 0,-0.125 0.01467,-0.057 0.04167,-0.1861 0.04167,-0.25 0,-0.053 -0.04035,-0.077 -0.04167,-0.125 -0.0093,-0.1733 0.06102,-0.1553 0.125,-0.25 0.03197,-0.047 0.06075,-0.1332 0.08333,-0.1666 0.107991,-0.16 0.304999,-0.2157 0.291667,-0.4584 -0.0051,-0.08 -0.06636,-0.2663 -0.125,-0.2916 -0.03337,-0.015 -0.07567,-0.024 -0.125,-0.042 -0.157322,-0.059 -0.294353,-0.2367 -0.458334,-0.25 l -0.08333,0 c -0.06402,0 -0.136342,-0.032 -0.208333,-0.042 -0.04532,-0.013 -0.140002,0.013 -0.166667,0 -0.04136,-0.02 -0.05004,-0.1023 -0.08333,-0.125 -0.02669,-0.019 -0.08368,-0.027 -0.125,-0.042 -0.06534,-0.024 -0.090672,-0.078 -0.1666669,-0.083 -0.02398,0 -0.056691,0.013 -0.083333,0 -0.04136,-0.013 -0.086339,-0.018 -0.125,-0.042 -0.04796,-0.029 -0.1050026,-0.042 -0.125,-0.083 0.044,-0.1438 -0.095667,-0.166 -0.125,-0.25 -0.013347,-0.039 0.013347,-0.132 0,-0.1666 -0.017307,-0.049 -0.070331,-0.084 -0.125,-0.125 -0.095993,-0.075 -0.1543426,-0.1078 -0.2916666,-0.125 -0.061307,-0.013 -0.1350073,0.013 -0.2083333,0 -0.077323,-0.013 -0.1913407,-0.058 -0.25,-0.125 -0.056027,-0.065 -0.075675,-0.1359 -0.125,-0.1667 -0.04664,-0.029 -0.093005,-0.053 -0.125,-0.083 -0.014667,-0.013 -0.02832,-0.011 -0.041667,-0.042 -0.02398,-0.049 -0.071,-0.065 -0.041667,-0.125 -0.053313,-0.027 -0.026009,0.051 -0.083333,0.042 -0.051993,-0.073 -0.091015,-0.1464 -0.2083333,-0.125 -0.053313,0.013 -0.104004,0.1236 -0.1666667,0.125 -0.051993,0 -0.098672,-0.1144 -0.1666666,-0.125 -0.051993,-0.013 -0.1306674,0.048 -0.1666667,0.042 -0.057347,-0.013 -0.073036,-0.049 -0.125,-0.083 -0.038647,-0.025 -0.1036667,-0.085 -0.125,-0.083 -0.06666,0 -0.1163447,0.1318 -0.2083333,0.083 -0.04532,-0.057 0.095024,-0.072 0.041667,-0.125 -0.039967,-0.039 -0.051316,0.023 -0.083333,0.042 -0.037327,0.024 -0.083676,0.027 -0.125,0.042 -0.091997,0.035 -0.1780087,0.045 -0.25,0.083 -0.06666,0.035 -0.086337,0.057 -0.125,0.125 -0.030653,0.056 -0.078337,0.164 -0.125,0.1666 -0.056027,0 -0.074334,-0.061 -0.125,-0.083 -0.153318,-0.067 -0.248346,0.039 -0.375,0.042 -0.1173253,0 -0.296998,-0.181 -0.2916666,-0.2917 0.00367,-0.068 0.033673,-0.166 0.041667,-0.25 0.0066,-0.067 0.082087,-0.1475 0.083333,-0.2083 0.00147,-0.083 -0.1550054,-0.1156 -0.2083334,-0.125 -0.1253266,-0.023 -0.2740113,0.056 -0.4166666,0 -0.026693,-0.045 0.02568,-0.08 0.041667,-0.125 0.00931,-0.024 -0.00932,-0.055 0,-0.083 0.015987,-0.043 0.1050093,-0.08 0.1249999,-0.125 0.014667,-0.035 -0.014667,-0.081 0,-0.125 0.017307,-0.048 0.0793,-0.09 0.083333,-0.125 0.00513,-0.045 -0.0474,-0.096 -0.083333,-0.125 -0.1106599,0.013 -0.1860019,0.01 -0.2499999,0.042 -0.1439827,0.065 -0.1046754,0.2463 -0.25,0.2917 -0.049353,0.016 -0.1106694,0.032 -0.1666667,0.042 -0.02442,0.013 -0.055973,-0 -0.083333,0 0.0026,-0.014 -0.00268,-0.028 0,-0.042 0.00621,-0.03 0.035039,-0.053 0.041667,-0.083 0.09502,-0.4333 0.2418599,-0.8527 0.4166667,-1.25 l 0.041667,0 c 0.050673,0.013 0.081007,0.079 0.125,0.083 0.1226573,0.013 0.1486679,-0.1131 0.2499999,-0.1667 0.1039947,0.015 0.1553414,-0.013 0.25,0 0.06402,0.013 0.1576747,0.078 0.2083334,0.083 0.04268,0 0.043331,-0.047 0.083333,-0.042 0.039967,0.013 0.1183333,0.077 0.125,0.125 0.0066,0.06 -0.059047,0.1422 -0.041667,0.2083 0.0627,0.064 0.2023394,0.088 0.2916667,0.125 0.058667,-0.049 0.00931,-0.139 0,-0.2083 -0.00147,-0.031 0.00367,-0.097 0,-0.125 -0.0066,-0.048 -0.041667,-0.084 -0.041667,-0.125 0,-0.1907 0.163678,-0.2588 0.2916667,-0.3334 0.054633,-0.032 0.11867,-0.101 0.1666666,-0.125 0.06798,-0.033 0.11067,-0.01 0.1666667,-0.042 0.1013173,-0.057 0.1713353,-0.1434 0.25,-0.2084 0.036007,-0.087 -0.00367,-0.2063 0,-0.2916 0.036007,-0.023 0.086376,0 0.125,0 0.061307,-0.013 0.090328,-0.09 0.125,-0.125 0.02002,-0.02 0.059309,-0.022 0.083333,-0.042 0.061307,-0.048 0.071649,-0.1037 0.125,-0.125 0.0187,-0.013 0.053964,-0.032 0.083333,-0.042 0.04004,-0.013 0.102676,-0.018 0.1666666,-0.042 0.04136,-0.015 0.1506653,-0.024 0.1666667,-0.042 0.02002,-0.02 -0.00513,-0.094 0,-0.125 0.031973,-0.1506 0.2403453,-0.1576 0.375,-0.2084 0.093324,-0.035 0.1876726,-0.1436 0.2916666,-0.125 -0.02002,0.072 -0.100668,0.08 -0.083333,0.1667 0.02266,0.1213 0.165668,-0.024 0.2083333,-0.042 0.081327,-0.035 0.22667,-0.085 0.3333334,-0.125 0.093324,-0.033 0.2546519,-0.059 0.1666666,-0.1666 -0.073333,-0.013 -0.1026753,0.057 -0.1666666,0.083 -0.044,0.013 -0.046029,-0.038 -0.083333,-0.042 -0.036007,0 -0.047297,0.048 -0.083333,0.042 -0.036007,-0.013 -0.078003,-0.081 -0.083333,-0.125 -0.014667,-0.112 0.07968,-0.1258 0.125,-0.2083 -0.030653,-0.1014 -0.1646767,-0.043 -0.25,-0.083 0.00932,-0.06 0.054343,-0.1116 0.125,-0.125 0.057347,-0.013 0.2153353,0.011 0.25,0.042 0.02002,0.017 -0.030587,0.055 0,0.083 0.034687,0.031 0.079672,0.013 0.1249999,0 0.015987,-0.076 -0.096665,-0.034 -0.083333,-0.083 0.090655,-0.059 0.26434,-0.027 0.375,-0.042 0.06402,-0.013 0.1510013,-0.053 0.2083333,-0.083 0.053313,-0.031 0.069002,-0.092 0.125,-0.042 0.015987,0.055 -0.011087,0.096 -0.041667,0.125 -0.1026587,0.091 -0.2116747,0.1865 -0.2916667,0.2917 0.049353,0.048 0.125672,0.032 0.2083333,0.042 0.031973,0.013 0.091663,-0.01 0.125,0 0.04004,0.013 0.092997,-0.013 0.125,0 0.056026,0.013 0.069009,0.125 0.1250003,0.125 0.09066,0 0.05203,-0.1064 0,-0.1667 0.01599,-0.063 0.0644,-0.1224 0.04167,-0.1667 -0.04136,-0.083 -0.2003323,0.025 -0.2083329,-0.083 -0.00513,-0.067 0.059324,-0.074 0.083333,-0.125 -0.01064,-0.128 0.096666,-0.134 0.083334,-0.25 -0.0066,-0.048 -0.04999,-0.038 -0.083334,-0.083 -0.017307,-0.024 -0.02172,-0.1064 -0.041667,-0.125 -0.0693,-0.059 -0.2003326,-0.013 -0.2083333,-0.125 -0.00367,-0.067 0.00931,-0.1369 0,-0.2084 -0.00932,-0.068 -0.066363,-0.2783 -0.125,-0.2916 -0.07466,-0.016 -0.119006,0.1249 -0.2083333,0.1666 -0.04796,0.023 -0.1590094,0.05 -0.2083334,0.042 -0.031973,-0.013 -0.079329,-0.021 -0.083333,-0.083 -0.00528,-0.057 0.062462,-0.082 0.083333,-0.125 0.00521,-0.011 -0.00265,-0.027 0,-0.042 0.096755,-0.027 0.1932886,-0.06 0.2916667,-0.083 0.055889,-0.013 0.1102488,-0.03 0.1666667,-0.042 0.039836,-0.01 0.084913,0.01 0.125,0 0.1780725,-0.033 0.3589279,-0.065 0.5416669,-0.083 0.221651,-0.023 0.438535,-0.042 0.666666,-0.042 z m -2.7083329,0.625 c -0.042445,0.2434 -0.2703299,0.3404 -0.5416666,0.3333 -0.061307,0.059 -0.00837,0.1687 -0.041667,0.25 -0.028013,0.068 -0.1403453,0.1304 -0.2083333,0.125 -0.049353,0 -0.125,-0.078 -0.125,-0.125 0,-0.057 0.091028,-0.059 0.041667,-0.125 0.0022,-0.013 0.027807,-0.028 0.041667,-0.042 0.026987,-0.017 0.056138,-0.025 0.083333,-0.042 0.2416034,-0.1487 0.4892819,-0.2576 0.75,-0.375 z m 5.5833329,0.25 c -0.02457,0.013 -0.02004,0.028 -0.04167,0.042 -0.05068,0.031 -0.08632,0.069 -0.125,0.083 -0.05463,0.02 -0.116995,0.034 -0.125,0.083 -0.0066,0.041 0.04306,0.045 0.04167,0.083 -0.02002,0.049 -0.03096,0.065 -0.04167,0.125 0.06798,0.1106 0.207677,-0.024 0.291666,-0.042 0.03733,-0.013 0.06333,-0.01 0.08333,-0.042 0.02265,-0.036 0.02441,-0.074 0.04167,-0.125 0.01871,-0.056 0.09001,-0.076 0.08333,-0.125 -0.0051,-0.049 -0.12568,-0.09 -0.208334,-0.083 z m -7.2916662,0.8333 c 0.063216,0.051 0.1520784,0.1608 0.041667,0.2084 -0.013347,0.013 -0.176338,0.047 -0.2083333,0.042 -0.012907,0 -0.030355,-0.032 -0.041667,-0.042 0.068884,-0.067 0.1366092,-0.1443 0.2083333,-0.2084 z m 0.25,0.25 c 0.031973,0 0.045977,0.081 0.083333,0.083 0.036007,0 0.061964,-0.047 0.083333,-0.042 0.056027,0.015 0.095024,0.1251 0.041667,0.1667 -0.044,0.013 -0.051383,-0.047 -0.083333,-0.042 -0.090661,0.016 -0.1403393,0.2137 -0.2083333,0.2083 -0.06402,-0.013 -0.1070294,-0.1616 -0.041667,-0.2083 0.00147,-0.04 -0.00272,-0.042 0,-0.083 0.02002,-0.024 0.071643,-0.087 0.125,-0.083 z m -0.3333333,0.042 c 0.0187,0 0.034993,-0.013 0.041667,0 -0.00931,0.071 -0.028723,0.092 -0.083333,0.125 -0.094659,0.057 -0.1776653,0.128 -0.2083333,0.25 -0.00932,0.036 -0.1213393,0.1339 -0.1666667,0.125 -0.105328,-0.023 0.059353,-0.2195 0.083333,-0.25 0.026693,-0.033 0.052701,-0.045 0.083333,-0.083 0.030653,-0.037 0.054073,-0.1037 0.083333,-0.125 0.031973,-0.023 0.1106767,-0.044 0.1666667,-0.042 z m 9.0416665,0.2083 c 0.10532,-0.013 0.160336,0.1032 0.208333,0.1667 0.03997,0.052 0.142995,0.1304 0.208334,0.1667 0.03733,0.02 0.08367,0.065 0.125,0.083 0.08665,0.039 0.245994,0.1647 0.25,0.25 0.0015,0.043 -0.04835,0.085 -0.04167,0.125 0.06535,0.013 0.123667,-0.101 0.125,-0.1666 0.122547,0.1733 0.227469,0.3568 0.333333,0.5416 0.05,0.087 0.120587,0.1601 0.166667,0.25 -0.05881,0.017 -0.07388,0.026 -0.08333,0.083 -0.01335,0.075 0.02865,0.1951 -0.08333,0.2083 -0.07063,0.013 -0.15268,-0.061 -0.25,-0.083 -0.03997,-0.013 -0.093,0.013 -0.125,0 -0.07333,-0.024 -0.06233,-0.1223 -0.125,-0.1667 -0.03601,-0.025 -0.150996,-0.077 -0.208333,-0.083 -0.03601,0 -0.04603,0.013 -0.08333,0 -0.04532,-0.013 -0.129334,0.019 -0.166667,0 -0.03601,-0.023 -0.115653,-0.094 -0.125,-0.125 -0.01467,-0.049 0.122333,-0.083 0.125,-0.125 0.0029,-0.032 -0.035,-0.076 -0.04167,-0.125 -0.0051,-0.029 0.0065,-0.063 0,-0.083 -0.0093,-0.035 -0.07035,-0.04 -0.125,-0.042 -0.04804,0 -0.08368,0 -0.125,0 -0.05867,0 -0.176674,-0.01 -0.25,0 -0.044,0 -0.08367,-0 -0.125,0 -0.115986,0.013 -0.201004,-0.013 -0.291666,0 -0.06535,0 -0.188672,0.055 -0.25,0.083 -0.03065,0.015 -0.04332,0.022 -0.08333,0.042 -0.01863,0.013 -0.05928,0.031 -0.08333,0.042 -0.03732,0.017 -0.089,0.073 -0.125,0.083 -0.05199,0.013 -0.11368,-0.013 -0.208333,0 -0.06797,0 -0.165332,-0.044 -0.166667,-0.125 -0.0015,-0.124 0.216015,-0.061 0.333333,-0.083 0.044,-0.013 0.07164,-0.051 0.125,-0.083 0.02537,-0.015 0.01768,-0.026 0.04167,-0.042 0.03996,-0.028 0.118333,-0.093 0.125,-0.125 0.0051,-0.029 -0.004,-0.061 0,-0.083 0.0051,-0.028 0.04733,-0.046 0.08333,-0.083 0.05603,-0.056 0.09733,-0.1305 0.166667,-0.1667 0.04664,-0.024 0.103667,-0.045 0.125,-0.083 0.0051,-0.043 -0.0015,-0.043 0,-0.083 0.02933,-0.027 0.05936,-0.036 0.08333,-0.042 0.07201,-0.016 0.124347,0 0.208334,0 0.036,0 0.08633,0.017 0.125,0 0.03197,-0.021 0.05133,-0.067 0.08333,-0.083 0.03468,-0.019 0.08229,-0.039 0.125,-0.042 z m 0.75,0.7917 -0.166667,0 c -0.05867,0 -0.132,-0.031 -0.166666,0 0.04936,0.08 0.13934,0.105 0.25,0.125 0.03997,-0.029 0.06471,-0.074 0.08333,-0.125 z m -9.1249999,-0.75 0.125,0 c 0.033367,0 0.070001,-0.013 0.083333,0 -0.02134,0.088 -0.2223374,0.074 -0.2916667,0.042 0.00367,-0.033 0.040624,-0.036 0.083333,-0.042 z m -0.2916666,0.1667 c -0.058244,0.042 -0.1158918,0.096 -0.2083334,0.125 -0.050673,0.016 -0.115664,0.014 -0.125,-0.042 -0.010707,-0.069 0.079651,-0.035 0.125,-0.042 0.058667,-0.013 0.1403387,-0.039 0.2083334,-0.042 z m 8.6666665,0 c -0.044,0.015 -0.06535,0.1116 0,0.125 0.03065,-0.019 0.04973,-0.068 0.04167,-0.125 -0.01731,-0.019 -0.02839,-0.013 -0.04167,0 z m -0.08333,0.2083 c 0.0015,0.075 0.01467,0.1436 0,0.2084 0.04268,0.083 0.145341,0.014 0.166666,-0.042 0.02537,-0.1387 -0.01933,-0.184 -0.08333,-0.1667 -0.02133,0.013 -0.06075,-0.017 -0.08333,0 z m -11.0416668,3.125 c 0.075152,0.068 0.11839,0.1638 0.2083333,0.2084 0.033367,0.017 0.082335,0.031 0.125,0.042 0.034687,0.013 0.050017,-0.011 0.083333,0 0.070693,0.024 0.1523433,0.058 0.2083333,0.083 0.085331,0.037 0.1766666,0.1656 0.25,0.2083 0.00367,0.043 -0.013347,0.093 0,0.125 0.034687,0.047 0.068996,0.093 0.125,0.125 0.06798,0.037 0.1026753,0.095 0.1666666,0.125 0.02266,0.013 0.048617,-0.013 0.083333,0 0.087992,0.027 0.1323373,0.1474 0.2083333,0.125 0.049353,-0.015 0.033673,-0.077 0.041667,-0.125 0.033367,-0.036 0.072963,-0.083 0.125,-0.083 0.082653,0 0.094332,0.1275 0.125,0.2083 0.017307,0.045 0.07138,0.077 0.083333,0.125 0.02002,0.083 0.017307,0.3257 0,0.375 -0.02134,0.061 -0.1160013,0.058 -0.1666667,0.125 -0.02398,0.032 -0.02304,0.1023 -0.041667,0.125 -0.031973,0.039 -0.059303,0.046 -0.083333,0.083 -0.013347,0.02 -0.029713,0.055 -0.041667,0.083 -0.04004,0.085 -0.1166854,0.1473 -0.083333,0.25 0.013347,0.041 0.083333,0.076 0.083333,0.125 0,0.059 -0.1156654,0.1024 -0.125,0.1666 -0.0066,0.047 0.027073,0.1044 0.041667,0.1667 0.01064,0.047 0.097001,0.094 0.125,0.125 0.04664,0.052 0.082335,0.1423 0.125,0.2083 0.083988,0.1294 0.1256867,0.29 0.2083334,0.4167 0.044,0.065 0.1373333,0.098 0.1666666,0.1667 0.014667,0.035 -0.013347,0.093 0,0.125 0.04796,0.108 0.2670093,0.2384 0.375,0.2916 0.050673,0.025 0.120012,0.015 0.1666667,0.042 0.070693,0.04 0.214008,0.1462 0.25,0.2083 0.031973,0.056 0.02568,0.2025 0.041667,0.2917 0.02002,0.1173 -0.00513,0.2065 0,0.3333 0.00367,0.069 0.041667,0.098 0.041667,0.1667 0,0.024 0.00147,0.1 0,0.125 -0.00147,0.083 0.0066,0.166 0,0.25 -0.00367,0.045 -0.00293,0.086 0,0.125 0.00367,0.041 0.039027,0.046 0.041667,0.083 0.00293,0.039 -0.0457,0.094 -0.041667,0.125 0.00932,0.084 0.067332,0.1309 0.083333,0.2084 0.013347,0.061 0.04966,0.2183 0.041667,0.2916 -0.00513,0.039 -0.036313,0.081 -0.041667,0.125 -0.00367,0.035 0.00513,0.051 0,0.083 -0.00367,0.031 0.00792,0.058 0,0.083 -0.042461,-0.027 -0.083207,-0.055 -0.125,-0.083 -0.3546689,-0.2396 -0.6983926,-0.5318 -0.9999999,-0.8334 -0.040791,-0.041 -0.085272,-0.083 -0.125,-0.125 -0.2407746,-0.2535 -0.4678167,-0.5444 -0.6666667,-0.8333 -0.018018,-0.026 -0.024015,-0.057 -0.041667,-0.083 -0.2307285,-0.3457 -0.4195809,-0.6962 -0.5833333,-1.0834 -0.011807,-0.028 -0.03023,-0.055 -0.041667,-0.083 -0.1405032,-0.3453 -0.2519019,-0.712 -0.3333334,-1.0833 -0.015369,-0.07 -0.028523,-0.1375 -0.041667,-0.2084 -0.033016,-0.178 -0.064775,-0.3589 -0.083333,-0.5416 -0.02276,-0.2242 -0.041667,-0.4366 -0.041667,-0.6667 0,-0.3169 0.040581,-0.6116 0.083333,-0.9167 z m 2.5833333,0.7084 c 0.06402,-0.029 0.051993,0.074 0,0.083 -0.049353,0.013 -0.04796,-0.059 0,-0.083 z"
           id="path26" />
        <path
           style="opacity:1;fill:#f2f2f2;fill-opacity:1;stroke:none"
           d="M 8 2 A 5.9999975 5.9999858 0 0 0 2 8 A 5.9999975 5.9999858 0 0 0 8 14 A 5.9999975 5.9999858 0 0 0 14 8 A 5.9999975 5.9999858 0 0 0 8 2 z M 8 3 A 4.9999999 5.0000003 0 0 1 13 8 A 4.9999999 5.0000003 0 0 1 8 13 A 4.9999999 5.0000003 0 0 1 3 8 A 4.9999999 5.0000003 0 0 1 8 3 z "
           transform="matrix(1.3333333,0,0,1.3333367,0.3333327,1030.6957)"
           id="path4197" />
        <path
           inkscape:connector-curvature="0"
           style="opacity:1;fill:#1d99f3;fill-opacity:1;stroke:none"
           d="m 10.999999,1033.3624 a 7.9999967,8.000001 0 0 0 -7.9999998,8 7.9999967,8.000001 0 0 0 7.9999998,8.0001 7.9999967,8.000001 0 0 0 8.000001,-8.0001 7.9999967,8.000001 0 0 0 -8.000001,-8 z m 0,1.3334 a 6.6666665,6.6666837 0 0 1 6.666667,6.6666 6.6666665,6.6666837 0 0 1 -6.666667,6.6667 6.6666665,6.6666837 0 0 1 -6.6666665,-6.6667 6.6666665,6.6666837 0 0 1 6.6666665,-6.6666 z"
           id="path4197-1" />
      </g>
    </g>
  </g>
</svg>
