<?xml version="1.0" encoding="UTF-8" standalone="no"?>
<!-- Created with Inkscape (http://www.inkscape.org/) -->

<svg
   xmlns:dc="http://purl.org/dc/elements/1.1/"
   xmlns:cc="http://creativecommons.org/ns#"
   xmlns:rdf="http://www.w3.org/1999/02/22-rdf-syntax-ns#"
   xmlns:svg="http://www.w3.org/2000/svg"
   xmlns="http://www.w3.org/2000/svg"
   xmlns:sodipodi="http://sodipodi.sourceforge.net/DTD/sodipodi-0.dtd"
   xmlns:inkscape="http://www.inkscape.org/namespaces/inkscape"
   width="16"
   height="16"
   id="svg3049"
   version="1.1"
   inkscape:version="0.91 r13725"
   sodipodi:docname="debug-step-into.svg"
   inkscape:export-filename="/home/uri/.kde/share/icons/NITRUX-KDE/16x16/actions/view-right-new.png"
   inkscape:export-xdpi="30"
   inkscape:export-ydpi="30">
  <defs
     id="defs3051" />
  <sodipodi:namedview
     id="base"
     pagecolor="#ffffff"
     bordercolor="#666666"
     borderopacity="1.0"
     inkscape:pageopacity="0.0"
     inkscape:pageshadow="2"
     inkscape:zoom="90.509668"
     inkscape:cx="7.2602025"
     inkscape:cy="7.3217668"
     inkscape:document-units="px"
     inkscape:current-layer="layer1"
     showgrid="true"
     fit-margin-top="0"
     fit-margin-left="0"
     fit-margin-right="0"
     fit-margin-bottom="0"
     inkscape:window-width="1614"
     inkscape:window-height="1012"
     inkscape:window-x="298"
     inkscape:window-y="0"
     inkscape:window-maximized="0"
     inkscape:showpageshadow="false"
     borderlayer="true"
     inkscape:snap-bbox="true"
     inkscape:object-nodes="true"
     inkscape:snap-global="true">
    <inkscape:grid
       type="xygrid"
       id="grid4085" />
    <sodipodi:guide
       position="2.0000044,14.00003"
       orientation="12,0"
       id="guide4075" />
    <sodipodi:guide
       position="2.0000044,2.0000296"
       orientation="0,12"
       id="guide4077" />
    <sodipodi:guide
       position="14.000004,2.0000296"
       orientation="-12,0"
       id="guide4079" />
    <sodipodi:guide
       position="14.000004,14.00003"
       orientation="0,-12"
       id="guide4081" />
  </sodipodi:namedview>
  <metadata
     id="metadata3054">
    <rdf:RDF>
      <cc:Work
         rdf:about="">
        <dc:format>image/svg+xml</dc:format>
        <dc:type
           rdf:resource="http://purl.org/dc/dcmitype/StillImage" />
        <dc:title />
      </cc:Work>
    </rdf:RDF>
  </metadata>
  <g
     inkscape:label="Capa 1"
     inkscape:groupmode="layer"
     id="layer1"
     transform="translate(-421.71429,-531.79074)">
    <path
       style="fill:#f2f2f2;fill-opacity:1;stroke:none"
       d="M 2 2 L 2 5 L 2 14 L 3 14 L 14 14 L 14 13 L 14 5 L 14 2 L 11 2 L 11 5 L 13 5 L 13 13 L 3 13 L 3 5 L 5 5 L 5 2 L 3 2 L 2 2 z "
       transform="translate(421.71429,531.79074)"
       id="rect4083" />
    <path
       style="font-style:normal;font-variant:normal;font-weight:normal;font-stretch:normal;font-size:medium;line-height:125%;font-family:oxygen;-inkscape-font-specification:oxygen;letter-spacing:0px;word-spacing:0px;fill:#f2f2f2;fill-opacity:1;stroke:none;stroke-width:1px;stroke-linecap:butt;stroke-linejoin:miter;stroke-opacity:1"
       d="m 428.71429,537.79074 c -1.06609,0 -1.51367,0.35225 -1.51367,1.25391 0,0 -0.0244,0.58743 -0.0312,0.74609 -0.0462,0.36892 -0.17516,0.67773 -0.57812,0.67773 l -0.30469,0 0,0.64454 0.30469,0 c 0.58889,0 0.60937,0.64426 0.60937,1.20117 -0.005,0.17393 0.0136,0.36842 0.0176,0.47656 0.0833,0.71164 0.53828,1 1.49609,1 l 0,-0.5918 c -0.44977,0 -0.60635,-0.11831 -0.66992,-0.4082 -0.0337,-0.11597 -0.0371,-0.51442 -0.0508,-0.70508 0,-0.41546 -0.12362,-1.03466 -0.72266,-1.29101 0.47335,-0.20257 0.64404,-0.62828 0.69727,-1.00391 0.0239,-0.10411 0.0186,-0.2223 0.0254,-0.30273 0,-0.86631 0.01,-1.10547 0.7207,-1.10547 z"
       id="path4136"
       inkscape:connector-curvature="0"
       sodipodi:nodetypes="cccsccsccccccccccc" />
    <path
       style="fill:#ff6600;fill-rule:evenodd;stroke:none;stroke-width:1px;stroke-linecap:butt;stroke-linejoin:miter;stroke-opacity:1"
       d="m 431.71429,533.79075 -2,3 -2,-3 z"
       id="path4133"
       inkscape:connector-curvature="0"
       sodipodi:nodetypes="cccc" />
    <path
       style="font-style:normal;font-variant:normal;font-weight:normal;font-stretch:normal;font-size:medium;line-height:125%;font-family:oxygen;-inkscape-font-specification:oxygen;letter-spacing:0px;word-spacing:0px;fill:#f2f2f2;fill-opacity:1;stroke:none;stroke-width:1px;stroke-linecap:butt;stroke-linejoin:miter;stroke-opacity:1"
       d="m 430.71429,537.79074 c 1.06609,0 1.51367,0.35225 1.51367,1.25391 0,0 0.0244,0.58743 0.0312,0.74609 0.0462,0.36892 0.17516,0.67773 0.57812,0.67773 l 0.30469,0 0,0.64454 -0.30469,0 c -0.58889,0 -0.60937,0.64426 -0.60937,1.20117 0.005,0.17393 -0.0136,0.36842 -0.0176,0.47656 -0.0833,0.71164 -0.53828,1 -1.49609,1 l 0,-0.5918 c 0.44977,0 0.60635,-0.11831 0.66992,-0.4082 0.0337,-0.11597 0.0371,-0.51442 0.0508,-0.70508 0,-0.41546 0.12362,-1.03466 0.72266,-1.29101 -0.47335,-0.20257 -0.64404,-0.62828 -0.69727,-1.00391 -0.0239,-0.10411 -0.0186,-0.2223 -0.0254,-0.30273 0,-0.86631 -0.01,-1.10547 -0.7207,-1.10547 z"
       id="path4136-4"
       inkscape:connector-curvature="0"
       sodipodi:nodetypes="cccsccsccccccccccc" />
  </g>
</svg>
