<?xml version="1.0" encoding="UTF-8" standalone="no"?>
<!-- Created with Inkscape (http://www.inkscape.org/) -->

<svg
   xmlns:dc="http://purl.org/dc/elements/1.1/"
   xmlns:cc="http://creativecommons.org/ns#"
   xmlns:rdf="http://www.w3.org/1999/02/22-rdf-syntax-ns#"
   xmlns:svg="http://www.w3.org/2000/svg"
   xmlns="http://www.w3.org/2000/svg"
   xmlns:sodipodi="http://sodipodi.sourceforge.net/DTD/sodipodi-0.dtd"
   xmlns:inkscape="http://www.inkscape.org/namespaces/inkscape"
   width="16"
   height="16"
   id="svg3049"
   version="1.1"
   inkscape:version="0.91 r13725"
   sodipodi:docname="filename-and-amarok.svg"
   inkscape:export-filename="/home/uri/.kde/share/icons/NITRUX-KDE/16x16/actions/view-right-new.png"
   inkscape:export-xdpi="30"
   inkscape:export-ydpi="30">
  <defs
     id="defs3051" />
  <sodipodi:namedview
     id="base"
     pagecolor="#ffffff"
     bordercolor="#666666"
     borderopacity="1.0"
     inkscape:pageopacity="0.0"
     inkscape:pageshadow="2"
     inkscape:zoom="24.411306"
     inkscape:cx="8.8279452"
     inkscape:cy="9.4322189"
     inkscape:document-units="px"
     inkscape:current-layer="layer1"
     showgrid="true"
     fit-margin-top="0"
     fit-margin-left="0"
     fit-margin-right="0"
     fit-margin-bottom="0"
     inkscape:window-width="1920"
     inkscape:window-height="1021"
     inkscape:window-x="-4"
     inkscape:window-y="0"
     inkscape:window-maximized="1"
     inkscape:showpageshadow="false"
     borderlayer="true"
     inkscape:snap-bbox="true"
     inkscape:snap-global="true"
     inkscape:object-nodes="true">
    <inkscape:grid
       type="xygrid"
       id="grid4085" />
    <sodipodi:guide
       position="2.0000044,14.00003"
       orientation="12,0"
       id="guide4075" />
    <sodipodi:guide
       position="2.0000044,2.0000296"
       orientation="0,12"
       id="guide4077" />
    <sodipodi:guide
       position="14.000004,2.0000296"
       orientation="-12,0"
       id="guide4079" />
    <sodipodi:guide
       position="14.000004,14.00003"
       orientation="0,-12"
       id="guide4081" />
  </sodipodi:namedview>
  <metadata
     id="metadata3054">
    <rdf:RDF>
      <cc:Work
         rdf:about="">
        <dc:format>image/svg+xml</dc:format>
        <dc:type
           rdf:resource="http://purl.org/dc/dcmitype/StillImage" />
        <dc:title></dc:title>
      </cc:Work>
    </rdf:RDF>
  </metadata>
  <g
     inkscape:label="Capa 1"
     inkscape:groupmode="layer"
     id="layer1"
     transform="translate(-421.71429,-531.79074)">
    <g
       style="font-style:normal;font-weight:normal;font-size:40px;line-height:125%;font-family:sans-serif;letter-spacing:0px;word-spacing:0px;fill:#f2f2f2;fill-opacity:1;stroke:none;stroke-width:1px;stroke-linecap:butt;stroke-linejoin:miter;stroke-opacity:1"
       id="text4295"
       transform="matrix(1.0590819,0,0,1.0116184,-26.196395,-6.2816007)">
      <path
         d="m 432.50848,536.21033 q 0,0.30945 -0.0555,0.58716 -0.0555,0.27771 -0.19043,0.52368 -0.12695,0.23803 -0.2539,0.4364 -0.12696,0.19043 -0.36499,0.39673 -0.23011,0.19836 -0.39673,0.33325 -0.16663,0.13489 -0.47608,0.31738 -0.30151,0.1825 -0.47607,0.27771 -0.17456,0.0952 -0.51575,0.27771 l 3.18176,3.45154 q 0.72998,-0.79346 1.33301,-1.87256 l 0.90454,0.59509 q -0.70617,1.22986 -1.50757,2.06299 l 1.2616,1.37268 -0.92041,0.76172 -1.21399,-1.34888 q -1.59485,1.22193 -3.34839,1.22193 -0.76172,0 -1.45996,-0.23804 -0.69031,-0.24597 -1.18225,-0.65063 -0.49194,-0.40467 -0.78552,-0.94422 -0.28565,-0.53955 -0.28565,-1.11877 0,-0.53955 0.12696,-1.00769 0.13489,-0.47608 0.34118,-0.81726 0.21424,-0.34912 0.53162,-0.65857 0.32532,-0.31739 0.6427,-0.53162 0.31738,-0.22217 0.72998,-0.45227 l -0.21423,-0.23804 q -1.16638,-1.2854 -1.16638,-2.5946 0,-1.11084 0.84106,-1.79321 0.849,-0.69031 2.18201,-0.69031 1.24572,0 1.99157,0.60303 0.74585,0.60302 0.74585,1.73767 z m -3.37219,2.45178 q 0.42053,-0.21423 0.68237,-0.36499 0.26185,-0.15869 0.57923,-0.38879 0.32532,-0.23804 0.49988,-0.46021 0.18249,-0.22217 0.30151,-0.53162 0.12695,-0.31738 0.12695,-0.6665 0,-0.69824 -0.38879,-1.06323 -0.38879,-0.37293 -1.15051,-0.37293 -0.77759,0 -1.32508,0.39673 -0.54748,0.39673 -0.54748,1.0553 0,1.07117 1.04736,2.20581 l 0.17456,0.19043 z m 2.96753,4.9353 -3.31665,-3.68164 q -0.84106,0.50781 -1.30127,1.11878 -0.4602,0.60302 -0.4602,1.4917 0,0.84899 0.71411,1.44409 0.71411,0.58716 1.77734,0.58716 1.3092,0 2.58667,-0.96009 z"
         style="font-style:normal;font-variant:normal;font-weight:normal;font-stretch:normal;font-size:16.25px;font-family:Oxygen-Sans;-inkscape-font-specification:Oxygen-Sans;word-spacing:0.01px;fill:#f2f2f2;fill-opacity:1"
         id="path4300"
         inkscape:connector-curvature="0" />
    </g>
  </g>
</svg>
