<?xml version="1.0" encoding="UTF-8" standalone="no"?>
<!-- Created with Inkscape (http://www.inkscape.org/) -->

<svg
   xmlns:dc="http://purl.org/dc/elements/1.1/"
   xmlns:cc="http://creativecommons.org/ns#"
   xmlns:rdf="http://www.w3.org/1999/02/22-rdf-syntax-ns#"
   xmlns:svg="http://www.w3.org/2000/svg"
   xmlns="http://www.w3.org/2000/svg"
   xmlns:sodipodi="http://sodipodi.sourceforge.net/DTD/sodipodi-0.dtd"
   xmlns:inkscape="http://www.inkscape.org/namespaces/inkscape"
   width="16"
   height="16"
   id="svg3754"
   version="1.1"
   inkscape:version="0.91 r13725"
   sodipodi:docname="go-previous-context.svg">
  <defs
     id="defs3756">
    <linearGradient
       id="linearGradient3257">
      <stop
         id="stop3259"
         style="stop-color:#a50000;stop-opacity:1"
         offset="0" />
      <stop
         id="stop3261"
         style="stop-color:#e73800;stop-opacity:1"
         offset="1" />
    </linearGradient>
  </defs>
  <sodipodi:namedview
     id="base"
     pagecolor="#ffffff"
     bordercolor="#666666"
     borderopacity="1.0"
     inkscape:pageopacity="0.0"
     inkscape:pageshadow="2"
     inkscape:zoom="46.13872"
     inkscape:cx="11.247297"
     inkscape:cy="6.3179033"
     inkscape:document-units="px"
     inkscape:current-layer="layer1"
     showgrid="true"
     fit-margin-top="0"
     fit-margin-left="0"
     fit-margin-right="0"
     fit-margin-bottom="0"
     inkscape:window-width="1757"
     inkscape:window-height="1017"
     inkscape:window-x="155"
     inkscape:window-y="0"
     inkscape:window-maximized="0"
     inkscape:showpageshadow="false"
     inkscape:snap-bbox="true"
     inkscape:object-nodes="true">
    <inkscape:grid
       type="xygrid"
       id="grid4150" />
    <sodipodi:guide
       position="1.9999811,13.999993"
       orientation="12,0"
       id="guide4129" />
    <sodipodi:guide
       position="1.9999811,1.9999929"
       orientation="0,12"
       id="guide4131" />
    <sodipodi:guide
       position="13.999981,1.9999929"
       orientation="-12,0"
       id="guide4133" />
    <sodipodi:guide
       position="13.999981,13.999993"
       orientation="0,-12"
       id="guide4135" />
    <sodipodi:guide
       position="13.999981,7.9999929"
       orientation="0,-14"
       id="guide4161" />
    <sodipodi:guide
       position="6.9999811,10.999993"
       orientation="6,0"
       id="guide4191" />
    <sodipodi:guide
       position="6.9999811,4.9999929"
       orientation="0,6"
       id="guide4193" />
    <sodipodi:guide
       position="12.999981,4.9999929"
       orientation="-6,0"
       id="guide4195" />
    <sodipodi:guide
       position="12.999981,10.999993"
       orientation="0,-6"
       id="guide4197" />
    <sodipodi:guide
       position="1.4143694,7.9998436"
       orientation="0.70710678,-0.70710678"
       id="guide4205" />
    <sodipodi:guide
       position="0.70726263,7.2927369"
       orientation="5.2926839,5.2926839"
       id="guide4207" />
    <sodipodi:guide
       position="5.9999465,2.000053"
       orientation="-0.70710678,0.70710678"
       id="guide4209" />
    <sodipodi:guide
       position="6.7070533,2.7071598"
       orientation="-5.2926839,-5.2926839"
       id="guide4211" />
    <sodipodi:guide
       position="1.4144018,8.0002213"
       orientation="-0.70710678,-0.70710678"
       id="guide4213" />
    <sodipodi:guide
       position="0.707295,8.7073281"
       orientation="-5.2926947,5.2926947"
       id="guide4215" />
    <sodipodi:guide
       position="5.9999897,14.000023"
       orientation="0.70710678,0.70710678"
       id="guide4217" />
    <sodipodi:guide
       position="6.7070965,13.292916"
       orientation="5.2926947,-5.2926947"
       id="guide4219" />
    <sodipodi:guide
       position="5.9999811,2.9999929"
       orientation="1,0"
       id="guide4223" />
    <sodipodi:guide
       position="5.9999811,1.9999929"
       orientation="0,9"
       id="guide4225" />
    <sodipodi:guide
       position="14.999981,1.9999929"
       orientation="-1,0"
       id="guide4227" />
    <sodipodi:guide
       position="14.999981,2.9999929"
       orientation="0,-9"
       id="guide4229" />
    <sodipodi:guide
       position="5.9999811,13.999993"
       orientation="1,0"
       id="guide4233" />
    <sodipodi:guide
       position="5.9999811,12.999993"
       orientation="0,9"
       id="guide4235" />
    <sodipodi:guide
       position="14.999981,12.999993"
       orientation="-1,0"
       id="guide4237" />
    <sodipodi:guide
       position="14.999981,13.999993"
       orientation="0,-9"
       id="guide4239" />
  </sodipodi:namedview>
  <metadata
     id="metadata3759">
    <rdf:RDF>
      <cc:Work
         rdf:about="">
        <dc:format>image/svg+xml</dc:format>
        <dc:type
           rdf:resource="http://purl.org/dc/dcmitype/StillImage" />
        <dc:title></dc:title>
      </cc:Work>
    </rdf:RDF>
  </metadata>
  <g
     inkscape:label="Capa 1"
     inkscape:groupmode="layer"
     id="layer1"
     transform="translate(-768.57143,-682.07647)">
    <path
       style="opacity:1;fill:#f2f2f2;fill-opacity:1;stroke:none"
       d="M 6 2 L 0.70703125 7.2929688 L 0 8 L 0.70703125 8.7070312 L 6 14 L 15 14 L 16 14 L 16 2 L 15 2 L 6 2 z M 9 4 L 10 4 L 10 5 L 9 5 C 8.44778 5 8 5.44771 8 6 L 8 7 C 8 7.38251 7.86072 7.73504 7.625 8 C 7.86072 8.26497 8 8.6175 8 9 L 8 10 C 8 10.55222 8.44771 11 9 11 L 10 11 L 10 12 L 9 12 C 7.89549 12 7 11.10452 7 10 L 7 9 C 7 8.72385 6.77614 8.5 6.5 8.5 L 6 8.5 L 6 7.5 L 6.5 7.5 C 6.77614 7.5 7 7.27616 7 7 L 7 6 C 7 4.89549 7.89548 4 9 4 z M 11 4 L 12 4 C 13.10452 4 14 4.89549 14 6 L 14 7 C 14 7.27616 14.22386 7.5 14.5 7.5 L 15 7.5 L 15 8.5 L 14.5 8.5 C 14.22386 8.5 14 8.72385 14 9 L 14 10 C 14 11.10452 13.10451 12 12 12 L 11 12 L 11 11 L 12 11 C 12.55229 11 13 10.55222 13 10 L 13 9 C 13 8.6175 13.13928 8.26497 13.375 8 C 13.13928 7.73504 13 7.38251 13 7 L 13 6 C 13 5.44771 12.55222 5 12 5 L 11 5 L 11 4 z "
       transform="translate(768.57143,682.07647)"
       id="rect4137" />
  </g>
</svg>
