<?xml version="1.0" encoding="UTF-8" standalone="no"?>
<!-- Created with Inkscape (http://www.inkscape.org/) -->

<svg
   xmlns:dc="http://purl.org/dc/elements/1.1/"
   xmlns:cc="http://creativecommons.org/ns#"
   xmlns:rdf="http://www.w3.org/1999/02/22-rdf-syntax-ns#"
   xmlns:svg="http://www.w3.org/2000/svg"
   xmlns="http://www.w3.org/2000/svg"
   xmlns:sodipodi="http://sodipodi.sourceforge.net/DTD/sodipodi-0.dtd"
   xmlns:inkscape="http://www.inkscape.org/namespaces/inkscape"
   width="16"
   height="16"
   id="svg3049"
   version="1.1"
   inkscape:version="0.91 r13725"
   sodipodi:docname="im-icq.svg"
   inkscape:export-filename="/home/uri/.kde/share/icons/NITRUX-KDE/16x16/actions/view-right-new.png"
   inkscape:export-xdpi="30"
   inkscape:export-ydpi="30">
  <defs
     id="defs3051" />
  <sodipodi:namedview
     id="base"
     pagecolor="#ffffff"
     bordercolor="#666666"
     borderopacity="1.0"
     inkscape:pageopacity="0.0"
     inkscape:pageshadow="2"
     inkscape:zoom="32"
     inkscape:cx="5.3789013"
     inkscape:cy="7.2254718"
     inkscape:document-units="px"
     inkscape:current-layer="layer1"
     showgrid="true"
     fit-margin-top="0"
     fit-margin-left="0"
     fit-margin-right="0"
     fit-margin-bottom="0"
     inkscape:window-width="1920"
     inkscape:window-height="1016"
     inkscape:window-x="0"
     inkscape:window-y="0"
     inkscape:window-maximized="1"
     inkscape:showpageshadow="false"
     borderlayer="true"
     inkscape:snap-bbox="true"
     inkscape:snap-global="true"
     inkscape:object-nodes="true">
    <inkscape:grid
       type="xygrid"
       id="grid4085" />
    <sodipodi:guide
       position="2.0000044,14.00003"
       orientation="12,0"
       id="guide4075" />
    <sodipodi:guide
       position="2.0000044,2.0000296"
       orientation="0,12"
       id="guide4077" />
    <sodipodi:guide
       position="14.000004,2.0000296"
       orientation="-12,0"
       id="guide4079" />
    <sodipodi:guide
       position="14.000004,14.00003"
       orientation="0,-12"
       id="guide4081" />
  </sodipodi:namedview>
  <metadata
     id="metadata3054">
    <rdf:RDF>
      <cc:Work
         rdf:about="">
        <dc:format>image/svg+xml</dc:format>
        <dc:type
           rdf:resource="http://purl.org/dc/dcmitype/StillImage" />
        <dc:title></dc:title>
      </cc:Work>
    </rdf:RDF>
  </metadata>
  <g
     inkscape:label="Capa 1"
     inkscape:groupmode="layer"
     id="layer1"
     transform="translate(-421.71429,-531.79074)">
    <g
       transform="matrix(0.75,0,0,0.75,421.46429,-241.23091)"
       id="layer1-2"
       inkscape:label="Capa 1">
      <path
         id="rect4108"
         transform="translate(0,1030.3622)"
         d="M 11,3 A 1.9999995,3 0 0 0 9,6 1.9999995,3 0 0 0 9.0058594,6.1855469 3,1.9999995 45 0 0 8.8789062,6.0507812 3,1.9999995 45 0 0 5.34375,5.34375 3,1.9999995 45 0 0 6.0507812,8.8789062 3,1.9999995 45 0 0 6.1835938,9.0058594 3,1.9999995 0 0 0 6,9 3,1.9999995 0 0 0 3,11 3,1.9999995 0 0 0 6,13 3,1.9999995 0 0 0 6.1855469,12.994141 1.9999995,3 45 0 0 6.0507812,13.121094 1.9999995,3 45 0 0 5.34375,16.65625 1.9999995,3 45 0 0 8.8789062,15.949219 1.9999995,3 45 0 0 9.0058594,15.816406 1.9999995,3 0 0 0 9,16 a 1.9999995,3 0 0 0 2,3 1.9999995,3 0 0 0 2,-3 1.9999995,3 0 0 0 -0.0059,-0.185547 3,1.9999995 45 0 0 0.126953,0.134766 A 3,1.9999995 45 0 0 16.65625,16.65625 3,1.9999995 45 0 0 15.949219,13.121094 3,1.9999995 45 0 0 15.816406,12.994141 3,1.9999995 0 0 0 16,13 3,1.9999995 0 0 0 19,11 3,1.9999995 0 0 0 16,9 3,1.9999995 0 0 0 15.814453,9.0058594 1.9999995,3 45 0 0 15.949219,8.8789062 1.9999995,3 45 0 0 16.65625,5.34375 1.9999995,3 45 0 0 13.121094,6.0507812 1.9999995,3 45 0 0 12.994141,6.1835938 1.9999995,3 0 0 0 13,6 1.9999995,3 0 0 0 11,3 Z m 0.994141,5.5976562 A 1.9999995,3 45 0 0 12.414062,9.5859375 1.9999995,3 45 0 0 13.400391,10.005859 3,1.9999995 0 0 0 13,11 3,1.9999995 0 0 0 13.402344,11.994141 3,1.9999995 45 0 0 12.414062,12.414062 3,1.9999995 45 0 0 11.994141,13.400391 1.9999995,3 0 0 0 11,13 1.9999995,3 0 0 0 10.005859,13.400391 1.9999995,3 45 0 0 9.5859375,12.414062 1.9999995,3 45 0 0 8.5996094,11.994141 3,1.9999995 0 0 0 9,11 3,1.9999995 0 0 0 8.5996094,10.005859 3,1.9999995 45 0 0 9.5859375,9.5859375 3,1.9999995 45 0 0 10.005859,8.5996094 1.9999995,3 0 0 0 11,9 1.9999995,3 0 0 0 11.994141,8.5976562 Z M 11,10 c -0.554,0 -1,0.446 -1,1 0,0.554 0.446,1 1,1 0.554,0 1,-0.446 1,-1 0,-0.554 -0.446,-1 -1,-1 z"
         style="opacity:1;fill:#f2f2f2;fill-opacity:1;stroke:none"
         inkscape:connector-curvature="0" />
    </g>
  </g>
</svg>
