<?xml version="1.0" encoding="UTF-8" standalone="no"?>
<!-- Created with Inkscape (http://www.inkscape.org/) -->

<svg
   xmlns:dc="http://purl.org/dc/elements/1.1/"
   xmlns:cc="http://creativecommons.org/ns#"
   xmlns:rdf="http://www.w3.org/1999/02/22-rdf-syntax-ns#"
   xmlns:svg="http://www.w3.org/2000/svg"
   xmlns="http://www.w3.org/2000/svg"
   xmlns:sodipodi="http://sodipodi.sourceforge.net/DTD/sodipodi-0.dtd"
   xmlns:inkscape="http://www.inkscape.org/namespaces/inkscape"
   width="16"
   height="16"
   id="svg3049"
   version="1.1"
   inkscape:version="0.91 r13725"
   sodipodi:docname="license.svg"
   inkscape:export-filename="/home/uri/.kde/share/icons/NITRUX-KDE/16x16/actions/view-right-new.png"
   inkscape:export-xdpi="30"
   inkscape:export-ydpi="30">
  <defs
     id="defs3051" />
  <sodipodi:namedview
     id="base"
     pagecolor="#ffffff"
     bordercolor="#666666"
     borderopacity="1.0"
     inkscape:pageopacity="0.0"
     inkscape:pageshadow="2"
     inkscape:zoom="39.774755"
     inkscape:cx="11.20249"
     inkscape:cy="8.188296"
     inkscape:document-units="px"
     inkscape:current-layer="layer1-6"
     showgrid="true"
     fit-margin-top="0"
     fit-margin-left="0"
     fit-margin-right="0"
     fit-margin-bottom="0"
     inkscape:window-width="1920"
     inkscape:window-height="1021"
     inkscape:window-x="-4"
     inkscape:window-y="0"
     inkscape:window-maximized="1"
     inkscape:showpageshadow="false"
     borderlayer="true"
     inkscape:snap-bbox="true"
     inkscape:snap-global="true"
     inkscape:object-nodes="true">
    <inkscape:grid
       type="xygrid"
       id="grid4085" />
    <sodipodi:guide
       position="2.0000044,14.00003"
       orientation="12,0"
       id="guide4075" />
    <sodipodi:guide
       position="2.0000044,2.0000296"
       orientation="0,12"
       id="guide4077" />
    <sodipodi:guide
       position="14,9"
       orientation="-12,0"
       id="guide4079" />
    <sodipodi:guide
       position="14,14"
       orientation="0,-12"
       id="guide4081" />
  </sodipodi:namedview>
  <metadata
     id="metadata3054">
    <rdf:RDF>
      <cc:Work
         rdf:about="">
        <dc:format>image/svg+xml</dc:format>
        <dc:type
           rdf:resource="http://purl.org/dc/dcmitype/StillImage" />
        <dc:title></dc:title>
      </cc:Work>
    </rdf:RDF>
  </metadata>
  <g
     inkscape:label="Capa 1"
     inkscape:groupmode="layer"
     id="layer1"
     transform="translate(-421.71429,-531.79074)">
    <g
       transform="matrix(0.75,0,0,0.74999813,421.46429,-241.22897)"
       id="layer1-0"
       inkscape:label="Capa 1">
      <g
         transform="translate(6.2937501e-7,-2.041003e-4)"
         id="layer1-6"
         inkscape:label="Capa 1">
        <path
           inkscape:connector-curvature="0"
           style="opacity:1;fill:#f2f2f2;fill-opacity:1;stroke:none;stroke-opacity:1"
           d="m 10.999999,1033.3624 c -4.4182777,0 -7.9999996,3.5817 -7.9999996,8 0,4.4183 3.5817219,8 7.9999996,8 4.418277,0 8,-3.5817 8,-8 0,-4.4183 -3.581723,-8 -8,-8 z m 0,1.3333 c 3.681899,0 6.666667,2.9848 6.666667,6.6667 0,3.6819 -2.984768,6.6667 -6.666667,6.6667 -3.681898,0 -6.6666663,-2.9848 -6.6666663,-6.6667 0,-3.6819 2.9847683,-6.6667 6.6666663,-6.6667 z m 0,2.6667 a 3.9999999,4.0000101 0 0 0 -3.9999997,4 3.9999999,4.0000101 0 0 0 3.9999997,4 3.9999999,4.0000101 0 0 0 3.195312,-1.6016 l -1.065104,-0.7994 a 2.6666666,2.6666734 0 0 1 -2.130208,1.0677 2.6666666,2.6666734 0 0 1 -2.6666664,-2.6667 2.6666666,2.6666734 0 0 1 2.6666664,-2.6667 2.6666666,2.6666734 0 0 1 2.132813,1.0677 l 1.062499,-0.7994 a 3.9999999,4.0000101 0 0 0 -3.195312,-1.6016 z"
           id="path4139" />
      </g>
    </g>
  </g>
</svg>
