<?xml version="1.0" encoding="UTF-8" standalone="no"?>
<!-- Created with Inkscape (http://www.inkscape.org/) -->

<svg
   xmlns:dc="http://purl.org/dc/elements/1.1/"
   xmlns:cc="http://creativecommons.org/ns#"
   xmlns:rdf="http://www.w3.org/1999/02/22-rdf-syntax-ns#"
   xmlns:svg="http://www.w3.org/2000/svg"
   xmlns="http://www.w3.org/2000/svg"
   xmlns:sodipodi="http://sodipodi.sourceforge.net/DTD/sodipodi-0.dtd"
   xmlns:inkscape="http://www.inkscape.org/namespaces/inkscape"
   width="16"
   height="16"
   id="svg3049"
   version="1.1"
   inkscape:version="0.91 r13725"
   sodipodi:docname="lighttable.svg"
   inkscape:export-filename="/home/uri/.kde/share/icons/NITRUX-KDE/16x16/actions/view-right-new.png"
   inkscape:export-xdpi="30"
   inkscape:export-ydpi="30">
  <defs
     id="defs3051" />
  <sodipodi:namedview
     id="base"
     pagecolor="#ffffff"
     bordercolor="#666666"
     borderopacity="1.0"
     inkscape:pageopacity="0.0"
     inkscape:pageshadow="2"
     inkscape:zoom="32"
     inkscape:cx="15.07812"
     inkscape:cy="4.871553"
     inkscape:document-units="px"
     inkscape:current-layer="layer1"
     showgrid="true"
     fit-margin-top="0"
     fit-margin-left="0"
     fit-margin-right="0"
     fit-margin-bottom="0"
     inkscape:window-width="1920"
     inkscape:window-height="957"
     inkscape:window-x="-4"
     inkscape:window-y="0"
     inkscape:window-maximized="1"
     inkscape:showpageshadow="false"
     borderlayer="true"
     inkscape:snap-bbox="true"
     inkscape:snap-global="true"
     inkscape:object-nodes="true">
    <inkscape:grid
       type="xygrid"
       id="grid4085" />
    <sodipodi:guide
       position="2.0000044,14.00003"
       orientation="12,0"
       id="guide4075" />
    <sodipodi:guide
       position="2.0000044,2.0000296"
       orientation="0,12"
       id="guide4077" />
    <sodipodi:guide
       position="14.000004,2.0000296"
       orientation="-12,0"
       id="guide4079" />
    <sodipodi:guide
       position="14.000004,14.00003"
       orientation="0,-12"
       id="guide4081" />
  </sodipodi:namedview>
  <metadata
     id="metadata3054">
    <rdf:RDF>
      <cc:Work
         rdf:about="">
        <dc:format>image/svg+xml</dc:format>
        <dc:type
           rdf:resource="http://purl.org/dc/dcmitype/StillImage" />
        <dc:title></dc:title>
      </cc:Work>
    </rdf:RDF>
  </metadata>
  <g
     inkscape:label="Capa 1"
     inkscape:groupmode="layer"
     id="layer1"
     transform="translate(-421.71429,-531.79074)">
    <path
       style="fill:#f2f2f2;fill-opacity:1;stroke:none"
       d="m 433.95677,535.54803 c -1.08579,-1.08578 -2.58579,-1.75672 -4.24264,-1.75672 -3.3137,0 -5.99937,2.68566 -5.99936,5.99936 -10e-6,3.31371 2.68566,5.99936 5.99936,5.99936 3.3137,0 5.99937,-2.68565 5.99936,-5.99936 0,-1.65685 -0.67093,-3.15685 -1.75672,-4.24264 z m -0.72368,0.69054 a 5,5 0 0 1 0.0166,0.0166 5,5 0 0 1 1.38383,2.6627 5,5 0 0 1 0.076,0.82726 c 1.6e-4,0.0156 0.004,0.0299 0.004,0.0456 0,0.0107 -0.001,0.0211 -0.001,0.0318 a 5,5 0 0 1 -0.011,0.23754 c -0.005,0.0972 -0.009,0.19443 -0.0193,0.29003 a 5,5 0 0 1 -0.001,0.0124 c -0.003,0.029 -0.01,0.0568 -0.0138,0.0856 -0.0168,0.12777 -0.0372,0.25388 -0.0635,0.37841 a 5,5 0 0 1 -0.25826,0.83555 c -0.0145,0.0357 -0.0262,0.0724 -0.0414,0.10772 a 5,5 0 0 1 -0.4157,0.76373 c -0.0167,0.0253 -0.0299,0.0524 -0.047,0.0773 a 5,5 0 0 1 -0.5911,0.7154 5,5 0 0 1 -0.71263,0.58833 c -0.0137,0.009 -0.0263,0.0198 -0.0401,0.029 a 5,5 0 0 1 -0.77202,0.41847 c -0.033,0.0145 -0.0633,0.0331 -0.0967,0.0469 a 5,5 0 0 1 -0.83831,0.25826 c -0.0428,0.009 -0.0839,0.0221 -0.12706,0.0304 a 5,5 0 0 1 -0.16296,0.0249 c -0.1086,0.0172 -0.21651,0.0355 -0.32732,0.0456 a 5,5 0 0 1 -0.25411,0.011 c -0.0684,0.003 -0.13535,0.011 -0.2044,0.011 -0.007,0 -0.0136,-0.001 -0.0207,-0.001 a 5,5 0 0 1 -0.81345,-0.076 c -0.0206,-0.004 -0.0416,-0.006 -0.0621,-0.01 a 5,5 0 0 1 -2.63922,-1.37692 l 7.07106,-7.07107 a 5,5 0 0 0 -0.12705,-0.11601 5,5 0 0 1 0.11048,0.0994 z m -3.41952,-1.44184 a 5,5 0 0 0 -0.12844,-0.004 c 0.01,-3e-4 0.0192,-0.001 0.029,-0.001 0.007,0 0.0136,0.001 0.0207,0.001 a 5,5 0 0 1 0.0787,0.004 z m -0.40189,0.01 a 5,5 0 0 0 -0.2044,0.0138 c 0.0162,-0.002 0.032,-0.005 0.0483,-0.007 a 5,5 0 0 1 0.15607,-0.007 z m -0.48338,0.0525 a 5,5 0 0 0 -0.20302,0.0345 c 0.0133,-0.003 0.0265,-0.007 0.0401,-0.01 a 5,5 0 0 1 0.16296,-0.0249 z m -0.56347,0.1243 a 5,5 0 0 0 -0.11463,0.0318 5,5 0 0 1 0.11463,-0.0318 z m -0.42952,0.14225 a 5,5 0 0 0 -0.17125,0.0635 c 0.0117,-0.006 0.0237,-0.0115 0.0359,-0.0166 a 5,5 0 0 1 0.13534,-0.0469 z m -0.90874,0.45575 a 5,5 0 0 0 -0.13534,0.0856 c 0.0136,-0.009 0.0263,-0.0198 0.0401,-0.029 a 5,5 0 0 1 0.0953,-0.0566 z m -0.34941,0.24445 a 5,5 0 0 0 -0.17125,0.13258 5,5 0 0 1 0.17125,-0.13258 z m -0.49856,0.42951 a 5,5 0 0 0 -0.30522,0.33836 5,5 0 0 1 0.30522,-0.33836 z m -0.53172,0.63667 a 5,5 0 0 0 -0.0649,0.0898 c 0.002,-0.003 0.003,-0.008 0.006,-0.011 a 5,5 0 0 1 0.0594,-0.0787 z m -0.4958,0.86869 a 5,5 0 0 0 -0.0359,0.0746 c 0.003,-0.008 0.006,-0.0157 0.01,-0.0235 a 5,5 0 0 1 0.0262,-0.0511 z m -0.3066,0.92256 a 5,5 0 0 0 -0.0249,0.1022 c 0.002,-0.01 0.003,-0.0204 0.006,-0.0304 a 5,5 0 0 1 0.0193,-0.0718 z m -0.0704,0.3715 a 5,5 0 0 0 -0.0318,0.23893 c 0.002,-0.0206 0.002,-0.0417 0.004,-0.0621 a 5,5 0 0 1 0.0152,-0.0981 c 0.004,-0.0265 0.009,-0.0523 0.0124,-0.0787 z m -0.047,0.48062 a 5,5 0 0 0 -0.011,0.27621 c -9.1e-4,-0.007 -0.001,-0.0136 -0.001,-0.0207 0,-0.0107 0.001,-0.021 0.001,-0.0318 a 5,5 0 0 1 0.011,-0.22373 z m 0.001,0.53999 a 5,5 0 0 0 0.01,0.1312 5,5 0 0 1 -0.01,-0.1312 z m 0.0566,0.5179 a 5,5 0 0 0 0.0249,0.14916 5,5 0 0 1 -0.0152,-0.0787 5,5 0 0 1 -0.01,-0.0704 z m 0.11186,0.51238 a 5,5 0 0 0 0.0373,0.13396 5,5 0 0 1 -0.0373,-0.13396 z m 0.14364,0.4447 a 5,5 0 0 0 0.0621,0.16435 5,5 0 0 1 -0.0621,-0.16435 z m 0.20716,0.47509 a 5,5 0 0 0 0.0677,0.13396 5,5 0 0 1 -0.0677,-0.13396 z m 0.24721,0.4378 a 5,5 0 0 0 0.0801,0.1243 5,5 0 0 1 -0.0801,-0.1243 z m 0.26931,0.38532 a 5,5 0 0 0 0.11739,0.15053 5,5 0 0 1 -0.11739,-0.15053 z"
       id="rect4203"
       inkscape:connector-curvature="0" />
  </g>
</svg>
