<?xml version="1.0" encoding="UTF-8" standalone="no"?>
<!-- Created with Inkscape (http://www.inkscape.org/) -->

<svg
   xmlns:dc="http://purl.org/dc/elements/1.1/"
   xmlns:cc="http://creativecommons.org/ns#"
   xmlns:rdf="http://www.w3.org/1999/02/22-rdf-syntax-ns#"
   xmlns:svg="http://www.w3.org/2000/svg"
   xmlns="http://www.w3.org/2000/svg"
   xmlns:sodipodi="http://sodipodi.sourceforge.net/DTD/sodipodi-0.dtd"
   xmlns:inkscape="http://www.inkscape.org/namespaces/inkscape"
   width="16"
   height="16"
   id="svg3049"
   version="1.1"
   inkscape:version="0.91 r13725"
   sodipodi:docname="media-repeat-track-amarok.svg"
   inkscape:export-filename="/home/uri/.kde/share/icons/NITRUX-KDE/16x16/actions/view-right-new.png"
   inkscape:export-xdpi="30"
   inkscape:export-ydpi="30">
  <defs
     id="defs3051" />
  <sodipodi:namedview
     id="base"
     pagecolor="#ffffff"
     bordercolor="#666666"
     borderopacity="1.0"
     inkscape:pageopacity="0.0"
     inkscape:pageshadow="2"
     inkscape:zoom="32"
     inkscape:cx="11.70226"
     inkscape:cy="5.4269792"
     inkscape:document-units="px"
     inkscape:current-layer="layer1"
     showgrid="true"
     fit-margin-top="0"
     fit-margin-left="0"
     fit-margin-right="0"
     fit-margin-bottom="0"
     inkscape:window-width="2560"
     inkscape:window-height="955"
     inkscape:window-x="0"
     inkscape:window-y="35"
     inkscape:window-maximized="1"
     inkscape:showpageshadow="false"
     borderlayer="true"
     inkscape:snap-bbox="true"
     inkscape:snap-global="true"
     inkscape:object-nodes="true">
    <inkscape:grid
       type="xygrid"
       id="grid4085" />
    <sodipodi:guide
       position="2.0000044,14.00003"
       orientation="12,0"
       id="guide4075" />
    <sodipodi:guide
       position="2.0000044,2.0000296"
       orientation="0,12"
       id="guide4077" />
    <sodipodi:guide
       position="14.000004,2.0000296"
       orientation="-12,0"
       id="guide4079" />
    <sodipodi:guide
       position="14.000004,14.00003"
       orientation="0,-12"
       id="guide4081" />
  </sodipodi:namedview>
  <metadata
     id="metadata3054">
    <rdf:RDF>
      <cc:Work
         rdf:about="">
        <dc:format>image/svg+xml</dc:format>
        <dc:type
           rdf:resource="http://purl.org/dc/dcmitype/StillImage" />
        <dc:title />
      </cc:Work>
    </rdf:RDF>
  </metadata>
  <g
     inkscape:label="Capa 1"
     inkscape:groupmode="layer"
     id="layer1"
     transform="translate(-421.71429,-531.79074)">
    <path
       style="fill:#f2f2f2;fill-opacity:1;fill-rule:evenodd;stroke:none"
       d="M 8 4 C 6.1382606 4 4.5886458 5.2777325 4.1425781 7 L 6.2773438 7 C 6.6237091 6.4043671 7.2613411 6 8 6 L 8 4 z "
       transform="translate(421.71429,531.79074)"
       id="path4302" />
    <path
       style="fill:#f2f2f2;fill-opacity:1;stroke:none"
       d="M 3 8 L 3 9 L 2 9 L 2 10 L 3 10 L 3 12 L 2 12 L 2 13 L 3 13 L 3 14 L 4 14 L 4 13 L 4 12 L 4 10 L 4 9 L 4 8 L 3 8 z "
       transform="translate(421.71429,531.79074)"
       id="rect4473" />
    <path
       style="fill:#f2f2f2;fill-opacity:1;stroke:none"
       d="M 8 2 A 6 6 0 0 0 2.0859375 7 L 3.1015625 7 A 5 5 0 0 1 8 3 A 5 5 0 0 1 12.894531 7 L 13.910156 7 A 6 6 0 0 0 8 2 z "
       transform="translate(421.71429,531.79074)"
       id="path4481" />
    <path
       inkscape:connector-curvature="0"
       style="fill:#f2f2f2;fill-opacity:1;fill-rule:evenodd;stroke:none;stroke-width:1px;stroke-linecap:butt;stroke-linejoin:miter;stroke-opacity:1"
       d="m 433.71429,538.79074 0,1 -5,0 c -1.10799,0 -2,0.89202 -2,2 l 1,0 c 0,-0.55399 0.446,-1 1,-1 l 4,0 1,0 0,1 2,-1.5 -2,-1.5 z m -5,4 -2,1.5 2,1.5 0,-1 5,0 c 1.10799,0 2,-0.89201 2,-2 l -1,0 c 0,0.554 -0.446,1 -1,1 l -4,0 -1,0 0,-1 z"
       id="path3353-2-1-3" />
  </g>
</svg>
