<?xml version="1.0" encoding="UTF-8" standalone="no"?>
<!-- Created with Inkscape (http://www.inkscape.org/) -->

<svg
   xmlns:dc="http://purl.org/dc/elements/1.1/"
   xmlns:cc="http://creativecommons.org/ns#"
   xmlns:rdf="http://www.w3.org/1999/02/22-rdf-syntax-ns#"
   xmlns:svg="http://www.w3.org/2000/svg"
   xmlns="http://www.w3.org/2000/svg"
   xmlns:sodipodi="http://sodipodi.sourceforge.net/DTD/sodipodi-0.dtd"
   xmlns:inkscape="http://www.inkscape.org/namespaces/inkscape"
   width="16"
   height="16"
   id="svg3049"
   version="1.1"
   inkscape:version="0.91 r13725"
   sodipodi:docname="office-chart-area.svg"
   inkscape:export-filename="/home/uri/.kde/share/icons/NITRUX-KDE/16x16/actions/view-right-new.png"
   inkscape:export-xdpi="30"
   inkscape:export-ydpi="30">
  <defs
     id="defs3051" />
  <sodipodi:namedview
     id="base"
     pagecolor="#ffffff"
     bordercolor="#666666"
     borderopacity="1.0"
     inkscape:pageopacity="0.0"
     inkscape:pageshadow="2"
     inkscape:zoom="32"
     inkscape:cx="6.374673"
     inkscape:cy="6.9763635"
     inkscape:document-units="px"
     inkscape:current-layer="layer1"
     showgrid="true"
     fit-margin-top="0"
     fit-margin-left="0"
     fit-margin-right="0"
     fit-margin-bottom="0"
     inkscape:window-width="1535"
     inkscape:window-height="1002"
     inkscape:window-x="80"
     inkscape:window-y="10"
     inkscape:window-maximized="0"
     inkscape:showpageshadow="false"
     borderlayer="true"
     inkscape:snap-bbox="true"
     inkscape:snap-global="true"
     inkscape:object-nodes="true"
     showguides="true"
     inkscape:guide-bbox="true">
    <inkscape:grid
       type="xygrid"
       id="grid4085" />
    <sodipodi:guide
       position="2.0000044,14.00003"
       orientation="12,0"
       id="guide4075" />
    <sodipodi:guide
       position="14.000004,2.0000296"
       orientation="-12,0"
       id="guide4079" />
    <sodipodi:guide
       position="14.000004,14.00003"
       orientation="0,-12"
       id="guide4081" />
    <sodipodi:guide
       position="8,2"
       orientation="0,1"
       id="guide4178" />
  </sodipodi:namedview>
  <metadata
     id="metadata3054">
    <rdf:RDF>
      <cc:Work
         rdf:about="">
        <dc:format>image/svg+xml</dc:format>
        <dc:type
           rdf:resource="http://purl.org/dc/dcmitype/StillImage" />
        <dc:title></dc:title>
      </cc:Work>
    </rdf:RDF>
  </metadata>
  <g
     inkscape:label="Capa 1"
     inkscape:groupmode="layer"
     id="layer1"
     transform="translate(-421.71429,-531.79074)">
    <path
       style="fill:#f2f2f2;fill-opacity:0.45882353;fill-rule:evenodd;stroke:none;stroke-width:1px;stroke-linecap:butt;stroke-linejoin:miter;stroke-opacity:1"
       d="m 435.16556,534.01171 -2.45127,2.77903 0,0 0,0 -2,-3 0,-3e-5 0,0 -4,4.00003 0,0 -2.00028,0 2.8e-4,7 3,0 2,0 6,0 -2.8e-4,-10.25847 z"
       id="path4150"
       inkscape:connector-curvature="0"
       sodipodi:nodetypes="cccccccccccccccc" />
    <path
       style="fill:#f2f2f2;fill-opacity:1;stroke:none"
       d="m 423.71429,533.79071 0,11 0,1 1,0 11,0 0,-1 -11,0 0,-11 -1,0 z"
       id="rect4223"
       inkscape:connector-curvature="0" />
    <path
       style="opacity:1;fill:#f2f2f2;fill-opacity:1;stroke:none;stroke-width:2.79999995;stroke-miterlimit:4;stroke-dasharray:none;stroke-opacity:0.55026455"
       d="M 8.9980469 1.9980469 L 7.4707031 3.5253906 L 1.0019531 3.5253906 L 1.0019531 3.5332031 L 7.4628906 3.5332031 L 6.9980469 3.9980469 L 6.1699219 4.8261719 L 4.9960938 6 L 3 6 L 3 6.6660156 L 3 7 L 5.4101562 7 L 6.8769531 5.5332031 L 7.7050781 4.7050781 L 9 3.4101562 L 11.123047 5.5332031 L 11.128906 5.5292969 L 11.132812 5.5332031 L 13.132812 3.5332031 L 13.960938 2.7050781 C 13.963936 2.7100781 13.253906 1.9980469 13.253906 1.9980469 L 12.425781 2.8261719 L 11.128906 4.1230469 L 9.0019531 1.9980469 L 9 2 L 8.9980469 1.9980469 z "
       transform="translate(421.71429,531.79074)"
       id="path4155-1" />
    <path
       style="opacity:1;fill:#f2f2f2;fill-opacity:1;stroke:none;stroke-width:2.79999995;stroke-miterlimit:4;stroke-dasharray:none;stroke-opacity:0.55026455"
       d="M 2 8 L 2 9 L 5.4609375 9 L 6.1679688 9.7070312 L 6.9960938 10.535156 L 7.4609375 11 L 1 11 L 1 11.007812 L 7.46875 11.007812 L 8.9960938 12.535156 L 8.9980469 12.533203 L 9 12.535156 L 11.126953 10.410156 L 12.423828 11.707031 L 13.251953 12.535156 L 13.734375 13 L 14 13.001953 L 14 11.867188 L 13.958984 11.828125 L 13.130859 11 L 11.130859 9 L 11.126953 9.0039062 L 11.121094 9 L 8.9980469 11.123047 L 7.703125 9.828125 L 6.875 9 L 5.875 8 L 5.6875 8 L 4.4609375 8 L 2 8 z "
       transform="translate(421.71429,531.79074)"
       id="path4154" />
  </g>
</svg>
