<?xml version="1.0" encoding="UTF-8" standalone="no"?>
<!-- Created with Inkscape (http://www.inkscape.org/) -->

<svg
   xmlns:dc="http://purl.org/dc/elements/1.1/"
   xmlns:cc="http://creativecommons.org/ns#"
   xmlns:rdf="http://www.w3.org/1999/02/22-rdf-syntax-ns#"
   xmlns:svg="http://www.w3.org/2000/svg"
   xmlns="http://www.w3.org/2000/svg"
   xmlns:sodipodi="http://sodipodi.sourceforge.net/DTD/sodipodi-0.dtd"
   xmlns:inkscape="http://www.inkscape.org/namespaces/inkscape"
   width="16"
   height="16"
   id="svg3049"
   version="1.1"
   inkscape:version="0.91 r13725"
   sodipodi:docname="office-chart-area-stacked.svg"
   inkscape:export-filename="/home/uri/.kde/share/icons/NITRUX-KDE/16x16/actions/view-right-new.png"
   inkscape:export-xdpi="30"
   inkscape:export-ydpi="30">
  <defs
     id="defs3051" />
  <sodipodi:namedview
     id="base"
     pagecolor="#ffffff"
     bordercolor="#666666"
     borderopacity="1.0"
     inkscape:pageopacity="0.0"
     inkscape:pageshadow="2"
     inkscape:zoom="32"
     inkscape:cx="11.158485"
     inkscape:cy="5.1653699"
     inkscape:document-units="px"
     inkscape:current-layer="layer1"
     showgrid="true"
     fit-margin-top="0"
     fit-margin-left="0"
     fit-margin-right="0"
     fit-margin-bottom="0"
     inkscape:window-width="1535"
     inkscape:window-height="1002"
     inkscape:window-x="80"
     inkscape:window-y="10"
     inkscape:window-maximized="0"
     inkscape:showpageshadow="false"
     borderlayer="true"
     inkscape:snap-bbox="true"
     inkscape:snap-global="false"
     inkscape:object-nodes="true"
     showguides="true"
     inkscape:guide-bbox="true">
    <inkscape:grid
       type="xygrid"
       id="grid4085" />
    <sodipodi:guide
       position="2.0000044,14.00003"
       orientation="12,0"
       id="guide4075" />
    <sodipodi:guide
       position="14.000004,2.0000296"
       orientation="-12,0"
       id="guide4079" />
    <sodipodi:guide
       position="14.000004,14.00003"
       orientation="0,-12"
       id="guide4081" />
    <sodipodi:guide
       position="8,2"
       orientation="0,1"
       id="guide4178" />
  </sodipodi:namedview>
  <metadata
     id="metadata3054">
    <rdf:RDF>
      <cc:Work
         rdf:about="">
        <dc:format>image/svg+xml</dc:format>
        <dc:type
           rdf:resource="http://purl.org/dc/dcmitype/StillImage" />
        <dc:title></dc:title>
      </cc:Work>
    </rdf:RDF>
  </metadata>
  <g
     inkscape:label="Capa 1"
     inkscape:groupmode="layer"
     id="layer1"
     transform="translate(-421.71429,-531.79074)">
    <path
       style="fill:#f2f2f2;fill-opacity:1;stroke:none"
       d="m 423.71429,533.79071 0,11 0,1 1,0 11,0 0,-1 -11,0 0,-11 -1,0 z"
       id="rect4223"
       inkscape:connector-curvature="0" />
    <path
       style="opacity:1;fill:#f2f2f2;fill-opacity:1;stroke:none;stroke-width:2.79999995;stroke-miterlimit:4;stroke-dasharray:none;stroke-opacity:0.55026455"
       d="M 7.59375 9 L 5.59375 11 L 4 11 L 3.0078125 11 L 3 11 L 3 12 L 3.0078125 12 L 4 12 L 6 12 L 6 11.992188 L 6.0078125 12 L 8.0078125 10 L 9.5996094 10 L 11.599609 12 L 14 12 L 14 11 L 12.013672 11 L 10.013672 9 L 10 9 L 9.0078125 9 L 8.5996094 9 L 7.59375 9 z "
       transform="translate(421.71429,531.79074)"
       id="path4155" />
    <path
       style="fill:#f2f2f2;fill-opacity:0.45882353;fill-rule:evenodd;stroke:none;stroke-width:1px;stroke-linecap:butt;stroke-linejoin:miter;stroke-opacity:1"
       d="M 13.451267,3.6685437 11.130859,6 11.126959,5.99609 11.121094,6 8.9980469,3.8769531 7.703125,5.171875 6.875,6 4.875,8 4.8730469,8 3,8 l 0,5 3,0 2,0 6,0 0,-8.7777473 z"
       transform="translate(421.71429,531.79074)"
       id="path4150"
       inkscape:connector-curvature="0"
       sodipodi:nodetypes="cccccccccccccccc" />
    <path
       style="opacity:1;fill:#f2f2f2;fill-opacity:1;stroke:none;stroke-width:2.79999995;stroke-miterlimit:4;stroke-dasharray:none;stroke-opacity:0.55026455"
       d="M 13.251953,3.4648438 12.423828,4.2929688 11.126953,5.5898438 9,3.4648438 l -0.00195,0.00195 -0.00195,-0.00195 L 7.46875,4.9921875 1,4.9921875 1,5 7.4609375,5 6.9960938,5.4648438 6.1679688,6.2929688 4.4609375,8 3,8 3,9 4.8730469,9 4.875,9 6.875,7 7.703125,6.171875 8.9980469,4.8769531 11.121094,7 l 0.0059,-0.00391 0.0039,0.00391 2,-2 0.828125,-0.828125 c 0.0031,0.00489 -0.707031,-0.7070312 -0.707031,-0.7070312 z"
       transform="translate(421.71429,531.79074)"
       id="path4155-1"
       inkscape:connector-curvature="0"
       sodipodi:nodetypes="cccccccccccccccccccccccccc" />
  </g>
</svg>
