<?xml version="1.0" encoding="UTF-8" standalone="no"?>
<!-- Created with Inkscape (http://www.inkscape.org/) -->

<svg
   xmlns:dc="http://purl.org/dc/elements/1.1/"
   xmlns:cc="http://creativecommons.org/ns#"
   xmlns:rdf="http://www.w3.org/1999/02/22-rdf-syntax-ns#"
   xmlns:svg="http://www.w3.org/2000/svg"
   xmlns="http://www.w3.org/2000/svg"
   xmlns:sodipodi="http://sodipodi.sourceforge.net/DTD/sodipodi-0.dtd"
   xmlns:inkscape="http://www.inkscape.org/namespaces/inkscape"
   width="16"
   height="16"
   id="svg3049"
   version="1.1"
   inkscape:version="0.91 r13725"
   sodipodi:docname="view-calendar-birthday.svg"
   inkscape:export-filename="/home/uri/.kde/share/icons/NITRUX-KDE/16x16/actions/view-right-new.png"
   inkscape:export-xdpi="30"
   inkscape:export-ydpi="30">
  <defs
     id="defs3051" />
  <sodipodi:namedview
     id="base"
     pagecolor="#ffffff"
     bordercolor="#666666"
     borderopacity="1.0"
     inkscape:pageopacity="0.0"
     inkscape:pageshadow="2"
     inkscape:zoom="34.5228"
     inkscape:cx="11.365065"
     inkscape:cy="8.0961075"
     inkscape:document-units="px"
     inkscape:current-layer="layer1"
     showgrid="true"
     fit-margin-top="0"
     fit-margin-left="0"
     fit-margin-right="0"
     fit-margin-bottom="0"
     inkscape:window-width="1722"
     inkscape:window-height="1017"
     inkscape:window-x="190"
     inkscape:window-y="0"
     inkscape:window-maximized="0"
     inkscape:showpageshadow="false"
     borderlayer="true"
     inkscape:snap-bbox="true"
     inkscape:snap-global="true"
     inkscape:object-nodes="true">
    <inkscape:grid
       type="xygrid"
       id="grid4085" />
    <sodipodi:guide
       position="2.0000044,14.00003"
       orientation="12,0"
       id="guide4075" />
    <sodipodi:guide
       position="2.0000044,2.0000296"
       orientation="0,12"
       id="guide4077" />
    <sodipodi:guide
       position="14.000004,2.0000296"
       orientation="-12,0"
       id="guide4079" />
    <sodipodi:guide
       position="14.000004,14.00003"
       orientation="0,-12"
       id="guide4081" />
  </sodipodi:namedview>
  <metadata
     id="metadata3054">
    <rdf:RDF>
      <cc:Work
         rdf:about="">
        <dc:format>image/svg+xml</dc:format>
        <dc:type
           rdf:resource="http://purl.org/dc/dcmitype/StillImage" />
        <dc:title></dc:title>
      </cc:Work>
    </rdf:RDF>
  </metadata>
  <g
     inkscape:label="Capa 1"
     inkscape:groupmode="layer"
     id="layer1"
     transform="translate(-421.71429,-531.79074)">
    <path
       style="opacity:1;fill:#f2f2f2;fill-opacity:1;stroke:none;stroke-width:1;stroke-linecap:round;stroke-miterlimit:4;stroke-dasharray:none;stroke-opacity:1"
       d="M 4.5 2 A 0.5 0.50001502 0 0 0 4 2.5 A 0.5 0.50001502 0 0 0 4.5 3 A 0.5 0.50001502 0 0 0 5 2.5 A 0.5 0.50001502 0 0 0 4.5 2 z M 7.5 2 A 0.5 0.5 0 0 0 7 2.5 A 0.5 0.5 0 0 0 7.5 3 A 0.5 0.5 0 0 0 8 2.5 A 0.5 0.5 0 0 0 7.5 2 z M 10.5 2 A 0.5 0.50001502 0 0 0 10 2.5 A 0.5 0.50001502 0 0 0 10.5 3 A 0.5 0.50001502 0 0 0 11 2.5 A 0.5 0.50001502 0 0 0 10.5 2 z M 4 4 L 4 6 L 2 6 L 2 14 L 14 14 L 14 10.882812 L 14 9.8652344 L 14 6 L 11 6 L 11 4 L 10 4 L 10 6 L 8 6 L 8 4 L 7 4 L 7 6 L 5 6 L 5 4 L 4 4 z M 3 7 L 13 7 L 13 10 A 2 1 0 0 1 11 9 L 11 8 L 10 8 L 10 9 A 2 1 0 0 1 8 10 A 2 1 0 0 1 6 9 L 6 8 L 5 8 L 5 9 A 2 1 0 0 1 3 10 L 3 7 z M 5.5 10.103516 A 3 2 0 0 0 8 11 A 3 2 0 0 0 10.5 10.103516 A 3 2 0 0 0 13 11 L 13 13 L 3 13 L 3 11 A 3 2 0 0 0 5.5 10.103516 z "
       transform="translate(421.71429,531.79074)"
       id="rect4316" />
  </g>
</svg>
