<?xml version="1.0" encoding="UTF-8" standalone="no"?>
<!-- Created with Inkscape (http://www.inkscape.org/) -->
<svg xmlns:dc="http://purl.org/dc/elements/1.1/" xmlns:cc="http://creativecommons.org/ns#" xmlns:rdf="http://www.w3.org/1999/02/22-rdf-syntax-ns#" xmlns:svg="http://www.w3.org/2000/svg" xmlns="http://www.w3.org/2000/svg" xmlns:xlink="http://www.w3.org/1999/xlink" xmlns:sodipodi="http://sodipodi.sourceforge.net/DTD/sodipodi-0.dtd" xmlns:inkscape="http://www.inkscape.org/namespaces/inkscape" width="16" height="16" id="svg3049" version="1.1" inkscape:version="0.91 r13725" sodipodi:docname="password-visibility-16.svg" inkscape:export-filename="/home/uri/.kde/share/icons/NITRUX-KDE/16x16/actions/view-right-new.png" inkscape:export-xdpi="30" inkscape:export-ydpi="30">
  <defs id="defs3051">
    <linearGradient gradientTransform="translate(0,-1.9999941)" inkscape:collect="always" xlink:href="#linearGradient4021-3" id="linearGradient4123" gradientUnits="userSpaceOnUse" x1="3" y1="1045.3622" x2="15" y2="1045.3622"/>
    <linearGradient id="linearGradient4021-3">
      <stop id="stop4023-0" offset="0" style="stop-color:#b3b3b3;stop-opacity:1;"/>
      <stop id="stop4025-2" offset="1" style="stop-color:#f2f2f2;stop-opacity:1;"/>
    </linearGradient>
  </defs>
  <sodipodi:namedview id="base" pagecolor="#ffffff" bordercolor="#666666" borderopacity="1.0" inkscape:pageopacity="0.0" inkscape:pageshadow="2" inkscape:zoom="32" inkscape:cx="8.8695253" inkscape:cy="8.289638" inkscape:document-units="px" inkscape:current-layer="layer1-6" showgrid="true" fit-margin-top="0" fit-margin-left="0" fit-margin-right="0" fit-margin-bottom="0" inkscape:window-width="1920" inkscape:window-height="957" inkscape:window-x="-4" inkscape:window-y="0" inkscape:window-maximized="1" inkscape:showpageshadow="false" borderlayer="true" inkscape:snap-bbox="true" inkscape:snap-global="true" inkscape:object-nodes="true">
    <inkscape:grid type="xygrid" id="grid4085"/>
    <sodipodi:guide position="2.0000044,14.00003" orientation="12,0" id="guide4075"/>
    <sodipodi:guide position="2.0000044,2.0000296" orientation="0,12" id="guide4077"/>
    <sodipodi:guide position="14,9" orientation="-12,0" id="guide4079"/>
    <sodipodi:guide position="14.000004,14.00003" orientation="0,-12" id="guide4081"/>
  </sodipodi:namedview>
  <metadata id="metadata3054">
    <rdf:RDF>
      <cc:Work rdf:about="">
        <dc:format>image/svg+xml</dc:format>
        <dc:type rdf:resource="http://purl.org/dc/dcmitype/StillImage"/>
        <dc:title/>
      </cc:Work>
    </rdf:RDF>
  </metadata>
  <g inkscape:label="Capa 1" inkscape:groupmode="layer" id="layer1" transform="translate(-421.71429,-531.79074)">
    <g transform="matrix(0.75,0,0,0.74999813,421.46429,-241.22897)" id="layer1-0" inkscape:label="Capa 1">
      <g transform="translate(6.2937501e-7,-2.041003e-4)" id="layer1-6" inkscape:label="Capa 1">
        <path style="fill:#f2f2f2;fill-opacity:1;stroke:none" d="M 1 8 C 2.0000005 10.00002 4.134007 12 8 12 C 11.865993 12 14 10.00002 15 8 L 11 8 C 11 9.6568959 9.6568543 11 8 11 C 6.3431463 11 5 9.6568959 5 8 L 1 8 z " transform="matrix(1.3333333,0,0,1.3333367,0.3333327,1030.6957)" id="path4146-1"/>
        <path style="fill:#f2f2f2;fill-opacity:1;stroke:none" d="M 8 4 C 4.134007 3.9999999 2.0000001 6.0000152 1 8 L 5 8 C 5 6.3431457 6.3431458 5 8 5 C 9.6568542 5 11 6.3431457 11 8 L 15 8 C 14 5.9999848 11.865993 3.9999999 8 4 z " transform="matrix(1.3333333,0,0,1.3333367,0.3333327,1030.6957)" id="path4146"/>
        <path sodipodi:type="arc" style="color:#000000;fill:#f2f2f2;fill-opacity:1;fill-rule:nonzero;stroke:none;stroke-width:2;marker:none;visibility:visible;display:inline;overflow:visible;enable-background:accumulate" id="path3768" sodipodi:cx="8" sodipodi:cy="8" sodipodi:rx="2" sodipodi:ry="2" d="M 10,8 A 2,2 0 0 1 8,10 2,2 0 0 1 6,8 2,2 0 0 1 8,6 2,2 0 0 1 10,8 Z" transform="matrix(1.3333333,0,0,1.3333367,0.3333327,1030.6957)"/>
      </g>
    </g>
  </g>
</svg>