<?xml version="1.0" encoding="UTF-8" standalone="no"?>
<!-- Created with Inkscape (http://www.inkscape.org/) -->

<svg
   xmlns:dc="http://purl.org/dc/elements/1.1/"
   xmlns:cc="http://creativecommons.org/ns#"
   xmlns:rdf="http://www.w3.org/1999/02/22-rdf-syntax-ns#"
   xmlns:svg="http://www.w3.org/2000/svg"
   xmlns="http://www.w3.org/2000/svg"
   xmlns:xlink="http://www.w3.org/1999/xlink"
   xmlns:sodipodi="http://sodipodi.sourceforge.net/DTD/sodipodi-0.dtd"
   xmlns:inkscape="http://www.inkscape.org/namespaces/inkscape"
   width="64"
   height="64"
   id="svg5453"
   version="1.1"
   inkscape:version="0.91 r13725"
   sodipodi:docname="audio-heaphones.svg">
  <defs
     id="defs5455">
    <linearGradient
       id="linearGradient4159"
       inkscape:collect="always">
      <stop
         id="stop4161"
         offset="0"
         style="stop-color:#2a2c2f;stop-opacity:1" />
      <stop
         id="stop4163"
         offset="1"
         style="stop-color:#424649;stop-opacity:1" />
    </linearGradient>
    <linearGradient
       inkscape:collect="always"
       xlink:href="#linearGradient4159"
       id="linearGradient4366"
       x1="16"
       y1="58"
       x2="16"
       y2="36"
       gradientUnits="userSpaceOnUse" />
    <linearGradient
       inkscape:collect="always"
       xlink:href="#linearGradient4159"
       id="linearGradient4370"
       gradientUnits="userSpaceOnUse"
       x1="16"
       y1="58"
       x2="16"
       y2="36"
       gradientTransform="matrix(-1,0,0,1,439.57144,491.79797)" />
    <linearGradient
       inkscape:collect="always"
       xlink:href="#linearGradient4159"
       id="linearGradient4391"
       x1="32"
       y1="16"
       x2="32"
       y2="6"
       gradientUnits="userSpaceOnUse" />
    <linearGradient
       inkscape:collect="always"
       xlink:href="#linearGradient4143"
       id="linearGradient4399"
       x1="32"
       y1="28"
       x2="32"
       y2="6"
       gradientUnits="userSpaceOnUse"
       gradientTransform="translate(376.57144,491.79797)" />
    <linearGradient
       id="linearGradient4143"
       inkscape:collect="always">
      <stop
         id="stop4145"
         offset="0"
         style="stop-color:#197cf1;stop-opacity:1" />
      <stop
         id="stop4147"
         offset="1"
         style="stop-color:#20bcfa;stop-opacity:1" />
    </linearGradient>
    <linearGradient
       inkscape:collect="always"
       xlink:href="#linearGradient4227"
       id="linearGradient4821"
       x1="49"
       y1="37"
       x2="56"
       y2="44"
       gradientUnits="userSpaceOnUse"
       gradientTransform="translate(376.57144,491.79797)" />
    <linearGradient
       id="linearGradient4300-2-3">
      <stop
         id="stop4302-4-0"
         offset="0"
         style="stop-color:#f9b425;stop-opacity:1" />
      <stop
         id="stop4304-1"
         offset="1"
         style="stop-color:#f9bf3b;stop-opacity:1" />
    </linearGradient>
    <linearGradient
       id="linearGradient4227"
       inkscape:collect="always">
      <stop
         id="stop4229"
         offset="0"
         style="stop-color:#292c2f;stop-opacity:1" />
      <stop
         id="stop4231"
         offset="1"
         style="stop-color:#000000;stop-opacity:0;" />
    </linearGradient>
    <linearGradient
       inkscape:collect="always"
       xlink:href="#linearGradient4227"
       id="linearGradient4950"
       gradientUnits="userSpaceOnUse"
       gradientTransform="matrix(-1,0,0,1,439.57144,491.79797)"
       x1="56"
       y1="37"
       x2="49"
       y2="44" />
  </defs>
  <sodipodi:namedview
     id="base"
     pagecolor="#ffffff"
     bordercolor="#666666"
     borderopacity="1.0"
     inkscape:pageopacity="0"
     inkscape:pageshadow="2"
     inkscape:zoom="5.734375"
     inkscape:cx="32"
     inkscape:cy="32"
     inkscape:document-units="px"
     inkscape:current-layer="layer1"
     showgrid="false"
     fit-margin-top="0"
     fit-margin-left="0"
     fit-margin-right="0"
     fit-margin-bottom="0"
     inkscape:window-width="1024"
     inkscape:window-height="544"
     inkscape:window-x="0"
     inkscape:window-y="0"
     inkscape:window-maximized="1"
     inkscape:showpageshadow="false"
     borderlayer="true"
     showguides="true">
    <inkscape:grid
       type="xygrid"
       id="grid4063"
       originx="8"
       originy="8"
       empspacing="2" />
    <sodipodi:guide
       position="64,64"
       orientation="0,-64"
       id="guide4200" />
    <sodipodi:guide
       position="6,58"
       orientation="52,0"
       id="guide4202" />
    <sodipodi:guide
       position="6,6"
       orientation="0,52"
       id="guide4204" />
    <sodipodi:guide
       position="58,6"
       orientation="-52,0"
       id="guide4206" />
    <sodipodi:guide
       position="58,58"
       orientation="0,-52"
       id="guide4208" />
  </sodipodi:namedview>
  <metadata
     id="metadata5458">
    <rdf:RDF>
      <cc:Work
         rdf:about="">
        <dc:format>image/svg+xml</dc:format>
        <dc:type
           rdf:resource="http://purl.org/dc/dcmitype/StillImage" />
        <dc:title />
      </cc:Work>
    </rdf:RDF>
  </metadata>
  <g
     inkscape:label="Capa 1"
     inkscape:groupmode="layer"
     id="layer1"
     transform="translate(-376.57144,-491.79797)">
    <path
       style="opacity:1;fill:url(#linearGradient4391);fill-opacity:1;stroke:none"
       d="M 30.908203 10 C 19.324573 10 10 19.324573 10 30.908203 L 10 31.908203 C 10 24.594413 13.722786 18.187315 19.378906 14.453125 C 19.684486 14.654895 20.062376 14.737858 20.378906 14.923828 C 20.691676 15.107588 21.044248 15.220912 21.367188 15.388672 C 21.691948 15.221542 21.993645 15.019491 22.328125 14.869141 C 22.322125 14.866141 22.314994 14.864328 22.308594 14.861328 C 24.931784 13.679148 27.834303 13 30.908203 13 L 33.091797 13 C 36.165697 13 39.068206 13.679148 41.691406 14.861328 C 41.685406 14.864328 41.678175 14.866141 41.671875 14.869141 C 42.006365 15.019491 42.308053 15.221542 42.632812 15.388672 C 42.955753 15.220912 43.308324 15.107588 43.621094 14.923828 C 43.937624 14.737858 44.315514 14.654895 44.621094 14.453125 C 50.277214 18.187315 54 24.594413 54 31.908203 L 54 30.908203 C 54 19.324573 44.675427 10 33.091797 10 L 30.908203 10 z "
       transform="translate(376.57144,491.79797)"
       id="path4382" />
    <path
       inkscape:connector-curvature="0"
       id="path4954"
       d="m 408.57144,497.79797 c -13.296,0 -24,10.704 -24,24 l 0,6 0,1 c 0,0.554 0.446,1 1,1 l 2,0 c 0.554,0 1,-0.446 1,-1 l 0,-1 0,-8 c 0,-11.08 8.92,-20 20,-20 11.08,0 20,8.92 20,20 l 0,8 0,1 c 0,0.554 0.446,1 1,1 l 2,0 c 0.554,0 1,-0.446 1,-1 l 0,-1 0,-6 c 0,-13.296 -10.704,-24 -24,-24 z"
       style="opacity:1;fill:url(#linearGradient4399);fill-opacity:1;stroke:none" />
    <path
       style="opacity:1;fill:#1a89f3;fill-opacity:1;stroke:none"
       d="M 32 7 C 20.92 7 12 15.92 12 27 L 12 28 C 12 16.92 20.92 8 32 8 C 43.08 8 52 16.92 52 28 L 52 27 C 52 15.92 43.08 7 32 7 z M 8 36 L 8 37 C 8 37.554 8.446 38 9 38 L 11 38 C 11.554 38 12 37.554 12 37 L 12 36 C 12 36.554 11.554 37 11 37 L 9 37 C 8.446 37 8 36.554 8 36 z M 52 36 L 52 37 C 52 37.554 52.446 38 53 38 L 55 38 C 55.554 38 56 37.554 56 37 L 56 36 C 56 36.554 55.554 37 55 37 L 53 37 C 52.446 37 52 36.554 52 36 z "
       transform="translate(376.57144,491.79797)"
       id="rect4233" />
    <path
       id="path4368"
       d="m 423.57144,527.79797 c 0,0 3,0 3,2 0,0 2,5 5,5 0.554,0 1,0.446 1,1 l 0,6 c 0,0.554 -0.446,1 -1,1 -3,0 -5,5 -5,5 0,2 -3,2 -3,2 l -1,0 c 0,0 -3,0 -3,-2 l 0,-18 c 0,-2 3,-2 3,-2 l 1,0 z"
       style="opacity:1;fill:url(#linearGradient4370);fill-opacity:1;stroke:none"
       inkscape:connector-curvature="0" />
    <path
       inkscape:connector-curvature="0"
       id="path4795"
       d="m 432.57144,540.79797 0,1 c 0,0.554 -0.446,1 -1,1 -3,0 -5,5 -5,5 0,2 -3,2 -3,2 l -1,0 c 0,0 -3,0 -3,-2 l 0,-1 c 0,2 3,2 3,2 l 1,0 c 0,0 3,0 3,-2 0,0 2,-5 5,-5 0.554,0 1,-0.446 1,-1 z"
       style="opacity:1;fill:#1c1e20;fill-opacity:1;stroke:none" />
    <rect
       style="opacity:1;fill:#8ca5ad;fill-opacity:1;stroke:none"
       id="rect4227"
       width="1.9999983"
       height="4.0000005"
       x="385.57144"
       y="529.79761"
       ry="0" />
    <path
       style="opacity:1;fill:url(#linearGradient4366);fill-opacity:1;stroke:none"
       d="M 16 36 C 16 36 13 36 13 38 C 13 38 11 43 8 43 C 7.446002 43 7 43.446002 7 44 L 7 50 C 7 50.553998 7.446002 51 8 51 C 11 51 13 56 13 56 C 13 58 16 58 16 58 L 17 58 C 17 58 20 58 20 56 L 20 38 C 20 36 17 36 17 36 L 16 36 z "
       transform="translate(376.57144,491.79797)"
       id="rect4215" />
    <path
       style="opacity:1;fill:#1c1e20;fill-opacity:1;stroke:none"
       d="m 383.57144,540.79797 0,1 c 0,0.554 0.446,1 1,1 3,0 5,5 5,5 0,2 3,2 3,2 l 1,0 c 0,0 3,0 3,-2 l 0,-1 c 0,2 -3,2 -3,2 l -1,0 c 0,0 -3,0 -3,-2 0,0 -2,-5 -5,-5 -0.554,0 -1,-0.446 -1,-1 z"
       id="path4790"
       inkscape:connector-curvature="0" />
    <rect
       style="opacity:1;fill:#afc0c6;fill-opacity:1;stroke:none"
       id="rect4223"
       width="2"
       height="13"
       x="385.57147"
       y="532.79797"
       ry="0.99999601" />
    <circle
       style="opacity:1;fill:#2b2d30;fill-opacity:1;stroke:none"
       id="path4225"
       cx="386.57147"
       cy="538.79797"
       r="1" />
    <rect
       ry="0"
       y="529.79761"
       x="-431.57144"
       height="4.0000005"
       width="1.9999983"
       id="rect4237"
       style="opacity:1;fill:#8ca5ad;fill-opacity:1;stroke:none"
       transform="scale(-1,1)" />
    <rect
       ry="0.99999601"
       y="532.79797"
       x="-431.57141"
       height="13"
       width="2"
       id="rect4250"
       style="opacity:1;fill:#afc0c6;fill-opacity:1;stroke:none"
       transform="scale(-1,1)" />
    <circle
       r="1"
       cy="538.79797"
       cx="-430.57141"
       id="circle4252"
       style="opacity:1;fill:#2b2d30;fill-opacity:1;stroke:none"
       transform="scale(-1,1)" />
    <path
       style="opacity:1;fill:#afc0c6;fill-opacity:1;stroke:none"
       d="M 13.994141 36.46875 C 13.446794 36.759944 13 37.229594 13 38 L 13 56 C 13 56.770406 13.446794 57.240056 13.994141 57.53125 C 13.99484 57.520379 14 57.511053 14 57.5 L 14 36.5 C 14 36.488947 13.99484 36.479621 13.994141 36.46875 z "
       transform="translate(376.57144,491.79797)"
       id="rect4591" />
    <path
       id="path4603"
       d="m 425.5773,528.26672 c 0.54735,0.29119 0.99414,0.76084 0.99414,1.53125 l 0,18 c 0,0.77041 -0.44679,1.24006 -0.99414,1.53125 -7e-4,-0.0109 -0.006,-0.0202 -0.006,-0.0312 l 0,-21 c 0,-0.011 0.005,-0.0204 0.006,-0.0312 z"
       style="opacity:1;fill:#afc0c6;fill-opacity:1;stroke:none"
       inkscape:connector-curvature="0" />
    <path
       style="fill:#1c1e20;fill-rule:evenodd;stroke:none;stroke-width:1px;stroke-linecap:butt;stroke-linejoin:miter;stroke-opacity:1;fill-opacity:1"
       d="M 32 11 L 31 13 L 32 13 L 33 13 L 32 11 z M 33 13 L 33.091797 13 C 34.309317 13 35.4992 13.11035 36.65625 13.3125 L 36 12 L 35 13 L 34 12 L 33 13 z M 31 13 L 30 12 L 29 13 L 28 12 L 27.34375 13.3125 C 28.500796 13.110349 29.690675 13 30.908203 13 L 31 13 z "
       transform="translate(376.57144,491.79797)"
       id="path4797" />
    <path
       style="fill:url(#linearGradient4821);fill-opacity:1;fill-rule:evenodd;stroke:none;stroke-width:1px;stroke-linecap:butt;stroke-linejoin:miter;stroke-opacity:1"
       d="m 425.57144,528.26477 0,9.5332 0,1 0,10.5332 c 0.54985,-0.29094 1,-0.76023 1,-1.5332 0,0 2,-5 5,-5 0.554,0 1,-0.446 1,-1 l 0,-6 c 0,-0.554 -0.446,-1 -1,-1 -3,0 -5,-5 -5,-5 0,-0.77297 -0.45015,-1.24226 -1,-1.5332 z"
       id="path4805"
       inkscape:connector-curvature="0" />
    <path
       inkscape:connector-curvature="0"
       id="path4948"
       d="m 390.57144,528.26477 0,9.5332 0,1 0,10.5332 c -0.54985,-0.29094 -1,-0.76023 -1,-1.5332 0,0 -2,-5 -5,-5 -0.554,0 -1,-0.446 -1,-1 l 0,-6 c 0,-0.554 0.446,-1 1,-1 3,0 5,-5 5,-5 0,-0.77297 0.45015,-1.24226 1,-1.5332 z"
       style="fill:url(#linearGradient4950);fill-opacity:1;fill-rule:evenodd;stroke:none;stroke-width:1px;stroke-linecap:butt;stroke-linejoin:miter;stroke-opacity:1" />
  </g>
</svg>
