<?xml version="1.0" encoding="UTF-8" standalone="no"?>
<!-- Created with Inkscape (http://www.inkscape.org/) -->

<svg
   xmlns:dc="http://purl.org/dc/elements/1.1/"
   xmlns:cc="http://creativecommons.org/ns#"
   xmlns:rdf="http://www.w3.org/1999/02/22-rdf-syntax-ns#"
   xmlns:svg="http://www.w3.org/2000/svg"
   xmlns="http://www.w3.org/2000/svg"
   xmlns:xlink="http://www.w3.org/1999/xlink"
   xmlns:sodipodi="http://sodipodi.sourceforge.net/DTD/sodipodi-0.dtd"
   xmlns:inkscape="http://www.inkscape.org/namespaces/inkscape"
   width="32"
   height="32"
   id="svg5453"
   version="1.1"
   inkscape:version="0.48+devel r"
   sodipodi:docname="preferences-system-network.svg">
  <defs
     id="defs5455">
    <linearGradient
       inkscape:collect="always"
       id="linearGradient4143">
      <stop
         style="stop-color:#197cf1;stop-opacity:1"
         offset="0"
         id="stop4145" />
      <stop
         style="stop-color:#20bcfa;stop-opacity:1"
         offset="1"
         id="stop4147" />
    </linearGradient>
    <linearGradient
       inkscape:collect="always"
       xlink:href="#linearGradient4143"
       id="linearGradient4149"
       x1="400.57144"
       y1="545.79797"
       x2="400.57144"
       y2="517.79797"
       gradientUnits="userSpaceOnUse" />
    <linearGradient
       inkscape:collect="always"
       xlink:href="#linearGradient4290"
       id="linearGradient4161"
       x1="16.000011"
       y1="29.999973"
       x2="16.000011"
       y2="1.999974"
       gradientUnits="userSpaceOnUse" />
    <linearGradient
       id="linearGradient4290"
       inkscape:collect="always">
      <stop
         id="stop4292"
         offset="0"
         style="stop-color:#7cbaf8;stop-opacity:1" />
      <stop
         id="stop4294"
         offset="1"
         style="stop-color:#f4fcff;stop-opacity:1" />
    </linearGradient>
    <linearGradient
       inkscape:collect="always"
       xlink:href="#linearGradient4227"
       id="linearGradient4230"
       x1="23.000042"
       y1="12.505747"
       x2="30.000011"
       y2="19.505716"
       gradientUnits="userSpaceOnUse" />
    <linearGradient
       inkscape:collect="always"
       id="linearGradient4227">
      <stop
         style="stop-color:#292c2f;stop-opacity:1"
         offset="0"
         id="stop4229" />
      <stop
         style="stop-color:#000000;stop-opacity:0;"
         offset="1"
         id="stop4231" />
    </linearGradient>
    <linearGradient
       inkscape:collect="always"
       xlink:href="#linearGradient4227"
       id="linearGradient4297"
       x1="0.04334712"
       y1="-2.9814656"
       x2="22.063898"
       y2="19.039085"
       gradientUnits="userSpaceOnUse" />
  </defs>
  <sodipodi:namedview
     id="base"
     pagecolor="#ffffff"
     bordercolor="#666666"
     borderopacity="1.0"
     inkscape:pageopacity="0"
     inkscape:pageshadow="2"
     inkscape:zoom="16.3125"
     inkscape:cx="5.5092053"
     inkscape:cy="16.219127"
     inkscape:document-units="px"
     inkscape:current-layer="layer1"
     showgrid="true"
     fit-margin-top="0"
     fit-margin-left="0"
     fit-margin-right="0"
     fit-margin-bottom="0"
     inkscape:window-width="1366"
     inkscape:window-height="669"
     inkscape:window-x="-4"
     inkscape:window-y="25"
     inkscape:window-maximized="1"
     inkscape:showpageshadow="false"
     borderlayer="true"
     showguides="true">
    <inkscape:grid
       type="xygrid"
       id="grid4063" />
    <sodipodi:guide
       position="1.1650391e-05,32.000026"
       orientation="32,0"
       id="guide4157" />
    <sodipodi:guide
       position="1.1650391e-05,2.6367188e-05"
       orientation="0,32"
       id="guide4159" />
    <sodipodi:guide
       position="32.000012,2.6367188e-05"
       orientation="-32,0"
       id="guide4161" />
    <sodipodi:guide
       position="32.000012,32.000026"
       orientation="0,-32"
       id="guide4163" />
    <sodipodi:guide
       position="2.0000117,30.000026"
       orientation="28,0"
       id="guide4167" />
    <sodipodi:guide
       position="2.0000117,2.0000264"
       orientation="0,28"
       id="guide4169" />
    <sodipodi:guide
       position="30.000012,2.0000264"
       orientation="-28,0"
       id="guide4171" />
    <sodipodi:guide
       position="30.000012,30.000026"
       orientation="0,-28"
       id="guide4173" />
    <sodipodi:guide
       position="2.0000117,30.000026"
       orientation="28,0"
       id="guide4181" />
    <sodipodi:guide
       position="2.0000117,2.0000264"
       orientation="0,14"
       id="guide4183" />
    <sodipodi:guide
       position="16.000012,2.0000264"
       orientation="-28,0"
       id="guide4185" />
    <sodipodi:guide
       position="16.000012,30.000026"
       orientation="0,-14"
       id="guide4187" />
    <sodipodi:guide
       position="9.0000117,23.000026"
       orientation="14,0"
       id="guide4193" />
    <sodipodi:guide
       position="9.0000117,9.0000264"
       orientation="0,14.000031"
       id="guide4195" />
    <sodipodi:guide
       position="23.000042,9.0000264"
       orientation="-14,0"
       id="guide4197" />
    <sodipodi:guide
       position="23.000042,23.000026"
       orientation="0,-14.000031"
       id="guide4199" />
  </sodipodi:namedview>
  <metadata
     id="metadata5458">
    <rdf:RDF>
      <cc:Work
         rdf:about="">
        <dc:format>image/svg+xml</dc:format>
        <dc:type
           rdf:resource="http://purl.org/dc/dcmitype/StillImage" />
        <dc:title />
      </cc:Work>
    </rdf:RDF>
  </metadata>
  <g
     inkscape:label="Capa 1"
     inkscape:groupmode="layer"
     id="layer1"
     transform="translate(-384.57143,-515.798)">
    <rect
       style="opacity:1;fill:url(#linearGradient4149);fill-opacity:1;stroke:none"
       id="rect4130"
       width="28.000011"
       height="28.000027"
       x="386.57144"
       y="517.79797"
       ry="14.000006" />
    <path
       style="opacity:0.2;fill:url(#linearGradient4297);fill-opacity:1;fill-rule:evenodd;stroke:none;stroke-width:1px;stroke-linecap:butt;stroke-linejoin:miter;stroke-opacity:1"
       d="M 18.59375,2.2480469 15.619141,2.6289062 11.484375,5.015625 9.9824219,7.6171875 c 0,0 -1.9738944,1.3902769 -2.2714844,1.3105469 -2.516791,-0.029517 -3.8686098,0.664663 -4.5800781,1.5468746 -0.300868,0.703147 -0.5369397,1.439649 -0.7207032,2.197266 -0.00508,0.760735 0.1621094,1.351563 0.1621094,1.351563 7.0605468,6.356296 14.1210934,9.096195 21.1816404,13.642578 0.44458,-0.295343 0.869157,-0.616017 1.275391,-0.958985 0.0233,-0.01965 0.04519,-0.04075 0.06836,-0.06055 0.35986,-0.307883 0.702871,-0.635921 1.029297,-0.978515 0.07229,-0.07573 0.140349,-0.155079 0.210938,-0.232422 0.282677,-0.310394 0.552713,-0.631607 0.80664,-0.966797 0.05739,-0.07554 0.114046,-0.151776 0.169922,-0.228516 0.275491,-0.379551 0.534674,-0.772387 0.771485,-1.179687 0.0177,-0.03032 0.03721,-0.05938 0.05469,-0.08984 1.06486,-1.863835 1.713808,-3.998881 1.824219,-6.28125 3.16e-4,-0.0065 0.0016,-0.013 0.002,-0.01953 l 0,-0.002 L 28.142578,9.03125 C 26.142911,5.543179 22.690856,3.0106443 18.59375,2.2480469 Z"
       transform="translate(384.57143,515.798)"
       id="path4286"
       inkscape:connector-curvature="0"
       sodipodi:nodetypes="cccccccccccccccccscccc" />
    <path
       style="fill:url(#linearGradient4230);fill-rule:evenodd;stroke:none;stroke-width:1px;stroke-linecap:butt;stroke-linejoin:miter;stroke-opacity:1;fill-opacity:1;opacity:0.2"
       d="M 29.011719 10.841797 L 24.705078 17.501953 L 28.824219 21.621094 C 29.575743 19.901132 30 18.003217 30 16 C 30 14.174204 29.642015 12.438289 29.011719 10.841797 z "
       transform="translate(384.57143,515.798)"
       id="path4219" />
    <path
       style="fill:url(#linearGradient4161);fill-opacity:1;fill-rule:nonzero;stroke:none"
       d="M 15.806641 2.0097656 C 14.734166 2.0243046 13.69541 2.1635557 12.695312 2.4042969 C 12.432038 2.6404225 12.0435 2.7601359 11.607422 2.7480469 C 11.451332 2.8973569 11.487374 3.1758994 11.402344 3.3808594 C 11.330744 3.5530494 11.07847 3.7373163 10.90625 3.7226562 C 10.77885 3.7118562 10.633233 3.5327325 10.632812 3.4140625 C 10.632353 3.2707886 10.831945 3.1909237 10.722656 3.03125 C 9.6081997 3.4829816 8.571627 4.0785822 7.6230469 4.7871094 C 7.8774615 4.6934265 8.1580196 4.5359333 8.3886719 4.53125 C 8.4265719 4.5308 8.4614237 4.5343687 8.4960938 4.5429688 C 8.6510138 4.5835688 9.0593 5.0307313 8.71875 5.1757812 C 8.68645 5.1897813 8.2193619 5.2405625 8.1386719 5.2265625 C 8.0200619 5.2066625 7.9495181 5.0427444 7.8300781 5.0214844 C 7.6294673 4.9867322 7.3744028 5.1951354 7.2011719 5.1015625 C 5.2933669 6.641526 3.812814 8.6765071 2.9257812 11.011719 C 3.0071692 10.964668 3.0904433 10.915274 3.1640625 10.876953 C 3.4139825 10.747033 3.6250456 10.537028 3.9160156 10.517578 C 4.0611556 10.514578 4.2707762 10.556637 4.4101562 10.585938 C 4.5388062 10.612337 4.6425962 10.698651 4.7539062 10.707031 C 5.0698263 10.731131 5.1445838 10.485306 5.4023438 10.347656 C 5.6686237 10.385256 5.8454575 10.303078 6.0859375 10.330078 C 6.2498975 10.348178 6.3683438 10.523393 6.4960938 10.533203 C 6.6035637 10.544003 6.6987444 10.433299 6.8027344 10.449219 C 6.9037544 10.464819 7.07733 10.685134 7.09375 10.808594 C 7.11445 10.962274 6.9812606 11.100741 7.0253906 11.269531 C 7.1863706 11.433491 7.4789344 11.466087 7.7089844 11.560547 C 7.8587744 11.437107 7.7288844 11.207977 7.7089844 11.029297 C 7.7059844 10.950597 7.7197844 10.881084 7.7089844 10.808594 C 7.6949844 10.685544 7.641425 10.572117 7.640625 10.466797 C 7.637625 9.9803769 8.033095 9.7526169 8.359375 9.5605469 C 8.500605 9.4768469 8.611835 9.3308012 8.734375 9.2695312 C 8.907435 9.1827312 9.0363875 9.1625512 9.1796875 9.0820312 C 9.4386175 8.9365813 9.6608212 8.8191269 9.8632812 8.6542969 C 9.9568812 8.4337469 9.8735594 8.1378919 9.8808594 7.9199219 C 9.9745594 7.8625219 10.054967 7.9457 10.154297 7.9375 C 10.310557 7.9049 10.323559 7.6837531 10.412109 7.5957031 C 10.463609 7.5452031 10.604019 7.5090644 10.667969 7.4589844 C 10.823709 7.3368144 10.873776 7.1522594 11.009766 7.0996094 C 11.058466 7.0798094 11.171197 7.0851531 11.248047 7.0644531 C 11.349277 7.0375531 11.493353 6.9178381 11.658203 6.8613281 C 11.765683 6.8238281 12.011714 6.8165906 12.052734 6.7753906 C 12.103234 6.7238906 12.052662 6.5791431 12.070312 6.5019531 C 12.153212 6.1160831 12.734555 6.0342269 13.078125 5.9042969 C 13.318935 5.8129969 13.565478 5.6459756 13.830078 5.6972656 C 13.778278 5.8806656 13.532429 5.8163725 13.574219 6.0390625 C 13.631919 6.3481125 14.045157 5.9498169 14.154297 5.9042969 C 14.362857 5.8163969 14.720511 5.7633325 14.994141 5.6640625 C 15.234081 5.5761625 15.66366 5.4424087 15.4375 5.1679688 C 15.24891 5.1571687 15.158541 5.3886844 14.994141 5.4589844 C 14.880621 5.4770844 14.901567 5.3645988 14.804688 5.3554688 C 14.712587 5.3446687 14.661016 5.4399281 14.566406 5.4238281 C 14.472406 5.4082281 14.340892 5.2603806 14.326172 5.1503906 C 14.288672 4.8650406 14.567367 4.7479662 14.685547 4.5351562 C 14.607447 4.2770262 14.250926 4.4818494 14.035156 4.3808594 C 14.055756 4.2271894 14.215021 4.1211769 14.394531 4.0917969 C 14.541681 4.0669969 14.871354 4.0798031 14.958984 4.1582031 C 15.009684 4.2013031 14.962722 4.3091894 15.044922 4.3808594 C 15.132022 4.4595594 15.238522 4.4521937 15.351562 4.4335938 C 15.392463 4.2388137 15.098919 4.2869831 15.130859 4.1582031 C 15.361759 4.0071631 15.736831 4.1318438 16.019531 4.0898438 C 16.182261 4.0657438 16.353847 3.9502906 16.498047 3.8691406 C 16.635207 3.7910406 16.813484 3.6554831 16.958984 3.7832031 C 16.998484 3.9227831 16.831606 3.9696625 16.753906 4.0390625 C 16.492356 4.2717225 16.222821 4.5383738 16.019531 4.8085938 C 16.144261 4.9302637 16.370991 4.8694313 16.582031 4.8945312 C 16.664531 4.9053313 16.768229 4.9299125 16.855469 4.9453125 C 16.957349 4.9634125 17.066674 4.9578156 17.146484 4.9785156 C 17.290064 5.0138156 17.328543 5.1679688 17.470703 5.1679688 C 17.704563 5.1675488 17.706699 4.9138794 17.574219 4.7558594 C 17.616019 4.5945194 17.68153 4.5114475 17.625 4.3984375 C 17.51968 4.1877375 17.133151 4.38763 17.113281 4.125 C 17.100581 3.95457 17.256579 3.9614944 17.318359 3.8339844 C 17.290259 3.5046644 17.588501 3.4807269 17.556641 3.1855469 C 17.542641 3.0620869 17.437993 3.0609925 17.351562 2.9453125 C 17.306663 2.8862125 17.286432 2.7684663 17.232422 2.7226562 C 17.053642 2.5716062 16.689969 2.60081 16.667969 2.3125 C 16.66522 2.214936 16.678657 2.1274609 16.6875 2.0351562 C 16.52267 2.0272051 16.359673 2.0120202 16.193359 2.0097656 L 15.806641 2.0097656 z M 9.1464844 5.3632812 C 9.2262844 5.3740813 9.3231219 5.4594769 9.4199219 5.4667969 C 9.5112219 5.4697969 9.5864481 5.4166406 9.6425781 5.4316406 C 9.7855281 5.4692406 9.8452475 5.6852156 9.7109375 5.7910156 C 9.5991775 5.8050156 9.5549331 5.7429125 9.4707031 5.7578125 C 9.2385431 5.7973125 9.1500525 6.2513781 8.9765625 6.2363281 C 8.8129325 6.2223281 8.724485 5.8237581 8.890625 5.7050781 C 8.901425 5.6014781 8.8151125 5.5848219 8.8203125 5.4824219 C 8.8697125 5.4191219 9.0100944 5.3517713 9.1464844 5.3632812 z M 8.3769531 5.4160156 C 8.4245531 5.4180156 8.4602956 5.4285188 8.4785156 5.4492188 C 8.4558156 5.6314087 8.312585 5.6201481 8.171875 5.7050781 C 7.928865 5.8517581 7.7882575 6.0753319 7.7109375 6.3886719 C 7.6885375 6.4799719 7.4496644 6.7214356 7.3339844 6.6972656 C 7.0629344 6.6401656 7.4089131 6.1403931 7.4707031 6.0644531 C 7.5390031 5.9802531 7.6303375 5.9057837 7.7109375 5.8085938 C 7.7890375 5.7144937 7.8406856 5.5873863 7.9160156 5.5351562 C 7.9985156 5.4780563 8.2341431 5.4105356 8.3769531 5.4160156 z M 10.400391 6.03125 C 10.487191 6.03325 10.563999 6.0468312 10.599609 6.0820312 C 10.543909 6.3077712 10.058689 6.2475756 9.8808594 6.1660156 C 9.8924594 6.0809156 10.024799 6.058105 10.136719 6.046875 C 10.215419 6.043875 10.313711 6.02875 10.400391 6.03125 z M 9.2929688 6.4472656 C 9.3506688 6.4452656 9.4099931 6.4585094 9.4707031 6.4746094 C 9.3133831 6.6061894 9.1431969 6.680145 8.8730469 6.765625 C 8.7431469 6.806725 8.5181037 6.8579906 8.4960938 6.7128906 C 8.4691937 6.5350906 8.6860675 6.5764569 8.8046875 6.5605469 C 8.9540075 6.5399469 9.1180287 6.4528656 9.2929688 6.4472656 z M 26.462891 6.7011719 C 26.475781 6.8296162 26.477967 6.9515606 26.443359 7.0898438 C 26.396859 7.2750237 26.230131 7.4429656 26.238281 7.6035156 C 26.249081 7.6860156 26.339195 7.7653731 26.359375 7.8769531 C 26.370175 7.9361531 26.331675 8.0632475 26.359375 8.1171875 C 26.446175 8.2855075 26.683321 8.1428687 26.837891 8.1679688 C 26.988901 8.1922688 27.163799 8.408895 27.162109 8.578125 C 27.160109 8.695975 27.049269 8.8923094 26.974609 9.0058594 C 26.825599 9.2324494 26.623816 9.2424213 26.410156 9.3632812 C 26.231966 9.4642912 26.155241 9.6328738 26.050781 9.8085938 C 25.937601 9.9983738 25.867443 10.113712 25.914062 10.388672 C 25.761312 10.691652 25.529311 10.877354 25.212891 11.021484 C 25.119291 11.063784 24.99212 11.078435 24.90625 11.140625 C 24.83795 11.189825 24.798322 11.322471 24.701172 11.431641 C 24.581292 11.565051 24.455608 11.620726 24.392578 11.722656 C 24.343878 11.801356 24.327297 11.958733 24.273438 12.064453 C 24.200438 12.208003 24.045039 12.278358 23.949219 12.423828 C 23.905519 12.491128 23.876405 12.626784 23.828125 12.714844 C 23.719855 12.911634 23.534807 13.053502 23.554688 13.226562 C 23.574487 13.393852 23.764394 13.422539 23.777344 13.568359 C 23.780344 13.650759 23.723163 13.701186 23.726562 13.791016 C 23.729562 13.922176 23.817805 14.014294 23.828125 14.115234 C 23.853625 14.369034 23.741079 14.471011 23.693359 14.644531 C 23.670659 14.727431 23.680203 14.819996 23.658203 14.884766 C 23.616403 15.011786 23.439047 15.127134 23.435547 15.277344 C 23.433547 15.384064 23.545678 15.469331 23.554688 15.619141 C 23.557687 15.722421 23.503284 15.832784 23.521484 15.927734 C 23.557784 16.113744 23.890586 16.330079 24.035156 16.474609 C 24.228536 16.667979 24.481133 16.817754 24.564453 17.021484 C 24.634753 17.194534 24.634761 17.420401 24.769531 17.550781 C 24.869231 17.647081 25.034379 17.706481 25.162109 17.806641 C 25.281229 17.900141 25.411722 17.980878 25.539062 18.080078 C 25.747133 18.242828 26.061098 18.567969 26.392578 18.542969 C 26.565638 18.530269 26.743113 18.388396 26.939453 18.353516 C 27.141453 18.317416 27.403652 18.299313 27.607422 18.320312 C 27.763512 18.335912 27.923677 18.429325 28.085938 18.421875 C 28.257257 18.411075 28.453757 18.284249 28.648438 18.199219 C 28.956066 18.065333 29.403447 17.898975 29.853516 17.923828 C 29.93966 17.293492 30 16.654732 30 16 C 30 13.3509 29.258531 10.887068 27.990234 8.7792969 C 27.931384 8.7748287 27.877173 8.7672033 27.8125 8.7695312 C 27.63906 8.7803313 27.354142 8.7802831 27.351562 8.5644531 C 27.349881 8.3871446 27.518816 8.3479863 27.720703 8.3359375 C 27.343079 7.7581163 26.919555 7.2150305 26.462891 6.7011719 z M 5.09375 13.115234 C 4.8098 13.130834 4.6243206 13.143877 4.4628906 13.216797 C 4.0930206 13.385127 4.1644519 13.885656 3.7949219 14.003906 C 3.6671119 14.044806 3.4922725 14.046266 3.3515625 14.072266 C 3.2301525 14.094366 3.0821712 14.160803 2.9570312 14.158203 C 2.8089713 14.155203 2.5509406 14.012559 2.4628906 13.917969 C 2.4022744 13.85234 2.3030807 13.623036 2.2382812 13.470703 C 2.1490422 13.962803 2.0874947 14.463729 2.0507812 14.972656 C 2.0810907 14.978605 2.1131272 14.986328 2.1386719 14.986328 C 2.3005319 14.987298 2.4736737 14.819353 2.6523438 14.814453 C 3.0714238 14.802853 3.2533769 15.347735 3.5917969 15.515625 C 3.6768969 15.557925 3.7888475 15.559684 3.8984375 15.583984 C 3.9869375 15.603784 4.0534419 15.641022 4.1386719 15.669922 C 4.3194419 15.731222 4.5409369 15.724592 4.6855469 15.789062 C 4.9034569 15.885763 5.06262 16.294677 5.25 16.404297 C 5.2608 16.514777 5.2295781 16.663724 5.2675781 16.746094 C 5.3560781 16.866124 5.4811131 16.839709 5.6269531 16.917969 C 5.8014131 17.012069 5.8541813 17.253865 6.0195312 17.328125 C 6.0765313 17.353525 6.2203769 17.351206 6.3105469 17.378906 C 6.5371169 17.447506 6.6104875 17.709664 6.8046875 17.652344 C 6.9320675 17.614844 6.9227194 17.483088 6.9433594 17.361328 C 7.0275594 17.270028 7.11876 17.125627 7.25 17.123047 C 7.46237 17.112247 7.4813137 17.342558 7.5585938 17.548828 C 7.6021938 17.665388 7.7163137 17.767645 7.7460938 17.890625 C 7.7989938 18.103005 7.7733156 18.738244 7.7285156 18.865234 C 7.6750156 19.020964 7.4639944 19.087086 7.3339844 19.259766 C 7.2726844 19.340666 7.2435256 19.458715 7.1972656 19.515625 C 7.1135656 19.617505 6.9883913 19.644241 6.9257812 19.738281 C 6.8903813 19.791181 6.8566456 19.904963 6.8222656 19.976562 C 6.7196356 20.194062 6.5816287 20.348255 6.6679688 20.609375 C 6.7040687 20.716855 6.8726269 20.789536 6.8730469 20.916016 C 6.8734869 21.064866 6.55579 21.198168 6.53125 21.361328 C 6.51315 21.482738 6.6294888 21.699432 6.6679688 21.857422 C 6.6962688 21.976802 6.9218275 22.051419 6.9921875 22.130859 C 7.1121975 22.265539 7.2087294 22.45581 7.3183594 22.625 C 7.5350794 22.95778 7.7050056 23.363137 7.9160156 23.685547 C 8.0275356 23.854407 8.1835125 24.006361 8.2578125 24.181641 C 8.2958125 24.270141 8.2911719 24.375598 8.3261719 24.455078 C 8.4483319 24.730808 8.987245 25.0194 9.265625 25.15625 C 9.395965 25.21965 9.5405963 25.242344 9.6601562 25.308594 C 9.8413263 25.409604 10.199546 25.680994 10.291016 25.839844 C 10.372516 25.982624 10.423281 26.329571 10.462891 26.556641 C 10.515791 26.856671 10.465369 27.087159 10.480469 27.412109 C 10.491269 27.587859 10.546928 27.765266 10.548828 27.941406 C 10.549758 28.003106 10.516372 28.048378 10.513672 28.111328 C 10.510672 28.324558 10.567028 28.564757 10.548828 28.779297 C 10.547644 28.825314 10.542537 28.859895 10.535156 28.900391 C 12.212729 29.608464 14.058813 30 16 30 C 16.20315 30 16.400572 29.977232 16.601562 29.96875 C 16.606088 29.936835 16.610717 29.904797 16.617188 29.878906 C 16.679087 29.705486 16.838666 29.647731 16.941406 29.519531 C 17.019406 29.422831 17.055046 29.309551 17.128906 29.212891 C 17.209206 29.107571 17.281064 29.014625 17.333984 28.921875 C 17.384484 28.609795 17.209633 28.392341 17.283203 28.119141 C 17.364903 27.812261 17.788547 27.624788 18.085938 27.486328 C 18.188238 27.438828 18.293633 27.360951 18.376953 27.332031 C 18.582763 27.260331 18.839154 27.299089 19.027344 27.230469 C 19.347594 27.113259 19.381123 26.770296 19.539062 26.478516 C 19.613563 26.340336 19.711962 26.201936 19.726562 26.103516 C 19.739262 26.015016 19.694684 25.932435 19.708984 25.828125 C 19.724584 25.724845 19.817063 25.634924 19.845703 25.521484 C 19.883203 25.373414 19.898438 25.157118 19.898438 24.992188 C 19.898438 24.856818 19.835778 24.737344 19.830078 24.615234 C 19.807978 24.171864 19.990247 24.122149 20.154297 23.880859 C 20.236597 23.760979 20.266759 23.624963 20.324219 23.539062 C 20.599599 23.128192 21.077529 22.929684 21.042969 22.308594 C 21.031369 22.103064 20.903133 21.637876 20.751953 21.572266 C 20.665453 21.534666 20.466937 21.569184 20.341797 21.521484 C 19.937787 21.370774 19.69987 20.869881 19.28125 20.837891 C 19.19185 20.827091 19.110376 20.874647 19.009766 20.873047 C 18.844056 20.862247 18.593606 20.756968 18.410156 20.736328 C 18.293596 20.723628 18.138339 20.770928 18.068359 20.736328 C 17.961629 20.684428 17.950101 20.488338 17.863281 20.429688 C 17.794381 20.382388 17.661051 20.366552 17.556641 20.326172 C 17.388311 20.261372 17.254777 20.185415 17.060547 20.171875 C 17.000647 20.168875 16.925259 20.200453 16.855469 20.189453 C 16.747989 20.171353 16.663613 20.044745 16.564453 19.984375 C 16.440243 19.908775 16.324788 19.871522 16.273438 19.763672 C 16.385677 19.395522 16.07547 19.292798 16 19.080078 C 15.9639 18.980378 15.980819 18.860394 15.949219 18.771484 C 15.904719 18.644094 15.778675 18.571094 15.640625 18.464844 C 15.393265 18.274464 15.173803 18.096344 14.820312 18.052734 C 14.664913 18.032934 14.511959 18.099391 14.324219 18.087891 C 14.125249 18.075191 13.875403 17.900569 13.726562 17.730469 C 13.581883 17.564409 13.510806 17.415338 13.384766 17.335938 C 13.265376 17.259238 13.106931 17.261214 13.025391 17.183594 C 12.989091 17.149694 12.995831 17.091579 12.957031 17.011719 C 12.897031 16.887379 12.796324 16.818892 12.871094 16.669922 C 12.734884 16.599922 12.731081 16.799287 12.582031 16.773438 C 12.449181 16.584857 12.336866 16.495481 12.035156 16.550781 C 11.896986 16.576281 11.819203 16.751519 11.658203 16.755859 C 11.526183 16.766659 11.422417 16.608754 11.248047 16.583984 C 11.116447 16.565884 10.966727 16.619462 10.873047 16.601562 C 10.727147 16.572463 10.682098 16.450921 10.548828 16.363281 C 10.451128 16.299081 10.261841 16.189666 10.207031 16.191406 C 10.035211 16.202206 9.9127213 16.557201 9.6757812 16.431641 C 9.5606312 16.285731 9.8632225 16.208776 9.7265625 16.072266 C 9.6229625 15.968666 9.535965 16.118611 9.453125 16.175781 C 9.358225 16.241281 9.2689525 16.306893 9.1640625 16.345703 C 8.9292625 16.433603 8.7831094 16.387462 8.5996094 16.482422 C 8.4296994 16.570422 8.4224419 16.717728 8.3261719 16.892578 C 8.2474719 17.035828 8.0674887 17.243313 7.9492188 17.251953 C 7.8059687 17.262753 7.6690025 17.052284 7.5390625 16.996094 C 7.1476125 16.826534 6.9578625 17.146041 6.6328125 17.150391 C 6.3311325 17.161191 5.9008656 16.664479 5.9160156 16.380859 C 5.9190156 16.207799 6.0148763 15.944559 6.0351562 15.730469 C 6.0532563 15.560209 6.169915 15.458154 6.171875 15.302734 C 6.174875 15.095114 5.8964087 14.934776 5.7617188 14.910156 C 5.4423587 14.851456 4.9988225 15.039058 4.6328125 14.892578 C 4.5628125 14.776738 4.7147362 14.696664 4.7539062 14.583984 C 4.7760063 14.519984 4.7642094 14.433731 4.7871094 14.363281 C 4.8277094 14.254421 4.9411475 14.170028 4.9921875 14.054688 C 5.0303875 13.966688 5.039725 13.839679 5.078125 13.730469 C 5.122625 13.606129 5.2052238 13.526663 5.2148438 13.439453 C 5.2275437 13.324313 5.18393 13.191164 5.09375 13.115234 z M 9.6640625 16.734375 C 9.7799125 16.745175 9.7942513 16.984656 9.6757812 17.003906 C 9.5479712 17.023806 9.4835519 16.803444 9.6074219 16.746094 C 9.6281219 16.735294 9.6474625 16.733275 9.6640625 16.734375 z "
       transform="translate(384.57143,515.798)"
       id="path34" />
  </g>
</svg>
