<?xml version="1.0" encoding="UTF-8" standalone="no"?>
<!-- Created with Inkscape (http://www.inkscape.org/) -->

<svg
   xmlns:dc="http://purl.org/dc/elements/1.1/"
   xmlns:cc="http://creativecommons.org/ns#"
   xmlns:rdf="http://www.w3.org/1999/02/22-rdf-syntax-ns#"
   xmlns:svg="http://www.w3.org/2000/svg"
   xmlns="http://www.w3.org/2000/svg"
   xmlns:xlink="http://www.w3.org/1999/xlink"
   xmlns:sodipodi="http://sodipodi.sourceforge.net/DTD/sodipodi-0.dtd"
   xmlns:inkscape="http://www.inkscape.org/namespaces/inkscape"
   width="32"
   height="32"
   id="svg5453"
   version="1.1"
   inkscape:version="0.91+devel r"
   sodipodi:docname="preferences-desktop-accessibility.svg">
  <defs
     id="defs5455">
    <linearGradient
       inkscape:collect="always"
       id="linearGradient4143">
      <stop
         style="stop-color:#197cf1;stop-opacity:1"
         offset="0"
         id="stop4145" />
      <stop
         style="stop-color:#20bcfa;stop-opacity:1"
         offset="1"
         id="stop4147" />
    </linearGradient>
    <linearGradient
       inkscape:collect="always"
       xlink:href="#linearGradient4143"
       id="linearGradient4149"
       x1="400.57144"
       y1="545.79797"
       x2="400.57144"
       y2="517.79797"
       gradientUnits="userSpaceOnUse" />
    <linearGradient
       id="linearGradient4290"
       inkscape:collect="always">
      <stop
         id="stop4292"
         offset="0"
         style="stop-color:#7cbaf8;stop-opacity:1" />
      <stop
         id="stop4294"
         offset="1"
         style="stop-color:#f4fcff;stop-opacity:1" />
    </linearGradient>
    <linearGradient
       inkscape:collect="always"
       xlink:href="#linearGradient4290"
       id="linearGradient4188"
       x1="400.57144"
       y1="538.79797"
       x2="400.57144"
       y2="524.79797"
       gradientUnits="userSpaceOnUse" />
    <linearGradient
       inkscape:collect="always"
       xlink:href="#linearGradient4410"
       id="linearGradient4216"
       x1="9"
       y1="8.9999743"
       x2="23.000042"
       y2="23"
       gradientUnits="userSpaceOnUse" />
    <linearGradient
       id="linearGradient4410"
       inkscape:collect="always">
      <stop
         id="stop4412"
         offset="0"
         style="stop-color:#383e51;stop-opacity:1" />
      <stop
         id="stop4414"
         offset="1"
         style="stop-color:#655c6f;stop-opacity:0" />
    </linearGradient>
  </defs>
  <sodipodi:namedview
     id="base"
     pagecolor="#ffffff"
     bordercolor="#666666"
     borderopacity="1.0"
     inkscape:pageopacity="0"
     inkscape:pageshadow="2"
     inkscape:zoom="22.627417"
     inkscape:cx="12.753286"
     inkscape:cy="12.953515"
     inkscape:document-units="px"
     inkscape:current-layer="layer1"
     showgrid="true"
     fit-margin-top="0"
     fit-margin-left="0"
     fit-margin-right="0"
     fit-margin-bottom="0"
     inkscape:window-width="1366"
     inkscape:window-height="670"
     inkscape:window-x="-4"
     inkscape:window-y="29"
     inkscape:window-maximized="1"
     inkscape:showpageshadow="false"
     borderlayer="true"
     showguides="true">
    <inkscape:grid
       type="xygrid"
       id="grid4063" />
    <sodipodi:guide
       position="1.1650391e-05,32.000026"
       orientation="32,0"
       id="guide4157" />
    <sodipodi:guide
       position="1.1650391e-05,2.6367188e-05"
       orientation="0,32"
       id="guide4159" />
    <sodipodi:guide
       position="32.000012,2.6367188e-05"
       orientation="-32,0"
       id="guide4161" />
    <sodipodi:guide
       position="32.000012,32.000026"
       orientation="0,-32"
       id="guide4163" />
    <sodipodi:guide
       position="2.0000117,30.000026"
       orientation="28,0"
       id="guide4167" />
    <sodipodi:guide
       position="2.0000117,2.0000264"
       orientation="0,28"
       id="guide4169" />
    <sodipodi:guide
       position="30.000012,2.0000264"
       orientation="-28,0"
       id="guide4171" />
    <sodipodi:guide
       position="30.000012,30.000026"
       orientation="0,-28"
       id="guide4173" />
    <sodipodi:guide
       position="2.0000117,30.000026"
       orientation="28,0"
       id="guide4181" />
    <sodipodi:guide
       position="2.0000117,2.0000264"
       orientation="0,14"
       id="guide4183" />
    <sodipodi:guide
       position="16.000012,2.0000264"
       orientation="-28,0"
       id="guide4185" />
    <sodipodi:guide
       position="16.000012,30.000026"
       orientation="0,-14"
       id="guide4187" />
    <sodipodi:guide
       position="9.0000117,23.000026"
       orientation="14,0"
       id="guide4193" />
    <sodipodi:guide
       position="9.0000117,9.0000264"
       orientation="0,14.000031"
       id="guide4195" />
    <sodipodi:guide
       position="23.000042,9.0000264"
       orientation="-14,0"
       id="guide4197" />
    <sodipodi:guide
       position="23.000042,23.000026"
       orientation="0,-14.000031"
       id="guide4199" />
  </sodipodi:namedview>
  <metadata
     id="metadata5458">
    <rdf:RDF>
      <cc:Work
         rdf:about="">
        <dc:format>image/svg+xml</dc:format>
        <dc:type
           rdf:resource="http://purl.org/dc/dcmitype/StillImage" />
        <dc:title />
      </cc:Work>
    </rdf:RDF>
  </metadata>
  <g
     inkscape:label="Capa 1"
     inkscape:groupmode="layer"
     id="layer1"
     transform="translate(-384.57143,-515.798)">
    <rect
       style="opacity:1;fill:url(#linearGradient4149);fill-opacity:1;stroke:none"
       id="rect4130"
       width="28.000011"
       height="28.000027"
       x="386.57144"
       y="517.79797"
       ry="14.000006" />
    <path
       style="fill:url(#linearGradient4216);fill-rule:evenodd;stroke:none;stroke-width:1px;stroke-linecap:butt;stroke-linejoin:miter;stroke-opacity:1;fill-opacity:1;opacity:0.2"
       d="M 17.59375 12.984375 L 16 15.027344 L 17.982422 16.171875 C 17.178512 16.54851 15.777724 17.234569 19 18 C 19.339723 18.0807 18.93686 18.679305 18.849609 19 L 19 19 L 21.703125 21.703125 L 21.3125 23 L 25.025391 26.712891 C 26.168745 25.749763 27.14427 24.601231 27.929688 23.320312 L 17.59375 12.984375 z M 16 14 L 15.917969 14.113281 C 16.043358 14.142621 16.162731 14.185803 16.283203 14.226562 L 16 14 z M 11.621094 20.128906 L 11 21 L 19.535156 29.535156 C 21.035997 29.146602 22.440446 28.52717 23.699219 27.699219 L 17.283203 21.283203 C 16.636156 21.732906 15.851083 22 15 22 C 13.569615 22 12.327895 21.251894 11.621094 20.128906 z "
       transform="translate(384.57143,515.798)"
       id="path4190" />
    <path
       style="opacity:1;fill:url(#linearGradient4188);fill-opacity:1;stroke:none"
       d="m 401.57145,524.798 c -0.831,0 -1.5,0.669 -1.5,1.5 0,0.831 0.669,1.5 1.5,1.5 0.831,0 1.5,-0.669 1.5,-1.5 0,-0.831 -0.669,-1.5 -1.5,-1.5 z m -1.16602,3.31445 -1.78906,5.98047 c -0.009,0.0207 -0.0111,0.0443 -0.0176,0.0664 l -0.0273,0.10351 0.006,0.002 c -8.7e-4,0.0114 -0.006,0.0215 -0.006,0.0332 0,0.277 0.223,0.5 0.5,0.5 l 1.5,0 2,0 1,0 2.30859,4 0.69141,-0.39844 -1,-4.60156 -3.69922,-0.69922 0.0527,-0.75976 3.64649,1.45898 -3.60352,-2.88086 0.20313,-2.11523 -1.76563,-0.68946 z m -0.83398,0.68555 c -2.77,0 -5,2.23 -5,5 0,2.77 2.23,5 5,5 1.12807,0 2.15745,-0.38215 2.99219,-1.00781 l -0.71875,-0.71875 c -0.64444,0.45127 -1.42197,0.72656 -2.27344,0.72656 -2.216,0 -4,-1.784 -4,-4 0,-2.216 1.784,-4 4,-4 l 0,-1 z"
       id="rect4137"
       inkscape:connector-curvature="0" />
  </g>
</svg>
