<?xml version="1.0" encoding="UTF-8" standalone="no"?>
<!-- Created with Inkscape (http://www.inkscape.org/) -->

<svg
   xmlns:dc="http://purl.org/dc/elements/1.1/"
   xmlns:cc="http://creativecommons.org/ns#"
   xmlns:rdf="http://www.w3.org/1999/02/22-rdf-syntax-ns#"
   xmlns:svg="http://www.w3.org/2000/svg"
   xmlns="http://www.w3.org/2000/svg"
   xmlns:xlink="http://www.w3.org/1999/xlink"
   xmlns:sodipodi="http://sodipodi.sourceforge.net/DTD/sodipodi-0.dtd"
   xmlns:inkscape="http://www.inkscape.org/namespaces/inkscape"
   width="48"
   height="48"
   id="svg5453"
   version="1.1"
   inkscape:version="0.91+devel r"
   sodipodi:docname="firefox.svg"
   inkscape:export-filename="/home/uri/Iconos de KDE/Breeze/apps/software/firefox.png"
   inkscape:export-xdpi="1024"
   inkscape:export-ydpi="1024">
  <defs
     id="defs5455">
    <linearGradient
       id="linearGradient4229"
       inkscape:collect="always">
      <stop
         id="stop4231"
         offset="0"
         style="stop-color:#f27a0f;stop-opacity:1" />
      <stop
         id="stop4233"
         offset="1"
         style="stop-color:#fec335;stop-opacity:0" />
    </linearGradient>
    <linearGradient
       inkscape:collect="always"
       id="linearGradient4223">
      <stop
         style="stop-color:#f39c1f;stop-opacity:0"
         offset="0"
         id="stop4225" />
      <stop
         style="stop-color:#f9ae38;stop-opacity:1"
         offset="1"
         id="stop4227" />
    </linearGradient>
    <linearGradient
       id="linearGradient4583"
       inkscape:collect="always">
      <stop
         id="stop4585"
         offset="0"
         style="stop-color:#f38230;stop-opacity:0.80225986" />
      <stop
         id="stop4587"
         offset="1"
         style="stop-color:#fec335;stop-opacity:0.50282484" />
    </linearGradient>
    <linearGradient
       id="linearGradient4403"
       inkscape:collect="always">
      <stop
         id="stop4405"
         offset="0"
         style="stop-color:#fdbc4b;stop-opacity:0" />
      <stop
         id="stop4407"
         offset="1"
         style="stop-color:#f3921f;stop-opacity:1" />
    </linearGradient>
    <linearGradient
       id="linearGradient4354"
       inkscape:collect="always">
      <stop
         id="stop4356"
         offset="0"
         style="stop-color:#f39c1f;stop-opacity:1" />
      <stop
         id="stop4358"
         offset="1"
         style="stop-color:#f9ae38;stop-opacity:1" />
    </linearGradient>
    <linearGradient
       inkscape:collect="always"
       xlink:href="#linearGradient4214"
       id="linearGradient10438"
       x1="23.648802"
       y1="43.493671"
       x2="23.648802"
       y2="4.0000019"
       gradientUnits="userSpaceOnUse"
       gradientTransform="matrix(0.97435896,0,0,0.96217953,385.52902,500.94928)" />
    <linearGradient
       inkscape:collect="always"
       id="linearGradient10454">
      <stop
         style="stop-color:#f38230;stop-opacity:1"
         offset="0"
         id="stop10456" />
      <stop
         style="stop-color:#fec335;stop-opacity:1"
         offset="1"
         id="stop10458" />
    </linearGradient>
    <linearGradient
       inkscape:collect="always"
       xlink:href="#linearGradient10454"
       id="linearGradient4286"
       x1="24.000011"
       y1="44"
       x2="24.000011"
       y2="4.0000038"
       gradientUnits="userSpaceOnUse"
       gradientTransform="translate(384.57143,499.798)" />
    <linearGradient
       inkscape:collect="always"
       xlink:href="#linearGradient10454"
       id="linearGradient4344"
       x1="7"
       y1="37"
       x2="28"
       y2="16"
       gradientUnits="userSpaceOnUse"
       gradientTransform="translate(384.57143,499.798)" />
    <linearGradient
       inkscape:collect="always"
       xlink:href="#linearGradient4354"
       id="linearGradient4352"
       x1="394.57144"
       y1="505.798"
       x2="394.57144"
       y2="529.79797"
       gradientUnits="userSpaceOnUse" />
    <linearGradient
       inkscape:collect="always"
       xlink:href="#linearGradient4229"
       id="linearGradient4369"
       x1="428.57144"
       y1="537.79797"
       x2="408.57144"
       y2="526.25098"
       gradientUnits="userSpaceOnUse" />
    <linearGradient
       inkscape:collect="always"
       xlink:href="#linearGradient4223"
       id="linearGradient4377"
       x1="418.57144"
       y1="543.79797"
       x2="418.57144"
       y2="525.79797"
       gradientUnits="userSpaceOnUse" />
    <linearGradient
       inkscape:collect="always"
       xlink:href="#linearGradient10454"
       id="linearGradient4385"
       x1="408.57144"
       y1="544.79797"
       x2="424.15988"
       y2="517.79797"
       gradientUnits="userSpaceOnUse"
       gradientTransform="translate(1.9632286,-2)" />
    <linearGradient
       inkscape:collect="always"
       xlink:href="#linearGradient4403"
       id="linearGradient4393"
       x1="408.57144"
       y1="538.79797"
       x2="420.57144"
       y2="518.01337"
       gradientUnits="userSpaceOnUse" />
    <linearGradient
       inkscape:collect="always"
       xlink:href="#linearGradient10454"
       id="linearGradient4401"
       x1="427.57144"
       y1="520.79797"
       x2="410.57147"
       y2="503.798"
       gradientUnits="userSpaceOnUse"
       gradientTransform="translate(0,-5.4e-4)" />
    <linearGradient
       id="linearGradient4214"
       inkscape:collect="always">
      <stop
         id="stop4216"
         offset="0"
         style="stop-color:#2f74c8;stop-opacity:1" />
      <stop
         id="stop4218"
         offset="1"
         style="stop-color:#4699d7;stop-opacity:1" />
    </linearGradient>
    <linearGradient
       inkscape:collect="always"
       xlink:href="#linearGradient4583"
       id="linearGradient4580"
       gradientUnits="userSpaceOnUse"
       x1="12"
       y1="17"
       x2="19"
       y2="12"
       gradientTransform="translate(384.57143,499.798)" />
    <linearGradient
       inkscape:collect="always"
       xlink:href="#linearGradient4410"
       id="linearGradient4243"
       x1="401.57144"
       y1="528.79797"
       x2="419.57144"
       y2="546.79797"
       gradientUnits="userSpaceOnUse" />
    <linearGradient
       inkscape:collect="always"
       id="linearGradient4410">
      <stop
         style="stop-color:#383e51;stop-opacity:1"
         offset="0"
         id="stop4412" />
      <stop
         style="stop-color:#655c6f;stop-opacity:0"
         offset="1"
         id="stop4414" />
    </linearGradient>
    <linearGradient
       inkscape:collect="always"
       xlink:href="#linearGradient4410"
       id="linearGradient4355"
       gradientUnits="userSpaceOnUse"
       gradientTransform="translate(-5.49994,-15.3)"
       x1="401.57144"
       y1="528.79797"
       x2="419.57144"
       y2="546.79797" />
  </defs>
  <sodipodi:namedview
     id="base"
     pagecolor="#ffffff"
     bordercolor="#666666"
     borderopacity="1.0"
     inkscape:pageopacity="0"
     inkscape:pageshadow="2"
     inkscape:zoom="10.541667"
     inkscape:cx="24"
     inkscape:cy="24"
     inkscape:document-units="px"
     inkscape:current-layer="layer1"
     showgrid="true"
     fit-margin-top="0"
     fit-margin-left="0"
     fit-margin-right="0"
     fit-margin-bottom="0"
     inkscape:window-width="1366"
     inkscape:window-height="670"
     inkscape:window-x="0"
     inkscape:window-y="30"
     inkscape:window-maximized="1"
     inkscape:showpageshadow="false"
     borderlayer="true"
     showguides="true">
    <inkscape:grid
       type="xygrid"
       id="grid4063" />
    <sodipodi:guide
       position="1.1650391e-05,47.999996"
       orientation="4,0"
       id="guide4146" />
    <sodipodi:guide
       position="1.1650391e-05,43.999996"
       orientation="0,48"
       id="guide4148" />
    <sodipodi:guide
       position="48.000012,31"
       orientation="-4,0"
       id="guide4150" />
    <sodipodi:guide
       position="48.000012,47.999996"
       orientation="0,-48"
       id="guide4152" />
    <sodipodi:guide
       position="1.1650391e-05,4.0000264"
       orientation="4,0"
       id="guide4154" />
    <sodipodi:guide
       position="1.1650391e-05,2.6367188e-05"
       orientation="0,48"
       id="guide4156" />
    <sodipodi:guide
       position="48.000012,2.6367188e-05"
       orientation="-4,0"
       id="guide4158" />
    <sodipodi:guide
       position="48.000012,4.0000264"
       orientation="0,-48"
       id="guide4160" />
    <sodipodi:guide
       position="48.000012,48.000026"
       orientation="0,-4"
       id="guide4162" />
    <sodipodi:guide
       position="44.000012,48.000026"
       orientation="48,0"
       id="guide4164" />
    <sodipodi:guide
       position="44.000012,2.6367188e-05"
       orientation="0,4"
       id="guide4166" />
    <sodipodi:guide
       position="48.000012,2.6367188e-05"
       orientation="-48,0"
       id="guide4168" />
    <sodipodi:guide
       position="4.0000422,48.000026"
       orientation="0,-4"
       id="guide4170" />
    <sodipodi:guide
       position="4.2167969e-05,48.000026"
       orientation="48,0"
       id="guide4172" />
    <sodipodi:guide
       position="4.2167969e-05,2.6367188e-05"
       orientation="0,4"
       id="guide4174" />
    <sodipodi:guide
       position="4.0000422,2.6367188e-05"
       orientation="-48,0"
       id="guide4176" />
    <sodipodi:guide
       position="20.000012,4.0000264"
       orientation="0,8"
       id="guide4155" />
    <sodipodi:guide
       position="28.000012,43.999996"
       orientation="0,-8"
       id="guide4159" />
    <sodipodi:guide
       position="4.0000117,24.000026"
       orientation="20,0"
       id="guide4205" />
    <sodipodi:guide
       position="4.0000117,4.0000264"
       orientation="0,20"
       id="guide4207" />
    <sodipodi:guide
       position="24.000012,4.0000264"
       orientation="-20,0"
       id="guide4209" />
    <sodipodi:guide
       position="24.000012,24.000026"
       orientation="0,-20"
       id="guide4211" />
  </sodipodi:namedview>
  <metadata
     id="metadata5458">
    <rdf:RDF>
      <cc:Work
         rdf:about="">
        <dc:format>image/svg+xml</dc:format>
        <dc:type
           rdf:resource="http://purl.org/dc/dcmitype/StillImage" />
        <dc:title />
      </cc:Work>
    </rdf:RDF>
  </metadata>
  <g
     inkscape:label="Capa 1"
     inkscape:groupmode="layer"
     id="layer1"
     transform="translate(-384.57143,-499.798)">
    <g
       id="g4418">
      <path
         id="path4388"
         d="m 359.88692,511.37525 c -0.0741,-0.10328 -0.11284,-0.24063 -0.19078,-0.34011 0,0 0.0373,0.0761 0.0381,0.0776 0.0517,0.0825 0.10098,0.17748 0.15262,0.26254 z"
         style="display:inline;fill:#ff4100;fill-opacity:1;fill-rule:evenodd;stroke:none;stroke-width:1px;stroke-linecap:butt;stroke-linejoin:miter;stroke-opacity:1"
         inkscape:connector-curvature="0" />
      <path
         inkscape:connector-curvature="0"
         style="fill:#ff5555;fill-opacity:0.78350513;stroke:none"
         d="m 348.57143,503.798 a 20,19.999985 0 0 0 -1.92187,0.11133 20,19.999985 0 0 1 17.92187,19.88867 20,19.999985 0 0 1 -18.07812,19.88867 20,19.999985 0 0 0 2.07812,0.11133 20,19.999985 0 0 0 20,-20 20,19.999985 0 0 0 -20,-20 z"
         id="path4390" />
      <path
         inkscape:connector-curvature="0"
         style="fill:#790000;fill-opacity:0.91752577;stroke:none"
         d="m 354.60463,508.86245 a 17.999985,18 0 0 1 7.9668,14.93555 17.999985,18 0 0 1 -18,18 17.999985,18 0 0 1 -6.03711,-1.06641 17.999985,18 0 0 0 10.03711,3.06641 17.999985,18 0 0 0 18,-18 17.999985,18 0 0 0 -11.9668,-16.93555 z"
         id="path4392" />
      <path
         inkscape:connector-curvature="0"
         style="fill:#ff00ff;fill-opacity:0.52061857;stroke:none"
         d="m 353.63198,543.11831 a 19.999994,19.999998 0 0 0 14.77343,-16.88476 19.999994,19.999998 0 0 1 -8.89062,4.92968 20,20 0 0 1 -0.24219,1.60743 20,20 0 0 1 -0.49414,1.9375 20,20 0 0 1 -0.68555,1.8789 20,20 0 0 1 -0.86914,1.79883 20,20 0 0 1 -1.04492,1.70508 20,20 0 0 1 -1.21094,1.5918 20,20 0 0 1 -1.33593,1.43554 z"
         id="path4394" />
      <path
         style="fill:#ff00ff;fill-opacity:0.52061857;stroke:none"
         d="m 338.21401,508.87027 c -1.16779,0.0774 -2.28747,0.25319 -3.42383,0.5332 0,0 0,0 -0.13672,0.0488 -3.88333,3.76305 -6.0774,8.93822 -6.08203,14.3457 0,11.0457 8.9543,20 20,20 1.70896,-0.009 3.40967,-0.23785 5.06055,-0.67969 0.46852,-0.45638 0.91436,-0.93547 1.33593,-1.43554 0.42995,-0.51008 0.8341,-1.04134 1.21094,-1.5918 0.37652,-0.55058 0.72527,-1.11965 1.04492,-1.70508 0.3195,-0.58476 0.60958,-1.18511 0.86914,-1.79883 0.25971,-0.61448 0.48851,-1.24156 0.68555,-1.8789 0.19692,-0.6372 0.36184,-1.28384 0.49414,-1.9375 0.10248,-0.53231 0.18328,-1.06856 0.24219,-1.60743 -1.61487,0.41688 -3.27555,0.63012 -4.94336,0.63477 -3.36917,-0.008 -6.67111,-0.87697 -9.61133,-2.5 -4.66713,-3.79254 -7.38273,-9.48358 -7.38867,-15.5 0.008,-1.66291 0.22436,-3.31826 0.64258,-4.92773 z"
         id="path4396"
         inkscape:connector-curvature="0"
         sodipodi:nodetypes="ccccccccccccccccc" />
      <path
         inkscape:connector-curvature="0"
         style="fill:#ff00ff;fill-opacity:0.52061857;stroke:none"
         d="m 361.92104,515.63003 a 14.000006,14.000006 0 0 1 0.65039,4.16797 14.000006,14.000006 0 0 1 -14,14 14.000006,14.000006 0 0 1 -11.34961,-5.83203 14.000006,14.000006 0 0 0 13.34961,9.83203 14.000006,14.000006 0 0 0 14,-14 14.000006,14.000006 0 0 0 -2.65039,-8.16797 z"
         id="path4398" />
      <path
         inkscape:connector-curvature="0"
         style="fill:#ff00ff;fill-opacity:0.52061857;stroke:none"
         d="m 357.71401,525.56948 a 20.000006,20.000006 0 0 1 -16.14258,8.22852 20.000006,20.000006 0 0 1 -12.08789,-4.09766 19.999979,19.999998 0 0 0 6.94531,9.95899 20.000006,20.000006 0 0 0 2.14258,0.13867 20.000006,20.000006 0 0 0 19.14258,-14.22852 z"
         id="path4400" />
      <path
         inkscape:connector-curvature="0"
         style="fill:#3a003a;fill-opacity:0.52061857;stroke:none"
         d="m 331.12612,505.73745 a 17,17 0 0 0 -1.55469,7.06055 17,17 0 0 0 16.28711,16.97461 20.000006,20.000006 0 0 1 -11.28711,-17.97461 20.000006,20.000006 0 0 1 0.0977,-1.9707 17,17 0 0 1 -3.54297,-4.08985 z"
         id="path4402" />
      <path
         inkscape:connector-curvature="0"
         style="fill:#3a003a;fill-opacity:0.52061857;stroke:none"
         d="m 358.36635,504.37417 a 19.999979,19.999979 0 0 1 5.20508,13.42383 19.999979,19.999979 0 0 1 -20,20 19.999979,19.999979 0 0 1 -9.79492,-2.57617 19.999979,19.999979 0 0 0 14.79492,6.57617 19.999979,19.999979 0 0 0 20,-20 19.999979,19.999979 0 0 0 -10.20508,-17.42383 z"
         id="path4404" />
      <path
         inkscape:connector-curvature="0"
         style="fill:#00ffff;fill-opacity:0.52061857;stroke:none"
         d="m 344.48549,505.11245 a 16,16 0 0 0 -12.91406,15.68555 16,16 0 0 0 16,16 16,16 0 0 0 11.88672,-5.31445 16,16 0 0 1 -3.08594,0.31445 16,16 0 0 1 -16,-16 16,16 0 0 1 4.11328,-10.68555 z"
         id="path4406" />
      <path
         inkscape:connector-curvature="0"
         style="fill:#00ffff;fill-opacity:0.52061857;stroke:none"
         d="m 336.66909,509.10659 a 16,16 0 0 0 -4.26953,6.6543 9.999979,9.999979 0 0 0 6.17187,2.13672 9.999979,9.999979 0 0 0 9.56836,-7.10742 9.999979,9.999979 0 0 1 -4.56836,1.10742 9.999979,9.999979 0 0 1 -6.90234,-2.79102 z"
         id="path4408" />
      <path
         inkscape:connector-curvature="0"
         style="fill:#ff6600;fill-opacity:0.52061857;stroke:none"
         d="m 344.07143,511.798 a 12.5,12.5 0 0 0 -3.13867,0.4082 14.500006,14.500006 0 0 0 -1.36133,6.0918 14.500006,14.500006 0 0 0 2.70117,8.39648 14.500006,14.500006 0 0 1 -0.70117,-4.39648 14.500006,14.500006 0 0 1 4.34766,-10.34766 12.5,12.5 0 0 0 -1.84766,-0.15234 z"
         id="path4410" />
      <path
         inkscape:connector-curvature="0"
         style="fill:#ff6600;fill-opacity:0.52061857;stroke:none"
         d="m 351.56948,521.87612 a 7,7 0 0 0 -1.68164,0.4629 6.9999943,6.9999943 0 0 1 -2.64649,1.92382 7,7 0 0 0 -1.66601,4.45508 6.9999943,6.9999943 0 0 0 5.99414,-6.8418 z"
         id="path4412" />
      <path
         inkscape:connector-curvature="0"
         style="fill:#ff6600;fill-opacity:0.52061857;stroke:none"
         d="m 351.47768,522.88589 a 6.9999943,6.9999943 0 0 0 -5.81836,5.82227 7,7 0 0 0 5.81836,-5.82227 z"
         id="path4414" />
      <path
         inkscape:connector-curvature="0"
         style="fill:#ff6600;fill-opacity:0.52061857;stroke:none"
         d="m 337.86831,519.79214 a 7,7 0 0 0 -0.29688,2.00586 7,7 0 0 0 7,7 7,7 0 0 0 6.10938,-3.60156 l -1.58008,-2.07422 a 7,7 0 0 1 -4.5293,1.67578 7,7 0 0 1 -6.70312,-5.00586 z"
         id="path4416" />
    </g>
    <circle
       cy="523.79803"
       cx="408.57144"
       id="path4141"
       style="display:inline;opacity:1;fill:url(#linearGradient10438);fill-opacity:1;fill-rule:evenodd;stroke:none;stroke-width:2.66700006;stroke-linecap:round;stroke-linejoin:round;stroke-miterlimit:4;stroke-dasharray:none;stroke-opacity:1"
       r="19" />
    <path
       id="path4353"
       d="m 404.07149,506.498 -14.91406,14.91406 c 3.59036,3.87464 8.63169,14.07969 13.91406,14.08594 5.77766,-0.007 19.23814,-2.64291 22.83789,-7.16211 z"
       style="opacity:0.2;fill:url(#linearGradient4355);fill-opacity:1;fill-rule:evenodd;stroke:none;stroke-width:1px;stroke-linecap:butt;stroke-linejoin:miter;stroke-opacity:1"
       inkscape:connector-curvature="0"
       sodipodi:nodetypes="ccccc" />
    <path
       inkscape:connector-curvature="0"
       style="opacity:0.2;fill:url(#linearGradient4243);fill-opacity:1;fill-rule:evenodd;stroke:none;stroke-width:1px;stroke-linecap:butt;stroke-linejoin:miter;stroke-opacity:1"
       d="m 409.57143,521.798 -14.91406,14.91406 a 19,19 0 0 0 13.91406,6.08594 19,19 0 0 0 14.83789,-7.16211 L 409.57143,521.798 Z"
       id="path4235" />
    <path
       id="path4216"
       d="m 419.88692,511.37525 c -0.0741,-0.10328 -0.11284,-0.24063 -0.19078,-0.34011 0,0 0.0373,0.0761 0.0381,0.0776 0.0517,0.0825 0.10098,0.17748 0.15262,0.26254 z"
       style="display:inline;fill:#ff4100;fill-opacity:1;fill-rule:evenodd;stroke:none;stroke-width:1px;stroke-linecap:butt;stroke-linejoin:miter;stroke-opacity:1"
       inkscape:connector-curvature="0" />
    <path
       style="fill:url(#linearGradient4286);fill-opacity:1;stroke:none"
       d="m 408.57143,503.798 c -0.24469,0.002 -0.48805,0.0316 -0.73242,0.043 3.73242,0.95703 4.85516,2.16251 5.51797,4.14844 0.70557,1.33647 2.2145,1.80763 4.95664,1.86718 1.11371,0.0242 1.98216,1.26572 2.61914,2.36133 -1.81194,-1.87847 -5.77617,-0.58154 -8.14063,-1.5 10.07022,3.21474 8.9698,12.26715 5.82227,17.65625 -0.19755,-0.97916 -1.04297,-0.57617 -0.90039,-2.80469 -1.14258,5.22852 -10.14186,7.22852 -12.96289,2.92969 0.10293,-0.0296 0.20517,-0.0615 0.30664,-0.0957 l 0.0137,-0.006 c 0.0261,-0.008 0.0521,-0.0168 0.0781,-0.0254 0.0563,-0.0208 0.11226,-0.0422 0.16797,-0.0644 0.12587,-0.0498 0.25027,-0.10318 0.37305,-0.16016 0.0379,-0.0166 0.0757,-0.0335 0.11328,-0.0508 0.0471,-0.0236 0.094,-0.0476 0.14062,-0.0723 0.11495,-0.0581 0.22828,-0.11928 0.33985,-0.18359 0.0538,-0.0305 0.10718,-0.0618 0.16015,-0.0937 0.038,-0.025 0.0758,-0.0504 0.11328,-0.0762 0.10943,-0.0699 0.2169,-0.14286 0.32227,-0.21875 0.0427,-0.0301 0.085,-0.0607 0.12695,-0.0918 0.0421,-0.0334 0.0837,-0.0672 0.125,-0.10156 0.0883,-0.0708 0.17496,-0.14375 0.25977,-0.21875 0.0548,-0.0467 0.10881,-0.0942 0.16211,-0.14258 0.0415,-0.0405 0.0825,-0.0815 0.12304,-0.12305 0.0644,-0.0639 0.12758,-0.12899 0.18946,-0.19531 0.0625,-0.0646 0.12366,-0.13034 0.18359,-0.19727 l 0.006,-0.006 c 0.029,-0.0362 0.0577,-0.0726 0.0859,-0.10937 l 0.0117,-0.0117 c 0.0546,-0.0661 0.10801,-0.13314 0.16016,-0.20117 0.0574,-0.0725 0.11344,-0.14604 0.16797,-0.22071 l 0.006,-0.008 c 0.009,-0.0149 0.0183,-0.0299 0.0273,-0.0449 0.0271,-0.0401 0.0538,-0.0805 0.0801,-0.12109 0.0393,-0.058 0.0777,-0.11662 0.11523,-0.17578 0.0589,-0.093 0.11552,-0.18748 0.16992,-0.2832 l 0.002,-0.004 c 0.10609,-0.19067 0.2032,-0.38619 0.29102,-0.58593 l 0.002,-0.002 0.006,-0.0156 c 0.23049,-0.52982 0.3945,-1.08613 0.48828,-1.65625 0.003,-0.0169 0.007,-0.0338 0.01,-0.0508 0.055,-0.33393 0.0857,-0.6714 0.0918,-1.00977 -0.57765,0.0836 -1.14259,0.23909 -1.68164,0.46289 -0.26409,0.30643 -0.55424,0.58939 -0.86719,0.84571 -0.11306,0.0928 -0.229,0.18203 -0.34766,0.26757 -0.0732,0.0542 -0.14741,0.10692 -0.22265,0.15821 -0.11503,0.0757 -0.23227,0.148 -0.35157,0.21679 -0.0862,0.0513 -0.17342,0.10084 -0.26171,0.14844 -0.1452,0.0775 -0.29307,0.14976 -0.44336,0.2168 -0.0324,0.0152 -0.065,0.0302 -0.0977,0.0449 -0.86233,0.36758 -1.78831,0.55792 -2.72487,0.56062 -0.40219,-0.003 -0.80342,-0.0398 -1.19922,-0.11133 -1.00123,-2.88867 -0.002,-4.88929 1.91211,-6.10351 2.08621,-0.78578 5.08438,-2.7856 5.08985,-8.02735 -2.77605,2.18404 -5.97777,2.23444 -6.73438,0.83985 -0.30056,-0.554 -0.23145,-1.20449 0.0615,-2.24024 0.39616,-0.917 1.58778,-1.79299 2.15142,-2.625 -2.51569,0.3724 -4.72669,0.74793 -6.47656,2.2832 l -0.80078,0.74415 -0.30273,-0.002 c -0.76165,-9e-5 -1.47102,0.0832 -1.89063,0.19335 -1.35483,-1.14844 -2.52133,-2.5021 -3.45703,-4.01172 -1.01847,2.21483 -1.54869,4.62279 -1.55469,7.06055 0.002,1.16637 0.12475,2.32939 0.36523,3.4707 -0.91834,2.32369 -1.36294,4.84848 -1.36523,7.5293 0,11.0457 8.9543,20 20,20 0.52617,-0.003 1.05083,-0.0339 1.57422,-0.0781 0.0741,-0.006 0.14863,-0.005 0.22266,-0.0117 0.10318,-0.009 0.20199,-0.0321 0.30468,-0.043 0.34829,-0.0388 0.69523,-0.0875 1.04102,-0.14453 9.63459,-1.52845 16.853,-9.83416 16.85742,-19.72265 -4.3e-4,-7.63235 -3.03487,-15.21939 -9.61042,-17.98947 -1.94815,-0.50109 -2.72599,-0.79962 -3.8073,-2.00021 0.41444,1.46566 0.4835,1.50484 1.84063,2.28837 2.50022,0.0657 2.80036,0.79543 2.96921,2.30246 0.22125,0.35179 0.1192,0.20882 0.31836,0.57421 -3.54579,-2.84035 -7.16737,-5.17364 -11.71052,-5.17541 z"
       id="path4217"
       inkscape:connector-curvature="0"
       sodipodi:nodetypes="cccsccccccccccccccccccccccccccccccccccccccccccccccccccccsccccccccccccccccccccccc" />
    <path
       id="path4290"
       d="m 419.88692,511.37525 c -0.0741,-0.10328 -0.11284,-0.24063 -0.19078,-0.34011 0,0 0.0373,0.0761 0.0381,0.0776 0.0517,0.0825 0.10098,0.17748 0.15262,0.26254 z"
       style="display:inline;fill:#ff4100;fill-opacity:1;fill-rule:evenodd;stroke:none;stroke-width:1px;stroke-linecap:butt;stroke-linejoin:miter;stroke-opacity:1"
       inkscape:connector-curvature="0" />
    <path
       inkscape:connector-curvature="0"
       style="fill:url(#linearGradient4401);fill-opacity:1;stroke:none"
       d="m 408.57143,503.79746 a 20,19.999985 0 0 0 -1.92187,0.11133 20,19.999985 0 0 1 17.92187,19.88867 20,19.999985 0 0 1 -18.07812,19.88867 20,19.999985 0 0 0 2.07812,0.11133 20,19.999985 0 0 0 20,-20 20,19.999985 0 0 0 -20,-20 z"
       id="path4292" />
    <path
       inkscape:connector-curvature="0"
       style="fill:url(#linearGradient4385);fill-opacity:1;stroke:none"
       d="m 417.77734,509.51857 c 4.97691,3.34134 6.75437,6.28491 6.75732,12.27943 0,9.94113 -8.05888,18.00001 -18,18 -2.05854,-0.008 -4.10052,-0.36834 -6.03711,-1.06641 2.96683,1.99647 6.46109,3.06399 10.03711,3.06641 9.94112,10e-6 18,-8.05887 18,-18 0,-7.24082 -2.74469,-15.66515 -10.75732,-14.27943 z"
       id="path4294"
       sodipodi:nodetypes="ccccccc" />
    <path
       inkscape:connector-curvature="0"
       style="fill:url(#linearGradient4377);fill-opacity:1;stroke:none"
       d="m 413.63198,543.11831 a 19.999994,19.999998 0 0 0 14.77343,-16.88476 19.999994,19.999998 0 0 1 -8.89062,4.92968 20,20 0 0 1 -0.24219,1.60743 20,20 0 0 1 -0.49414,1.9375 20,20 0 0 1 -0.68555,1.8789 20,20 0 0 1 -0.86914,1.79883 20,20 0 0 1 -1.04492,1.70508 20,20 0 0 1 -1.21094,1.5918 20,20 0 0 1 -1.33593,1.43554 z"
       id="path4296" />
    <path
       inkscape:connector-curvature="0"
       style="fill:url(#linearGradient4393);fill-opacity:1;stroke:none"
       d="m 421.92104,515.63003 a 14.000006,14.000006 0 0 1 0.65039,4.16797 14.000006,14.000006 0 0 1 -14,14 14.000006,14.000006 0 0 1 -11.34961,-5.83203 14.000006,14.000006 0 0 0 13.34961,9.83203 14.000006,14.000006 0 0 0 14,-14 14.000006,14.000006 0 0 0 -2.65039,-8.16797 z"
       id="path4300" />
    <path
       inkscape:connector-curvature="0"
       style="fill:url(#linearGradient4352);fill-opacity:1;stroke:none"
       d="m 391.12612,505.73745 a 17,17 0 0 0 -1.55469,7.06055 17,17 0 0 0 16.28711,16.97461 20.000006,20.000006 0 0 1 -11.28711,-17.97461 20.000006,20.000006 0 0 1 0.0977,-1.9707 17,17 0 0 1 -3.54297,-4.08985 z"
       id="path4304" />
    <path
       inkscape:connector-curvature="0"
       style="fill:url(#linearGradient4369);fill-opacity:1;stroke:none"
       d="m 417.99742,504.37417 c 3.34131,3.67329 5.56559,8.45821 5.57401,13.42383 10e-6,11.0457 -8.9543,20.00001 -20,20 -3.43193,-0.004 -6.80506,-0.89128 -9.79492,-2.57617 3.78425,4.17946 9.1568,6.5675 14.79492,6.57617 11.04895,10e-4 20.10905,-8.70006 19.43107,-20 -0.20862,-6.51306 -2.65257,-13.27057 -10.00508,-17.42383 z"
       id="path4306"
       sodipodi:nodetypes="ccccccc" />
    <path
       inkscape:connector-curvature="0"
       style="fill:url(#linearGradient4344);fill-opacity:1;stroke:none"
       d="m 403.26088,506.65933 c -1.07828,0.17033 -2.09737,0.36617 -3.04101,0.68359 -0.0381,0.0129 -0.0755,0.0277 -0.11328,0.041 -0.18087,0.0632 -0.35815,0.12968 -0.53321,0.20312 -0.10058,0.0425 -0.19826,0.0905 -0.29687,0.13672 -0.13183,0.0614 -0.26438,0.12268 -0.39258,0.19141 -0.12043,0.0649 -0.23633,0.13903 -0.35352,0.21094 -0.10694,0.0653 -0.21619,0.12566 -0.32031,0.19726 -0.21681,0.14957 -0.42834,0.31084 -0.63281,0.49024 l -0.80078,0.74414 -0.30274,-0.002 c -0.7107,-8e-5 -1.35453,0.0766 -1.78125,0.17578 -2.01184,3.15732 -3.11773,7.63584 -3.12109,11.0664 0,8.83656 7.16344,16 16,16 4.53648,-0.006 8.85705,-1.93795 11.88672,-5.31445 -1.01604,0.20451 -2.04954,0.30983 -3.08594,0.31445 -1.89458,-0.007 -3.77242,-0.35176 -5.54687,-1.01563 -0.001,-4.3e-4 -0.003,4.4e-4 -0.004,0 -0.009,10e-4 -0.0182,9.6e-4 -0.0273,0.002 -0.31825,0.0348 -0.63604,0.0512 -0.95118,0.0527 -0.0995,4.8e-4 -0.19605,-0.009 -0.29492,-0.0117 -0.21619,-0.006 -0.43081,-0.0161 -0.64258,-0.039 -0.13168,-0.0143 -0.25924,-0.0378 -0.38867,-0.0586 -0.18291,-0.0293 -0.36362,-0.061 -0.54101,-0.10352 -0.12257,-0.0294 -0.24188,-0.0638 -0.36133,-0.0996 -0.18297,-0.0549 -0.36066,-0.1173 -0.53516,-0.1875 -0.1026,-0.0412 -0.20345,-0.0842 -0.30273,-0.13086 -0.17525,-0.0823 -0.34217,-0.17603 -0.50586,-0.27539 -0.094,-0.057 -0.18953,-0.11111 -0.2793,-0.17383 -0.16033,-0.11206 -0.30757,-0.24055 -0.45312,-0.37109 -0.0743,-0.0666 -0.15448,-0.12575 -0.22461,-0.19727 -0.20584,-0.20993 -0.39655,-0.43656 -0.5625,-0.68945 0.10293,-0.0296 0.20517,-0.0615 0.30664,-0.0957 l 0.0137,-0.006 c 0.0261,-0.008 0.0521,-0.0168 0.0781,-0.0254 0.0563,-0.0208 0.11226,-0.0422 0.16797,-0.0644 0.12587,-0.0498 0.25027,-0.10318 0.37305,-0.16016 0.0379,-0.0166 0.0757,-0.0335 0.11328,-0.0508 0.0471,-0.0236 0.094,-0.0476 0.14062,-0.0723 0.0231,-0.0117 0.0453,-0.0252 0.0684,-0.0371 -1.09449,-0.93593 -2.05761,-2.01534 -2.86328,-3.20898 -0.1257,0.007 -0.25073,0.0192 -0.37695,0.0195 -0.4022,-0.003 -0.80342,-0.0398 -1.19922,-0.11133 -0.11698,-0.33749 -0.2032,-0.6621 -0.26563,-0.97461 -0.0433,-0.21216 -0.0597,-0.41203 -0.0801,-0.61328 -0.008,-0.089 -0.0272,-0.18263 -0.0312,-0.26953 -0.014,-0.25985 -0.002,-0.50702 0.0215,-0.74805 0.001,-0.0134 4.7e-4,-0.0276 0.002,-0.041 0.0269,-0.25803 0.076,-0.50365 0.14258,-0.74023 -0.65044,-1.76166 -0.98563,-3.62407 -0.99028,-5.50195 0.008,-3.27025 1.01711,-6.45964 2.89258,-9.13867 -0.001,2e-4 -0.003,-2.1e-4 -0.004,0 z"
       id="path4308" />
    <path
       inkscape:connector-curvature="0"
       style="fill:url(#linearGradient4580);fill-opacity:1;stroke:none"
       d="m 401.65541,510.548 c -5.31149,5.56317 -2.5002,10.43104 -0.4707,12.16992 -0.0632,-1.85446 0.85717,-3.21885 2.30078,-4.13476 0.0997,-0.0376 0.20907,-0.0934 0.3125,-0.13672 -0.92624,-2.1546 -0.51885,-4.42598 -0.008,-6.12696 -0.92151,-0.0436 -1.64195,-0.35747 -1.94922,-0.92382 -0.13655,-0.25168 -0.18792,-0.52909 -0.18556,-0.84766 z"
       id="path4576" />
    <path
       inkscape:connector-curvature="0"
       style="fill:#ffffff;fill-opacity:1;stroke:none"
       d="m 408.55776,511.04214 c -0.48776,0.89918 -1.14282,1.91235 -1.98633,2.75586 -1.82071,1.8207 -4.46341,2.8224 -4.92383,6.75781 0.40054,-0.79958 1.03068,-1.46051 1.83789,-1.97265 2.01914,-0.76052 4.88462,-2.66755 5.07227,-7.54102 z"
       id="path4179" />
    <path
       style="fill:#000000;fill-opacity:1;stroke:none"
       d="m 408.57534,510.55581 c -0.46311,0.36435 -0.94116,0.64632 -1.37696,0.90235 0.32154,0.54215 0.73359,1.04623 1.13282,1.47265 0.15207,-0.70864 0.24322,-1.4921 0.24414,-2.375 z"
       id="path4272"
       inkscape:connector-curvature="0"
       sodipodi:nodetypes="cccc" />
    <path
       inkscape:connector-curvature="0"
       style="opacity:1;fill:#da4f2a;fill-opacity:0.15686275;stroke:none"
       d="m 388.58313,523.29749 c -0.004,0.16654 -0.0117,0.33244 -0.0117,0.5 0,11.08 8.92,20 20,20 11.08,0 20,-8.92 20,-20 0,-0.16756 -0.008,-0.33346 -0.0117,-0.5 -0.26467,10.84613 -9.07616,19.5 -19.98828,19.5 -10.91212,0 -19.72361,-8.65387 -19.98828,-19.5 z"
       id="rect4409" />
  </g>
</svg>
