<?xml version="1.0" encoding="UTF-8" standalone="no"?>
<!-- Created with Inkscape (http://www.inkscape.org/) -->

<svg
   xmlns:dc="http://purl.org/dc/elements/1.1/"
   xmlns:cc="http://creativecommons.org/ns#"
   xmlns:rdf="http://www.w3.org/1999/02/22-rdf-syntax-ns#"
   xmlns:svg="http://www.w3.org/2000/svg"
   xmlns="http://www.w3.org/2000/svg"
   xmlns:xlink="http://www.w3.org/1999/xlink"
   xmlns:sodipodi="http://sodipodi.sourceforge.net/DTD/sodipodi-0.dtd"
   xmlns:inkscape="http://www.inkscape.org/namespaces/inkscape"
   width="48"
   height="48"
   id="svg5453"
   version="1.1"
   inkscape:version="0.91+devel r"
   sodipodi:docname="libreoffice-calc.svg">
  <defs
     id="defs5455">
    <linearGradient
       inkscape:collect="always"
       id="linearGradient4320">
      <stop
         style="stop-color:#70e4b3;stop-opacity:1"
         offset="0"
         id="stop4322" />
      <stop
         style="stop-color:#c8f0dc;stop-opacity:1"
         offset="1"
         id="stop4324" />
    </linearGradient>
    <linearGradient
       gradientTransform="translate(-388.97768,-501.79772)"
       y2="533.79773"
       x2="420.97769"
       y1="517.79773"
       x1="404.97769"
       gradientUnits="userSpaceOnUse"
       id="linearGradient3043"
       xlink:href="#linearGradient4410"
       inkscape:collect="always" />
    <linearGradient
       inkscape:collect="always"
       xlink:href="#linearGradient4300"
       id="linearGradient4263"
       gradientUnits="userSpaceOnUse"
       gradientTransform="matrix(0.7272726,0,0,0.68965569,0.72726,1.93103)"
       x1="560.78583"
       y1="785.70648"
       x2="560.78583"
       y2="727.70654" />
    <linearGradient
       id="linearGradient4300"
       inkscape:collect="always">
      <stop
         id="stop4302"
         offset="0"
         style="stop-color:#26c281;stop-opacity:1" />
      <stop
         id="stop4304"
         offset="1"
         style="stop-color:#3fc380;stop-opacity:1" />
    </linearGradient>
    <linearGradient
       inkscape:collect="always"
       xlink:href="#linearGradient4320"
       id="linearGradient4318"
       x1="409.57144"
       y1="531.79797"
       x2="409.57144"
       y2="515.79797"
       gradientUnits="userSpaceOnUse" />
    <linearGradient
       id="linearGradient4410"
       inkscape:collect="always">
      <stop
         id="stop4412"
         offset="0"
         style="stop-color:#383e51;stop-opacity:1" />
      <stop
         id="stop4414"
         offset="1"
         style="stop-color:#655c6f;stop-opacity:0" />
    </linearGradient>
  </defs>
  <sodipodi:namedview
     id="base"
     pagecolor="#ffffff"
     bordercolor="#666666"
     borderopacity="1.0"
     inkscape:pageopacity="0"
     inkscape:pageshadow="2"
     inkscape:zoom="5.2708333"
     inkscape:cx="10.792491"
     inkscape:cy="36.39425"
     inkscape:document-units="px"
     inkscape:current-layer="layer1"
     showgrid="true"
     fit-margin-top="0"
     fit-margin-left="0"
     fit-margin-right="0"
     fit-margin-bottom="0"
     inkscape:window-width="1366"
     inkscape:window-height="670"
     inkscape:window-x="-4"
     inkscape:window-y="29"
     inkscape:window-maximized="1"
     inkscape:showpageshadow="false"
     borderlayer="true"
     showguides="true"
     inkscape:snap-bbox="true"
     inkscape:snap-global="true">
    <inkscape:grid
       type="xygrid"
       id="grid4063" />
    <sodipodi:guide
       position="1.1650391e-05,47.999996"
       orientation="4,0"
       id="guide4146" />
    <sodipodi:guide
       position="39,44"
       orientation="0,48"
       id="guide4148" />
    <sodipodi:guide
       position="48.000012,43.999996"
       orientation="-4,0"
       id="guide4150" />
    <sodipodi:guide
       position="48.000012,47.999996"
       orientation="0,-48"
       id="guide4152" />
    <sodipodi:guide
       position="1.1650391e-05,4.0000264"
       orientation="4,0"
       id="guide4154" />
    <sodipodi:guide
       position="1.1650391e-05,2.6367188e-05"
       orientation="0,48"
       id="guide4156" />
    <sodipodi:guide
       position="48.000012,2.6367188e-05"
       orientation="-4,0"
       id="guide4158" />
    <sodipodi:guide
       position="48.000012,4.0000264"
       orientation="0,-48"
       id="guide4160" />
    <sodipodi:guide
       position="48.000012,48.000026"
       orientation="0,-4"
       id="guide4162" />
    <sodipodi:guide
       position="40,16"
       orientation="48,0"
       id="guide4164" />
    <sodipodi:guide
       position="44.000012,2.6367188e-05"
       orientation="0,4"
       id="guide4166" />
    <sodipodi:guide
       position="48.000012,2.6367188e-05"
       orientation="-48,0"
       id="guide4168" />
    <sodipodi:guide
       position="4.0000422,48.000026"
       orientation="0,-4"
       id="guide4170" />
    <sodipodi:guide
       position="4.2167969e-05,48.000026"
       orientation="48,0"
       id="guide4172" />
    <sodipodi:guide
       position="4.2167969e-05,2.6367188e-05"
       orientation="0,4"
       id="guide4174" />
    <sodipodi:guide
       position="8.0000117,43.999996"
       orientation="13.999969,0"
       id="guide4888" />
    <sodipodi:guide
       position="22.000012,43.999996"
       orientation="0,-14"
       id="guide4894" />
    <sodipodi:guide
       position="16.000012,32.000026"
       orientation="16,0"
       id="guide4216" />
    <sodipodi:guide
       position="16.000012,16.000026"
       orientation="0,16"
       id="guide4218" />
    <sodipodi:guide
       position="32.000012,16.000026"
       orientation="-16,0"
       id="guide4220" />
    <sodipodi:guide
       position="32.000012,32.000026"
       orientation="0,-16"
       id="guide4222" />
  </sodipodi:namedview>
  <metadata
     id="metadata5458">
    <rdf:RDF>
      <cc:Work
         rdf:about="">
        <dc:format>image/svg+xml</dc:format>
        <dc:type
           rdf:resource="http://purl.org/dc/dcmitype/StillImage" />
        <dc:title />
      </cc:Work>
    </rdf:RDF>
  </metadata>
  <g
     inkscape:label="Capa 1"
     inkscape:groupmode="layer"
     id="layer1"
     transform="translate(-384.57143,-499.798)">
    <path
       style="fill:url(#linearGradient4263);fill-opacity:1;stroke:none"
       d="m 392.5812,503.798 c -0.006,0 -0.01,3.56799 -0.01,8 l 0,24 c 0,4.432 0.004,8 0.01,8 l 21.80273,0 10.17773,0 c 0.006,0 0.01,-3.568 0.01,-8 l 0,-1.65625 0,-18.34375 -12,-12 z"
       id="path4259"
       inkscape:connector-curvature="0"
       sodipodi:nodetypes="sssscsscccs" />
    <rect
       style="fill:#2e3132;fill-opacity:0.29411765;stroke:none"
       id="rect4169-4"
       width="31.999989"
       height="0.99999309"
       x="392.57144"
       y="542.79797" />
    <path
       style="opacity:0.2;fill:url(#linearGradient3043);fill-opacity:1;fill-rule:evenodd;stroke:none"
       d="M 16 16 L 16 32 L 27 44 L 40 44 L 40 24 L 32 16 L 16 16 z "
       id="path4225"
       transform="translate(384.57143,499.798)" />
    <path
       inkscape:connector-curvature="0"
       style="text-decoration:none;color:#000000;fill:url(#linearGradient4318);fill-opacity:1;fill-rule:nonzero;stroke:none;visibility:visible;display:inline;overflow:visible;enable-background:accumulate"
       d="m 400.57142,515.798 0,16 16,0 0,-16 z m 1.00001,1 14,0 0,2 -14,0 z m 0,3 3,0 0,2 -3,0 z m 4,0 6,0 0,2 -6,0 z m 7,0 3,0 0,2 -3,0 z m -11,3 3,0 0,2 -3,0 z m 4,0 6,0 0,2 -6,0 z m 7,0 3,0 0,2 -3,0 z m -11,3 3,0 0,2 -3,0 z m 4,0 6,0 0,2 -6,0 z m 7,0 3,0 0,2 -3,0 z m -11,3 3,0 0,2 -3,0 z m 4,0 6,0 0,2 -6,0 z m 7,0 3,0 0,2 -3,0 z"
       id="rect4167"
       sodipodi:nodetypes="cccccccccccccccccccccccccccccccccccccccccccccccccccccccccccccccccccccc" />
    <path
       style="opacity:1;fill:#289769;fill-opacity:1;stroke:none;stroke-opacity:1"
       d="m 424.56166,513.78823 c 0.006,-0.009 0.01,-2.22564 0.01,-4.99023 0,-2.77 -0.004,-5 -0.01,-5 l -9.98046,0 c -2e-5,0 10e-6,0.01 0,0.01 l 9.98046,9.98047 z"
       id="rect4307"
       inkscape:connector-curvature="0" />
  </g>
</svg>
