<?xml version="1.0" encoding="UTF-8" standalone="no"?>
<!-- Created with Inkscape (http://www.inkscape.org/) -->

<svg
   xmlns:dc="http://purl.org/dc/elements/1.1/"
   xmlns:cc="http://creativecommons.org/ns#"
   xmlns:rdf="http://www.w3.org/1999/02/22-rdf-syntax-ns#"
   xmlns:svg="http://www.w3.org/2000/svg"
   xmlns="http://www.w3.org/2000/svg"
   xmlns:xlink="http://www.w3.org/1999/xlink"
   xmlns:sodipodi="http://sodipodi.sourceforge.net/DTD/sodipodi-0.dtd"
   xmlns:inkscape="http://www.inkscape.org/namespaces/inkscape"
   width="48"
   height="48"
   id="svg5453"
   version="1.1"
   inkscape:version="0.91 r13725"
   sodipodi:docname="plasma-mobile-phone.svg">
  <defs
     id="defs5455">
    <linearGradient
       inkscape:collect="always"
       xlink:href="#linearGradient4722"
       id="linearGradient4300"
       x1="408.57144"
       y1="543.79797"
       x2="408.57144"
       y2="503.798"
       gradientUnits="userSpaceOnUse" />
    <linearGradient
       inkscape:collect="always"
       xlink:href="#linearGradient4722"
       id="linearGradient4314"
       x1="408.57144"
       y1="537.79797"
       x2="408.57144"
       y2="509.798"
       gradientUnits="userSpaceOnUse"
       gradientTransform="translate(0,-1047.5959)" />
    <linearGradient
       id="linearGradient4722"
       inkscape:collect="always">
      <stop
         id="stop4724"
         offset="0"
         style="stop-color:#a1adb3;stop-opacity:1" />
      <stop
         id="stop4726"
         offset="1"
         style="stop-color:#bfc7cb;stop-opacity:1" />
    </linearGradient>
    <linearGradient
       id="linearGradient4159-5"
       inkscape:collect="always">
      <stop
         id="stop4161-5"
         offset="0"
         style="stop-color:#1d1e1e;stop-opacity:1" />
      <stop
         id="stop4163-7"
         offset="1"
         style="stop-color:#44484c;stop-opacity:1" />
    </linearGradient>
    <linearGradient
       inkscape:collect="always"
       xlink:href="#linearGradient4159-5"
       id="linearGradient4459"
       x1="24"
       y1="31"
       x2="24"
       y2="17"
       gradientUnits="userSpaceOnUse"
       gradientTransform="matrix(1,0,0,-1,384.57143,547.798)" />
  </defs>
  <sodipodi:namedview
     id="base"
     pagecolor="#ffffff"
     bordercolor="#666666"
     borderopacity="1.0"
     inkscape:pageopacity="0"
     inkscape:pageshadow="2"
     inkscape:zoom="7.6458333"
     inkscape:cx="24"
     inkscape:cy="24"
     inkscape:document-units="px"
     inkscape:current-layer="layer1"
     showgrid="true"
     fit-margin-top="0"
     fit-margin-left="0"
     fit-margin-right="0"
     fit-margin-bottom="0"
     inkscape:window-width="1024"
     inkscape:window-height="544"
     inkscape:window-x="0"
     inkscape:window-y="0"
     inkscape:window-maximized="1"
     inkscape:showpageshadow="false"
     borderlayer="true"
     showguides="true">
    <inkscape:grid
       type="xygrid"
       id="grid4063"
       empspacing="2" />
    <sodipodi:guide
       position="1.1650391e-05,43.999996"
       orientation="0,48"
       id="guide4148" />
    <sodipodi:guide
       position="44.000012,48.000026"
       orientation="48,0"
       id="guide4164" />
    <sodipodi:guide
       position="48.000012,2.6367188e-05"
       orientation="-48,0"
       id="guide4168" />
    <sodipodi:guide
       position="15,0"
       orientation="0,-4"
       id="guide4170" />
    <sodipodi:guide
       position="4.2167969e-05,48.000026"
       orientation="48,0"
       id="guide4172" />
    <sodipodi:guide
       position="41,4"
       orientation="0,4"
       id="guide4174" />
    <sodipodi:guide
       position="4.0000422,2.6367188e-05"
       orientation="-48,0"
       id="guide4176" />
    <sodipodi:guide
       position="48.000012,47.999996"
       orientation="0,-47.999969"
       id="guide4305" />
  </sodipodi:namedview>
  <metadata
     id="metadata5458">
    <rdf:RDF>
      <cc:Work
         rdf:about="">
        <dc:format>image/svg+xml</dc:format>
        <dc:type
           rdf:resource="http://purl.org/dc/dcmitype/StillImage" />
        <dc:title></dc:title>
      </cc:Work>
    </rdf:RDF>
  </metadata>
  <g
     inkscape:label="Capa 1"
     inkscape:groupmode="layer"
     id="layer1"
     transform="translate(-384.57143,-499.798)">
    <ellipse
       style="opacity:1;fill:url(#linearGradient4300);fill-opacity:1.0;stroke:none"
       id="path4193"
       cx="408.57144"
       cy="523.79797"
       rx="19.999985"
       ry="20" />
    <ellipse
       ry="14"
       rx="13.99999"
       cy="-523.79797"
       cx="408.57144"
       id="ellipse4213"
       style="opacity:1;fill:url(#linearGradient4314);fill-opacity:1.0;stroke:none"
       transform="scale(1,-1)" />
    <path
       style="opacity:1;fill:url(#linearGradient4459);fill-opacity:1;stroke:none"
       d="m 408.57143,530.798 a 1,1 0 0 1 -1,-1 1,1 0 0 1 1,-1 1,1 0 0 1 1,1 1,1 0 0 1 -1,1 z m -4.22852,-1.75781 a 1,1 0 0 1 -0.7207,-0.29297 1,1 0 0 1 0,-1.41406 1,1 0 0 1 1.41406,0 1,1 0 0 1 0,1.41406 1,1 0 0 1 -0.69336,0.29297 z m 8.45704,0 a 1,1 0 0 1 -0.69336,-0.29297 1,1 0 0 1 0,-1.41406 1,1 0 0 1 1.41406,0 1,1 0 0 1 0,1.41406 1,1 0 0 1 -0.7207,0.29297 z m -4.22852,-3.24219 a 2,2 0 0 1 -2,-2 2,2 0 0 1 2,-2 2,2 0 0 1 2,2 2,2 0 0 1 -2,2 z m -6,-1 a 1,1 0 0 1 -1,-1 1,1 0 0 1 1,-1 1,1 0 0 1 1,1 1,1 0 0 1 -1,1 z m 12,0 a 1,1 0 0 1 -1,-1 1,1 0 0 1 1,-1 1,1 0 0 1 1,1 1,1 0 0 1 -1,1 z m -10.25781,-4.24219 a 1,1 0 0 1 -0.69141,-0.29297 1,1 0 0 1 0,-1.41406 1,1 0 0 1 1.41406,0 1,1 0 0 1 0,1.41406 1,1 0 0 1 -0.72265,0.29297 z m 8.51562,0 a 1,1 0 0 1 -0.72265,-0.29297 1,1 0 0 1 0,-1.41406 1,1 0 0 1 1.41406,0 1,1 0 0 1 0,1.41406 1,1 0 0 1 -0.69141,0.29297 z m -4.25781,-1.75781 a 1,1 0 0 1 -1,-1 1,1 0 0 1 1,-1 1,1 0 0 1 1,1 1,1 0 0 1 -1,1 z"
       id="path4195"
       inkscape:connector-curvature="0" />
    <path
       style="opacity:1;fill:#737b81;fill-opacity:1;stroke:none"
       d="M 43.978516 23.417969 A 19.999985 20 0 0 1 24 43 A 19.999985 20 0 0 1 4.0214844 23.582031 A 19.999985 20 0 0 0 4 24 A 19.999985 20 0 0 0 24 44 A 19.999985 20 0 0 0 44 24 A 19.999985 20 0 0 0 43.978516 23.417969 z "
       transform="translate(384.57143,499.798)"
       id="ellipse4461" />
  </g>
</svg>
