<?xml version="1.0" encoding="UTF-8" standalone="no"?>
<!-- Created with Inkscape (http://www.inkscape.org/) -->

<svg
   xmlns:dc="http://purl.org/dc/elements/1.1/"
   xmlns:cc="http://creativecommons.org/ns#"
   xmlns:rdf="http://www.w3.org/1999/02/22-rdf-syntax-ns#"
   xmlns:svg="http://www.w3.org/2000/svg"
   xmlns="http://www.w3.org/2000/svg"
   xmlns:xlink="http://www.w3.org/1999/xlink"
   xmlns:sodipodi="http://sodipodi.sourceforge.net/DTD/sodipodi-0.dtd"
   xmlns:inkscape="http://www.inkscape.org/namespaces/inkscape"
   width="48"
   height="48"
   id="svg3018"
   version="1.1"
   inkscape:version="0.91 r"
   sodipodi:docname="qbittorrent.svg">
  <defs
     id="defs3020">
    <linearGradient
       inkscape:collect="always"
       id="linearGradient4299">
      <stop
         style="stop-color:#292c2f;stop-opacity:1"
         offset="0"
         id="stop4301" />
      <stop
         style="stop-color:#292c2f;stop-opacity:0"
         offset="1"
         id="stop4303" />
    </linearGradient>
    <linearGradient
       inkscape:collect="always"
       id="linearGradient4143">
      <stop
         style="stop-color:#197cf1;stop-opacity:1"
         offset="0"
         id="stop4145" />
      <stop
         style="stop-color:#20bcfa;stop-opacity:1"
         offset="1"
         id="stop4147" />
    </linearGradient>
    <linearGradient
       inkscape:collect="always"
       id="linearGradient4290">
      <stop
         style="stop-color:#7cbaf8;stop-opacity:1"
         offset="0"
         id="stop4292" />
      <stop
         style="stop-color:#f4fcff;stop-opacity:1"
         offset="1"
         id="stop4294" />
    </linearGradient>
    <linearGradient
       inkscape:collect="always"
       xlink:href="#linearGradient4290"
       id="linearGradient3861"
       x1="24"
       y1="44"
       x2="24"
       y2="4"
       gradientUnits="userSpaceOnUse" />
    <linearGradient
       inkscape:collect="always"
       xlink:href="#linearGradient4143"
       id="linearGradient3935"
       gradientUnits="userSpaceOnUse"
       gradientTransform="matrix(1.0285714,0,0,1.2,-5.3142844,-2013.5244)"
       x1="28.5"
       y1="39"
       x2="28.5"
       y2="9" />
    <linearGradient
       inkscape:collect="always"
       xlink:href="#linearGradient4299"
       id="linearGradient4236"
       x1="25.044922"
       y1="13.013672"
       x2="42.989807"
       y2="30.260885"
       gradientUnits="userSpaceOnUse" />
    <linearGradient
       inkscape:collect="always"
       xlink:href="#linearGradient4299"
       id="linearGradient4244"
       x1="14.589796"
       y1="18.260004"
       x2="36.061501"
       y2="40.43988"
       gradientUnits="userSpaceOnUse" />
  </defs>
  <sodipodi:namedview
     id="base"
     pagecolor="#ffffff"
     bordercolor="#666666"
     borderopacity="1.0"
     inkscape:pageopacity="0.0"
     inkscape:pageshadow="2"
     inkscape:zoom="6.56"
     inkscape:cx="21.953107"
     inkscape:cy="20.410201"
     inkscape:document-units="px"
     inkscape:current-layer="layer1"
     showgrid="false"
     inkscape:snap-bbox="true"
     inkscape:window-width="1600"
     inkscape:window-height="841"
     inkscape:window-x="-4"
     inkscape:window-y="33"
     inkscape:window-maximized="1"
     inkscape:bbox-nodes="true"
     inkscape:snap-bbox-edge-midpoints="true"
     inkscape:snap-grids="true">
    <inkscape:grid
       type="xygrid"
       id="grid3026"
       empspacing="5"
       visible="true"
       enabled="true"
       snapvisiblegridlinesonly="true" />
  </sodipodi:namedview>
  <metadata
     id="metadata3023">
    <rdf:RDF>
      <cc:Work
         rdf:about="">
        <dc:format>image/svg+xml</dc:format>
        <dc:type
           rdf:resource="http://purl.org/dc/dcmitype/StillImage" />
        <dc:title />
      </cc:Work>
    </rdf:RDF>
  </metadata>
  <g
     inkscape:label="Layer 1"
     inkscape:groupmode="layer"
     id="layer1"
     transform="translate(0,-1004.3622)">
    <path
       sodipodi:type="arc"
       style="opacity:1;color:#000000;fill:url(#linearGradient3861);fill-opacity:1;fill-rule:evenodd;stroke:none;stroke-width:2;marker:none;visibility:visible;display:inline;overflow:visible;enable-background:accumulate"
       id="path3085"
       sodipodi:cx="24"
       sodipodi:cy="24"
       sodipodi:rx="20"
       sodipodi:ry="20"
       d="M 44,24 A 20,20 0 0 1 24,44 20,20 0 0 1 4,24 20,20 0 0 1 24,4 20,20 0 0 1 44,24 Z"
       transform="translate(0,1004.3622)" />
    <path
       style="color:#000000;display:inline;overflow:visible;visibility:visible;fill:url(#linearGradient3935);fill-opacity:1;fill-rule:evenodd;stroke:none;stroke-width:2;marker:none;enable-background:accumulate"
       d="M 24 6 C 14.058875 6 6 14.0589 6 24 C 6 33.9411 14.058875 42 24 42 C 33.941125 42 42 33.9411 42 24 C 42 14.0589 33.941125 6 24 6 z M 25 13 L 27 13 L 27 19.080078 A 7 6 0 0 1 31 18 A 7 6 0 0 1 38 24 A 7 6 0 0 1 31 30 A 7 6 0 0 1 27 28.914062 L 27 31 L 25 31 L 25 13 z M 21 17 L 23 17 L 23 35 L 21 35 L 21 28.919922 A 7 6 0 0 1 17 30 A 7 6 0 0 1 10 24 A 7 6 0 0 1 17 18 A 7 6 0 0 1 21 19.085938 L 21 17 z M 17 20 A 5 4 0 0 0 12 24 A 5 4 0 0 0 17 28 A 5 4 0 0 0 21 26.390625 L 21 21.607422 A 5 4 0 0 0 17 20 z M 31 20 A 5 4 0 0 0 27 21.609375 L 27 26.392578 A 5 4 0 0 0 31 28 A 5 4 0 0 0 36 24 A 5 4 0 0 0 31 20 z "
       id="path4159"
       transform="translate(0,1004.3622)" />
    <path
       style="opacity:0.2;fill:url(#linearGradient4244);fill-opacity:1;stroke:none;stroke-width:2;stroke-miterlimit:4;stroke-dasharray:none;stroke-opacity:1"
       d="M 23.013672 17.060547 L 23 17.083984 L 23 35 L 21 35 L 21 28.919922 A 7 6 0 0 1 17 30 A 7 6 0 0 1 11.5625 27.771484 L 11.541016 27.792969 L 27.447266 43.697266 A 20 20 0 0 0 40.787109 34.833984 L 34.917969 28.964844 A 7 6 0 0 1 31 30 A 7 6 0 0 1 27 28.914062 L 27 31 L 25 31 L 25 19.046875 L 23.013672 17.060547 z "
       transform="translate(0,1004.3622)"
       id="rect4199" />
    <path
       style="opacity:0.2;fill:url(#linearGradient4236);fill-opacity:1;stroke:none;stroke-width:2;stroke-miterlimit:4;stroke-dasharray:none;stroke-opacity:1"
       d="M 27 13.013672 L 27 19.080078 A 7 6 0 0 1 31 18 A 7 6 0 0 1 32.060547 18.074219 L 27 13.013672 z M 35.773438 19.576172 L 35.75 19.599609 A 7 6 0 0 1 36.078125 19.880859 L 35.773438 19.576172 z M 36.525391 20.328125 A 7 6 0 0 1 38 24 A 7 6 0 0 1 31 30 A 7 6 0 0 1 27 28.914062 L 27 31 L 25.044922 31 L 34.845703 40.800781 A 20 20 0 0 0 43.675781 27.478516 L 36.525391 20.328125 z "
       transform="translate(0,1004.3622)"
       id="rect4203" />
  </g>
</svg>
