<?xml version="1.0" encoding="UTF-8" standalone="no"?>
<!-- Created with Inkscape (http://www.inkscape.org/) -->

<svg
   xmlns:dc="http://purl.org/dc/elements/1.1/"
   xmlns:cc="http://creativecommons.org/ns#"
   xmlns:rdf="http://www.w3.org/1999/02/22-rdf-syntax-ns#"
   xmlns:svg="http://www.w3.org/2000/svg"
   xmlns="http://www.w3.org/2000/svg"
   xmlns:xlink="http://www.w3.org/1999/xlink"
   xmlns:sodipodi="http://sodipodi.sourceforge.net/DTD/sodipodi-0.dtd"
   xmlns:inkscape="http://www.inkscape.org/namespaces/inkscape"
   width="48"
   height="48"
   id="svg5453"
   version="1.1"
   inkscape:version="0.91 r13725"
   sodipodi:docname="skrooge-black.svg">
  <defs
     id="defs5455">
    <linearGradient
       inkscape:collect="always"
       id="linearGradient4611">
      <stop
         style="stop-color:#000000;stop-opacity:1;"
         offset="0"
         id="stop4613" />
      <stop
         style="stop-color:#000000;stop-opacity:0;"
         offset="1"
         id="stop4615" />
    </linearGradient>
    <linearGradient
       id="linearGradient4143"
       inkscape:collect="always">
      <stop
         id="stop4145"
         offset="0"
         style="stop-color:#faae2a;stop-opacity:1" />
      <stop
         id="stop4147"
         offset="1"
         style="stop-color:#ffc35a;stop-opacity:1" />
    </linearGradient>
    <linearGradient
       inkscape:collect="always"
       id="linearGradient4300-7">
      <stop
         style="stop-color:#f39c12;stop-opacity:1"
         offset="0"
         id="stop4302-4" />
      <stop
         style="stop-color:#ffc35a;stop-opacity:1"
         offset="1"
         id="stop4304-1" />
    </linearGradient>
    <linearGradient
       inkscape:collect="always"
       xlink:href="#linearGradient4271"
       id="linearGradient4489"
       x1="408.57144"
       y1="542.79797"
       x2="408.57144"
       y2="503.798"
       gradientUnits="userSpaceOnUse" />
    <linearGradient
       inkscape:collect="always"
       xlink:href="#linearGradient4143"
       id="linearGradient4514"
       gradientUnits="userSpaceOnUse"
       x1="428.57144"
       y1="543.79797"
       x2="388.57144"
       y2="503.798" />
    <linearGradient
       inkscape:collect="always"
       xlink:href="#linearGradient4303"
       id="linearGradient4570"
       x1="42"
       y1="42"
       x2="6"
       y2="6"
       gradientUnits="userSpaceOnUse" />
    <linearGradient
       inkscape:collect="always"
       xlink:href="#linearGradient4611"
       id="linearGradient4617"
       x1="408.57144"
       y1="523.79797"
       x2="408.57144"
       y2="549.79797"
       gradientUnits="userSpaceOnUse"
       gradientTransform="matrix(0.70710678,-0.70710678,0.70710678,0.70710678,-635.28474,-57.477487)" />
    <linearGradient
       inkscape:collect="always"
       xlink:href="#linearGradient4611"
       id="linearGradient4728"
       x1="410.88394"
       y1="520.9425"
       x2="422.57144"
       y2="532.63"
       gradientUnits="userSpaceOnUse"
       gradientTransform="translate(-384.57143,-499.798)" />
    <linearGradient
       inkscape:collect="always"
       xlink:href="#linearGradient4271"
       id="linearGradient4418"
       x1="428.57144"
       y1="543.79797"
       x2="388.57144"
       y2="503.798"
       gradientUnits="userSpaceOnUse" />
    <linearGradient
       inkscape:collect="always"
       xlink:href="#linearGradient4300-7"
       id="linearGradient4426"
       x1="391.57144"
       y1="506.798"
       x2="425.57144"
       y2="540.79797"
       gradientUnits="userSpaceOnUse" />
    <linearGradient
       inkscape:collect="always"
       xlink:href="#linearGradient4271"
       id="linearGradient4209"
       x1="391.57144"
       y1="523.79797"
       x2="461.19644"
       y2="523.79797"
       gradientUnits="userSpaceOnUse"
       gradientTransform="translate(250.71329,-442.32051)" />
    <linearGradient
       inkscape:collect="always"
       id="linearGradient4271">
      <stop
         style="stop-color:#2a2c2f;stop-opacity:1"
         offset="0"
         id="stop4273" />
      <stop
         style="stop-color:#424649;stop-opacity:1"
         offset="1"
         id="stop4275" />
    </linearGradient>
    <linearGradient
       id="linearGradient4303"
       inkscape:collect="always">
      <stop
         id="stop4305"
         offset="0"
         style="stop-color:#989a9b;stop-opacity:1" />
      <stop
         id="stop4307"
         offset="1"
         style="stop-color:#f6f6f7;stop-opacity:1" />
    </linearGradient>
  </defs>
  <sodipodi:namedview
     id="base"
     pagecolor="#ffffff"
     bordercolor="#666666"
     borderopacity="1.0"
     inkscape:pageopacity="0"
     inkscape:pageshadow="2"
     inkscape:zoom="11.313708"
     inkscape:cx="-14.110788"
     inkscape:cy="21.417449"
     inkscape:document-units="px"
     inkscape:current-layer="layer1"
     showgrid="false"
     fit-margin-top="0"
     fit-margin-left="0"
     fit-margin-right="0"
     fit-margin-bottom="0"
     inkscape:window-width="1920"
     inkscape:window-height="957"
     inkscape:window-x="-4"
     inkscape:window-y="0"
     inkscape:window-maximized="1"
     inkscape:showpageshadow="false"
     borderlayer="true"
     showguides="false"
     inkscape:snap-bbox="true"
     inkscape:bbox-nodes="true"
     inkscape:snap-smooth-nodes="true"
     inkscape:snap-center="true">
    <inkscape:grid
       type="xygrid"
       id="grid4063" />
    <sodipodi:guide
       position="1.1650391e-05,47.999996"
       orientation="4,0"
       id="guide4146" />
    <sodipodi:guide
       position="1.1650391e-05,43.999996"
       orientation="0,48"
       id="guide4148" />
    <sodipodi:guide
       position="48.000012,43.999996"
       orientation="-4,0"
       id="guide4150" />
    <sodipodi:guide
       position="48.000012,47.999996"
       orientation="0,-48"
       id="guide4152" />
    <sodipodi:guide
       position="1.1650391e-05,4.0000264"
       orientation="4,0"
       id="guide4154" />
    <sodipodi:guide
       position="1.1650391e-05,2.6367188e-05"
       orientation="0,48"
       id="guide4156" />
    <sodipodi:guide
       position="48.000012,2.6367188e-05"
       orientation="-4,0"
       id="guide4158" />
    <sodipodi:guide
       position="48.000012,4.0000264"
       orientation="0,-48"
       id="guide4160" />
    <sodipodi:guide
       position="48.000012,48.000026"
       orientation="0,-4"
       id="guide4162" />
    <sodipodi:guide
       position="44.000012,48.000026"
       orientation="48,0"
       id="guide4164" />
    <sodipodi:guide
       position="44.000012,2.6367188e-05"
       orientation="0,4"
       id="guide4166" />
    <sodipodi:guide
       position="48.000012,2.6367188e-05"
       orientation="-48,0"
       id="guide4168" />
    <sodipodi:guide
       position="4.0000422,48.000026"
       orientation="0,-4"
       id="guide4170" />
    <sodipodi:guide
       position="4.2167969e-05,48.000026"
       orientation="48,0"
       id="guide4172" />
    <sodipodi:guide
       position="4.2167969e-05,2.6367188e-05"
       orientation="0,4"
       id="guide4174" />
    <sodipodi:guide
       position="4.0000422,2.6367188e-05"
       orientation="-48,0"
       id="guide4176" />
    <sodipodi:guide
       position="4.0000422,43.999996"
       orientation="39.999969,0"
       id="guide4175" />
    <sodipodi:guide
       position="4.0000422,4.0000264"
       orientation="0,20"
       id="guide4177" />
    <sodipodi:guide
       position="24.000042,4.0000264"
       orientation="-39.999969,0"
       id="guide4179" />
    <sodipodi:guide
       position="24.000042,43.999996"
       orientation="0,-20"
       id="guide4181" />
    <sodipodi:guide
       position="4.0000422,23.999843"
       orientation="20,0"
       id="guide4185" />
    <sodipodi:guide
       position="44.000012,3.9998433"
       orientation="-20,0"
       id="guide4189" />
    <sodipodi:guide
       position="44.000012,23.999843"
       orientation="0,-39.999969"
       id="guide4191" />
  </sodipodi:namedview>
  <metadata
     id="metadata5458">
    <rdf:RDF>
      <cc:Work
         rdf:about="">
        <dc:format>image/svg+xml</dc:format>
        <dc:type
           rdf:resource="http://purl.org/dc/dcmitype/StillImage" />
        <dc:title></dc:title>
      </cc:Work>
    </rdf:RDF>
  </metadata>
  <g
     inkscape:label="Capa 1"
     inkscape:groupmode="layer"
     id="layer1"
     transform="translate(-384.57143,-499.798)">
    <circle
       style="opacity:1;fill:url(#linearGradient4489);fill-opacity:1.0;stroke:none;stroke-width:0.5;stroke-linecap:butt;stroke-linejoin:round;stroke-miterlimit:4;stroke-dasharray:none;stroke-opacity:1"
       id="path4173"
       cx="408.57144"
       cy="523.79797"
       r="20.000006" />
    <path
       style="opacity:1;fill:#212325;fill-opacity:1;stroke:none;stroke-width:0.5;stroke-linecap:butt;stroke-linejoin:round;stroke-miterlimit:4;stroke-dasharray:none;stroke-opacity:1"
       d="M 43.978516 23.417969 A 20.000006 20.000006 0 0 1 24 43 A 20.000006 20.000006 0 0 1 4.0214844 23.582031 A 20.000006 20.000006 0 0 0 4 24 A 20.000006 20.000006 0 0 0 24 44 A 20.000006 20.000006 0 0 0 44 24 A 20.000006 20.000006 0 0 0 43.978516 23.417969 z "
       transform="translate(384.57143,499.798)"
       id="path4173-6" />
    <path
       style="opacity:0.2;fill:url(#linearGradient4617);fill-opacity:1;stroke:none;stroke-width:2;stroke-linecap:round;stroke-linejoin:bevel;stroke-miterlimit:4;stroke-dasharray:none;stroke-opacity:1"
       d="M 36.728516 11.271484 L 11.271484 36.728516 L 17.398438 42.855469 A 20.000006 20.000006 0 0 0 24 44 A 20.000006 20.000006 0 0 0 44 24 A 20.000006 20.000006 0 0 0 42.855469 17.398438 L 36.728516 11.271484 z "
       id="rect4609"
       transform="translate(384.57143,499.798)" />
    <path
       style="opacity:1;fill:url(#linearGradient4426);fill-opacity:1;stroke:none;stroke-width:0.5;stroke-linecap:butt;stroke-linejoin:round;stroke-miterlimit:4;stroke-dasharray:none;stroke-opacity:1"
       id="path4173-2"
       r="16.999989"
       cy="523.79797"
       cx="408.57144" />
    <circle
       style="opacity:1;fill:url(#linearGradient4209);fill-opacity:1.0;stroke:none;stroke-width:2;stroke-linecap:round;stroke-linejoin:bevel;stroke-miterlimit:4;stroke-dasharray:none;stroke-opacity:1"
       id="path4201"
       cx="659.28473"
       cy="81.477463"
       r="17"
       transform="matrix(0.70710678,0.70710678,-0.70710678,0.70710678,0,0)" />
    <path
       style="fill:url(#linearGradient4728);fill-opacity:1;fill-rule:evenodd;stroke:none;stroke-width:1px;stroke-linecap:butt;stroke-linejoin:miter;stroke-opacity:1;opacity:0.2"
       d="M 26.0625 12.789062 L 25.755859 14.470703 L 27.65625 17.71875 L 31.9375 18.28125 L 33.375 20.78125 L 29.28125 28.71875 L 24.53125 34.875 L 22.248047 33.642578 L 22 35 L 33 46 L 45.5625 30.023438 L 33.0625 17.523438 L 31.0625 17.789062 L 26.0625 12.789062 z "
       transform="translate(384.57143,499.798)"
       id="path4720" />
    <path
       style="fill:url(#linearGradient4418);fill-rule:evenodd;stroke:none;stroke-width:1px;stroke-linecap:butt;stroke-linejoin:miter;stroke-opacity:1;fill-opacity:1.0"
       d="m 407.60268,534.2355 -7.625,-11.0625 -0.40625,-5.25 5.34375,-0.625 3.75,-5.03125 4.1875,5.65625 4.84375,0.65625 -2.28125,7.90625 -6.09375,7.71875 z"
       id="path4733"
       inkscape:connector-curvature="0" />
    <circle
       style="opacity:1;fill:url(#linearGradient4514);fill-opacity:1;stroke:none;stroke-width:0.5;stroke-linecap:butt;stroke-linejoin:round;stroke-miterlimit:4;stroke-dasharray:none;stroke-opacity:1"
       id="path4173-0"
       cx="408.57144"
       cy="523.79797"
       r="0" />
    <path
       style="opacity:1;fill:url(#linearGradient4570);fill-opacity:1;stroke:none;stroke-width:0.5;stroke-linecap:butt;stroke-linejoin:round;stroke-miterlimit:4;stroke-dasharray:none;stroke-opacity:1"
       d="M 24 6 A 17.999973 17.999973 0 0 0 6 24 A 17.999973 17.999973 0 0 0 24 42 A 17.999973 17.999973 0 0 0 42 24 A 17.999973 17.999973 0 0 0 24 6 z M 24 8 A 15.999989 15.999989 0 0 1 39.705078 21 L 36 21 C 35.446 21 35 21.446 35 22 C 35 22.554 35.446 23 36 23 L 39.962891 23 A 15.999989 15.999989 0 0 1 40 24 A 15.999989 15.999989 0 0 1 39.949219 25 L 36 25 C 35.446 25 35 25.446 35 26 C 35 26.554 35.446 27 36 27 L 39.708984 27 A 15.999989 15.999989 0 0 1 24 40 A 15.999989 15.999989 0 0 1 8.2949219 27 L 12 27 C 12.554 27 13 26.554 13 26 C 13 25.446 12.554 25 12 25 L 8.0371094 25 A 15.999989 15.999989 0 0 1 8 24 A 15.999989 15.999989 0 0 1 8.0507812 23 L 12 23 C 12.554 23 13 22.554 13 22 C 13 21.446 12.554 21 12 21 L 8.2910156 21 A 15.999989 15.999989 0 0 1 24 8 z M 24 12 C 23.33334 12 22.708545 12.187719 22.234375 12.537109 C 21.760195 12.886489 21.457729 13.348234 21.230469 13.802734 C 20.775949 14.711744 20.545849 15.671984 20.105469 16.552734 C 19.944919 16.873854 19.892946 16.869544 19.785156 16.902344 C 19.677366 16.935144 19.413525 16.941666 19.015625 16.884766 C 18.219825 16.771086 16.910504 16.426579 15.552734 17.105469 C 14.784404 17.489629 14.278896 18.217462 14.066406 18.982422 C 13.853916 19.747382 13.872312 20.566312 14.013672 21.414062 C 14.296252 23.109564 15.096859 24.948008 16.167969 26.554688 C 17.125309 27.990666 18.383829 30.253477 19.667969 32.179688 C 20.310049 33.142788 20.955993 34.024281 21.626953 34.712891 C 22.297893 35.401501 23 36 24 36 C 25 36 25.700144 35.401501 26.371094 34.712891 C 27.042044 34.024281 27.689961 33.142786 28.332031 32.179688 C 29.616151 30.253478 30.874701 27.990677 31.832031 26.554688 C 32.903141 24.948008 33.703748 23.109564 33.986328 21.414062 C 34.127628 20.566312 34.144151 19.747382 33.931641 18.982422 C 33.719151 18.217462 33.215596 17.489629 32.447266 17.105469 C 31.089496 16.426579 29.778222 16.771086 28.982422 16.884766 C 28.584522 16.941666 28.320681 16.935144 28.212891 16.902344 C 28.105091 16.869544 28.055081 16.873844 27.894531 16.552734 C 27.454161 15.671994 27.224021 14.711744 26.769531 13.802734 C 26.542281 13.348234 26.237832 12.886499 25.763672 12.537109 C 25.289502 12.187719 24.66666 12 24 12 z M 24 22 C 24.554 22 25 22.446 25 23 L 25 29 C 25 29.554 24.554 30 24 30 C 23.446 30 23 29.554 23 29 L 23 23 C 23 22.446 23.446 22 24 22 z "
       transform="translate(384.57143,499.798)"
       id="path4173-3" />
  </g>
</svg>
