<?xml version="1.0" encoding="UTF-8" standalone="no"?>
<!-- Created with Inkscape (http://www.inkscape.org/) -->

<svg
   xmlns:dc="http://purl.org/dc/elements/1.1/"
   xmlns:cc="http://creativecommons.org/ns#"
   xmlns:rdf="http://www.w3.org/1999/02/22-rdf-syntax-ns#"
   xmlns:svg="http://www.w3.org/2000/svg"
   xmlns="http://www.w3.org/2000/svg"
   xmlns:sodipodi="http://sodipodi.sourceforge.net/DTD/sodipodi-0.dtd"
   xmlns:inkscape="http://www.inkscape.org/namespaces/inkscape"
   width="24"
   height="24"
   id="svg2"
   version="1.1"
   inkscape:version="0.91 r13725"
   viewBox="0 0 24 24"
   sodipodi:docname="kdeconnect-tray.svg">
  <defs
     id="defs4" />
  <sodipodi:namedview
     id="base"
     pagecolor="#ffffff"
     bordercolor="#666666"
     borderopacity="1.0"
     inkscape:pageopacity="0.0"
     inkscape:pageshadow="2"
     inkscape:zoom="23.270241"
     inkscape:cx="9.9398309"
     inkscape:cy="14.671194"
     inkscape:document-units="px"
     inkscape:current-layer="layer1"
     showgrid="true"
     inkscape:showpageshadow="false"
     units="px"
     inkscape:window-width="1024"
     inkscape:window-height="532"
     inkscape:window-x="0"
     inkscape:window-y="0"
     inkscape:window-maximized="1"
     inkscape:snap-bbox="true"
     inkscape:object-nodes="true"
     fit-margin-top="0"
     fit-margin-left="0"
     fit-margin-right="0"
     fit-margin-bottom="0"
     showguides="false">
    <inkscape:grid
       type="xygrid"
       id="grid4101"
       originx="1"
       originy="0.99998262" />
    <sodipodi:guide
       position="3,21"
       orientation="18,0"
       id="guide4107" />
    <sodipodi:guide
       position="3,3"
       orientation="0,18"
       id="guide4109" />
    <sodipodi:guide
       position="21,3"
       orientation="-18,0"
       id="guide4111" />
    <sodipodi:guide
       position="21,21"
       orientation="0,-18"
       id="guide4113" />
    <sodipodi:guide
       position="4,20"
       orientation="16,0"
       id="guide4115" />
    <sodipodi:guide
       position="4,4"
       orientation="0,16"
       id="guide4117" />
    <sodipodi:guide
       position="20,4"
       orientation="-16,0"
       id="guide4119" />
    <sodipodi:guide
       position="20,20"
       orientation="0,-16"
       id="guide4121" />
  </sodipodi:namedview>
  <metadata
     id="metadata7">
    <rdf:RDF>
      <cc:Work
         rdf:about="">
        <dc:format>image/svg+xml</dc:format>
        <dc:type
           rdf:resource="http://purl.org/dc/dcmitype/StillImage" />
        <dc:title></dc:title>
      </cc:Work>
    </rdf:RDF>
  </metadata>
  <g
     inkscape:label="Capa 1"
     inkscape:groupmode="layer"
     id="layer1"
     transform="translate(1,-1029.3622)">
    <path
       style="fill:#4d4d4d;fill-opacity:1;stroke:none;stroke-width:2;stroke-miterlimit:4;stroke-dasharray:none"
       d="M 7 4 L 7 20 L 17 20 L 17 4 L 7 4 z M 8 5 L 10 5 L 10 6 L 14 6 L 14 5 L 16 5 L 16 19 L 14 19 L 14 18 L 10 18 L 10 19 L 8 19 L 8 5 z "
       transform="translate(-1,1029.3622)"
       id="rect4449" />
    <path
       style="fill:#4d4d4d;fill-opacity:1;stroke:none"
       d="M 11.5 8 L 11.222656 9.1074219 A 3 3 0 0 0 10.501953 9.4042969 L 9.5253906 8.8183594 L 8.8183594 9.5253906 L 9.4042969 10.501953 A 3 3 0 0 0 9.1035156 11.224609 L 8 11.5 L 8 12.5 L 9.1074219 12.777344 A 3 3 0 0 0 9.4042969 13.498047 L 8.8183594 14.474609 L 9.5253906 15.181641 L 10.501953 14.595703 A 3 3 0 0 0 11.224609 14.896484 L 11.5 16 L 12.5 16 L 12.777344 14.892578 A 3 3 0 0 0 13.498047 14.595703 L 14.474609 15.181641 L 15.181641 14.474609 L 14.595703 13.498047 A 3 3 0 0 0 14.896484 12.775391 L 16 12.5 L 16 11.5 L 14.892578 11.222656 A 3 3 0 0 0 14.595703 10.501953 L 15.181641 9.5253906 L 14.474609 8.8183594 L 13.498047 9.4042969 A 3 3 0 0 0 12.775391 9.1035156 L 12.5 8 L 11.5 8 z M 12 10 A 2 2 0 0 1 12.199219 10.009766 A 2 2 0 0 1 12.396484 10.039062 A 2 2 0 0 1 12.591797 10.089844 A 2 2 0 0 1 12.779297 10.158203 A 2 2 0 0 1 12.958984 10.244141 A 2 2 0 0 1 13.128906 10.349609 A 2 2 0 0 1 13.289062 10.470703 A 2 2 0 0 1 13.435547 10.607422 A 2 2 0 0 1 13.566406 10.755859 A 2 2 0 0 1 13.683594 10.919922 A 2 2 0 0 1 13.783203 11.09375 A 2 2 0 0 1 13.863281 11.275391 A 2 2 0 0 1 13.927734 11.464844 A 2 2 0 0 1 13.970703 11.660156 A 2 2 0 0 1 13.994141 11.859375 A 2 2 0 0 1 14 12 A 2 2 0 0 1 13.990234 12.199219 A 2 2 0 0 1 13.960938 12.396484 A 2 2 0 0 1 13.910156 12.591797 A 2 2 0 0 1 13.841797 12.779297 A 2 2 0 0 1 13.755859 12.958984 A 2 2 0 0 1 13.650391 13.128906 A 2 2 0 0 1 13.529297 13.289062 A 2 2 0 0 1 13.392578 13.435547 A 2 2 0 0 1 13.244141 13.566406 A 2 2 0 0 1 13.080078 13.683594 A 2 2 0 0 1 12.90625 13.783203 A 2 2 0 0 1 12.724609 13.863281 A 2 2 0 0 1 12.535156 13.927734 A 2 2 0 0 1 12.339844 13.970703 A 2 2 0 0 1 12.140625 13.994141 A 2 2 0 0 1 12.056641 14 L 11.919922 14 A 2 2 0 0 1 11.800781 13.994141 A 2 2 0 0 1 11.603516 13.964844 A 2 2 0 0 1 11.408203 13.914062 A 2 2 0 0 1 11.220703 13.845703 A 2 2 0 0 1 11.041016 13.759766 A 2 2 0 0 1 10.871094 13.654297 A 2 2 0 0 1 10.710938 13.533203 A 2 2 0 0 1 10.623047 13.451172 L 10.535156 13.363281 A 2 2 0 0 1 10.433594 13.248047 A 2 2 0 0 1 10.316406 13.083984 A 2 2 0 0 1 10.216797 12.910156 A 2 2 0 0 1 10.136719 12.728516 A 2 2 0 0 1 10.072266 12.539062 A 2 2 0 0 1 10.029297 12.34375 A 2 2 0 0 1 10.005859 12.144531 A 2 2 0 0 1 10 12.003906 A 2 2 0 0 1 10.009766 11.804688 A 2 2 0 0 1 10.039062 11.607422 A 2 2 0 0 1 10.089844 11.412109 A 2 2 0 0 1 10.158203 11.224609 A 2 2 0 0 1 10.244141 11.044922 A 2 2 0 0 1 10.349609 10.875 A 2 2 0 0 1 10.470703 10.714844 A 2 2 0 0 1 10.607422 10.568359 A 2 2 0 0 1 10.755859 10.4375 A 2 2 0 0 1 10.919922 10.320312 A 2 2 0 0 1 11.09375 10.220703 A 2 2 0 0 1 11.275391 10.140625 A 2 2 0 0 1 11.464844 10.076172 A 2 2 0 0 1 11.660156 10.033203 A 2 2 0 0 1 11.859375 10.009766 A 2 2 0 0 1 12 10 z "
       transform="translate(-1,1029.3622)"
       id="path3373" />
  </g>
</svg>
