<?xml version="1.0" encoding="UTF-8" standalone="no"?>
<!-- Created with Inkscape (http://www.inkscape.org/) -->

<svg
   xmlns:dc="http://purl.org/dc/elements/1.1/"
   xmlns:cc="http://creativecommons.org/ns#"
   xmlns:rdf="http://www.w3.org/1999/02/22-rdf-syntax-ns#"
   xmlns:svg="http://www.w3.org/2000/svg"
   xmlns="http://www.w3.org/2000/svg"
   xmlns:sodipodi="http://sodipodi.sourceforge.net/DTD/sodipodi-0.dtd"
   xmlns:inkscape="http://www.inkscape.org/namespaces/inkscape"
   width="22"
   height="22"
   id="svg952"
   version="1.1"
   inkscape:version="0.91 r13725"
   sodipodi:docname="security-low.svg">
  <defs
     id="defs954" />
  <sodipodi:namedview
     id="base"
     pagecolor="#ffffff"
     bordercolor="#666666"
     borderopacity="1.0"
     inkscape:pageopacity="0.0"
     inkscape:pageshadow="2"
     inkscape:zoom="8"
     inkscape:cx="32.248922"
     inkscape:cy="6.4422027"
     inkscape:document-units="px"
     inkscape:current-layer="layer1"
     showgrid="true"
     inkscape:window-width="1366"
     inkscape:window-height="709"
     inkscape:window-x="-4"
     inkscape:window-y="0"
     inkscape:window-maximized="1"
     showguides="true"
     inkscape:guide-bbox="true"
     inkscape:showpageshadow="false"
     borderlayer="true"
     inkscape:snap-bbox="true"
     inkscape:bbox-nodes="true"
     inkscape:object-nodes="true"
     inkscape:snap-global="true">
    <inkscape:grid
       type="xygrid"
       id="grid4063" />
    <sodipodi:guide
       position="3,5"
       orientation="12,0"
       id="guide3284" />
    <sodipodi:guide
       position="7,3"
       orientation="0,12"
       id="guide3286" />
    <sodipodi:guide
       position="19,2"
       orientation="-12,0"
       id="guide3288" />
    <sodipodi:guide
       position="11,19"
       orientation="0,1"
       id="guide4143" />
  </sodipodi:namedview>
  <metadata
     id="metadata957">
    <rdf:RDF>
      <cc:Work
         rdf:about="">
        <dc:format>image/svg+xml</dc:format>
        <dc:type
           rdf:resource="http://purl.org/dc/dcmitype/StillImage" />
        <dc:title></dc:title>
      </cc:Work>
    </rdf:RDF>
  </metadata>
  <g
     inkscape:label="Capa 1"
     inkscape:groupmode="layer"
     id="layer1"
     transform="translate(0,-1030.3622)">
    <path
       style="fill:#4d4d4d;fill-opacity:1;stroke:none"
       d="M 11 5.5761719 C 9.2565091 6.786444 7.2978494 7.399384 5.3320312 7.8164062 C 6.2628766 13.098378 8.2681151 15.357097 11 16.771484 L 11 5.5761719 z "
       transform="translate(0,1030.3622)"
       id="path4943-9-4-1" />
    <path
       style="fill:#4d4d4d;fill-opacity:1;stroke:none"
       d="M 11 3 C 11 3 9 5.6575188 3 6.3242188 C 3 6.3242188 3 15.6581 11 19 C 19 15.6581 19 6.3242188 19 6.3242188 C 13 5.6575188 11 3 11 3 z M 11 4.3769531 C 12.586995 5.7217384 14.87716 6.6187292 17.845703 7.0703125 C 17.684444 8.5155125 17.529828 9.6030968 17.15625 10.654297 C 16.37116 12.863397 15.455775 14.207328 14.634766 15.173828 C 13.362538 16.671474 12.207192 17.277691 11 17.880859 C 9.7928082 17.277691 8.6374611 16.671474 7.3652344 15.173828 C 6.544225 14.207328 5.6288398 12.863397 4.84375 10.654297 C 4.4701723 9.6030968 4.3155563 8.5155125 4.1542969 7.0703125 C 7.1228397 6.6187292 9.4130046 5.7217384 11 4.3769531 z "
       transform="translate(0,1030.3622)"
       id="path4943" />
    <g
       id="g4294">
      <path
         inkscape:connector-curvature="0"
         id="path4250"
         d="m 15.5,1041.3602 0.0039,0 a 0.5,0.5 0 0 1 0.439453,0.2695 l 0.0039,0 3.986328,6.9746 -0.002,0 a 0.5,0.5 0 0 1 0.06836,0.252 0.5,0.5 0 0 1 -0.5,0.5 l -8,0 a 0.5,0.5 0 0 1 -0.5,-0.5 0.5,0.5 0 0 1 0.06836,-0.252 l -0.002,-0 3.986328,-6.9727 0.002,0 a 0.5,0.5 0 0 1 0.002,-0 0.5,0.5 0 0 1 0.443359,-0.2715 l 0,-0 z"
         style="fill:#f47750;fill-opacity:1;fill-rule:evenodd;stroke:none;stroke-width:1px;stroke-linecap:butt;stroke-linejoin:miter;stroke-opacity:1" />
      <rect
         ry="1.0429687e-05"
         y="1043.3622"
         x="15"
         height="2.9999998"
         width="1"
         id="rect4241"
         style="opacity:1;fill:#ffffff;fill-opacity:1;stroke:none;stroke-linecap:round" />
      <rect
         ry="1.7382799e-05"
         y="1047.3622"
         x="15"
         height="1"
         width="1"
         id="rect4243"
         style="opacity:1;fill:#ffffff;fill-opacity:1;stroke:none;stroke-linecap:round" />
    </g>
  </g>
</svg>
