<?xml version="1.0" encoding="UTF-8" standalone="no"?>
<!-- Created with Inkscape (http://www.inkscape.org/) -->

<svg
   xmlns:dc="http://purl.org/dc/elements/1.1/"
   xmlns:cc="http://creativecommons.org/ns#"
   xmlns:rdf="http://www.w3.org/1999/02/22-rdf-syntax-ns#"
   xmlns:svg="http://www.w3.org/2000/svg"
   xmlns="http://www.w3.org/2000/svg"
   xmlns:sodipodi="http://sodipodi.sourceforge.net/DTD/sodipodi-0.dtd"
   xmlns:inkscape="http://www.inkscape.org/namespaces/inkscape"
   width="24"
   height="24"
   id="svg2"
   version="1.1"
   inkscape:version="0.48.4 r9939"
   viewBox="0 0 24 24"
   sodipodi:docname="actionview010.svg">
  <defs
     id="defs4" />
  <sodipodi:namedview
     id="base"
     pagecolor="#ffffff"
     bordercolor="#666666"
     borderopacity="1.0"
     inkscape:pageopacity="0.0"
     inkscape:pageshadow="2"
     inkscape:zoom="32.625"
     inkscape:cx="4.6149014"
     inkscape:cy="12.64122"
     inkscape:document-units="px"
     inkscape:current-layer="layer1"
     showgrid="true"
     units="px"
     borderlayer="true"
     inkscape:showpageshadow="false"
     inkscape:window-width="1868"
     inkscape:window-height="1060"
     inkscape:window-x="50"
     inkscape:window-y="-3"
     inkscape:window-maximized="1"
     fit-margin-top="0"
     fit-margin-left="0"
     fit-margin-right="0"
     fit-margin-bottom="0"
     inkscape:snap-bbox="true">
    <sodipodi:guide
       position="3,21"
       orientation="18,0"
       id="guide4066" />
    <sodipodi:guide
       position="3,3"
       orientation="0,18"
       id="guide4068" />
    <sodipodi:guide
       position="21,3"
       orientation="-18,0"
       id="guide4070" />
    <sodipodi:guide
       position="21,21"
       orientation="0,-18"
       id="guide4072" />
    <sodipodi:guide
       position="4,20"
       orientation="16,0"
       id="guide4074" />
    <sodipodi:guide
       position="4,4"
       orientation="0,16"
       id="guide4076" />
    <sodipodi:guide
       position="20,14.999983"
       orientation="-16,0"
       id="guide4078" />
    <sodipodi:guide
       position="20,20"
       orientation="0,-16"
       id="guide4080" />
    <inkscape:grid
       type="xygrid"
       id="grid4101"
       originx="1px"
       originy="0.99998262px" />
    <sodipodi:guide
       position="9,20"
       orientation="0,-5"
       id="guide4124" />
    <sodipodi:guide
       position="12,4"
       orientation="0,4"
       id="guide4241" />
  </sodipodi:namedview>
  <metadata
     id="metadata7">
    <rdf:RDF>
      <cc:Work
         rdf:about="">
        <dc:format>image/svg+xml</dc:format>
        <dc:type
           rdf:resource="http://purl.org/dc/dcmitype/StillImage" />
        <dc:title></dc:title>
      </cc:Work>
    </rdf:RDF>
  </metadata>
  <g
     inkscape:label="Capa 1"
     inkscape:groupmode="layer"
     id="layer1"
     transform="translate(1,-1029.3622)">
    <g
       transform="translate(-551.28572,422.7143)"
       id="layer1-9"
       inkscape:label="Capa 1">
      <path
         id="rect4203"
         transform="translate(550.28572,606.6479)"
         d="M 12,4 C 9.9724023,4 8.1286798,4.7566937 6.71875,6 6.592511,6.1113202 6.4627201,6.2247799 6.34375,6.34375 L 6,6.71875 C 4.7566937,8.1286798 4,9.9724023 4,12 c 0,4.41828 3.58172,8 8,8 2.027598,0 3.87132,-0.756694 5.28125,-2 l 0.375,-0.34375 C 17.77522,17.53728 17.88868,17.407489 18,17.28125 19.243306,15.87132 20,14.027598 20,12 20,7.58172 16.41828,4 12,4 z m 0,1 c 3.86599,0 7,3.13401 7,7 0,1.75366 -0.653215,3.334268 -1.71875,4.5625 L 7.4375,6.71875 C 8.6657315,5.6532151 10.24634,5 12,5 z M 6.71875,7.4375 16.5625,17.28125 C 15.334268,18.346785 13.75366,19 12,19 8.13401,19 5,15.86599 5,12 5,10.24634 5.6532151,8.6657315 6.71875,7.4375 z"
         style="fill:#da4453;fill-opacity:1;stroke:none"
         inkscape:connector-curvature="0" />
    </g>
  </g>
</svg>
