<?xml version="1.0" encoding="UTF-8" standalone="no"?>
<svg
   xmlns:dc="http://purl.org/dc/elements/1.1/"
   xmlns:cc="http://creativecommons.org/ns#"
   xmlns:rdf="http://www.w3.org/1999/02/22-rdf-syntax-ns#"
   xmlns:svg="http://www.w3.org/2000/svg"
   xmlns="http://www.w3.org/2000/svg"
   xmlns:xlink="http://www.w3.org/1999/xlink"
   xmlns:sodipodi="http://sodipodi.sourceforge.net/DTD/sodipodi-0.dtd"
   xmlns:inkscape="http://www.inkscape.org/namespaces/inkscape"
   viewBox="0 0 64 64"
   id="svg2"
   version="1.1"
   inkscape:version="0.91+devel r"
   sodipodi:docname="application-x-javascript.svg"
   width="64"
   height="64">
  <metadata
     id="metadata84">
    <rdf:RDF>
      <cc:Work
         rdf:about="">
        <dc:format>image/svg+xml</dc:format>
        <dc:type
           rdf:resource="http://purl.org/dc/dcmitype/StillImage" />
        <dc:title />
      </cc:Work>
    </rdf:RDF>
  </metadata>
  <sodipodi:namedview
     pagecolor="#ffffff"
     bordercolor="#666666"
     borderopacity="1"
     objecttolerance="10"
     gridtolerance="10"
     guidetolerance="10"
     inkscape:pageopacity="0"
     inkscape:pageshadow="2"
     inkscape:window-width="1366"
     inkscape:window-height="670"
     id="namedview82"
     showgrid="true"
     inkscape:showpageshadow="false"
     inkscape:zoom="16"
     inkscape:cx="31.29834"
     inkscape:cy="10.162817"
     inkscape:window-x="-4"
     inkscape:window-y="29"
     inkscape:window-maximized="1"
     inkscape:current-layer="svg2"
     showguides="true">
    <inkscape:grid
       type="xygrid"
       id="grid3413" />
    <sodipodi:guide
       position="0,64"
       orientation="64,0"
       id="guide3482" />
    <sodipodi:guide
       position="0,0"
       orientation="0,64"
       id="guide3484" />
    <sodipodi:guide
       position="64,0"
       orientation="-64,0"
       id="guide3486" />
    <sodipodi:guide
       position="64,64"
       orientation="0,-64"
       id="guide3488" />
    <sodipodi:guide
       position="10,61"
       orientation="58,0"
       id="guide3492" />
    <sodipodi:guide
       position="10,3"
       orientation="0,44"
       id="guide3494" />
    <sodipodi:guide
       position="54,3"
       orientation="-58,0"
       id="guide3496" />
    <sodipodi:guide
       position="54,61"
       orientation="0,-44"
       id="guide3498" />
    <sodipodi:guide
       position="54,47"
       orientation="-14,0"
       id="guide4310" />
    <sodipodi:guide
       position="54,61"
       orientation="0,-14"
       id="guide4312" />
    <sodipodi:guide
       position="21,43"
       orientation="22,0"
       id="guide4250" />
    <sodipodi:guide
       position="21,21"
       orientation="0,22"
       id="guide4252" />
    <sodipodi:guide
       position="43,21"
       orientation="-22,0"
       id="guide4254" />
    <sodipodi:guide
       position="43,43"
       orientation="0,-22"
       id="guide4256" />
  </sodipodi:namedview>
  <defs
     id="defs4">
    <linearGradient
       inkscape:collect="always"
       id="linearGradient4351">
      <stop
         style="stop-color:#f7ab89;stop-opacity:1"
         offset="0"
         id="stop4353" />
      <stop
         style="stop-color:#fbd2bf;stop-opacity:1"
         offset="1"
         id="stop4355" />
    </linearGradient>
    <linearGradient
       inkscape:collect="always"
       id="linearGradient4410">
      <stop
         style="stop-color:#383e51;stop-opacity:1"
         offset="0"
         id="stop4412" />
      <stop
         style="stop-color:#655c6f;stop-opacity:0"
         offset="1"
         id="stop4414" />
    </linearGradient>
    <linearGradient
       id="linearGradient4300-8"
       inkscape:collect="always">
      <stop
         id="stop4302-5"
         offset="0"
         style="stop-color:#f27935;stop-opacity:1" />
      <stop
         id="stop4304-7"
         offset="1"
         style="stop-color:#f2784b;stop-opacity:1" />
    </linearGradient>
    <linearGradient
       gradientUnits="userSpaceOnUse"
       y2="3"
       x2="32"
       y1="61"
       x1="32"
       id="linearGradient4306"
       xlink:href="#linearGradient4300-8"
       inkscape:collect="always"
       gradientTransform="translate(-136.47503,-23.331105)" />
    <linearGradient
       gradientUnits="userSpaceOnUse"
       y2="-6.3311052"
       x2="176.47504"
       y1="7.6688948"
       x1="190.47504"
       id="linearGradient4427-5"
       xlink:href="#linearGradient4410"
       inkscape:collect="always"
       gradientTransform="matrix(1,0,0,-1,-150.47503,54.668895)" />
    <linearGradient
       gradientUnits="userSpaceOnUse"
       y2="47"
       x2="47"
       y1="61"
       x1="47"
       id="linearGradient4357"
       xlink:href="#linearGradient4351"
       inkscape:collect="always"
       gradientTransform="translate(-136.47503,-23.331105)" />
  </defs>
  <path
     inkscape:connector-curvature="0"
     style="fill:url(#linearGradient4306);fill-opacity:1;stroke:none"
     d="M 10,3 10,61 40,61 54,47 54,17 54,3 40,3 10,3 Z"
     id="rect3500" />
  <rect
     style="opacity:1;fill:#2e3132;fill-opacity:0.29411765;stroke:none"
     id="rect4169"
     width="30"
     height="1"
     x="10"
     y="60" />
  <rect
     style="opacity:1;fill:#ffffff;fill-opacity:0.40983605;stroke:none"
     id="rect4236"
     width="44"
     height="1"
     x="10"
     y="3" />
  <path
     style="fill:url(#linearGradient4357);fill-opacity:1;fill-rule:evenodd;stroke:none;stroke-width:1px;stroke-linecap:butt;stroke-linejoin:miter;stroke-opacity:1"
     d="M 54,47 40,61 40,47 Z"
     id="path4314"
     inkscape:connector-curvature="0" />
  <path
     inkscape:connector-curvature="0"
     id="path4320"
     d="M 26,61 40,47 40,61 Z"
     style="opacity:0.2;fill:url(#linearGradient4427-5);fill-opacity:1;fill-rule:evenodd;stroke:none;stroke-width:1px;stroke-linecap:butt;stroke-linejoin:miter;stroke-opacity:1" />
  <path
     inkscape:connector-curvature="0"
     style="opacity:1;fill:#fbd2bf;fill-opacity:1;stroke:none"
     d="m 31,21 c -2.216,0 -4,1.784 -4,4 l 0,3 c 0,1.662 -1.338,3 -3,3 l 0,1 c 2.216,0 4,-1.784 4,-4 l 0,-3 c 0,-1.662 1.338,-3 3,-3 l 0,-1 z m -7,11 0,1 c 1.662,0 3,1.338 3,3 l 0,3 c 0,2.216 1.784,4 4,4 l 0,-1 c -1.662,0 -3,-1.338 -3,-3 l 0,-3 c 0,-2.216 -1.784,-4 -4,-4 z m 9,-11 0,1 c 1.662,0 3,1.338 3,3 l 0,3 c 0,2.216 1.784,4 4,4 l 0,-1 c -1.662,0 -3,-1.338 -3,-3 l 0,-3 c 0,-2.216 -1.784,-4 -4,-4 z m 7,11 c -2.216,0 -4,1.784 -4,4 l 0,3 c 0,1.662 -1.338,3 -3,3 l 0,1 c 2.216,0 4,-1.784 4,-4 l 0,-3 c 0,-1.662 1.338,-3 3,-3 l 0,-1 z m -8,-3 c -0.554,0 -1,0.446 -1,1 0,0.554 0.446,1 1,1 0.554,0 1,-0.446 1,-1 0,-0.554 -0.446,-1 -1,-1 z m 0,4 c -0.554,0 -1,0.446 -1,1 0,0.438406 0.282733,0.799907 0.673828,0.935547 0.005,0.05595 0.02539,0.106724 0.02539,0.164062 0,0.355462 -0.100989,0.684823 -0.269531,0.96875 C 32.323557,35.912724 33,35.138963 33,34.199219 33,34.154229 32.9918,34.111659 32.98633,34.068359 32.988007,34.044564 33,34.024237 33,34 33,33.446 32.554,33 32,33 Z"
     id="path4222" />
</svg>
