<?xml version="1.0" encoding="UTF-8" standalone="no"?>
<svg
   xmlns:dc="http://purl.org/dc/elements/1.1/"
   xmlns:cc="http://creativecommons.org/ns#"
   xmlns:rdf="http://www.w3.org/1999/02/22-rdf-syntax-ns#"
   xmlns:svg="http://www.w3.org/2000/svg"
   xmlns="http://www.w3.org/2000/svg"
   xmlns:xlink="http://www.w3.org/1999/xlink"
   xmlns:sodipodi="http://sodipodi.sourceforge.net/DTD/sodipodi-0.dtd"
   xmlns:inkscape="http://www.inkscape.org/namespaces/inkscape"
   viewBox="0 0 64 64"
   id="svg2"
   version="1.1"
   inkscape:version="0.91pre2 r"
   sodipodi:docname="html.svg"
   width="64"
   height="64">
  <metadata
     id="metadata84">
    <rdf:RDF>
      <cc:Work
         rdf:about="">
        <dc:format>image/svg+xml</dc:format>
        <dc:type
           rdf:resource="http://purl.org/dc/dcmitype/StillImage" />
        <dc:title />
      </cc:Work>
    </rdf:RDF>
  </metadata>
  <sodipodi:namedview
     pagecolor="#ffffff"
     bordercolor="#666666"
     borderopacity="1"
     objecttolerance="10"
     gridtolerance="10"
     guidetolerance="10"
     inkscape:pageopacity="0"
     inkscape:pageshadow="2"
     inkscape:window-width="1366"
     inkscape:window-height="672"
     id="namedview82"
     showgrid="true"
     inkscape:showpageshadow="false"
     inkscape:zoom="5.6568543"
     inkscape:cx="69.230108"
     inkscape:cy="28.604074"
     inkscape:window-x="-4"
     inkscape:window-y="25"
     inkscape:window-maximized="1"
     inkscape:current-layer="svg2"
     showguides="true">
    <inkscape:grid
       type="xygrid"
       id="grid3413" />
    <sodipodi:guide
       position="0,64"
       orientation="64,0"
       id="guide3482" />
    <sodipodi:guide
       position="0,0"
       orientation="0,64"
       id="guide3484" />
    <sodipodi:guide
       position="64,0"
       orientation="-64,0"
       id="guide3486" />
    <sodipodi:guide
       position="64,64"
       orientation="0,-64"
       id="guide3488" />
    <sodipodi:guide
       position="10,61"
       orientation="58,0"
       id="guide3492" />
    <sodipodi:guide
       position="10,3"
       orientation="0,44"
       id="guide3494" />
    <sodipodi:guide
       position="54,3"
       orientation="-58,0"
       id="guide3496" />
    <sodipodi:guide
       position="54,61"
       orientation="0,-44"
       id="guide3498" />
    <sodipodi:guide
       position="54,47"
       orientation="-14,0"
       id="guide4310" />
    <sodipodi:guide
       position="54,61"
       orientation="0,-14"
       id="guide4312" />
    <sodipodi:guide
       position="21,43"
       orientation="22,0"
       id="guide4250" />
    <sodipodi:guide
       position="21,21"
       orientation="0,22"
       id="guide4252" />
    <sodipodi:guide
       position="43,21"
       orientation="-22,0"
       id="guide4254" />
    <sodipodi:guide
       position="43,43"
       orientation="0,-22"
       id="guide4256" />
  </sodipodi:namedview>
  <defs
     id="defs4">
    <linearGradient
       inkscape:collect="always"
       id="linearGradient4351">
      <stop
         style="stop-color:#127666;stop-opacity:1"
         offset="0"
         id="stop4353" />
      <stop
         style="stop-color:#16a085;stop-opacity:1"
         offset="1"
         id="stop4355" />
    </linearGradient>
    <linearGradient
       inkscape:collect="always"
       id="linearGradient4300">
      <stop
         style="stop-color:#03c9a9;stop-opacity:1"
         offset="0"
         id="stop4302" />
      <stop
         style="stop-color:#36d7b7;stop-opacity:1"
         offset="1"
         id="stop4304" />
    </linearGradient>
    <linearGradient
       inkscape:collect="always"
       xlink:href="#linearGradient4300"
       id="linearGradient4306"
       x1="32"
       y1="61"
       x2="32"
       y2="3"
       gradientUnits="userSpaceOnUse" />
    <linearGradient
       gradientTransform="matrix(1,0,0,-1,-14,78)"
       inkscape:collect="always"
       xlink:href="#linearGradient4410"
       id="linearGradient4427"
       x1="54"
       y1="31"
       x2="40"
       y2="17"
       gradientUnits="userSpaceOnUse" />
    <linearGradient
       inkscape:collect="always"
       id="linearGradient4410">
      <stop
         style="stop-color:#383e51;stop-opacity:1"
         offset="0"
         id="stop4412" />
      <stop
         style="stop-color:#655c6f;stop-opacity:0"
         offset="1"
         id="stop4414" />
    </linearGradient>
    <linearGradient
       inkscape:collect="always"
       xlink:href="#linearGradient4351"
       id="linearGradient4357"
       x1="47"
       y1="61"
       x2="47"
       y2="47"
       gradientUnits="userSpaceOnUse" />
  </defs>
  <path
     style="fill:url(#linearGradient4306);fill-opacity:1;stroke:none"
     d="M 10 3 L 10 61 L 40 61 L 54 47 L 54 17 L 54 3 L 40 3 L 10 3 z "
     id="rect3500" />
  <rect
     style="opacity:1;fill:#2e3132;fill-opacity:0.29411765;stroke:none"
     id="rect4169"
     width="30"
     height="1"
     x="10"
     y="60" />
  <rect
     style="opacity:1;fill:#ffffff;fill-opacity:0.40983605;stroke:none"
     id="rect4236"
     width="44"
     height="1"
     x="10"
     y="3" />
  <path
     style="fill:url(#linearGradient4357);fill-opacity:1;fill-rule:evenodd;stroke:none;stroke-width:1px;stroke-linecap:butt;stroke-linejoin:miter;stroke-opacity:1"
     d="M 54,47 40,61 40,47 Z"
     id="path4314"
     inkscape:connector-curvature="0" />
  <path
     inkscape:connector-curvature="0"
     id="path4320"
     d="M 26,61 40,47 40,61 Z"
     style="opacity:0.2;fill:url(#linearGradient4427);fill-opacity:1;fill-rule:evenodd;stroke:none;stroke-width:1px;stroke-linecap:butt;stroke-linejoin:miter;stroke-opacity:1" />
  <path
     style="color:#000000;fill:#127666;fill-opacity:1;fill-rule:nonzero"
     d="M 32 21 C 25.906 21 21 25.906 21 32 C 21 38.094 25.906 43 32 43 C 38.094 43 43 38.094 43 32 C 43 25.906 38.094 21 32 21 z M 32 22 C 33.661623 22 35.221543 22.407903 36.597656 23.119141 C 36.60191 23.158885 36.600878 23.188132 36.597656 23.232422 C 36.655646 23.258412 36.689114 23.36594 36.787109 23.419922 C 36.823109 23.439922 36.846859 23.448807 36.880859 23.466797 C 36.938849 23.498787 36.986612 23.551441 36.974609 23.607422 C 36.958609 23.689392 36.843104 23.686121 36.787109 23.746094 C 36.795109 23.862054 36.723359 23.857574 36.693359 23.935547 C 36.711359 23.985537 36.779119 23.969317 36.787109 24.029297 C 36.777069 24.093277 36.669358 24.101997 36.693359 24.167969 C 36.801348 24.251939 36.919493 24.181969 37.021484 24.167969 C 37.245465 24.139979 37.444041 24.182189 37.582031 24.074219 C 37.564031 23.968259 37.734655 23.935812 37.722656 23.839844 C 37.712616 23.767864 37.589151 23.751154 37.535156 23.701172 C 37.523045 23.689926 37.507539 23.661764 37.494141 23.640625 C 37.659157 23.749043 37.816649 23.866629 37.974609 23.984375 C 37.935689 24.016026 37.903519 24.056021 37.863281 24.074219 C 37.821281 24.092209 37.760655 24.097104 37.722656 24.121094 C 37.666656 24.159084 37.646029 24.217773 37.582031 24.259766 C 37.536041 24.291756 37.395652 24.400391 37.347656 24.400391 C 37.289666 24.400391 37.202153 24.341469 37.160156 24.355469 C 37.100166 24.373459 37.134396 24.470149 37.066406 24.494141 C 36.934417 24.542121 36.690527 24.389958 36.644531 24.587891 C 36.700531 24.701853 36.872664 24.666543 36.972656 24.728516 C 37.034656 24.768496 37.144158 24.941789 37.160156 25.009766 C 37.176156 25.065756 37.184156 25.277912 37.160156 25.337891 C 37.098156 25.497837 36.922266 25.482514 36.738281 25.478516 C 36.688281 25.478516 36.643654 25.482516 36.597656 25.478516 C 36.287682 25.458516 35.989598 25.350339 35.849609 25.572266 C 35.859649 25.742207 35.887609 25.846192 35.849609 25.994141 C 35.821609 26.102109 35.702985 26.181424 35.708984 26.275391 C 35.710984 26.323371 35.790734 26.396914 35.802734 26.462891 C 35.810734 26.498881 35.786734 26.571531 35.802734 26.603516 C 35.854724 26.701476 35.991992 26.587526 36.083984 26.603516 C 36.171974 26.617516 36.273438 26.739925 36.273438 26.837891 C 36.273438 26.907861 36.221724 27.051164 36.177734 27.119141 C 36.089744 27.251096 35.928723 27.234666 35.802734 27.306641 C 35.698738 27.366621 35.677228 27.485879 35.615234 27.589844 C 35.549244 27.701806 35.495483 27.758024 35.521484 27.917969 C 35.431494 28.095908 35.330516 28.206998 35.144531 28.292969 C 35.090541 28.316959 35.007027 28.350729 34.957031 28.386719 C 34.917041 28.414709 34.872404 28.463363 34.816406 28.527344 C 34.746416 28.605324 34.666902 28.654865 34.628906 28.714844 C 34.600906 28.760824 34.612021 28.840365 34.582031 28.902344 C 34.538031 28.986314 34.450526 29.052748 34.394531 29.136719 C 34.368531 29.176699 34.328781 29.225362 34.300781 29.277344 C 34.236791 29.393304 34.148158 29.503504 34.160156 29.605469 C 34.170196 29.703429 34.294782 29.707 34.300781 29.792969 C 34.306781 29.840949 34.251896 29.879658 34.253906 29.931641 C 34.255906 30.007611 34.294781 30.061115 34.300781 30.121094 C 34.314781 30.269044 34.235021 30.300379 34.207031 30.402344 C 34.193031 30.450324 34.219031 30.504983 34.207031 30.542969 C 34.183031 30.616939 34.068405 30.687421 34.066406 30.775391 C 34.064406 30.837361 34.154156 30.876878 34.160156 30.964844 C 34.164156 31.024824 34.103234 31.096363 34.115234 31.152344 C 34.137224 31.260311 34.359365 31.396497 34.443359 31.480469 C 34.557349 31.594431 34.674612 31.688635 34.724609 31.808594 C 34.766609 31.910561 34.787247 32.060745 34.865234 32.136719 C 34.923224 32.192699 35.025616 32.217409 35.099609 32.275391 C 35.169599 32.329371 35.258038 32.358034 35.332031 32.416016 C 35.454021 32.511986 35.606797 32.711262 35.800781 32.697266 C 35.90277 32.689266 36.014916 32.623516 36.128906 32.603516 C 36.246896 32.583516 36.383915 32.546594 36.503906 32.558594 C 36.595906 32.568634 36.691116 32.609516 36.787109 32.603516 C 36.887099 32.597516 37.001244 32.559756 37.115234 32.509766 C 37.313217 32.423796 37.62218 32.28028 37.910156 32.322266 C 38.130137 32.354256 38.133122 32.599299 38.287109 32.697266 C 38.463095 32.713256 38.613918 32.663276 38.753906 32.697266 C 38.859899 32.723266 38.978283 32.896497 38.988281 32.980469 C 38.998321 33.066439 38.906531 33.15891 38.894531 33.212891 C 38.866531 33.328852 38.867646 33.467042 38.847656 33.541016 C 38.831656 33.598996 38.800724 33.670535 38.802734 33.728516 C 38.802734 33.780496 38.889371 33.894914 38.943359 33.962891 C 39.009349 34.046861 39.095788 34.105298 39.175781 34.197266 C 39.32177 34.365209 39.401915 34.584717 39.503906 34.806641 C 39.529906 34.862621 39.479906 34.877284 39.503906 34.947266 C 39.459906 35.283151 39.348888 35.512892 39.128906 35.884766 C 39.024921 36.004724 38.892531 36.156692 38.894531 36.306641 C 38.886531 36.666518 39.09803 36.847431 39.082031 37.195312 C 39.046031 37.663153 39.073059 37.742271 39.037109 37.992188 C 39.195095 38.072158 39.128041 38.293042 39.082031 38.458984 C 39.014031 38.656918 38.932527 38.703983 38.894531 38.835938 C 39.0184 38.889527 39.154435 38.876433 39.292969 38.841797 C 37.47105 40.783753 34.885243 42 32 42 C 30.772284 42 29.602429 41.770422 28.517578 41.369141 C 28.477738 41.353366 28.433785 41.344342 28.394531 41.322266 C 28.332531 41.286276 28.292782 41.21074 28.300781 41.134766 C 28.404778 41.090776 28.601741 41.233831 28.677734 41.087891 C 28.715734 41.017911 28.627734 40.876616 28.677734 40.806641 C 28.713734 40.758661 28.931865 40.724891 29.005859 40.712891 C 29.111852 40.694901 29.227113 40.703996 29.287109 40.666016 C 29.353099 40.624026 29.439733 40.508724 29.427734 40.384766 C 29.421734 40.326786 29.379974 40.296123 29.333984 40.244141 C 29.295984 40.200151 29.313099 40.145451 29.287109 40.105469 C 29.239109 40.035499 29.166482 40.019935 29.146484 39.917969 C 29.290472 39.889979 29.501001 40.069697 29.708984 40.011719 C 29.806984 39.983729 29.944238 39.775563 29.990234 39.683594 C 30.004234 39.655604 29.974234 39.576961 29.990234 39.542969 C 30.008234 39.504979 30.079937 39.469219 30.085938 39.449219 C 30.099937 39.395239 30.073937 39.389459 30.085938 39.355469 C 30.121938 39.253502 30.213442 39.195068 30.273438 39.121094 C 30.319427 39.065104 30.372076 38.991575 30.414062 38.933594 C 30.462062 38.871624 30.475823 38.84695 30.507812 38.792969 C 30.537813 38.61103 30.416937 38.486118 30.460938 38.326172 C 30.508937 38.146233 30.755702 38.031191 30.929688 37.949219 C 30.989677 37.921229 31.06719 37.873469 31.117188 37.855469 C 31.237178 37.813479 31.380196 37.801709 31.492188 37.761719 C 31.680172 37.693749 31.72832 37.511785 31.820312 37.339844 C 31.864313 37.259874 31.908026 37.163448 31.916016 37.105469 C 31.924016 37.053489 31.905976 37.02677 31.916016 36.966797 C 31.926056 36.906817 31.944947 36.843322 31.960938 36.777344 C 31.982937 36.691364 32.007812 36.547139 32.007812 36.451172 C 32.007812 36.371202 31.962928 36.333694 31.960938 36.261719 C 31.946938 36.001807 32.052454 35.981795 32.148438 35.839844 C 32.196438 35.769874 32.208187 35.657405 32.242188 35.607422 C 32.404175 35.367504 32.684061 35.26622 32.664062 34.902344 C 32.656062 34.782384 32.61339 34.518457 32.525391 34.480469 C 32.475391 34.458479 32.365009 34.463537 32.291016 34.435547 C 32.055035 34.347577 31.880745 34.078588 31.634766 34.058594 C 31.582776 34.056594 31.55214 34.060594 31.494141 34.058594 C 31.398151 34.056594 31.27596 33.976844 31.167969 33.964844 C 31.099969 33.956844 30.973591 33.984844 30.933594 33.964844 C 30.871594 33.934854 30.889834 33.811333 30.839844 33.777344 C 30.799854 33.749354 30.712386 33.752459 30.650391 33.730469 C 30.552391 33.692489 30.483133 33.644719 30.369141 33.636719 C 30.333141 33.634719 30.268513 33.642719 30.228516 33.636719 C 30.166516 33.626679 30.099011 33.578959 30.041016 33.542969 C 29.969016 33.498979 29.930388 33.46627 29.900391 33.404297 C 29.966381 33.18837 29.756888 33.153301 29.712891 33.027344 C 29.692891 32.969364 29.732891 32.891827 29.712891 32.839844 C 29.686891 32.765874 29.607383 32.714323 29.525391 32.652344 C 29.381403 32.540381 29.262623 32.44396 29.056641 32.417969 C 28.964641 32.407929 28.838507 32.425969 28.728516 32.417969 C 28.612526 32.409969 28.488384 32.330435 28.400391 32.230469 C 28.316401 32.132509 28.286884 32.042078 28.212891 31.996094 C 28.142901 31.952104 28.026513 31.948334 27.978516 31.902344 C 27.956526 31.882344 27.953584 31.854574 27.933594 31.808594 C 27.897594 31.736614 27.842719 31.707106 27.886719 31.619141 C 27.806719 31.579161 27.834035 31.682006 27.748047 31.666016 C 27.670047 31.556054 27.595908 31.491401 27.419922 31.525391 C 27.339922 31.541381 27.279538 31.664017 27.185547 31.666016 C 27.107557 31.668016 27.053164 31.539385 26.951172 31.525391 C 26.873182 31.515351 26.770792 31.584266 26.716797 31.572266 C 26.630797 31.556276 26.60729 31.483624 26.529297 31.431641 C 26.471307 31.393651 26.373794 31.29097 26.341797 31.292969 C 26.241807 31.294969 26.15166 31.505615 26.013672 31.431641 C 25.945672 31.345661 26.138593 31.324109 26.058594 31.244141 C 25.998604 31.184161 25.967911 31.259036 25.919922 31.291016 C 25.863922 31.329006 25.794416 31.362776 25.732422 31.384766 C 25.594433 31.436746 25.512288 31.422536 25.404297 31.478516 C 25.304307 31.530496 25.272838 31.610926 25.214844 31.712891 C 25.168854 31.796861 25.097338 31.941315 25.027344 31.945312 C 24.943354 31.951313 24.868963 31.838626 24.792969 31.806641 C 24.562988 31.706671 24.422406 31.849573 24.232422 31.851562 C 24.056437 31.853562 23.802547 31.595631 23.810547 31.429688 C 23.816547 31.327721 23.892297 31.180644 23.904297 31.054688 C 23.914337 30.954718 23.996057 30.863453 23.998047 30.771484 C 24.000047 30.649525 23.794838 30.55306 23.714844 30.539062 C 23.526861 30.505073 23.27453 30.623033 23.060547 30.539062 C 23.020557 30.471093 23.130297 30.415586 23.154297 30.349609 C 23.168297 30.311629 23.140297 30.297849 23.154297 30.255859 C 23.178297 30.191879 23.262973 30.136336 23.292969 30.068359 C 23.314959 30.016379 23.317854 29.944838 23.339844 29.880859 C 23.365844 29.808879 23.427594 29.745341 23.433594 29.693359 C 23.441594 29.625389 23.393844 29.547891 23.339844 29.503906 C 23.173858 29.513946 23.058883 29.506801 22.962891 29.550781 C 22.746909 29.648741 22.805872 29.951555 22.587891 30.019531 C 22.513891 30.043521 22.390634 30.050463 22.306641 30.064453 C 22.270069 30.071565 22.228499 30.077575 22.1875 30.087891 C 22.327169 29.361894 22.54337 28.664033 22.830078 28.003906 C 22.878176 28.003893 22.928042 27.997491 22.960938 28.003906 C 23.036928 28.017906 23.084397 28.091656 23.150391 28.097656 C 23.334376 28.111656 23.373404 27.943253 23.525391 27.863281 C 23.681378 27.885271 23.760355 27.847291 23.902344 27.863281 C 23.998334 27.873321 24.1076 27.997908 24.183594 28.003906 C 24.247584 28.005906 24.264232 27.947021 24.324219 27.957031 C 24.384219 27.967071 24.501719 28.072555 24.511719 28.144531 C 24.521759 28.234501 24.438844 28.327768 24.464844 28.427734 C 24.558834 28.523704 24.75273 28.559253 24.886719 28.615234 C 24.974709 28.543254 24.900719 28.391073 24.886719 28.287109 C 24.884719 28.241129 24.892719 28.188476 24.886719 28.146484 C 24.876679 28.074504 24.841797 28.020963 24.841797 27.958984 C 24.841797 27.673081 25.071688 27.555321 25.263672 27.443359 C 25.345662 27.395369 25.426053 27.291846 25.498047 27.255859 C 25.600036 27.205869 25.648429 27.210099 25.732422 27.162109 C 25.884409 27.076139 26.036307 26.976873 26.154297 26.878906 C 26.208297 26.74895 26.148297 26.584987 26.154297 26.457031 C 26.208297 26.423041 26.234971 26.463031 26.292969 26.457031 C 26.384969 26.437031 26.430427 26.321514 26.482422 26.269531 C 26.512422 26.239541 26.585101 26.205771 26.621094 26.175781 C 26.713094 26.103801 26.728599 26.020271 26.808594 25.988281 C 26.836584 25.978241 26.905221 25.953396 26.949219 25.941406 C 27.009219 25.925416 27.087602 25.881646 27.183594 25.847656 C 27.245594 25.825666 27.393971 25.826724 27.417969 25.802734 C 27.447969 25.772744 27.409969 25.659265 27.417969 25.613281 C 27.465969 25.387358 27.825361 25.363083 28.027344 25.287109 C 28.167331 25.233129 28.293233 25.116494 28.449219 25.146484 C 28.419219 25.254452 28.282596 25.250902 28.308594 25.380859 C 28.342584 25.562796 28.572724 25.313099 28.636719 25.287109 C 28.758709 25.235129 28.992358 25.204466 29.152344 25.146484 C 29.292333 25.096504 29.518708 25.027179 29.386719 24.865234 C 29.276728 24.857234 29.248336 24.963923 29.152344 25.003906 C 29.086354 25.013946 29.06967 24.962974 29.013672 24.958984 C 28.959672 24.956984 28.927035 25.013916 28.873047 25.003906 C 28.819047 24.993866 28.740421 24.880384 28.732422 24.816406 C 28.710422 24.648462 28.898803 24.612238 28.966797 24.488281 C 28.920807 24.336332 28.719785 24.454511 28.591797 24.394531 C 28.605797 24.304561 28.673303 24.225025 28.779297 24.207031 C 28.865297 24.193031 29.055427 24.209973 29.107422 24.251953 C 29.137422 24.277943 29.106354 24.350585 29.152344 24.392578 C 29.204334 24.438558 29.273803 24.402618 29.341797 24.392578 C 29.365797 24.278616 29.181173 24.325926 29.201172 24.251953 C 29.33716 24.163983 29.597686 24.229021 29.763672 24.207031 C 29.859662 24.193031 29.958929 24.112388 30.044922 24.066406 C 30.124922 24.020426 30.195305 23.945505 30.279297 24.021484 C 30.303297 24.103454 30.231537 24.166999 30.185547 24.208984 C 30.031559 24.344939 29.883661 24.472913 29.763672 24.630859 C 29.837672 24.702839 29.967807 24.661781 30.091797 24.675781 C 30.139797 24.681781 30.18047 24.714656 30.230469 24.722656 C 30.290469 24.732696 30.371925 24.712616 30.419922 24.722656 C 30.503912 24.742656 30.523423 24.863281 30.607422 24.863281 C 30.743411 24.863281 30.730344 24.720875 30.652344 24.628906 C 30.676344 24.534936 30.733229 24.46051 30.699219 24.394531 C 30.637219 24.270574 30.383094 24.411847 30.371094 24.253906 C 30.363094 24.153936 30.475727 24.142381 30.511719 24.066406 C 30.495719 23.874472 30.67039 23.865347 30.650391 23.691406 C 30.640351 23.619426 30.561718 23.618754 30.511719 23.550781 C 30.485719 23.514791 30.494834 23.436147 30.464844 23.410156 C 30.360858 23.322186 30.148718 23.345674 30.136719 23.177734 C 30.130719 23.077764 30.150719 23.002494 30.136719 22.894531 C 30.122719 22.792564 30.037214 22.492649 29.949219 22.472656 C 29.837229 22.448666 29.755083 22.645052 29.621094 22.707031 C 29.549104 22.741021 29.413838 22.767906 29.339844 22.753906 C 29.291844 22.743866 29.205217 22.705252 29.199219 22.613281 C 29.189179 22.507321 29.272979 22.490869 29.292969 22.378906 C 30.154532 22.138456 31.059681 22 32 22 z M 27.966797 22.847656 C 27.938007 23.258959 27.571114 23.472071 27.138672 23.460938 C 27.046672 23.548907 27.094912 23.713978 27.044922 23.835938 C 27.002922 23.937904 26.865663 24.033389 26.763672 24.025391 C 26.689672 24.019391 26.576172 23.905913 26.576172 23.835938 C 26.576172 23.749958 26.695094 23.701482 26.621094 23.603516 C 26.624219 23.582977 26.651104 23.562287 26.671875 23.541016 C 27.085401 23.280666 27.514975 23.046127 27.966797 22.847656 z M 36.314453 23.324219 C 36.277669 23.331063 36.257193 23.349993 36.224609 23.369141 C 36.148619 23.415121 36.141983 23.487775 36.083984 23.509766 C 36.001994 23.539756 35.908483 23.529546 35.896484 23.603516 C 35.886444 23.665496 35.945369 23.686205 35.943359 23.742188 C 35.913359 23.816167 35.865609 23.83971 35.849609 23.929688 C 35.951598 24.095631 36.190417 23.920706 36.316406 23.884766 C 36.372406 23.868776 36.427033 23.881871 36.457031 23.837891 C 36.491021 23.783911 36.475963 23.681444 36.501953 23.605469 C 36.529943 23.521499 36.60571 23.538815 36.595703 23.464844 C 36.587703 23.390864 36.438442 23.312223 36.314453 23.324219 z M 25.367188 24.517578 C 25.464472 24.567405 25.628658 24.79255 25.441406 24.873047 C 25.421406 24.883087 25.161277 24.927979 25.113281 24.917969 C 25.074553 24.912413 25.042347 24.87684 25.009766 24.841797 C 25.124726 24.729533 25.246911 24.624212 25.367188 24.517578 z M 25.720703 24.964844 C 25.768703 24.966844 25.805331 25.054594 25.861328 25.058594 C 25.915328 25.062594 25.969953 25.001709 26.001953 25.011719 C 26.085943 25.033709 26.126874 25.184115 26.046875 25.246094 C 25.980875 25.254094 25.956192 25.191172 25.908203 25.201172 C 25.772215 25.225162 25.726991 25.49042 25.625 25.482422 C 25.52901 25.472382 25.48208 25.271149 25.580078 25.201172 C 25.582078 25.141192 25.529193 25.120529 25.533203 25.060547 C 25.563203 25.022557 25.640708 24.960797 25.720703 24.966797 L 25.720703 24.964844 z M 25.253906 25.011719 C 25.281906 25.011719 25.288838 24.999719 25.298828 25.011719 C 25.284828 25.117679 25.242155 25.151188 25.160156 25.201172 C 25.018168 25.287142 24.92295 25.392235 24.876953 25.576172 C 24.862953 25.630152 24.712525 25.777667 24.644531 25.763672 C 24.486544 25.729682 24.702281 25.434656 24.738281 25.388672 C 24.778271 25.338692 24.830955 25.30403 24.876953 25.248047 C 24.922943 25.192057 24.926713 25.092537 24.970703 25.060547 C 25.018703 25.026557 25.169913 25.009672 25.253906 25.013672 L 25.253906 25.011719 z M 39.402344 25.279297 C 39.465498 25.348848 39.530606 25.416952 39.591797 25.488281 C 39.528752 25.414487 39.425833 25.386203 39.402344 25.279297 z M 38.791016 25.298828 C 38.949003 25.288788 39.047148 25.484111 39.119141 25.580078 C 39.179141 25.658058 39.349274 25.76047 39.447266 25.814453 C 39.503266 25.844443 39.57277 25.880213 39.634766 25.908203 C 39.764755 25.966183 40.003766 26.155247 40.009766 26.283203 C 40.011766 26.347183 39.954834 26.412676 39.964844 26.472656 C 40.062834 26.488646 40.150343 26.336248 40.152344 26.238281 C 40.152344 26.215042 40.144482 26.200578 40.134766 26.185547 C 40.417804 26.581545 40.67282 26.997093 40.896484 27.433594 C 40.808326 27.459468 40.732952 27.502025 40.71875 27.587891 C 40.69875 27.699854 40.79299 27.849148 40.625 27.869141 C 40.519008 27.883141 40.394034 27.7605 40.248047 27.728516 C 40.188057 27.714516 40.108544 27.744506 40.060547 27.728516 C 39.950556 27.690526 39.967041 27.562071 39.873047 27.496094 C 39.819047 27.458104 39.675837 27.412344 39.589844 27.402344 C 39.535844 27.396344 39.507171 27.410344 39.451172 27.402344 C 39.383172 27.394344 39.272792 27.389449 39.216797 27.355469 C 39.162797 27.321479 39.043296 27.260827 39.029297 27.214844 C 39.007307 27.140874 39.163969 27.044399 39.167969 26.982422 C 39.171969 26.934432 39.133037 26.91377 39.123047 26.841797 C 39.115047 26.797807 39.133087 26.729163 39.123047 26.701172 C 39.109047 26.649192 39.015586 26.609432 38.933594 26.607422 C 38.861594 26.607422 38.808088 26.654297 38.746094 26.654297 C 38.658104 26.656297 38.481085 26.597422 38.371094 26.607422 C 38.305104 26.613422 38.243635 26.650307 38.181641 26.654297 C 38.007655 26.668297 37.895754 26.644257 37.759766 26.654297 C 37.661766 26.660297 37.476758 26.706057 37.384766 26.748047 C 37.338776 26.770037 37.30413 26.811807 37.244141 26.841797 C 37.216151 26.855797 37.186391 26.870729 37.150391 26.886719 C 37.094391 26.912719 37.016886 26.968422 36.962891 26.982422 C 36.884901 27.002422 36.776755 26.976422 36.634766 26.982422 C 36.532777 26.988422 36.355516 26.96376 36.353516 26.841797 C 36.351516 26.65586 36.693155 26.733158 36.869141 26.701172 C 36.935131 26.687172 36.976646 26.608481 37.056641 26.5625 C 37.094641 26.54051 37.114391 26.539615 37.150391 26.515625 C 37.210391 26.473635 37.327892 26.376109 37.337891 26.328125 C 37.345891 26.284145 37.286969 26.219485 37.292969 26.1875 C 37.300969 26.14551 37.377652 26.1028 37.431641 26.048828 C 37.515631 25.964858 37.562026 25.868434 37.666016 25.814453 C 37.736006 25.776463 37.868393 25.776683 37.900391 25.720703 C 37.908391 25.656723 37.898391 25.63806 37.900391 25.580078 C 37.944391 25.540098 37.958141 25.494328 37.994141 25.486328 C 38.10213 25.462338 38.196276 25.53725 38.322266 25.53125 C 38.376266 25.52925 38.451771 25.524308 38.509766 25.486328 C 38.557766 25.454348 38.602402 25.416578 38.650391 25.392578 C 38.702381 25.364588 38.727018 25.302828 38.791016 25.298828 z M 26.277344 25.394531 L 26.279297 25.394531 C 26.325287 25.392531 26.369923 25.394531 26.419922 25.394531 C 26.469922 25.394531 26.538595 25.374531 26.558594 25.394531 C 26.526594 25.526487 26.240711 25.487443 26.136719 25.439453 C 26.142719 25.389473 26.213345 25.400531 26.277344 25.394531 z M 39.591797 25.490234 C 39.648929 25.556851 39.708287 25.621322 39.763672 25.689453 C 39.754376 25.684231 39.740525 25.681991 39.732422 25.675781 C 39.676795 25.632085 39.647061 25.557857 39.591797 25.490234 z M 25.808594 25.628906 C 25.842584 25.628906 25.868297 25.614906 25.904297 25.628906 C 25.812297 25.706876 25.687331 25.766424 25.527344 25.816406 C 25.451354 25.840396 25.353842 25.853491 25.339844 25.769531 C 25.323844 25.665568 25.412481 25.685781 25.480469 25.675781 C 25.568459 25.665741 25.70465 25.632859 25.806641 25.630859 L 25.808594 25.628906 z M 38.837891 25.630859 C 38.771901 25.652849 38.739891 25.800365 38.837891 25.818359 C 38.883881 25.790369 38.896766 25.714832 38.884766 25.630859 C 38.858766 25.602869 38.857881 25.622859 38.837891 25.630859 z M 38.792969 25.912109 C 38.760969 25.922149 38.733209 25.921091 38.699219 25.957031 C 38.701219 26.068992 38.721219 26.142267 38.699219 26.240234 C 38.763209 26.364191 38.899644 26.277329 38.931641 26.193359 C 38.969641 25.985431 38.888957 25.886119 38.792969 25.912109 z M 39.681641 26.474609 C 39.593651 26.470609 39.501215 26.477551 39.449219 26.519531 C 39.523219 26.639489 39.658233 26.677042 39.824219 26.707031 C 39.884209 26.663041 39.889969 26.550583 39.917969 26.474609 C 39.845979 26.474609 39.771587 26.478609 39.683594 26.474609 L 39.681641 26.474609 z M 22.109375 30.59375 C 22.222112 30.696187 22.300628 30.866832 22.435547 30.933594 C 22.485547 30.959584 22.559052 30.966479 22.623047 30.980469 C 22.675037 30.990509 22.713674 31.009401 22.763672 31.025391 C 22.869665 31.061381 23.007805 31.083114 23.091797 31.121094 C 23.219787 31.177074 23.309931 31.383287 23.419922 31.447266 C 23.425922 31.511246 23.399922 31.588735 23.419922 31.636719 C 23.471912 31.706689 23.570303 31.729408 23.654297 31.775391 C 23.756286 31.831371 23.790727 31.965781 23.886719 32.009766 C 23.920709 32.023766 23.975345 31.993776 24.027344 32.009766 C 24.159333 32.049746 24.196557 32.231255 24.310547 32.197266 C 24.384547 32.175276 24.392297 32.081742 24.404297 32.009766 C 24.454297 31.955786 24.513804 31.869141 24.591797 31.869141 C 24.715787 31.867141 24.7333 32.030386 24.779297 32.152344 C 24.805297 32.220324 24.855047 32.267868 24.873047 32.339844 C 24.903047 32.463801 24.899047 32.828369 24.873047 32.902344 C 24.841047 32.994314 24.714666 33.034801 24.638672 33.134766 C 24.602672 33.182756 24.572922 33.243406 24.544922 33.275391 C 24.496922 33.335371 24.442253 33.362044 24.40625 33.416016 C 24.38625 33.446006 24.377365 33.512695 24.359375 33.554688 C 24.299375 33.682643 24.215627 33.777694 24.265625 33.931641 C 24.285625 33.993611 24.359375 34.045167 24.359375 34.119141 C 24.359375 34.207111 24.185874 34.257549 24.171875 34.353516 C 24.161835 34.423496 24.243625 34.540797 24.265625 34.634766 C 24.281625 34.704736 24.411129 34.776282 24.453125 34.822266 C 24.523115 34.900246 24.578583 35.005504 24.642578 35.105469 C 24.768567 35.299403 24.84476 35.524909 24.96875 35.714844 C 25.03474 35.812804 25.159129 35.892129 25.203125 35.996094 C 25.225115 36.048074 25.183125 36.135611 25.203125 36.183594 C 25.275115 36.345539 25.603638 36.525497 25.765625 36.605469 C 25.841615 36.643449 25.930005 36.661182 26 36.701172 C 26.105993 36.761152 26.321004 36.888453 26.375 36.982422 C 26.423 37.066392 26.44475 37.270343 26.46875 37.404297 C 26.49875 37.580237 26.46075 37.729987 26.46875 37.919922 C 26.47475 38.023886 26.515625 38.097207 26.515625 38.201172 C 26.515625 38.237162 26.517625 38.305808 26.515625 38.341797 C 26.513625 38.465754 26.525665 38.59084 26.515625 38.716797 C 26.509625 38.784777 26.511625 38.848269 26.515625 38.90625 C 26.521625 38.96822 26.556557 38.990941 26.560547 39.044922 C 26.564547 39.102902 26.509625 39.188389 26.515625 39.234375 C 26.529625 39.360331 26.632252 39.444586 26.65625 39.560547 C 26.67625 39.652517 26.713172 39.87246 26.701172 39.982422 C 26.693172 40.040402 26.66424 40.107897 26.65625 40.171875 C 26.65025 40.221855 26.66425 40.264565 26.65625 40.310547 C 26.649841 40.355219 26.638856 40.392868 26.626953 40.431641 C 23.844961 38.659589 22 35.55658 22 32 C 22 31.521088 22.0449 31.054337 22.109375 30.59375 z M 26 31.689453 C 26.09599 31.645473 26.07799 31.818082 26 31.830078 C 25.926 31.840118 25.928 31.723445 26 31.689453 z "
     id="path26" />
</svg>
