<?xml version="1.0" encoding="UTF-8" standalone="no"?>
<!-- Created with Inkscape (http://www.inkscape.org/) -->

<svg
   xmlns:dc="http://purl.org/dc/elements/1.1/"
   xmlns:cc="http://creativecommons.org/ns#"
   xmlns:rdf="http://www.w3.org/1999/02/22-rdf-syntax-ns#"
   xmlns:svg="http://www.w3.org/2000/svg"
   xmlns="http://www.w3.org/2000/svg"
   xmlns:xlink="http://www.w3.org/1999/xlink"
   xmlns:sodipodi="http://sodipodi.sourceforge.net/DTD/sodipodi-0.dtd"
   xmlns:inkscape="http://www.inkscape.org/namespaces/inkscape"
   width="32"
   height="32"
   id="svg5453"
   version="1.1"
   inkscape:version="0.91+devel r"
   sodipodi:docname="preferences-gtk-config.svg">
  <defs
     id="defs5455">
    <linearGradient
       id="linearGradient4293"
       inkscape:collect="always">
      <stop
         id="stop4295"
         offset="0"
         style="stop-color:#000000;stop-opacity:1;" />
      <stop
         id="stop4297"
         offset="1"
         style="stop-color:#000000;stop-opacity:0;" />
    </linearGradient>
    <linearGradient
       id="linearGradient4303-6"
       inkscape:collect="always">
      <stop
         id="stop4305-7"
         offset="0"
         style="stop-color:#c6cdd1;stop-opacity:1" />
      <stop
         id="stop4307-0"
         offset="1"
         style="stop-color:#e0e5e7;stop-opacity:1" />
    </linearGradient>
    <linearGradient
       id="linearGradient3052">
      <stop
         offset="0"
         style="stop-color:#555753"
         id="stop3054" />
      <stop
         offset="1"
         style="stop-color:#2e3436"
         id="stop3056" />
    </linearGradient>
    <radialGradient
       r="17.995"
       gradientTransform="matrix(0.58724559,-3.9747237e-7,0,0.25688859,387.29707,527.70784)"
       cx="25.641"
       cy="3.6836"
       gradientUnits="userSpaceOnUse"
       xlink:href="#linearGradient3052"
       id="radialGradient3082" />
    <linearGradient
       inkscape:collect="always"
       xlink:href="#linearGradient4293"
       id="linearGradient4427"
       x1="9"
       y1="10.999974"
       x2="23"
       y2="25"
       gradientUnits="userSpaceOnUse"
       gradientTransform="translate(384.57143,515.798)" />
    <linearGradient
       inkscape:collect="always"
       xlink:href="#linearGradient4303-6"
       id="linearGradient4643-8"
       gradientUnits="userSpaceOnUse"
       gradientTransform="matrix(0.66666726,0,0,0.63518419,128.19015,198.5187)"
       x1="409.57144"
       y1="543.79797"
       x2="409.57144"
       y2="502.65509" />
    <linearGradient
       inkscape:collect="always"
       xlink:href="#linearGradient4293"
       id="linearGradient4183"
       x1="391.57144"
       y1="525.79797"
       x2="406.57147"
       y2="540.79797"
       gradientUnits="userSpaceOnUse" />
  </defs>
  <sodipodi:namedview
     id="base"
     pagecolor="#ffffff"
     bordercolor="#666666"
     borderopacity="1.0"
     inkscape:pageopacity="0"
     inkscape:pageshadow="2"
     inkscape:zoom="15.999999"
     inkscape:cx="9.9841272"
     inkscape:cy="14.236647"
     inkscape:document-units="px"
     inkscape:current-layer="layer1"
     showgrid="true"
     fit-margin-top="0"
     fit-margin-left="0"
     fit-margin-right="0"
     fit-margin-bottom="0"
     inkscape:window-width="1366"
     inkscape:window-height="670"
     inkscape:window-x="-4"
     inkscape:window-y="29"
     inkscape:window-maximized="1"
     inkscape:showpageshadow="false"
     borderlayer="true"
     showguides="true">
    <inkscape:grid
       type="xygrid"
       id="grid4063" />
    <sodipodi:guide
       position="4.2167969e-05,32.000026"
       orientation="32,0"
       id="guide4625" />
    <sodipodi:guide
       position="4.2167969e-05,2.6367188e-05"
       orientation="0,31.999969"
       id="guide4627" />
    <sodipodi:guide
       position="32.000012,2.6367188e-05"
       orientation="-32,0"
       id="guide4629" />
    <sodipodi:guide
       position="32.000012,32.000026"
       orientation="0,-31.999969"
       id="guide4631" />
    <sodipodi:guide
       position="2.0000422,30.000026"
       orientation="28,0"
       id="guide4633" />
    <sodipodi:guide
       position="2.0000422,2.0000264"
       orientation="0,27.999969"
       id="guide4635" />
    <sodipodi:guide
       position="30,17"
       orientation="-28,0"
       id="guide4637" />
    <sodipodi:guide
       position="30.000012,30.000026"
       orientation="0,-27.999969"
       id="guide4639" />
    <sodipodi:guide
       position="9.0000117,21.000026"
       orientation="14,0"
       id="guide4167" />
    <sodipodi:guide
       position="9.0000117,7.0000264"
       orientation="0,14"
       id="guide4169" />
    <sodipodi:guide
       position="23.000012,7.0000264"
       orientation="-14,0"
       id="guide4171" />
    <sodipodi:guide
       position="23.000012,21.000026"
       orientation="0,-14"
       id="guide4173" />
  </sodipodi:namedview>
  <metadata
     id="metadata5458">
    <rdf:RDF>
      <cc:Work
         rdf:about="">
        <dc:format>image/svg+xml</dc:format>
        <dc:type
           rdf:resource="http://purl.org/dc/dcmitype/StillImage" />
        <dc:title />
      </cc:Work>
    </rdf:RDF>
  </metadata>
  <g
     inkscape:label="Capa 1"
     inkscape:groupmode="layer"
     id="layer1"
     transform="translate(-384.57143,-515.798)">
    <rect
       ry="0"
       y="517.79797"
       x="384.57144"
       height="28"
       width="32"
       id="rect4641-5"
       style="opacity:1;fill:url(#linearGradient4643-8);fill-opacity:1;stroke:none" />
    <path
       style="fill:url(#linearGradient4183);fill-rule:evenodd;stroke:none;stroke-width:1px;stroke-linecap:butt;stroke-linejoin:miter;stroke-opacity:1;fill-opacity:1;opacity:0.2"
       d="m 385.57143,543.798 30,-20 1.00001,1 -10e-6,20.99997 -29,3e-5 z"
       id="path4167"
       inkscape:connector-curvature="0" />
    <rect
       style="opacity:1;fill:#566069;fill-opacity:1;stroke:none"
       id="rect4647-8"
       width="32.000011"
       height="4"
       x="384.57141"
       y="517.79797" />
    <rect
       style="opacity:1;fill:#3daee9;fill-opacity:1;stroke:none"
       id="rect4649-8"
       width="31.999968"
       height="1"
       x="384.57141"
       y="521.79797" />
    <rect
       style="opacity:1;fill:#ffffff;fill-opacity:1;stroke:none"
       id="rect4653-5"
       width="30"
       height="20.000027"
       x="385.57141"
       y="523.79797" />
    <rect
       style="opacity:1;fill:#eff0f1;fill-opacity:1;stroke:none"
       id="rect4661-1"
       width="2"
       height="2"
       x="413.57141"
       y="518.79797"
       rx="1"
       ry="1" />
    <path
       style="opacity:0.2;fill:url(#linearGradient4427);fill-opacity:1;fill-rule:evenodd;stroke:none;stroke-width:1px;stroke-linecap:butt;stroke-linejoin:miter;stroke-opacity:1"
       d="m 405.5892,527.19361 c -0.40007,1.17369 -1.0243,2.25385 -1.80478,3.26765 l -2.78941,-2.79157 -1.28558,2.032 0.12231,0.31676 0.3219,0.31675 0.64379,0.63352 1.28758,1.26702 c -0.0399,0.0376 0.0151,0.073 -0.0253,0.11037 l -0.22938,-0.12119 -3.69829,-3.69828 -0.61891,1.13826 0.37221,0.37221 -0.45171,0.60593 0.18085,0.18097 0.18096,0.18096 0.36205,0.36193 0.72386,0.72386 1.44772,1.44772 c -0.54835,-0.32362 -1.54811,-0.56096 -1.54811,-0.56096 l -0.53453,-0.50377 -1.13513,-1.13502 -0.56756,-0.56752 -0.28379,-0.28375 -0.14189,-0.14188 -0.2083,-0.14188 -0.43945,0.80069 0.2467,0.42847 -0.46048,0.37004 0.2098,0.23141 0.10946,0.23142 0.41962,0.46282 0.83923,0.92566 1.67847,1.85131 c -0.32652,0.18621 -1.53346,0.37593 -1.87423,0.55615 l 1.03872,2.56218 5.89383,6.17415 12,0 0,-7 z"
       id="path4375"
       inkscape:connector-curvature="0"
       sodipodi:nodetypes="cccccccccccccccccccccccccccccccccccccccc" />
    <path
       style="fill:url(#radialGradient3082);stroke:none"
       d="m 404.9986,526.79799 c -2.84396,0 -3.37747,4.15516 -1.77736,4.15516 1.59946,0 4.62167,-4.15516 1.77736,-4.15516 z m -4.38059,0.63928 c -0.0448,-1.6e-4 -0.0935,0.004 -0.14392,0.009 -1.61165,0.19573 -1.04443,2.81837 -0.18648,2.86728 0.83075,0.0477 1.73963,-2.87147 0.32984,-2.87603 z m -2.79453,0.96823 c -0.0986,-0.006 -0.20775,0.012 -0.32927,0.0598 -1.29538,0.51147 -0.19656,2.6228 0.52863,2.48087 0.65821,-0.12861 0.75257,-2.48131 -0.19936,-2.54079 z m -2.11437,1.72614 c -0.11259,-0.003 -0.23407,0.0343 -0.36399,0.12733 -1.03692,0.74409 0.34888,2.54172 0.95899,2.26301 0.53368,-0.24414 0.1932,-2.36287 -0.59514,-2.39034 z m 6.12425,1.71611 c -2.24667,-0.037 -5.21044,1.05918 -5.71601,3.26124 -0.54711,2.38282 2.25375,5.689 5.17585,5.689 1.43749,0 3.09547,-1.26318 3.40594,-2.86292 0.23688,-1.21972 -2.78799,-0.73091 -2.67946,0.0761 0.13048,0.96751 -0.72956,1.44577 -1.57173,0.82217 -2.68075,-1.98554 4.43883,-2.97633 3.96923,-5.68901 -0.14616,-0.84444 -1.23585,-1.27445 -2.58382,-1.29664 z"
       id="path4490"
       inkscape:connector-curvature="0" />
  </g>
</svg>
