<?xml version="1.0" encoding="UTF-8" standalone="no"?>
<!-- Created with Inkscape (http://www.inkscape.org/) -->

<svg
   xmlns:dc="http://purl.org/dc/elements/1.1/"
   xmlns:cc="http://creativecommons.org/ns#"
   xmlns:rdf="http://www.w3.org/1999/02/22-rdf-syntax-ns#"
   xmlns:svg="http://www.w3.org/2000/svg"
   xmlns="http://www.w3.org/2000/svg"
   xmlns:xlink="http://www.w3.org/1999/xlink"
   xmlns:sodipodi="http://sodipodi.sourceforge.net/DTD/sodipodi-0.dtd"
   xmlns:inkscape="http://www.inkscape.org/namespaces/inkscape"
   width="32"
   height="32"
   id="svg5453"
   version="1.1"
   inkscape:version="0.91+devel r"
   sodipodi:docname="preferences-web-browser-stylesheets.svg">
  <defs
     id="defs5455">
    <linearGradient
       inkscape:collect="always"
       xlink:href="#linearGradient4290"
       id="linearGradient4161"
       x1="16.000011"
       y1="29.999973"
       x2="16.000011"
       y2="1.999974"
       gradientUnits="userSpaceOnUse"
       gradientTransform="translate(351.82141,520.86051)" />
    <linearGradient
       id="linearGradient4290"
       inkscape:collect="always">
      <stop
         id="stop4292"
         offset="0"
         style="stop-color:#7cbaf8;stop-opacity:1" />
      <stop
         id="stop4294"
         offset="1"
         style="stop-color:#f4fcff;stop-opacity:1" />
    </linearGradient>
    <linearGradient
       inkscape:collect="always"
       id="linearGradient4143-8">
      <stop
         style="stop-color:#197cf1;stop-opacity:1"
         offset="0"
         id="stop4145-6" />
      <stop
         style="stop-color:#20bcfa;stop-opacity:1"
         offset="1"
         id="stop4147-0" />
    </linearGradient>
    <linearGradient
       inkscape:collect="always"
       id="linearGradient4227-2">
      <stop
         style="stop-color:#292c2f;stop-opacity:1"
         offset="0"
         id="stop4229-0" />
      <stop
         style="stop-color:#000000;stop-opacity:0;"
         offset="1"
         id="stop4231-4" />
    </linearGradient>
    <linearGradient
       inkscape:collect="always"
       xlink:href="#linearGradient4227-2"
       id="linearGradient4230-7"
       x1="23.000042"
       y1="12.505747"
       x2="30.000011"
       y2="19.505716"
       gradientUnits="userSpaceOnUse"
       gradientTransform="translate(351.82141,520.86051)" />
    <linearGradient
       gradientUnits="userSpaceOnUse"
       y2="517.79797"
       x2="400.57144"
       y1="545.79797"
       x1="400.57144"
       id="linearGradient4149"
       xlink:href="#linearGradient4143-8"
       inkscape:collect="always"
       gradientTransform="translate(-32.750018,5.0625122)" />
    <linearGradient
       gradientUnits="userSpaceOnUse"
       y2="19.039085"
       x2="22.063898"
       y1="-2.9814656"
       x1="0.04334712"
       id="linearGradient4297"
       xlink:href="#linearGradient4227-2"
       inkscape:collect="always"
       gradientTransform="translate(351.82141,520.86051)" />
    <linearGradient
       id="linearGradient4175"
       inkscape:collect="always">
      <stop
         id="stop4177"
         offset="0"
         style="stop-color:#ffd42a;stop-opacity:1;" />
      <stop
         id="stop4179"
         offset="1"
         style="stop-color:#ffdf62;stop-opacity:1" />
    </linearGradient>
    <linearGradient
       inkscape:collect="always"
       xlink:href="#linearGradient4175"
       id="linearGradient4414"
       x1="400.57144"
       y1="538.79797"
       x2="400.57144"
       y2="524.79797"
       gradientUnits="userSpaceOnUse" />
    <linearGradient
       inkscape:collect="always"
       xlink:href="#linearGradient4227-2"
       id="linearGradient4449"
       x1="9"
       y1="9"
       x2="22.999981"
       y2="22.999981"
       gradientUnits="userSpaceOnUse" />
  </defs>
  <sodipodi:namedview
     id="base"
     pagecolor="#ffffff"
     bordercolor="#666666"
     borderopacity="1.0"
     inkscape:pageopacity="0"
     inkscape:pageshadow="2"
     inkscape:zoom="15.999999"
     inkscape:cx="10.801345"
     inkscape:cy="17.513783"
     inkscape:document-units="px"
     inkscape:current-layer="layer1"
     showgrid="true"
     fit-margin-top="0"
     fit-margin-left="0"
     fit-margin-right="0"
     fit-margin-bottom="0"
     inkscape:window-width="1366"
     inkscape:window-height="670"
     inkscape:window-x="-4"
     inkscape:window-y="29"
     inkscape:window-maximized="1"
     inkscape:showpageshadow="false"
     borderlayer="true"
     showguides="true"
     inkscape:snap-bbox="true">
    <inkscape:grid
       type="xygrid"
       id="grid4063" />
    <sodipodi:guide
       position="4.2167969e-05,32.000026"
       orientation="32,0"
       id="guide4625" />
    <sodipodi:guide
       position="4.2167969e-05,2.6367188e-05"
       orientation="0,31.999969"
       id="guide4627" />
    <sodipodi:guide
       position="32.000012,2.6367188e-05"
       orientation="-32,0"
       id="guide4629" />
    <sodipodi:guide
       position="32.000012,32.000026"
       orientation="0,-31.999969"
       id="guide4631" />
    <sodipodi:guide
       position="2.0000422,30.000026"
       orientation="28,0"
       id="guide4633" />
    <sodipodi:guide
       position="2.0000422,2.0000264"
       orientation="0,27.999969"
       id="guide4635" />
    <sodipodi:guide
       position="30,17"
       orientation="-28,0"
       id="guide4637" />
    <sodipodi:guide
       position="30.000012,30.000026"
       orientation="0,-27.999969"
       id="guide4639" />
    <sodipodi:guide
       position="8.9999811,21.000026"
       orientation="14,0"
       id="guide4285" />
    <sodipodi:guide
       position="18,9"
       orientation="0,14"
       id="guide4287" />
    <sodipodi:guide
       position="22.999981,7.0000264"
       orientation="-14,0"
       id="guide4289" />
    <sodipodi:guide
       position="18,23"
       orientation="0,-14"
       id="guide4291" />
  </sodipodi:namedview>
  <metadata
     id="metadata5458">
    <rdf:RDF>
      <cc:Work
         rdf:about="">
        <dc:format>image/svg+xml</dc:format>
        <dc:type
           rdf:resource="http://purl.org/dc/dcmitype/StillImage" />
        <dc:title />
      </cc:Work>
    </rdf:RDF>
  </metadata>
  <g
     inkscape:label="Capa 1"
     inkscape:groupmode="layer"
     id="layer1"
     transform="translate(-384.57143,-515.798)">
    <rect
       style="opacity:1;fill:url(#linearGradient4149);fill-opacity:1;stroke:none"
       id="rect4130"
       width="28.000011"
       height="28.000027"
       x="386.57141"
       y="517.79797"
       ry="14.000006" />
    <path
       style="opacity:0.2;fill:url(#linearGradient4297);fill-opacity:1;fill-rule:evenodd;stroke:none;stroke-width:1px;stroke-linecap:butt;stroke-linejoin:miter;stroke-opacity:1"
       d="m 403.16517,518.04606 -2.97461,0.38086 -4.13476,2.38671 -1.50196,2.60157 c 0,0 -1.97389,1.39027 -2.27148,1.31054 -2.51679,-0.0295 -3.86861,0.66467 -4.58008,1.54688 -0.30087,0.70315 -0.53694,1.43965 -0.7207,2.19726 -0.005,0.76074 0.16211,1.35157 0.16211,1.35157 7.06054,6.35629 14.12109,9.09619 21.18164,13.64258 0.44458,-0.29535 0.86915,-0.61602 1.27539,-0.95899 0.0233,-0.0196 0.0452,-0.0408 0.0684,-0.0606 0.35986,-0.30788 0.70287,-0.63592 1.02929,-0.97851 0.0723,-0.0757 0.14035,-0.15508 0.21094,-0.23243 0.28268,-0.31039 0.55271,-0.6316 0.80664,-0.96679 0.0574,-0.0755 0.11405,-0.15178 0.16992,-0.22852 0.2755,-0.37955 0.53468,-0.77239 0.77149,-1.17969 0.0177,-0.0303 0.0372,-0.0594 0.0547,-0.0898 1.06486,-1.86383 1.71381,-3.99888 1.82422,-6.28125 3.1e-4,-0.007 0.002,-0.013 0.002,-0.0195 l 0,-0.002 -1.82427,-7.63667 c -1.99967,-3.48807 -5.45172,-6.02061 -9.54883,-6.7832 z"
       id="path4286"
       inkscape:connector-curvature="0"
       sodipodi:nodetypes="cccccccccccccccccscccc" />
    <path
       inkscape:connector-curvature="0"
       style="opacity:0.2;fill:url(#linearGradient4230-7);fill-opacity:1;fill-rule:evenodd;stroke:none;stroke-width:1px;stroke-linecap:butt;stroke-linejoin:miter;stroke-opacity:1"
       d="m 413.58314,526.63981 -4.30664,6.66015 4.11914,4.11914 c 0.75152,-1.71996 1.17578,-3.61787 1.17578,-5.62109 0,-1.8258 -0.35798,-3.56171 -0.98828,-5.1582 z"
       id="path4219" />
    <path
       inkscape:connector-curvature="0"
       style="fill:url(#linearGradient4161);fill-opacity:1;fill-rule:nonzero;stroke:none"
       d="m 400.37806,517.80778 c -1.07247,0.0145 -2.11123,0.15379 -3.11133,0.39453 -0.26327,0.23612 -0.65181,0.35584 -1.08789,0.34375 -0.15609,0.14931 -0.12005,0.42785 -0.20508,0.63281 -0.0716,0.17219 -0.32387,0.35646 -0.49609,0.3418 -0.1274,-0.0108 -0.27302,-0.18993 -0.27344,-0.3086 -4.6e-4,-0.14327 0.19914,-0.22314 0.0898,-0.38281 -1.11446,0.45173 -2.15103,1.04733 -3.09961,1.75586 0.25441,-0.0937 0.53497,-0.25118 0.76562,-0.25586 0.0379,-4.5e-4 0.0727,0.003 0.10742,0.0117 0.15492,0.0406 0.56321,0.48776 0.22266,0.63281 -0.0323,0.014 -0.49939,0.0648 -0.58008,0.0508 -0.11861,-0.0199 -0.18915,-0.18382 -0.30859,-0.20508 -0.20061,-0.0347 -0.45568,0.17366 -0.62891,0.0801 -1.9078,1.53997 -3.38836,3.57495 -4.27539,5.91016 0.0814,-0.047 0.16466,-0.0964 0.23828,-0.13477 0.24992,-0.12992 0.46099,-0.33992 0.75196,-0.35937 0.14514,-0.003 0.35476,0.0391 0.49414,0.0684 0.12865,0.0264 0.23244,0.11271 0.34375,0.12109 0.31592,0.0241 0.39067,-0.22172 0.64843,-0.35937 0.26628,0.0376 0.44312,-0.0446 0.6836,-0.0176 0.16396,0.0181 0.2824,0.19331 0.41015,0.20312 0.10747,0.0108 0.20265,-0.0999 0.30664,-0.084 0.10102,0.0156 0.2746,0.23592 0.29102,0.35938 0.0207,0.15368 -0.11249,0.29214 -0.0684,0.46093 0.16098,0.16396 0.45354,0.19656 0.68359,0.29102 0.14979,-0.12344 0.0199,-0.35257 0,-0.53125 -0.003,-0.0787 0.0108,-0.14821 0,-0.2207 -0.014,-0.12305 -0.0675,-0.23648 -0.0684,-0.3418 -0.003,-0.48642 0.39247,-0.71418 0.71875,-0.90625 0.14123,-0.0837 0.25246,-0.22975 0.375,-0.29102 0.17306,-0.0868 0.30201,-0.10698 0.44531,-0.1875 0.25893,-0.14545 0.48113,-0.2629 0.68359,-0.42773 0.0936,-0.22055 0.0103,-0.51641 0.0176,-0.73438 0.0937,-0.0574 0.17411,0.0258 0.27344,0.0176 0.15626,-0.0326 0.16926,-0.25375 0.25781,-0.3418 0.0515,-0.0505 0.19191,-0.0866 0.25586,-0.13671 0.15574,-0.12217 0.20581,-0.30673 0.3418,-0.35938 0.0487,-0.0198 0.16143,-0.0145 0.23828,-0.0351 0.10123,-0.0269 0.2453,-0.14662 0.41015,-0.20313 0.10748,-0.0375 0.35351,-0.0447 0.39453,-0.0859 0.0505,-0.0515 -7e-5,-0.19624 0.0176,-0.27343 0.0829,-0.38587 0.66425,-0.46773 1.00782,-0.59766 0.24081,-0.0913 0.48735,-0.25832 0.75195,-0.20703 -0.0518,0.1834 -0.29765,0.11911 -0.25586,0.3418 0.0577,0.30905 0.47094,-0.0892 0.58008,-0.13477 0.20856,-0.0879 0.56621,-0.14096 0.83984,-0.24023 0.23994,-0.0879 0.66952,-0.22166 0.44336,-0.4961 -0.18859,-0.0108 -0.27896,0.22072 -0.44336,0.29102 -0.11352,0.0181 -0.0926,-0.0944 -0.18945,-0.10352 -0.0921,-0.0108 -0.14367,0.0845 -0.23828,0.0684 -0.094,-0.0156 -0.22552,-0.16345 -0.24024,-0.27344 -0.0375,-0.28535 0.2412,-0.40242 0.35938,-0.61523 -0.0781,-0.25813 -0.43462,-0.0533 -0.65039,-0.1543 0.0206,-0.15367 0.17986,-0.25968 0.35937,-0.28906 0.14715,-0.0248 0.47683,-0.012 0.56446,0.0664 0.0507,0.0431 0.004,0.15098 0.0859,0.22265 0.0871,0.0787 0.1936,0.0713 0.30664,0.0527 0.0409,-0.19478 -0.25265,-0.14662 -0.22071,-0.2754 0.2309,-0.15104 0.60598,-0.0264 0.88868,-0.0684 0.16273,-0.0241 0.33431,-0.13956 0.47851,-0.22071 0.13716,-0.0781 0.31544,-0.21365 0.46094,-0.0859 0.0395,0.13958 -0.12738,0.18646 -0.20508,0.25586 -0.26155,0.23266 -0.53108,0.49931 -0.73437,0.76953 0.12473,0.12167 0.35146,0.0608 0.5625,0.0859 0.0825,0.0108 0.18619,0.0354 0.27343,0.0508 0.10188,0.0181 0.21121,0.0125 0.29102,0.0332 0.14358,0.0353 0.18206,0.18945 0.32422,0.18945 0.23386,-4.2e-4 0.23599,-0.25409 0.10351,-0.41211 0.0418,-0.16134 0.10731,-0.24441 0.0508,-0.35742 -0.10532,-0.2107 -0.49185,-0.0108 -0.51172,-0.27344 -0.0127,-0.17043 0.1433,-0.16351 0.20508,-0.29102 -0.0281,-0.32932 0.27014,-0.35325 0.23828,-0.64843 -0.014,-0.12346 -0.11865,-0.12456 -0.20508,-0.24024 -0.0449,-0.0591 -0.0651,-0.17684 -0.11914,-0.22265 -0.17878,-0.15105 -0.54245,-0.12185 -0.56445,-0.41016 -0.003,-0.0976 0.0107,-0.18504 0.0195,-0.27734 -0.16483,-0.008 -0.32783,-0.0231 -0.49414,-0.0254 l -0.38672,0 z m -6.66016,3.35351 c 0.0798,0.0108 0.17664,0.0962 0.27344,0.10352 0.0913,0.003 0.16653,-0.0502 0.22266,-0.0352 0.14295,0.0376 0.20267,0.25358 0.0684,0.35938 -0.11176,0.014 -0.15601,-0.0481 -0.24024,-0.0332 -0.23216,0.0395 -0.32065,0.49357 -0.49414,0.47852 -0.16363,-0.014 -0.25208,-0.41257 -0.0859,-0.53125 0.0108,-0.1036 -0.0755,-0.12026 -0.0703,-0.22266 0.0494,-0.0633 0.18978,-0.13065 0.32617,-0.11914 z m -0.76953,0.0527 c 0.0476,0.002 0.0833,0.0125 0.10157,0.0332 -0.0227,0.18219 -0.16593,0.17093 -0.30664,0.25586 -0.24302,0.14668 -0.38362,0.37025 -0.46094,0.68359 -0.0224,0.0913 -0.26128,0.33277 -0.37696,0.30859 -0.27105,-0.0571 0.0749,-0.55687 0.13672,-0.63281 0.0683,-0.0842 0.15964,-0.15867 0.24024,-0.25586 0.0781,-0.0941 0.12975,-0.2212 0.20508,-0.27343 0.0825,-0.0571 0.31812,-0.12463 0.46093,-0.11915 z m 2.02344,0.61523 c 0.0868,0.002 0.16361,0.0156 0.19922,0.0508 -0.0557,0.22574 -0.54092,0.16555 -0.71875,0.084 0.0116,-0.0851 0.14394,-0.10791 0.25586,-0.11914 0.0787,-0.003 0.17699,-0.0181 0.26367,-0.0156 z m -1.10742,0.41602 c 0.0577,-0.002 0.11702,0.0112 0.17773,0.0273 -0.15732,0.13158 -0.3275,0.20554 -0.59765,0.29102 -0.1299,0.0411 -0.35495,0.0924 -0.37696,-0.0527 -0.0269,-0.1778 0.18998,-0.13643 0.3086,-0.15234 0.14932,-0.0206 0.31334,-0.10768 0.48828,-0.11328 z m 17.16992,0.2539 c 0.0129,0.12845 0.0151,0.25039 -0.0195,0.38867 -0.0465,0.18518 -0.21323,0.35313 -0.20508,0.51368 0.0108,0.0825 0.10092,0.16185 0.1211,0.27343 0.0108,0.0592 -0.0277,0.1863 0,0.24024 0.0868,0.16832 0.32394,0.0257 0.47851,0.0508 0.15101,0.0243 0.32591,0.24092 0.32422,0.41015 -0.002,0.11785 -0.11284,0.31419 -0.1875,0.42774 -0.14901,0.22659 -0.35079,0.23656 -0.56445,0.35742 -0.17819,0.10101 -0.25492,0.26959 -0.35938,0.44531 -0.11318,0.18978 -0.18334,0.30512 -0.13672,0.58008 -0.15275,0.30298 -0.38475,0.48868 -0.70117,0.63281 -0.0936,0.0423 -0.22077,0.057 -0.30664,0.11914 -0.0683,0.0492 -0.10793,0.18185 -0.20508,0.29102 -0.11988,0.13341 -0.24556,0.18909 -0.30859,0.29102 -0.0487,0.0787 -0.0653,0.23607 -0.11914,0.34179 -0.073,0.14355 -0.2284,0.21391 -0.32422,0.35938 -0.0437,0.0673 -0.0728,0.20295 -0.12109,0.29101 -0.10827,0.19679 -0.29332,0.33866 -0.27344,0.51172 0.0198,0.16729 0.20971,0.19598 0.22266,0.3418 0.003,0.0824 -0.0542,0.13283 -0.0508,0.22266 0.003,0.13116 0.0912,0.22327 0.10156,0.32421 0.0255,0.2538 -0.087,0.35578 -0.13477,0.5293 -0.0227,0.0829 -0.0132,0.17547 -0.0352,0.24024 -0.0418,0.12702 -0.21915,0.24236 -0.22265,0.39257 -0.002,0.10672 0.11013,0.19199 0.11914,0.3418 0.003,0.10328 -0.0514,0.21364 -0.0332,0.30859 0.0363,0.18601 0.3691,0.40235 0.51367,0.54688 0.19338,0.19337 0.44598,0.34314 0.5293,0.54687 0.0703,0.17305 0.0703,0.39892 0.20508,0.5293 0.0997,0.0963 0.26484,0.1557 0.39257,0.25586 0.11912,0.0935 0.24962,0.17424 0.37696,0.27344 0.20807,0.16275 0.52203,0.48789 0.85351,0.46289 0.17306,-0.0127 0.35054,-0.15457 0.54688,-0.18945 0.202,-0.0361 0.4642,-0.0542 0.66797,-0.0332 0.15609,0.0156 0.31625,0.10901 0.47851,0.10156 0.17132,-0.0108 0.36782,-0.13763 0.5625,-0.22266 0.30763,-0.13388 0.75501,-0.30024 1.20508,-0.27539 0.0861,-0.63034 0.14648,-1.2691 0.14648,-1.92383 0,-2.6491 -0.74147,-5.11293 -2.00977,-7.2207 -0.0589,-0.004 -0.11306,-0.0121 -0.17773,-0.01 -0.17344,0.0108 -0.45836,0.0108 -0.46094,-0.20508 -0.002,-0.17731 0.16726,-0.21647 0.36914,-0.22852 -0.37762,-0.57781 -0.80114,-1.1209 -1.25781,-1.63476 z m -21.36914,6.41406 c -0.28395,0.0156 -0.46943,0.0286 -0.63086,0.10157 -0.36987,0.16833 -0.29844,0.66886 -0.66797,0.78711 -0.12781,0.0409 -0.30265,0.0424 -0.44336,0.0684 -0.12141,0.0221 -0.26939,0.0885 -0.39453,0.0859 -0.14806,-0.003 -0.40609,-0.14565 -0.49414,-0.24024 -0.0606,-0.0656 -0.15981,-0.29493 -0.22461,-0.44726 -0.0892,0.4921 -0.15079,0.99302 -0.1875,1.50195 0.0303,0.006 0.0624,0.0137 0.0879,0.0137 0.16186,9.7e-4 0.335,-0.16698 0.51367,-0.17188 0.41908,-0.0116 0.60104,0.53329 0.93946,0.70118 0.0851,0.0423 0.19705,0.0441 0.30664,0.0684 0.0885,0.0198 0.155,0.057 0.24023,0.0859 0.18077,0.0613 0.40227,0.0547 0.54688,0.11914 0.21791,0.0967 0.37707,0.50561 0.56445,0.61523 0.0108,0.11048 -0.0204,0.25943 0.0176,0.3418 0.0885,0.12003 0.21353,0.0936 0.35937,0.17187 0.17446,0.0941 0.22723,0.3359 0.39258,0.41016 0.057,0.0254 0.20085,0.0231 0.29102,0.0508 0.22657,0.0686 0.29994,0.33076 0.49414,0.27344 0.12738,-0.0375 0.11803,-0.16926 0.13867,-0.29102 0.0842,-0.0913 0.1754,-0.2357 0.30664,-0.23828 0.21237,-0.0108 0.23131,0.21951 0.30859,0.42578 0.0436,0.11656 0.15772,0.21882 0.1875,0.3418 0.0529,0.21238 0.0272,0.84762 -0.0176,0.97461 -0.0535,0.15573 -0.26453,0.22185 -0.39454,0.39453 -0.0613,0.0809 -0.0905,0.19895 -0.13671,0.25586 -0.0837,0.10188 -0.20888,0.12861 -0.27149,0.22265 -0.0354,0.0529 -0.0691,0.16669 -0.10351,0.23829 -0.10263,0.21749 -0.24064,0.37169 -0.1543,0.63281 0.0361,0.10748 0.20466,0.18016 0.20508,0.30664 4.4e-4,0.14885 -0.31726,0.28215 -0.3418,0.44531 -0.0181,0.12141 0.0982,0.3381 0.13672,0.49609 0.0283,0.11938 0.25386,0.194 0.32422,0.27344 0.12001,0.13468 0.21654,0.32495 0.32617,0.49414 0.21672,0.33278 0.38665,0.73814 0.59766,1.06055 0.11152,0.16886 0.26749,0.32081 0.34179,0.49609 0.038,0.0885 0.0334,0.19396 0.0684,0.27344 0.12216,0.27573 0.66107,0.56432 0.93946,0.70117 0.13033,0.0634 0.27497,0.0861 0.39453,0.15235 0.18117,0.10101 0.53939,0.3724 0.63086,0.53125 0.0815,0.14278 0.13226,0.48972 0.17187,0.71679 0.0529,0.30003 0.003,0.53052 0.0176,0.85547 0.0108,0.17575 0.0665,0.35316 0.0684,0.5293 9.3e-4,0.0617 -0.0325,0.10697 -0.0352,0.16992 -0.003,0.21323 0.0534,0.45343 0.0352,0.66797 -10e-4,0.046 -0.006,0.0806 -0.0137,0.12109 1.67757,0.70807 3.52365,1.09961 5.46484,1.09961 0.20315,0 0.40057,-0.0228 0.60156,-0.0312 0.005,-0.0319 0.009,-0.0639 0.0156,-0.0898 0.0619,-0.17342 0.22148,-0.23118 0.32422,-0.35938 0.078,-0.0967 0.11364,-0.20997 0.1875,-0.30664 0.0803,-0.10532 0.15216,-0.19826 0.20508,-0.29101 0.0505,-0.31208 -0.12435,-0.52954 -0.0508,-0.80274 0.0817,-0.30688 0.50534,-0.49435 0.80273,-0.63281 0.1023,-0.0475 0.2077,-0.12538 0.29102,-0.1543 0.20581,-0.0717 0.4622,-0.0329 0.65039,-0.10156 0.32025,-0.11721 0.35378,-0.46017 0.51172,-0.75195 0.0745,-0.13818 0.1729,-0.27658 0.1875,-0.375 0.0127,-0.0885 -0.0319,-0.17108 -0.0176,-0.27539 0.0156,-0.10328 0.10808,-0.1932 0.13672,-0.30664 0.0375,-0.14807 0.0527,-0.36437 0.0527,-0.5293 0,-0.13537 -0.0627,-0.25484 -0.0684,-0.37695 -0.0221,-0.44337 0.16017,-0.49309 0.32421,-0.73438 0.0823,-0.11988 0.11247,-0.25589 0.16993,-0.34179 0.27538,-0.41087 0.75331,-0.60938 0.71875,-1.23047 -0.0116,-0.20553 -0.13984,-0.67072 -0.29102,-0.73633 -0.0865,-0.0376 -0.28502,-0.003 -0.41016,-0.0508 -0.404,-0.15071 -0.64192,-0.6516 -1.06054,-0.68359 -0.0894,-0.0108 -0.17088,0.0368 -0.27149,0.0352 -0.16571,-0.0108 -0.41616,-0.11608 -0.59961,-0.13672 -0.11656,-0.0127 -0.27181,0.0346 -0.34179,0 -0.10673,-0.0519 -0.11826,-0.24799 -0.20508,-0.30664 -0.0689,-0.0473 -0.20223,-0.0631 -0.30664,-0.10352 -0.16833,-0.0648 -0.30187,-0.14076 -0.4961,-0.1543 -0.0599,-0.003 -0.13528,0.0286 -0.20507,0.0176 -0.10748,-0.0181 -0.19186,-0.14471 -0.29102,-0.20508 -0.12421,-0.0756 -0.23966,-0.11286 -0.29101,-0.22071 0.11224,-0.36816 -0.19797,-0.47088 -0.27344,-0.6836 -0.0361,-0.0997 -0.0192,-0.21969 -0.0508,-0.3086 -0.0445,-0.12739 -0.17054,-0.20039 -0.30859,-0.30664 -0.24736,-0.19038 -0.46683,-0.3685 -0.82032,-0.41211 -0.1554,-0.0198 -0.30835,0.0467 -0.49609,0.0352 -0.19897,-0.0127 -0.44882,-0.18732 -0.59766,-0.35742 -0.14468,-0.16606 -0.21575,-0.31513 -0.34179,-0.39453 -0.11939,-0.0767 -0.27784,-0.0747 -0.35938,-0.15234 -0.0363,-0.0339 -0.0296,-0.092 -0.0684,-0.17188 -0.06,-0.12434 -0.1607,-0.19283 -0.0859,-0.3418 -0.13621,-0.07 -0.14001,0.12937 -0.28906,0.10352 -0.13285,-0.18858 -0.24517,-0.27796 -0.54688,-0.22266 -0.13817,0.0255 -0.21595,0.20074 -0.37695,0.20508 -0.13202,0.0108 -0.23578,-0.1471 -0.41016,-0.17187 -0.13159,-0.0181 -0.28132,0.0355 -0.375,0.0176 -0.14589,-0.0291 -0.19094,-0.15064 -0.32421,-0.23828 -0.0977,-0.0642 -0.28699,-0.17362 -0.3418,-0.17188 -0.17182,0.0108 -0.29431,0.3658 -0.53125,0.24024 -0.11515,-0.14591 0.18744,-0.22287 0.0508,-0.35938 -0.1036,-0.1036 -0.1906,0.0464 -0.27344,0.10352 -0.0949,0.0655 -0.18417,0.13111 -0.28906,0.16992 -0.2348,0.0879 -0.38095,0.0418 -0.56445,0.13672 -0.16991,0.088 -0.17717,0.2353 -0.27344,0.41015 -0.0787,0.14325 -0.25868,0.35074 -0.37695,0.35938 -0.14325,0.0108 -0.28022,-0.19967 -0.41016,-0.25586 -0.39145,-0.16956 -0.5812,0.14995 -0.90625,0.1543 -0.30168,0.0108 -0.73195,-0.48592 -0.7168,-0.76954 0.003,-0.17306 0.0989,-0.4363 0.11914,-0.65039 0.0181,-0.17026 0.13476,-0.27231 0.13672,-0.42773 0.003,-0.20762 -0.27546,-0.36796 -0.41015,-0.39258 -0.31936,-0.0587 -0.7629,0.1289 -1.12891,-0.0176 -0.07,-0.11584 0.0819,-0.19591 0.12109,-0.30859 0.0221,-0.064 0.0103,-0.15026 0.0332,-0.22071 0.0406,-0.10886 0.15404,-0.19325 0.20508,-0.30859 0.0382,-0.088 0.0475,-0.21501 0.0859,-0.32422 0.0445,-0.12434 0.1271,-0.2038 0.13672,-0.29101 0.0127,-0.11514 -0.0309,-0.24829 -0.12109,-0.32422 z m 4.57031,3.61914 c 0.11585,0.0108 0.13019,0.25029 0.0117,0.26954 -0.12781,0.0199 -0.19223,-0.20047 -0.0684,-0.25782 0.0207,-0.0108 0.04,-0.0128 0.0566,-0.0117 z"
       id="path34" />
    <path
       style="fill:url(#linearGradient4449);fill-rule:evenodd;stroke:none;stroke-width:1px;stroke-linecap:butt;stroke-linejoin:miter;stroke-opacity:1;fill-opacity:1;opacity:0.2"
       d="M 15 9 L 14 10 L 13 11 L 13 14 L 13 15 L 12 16 L 13 17 L 13 22 L 20.318359 29.318359 C 23.851665 28.18008 26.75588 25.681812 28.433594 22.433594 L 15 9 z M 17 9 L 17 10 L 28.757812 21.757812 C 28.972593 21.280581 29.168908 20.793278 29.330078 20.289062 L 19.199219 10 L 17 9 z "
       transform="translate(384.57143,515.798)"
       id="path4431" />
    <path
       inkscape:connector-curvature="0"
       style="font-style:normal;font-variant:normal;font-weight:normal;font-stretch:normal;font-size:medium;line-height:125%;font-family:oxygen;-inkscape-font-specification:oxygen;letter-spacing:0px;word-spacing:0px;fill:url(#linearGradient4414);fill-opacity:1;stroke:none;stroke-width:1px;stroke-linecap:butt;stroke-linejoin:miter;stroke-opacity:1"
       d="m 399.61635,524.798 c -1.77683,0 -2.52148,0.70642 -2.52148,2.50967 l 0,1.44162 c 0,1.11377 -0.0342,2.4042 -1.01563,2.4042 l -0.50781,0 0,1.28902 0.50781,0 c 0.98148,0 1.01563,1.29043 1.01563,2.4042 l 0,1.44162 c 0,1.80325 0.74465,2.50967 2.52148,2.50967 l 0,-1.18354 c -1.18455,0 -1.20117,-0.47832 -1.20117,-2.21086 l 0,-1.01586 c 0,-0.8309 -0.2047,-2.06729 -1.20312,-2.57997 0.99842,-0.51269 1.20312,-1.75103 1.20312,-2.58194 l 0,-1.03342 c 0,-1.73253 0.0166,-2.21086 1.20117,-2.21086 z m 1.89453,0 0,1.18354 c 1.18456,0 1.2168,0.47833 1.2168,2.21087 l 0,1.03342 c 0,0.83091 0.2047,2.06925 1.20313,2.58194 -0.99843,0.51268 -1.20313,1.74907 -1.20313,2.57997 l 0,1.01585 c 0,1.73254 -0.0322,2.21087 -1.2168,2.21087 l 0,1.18354 c 1.77684,0 2.53711,-0.70643 2.53711,-2.50968 l 0,-1.44161 c 0,-1.11377 0.0686,-2.4042 1.03321,-2.4042 l 0.49023,0 0,-1.28902 -0.49023,0 c -0.96457,0 -1.03321,-1.29043 -1.03321,-2.4042 l 0,-1.44162 c 0,-1.80325 -0.76027,-2.50967 -2.53711,-2.50967 z"
       id="path4121"
       sodipodi:nodetypes="csssccsssccsscssccccsscssccsssccsssc" />
  </g>
</svg>
