<?xml version="1.0" encoding="UTF-8" standalone="no"?>
<!-- Created with Inkscape (http://www.inkscape.org/) -->

<svg
   xmlns:dc="http://purl.org/dc/elements/1.1/"
   xmlns:cc="http://creativecommons.org/ns#"
   xmlns:rdf="http://www.w3.org/1999/02/22-rdf-syntax-ns#"
   xmlns:svg="http://www.w3.org/2000/svg"
   xmlns="http://www.w3.org/2000/svg"
   xmlns:xlink="http://www.w3.org/1999/xlink"
   xmlns:sodipodi="http://sodipodi.sourceforge.net/DTD/sodipodi-0.dtd"
   xmlns:inkscape="http://www.inkscape.org/namespaces/inkscape"
   width="32"
   height="32"
   id="svg5453"
   version="1.1"
   inkscape:version="0.91+devel r"
   sodipodi:docname="preferences-desktop-user.svg">
  <defs
     id="defs5455">
    <linearGradient
       inkscape:collect="always"
       id="linearGradient4143">
      <stop
         style="stop-color:#197cf1;stop-opacity:1"
         offset="0"
         id="stop4145" />
      <stop
         style="stop-color:#20bcfa;stop-opacity:1"
         offset="1"
         id="stop4147" />
    </linearGradient>
    <linearGradient
       inkscape:collect="always"
       xlink:href="#linearGradient4143"
       id="linearGradient4149"
       x1="400.57144"
       y1="545.79797"
       x2="400.57144"
       y2="517.79797"
       gradientUnits="userSpaceOnUse" />
    <linearGradient
       id="linearGradient4290"
       inkscape:collect="always">
      <stop
         id="stop4292"
         offset="0"
         style="stop-color:#7cbaf8;stop-opacity:1" />
      <stop
         id="stop4294"
         offset="1"
         style="stop-color:#f4fcff;stop-opacity:1" />
    </linearGradient>
    <linearGradient
       inkscape:collect="always"
       xlink:href="#linearGradient4290"
       id="linearGradient4321"
       x1="16.000011"
       y1="23"
       x2="16.000011"
       y2="9"
       gradientUnits="userSpaceOnUse" />
    <linearGradient
       inkscape:collect="always"
       id="linearGradient4410">
      <stop
         style="stop-color:#383e51;stop-opacity:1"
         offset="0"
         id="stop4412" />
      <stop
         style="stop-color:#655c6f;stop-opacity:0"
         offset="1"
         id="stop4414" />
    </linearGradient>
    <linearGradient
       inkscape:collect="always"
       xlink:href="#linearGradient4410"
       id="linearGradient4490"
       x1="393.57144"
       y1="524.79797"
       x2="407.57144"
       y2="538.79797"
       gradientUnits="userSpaceOnUse"
       gradientTransform="translate(-384.57143,-515.798)" />
  </defs>
  <sodipodi:namedview
     id="base"
     pagecolor="#ffffff"
     bordercolor="#666666"
     borderopacity="1.0"
     inkscape:pageopacity="0"
     inkscape:pageshadow="2"
     inkscape:zoom="15.999999"
     inkscape:cx="3.9478295"
     inkscape:cy="15.890625"
     inkscape:document-units="px"
     inkscape:current-layer="layer1"
     showgrid="true"
     fit-margin-top="0"
     fit-margin-left="0"
     fit-margin-right="0"
     fit-margin-bottom="0"
     inkscape:window-width="1366"
     inkscape:window-height="670"
     inkscape:window-x="-4"
     inkscape:window-y="29"
     inkscape:window-maximized="1"
     inkscape:showpageshadow="false"
     borderlayer="true"
     showguides="true">
    <inkscape:grid
       type="xygrid"
       id="grid4063" />
    <sodipodi:guide
       position="1.1650391e-05,32.000026"
       orientation="32,0"
       id="guide4157" />
    <sodipodi:guide
       position="1.1650391e-05,2.6367188e-05"
       orientation="0,32"
       id="guide4159" />
    <sodipodi:guide
       position="32.000012,2.6367188e-05"
       orientation="-32,0"
       id="guide4161" />
    <sodipodi:guide
       position="32.000012,32.000026"
       orientation="0,-32"
       id="guide4163" />
    <sodipodi:guide
       position="2.0000117,30.000026"
       orientation="28,0"
       id="guide4167" />
    <sodipodi:guide
       position="2.0000117,2.0000264"
       orientation="0,28"
       id="guide4169" />
    <sodipodi:guide
       position="30.000012,2.0000264"
       orientation="-28,0"
       id="guide4171" />
    <sodipodi:guide
       position="30.000012,30.000026"
       orientation="0,-28"
       id="guide4173" />
    <sodipodi:guide
       position="2.0000117,30.000026"
       orientation="28,0"
       id="guide4181" />
    <sodipodi:guide
       position="2.0000117,2.0000264"
       orientation="0,14"
       id="guide4183" />
    <sodipodi:guide
       position="16.000012,2.0000264"
       orientation="-28,0"
       id="guide4185" />
    <sodipodi:guide
       position="16.000012,30.000026"
       orientation="0,-14"
       id="guide4187" />
    <sodipodi:guide
       position="9.0000117,23.000026"
       orientation="14,0"
       id="guide4193" />
    <sodipodi:guide
       position="9.0000117,9.0000264"
       orientation="0,14.000031"
       id="guide4195" />
    <sodipodi:guide
       position="23.000042,9.0000264"
       orientation="-14,0"
       id="guide4197" />
    <sodipodi:guide
       position="23.000042,23.000026"
       orientation="0,-14.000031"
       id="guide4199" />
  </sodipodi:namedview>
  <metadata
     id="metadata5458">
    <rdf:RDF>
      <cc:Work
         rdf:about="">
        <dc:format>image/svg+xml</dc:format>
        <dc:type
           rdf:resource="http://purl.org/dc/dcmitype/StillImage" />
        <dc:title />
      </cc:Work>
    </rdf:RDF>
  </metadata>
  <g
     inkscape:label="Capa 1"
     inkscape:groupmode="layer"
     id="layer1"
     transform="translate(-384.57143,-515.798)">
    <rect
       style="opacity:1;fill:url(#linearGradient4149);fill-opacity:1;stroke:none"
       id="rect4130"
       width="28.000011"
       height="28.000027"
       x="386.57144"
       y="517.79797"
       ry="14.000006" />
    <path
       style="opacity:0.2;fill:url(#linearGradient4490);fill-opacity:1;fill-rule:evenodd;stroke:none;stroke-width:1px;stroke-linecap:butt;stroke-linejoin:miter;stroke-opacity:1"
       d="M 16 9 C 16.217921 9 16.429167 9.022432 16.634766 9.0625 C 16.636066 9.0627294 16.637372 9.0622693 16.638672 9.0625 C 16.843748 9.100132 17.039764 9.160913 17.230469 9.2324219 L 17 9 L 16 9 z M 16 10 C 14.788113 10 13.783132 10.852874 13.550781 11.994141 C 13.517588 12.157179 13.5 12.326873 13.5 12.5 C 13.5 13.885014 14.614986 15 16 15 C 16.58713 15 17.119212 14.791446 17.544922 14.455078 L 16 16 L 14.886719 17.113281 C 14.567385 17.174585 14.254834 17.255063 13.955078 17.363281 C 13.955078 17.363281 13.953125 17.363281 13.953125 17.363281 C 13.731312 17.459031 13.506939 17.551671 13.287109 17.650391 C 13.218909 17.681021 13.15514 17.71795 13.087891 17.75 C 12.518795 18.065139 12.011948 18.473321 11.576172 18.949219 C 11.576172 18.949219 11.574219 18.951172 11.574219 18.951172 C 11.330823 19.217217 11.111021 19.505918 10.917969 19.8125 C 10.823989 19.961745 10.737081 20.115692 10.65625 20.273438 C 10.64645 20.292617 10.638526 20.312741 10.628906 20.332031 C 10.559456 20.471267 10.494234 20.612628 10.435547 20.757812 C 10.415007 20.809002 10.398066 20.862181 10.378906 20.914062 C 10.333286 21.036697 10.287676 21.158823 10.25 21.285156 C 10.23363 21.340436 10.221841 21.397179 10.207031 21.453125 C 10.172941 21.580916 10.138981 21.708762 10.113281 21.839844 C 10.109793 21.857783 10.108484 21.876428 10.105469 21.894531 L 9 23 L 16 30 L 30 30 L 30 20 L 29 21 L 20 12 L 19.267578 11.269531 C 19.339088 11.460236 19.399868 11.656252 19.4375 11.861328 C 19.437744 11.862528 19.437258 11.864034 19.4375 11.865234 C 19.47514 12.071631 19.5 12.282418 19.5 12.5 L 17.955078 14.044922 C 18.291446 13.619212 18.5 13.08713 18.5 12.5 C 18.5 11.114986 17.385014 10 16 10 z "
       transform="translate(384.57143,515.798)"
       id="path4415" />
    <path
       style="opacity:1;fill:url(#linearGradient4321);fill-opacity:1;stroke:none"
       d="m 16,9 c -1.939013,0 -3.5,1.560987 -3.5,3.5 0,1.939013 1.560987,3.5 3.5,3.5 1.939013,0 3.5,-1.560987 3.5,-3.5 C 19.5,10.560987 17.939013,9 16,9 Z m 0,7 c -3.87801,0 -7,3.12199 -7,7 l 1,0 9,0 0,-1 -8.910156,0 C 10.564039,19.15622 13.017526,17 16,17 c 1.146303,0 2.199057,0.339278 3.105469,0.894531 l 0.74414,-0.74414 C 18.746427,16.424444 17.424999,16 16,16 Z m 0,-6 c 1.385014,0 2.5,1.114986 2.5,2.5 0,1.385014 -1.114986,2.5 -2.5,2.5 -1.385014,0 -2.5,-1.114986 -2.5,-2.5 0,-1.385014 1.114986,-2.5 2.5,-2.5 z m 6,6 c -0.554,0 -1,0.446 -1,1 0,0.554 0.446,1 1,1 0.554,0 1,-0.446 1,-1 0,-0.554 -0.446,-1 -1,-1 z m -1,3 0,4 2,0 0,-4 z"
       transform="translate(384.57143,515.798)"
       id="rect4168"
       inkscape:connector-curvature="0"
       sodipodi:nodetypes="sssssscccccsccsssssssssssccccc" />
  </g>
</svg>
