<?xml version="1.0" encoding="UTF-8" standalone="no"?>
<!-- Created with Inkscape (http://www.inkscape.org/) -->

<svg
   xmlns:dc="http://purl.org/dc/elements/1.1/"
   xmlns:cc="http://creativecommons.org/ns#"
   xmlns:rdf="http://www.w3.org/1999/02/22-rdf-syntax-ns#"
   xmlns:svg="http://www.w3.org/2000/svg"
   xmlns="http://www.w3.org/2000/svg"
   xmlns:xlink="http://www.w3.org/1999/xlink"
   xmlns:sodipodi="http://sodipodi.sourceforge.net/DTD/sodipodi-0.dtd"
   xmlns:inkscape="http://www.inkscape.org/namespaces/inkscape"
   width="32"
   height="32"
   id="svg5453"
   version="1.1"
   inkscape:version="0.91+devel r"
   sodipodi:docname="preferences-system-network-sharing.svg"
   inkscape:export-filename="/home/uri/Iconos de KDE/Novo/apps/preferences/preferences-system-network-sharing.png"
   inkscape:export-xdpi="90"
   inkscape:export-ydpi="90">
  <defs
     id="defs5455">
    <linearGradient
       inkscape:collect="always"
       xlink:href="#linearGradient4303"
       id="linearGradient4238"
       x1="400.57144"
       y1="545.79797"
       x2="400.57144"
       y2="517.79797"
       gradientUnits="userSpaceOnUse"
       gradientTransform="translate(-5.9283447e-6,0)" />
    <linearGradient
       inkscape:collect="always"
       xlink:href="#linearGradient4159"
       id="linearGradient4370"
       x1="16"
       y1="30"
       x2="16"
       y2="1.999974"
       gradientUnits="userSpaceOnUse" />
    <linearGradient
       inkscape:collect="always"
       xlink:href="#linearGradient4159"
       id="linearGradient4434"
       x1="16"
       y1="20"
       x2="16"
       y2="12"
       gradientUnits="userSpaceOnUse" />
    <linearGradient
       id="linearGradient4227"
       inkscape:collect="always">
      <stop
         id="stop4229"
         offset="0"
         style="stop-color:#292c2f;stop-opacity:1" />
      <stop
         id="stop4231"
         offset="1"
         style="stop-color:#000000;stop-opacity:0;" />
    </linearGradient>
    <linearGradient
       inkscape:collect="always"
       xlink:href="#linearGradient4227"
       id="linearGradient4155"
       x1="393.57144"
       y1="524.79797"
       x2="407.57144"
       y2="538.79797"
       gradientUnits="userSpaceOnUse"
       gradientTransform="translate(-384.57143,-515.798)" />
    <linearGradient
       id="linearGradient4303"
       inkscape:collect="always">
      <stop
         id="stop4305"
         offset="0"
         style="stop-color:#c6cdd1;stop-opacity:1" />
      <stop
         id="stop4307"
         offset="1"
         style="stop-color:#e0e5e7;stop-opacity:1" />
    </linearGradient>
    <linearGradient
       inkscape:collect="always"
       id="linearGradient4159">
      <stop
         style="stop-color:#2a2c2f;stop-opacity:1"
         offset="0"
         id="stop4161" />
      <stop
         style="stop-color:#424649;stop-opacity:1"
         offset="1"
         id="stop4163" />
    </linearGradient>
  </defs>
  <sodipodi:namedview
     id="base"
     pagecolor="#ffffff"
     bordercolor="#666666"
     borderopacity="1.0"
     inkscape:pageopacity="0"
     inkscape:pageshadow="2"
     inkscape:zoom="15.999999"
     inkscape:cx="14.53251"
     inkscape:cy="17.780469"
     inkscape:document-units="px"
     inkscape:current-layer="layer1"
     showgrid="true"
     fit-margin-top="0"
     fit-margin-left="0"
     fit-margin-right="0"
     fit-margin-bottom="0"
     inkscape:window-width="1366"
     inkscape:window-height="670"
     inkscape:window-x="-4"
     inkscape:window-y="29"
     inkscape:window-maximized="1"
     inkscape:showpageshadow="false"
     borderlayer="true"
     showguides="true">
    <inkscape:grid
       type="xygrid"
       id="grid4063" />
    <sodipodi:guide
       position="1.1650391e-05,2.6367188e-05"
       orientation="0,32"
       id="guide4159" />
    <sodipodi:guide
       position="32,24"
       orientation="-32,0"
       id="guide4161" />
    <sodipodi:guide
       position="32.000012,32.000026"
       orientation="0,-32"
       id="guide4163" />
    <sodipodi:guide
       position="2.0000117,2.0000264"
       orientation="0,1"
       id="guide4169" />
    <sodipodi:guide
       position="30.000012,30.000026"
       orientation="0,-28"
       id="guide4173" />
    <sodipodi:guide
       position="2.0000117,30.000026"
       orientation="28,0"
       id="guide4181" />
    <sodipodi:guide
       position="2.0000117,2.0000264"
       orientation="0,14"
       id="guide4183" />
    <sodipodi:guide
       position="16.000012,30.000026"
       orientation="0,-14"
       id="guide4187" />
    <sodipodi:guide
       position="9.0000117,23.000026"
       orientation="14,0"
       id="guide4193" />
    <sodipodi:guide
       position="9.0000117,9.0000264"
       orientation="0,14.000031"
       id="guide4195" />
    <sodipodi:guide
       position="23.000042,9.0000264"
       orientation="-14,0"
       id="guide4197" />
    <sodipodi:guide
       position="23.000042,23.000026"
       orientation="0,-14.000031"
       id="guide4199" />
    <sodipodi:guide
       position="9.0000117,18.000026"
       orientation="4,0"
       id="guide4534" />
    <sodipodi:guide
       position="9.0000117,14.000026"
       orientation="0,4"
       id="guide4536" />
    <sodipodi:guide
       position="13.000012,14.000026"
       orientation="-4,0"
       id="guide4538" />
    <sodipodi:guide
       position="13.000012,18.000026"
       orientation="0,-4"
       id="guide4540" />
    <sodipodi:guide
       position="18.000012,23.000026"
       orientation="4,0"
       id="guide4546" />
    <sodipodi:guide
       position="18.000012,19.000026"
       orientation="0,4.0000305"
       id="guide4548" />
    <sodipodi:guide
       position="22.000042,19.000026"
       orientation="-4,0"
       id="guide4550" />
    <sodipodi:guide
       position="22.000042,23.000026"
       orientation="0,-4.0000305"
       id="guide4552" />
  </sodipodi:namedview>
  <metadata
     id="metadata5458">
    <rdf:RDF>
      <cc:Work
         rdf:about="">
        <dc:format>image/svg+xml</dc:format>
        <dc:type
           rdf:resource="http://purl.org/dc/dcmitype/StillImage" />
        <dc:title />
      </cc:Work>
    </rdf:RDF>
  </metadata>
  <g
     inkscape:label="Capa 1"
     inkscape:groupmode="layer"
     id="layer1"
     transform="translate(-384.57143,-515.798)">
    <rect
       style="opacity:1;fill:url(#linearGradient4238);fill-opacity:1.0;stroke:none"
       id="rect4175"
       width="27.999989"
       height="28"
       x="386.57144"
       y="517.79797"
       ry="13.999994"
       rx="13.999994" />
    <path
       style="fill:url(#linearGradient4155);fill-rule:evenodd;stroke:none;stroke-width:1px;stroke-linecap:butt;stroke-linejoin:miter;stroke-opacity:1;fill-opacity:1;opacity:0.2"
       d="M 21.234375 9.3261719 L 18.769531 12.580078 L 28.496094 22.306641 C 29.173042 20.96273 29.637231 19.49552 29.851562 17.943359 L 21.234375 9.3261719 z M 16.800781 12.099609 L 16.199219 12.900391 L 28.300781 25 L 29 25 L 29.699219 25 L 16.800781 12.099609 z M 14.800781 13.099609 L 14.199219 13.900391 L 20.310547 20.011719 L 19.050781 21.273438 L 12.634766 14.855469 L 9.2617188 16.992188 L 21.248047 28.978516 C 23.074118 28.24304 24.704247 27.136576 26.050781 25.75 L 26.300781 26 L 27 26 L 27.699219 26 L 26.716797 25.017578 C 26.724215 25.008762 26.732838 25.001023 26.740234 24.992188 L 21.035156 19.287109 L 21.011719 19.310547 L 14.800781 13.099609 z "
       transform="translate(384.57143,515.798)"
       id="path4147" />
    <path
       style="opacity:1;fill:url(#linearGradient4370);fill-opacity:1;stroke:none"
       d="M 20 9 C 18.892 9 18 9.892 18 11 C 18 12.108 18.892 13 20 13 C 21.108 13 22 12.108 22 11 C 22 9.892 21.108 9 20 9 z M 11 14 C 9.892 14 9 14.892 9 16 C 9 17.108 9.892 18 11 18 C 12.108 18 13 17.108 13 16 C 13 14.892 12.108 14 11 14 z M 20 19 C 18.892 19 18 19.892 18 21 C 18 22.108 18.892 23 20 23 C 21.108 23 22 22.108 22 21 C 22 19.892 21.108 19 20 19 z "
       id="rect4176"
       transform="translate(384.57143,515.798)" />
    <path
       style="opacity:0.99999999;fill:url(#linearGradient4434);fill-opacity:1.0;stroke:none"
       d="M 16.5 12 C 16.223 12 16 12.223 16 12.5 C 16 12.777 16.223 13 16.5 13 C 16.777 13 17 12.777 17 12.5 C 17 12.223 16.777 12 16.5 12 z M 14.5 13 C 14.223 13 14 13.223 14 13.5 C 14 13.777 14.223 14 14.5 14 C 14.777 14 15 13.777 15 13.5 C 15 13.223 14.777 13 14.5 13 z M 14.5 18 C 14.223 18 14 18.223 14 18.5 C 14 18.777 14.223 19 14.5 19 C 14.777 19 15 18.777 15 18.5 C 15 18.223 14.777 18 14.5 18 z M 16.5 19 C 16.223 19 16 19.223 16 19.5 C 16 19.777 16.223 20 16.5 20 C 16.777 20 17 19.777 17 19.5 C 17 19.223 16.777 19 16.5 19 z "
       id="rect4186"
       transform="translate(384.57143,515.798)" />
  </g>
</svg>
