<?xml version="1.0" encoding="UTF-8" standalone="no"?>
<!-- Created with Inkscape (http://www.inkscape.org/) -->

<svg
   xmlns:dc="http://purl.org/dc/elements/1.1/"
   xmlns:cc="http://creativecommons.org/ns#"
   xmlns:rdf="http://www.w3.org/1999/02/22-rdf-syntax-ns#"
   xmlns:svg="http://www.w3.org/2000/svg"
   xmlns="http://www.w3.org/2000/svg"
   xmlns:xlink="http://www.w3.org/1999/xlink"
   xmlns:sodipodi="http://sodipodi.sourceforge.net/DTD/sodipodi-0.dtd"
   xmlns:inkscape="http://www.inkscape.org/namespaces/inkscape"
   width="48"
   height="48"
   id="svg5453"
   version="1.1"
   inkscape:version="0.91+devel r"
   sodipodi:docname="breeze-settings.svg">
  <defs
     id="defs5455">
    <linearGradient
       id="linearGradient4834"
       inkscape:collect="always">
      <stop
         id="stop4836"
         offset="0"
         style="stop-color:#89ad8b;stop-opacity:1" />
      <stop
         id="stop4838"
         offset="1"
         style="stop-color:#82b3c7;stop-opacity:1" />
    </linearGradient>
    <linearGradient
       id="linearGradient4818"
       inkscape:collect="always">
      <stop
         id="stop4820"
         offset="0"
         style="stop-color:#84d5d7;stop-opacity:1" />
      <stop
         id="stop4822"
         offset="1"
         style="stop-color:#84a8ba;stop-opacity:1" />
    </linearGradient>
    <linearGradient
       id="linearGradient4810"
       inkscape:collect="always">
      <stop
         id="stop4812"
         offset="0"
         style="stop-color:#7fbcc6;stop-opacity:1" />
      <stop
         id="stop4814"
         offset="1"
         style="stop-color:#8ee4e3;stop-opacity:1" />
    </linearGradient>
    <linearGradient
       id="linearGradient4802"
       inkscape:collect="always">
      <stop
         id="stop4804"
         offset="0"
         style="stop-color:#75d5c7;stop-opacity:1" />
      <stop
         id="stop4806"
         offset="1"
         style="stop-color:#66afb9;stop-opacity:1" />
    </linearGradient>
    <linearGradient
       id="linearGradient4794"
       inkscape:collect="always">
      <stop
         id="stop4796"
         offset="0"
         style="stop-color:#d1e6b7;stop-opacity:1" />
      <stop
         id="stop4798"
         offset="1"
         style="stop-color:#ade8e1;stop-opacity:1" />
    </linearGradient>
    <linearGradient
       id="linearGradient4786"
       inkscape:collect="always">
      <stop
         id="stop4788"
         offset="0"
         style="stop-color:#99c487;stop-opacity:1" />
      <stop
         id="stop4790"
         offset="1"
         style="stop-color:#b4d99e;stop-opacity:1" />
    </linearGradient>
    <linearGradient
       id="linearGradient4778"
       inkscape:collect="always">
      <stop
         id="stop4780"
         offset="0"
         style="stop-color:#e1b16f;stop-opacity:1" />
      <stop
         id="stop4782"
         offset="1"
         style="stop-color:#99bf83;stop-opacity:1" />
    </linearGradient>
    <linearGradient
       id="linearGradient4770"
       inkscape:collect="always">
      <stop
         id="stop4772"
         offset="0"
         style="stop-color:#5c7b9e;stop-opacity:1" />
      <stop
         id="stop4774"
         offset="1"
         style="stop-color:#839dc0;stop-opacity:1" />
    </linearGradient>
    <linearGradient
       id="linearGradient4754"
       inkscape:collect="always">
      <stop
         id="stop4756"
         offset="0"
         style="stop-color:#768fac;stop-opacity:1" />
      <stop
         id="stop4758"
         offset="1"
         style="stop-color:#9fabc4;stop-opacity:1" />
    </linearGradient>
    <linearGradient
       id="linearGradient4746"
       inkscape:collect="always">
      <stop
         id="stop4748"
         offset="0"
         style="stop-color:#91a2c6;stop-opacity:1" />
      <stop
         id="stop4750"
         offset="1"
         style="stop-color:#b9b2c5;stop-opacity:1" />
    </linearGradient>
    <linearGradient
       id="linearGradient4730"
       inkscape:collect="always">
      <stop
         id="stop4732"
         offset="0"
         style="stop-color:#7ea0c5;stop-opacity:1" />
      <stop
         id="stop4734"
         offset="1"
         style="stop-color:#a1b1cd;stop-opacity:1" />
    </linearGradient>
    <linearGradient
       id="linearGradient4722"
       inkscape:collect="always">
      <stop
         id="stop4724"
         offset="0"
         style="stop-color:#6588af;stop-opacity:1" />
      <stop
         id="stop4726"
         offset="1"
         style="stop-color:#8ba8cd;stop-opacity:1" />
    </linearGradient>
    <linearGradient
       id="linearGradient4699"
       inkscape:collect="always">
      <stop
         id="stop4701"
         offset="0"
         style="stop-color:#7c8f9d;stop-opacity:1" />
      <stop
         id="stop4703"
         offset="1"
         style="stop-color:#7690ac;stop-opacity:1" />
    </linearGradient>
    <linearGradient
       id="linearGradient4691"
       inkscape:collect="always">
      <stop
         id="stop4693"
         offset="0"
         style="stop-color:#748898;stop-opacity:1" />
      <stop
         id="stop4695"
         offset="1"
         style="stop-color:#e09c6d;stop-opacity:1" />
    </linearGradient>
    <linearGradient
       id="linearGradient4683"
       inkscape:collect="always">
      <stop
         id="stop4685"
         offset="0"
         style="stop-color:#c3a278;stop-opacity:1" />
      <stop
         id="stop4687"
         offset="1"
         style="stop-color:#6688aa;stop-opacity:1" />
    </linearGradient>
    <linearGradient
       id="linearGradient4675"
       inkscape:collect="always">
      <stop
         id="stop4677"
         offset="0"
         style="stop-color:#e4a56d;stop-opacity:1" />
      <stop
         id="stop4679"
         offset="1"
         style="stop-color:#a7bd78;stop-opacity:1" />
    </linearGradient>
    <linearGradient
       id="linearGradient4667"
       inkscape:collect="always">
      <stop
         id="stop4669"
         offset="0"
         style="stop-color:#f2a686;stop-opacity:1" />
      <stop
         id="stop4671"
         offset="1"
         style="stop-color:#f1a67c;stop-opacity:1" />
    </linearGradient>
    <linearGradient
       id="linearGradient4591"
       inkscape:collect="always">
      <stop
         id="stop4593"
         offset="0"
         style="stop-color:#7e8f9e;stop-opacity:1" />
      <stop
         id="stop4595"
         offset="1"
         style="stop-color:#84ced5;stop-opacity:1" />
    </linearGradient>
    <linearGradient
       gradientUnits="userSpaceOnUse"
       y2="489.798"
       x2="419.57144"
       y1="541.79797"
       x1="419.57144"
       id="linearGradient4597"
       xlink:href="#linearGradient4591"
       inkscape:collect="always"
       gradientTransform="translate(-392.57143,-491.798)" />
    <linearGradient
       gradientUnits="userSpaceOnUse"
       y2="540.79797"
       x2="402.57144"
       y1="540.79797"
       x1="387.57144"
       id="linearGradient4673"
       xlink:href="#linearGradient4667"
       inkscape:collect="always"
       gradientTransform="translate(-392.57143,-491.798)" />
    <linearGradient
       gradientUnits="userSpaceOnUse"
       y2="522.79797"
       x2="404.57144"
       y1="535.79797"
       x1="394.57144"
       id="linearGradient4681"
       xlink:href="#linearGradient4675"
       inkscape:collect="always"
       gradientTransform="translate(-392.57143,-491.798)" />
    <linearGradient
       gradientUnits="userSpaceOnUse"
       y2="532.79797"
       x2="421.57144"
       y1="532.79797"
       x1="404.57144"
       id="linearGradient4689"
       xlink:href="#linearGradient4683"
       inkscape:collect="always"
       gradientTransform="translate(-392.57143,-491.798)" />
    <linearGradient
       gradientUnits="userSpaceOnUse"
       y2="537.79797"
       x2="407.57144"
       y1="537.79797"
       x1="421.57144"
       id="linearGradient4697"
       xlink:href="#linearGradient4691"
       inkscape:collect="always"
       gradientTransform="translate(-392.57143,-491.798)" />
    <linearGradient
       gradientUnits="userSpaceOnUse"
       y2="536.79797"
       x2="436.57144"
       y1="536.79797"
       x1="421.57144"
       id="linearGradient4705"
       xlink:href="#linearGradient4699"
       inkscape:collect="always"
       gradientTransform="translate(-392.57143,-491.798)" />
    <linearGradient
       gradientUnits="userSpaceOnUse"
       y2="524.79797"
       x2="437.49963"
       y1="536.79797"
       x1="430.57144"
       id="linearGradient4728"
       xlink:href="#linearGradient4722"
       inkscape:collect="always"
       gradientTransform="translate(-392.57143,-491.798)" />
    <linearGradient
       gradientUnits="userSpaceOnUse"
       y2="529.79797"
       x2="445.57144"
       y1="529.79797"
       x1="438.57144"
       id="linearGradient4736"
       xlink:href="#linearGradient4730"
       inkscape:collect="always"
       gradientTransform="translate(-392.57143,-491.798)" />
    <linearGradient
       gradientUnits="userSpaceOnUse"
       y2="513.79797"
       x2="445.57144"
       y1="517.79797"
       x1="441.57144"
       id="linearGradient4752"
       xlink:href="#linearGradient4746"
       inkscape:collect="always"
       gradientTransform="translate(-392.57143,-491.798)" />
    <linearGradient
       gradientUnits="userSpaceOnUse"
       y2="502.798"
       x2="444.57144"
       y1="497.798"
       x1="438.57144"
       id="linearGradient4760"
       xlink:href="#linearGradient4754"
       inkscape:collect="always"
       gradientTransform="translate(-392.57143,-491.798)" />
    <linearGradient
       gradientUnits="userSpaceOnUse"
       y2="504.798"
       x2="438.57144"
       y1="495.798"
       x1="428.57144"
       id="linearGradient4776"
       xlink:href="#linearGradient4770"
       inkscape:collect="always"
       gradientTransform="translate(-392.57143,-491.798)" />
    <linearGradient
       gradientUnits="userSpaceOnUse"
       y2="513.79797"
       x2="401.57144"
       y1="525.79797"
       x1="387.57144"
       id="linearGradient4784"
       xlink:href="#linearGradient4778"
       inkscape:collect="always"
       gradientTransform="translate(-392.57143,-491.798)" />
    <linearGradient
       gradientUnits="userSpaceOnUse"
       y2="498.798"
       x2="391.57144"
       y1="510.798"
       x1="404.57144"
       id="linearGradient4792"
       xlink:href="#linearGradient4786"
       inkscape:collect="always"
       gradientTransform="translate(-392.57143,-491.798)" />
    <linearGradient
       gradientUnits="userSpaceOnUse"
       y2="492.798"
       x2="402.57144"
       y1="492.798"
       x1="387.57144"
       id="linearGradient4800"
       xlink:href="#linearGradient4794"
       inkscape:collect="always"
       gradientTransform="translate(-392.57143,-491.798)" />
    <linearGradient
       gradientUnits="userSpaceOnUse"
       y2="501.798"
       x2="421.57144"
       y1="501.798"
       x1="404.57144"
       id="linearGradient4808"
       xlink:href="#linearGradient4802"
       inkscape:collect="always"
       gradientTransform="translate(-392.57143,-491.798)" />
    <linearGradient
       gradientUnits="userSpaceOnUse"
       y2="492.798"
       x2="406.57144"
       y1="492.798"
       x1="421.57144"
       id="linearGradient4816"
       xlink:href="#linearGradient4810"
       inkscape:collect="always"
       gradientTransform="translate(-392.57143,-491.798)" />
    <linearGradient
       gradientUnits="userSpaceOnUse"
       y2="492.798"
       x2="436.57144"
       y1="492.798"
       x1="421.57144"
       id="linearGradient4824"
       xlink:href="#linearGradient4818"
       inkscape:collect="always"
       gradientTransform="translate(-392.57143,-491.798)" />
    <linearGradient
       gradientUnits="userSpaceOnUse"
       y2="514.79797"
       x2="438.57144"
       y1="514.79797"
       x1="421.57144"
       id="linearGradient4840"
       xlink:href="#linearGradient4834"
       inkscape:collect="always"
       gradientTransform="translate(-7.999995,8)" />
    <linearGradient
       id="linearGradient4410"
       inkscape:collect="always">
      <stop
         id="stop4412"
         offset="0"
         style="stop-color:#383e51;stop-opacity:1" />
      <stop
         id="stop4414"
         offset="1"
         style="stop-color:#655c6f;stop-opacity:0" />
    </linearGradient>
    <linearGradient
       gradientTransform="translate(392.57143,508.798)"
       inkscape:collect="always"
       xlink:href="#linearGradient4227"
       id="linearGradient4463"
       x1="16"
       y1="21.999729"
       x2="16"
       y2="8"
       gradientUnits="userSpaceOnUse" />
    <linearGradient
       inkscape:collect="always"
       xlink:href="#linearGradient4410"
       id="linearGradient4906"
       x1="15.999981"
       y1="15"
       x2="39.999981"
       y2="39"
       gradientUnits="userSpaceOnUse" />
    <linearGradient
       inkscape:collect="always"
       id="linearGradient4293">
      <stop
         style="stop-color:#000000;stop-opacity:1;"
         offset="0"
         id="stop4295" />
      <stop
         style="stop-color:#000000;stop-opacity:0;"
         offset="1"
         id="stop4297" />
    </linearGradient>
    <linearGradient
       inkscape:collect="always"
       id="linearGradient4303-6">
      <stop
         style="stop-color:#c6cdd1;stop-opacity:1"
         offset="0"
         id="stop4305-7" />
      <stop
         style="stop-color:#e0e5e7;stop-opacity:1"
         offset="1"
         id="stop4307-0" />
    </linearGradient>
    <linearGradient
       y2="502.65509"
       x2="409.57144"
       y1="543.79797"
       x1="409.57144"
       gradientTransform="matrix(0.66666726,0,0,0.63518419,136.19015,188.51871)"
       gradientUnits="userSpaceOnUse"
       id="linearGradient4643-8"
       xlink:href="#linearGradient4303-6"
       inkscape:collect="always" />
    <linearGradient
       gradientUnits="userSpaceOnUse"
       y2="540.79797"
       x2="406.57147"
       y1="525.79797"
       x1="391.57144"
       id="linearGradient4183"
       xlink:href="#linearGradient4293"
       inkscape:collect="always"
       gradientTransform="translate(8.0000036,-9.9999868)" />
    <linearGradient
       id="linearGradient4227">
      <stop
         id="stop4229"
         style="stop-color:#2e3436;stop-opacity:1"
         offset="0" />
      <stop
         id="stop4231"
         style="stop-color:#555753;stop-opacity:1"
         offset="1" />
    </linearGradient>
  </defs>
  <sodipodi:namedview
     id="base"
     pagecolor="#ffffff"
     bordercolor="#666666"
     borderopacity="1.0"
     inkscape:pageopacity="0"
     inkscape:pageshadow="2"
     inkscape:zoom="8"
     inkscape:cx="14.731615"
     inkscape:cy="18.174104"
     inkscape:document-units="px"
     inkscape:current-layer="layer1"
     showgrid="true"
     fit-margin-top="0"
     fit-margin-left="0"
     fit-margin-right="0"
     fit-margin-bottom="0"
     inkscape:window-width="1366"
     inkscape:window-height="670"
     inkscape:window-x="-4"
     inkscape:window-y="29"
     inkscape:window-maximized="1"
     inkscape:showpageshadow="false"
     borderlayer="true"
     showguides="true">
    <inkscape:grid
       type="xygrid"
       id="grid4063" />
    <sodipodi:guide
       position="1.1650391e-05,43.999996"
       orientation="0,48"
       id="guide4148" />
    <sodipodi:guide
       position="48.000012,43.999996"
       orientation="-4,0"
       id="guide4150" />
    <sodipodi:guide
       position="48.000012,47.999996"
       orientation="0,-48"
       id="guide4152" />
    <sodipodi:guide
       position="1.1650391e-05,4.0000264"
       orientation="4,0"
       id="guide4154" />
    <sodipodi:guide
       position="1.1650391e-05,2.6367188e-05"
       orientation="0,48"
       id="guide4156" />
    <sodipodi:guide
       position="48.000012,2.6367188e-05"
       orientation="-4,0"
       id="guide4158" />
    <sodipodi:guide
       position="48.000012,4.0000264"
       orientation="0,-48"
       id="guide4160" />
    <sodipodi:guide
       position="48.000012,48.000026"
       orientation="0,-4"
       id="guide4162" />
    <sodipodi:guide
       position="44.000012,13"
       orientation="48,0"
       id="guide4164" />
    <sodipodi:guide
       position="44.000012,2.6367188e-05"
       orientation="0,4"
       id="guide4166" />
    <sodipodi:guide
       position="48.000012,2.6367188e-05"
       orientation="-48,0"
       id="guide4168" />
    <sodipodi:guide
       position="4.0000422,48.000026"
       orientation="0,-4"
       id="guide4170" />
    <sodipodi:guide
       position="4.2167969e-05,48.000026"
       orientation="48,0"
       id="guide4172" />
    <sodipodi:guide
       position="4.2167969e-05,2.6367188e-05"
       orientation="0,4"
       id="guide4174" />
    <sodipodi:guide
       position="4.0000422,2.6367188e-05"
       orientation="-48,0"
       id="guide4176" />
    <sodipodi:guide
       position="4.0000422,43.999996"
       orientation="39.999969,0"
       id="guide4175" />
    <sodipodi:guide
       position="4.0000422,4.0000264"
       orientation="0,20"
       id="guide4177" />
    <sodipodi:guide
       position="24.000042,4.0000264"
       orientation="-39.999969,0"
       id="guide4179" />
    <sodipodi:guide
       position="24.000042,43.999996"
       orientation="0,-20"
       id="guide4181" />
    <sodipodi:guide
       position="4.0000422,23.999843"
       orientation="20,0"
       id="guide4185" />
    <sodipodi:guide
       position="44.000012,3.9998433"
       orientation="-20,0"
       id="guide4189" />
    <sodipodi:guide
       position="44.000012,23.999843"
       orientation="0,-39.999969"
       id="guide4191" />
    <sodipodi:guide
       position="15.999981,32.000148"
       orientation="16.000305,0"
       id="guide4374" />
    <sodipodi:guide
       position="15.999981,15.999843"
       orientation="0,16.000031"
       id="guide4376" />
    <sodipodi:guide
       position="32.000012,15.999843"
       orientation="-16.000305,0"
       id="guide4378" />
    <sodipodi:guide
       position="32.000012,32.000148"
       orientation="0,-16.000031"
       id="guide4380" />
  </sodipodi:namedview>
  <metadata
     id="metadata5458">
    <rdf:RDF>
      <cc:Work
         rdf:about="">
        <dc:format>image/svg+xml</dc:format>
        <dc:type
           rdf:resource="http://purl.org/dc/dcmitype/StillImage" />
        <dc:title />
      </cc:Work>
    </rdf:RDF>
  </metadata>
  <g
     inkscape:label="Capa 1"
     inkscape:groupmode="layer"
     id="layer1"
     transform="translate(-384.57143,-499.798)">
    <path
       style="opacity:1;fill:url(#linearGradient4597);fill-opacity:1;stroke:none"
       d="M 0 4 L 0 44 L 48 44 L 48 4 L 0 4 z "
       transform="translate(384.57143,499.798)"
       id="path4589" />
    <path
       style="fill:url(#linearGradient4681);fill-opacity:1;fill-rule:evenodd;stroke:none;stroke-width:1px;stroke-linecap:butt;stroke-linejoin:miter;stroke-opacity:1"
       d="M 12 24 L 0 33.882812 L 0 42.117188 L 2.2851562 44 L 12 44 L 12 24 z "
       transform="translate(384.57143,499.798)"
       id="path4476" />
    <path
       style="fill:url(#linearGradient4689);fill-opacity:1;fill-rule:evenodd;stroke:none;stroke-width:1px;stroke-linecap:butt;stroke-linejoin:miter;stroke-opacity:1"
       d="M 12 24 L 12 44 L 21.714844 44 L 29 38 L 12 24 z "
       transform="translate(384.57143,499.798)"
       id="path4478" />
    <path
       style="fill:url(#linearGradient4728);fill-opacity:1;fill-rule:evenodd;stroke:none;stroke-width:1px;stroke-linecap:butt;stroke-linejoin:miter;stroke-opacity:1"
       d="M 46 24 L 29 38 L 36.285156 44 L 46 44 L 46 24 z "
       transform="translate(384.57143,499.798)"
       id="path4488-0" />
    <path
       style="fill:url(#linearGradient4736);fill-opacity:1;fill-rule:evenodd;stroke:none;stroke-width:1px;stroke-linecap:butt;stroke-linejoin:miter;stroke-opacity:1"
       d="M 46 24 L 46 44 L 48 44 L 48 25.646484 L 46 24 z "
       transform="translate(384.57143,499.798)"
       id="path4490-4" />
    <path
       style="fill:url(#linearGradient4840);fill-opacity:1;fill-rule:evenodd;stroke:none;stroke-width:1px;stroke-linecap:butt;stroke-linejoin:miter;stroke-opacity:1"
       d="m 413.57142,531.798 0,-22 16.99999,14 -16.99999,14 z"
       id="path4188"
       inkscape:connector-curvature="0"
       sodipodi:nodetypes="ccccc" />
    <path
       style="fill:url(#linearGradient4784);fill-opacity:1;fill-rule:evenodd;stroke:none;stroke-width:1px;stroke-linecap:butt;stroke-linejoin:miter;stroke-opacity:1"
       d="M 0 14.117188 L 0 33.882812 L 12 24 L 0 14.117188 z "
       transform="translate(384.57143,499.798)"
       id="path4192" />
    <path
       style="fill:url(#linearGradient4800);fill-opacity:1;fill-rule:evenodd;stroke:none;stroke-width:1px;stroke-linecap:butt;stroke-linejoin:miter;stroke-opacity:1"
       d="M 0 4 L 0 5.8828125 L 2.2851562 4 L 0 4 z "
       transform="translate(384.57143,499.798)"
       id="path4196" />
    <path
       style="fill:url(#linearGradient4792);fill-opacity:1;fill-rule:evenodd;stroke:none;stroke-width:1px;stroke-linecap:butt;stroke-linejoin:miter;stroke-opacity:1"
       d="M 2.2851562 4 L 0 5.8828125 L 0 14.117188 L 12 24 L 12 18 L 12 4 L 2.2851562 4 z "
       transform="translate(384.57143,499.798)"
       id="path4198" />
    <path
       style="fill:url(#linearGradient4808);fill-opacity:1;fill-rule:evenodd;stroke:none;stroke-width:1px;stroke-linecap:butt;stroke-linejoin:miter;stroke-opacity:1"
       d="M 12 4 L 12 18 L 12 24 L 29 10 L 21.714844 4 L 12 4 z "
       transform="translate(384.57143,499.798)"
       id="path4200" />
    <path
       style="fill:url(#linearGradient4776);fill-opacity:1;fill-rule:evenodd;stroke:none;stroke-width:1px;stroke-linecap:butt;stroke-linejoin:miter;stroke-opacity:1"
       d="M 36.285156 4 L 29 10 L 46 24 L 46 18 L 46 4 L 36.285156 4 z "
       transform="translate(384.57143,499.798)"
       id="path4202" />
    <path
       style="fill:url(#linearGradient4760);fill-opacity:1;fill-rule:evenodd;stroke:none;stroke-width:1px;stroke-linecap:butt;stroke-linejoin:miter;stroke-opacity:1"
       d="M 46 4 L 46 18 L 46 24 L 48 22.353516 L 48 4 L 46 4 z "
       transform="translate(384.57143,499.798)"
       id="path4204" />
    <path
       style="fill:url(#linearGradient4752);fill-opacity:1;fill-rule:evenodd;stroke:none;stroke-width:1px;stroke-linecap:butt;stroke-linejoin:miter;stroke-opacity:1"
       d="M 48 22.353516 L 46 24 L 48 25.646484 L 48 22.353516 z "
       transform="translate(384.57143,499.798)"
       id="path4206" />
    <path
       style="fill:url(#linearGradient4816);fill-opacity:1;fill-rule:evenodd;stroke:none;stroke-width:1px;stroke-linecap:butt;stroke-linejoin:miter;stroke-opacity:1"
       d="M 21.714844 4 L 29 10 L 29 4 L 21.714844 4 z "
       transform="translate(384.57143,499.798)"
       id="path4206-9" />
    <path
       style="fill:url(#linearGradient4824);fill-opacity:1;fill-rule:evenodd;stroke:none;stroke-width:1px;stroke-linecap:butt;stroke-linejoin:miter;stroke-opacity:1"
       d="M 29 4 L 29 10 L 36.285156 4 L 29 4 z "
       transform="translate(384.57143,499.798)"
       id="path4208-1" />
    <g
       id="g4343">
      <rect
         style="opacity:1;fill:url(#linearGradient4643-8);fill-opacity:1;stroke:none"
         id="rect4641-5"
         width="32"
         height="28"
         x="392.57144"
         y="507.79797"
         ry="0" />
      <path
         inkscape:connector-curvature="0"
         id="path4167"
         d="m 393.57143,533.79801 30,-20 1.00001,1 -10e-6,20.99997 -29,3e-5 z"
         style="opacity:0.2;fill:url(#linearGradient4183);fill-opacity:1;fill-rule:evenodd;stroke:none;stroke-width:1px;stroke-linecap:butt;stroke-linejoin:miter;stroke-opacity:1" />
      <rect
         y="507.79797"
         x="392.57141"
         height="4"
         width="32.000011"
         id="rect4647-8"
         style="opacity:1;fill:#566069;fill-opacity:1;stroke:none" />
      <rect
         y="511.79797"
         x="392.57141"
         height="1"
         width="31.999968"
         id="rect4649-8"
         style="opacity:1;fill:#3daee9;fill-opacity:1;stroke:none" />
      <rect
         y="513.79797"
         x="393.57141"
         height="20.000027"
         width="30"
         id="rect4653-5"
         style="opacity:1;fill:#ffffff;fill-opacity:1;stroke:none" />
      <rect
         ry="1"
         rx="1"
         y="508.79797"
         x="421.57141"
         height="2"
         width="2"
         id="rect4661-1"
         style="opacity:1;fill:#eff0f1;fill-opacity:1;stroke:none" />
    </g>
    <path
       style="fill:url(#linearGradient4906);fill-rule:evenodd;stroke:none;stroke-width:1px;stroke-linecap:butt;stroke-linejoin:miter;stroke-opacity:1;fill-opacity:1;opacity:0.2"
       d="M 16 19 L 27 30 L 19.912109 30 A 1.5 1.5 0 0 0 20 29.5 A 1.5 1.5 0 0 0 18.5 28 A 1.5 1.5 0 0 0 17 29.5 A 1.5 1.5 0 0 0 17.087891 30 L 16 30 L 30 44 L 48 44 L 48 35 L 32 19 L 16 19 z "
       id="path4892"
       transform="translate(384.57143,499.798)" />
    <path
       inkscape:connector-curvature="0"
       style="opacity:1;fill:url(#linearGradient4463);fill-opacity:1;stroke:none"
       d="m 410.07143,515.798 c -1.21386,0 -2.21902,0.85592 -2.44922,2 l -7.05039,0 0,1 7.05039,0 c 0.2302,1.14408 1.23536,2 2.44922,2 1.21387,0 2.21902,-0.85592 2.44922,-2 l 4.05078,0 0,-1 -4.05078,0 c -0.2302,-1.14408 -1.23535,-2 -2.44922,-2 z m -6.99961,11 c -1.38499,0 -2.5,1.11501 -2.5,2.5 0,1.38499 1.11501,2.5 2.5,2.5 1.21385,0 2.21902,-0.85593 2.44922,-2 l 11.05039,0 0,-1 -11.05039,0 c -0.2302,-1.14407 -1.23537,-2 -2.44922,-2 z m 0,1 c 0.83099,0 1.5,0.66901 1.5,1.5 0,0.83099 -0.66901,1.5 -1.5,1.5 -0.83099,0 -1.5,-0.66901 -1.5,-1.5 0,-0.83099 0.66901,-1.5 1.5,-1.5 z"
       id="rect4437"
       sodipodi:nodetypes="sccccsccccssssccccssssss" />
    <path
       style="fill:url(#linearGradient4673);fill-opacity:1;fill-rule:evenodd;stroke:none;stroke-width:1px;stroke-linecap:butt;stroke-linejoin:miter;stroke-opacity:1"
       d="M 0 42.117188 L 0 44 L 2.2851562 44 L 0 42.117188 z "
       transform="translate(384.57143,499.798)"
       id="path4468" />
    <path
       style="fill:url(#linearGradient4697);fill-opacity:1;fill-rule:evenodd;stroke:none;stroke-width:1px;stroke-linecap:butt;stroke-linejoin:miter;stroke-opacity:1"
       d="M 29 38 L 21.714844 44 L 29 44 L 29 38 z "
       transform="translate(384.57143,499.798)"
       id="path4488" />
    <path
       style="fill:url(#linearGradient4705);fill-opacity:1;fill-rule:evenodd;stroke:none;stroke-width:1px;stroke-linecap:butt;stroke-linejoin:miter;stroke-opacity:1"
       d="M 29 38 L 29 44 L 36.285156 44 L 29 38 z "
       transform="translate(384.57143,499.798)"
       id="path4490" />
    <path
       style="opacity:1;fill:#ffffff;fill-opacity:0.78431373;stroke:none"
       d="m 384.57143,538.798 0,4 0,1 1,0 46,0 1,0 0,-1 0,-4 z"
       id="rect4128"
       inkscape:connector-curvature="0"
       sodipodi:nodetypes="ccccccccc" />
    <g
       style="font-style:normal;font-variant:normal;font-weight:normal;font-stretch:normal;font-size:4.07529593px;line-height:125%;font-family:Oxygen;-inkscape-font-specification:Oxygen;letter-spacing:0px;word-spacing:0px;fill:#4d4d4d;fill-opacity:1;stroke:none;stroke-width:1px;stroke-linecap:butt;stroke-linejoin:miter;stroke-opacity:1"
       id="text4213"
       transform="matrix(0.64829823,0,0,0.64829823,143.63174,191.16072)">
      <path
         d="m 434.23853,537.83412 c -0.15893,0.11003 -0.36677,0.22414 -0.54201,0.30157 l 0.0734,0.28934 c 0.14264,-0.0448 0.27305,-0.12225 0.43198,-0.22414 l 0,2.60819 0.35455,0 0,-2.97496 -0.31787,0 z"
         id="path4218"
         inkscape:connector-curvature="0" />
      <path
         d="m 435.20119,538.03381 0.11819,0.29749 c 0.16708,-0.17116 0.41568,-0.24452 0.66427,-0.24452 0.33825,0 0.52571,0.18747 0.52571,0.51757 l 0,0.0204 c -0.004,0.2323 -0.15486,0.46051 -0.38715,0.71726 l -1.02697,1.14108 0.0448,0.32602 1.74016,0 0.0245,-0.30565 -1.38153,0 0.83951,-0.89656 c 0.32603,-0.35048 0.52572,-0.63575 0.52979,-1.01067 l 0,-0.0122 c 0,-0.48904 -0.34232,-0.81098 -0.88434,-0.81098 -0.38715,0 -0.63982,0.10595 -0.80691,0.26082 z"
         id="path4220"
         inkscape:connector-curvature="0" />
      <path
         d="m 437.42599,540.85799 0.4116,0 0,-0.46459 -0.4116,0 0,0.46459 z m 0,-1.82574 0.4116,0 0,-0.46051 -0.4116,0 0,0.46051 z"
         id="path4222"
         inkscape:connector-curvature="0" />
      <path
         d="m 439.75394,539.98995 c 0,0.3627 -0.2649,0.56239 -0.65613,0.56239 -0.30157,0 -0.50941,-0.0978 -0.6602,-0.21599 l -0.1141,0.28934 c 0.11003,0.10596 0.39122,0.22822 0.77838,0.22822 0.57869,0 1.00252,-0.3301 1.00252,-0.85989 0,-0.41975 -0.23229,-0.68872 -0.59499,-0.77023 0.32195,-0.0978 0.52164,-0.3301 0.52164,-0.71317 0,-0.47681 -0.41161,-0.73763 -0.85174,-0.73763 -0.41161,0 -0.6765,0.0897 -0.85581,0.22821 l 0.1141,0.28935 c 0.15894,-0.12634 0.39123,-0.21192 0.66428,-0.21192 0.35047,0 0.54609,0.14671 0.54609,0.47681 0,0.46866 -0.43198,0.52164 -0.88842,0.52164 l 0,0.29342 c 0.55424,0 0.99438,0.0856 0.99438,0.61945 z"
         id="path4224"
         inkscape:connector-curvature="0" />
      <path
         d="m 441.86538,538.2824 0,1.49971 -0.99437,0 0.99437,-1.49971 z m 0.67243,1.78905 0.0285,-0.28934 -0.36678,0 0,-1.94799 -0.37085,0 -1.30817,1.93169 0,0.30564 1.34484,0 0,0.73763 0.33418,0 0,-0.73763 0.33825,0 z"
         id="path4226"
         inkscape:connector-curvature="0" />
    </g>
    <path
       style="color:#000000;font-style:normal;font-variant:normal;font-weight:normal;font-stretch:normal;font-size:medium;line-height:normal;font-family:Sans;-inkscape-font-specification:Sans;text-indent:0;text-align:start;text-decoration:none;text-decoration-line:none;letter-spacing:normal;word-spacing:normal;text-transform:none;direction:ltr;block-progression:tb;writing-mode:lr-tb;baseline-shift:baseline;text-anchor:start;display:inline;overflow:visible;visibility:visible;fill:#4d4d4d;fill-opacity:1;stroke:none;stroke-width:5;marker:none;enable-background:accumulate"
       d="m 387.07143,539.79839 a 0.16666666,0.16666666 0 0 0 -0.16667,0.16667 0.16666666,0.16666666 0 0 0 0.16667,0.16667 0.16666666,0.16666666 0 0 0 0.16666,-0.16667 0.16666666,0.16666666 0 0 0 -0.16666,-0.16667 z m 0.83333,0 -0.32292,0.26042 0.43229,0.53646 -0.40625,0.40625 0.29688,0.29687 0.66667,-0.66667 -0.66667,-0.83333 z m -1.08333,0.66667 a 0.25,0.25 0 0 0 -0.25,0.25 0.25,0.25 0 0 0 0.25,0.25 0.25,0.25 0 0 0 0.25,-0.25 0.25,0.25 0 0 0 -0.25,-0.25 z m 0.5,0.83333 a 0.25,0.25 0 0 0 -0.25,0.25 0.25,0.25 0 0 0 0.25,0.25 0.25,0.25 0 0 0 0.25,-0.25 0.25,0.25 0 0 0 -0.25,-0.25 z"
       id="path2994"
       inkscape:connector-curvature="0" />
    <path
       sodipodi:nodetypes="ccccccccc"
       inkscape:connector-curvature="0"
       id="path4816"
       d="m 384.57143,542.798 0,0.2 0,0.8 1,0 46,0 1,0 0,-0.8 0,-0.2 z"
       style="opacity:1;fill:#000000;fill-opacity:0.11009175;stroke:none" />
  </g>
</svg>
