<?xml version="1.0" encoding="UTF-8" standalone="no"?>
<!-- Created with Inkscape (http://www.inkscape.org/) -->

<svg
   xmlns:dc="http://purl.org/dc/elements/1.1/"
   xmlns:cc="http://creativecommons.org/ns#"
   xmlns:rdf="http://www.w3.org/1999/02/22-rdf-syntax-ns#"
   xmlns:svg="http://www.w3.org/2000/svg"
   xmlns="http://www.w3.org/2000/svg"
   xmlns:xlink="http://www.w3.org/1999/xlink"
   xmlns:sodipodi="http://sodipodi.sourceforge.net/DTD/sodipodi-0.dtd"
   xmlns:inkscape="http://www.inkscape.org/namespaces/inkscape"
   width="48"
   height="48"
   id="svg5453"
   version="1.1"
   inkscape:version="0.48+devel r"
   sodipodi:docname="gwenview.svg">
  <defs
     id="defs5455">
    <linearGradient
       id="linearGradient4872"
       inkscape:collect="always">
      <stop
         id="stop4874"
         offset="0"
         style="stop-color:#f3e8e2;stop-opacity:1" />
      <stop
         id="stop4876"
         offset="1"
         style="stop-color:#ebe0dc;stop-opacity:0" />
    </linearGradient>
    <linearGradient
       inkscape:collect="always"
       id="linearGradient4821">
      <stop
         style="stop-color:#363d4a;stop-opacity:1"
         offset="0"
         id="stop4823" />
      <stop
         style="stop-color:#020a13;stop-opacity:1"
         offset="1"
         id="stop4825" />
    </linearGradient>
    <linearGradient
       inkscape:collect="always"
       id="linearGradient4807">
      <stop
         style="stop-color:#1c2b38;stop-opacity:0"
         offset="0"
         id="stop4809" />
      <stop
         style="stop-color:#526c8d;stop-opacity:1"
         offset="1"
         id="stop4811" />
    </linearGradient>
    <linearGradient
       inkscape:collect="always"
       id="linearGradient4785">
      <stop
         style="stop-color:#60a09a;stop-opacity:1"
         offset="0"
         id="stop4787" />
      <stop
         style="stop-color:#a8cbba;stop-opacity:0;"
         offset="1"
         id="stop4789" />
    </linearGradient>
    <linearGradient
       id="linearGradient4772"
       inkscape:collect="always">
      <stop
         id="stop4774"
         offset="0"
         style="stop-color:#a8cbba;stop-opacity:1" />
      <stop
         style="stop-color:#a7c9bb;stop-opacity:1"
         offset="0.61538434"
         id="stop4776" />
      <stop
         id="stop4778"
         offset="1"
         style="stop-color:#4c6a87;stop-opacity:1" />
    </linearGradient>
    <linearGradient
       inkscape:collect="always"
       id="linearGradient4758">
      <stop
         style="stop-color:#f3e7e1;stop-opacity:1"
         offset="0"
         id="stop4760" />
      <stop
         id="stop4766"
         offset="0.61538434"
         style="stop-color:#c4c2c6;stop-opacity:1" />
      <stop
         style="stop-color:#566e90;stop-opacity:1"
         offset="1"
         id="stop4762" />
    </linearGradient>
    <linearGradient
       gradientUnits="userSpaceOnUse"
       y2="503.798"
       x2="384.57144"
       y1="543.79797"
       x1="434.57144"
       id="linearGradient4586"
       xlink:href="#linearGradient4273"
       inkscape:collect="always"
       gradientTransform="translate(-1.1547241e-5,-1.6784668e-7)" />
    <linearGradient
       inkscape:collect="always"
       id="linearGradient4273">
      <stop
         style="stop-color:#e3dfd6;stop-opacity:1"
         offset="0"
         id="stop4275-3" />
      <stop
         style="stop-color:#f4f1e8;stop-opacity:1"
         offset="1"
         id="stop4277" />
    </linearGradient>
    <linearGradient
       gradientUnits="userSpaceOnUse"
       y2="4"
       x2="24"
       y1="43.999973"
       x1="24"
       id="linearGradient4797"
       xlink:href="#linearGradient4159"
       inkscape:collect="always"
       gradientTransform="translate(384.57142,499.798)" />
    <linearGradient
       inkscape:collect="always"
       id="linearGradient4159">
      <stop
         style="stop-color:#1d1e1e;stop-opacity:1"
         offset="0"
         id="stop4161" />
      <stop
         style="stop-color:#44484c;stop-opacity:1"
         offset="1"
         id="stop4163" />
    </linearGradient>
    <linearGradient
       inkscape:collect="always"
       xlink:href="#linearGradient4758"
       id="linearGradient4764"
       x1="404.57144"
       y1="536.79797"
       x2="404.57144"
       y2="510.798"
       gradientUnits="userSpaceOnUse" />
    <linearGradient
       inkscape:collect="always"
       xlink:href="#linearGradient4772"
       id="linearGradient4770"
       gradientUnits="userSpaceOnUse"
       x1="404.57144"
       y1="536.79797"
       x2="404.57144"
       y2="530.79797" />
    <linearGradient
       inkscape:collect="always"
       xlink:href="#linearGradient4785"
       id="linearGradient4791"
       x1="9"
       y1="36"
       x2="19"
       y2="36"
       gradientUnits="userSpaceOnUse" />
    <linearGradient
       inkscape:collect="always"
       xlink:href="#linearGradient4785"
       id="linearGradient4798"
       gradientUnits="userSpaceOnUse"
       x1="9"
       y1="36"
       x2="19"
       y2="36"
       gradientTransform="matrix(-1,0,0,1,432.57141,499.798)" />
    <linearGradient
       inkscape:collect="always"
       xlink:href="#linearGradient4807"
       id="linearGradient4813"
       x1="18"
       y1="22"
       x2="18"
       y2="15"
       gradientUnits="userSpaceOnUse" />
    <linearGradient
       inkscape:collect="always"
       xlink:href="#linearGradient4807"
       id="linearGradient4817"
       gradientUnits="userSpaceOnUse"
       x1="18"
       y1="22"
       x2="18"
       y2="15"
       gradientTransform="translate(396.57143,495.798)" />
    <linearGradient
       inkscape:collect="always"
       xlink:href="#linearGradient4821"
       id="linearGradient4827"
       x1="395.57144"
       y1="532.79797"
       x2="395.57144"
       y2="510.798"
       gradientUnits="userSpaceOnUse" />
    <linearGradient
       inkscape:collect="always"
       xlink:href="#linearGradient4821"
       id="linearGradient4859"
       gradientUnits="userSpaceOnUse"
       x1="395.57144"
       y1="532.79797"
       x2="395.57144"
       y2="510.798"
       gradientTransform="matrix(-1,0,0,1,432.57143,-499.798)" />
    <linearGradient
       inkscape:collect="always"
       xlink:href="#linearGradient4872"
       id="linearGradient4870"
       x1="418.57144"
       y1="530.79797"
       x2="410.57144"
       y2="523.79797"
       gradientUnits="userSpaceOnUse" />
    <linearGradient
       inkscape:collect="always"
       xlink:href="#linearGradient4410"
       id="linearGradient4889"
       x1="6"
       y1="14"
       x2="30"
       y2="38"
       gradientUnits="userSpaceOnUse" />
    <linearGradient
       id="linearGradient4410"
       inkscape:collect="always">
      <stop
         id="stop4412"
         offset="0"
         style="stop-color:#383e51;stop-opacity:1" />
      <stop
         id="stop4414"
         offset="1"
         style="stop-color:#655c6f;stop-opacity:0" />
    </linearGradient>
  </defs>
  <sodipodi:namedview
     id="base"
     pagecolor="#ffffff"
     bordercolor="#666666"
     borderopacity="1.0"
     inkscape:pageopacity="0"
     inkscape:pageshadow="2"
     inkscape:zoom="6.208337"
     inkscape:cx="9.6261775"
     inkscape:cy="23.461572"
     inkscape:document-units="px"
     inkscape:current-layer="layer1"
     showgrid="true"
     fit-margin-top="0"
     fit-margin-left="0"
     fit-margin-right="0"
     fit-margin-bottom="0"
     inkscape:window-width="1366"
     inkscape:window-height="666"
     inkscape:window-x="-2"
     inkscape:window-y="25"
     inkscape:window-maximized="1"
     inkscape:showpageshadow="false"
     borderlayer="true"
     showguides="true">
    <inkscape:grid
       type="xygrid"
       id="grid4063" />
    <sodipodi:guide
       position="1.1650391e-05,43.999996"
       orientation="0,48"
       id="guide4148" />
    <sodipodi:guide
       position="48.000012,43.999996"
       orientation="-4,0"
       id="guide4150" />
    <sodipodi:guide
       position="48.000012,47.999996"
       orientation="0,-48"
       id="guide4152" />
    <sodipodi:guide
       position="1.1650391e-05,4.0000264"
       orientation="4,0"
       id="guide4154" />
    <sodipodi:guide
       position="30,2.6367188e-05"
       orientation="0,48"
       id="guide4156" />
    <sodipodi:guide
       position="48.000012,2.6367188e-05"
       orientation="-4,0"
       id="guide4158" />
    <sodipodi:guide
       position="48.000012,4.0000264"
       orientation="0,-48"
       id="guide4160" />
    <sodipodi:guide
       position="48.000012,48.000026"
       orientation="0,-4"
       id="guide4162" />
    <sodipodi:guide
       position="44.000012,48.000026"
       orientation="48,0"
       id="guide4164" />
    <sodipodi:guide
       position="44.000012,2.6367188e-05"
       orientation="0,4"
       id="guide4166" />
    <sodipodi:guide
       position="48.000012,2.6367188e-05"
       orientation="-48,0"
       id="guide4168" />
    <sodipodi:guide
       position="4.0000422,48.000026"
       orientation="0,-4"
       id="guide4170" />
    <sodipodi:guide
       position="4.2167969e-05,48.000026"
       orientation="48,0"
       id="guide4172" />
    <sodipodi:guide
       position="4.2167969e-05,2.6367188e-05"
       orientation="0,4"
       id="guide4174" />
    <sodipodi:guide
       position="4.0000422,2.6367188e-05"
       orientation="-48,0"
       id="guide4176" />
    <sodipodi:guide
       position="4.0000117,47.999996"
       orientation="43.999969,0"
       id="guide4638" />
    <sodipodi:guide
       position="4.0000117,4.0000264"
       orientation="0,20"
       id="guide4640" />
    <sodipodi:guide
       position="24.000012,4.0000264"
       orientation="-43.999969,0"
       id="guide4642" />
    <sodipodi:guide
       position="24.000012,47.999996"
       orientation="0,-20"
       id="guide4644" />
    <sodipodi:guide
       position="4.0000422,24.000026"
       orientation="20,0"
       id="guide4666" />
    <sodipodi:guide
       position="4.0000422,4.0000264"
       orientation="0,39.999969"
       id="guide4668" />
    <sodipodi:guide
       position="44.000012,4.0000264"
       orientation="-20,0"
       id="guide4670" />
    <sodipodi:guide
       position="44.000012,24.000026"
       orientation="0,-39.999969"
       id="guide4672" />
  </sodipodi:namedview>
  <metadata
     id="metadata5458">
    <rdf:RDF>
      <cc:Work
         rdf:about="">
        <dc:format>image/svg+xml</dc:format>
        <dc:type
           rdf:resource="http://purl.org/dc/dcmitype/StillImage" />
        <dc:title />
      </cc:Work>
    </rdf:RDF>
  </metadata>
  <g
     inkscape:label="Capa 1"
     inkscape:groupmode="layer"
     id="layer1"
     transform="translate(-384.57143,-499.798)">
    <rect
       style="opacity:1;fill:url(#linearGradient4586);fill-opacity:1;stroke:none;stroke-width:2.79999995;stroke-miterlimit:4;stroke-dasharray:none;stroke-opacity:0.55026455"
       id="rect4567"
       width="48.000011"
       height="39.999996"
       x="384.57144"
       y="503.798" />
    <path
       inkscape:connector-curvature="0"
       style="opacity:1;fill:url(#linearGradient4797);fill-opacity:1.0;stroke:none;stroke-width:2.79999995;stroke-miterlimit:4;stroke-dasharray:none;stroke-opacity:0.55026455"
       d="m 384.57142,503.798 0,2 0,38 2,0 46,0 0,-2 0,-36 0,-2 -2,0 -44,0 z m 4,4 40,0 0,32 -40,0 z"
       id="rect4778"
       sodipodi:nodetypes="cccccccccccccccc" />
    <path
       style="fill:url(#linearGradient4889);fill-rule:evenodd;stroke:none;stroke-width:1px;stroke-linecap:butt;stroke-linejoin:miter;stroke-opacity:1;fill-opacity:1.0;opacity:0.2"
       d="M 40 11 L 8 37 L 14 43 L 15 44 L 44 44 L 48 44 L 48 19 L 44 15 L 40 11 z "
       transform="translate(384.57143,499.798)"
       id="path4878" />
    <rect
       style="opacity:1;fill:#202224;fill-opacity:1;stroke:none;stroke-width:2.79999995;stroke-miterlimit:4;stroke-dasharray:none;stroke-opacity:0.55026455"
       id="rect4799"
       width="47.999969"
       height="1"
       x="384.57147"
       y="542.79797" />
    <rect
       y="510.798"
       x="392.57141"
       height="26"
       width="32.000011"
       id="rect4439"
       style="opacity:1;fill:url(#linearGradient4764);fill-opacity:1;stroke:none;stroke-width:2.79999995;stroke-miterlimit:4;stroke-dasharray:none;stroke-opacity:0.55026455" />
    <path
       style="fill:url(#linearGradient4870);fill-rule:evenodd;stroke:none;stroke-width:1px;stroke-linecap:butt;stroke-linejoin:miter;stroke-opacity:1;fill-opacity:1"
       d="m 397.57143,530.798 22,0 3,-13 -25,5.99997 z"
       id="path4866"
       inkscape:connector-curvature="0" />
    <rect
       style="opacity:1;fill:url(#linearGradient4770);fill-opacity:1;stroke:none;stroke-width:2.79999995;stroke-miterlimit:4;stroke-dasharray:none;stroke-opacity:0.55026455"
       id="rect4768"
       width="32"
       height="5.9999738"
       x="392.57141"
       y="530.79797" />
    <path
       style="fill:#2c333f;fill-opacity:1;fill-rule:evenodd;stroke:none;stroke-width:1px;stroke-linecap:butt;stroke-linejoin:miter;stroke-opacity:1;opacity:0.4"
       d="m 8,31 0,4 c 2.607721,-1.278456 7.100988,-2.179802 7,-4 z"
       transform="translate(384.57143,499.798)"
       id="path4846"
       inkscape:connector-curvature="0"
       sodipodi:nodetypes="cccc" />
    <path
       style="fill:url(#linearGradient4791);fill-rule:evenodd;stroke:none;stroke-width:1px;stroke-linecap:butt;stroke-linejoin:miter;stroke-opacity:1;fill-opacity:1;opacity:0.6"
       d="M 8 31 L 8 36.9375 C 20.888122 36.787909 17.826172 31 17.826172 31 L 8 31 z "
       transform="translate(384.57143,499.798)"
       id="path4780" />
    <path
       sodipodi:nodetypes="cccc"
       inkscape:connector-curvature="0"
       id="path4864"
       d="m 424.57141,530.798 0,4 c -1.40003,-3.02393 -7.07337,-2.21924 -7,-4 z"
       style="opacity:0.4;fill:#2c333f;fill-opacity:1;fill-rule:evenodd;stroke:none;stroke-width:1px;stroke-linecap:butt;stroke-linejoin:miter;stroke-opacity:1" />
    <path
       id="path4795"
       d="m 424.57141,530.798 0,5.9375 c -12.88812,-0.14959 -9.82617,-5.9375 -9.82617,-5.9375 l 9.82617,0 z"
       style="fill:url(#linearGradient4798);fill-opacity:1;fill-rule:evenodd;stroke:none;stroke-width:1px;stroke-linecap:butt;stroke-linejoin:miter;stroke-opacity:1;opacity:0.6"
       inkscape:connector-curvature="0" />
    <path
       style="opacity:0.6;fill:url(#linearGradient4813);fill-opacity:1;stroke:none;stroke-width:2.79999995;stroke-miterlimit:4;stroke-dasharray:none;stroke-opacity:0.55026455"
       d="M 18.783203 14.949219 A 6 4 0 0 0 13.535156 17.013672 A 6 4 0 0 0 8 21 A 6 4 0 0 0 14 25 A 6 4 0 0 0 19.248047 22.935547 A 6 4 0 0 0 21.267578 22.585938 A 4 2.6666665 0 0 0 24.023438 23.324219 A 4 2.6666665 0 0 0 28.023438 20.658203 A 4 2.6666665 0 0 0 24.613281 18.025391 A 6 4 0 0 0 18.783203 14.949219 z "
       transform="translate(384.57143,499.798)"
       id="path4800" />
    <path
       id="path4815"
       d="m 415.35463,510.74722 a 6,4 0 0 0 -5.24804,2.06445 6,4 0 0 0 -5.53516,3.98633 6,4 0 0 0 6,4 6,4 0 0 0 5.24805,-2.06445 6,4 0 0 0 2.01953,-0.34961 4,2.6666665 0 0 0 2.75586,0.73828 4,2.6666665 0 0 0 4,-2.66602 4,2.6666665 0 0 0 -3.41016,-2.63281 6,4 0 0 0 -5.83008,-3.07617 z"
       style="opacity:0.6;fill:url(#linearGradient4817);fill-opacity:1;stroke:none;stroke-width:2.79999995;stroke-miterlimit:4;stroke-dasharray:none;stroke-opacity:0.55026455"
       inkscape:connector-curvature="0" />
    <path
       style="fill:url(#linearGradient4827);fill-rule:evenodd;stroke:none;stroke-width:1px;stroke-linecap:butt;stroke-linejoin:miter;stroke-opacity:1;fill-opacity:1"
       d="m 392.57143,532.798 c 1,0 1,0 1,0 0,0 4,-1 5,-1 1,0 2,-2 2,-3 0,-1 -1,-7 -2,-7 -1,0 -4,-5 -4,-6 0,-1 0,-5 0,-5 l -2,0 z"
       id="path4819"
       inkscape:connector-curvature="0" />
    <path
       style="fill:#1a212c;fill-opacity:1;fill-rule:evenodd;stroke:none;stroke-width:1px;stroke-linecap:butt;stroke-linejoin:miter;stroke-opacity:1"
       d="M 13.480469,21.722656 C 13.285746,21.790273 13.120196,21.879804 13,22 c -1,1 1.68144,2.052066 2,3 0.45009,1.339328 1.152107,2.495437 0,5 2.558633,0.336662 -2.802842,1.420679 -7,3 l 1,0 c 0,0 4,-1 5,-1 1,0 2,-2 2,-3 0,-1 -1,-7 -2,-7 -0.137959,0 -0.31857,-0.110648 -0.519531,-0.277344 z"
       transform="translate(384.57143,499.798)"
       id="path4829"
       inkscape:connector-curvature="0"
       sodipodi:nodetypes="csscccsssc" />
    <path
       style="fill:#242b37;fill-opacity:1;fill-rule:evenodd;stroke:none;stroke-width:1px;stroke-linecap:butt;stroke-linejoin:miter;stroke-opacity:1"
       d="M 15.310547 29.644531 C 14.310547 29.644531 14.310547 29.644531 13.310547 30.644531 C 13.197258 30.75782 13.035586 30.870587 12.855469 30.982422 C 11.903684 30.895066 10.951785 30 10 30 C 9 30 9 32 8 33 L 11 32 C 11 32 11.201637 31.924558 11.244141 31.910156 L 12.310547 31.644531 L 15.310547 30.644531 C 16.054457 30.162421 15.421197 29.955731 15.310547 29.644531 z "
       transform="translate(384.57143,499.798)"
       id="path4836" />
    <path
       style="fill:#1e2e2f;fill-opacity:1;fill-rule:evenodd;stroke:none;stroke-width:1px;stroke-linecap:butt;stroke-linejoin:miter;stroke-opacity:1"
       d="m 392.57143,532.798 0,-7 c 0,0 4,0 3,1 l -1,1 c 0,0 -1,1 -1,2 l 0,1 c 0,0 0.6284,0.22211 0,1 -0.3203,0.39649 -0.8369,1.09514 -1,1 z"
       id="path4844"
       inkscape:connector-curvature="0"
       sodipodi:nodetypes="ccscscsc" />
    <path
       style="fill:url(#linearGradient4859);fill-opacity:1;fill-rule:evenodd;stroke:none;stroke-width:1px;stroke-linecap:butt;stroke-linejoin:miter;stroke-opacity:1"
       d="m 38,11 c 0,0 0,1 -1,2 -1,1 1,2 1,2 -1.666667,0.581456 -3.333333,0.650155 -5,2 l 1,5 c -1,0 -2,6 -2,7 0,1 1,3 2,3 1,0 5,1 5,1 l 1,0 0,-22 z"
       transform="translate(384.57143,499.798)"
       id="path4851"
       inkscape:connector-curvature="0"
       sodipodi:nodetypes="cscccsscccc" />
    <path
       sodipodi:nodetypes="csscccsssc"
       inkscape:connector-curvature="0"
       id="path4853"
       d="m 419.09096,521.52066 c 0.19472,0.0676 0.36027,0.15714 0.48047,0.27734 1,1 -1.68144,2.05207 -2,3 -0.45009,1.33933 -1.15211,2.49544 0,5 -2.55863,0.33666 2.80284,1.42068 7,3 l -1,0 c 0,0 -4,-1 -5,-1 -1,0 -2,-2 -2,-3 0,-1 1,-7 2,-7 0.13796,0 0.31857,-0.11065 0.51953,-0.27734 z"
       style="fill:#1a212c;fill-opacity:1;fill-rule:evenodd;stroke:none;stroke-width:1px;stroke-linecap:butt;stroke-linejoin:miter;stroke-opacity:1" />
    <path
       id="path4855"
       d="m 417.26088,529.44253 c 1,0 1,0 2,1 0.11329,0.11329 0.27496,0.22606 0.45508,0.33789 0.95179,-0.0874 1.90369,-0.98242 2.85547,-0.98242 1,0 1,2 2,3 l -3,-1 c 0,0 -0.20164,-0.0754 -0.24414,-0.0898 l -1.06641,-0.26563 -3,-1 c -0.74391,-0.48211 -0.11065,-0.6888 0,-1 z"
       style="fill:#242b37;fill-opacity:1;fill-rule:evenodd;stroke:none;stroke-width:1px;stroke-linecap:butt;stroke-linejoin:miter;stroke-opacity:1"
       inkscape:connector-curvature="0" />
    <path
       sodipodi:nodetypes="ccscscsc"
       inkscape:connector-curvature="0"
       id="path4857"
       d="m 424.57143,532.798 0,-7 c 0,0 -4,0 -3,1 l 1,1 c 0,0 1,1 1,2 l 0,1 c 0,0 -0.6284,0.22211 0,1 0.3203,0.39649 0.8369,1.09514 1,1 z"
       style="fill:#1e2e2f;fill-opacity:1;fill-rule:evenodd;stroke:none;stroke-width:1px;stroke-linecap:butt;stroke-linejoin:miter;stroke-opacity:1" />
  </g>
</svg>
