<?xml version="1.0" encoding="UTF-8" standalone="no"?>
<!-- Created with Inkscape (http://www.inkscape.org/) -->

<svg
   xmlns:dc="http://purl.org/dc/elements/1.1/"
   xmlns:cc="http://creativecommons.org/ns#"
   xmlns:rdf="http://www.w3.org/1999/02/22-rdf-syntax-ns#"
   xmlns:svg="http://www.w3.org/2000/svg"
   xmlns="http://www.w3.org/2000/svg"
   xmlns:xlink="http://www.w3.org/1999/xlink"
   xmlns:sodipodi="http://sodipodi.sourceforge.net/DTD/sodipodi-0.dtd"
   xmlns:inkscape="http://www.inkscape.org/namespaces/inkscape"
   width="48"
   height="48"
   id="svg5453"
   version="1.1"
   inkscape:version="0.91 r13725"
   sodipodi:docname="kfind.svg">
  <defs
     id="defs5455">
    <linearGradient
       id="linearGradient4303-4"
       inkscape:collect="always">
      <stop
         id="stop4305-7"
         offset="0"
         style="stop-color:#197cf1;stop-opacity:1" />
      <stop
         id="stop4307-4"
         offset="1"
         style="stop-color:#21c9fb;stop-opacity:1" />
    </linearGradient>
    <linearGradient
       gradientTransform="matrix(1.0181824,0,0,0.99999958,-3.0652196,2.0854324e-4)"
       gradientUnits="userSpaceOnUse"
       y2="503.798"
       x2="409.57144"
       y1="543.79797"
       x1="409.57144"
       id="linearGradient4217"
       xlink:href="#linearGradient4303-4"
       inkscape:collect="always" />
    <linearGradient
       inkscape:collect="always"
       id="linearGradient4227">
      <stop
         style="stop-color:#292c2f;stop-opacity:1"
         offset="0"
         id="stop4229" />
      <stop
         style="stop-color:#000000;stop-opacity:0;"
         offset="1"
         id="stop4231" />
    </linearGradient>
    <linearGradient
       gradientTransform="matrix(1.4285732,0,0,1.4226499,-159.10275,-232.80582)"
       gradientUnits="userSpaceOnUse"
       y2="531.79797"
       x2="408.57147"
       y1="524.79797"
       x1="401.57144"
       id="linearGradient4385"
       xlink:href="#linearGradient4227"
       inkscape:collect="always" />
    <linearGradient
       inkscape:collect="always"
       id="linearGradient4290">
      <stop
         style="stop-color:#7cbaf8;stop-opacity:1"
         offset="0"
         id="stop4292" />
      <stop
         style="stop-color:#f4fcff;stop-opacity:1"
         offset="1"
         id="stop4294" />
    </linearGradient>
    <linearGradient
       inkscape:collect="always"
       xlink:href="#linearGradient4290"
       id="linearGradient4313"
       x1="430.57144"
       y1="532.79797"
       x2="430.57144"
       y2="514.79797"
       gradientUnits="userSpaceOnUse"
       gradientTransform="matrix(0.99945774,0,0,0.99945752,-19.772483,0.27926933)" />
  </defs>
  <sodipodi:namedview
     id="base"
     pagecolor="#ffffff"
     bordercolor="#666666"
     borderopacity="1.0"
     inkscape:pageopacity="0"
     inkscape:pageshadow="2"
     inkscape:zoom="17.062499"
     inkscape:cx="24.668012"
     inkscape:cy="25.101137"
     inkscape:document-units="px"
     inkscape:current-layer="layer1"
     showgrid="true"
     fit-margin-top="0"
     fit-margin-left="0"
     fit-margin-right="0"
     fit-margin-bottom="0"
     inkscape:window-width="1920"
     inkscape:window-height="1021"
     inkscape:window-x="-4"
     inkscape:window-y="0"
     inkscape:window-maximized="1"
     inkscape:showpageshadow="false"
     borderlayer="true"
     showguides="true"
     inkscape:object-nodes="true"
     inkscape:snap-global="false">
    <inkscape:grid
       type="xygrid"
       id="grid4063" />
    <sodipodi:guide
       position="1.1650391e-05,47.999996"
       orientation="4,0"
       id="guide4146" />
    <sodipodi:guide
       position="1.1650391e-05,43.999996"
       orientation="0,48"
       id="guide4148" />
    <sodipodi:guide
       position="48.000012,43.999996"
       orientation="-4,0"
       id="guide4150" />
    <sodipodi:guide
       position="48.000012,47.999996"
       orientation="0,-48"
       id="guide4152" />
    <sodipodi:guide
       position="1.1650391e-05,4.0000264"
       orientation="4,0"
       id="guide4154" />
    <sodipodi:guide
       position="1.1650391e-05,2.6367188e-05"
       orientation="0,48"
       id="guide4156" />
    <sodipodi:guide
       position="48.000012,2.6367188e-05"
       orientation="-4,0"
       id="guide4158" />
    <sodipodi:guide
       position="48.000012,4.0000264"
       orientation="0,-48"
       id="guide4160" />
    <sodipodi:guide
       position="48.000012,48.000026"
       orientation="0,-4"
       id="guide4162" />
    <sodipodi:guide
       position="44.000012,48.000026"
       orientation="48,0"
       id="guide4164" />
    <sodipodi:guide
       position="44.000012,2.6367188e-05"
       orientation="0,4"
       id="guide4166" />
    <sodipodi:guide
       position="48.000012,2.6367188e-05"
       orientation="-48,0"
       id="guide4168" />
    <sodipodi:guide
       position="4.0000422,48.000026"
       orientation="0,-4"
       id="guide4170" />
    <sodipodi:guide
       position="4.2167969e-05,48.000026"
       orientation="48,0"
       id="guide4172" />
    <sodipodi:guide
       position="4.2167969e-05,2.6367188e-05"
       orientation="0,4"
       id="guide4174" />
    <sodipodi:guide
       position="4.0000422,2.6367188e-05"
       orientation="-48,0"
       id="guide4176" />
  </sodipodi:namedview>
  <metadata
     id="metadata5458">
    <rdf:RDF>
      <cc:Work
         rdf:about="">
        <dc:format>image/svg+xml</dc:format>
        <dc:type
           rdf:resource="http://purl.org/dc/dcmitype/StillImage" />
        <dc:title></dc:title>
      </cc:Work>
    </rdf:RDF>
  </metadata>
  <g
     inkscape:label="Capa 1"
     inkscape:groupmode="layer"
     id="layer1"
     transform="translate(-384.57143,-499.798)">
    <path
       style="opacity:1;fill:url(#linearGradient4217);fill-opacity:1;stroke:none"
       d="m 392.57142,503.79803 0,39.99997 32,0 1e-5,-30 -10,-10 z"
       id="rect4144"
       inkscape:connector-curvature="0"
       sodipodi:nodetypes="cccccc" />
    <path
       style="fill:#313437;fill-opacity:1;fill-rule:evenodd;stroke:none;stroke-width:1px;stroke-linecap:butt;stroke-linejoin:miter;stroke-opacity:1"
       d="m 424.57142,513.798 -9.99999,-9.99997 0,9.99997 z"
       id="path4164"
       inkscape:connector-curvature="0" />
    <path
       inkscape:connector-curvature="0"
       id="path4306"
       d="m 414.57143,513.798 10,9.95856 0,-9.95856 z"
       style="opacity:0.2;fill:url(#linearGradient4385);fill-opacity:1;fill-rule:evenodd;stroke:none;stroke-width:1px;stroke-linecap:butt;stroke-linejoin:miter;stroke-opacity:1" />
    <path
       style="opacity:1;fill:url(#linearGradient4313);fill-opacity:1;stroke:none;stroke-width:1.29999995;stroke-linecap:round;stroke-miterlimit:4;stroke-dasharray:none;stroke-opacity:1"
       d="m 406.56763,514.798 a 6.9962042,6.9962026 0 0 0 -6.9962,6.9962 6.9962042,6.9962026 0 0 0 6.9962,6.99621 6.9962042,6.9962026 0 0 0 4.18328,-1.39964 l 5.10465,5.10465 0.30257,0.30258 1.4133,-1.4133 -0.30257,-0.30257 -5.10465,-5.10465 a 6.9962042,6.9962026 0 0 0 1.39963,-4.18328 6.9962042,6.9962026 0 0 0 -6.99621,-6.9962 z m 0,1.99892 a 4.9972887,4.9972876 0 0 1 4.99729,4.99728 4.9972887,4.9972876 0 0 1 -0.0254,0.49973 4.9972887,4.9972876 0 0 1 -0.80621,2.25269 4.9972887,4.9972876 0 0 1 -1.41329,1.41329 4.9972887,4.9972876 0 0 1 -0.38066,0.22644 4.9972887,4.9972876 0 0 1 -0.0488,0.0293 4.9972887,4.9972876 0 0 1 -0.01,0.004 4.9972887,4.9972876 0 0 1 -0.44312,0.20497 4.9972887,4.9972876 0 0 1 -0.43531,0.15227 4.9972887,4.9972876 0 0 1 -0.0371,0.0137 4.9972887,4.9972876 0 0 1 -0.006,0.002 4.9972887,4.9972876 0 0 1 -0.45483,0.10736 4.9972887,4.9972876 0 0 1 -0.0254,0.006 4.9972887,4.9972876 0 0 1 -0.004,0 4.9972887,4.9972876 0 0 1 -0.36698,0.0508 4.9972887,4.9972876 0 0 1 -0.14836,0.0195 4.9972887,4.9972876 0 0 1 -0.39237,0.0156 4.9972887,4.9972876 0 0 1 -4.99728,-4.99729 4.9972887,4.9972876 0 0 1 0.0254,-0.49973 4.9972887,4.9972876 0 0 1 2.27221,-3.70502 4.9972887,4.9972876 0 0 1 0.88819,-0.45288 4.9972887,4.9972876 0 0 1 1.81151,-0.33966 z"
       id="path4297"
       inkscape:connector-curvature="0" />
  </g>
</svg>
