<?xml version="1.0" encoding="UTF-8" standalone="no"?>
<!-- Created with Inkscape (http://www.inkscape.org/) -->

<svg
   xmlns:dc="http://purl.org/dc/elements/1.1/"
   xmlns:cc="http://creativecommons.org/ns#"
   xmlns:rdf="http://www.w3.org/1999/02/22-rdf-syntax-ns#"
   xmlns:svg="http://www.w3.org/2000/svg"
   xmlns="http://www.w3.org/2000/svg"
   xmlns:xlink="http://www.w3.org/1999/xlink"
   xmlns:sodipodi="http://sodipodi.sourceforge.net/DTD/sodipodi-0.dtd"
   xmlns:inkscape="http://www.inkscape.org/namespaces/inkscape"
   width="48px"
   height="48px"
   id="svg2985"
   version="1.1"
   inkscape:version="0.91 r13725"
   sodipodi:docname="konquerer.svg">
  <defs
     id="defs2987">
    <linearGradient
       inkscape:collect="always"
       id="linearGradient4458">
      <stop
         style="stop-color:#95a5a6;stop-opacity:1"
         offset="0"
         id="stop4460" />
      <stop
         style="stop-color:#eff0f1;stop-opacity:1"
         offset="1"
         id="stop4462" />
    </linearGradient>
    <linearGradient
       id="linearGradient4501">
      <stop
         id="stop4503"
         offset="0"
         style="stop-color:#f67400;stop-opacity:1;" />
      <stop
         id="stop4505"
         offset="1"
         style="stop-color:#ed1515;stop-opacity:1;" />
    </linearGradient>
    <linearGradient
       id="linearGradient4491">
      <stop
         style="stop-color:#212329;stop-opacity:1;"
         offset="0"
         id="stop4493" />
      <stop
         style="stop-color:#31363b;stop-opacity:1;"
         offset="1"
         id="stop4495" />
    </linearGradient>
    <linearGradient
       y2="561.69012"
       x2="414.09818"
       y1="539.0874"
       x1="390.87805"
       gradientTransform="matrix(1.1713132,0,0,1.1713132,-442.46606,-613.17725)"
       gradientUnits="userSpaceOnUse"
       id="linearGradient3097"
       xlink:href="#linearGradient4227-4"
       inkscape:collect="always" />
    <linearGradient
       id="linearGradient4227-4"
       inkscape:collect="always">
      <stop
         id="stop4229-6"
         offset="0"
         style="stop-color:#292c2f;stop-opacity:1" />
      <stop
         id="stop4231-9"
         offset="1"
         style="stop-color:#000000;stop-opacity:0;" />
    </linearGradient>
    <linearGradient
       inkscape:collect="always"
       xlink:href="#linearGradient4458"
       id="linearGradient4464"
       x1="-44.393877"
       y1="-16.970562"
       x2="-14.393877"
       y2="-16.970562"
       gradientUnits="userSpaceOnUse"
       gradientTransform="translate(58.787754,33.941125)" />
    <linearGradient
       inkscape:collect="always"
       xlink:href="#linearGradient4458"
       id="linearGradient4472"
       x1="6"
       y1="3"
       x2="40"
       y2="37"
       gradientUnits="userSpaceOnUse"
       gradientTransform="matrix(-1,0,0,-1,48,48)" />
    <linearGradient
       inkscape:collect="always"
       xlink:href="#linearGradient4227-4"
       id="linearGradient4604"
       x1="24.817165"
       y1="32.817165"
       x2="32.066715"
       y2="40.066715"
       gradientUnits="userSpaceOnUse" />
    <linearGradient
       gradientUnits="userSpaceOnUse"
       y2="503.798"
       x2="409.57144"
       y1="543.79797"
       x1="409.57144"
       id="linearGradient4174"
       xlink:href="#linearGradient4143"
       inkscape:collect="always"
       gradientTransform="matrix(0.65,0,0,0.65,-241.57143,-316.4687)" />
    <linearGradient
       inkscape:collect="always"
       id="linearGradient4143">
      <stop
         style="stop-color:#197cf1;stop-opacity:1"
         offset="0"
         id="stop4145" />
      <stop
         style="stop-color:#20bcfa;stop-opacity:1"
         offset="1"
         id="stop4147" />
    </linearGradient>
    <linearGradient
       id="linearGradient4290"
       inkscape:collect="always">
      <stop
         id="stop4292"
         offset="0"
         style="stop-color:#7cbaf8;stop-opacity:1" />
      <stop
         id="stop4294"
         offset="1"
         style="stop-color:#f4fcff;stop-opacity:1" />
    </linearGradient>
    <linearGradient
       inkscape:collect="always"
       xlink:href="#linearGradient4290"
       id="linearGradient4161-1"
       x1="16.000011"
       y1="29.999973"
       x2="16.000011"
       y2="1.999974"
       gradientUnits="userSpaceOnUse"
       gradientTransform="matrix(0.97511336,0,0,0.97511336,8.3734405,8.393396)" />
  </defs>
  <sodipodi:namedview
     id="base"
     pagecolor="#ffffff"
     bordercolor="#666666"
     borderopacity="1.0"
     inkscape:pageopacity="0.0"
     inkscape:pageshadow="2"
     inkscape:zoom="1"
     inkscape:cx="21.784654"
     inkscape:cy="18.424556"
     inkscape:current-layer="layer1"
     showgrid="false"
     inkscape:grid-bbox="true"
     inkscape:document-units="px"
     inkscape:snap-global="true"
     inkscape:window-width="2560"
     inkscape:window-height="1508"
     inkscape:window-x="0"
     inkscape:window-y="0"
     inkscape:window-maximized="1"
     inkscape:snap-bbox="true"
     inkscape:bbox-nodes="true">
    <inkscape:grid
       type="xygrid"
       id="grid2993" />
  </sodipodi:namedview>
  <metadata
     id="metadata2990">
    <rdf:RDF>
      <cc:Work
         rdf:about="">
        <dc:format>image/svg+xml</dc:format>
        <dc:type
           rdf:resource="http://purl.org/dc/dcmitype/StillImage" />
        <dc:title />
      </cc:Work>
    </rdf:RDF>
  </metadata>
  <g
     id="layer1"
     inkscape:label="Layer 1"
     inkscape:groupmode="layer">
    <circle
       style="color:#000000;display:inline;overflow:visible;visibility:visible;opacity:1;fill:url(#linearGradient4464);fill-opacity:1;fill-rule:nonzero;stroke:none;stroke-width:3;stroke-linecap:round;stroke-linejoin:round;stroke-miterlimit:4;stroke-dasharray:none;stroke-opacity:1;marker:none;enable-background:accumulate"
       id="path4212-7"
       cx="29.393879"
       cy="16.970562"
       r="15"
       transform="matrix(0.96592583,0.25881905,-0.25881905,0.96592583,0,0)" />
    <path
       style="color:#000000;display:inline;overflow:visible;visibility:visible;opacity:1;fill:url(#linearGradient4472);fill-opacity:1;fill-rule:nonzero;stroke:none;stroke-width:3;stroke-linecap:round;stroke-linejoin:round;stroke-miterlimit:4;stroke-dasharray:none;stroke-opacity:1;marker:none;enable-background:accumulate"
       d="m 27.167969,43.736328 a 20,20 0 0 0 3.958984,-1.054688 l -0.34375,-3.117187 a 17,17 0 0 0 3.306641,-1.90625 l 2.521484,1.851562 a 20,20 0 0 0 2.896484,-2.902343 l -1.849609,-2.517578 a 17,17 0 0 0 1.919922,-3.304688 L 42.664062,31.125 a 20,20 0 0 0 1.060547,-3.962891 L 40.882812,25.914062 A 17,17 0 0 0 41,24 17,17 0 0 0 40.871094,22.091797 l 2.865234,-1.259766 A 20,20 0 0 0 42.68164,16.873047 l -3.117187,0.34375 a 17,17 0 0 0 -1.90625,-3.306641 l 1.851562,-2.521484 A 20,20 0 0 0 36.607422,8.4921879 L 34.089844,10.341797 A 17,17 0 0 0 30.785156,8.4218749 L 31.125,5.3359379 a 20,20 0 0 0 -3.962891,-1.060547 l -1.248047,2.841797 A 17,17 0 0 0 24,6.9999999 17,17 0 0 0 22.091797,7.1289059 l -1.259766,-2.865234 a 20,20 0 0 0 -3.958984,1.054687 l 0.34375,3.117188 A 17,17 0 0 0 13.910156,10.341797 L 11.388672,8.4902339 A 20,20 0 0 0 8.4921879,11.392578 l 1.8496091,2.517578 A 17,17 0 0 0 8.4218749,17.214844 L 5.3359379,16.875 a 20,20 0 0 0 -1.060547,3.962891 l 2.841797,1.248047 A 17,17 0 0 0 6.9999999,24 a 17,17 0 0 0 0.128906,1.908203 l -2.865234,1.259766 a 20,20 0 0 0 1.054687,3.958984 l 3.117188,-0.34375 a 17,17 0 0 0 1.9062501,3.306641 l -1.8515631,2.521484 a 20,20 0 0 0 2.9023441,2.896484 l 2.517578,-1.849609 a 17,17 0 0 0 3.304688,1.919922 L 16.875,42.664062 a 20,20 0 0 0 3.962891,1.060547 l 1.248047,-2.841797 A 17,17 0 0 0 24,41 17,17 0 0 0 25.908203,40.871094 l 1.259766,2.865234 z M 24,38 A 14,14 0 0 1 9.9999999,24 14,14 0 0 1 24,9.9999999 14,14 0 0 1 38,24 14,14 0 0 1 24,38 Z"
       id="path4162"
       inkscape:connector-curvature="0" />
    <path
       style="color:#000000;display:inline;overflow:visible;visibility:visible;opacity:1;fill:#95a5a6;fill-opacity:1;fill-rule:nonzero;stroke:none;stroke-width:3;stroke-linecap:round;stroke-linejoin:round;stroke-miterlimit:4;stroke-dasharray:none;stroke-opacity:1;marker:none;enable-background:accumulate"
       d="m 16.978516,5.2792969 c -0.03519,0.012922 -0.07035,0.025943 -0.105469,0.039063 l 0.238281,2.1699218 c 0.03509,-0.0177 0.07025,-0.035278 0.105469,-0.052734 z m 14.041015,0.021484 -0.234375,2.1210938 c 0.03521,0.015506 0.07037,0.031131 0.105469,0.046875 L 31.125,5.3359375 c -0.03512,-0.011817 -0.07028,-0.023535 -0.105469,-0.035156 z m 8.085938,5.6386718 -1.447266,1.970703 c 0.121646,0.169678 0.240156,0.341582 0.355469,0.515625 l 1.496094,-2.037109 C 39.377271,11.236905 39.24249,11.087148 39.105469,10.939453 Z m -30.2109378,0.002 c -0.1363799,0.148355 -0.2705098,0.298763 -0.4023437,0.451172 l 1.5,2.041016 C 10.105484,13.256972 10.22204,13.082463 10.341797,12.910156 Z m 34.6484378,8.97461 -2.671875,1.175781 c 0.03331,0.322162 0.05741,0.645211 0.07227,0.96875 l 2.792969,-1.228516 c -0.0573,-0.306805 -0.121767,-0.612227 -0.193359,-0.916015 z m -39.074219,0.0078 c -0.071562,0.30314 -0.1360327,0.607911 -0.1933594,0.914063 l 2.7753906,1.21875 c 0.012869,-0.324135 0.035014,-0.647835 0.066406,-0.970703 z m 2.5566406,3.501953 C 7.0136917,23.617031 7.0052269,23.808464 7,24 c 0.010206,0.313614 0.029094,0.626885 0.056641,0.939453 l 0.072266,-0.03125 C 7.0728099,24.415807 7.0382717,23.921194 7.0253906,23.425781 Z m 33.9492184,0.148438 c -0.01294,0.447649 -0.04356,0.894612 -0.0918,1.339843 l 0.06641,0.0293 C 40.974882,24.629437 40.991815,24.314863 41,24 c -0.0067,-0.142028 -0.01515,-0.283966 -0.02539,-0.425781 z m 2.556641,3.501953 C 43.323303,28.11379 43.03333,29.133267 42.664062,30.125 l -3.085937,-0.339844 c -0.51372,1.170228 -1.157763,2.278795 -1.919922,3.304688 l 0.349609,0.476562 c 0.60956,-0.875749 1.135318,-1.806941 1.570313,-2.78125 L 42.664062,31.125 c 0.488416,-1.28112 0.8438,-2.609067 1.060547,-3.962891 z m -39.0742188,0.0078 -0.1933593,0.08398 c 0.2151108,1.352286 0.5685272,2.678906 1.0546875,3.958984 l 3.1171875,-0.34375 c 0.4282215,0.97693 0.947438,1.911389 1.5507812,2.791016 L 10.341797,33.089844 C 9.5842706,32.062681 8.9448248,30.953479 8.4355469,29.783203 l -3.1171875,0.34375 C 4.9513789,29.136955 4.6633693,28.119452 4.4570312,27.083984 Z m 34.6484378,8.97461 c -0.758217,0.888313 -1.592787,1.708505 -2.494141,2.451172 l -2.521484,-1.851563 c -1.027163,0.757526 -2.136365,1.396972 -3.306641,1.90625 l 0.105469,0.947266 c 1.131299,-0.499563 2.204709,-1.12108 3.201172,-1.853516 l 2.521484,1.851563 c 1.06238,-0.865659 2.032974,-1.838217 2.896484,-2.902344 z m -30.2109378,0.002 -0.4042968,0.550781 c 0.8656588,1.06238 1.8382166,2.032974 2.9023436,2.896484 l 2.517578,-1.849609 c 0.994938,0.739106 2.067722,1.367188 3.199219,1.873047 l 0.105469,-0.953125 c -1.170228,-0.51372 -2.278795,-1.157763 -3.304688,-1.919922 l -2.517578,1.849609 C 10.490038,37.76656 9.6541611,36.947675 8.8945312,36.060547 Z M 25.908203,39.871094 C 25.275058,39.949837 24.637983,39.992874 24,40 c -0.639717,-0.003 -1.278754,-0.04214 -1.914062,-0.117188 l -1.248047,2.841797 c -1.316782,-0.212317 -2.609023,-0.555824 -3.857422,-1.02539 L 16.875,42.664062 c 1.28112,0.488416 2.609067,0.8438 3.962891,1.060547 l 1.248047,-2.841797 C 22.721246,40.957857 23.360283,40.996982 24,41 c 0.637983,-0.0071 1.275058,-0.05016 1.908203,-0.128906 l 1.259766,2.865234 c 1.352286,-0.215111 2.678906,-0.568527 3.958984,-1.054687 l -0.105469,-0.960938 c -1.247489,0.465989 -2.538401,0.806219 -3.853515,1.015625 z"
       id="path4162-5"
       inkscape:connector-curvature="0"
       sodipodi:nodetypes="ccccccccccccccccccccccccccccccccccccccccccccccccccccccccccccccccccccccccccccccccccccccccccc" />
    <path
       style="fill:url(#linearGradient4604);fill-rule:evenodd;stroke:none;stroke-width:1px;stroke-linecap:butt;stroke-linejoin:miter;stroke-opacity:1;fill-opacity:1;opacity:0.2"
       d="M 33 15 L 15 33 L 22.960938 40.960938 C 23.306748 40.983753 23.653305 40.998364 24 41 C 24.637983 40.9929 25.275058 40.94984 25.908203 40.871094 L 27.167969 43.736328 C 28.520255 43.521217 29.846875 43.167801 31.126953 42.681641 L 30.888672 40.511719 L 30.783203 39.564453 C 31.953479 39.055175 33.062681 38.415729 34.089844 37.658203 L 36.611328 39.509766 C 37.673708 38.644107 38.644303 37.671549 39.507812 36.607422 L 38.007812 34.566406 L 37.658203 34.089844 C 38.420362 33.063951 39.064405 31.955384 39.578125 30.785156 L 42.664062 31.125 C 43.152479 29.84388 43.507862 28.515933 43.724609 27.162109 L 40.949219 25.943359 L 40.882812 25.914062 C 40.957857 25.278754 40.996982 24.639717 41 24 C 40.98979 23.686386 40.970909 23.373115 40.943359 23.060547 L 40.962891 23.052734 C 40.960706 23.020171 40.957451 22.987628 40.955078 22.955078 L 33 15 z "
       id="path4596" />
    <circle
       style="color:#000000;display:inline;overflow:visible;visibility:visible;opacity:1;fill:#2a6bae;fill-opacity:1;fill-rule:nonzero;stroke:none;stroke-width:3;stroke-linecap:round;stroke-linejoin:round;stroke-miterlimit:4;stroke-dasharray:none;stroke-opacity:1;marker:none;enable-background:accumulate"
       id="path4212"
       cx="-29.393877"
       cy="-16.970562"
       r="13"
       transform="matrix(-0.96592583,-0.25881905,0.25881905,-0.96592583,0,0)" />
    <g
       id="g4374"
       transform="matrix(0.9230769,0,0,0.9230769,1.8461546,1.8461543)">
      <rect
         ry="12.99999"
         y="11.000003"
         x="11.000007"
         height="25.999981"
         width="25.999992"
         id="rect4166"
         style="opacity:1;fill:url(#linearGradient4174);fill-opacity:1;stroke:none;stroke-width:2.79999995;stroke-miterlimit:4;stroke-dasharray:none;stroke-opacity:0.55026455" />
      <path
         id="path34-7"
         d="m 24,11 c -1.639694,0 -3.200389,0.312793 -4.642676,0.862012 -0.104927,0.09642 -0.241218,0.170424 -0.349122,0.16123 -0.01466,-0.0013 -0.02954,-0.01105 -0.04443,-0.0165 -0.710951,0.297455 -1.385369,0.661913 -2.024902,1.075293 0.08314,0.13488 0.107801,0.285057 -0.06348,0.358008 -0.02871,0.01246 -0.390372,0.0488 -0.516698,0.0457 -1.818544,1.32138 -3.277347,3.098626 -4.209766,5.17334 0.01487,-0.0021 0.02786,-0.0091 0.04316,-0.01016 0.141524,-0.0019 0.34523,0.0387 0.481152,0.06729 0.125437,0.0258 0.226606,0.109895 0.335156,0.118066 0.308048,0.0234 0.382148,-0.216165 0.633496,-0.35039 0.259669,0.03673 0.431984,-0.04397 0.666504,-0.01777 0.159861,0.01768 0.275336,0.188485 0.399902,0.198047 0.1048,0.01066 0.19694,-0.09804 0.29834,-0.08252 0.09852,0.01515 0.268353,0.229998 0.284375,0.350391 0.02028,0.149857 -0.110237,0.284814 -0.06729,0.449413 0.156969,0.159881 0.442203,0.19227 0.666505,0.284376 0.14608,-0.120367 0.01931,-0.34373 0,-0.517969 -0.0019,-0.07667 0.01066,-0.145139 0,-0.21582 -0.01365,-0.11999 -0.06506,-0.229924 -0.06602,-0.332618 -0.0019,-0.474311 0.382632,-0.696296 0.700781,-0.883593 0.137709,-0.08165 0.246142,-0.224621 0.365625,-0.284375 0.168759,-0.08463 0.294449,-0.104306 0.43418,-0.182813 0.252505,-0.141836 0.469079,-0.255687 0.666503,-0.416406 0.09128,-0.215066 0.009,-0.503459 0.0165,-0.716016 0.09135,-0.05597 0.169777,0.02411 0.266601,0.0165 0.152386,-0.03166 0.165028,-0.246758 0.251367,-0.332617 0.05031,-0.0492 0.187737,-0.08445 0.250098,-0.1333 0.151834,-0.119133 0.201268,-0.299061 0.333887,-0.350391 0.04758,-0.01924 0.157353,-0.014 0.232324,-0.03428 0.0987,-0.02613 0.239151,-0.142947 0.399903,-0.198047 0.104806,-0.03666 0.344673,-0.0437 0.384668,-0.08379 0.0492,-0.05031 -9.1e-4,-0.191332 0.0165,-0.266602 0.08079,-0.376272 0.647607,-0.456029 0.982617,-0.582714 0.234826,-0.08901 0.475785,-0.25188 0.733789,-0.201856 -0.05051,0.178822 -0.290845,0.115472 -0.250097,0.332617 0.05616,0.301353 0.45978,-0.08635 0.566211,-0.130761 0.203365,-0.08573 0.552035,-0.138059 0.818847,-0.234864 0.233961,-0.08573 0.653443,-0.21608 0.432911,-0.483691 -0.183905,-0.01066 -0.272595,0.215832 -0.432911,0.284375 -0.110688,0.01768 -0.08962,-0.09266 -0.184081,-0.101563 -0.08982,-0.01066 -0.14007,0.08287 -0.232325,0.06729 -0.09166,-0.01515 -0.220511,-0.159365 -0.234863,-0.266602 -0.03666,-0.278252 0.235145,-0.392963 0.35039,-0.600488 -0.07621,-0.251695 -0.424363,-0.0513 -0.634762,-0.149807 0.02022,-0.149844 0.175352,-0.253184 0.350391,-0.281836 0.143494,-0.02431 0.465528,-0.01189 0.550977,0.06475 0.04933,0.04212 0.0027,0.147202 0.08379,0.21709 0.0849,0.07669 0.189375,0.06878 0.299609,0.05078 0.03978,-0.189924 -0.246962,-0.142291 -0.215821,-0.267871 0.22516,-0.14729 0.591432,-0.02634 0.867091,-0.06729 0.158691,-0.0234 0.325296,-0.13542 0.465917,-0.214551 0.133744,-0.07621 0.307526,-0.208433 0.449415,-0.08379 0.03842,0.136129 -0.123559,0.18117 -0.199317,0.248828 -0.255047,0.226883 -0.517772,0.486789 -0.716015,0.750293 0.121634,0.118625 0.34266,0.05919 0.548437,0.08379 0.08046,0.01066 0.181536,0.0345 0.266602,0.04951 0.09935,0.01768 0.205287,0.01273 0.283105,0.03301 0.14001,0.03432 0.177488,0.184082 0.316113,0.184082 0.22804,-4.09e-4 0.23075,-0.247076 0.101563,-0.401171 0.04082,-0.15732 0.104749,-0.238914 0.04951,-0.349121 -0.102713,-0.205452 -0.479556,-0.01063 -0.498926,-0.266602 -0.01235,-0.166192 0.139055,-0.158767 0.199317,-0.283106 -0.02737,-0.321126 0.263394,-0.344393 0.232324,-0.632226 -0.01365,-0.120393 -0.115018,-0.122056 -0.199317,-0.234863 -0.0422,-0.0555 -0.06425,-0.161756 -0.112987,-0.209473 C 24.791701,11.021137 24.398293,11 24,11 Z m -6.708203,2.622852 0.0013,0 c 0.07761,0.01122 0.171327,0.09443 0.265332,0.101562 0.089,0.002 0.162327,-0.04903 0.217089,-0.03428 0.139373,0.03673 0.198157,0.247223 0.06729,0.350391 -0.108986,0.01365 -0.151454,-0.04724 -0.233594,-0.03301 -0.226389,0.03842 -0.313234,0.481858 -0.482422,0.467187 -0.159549,-0.01365 -0.245899,-0.402242 -0.08379,-0.517968 0.01066,-0.101036 -0.07373,-0.117257 -0.06855,-0.21709 0.04788,-0.06142 0.184777,-0.12748 0.317383,-0.116797 z m -0.750293,0.05205 c 0.04641,0.0013 0.08129,0.01273 0.09902,0.03301 -0.02203,0.177658 -0.161151,0.166018 -0.29834,0.248828 -0.23699,0.143033 -0.374001,0.360971 -0.449414,0.666504 -0.02184,0.08901 -0.255383,0.324448 -0.368164,0.300879 -0.264316,-0.05577 0.07292,-0.542944 0.133301,-0.616992 0.06668,-0.08208 0.156265,-0.154058 0.234863,-0.248828 0.07622,-0.09177 0.125873,-0.215668 0.199316,-0.266602 0.08047,-0.05577 0.310178,-0.12214 0.449415,-0.116797 z m 1.972851,0.599219 c 0.08466,0.0013 0.160772,0.01526 0.195508,0.04951 -0.0544,0.220122 -0.528631,0.162001 -0.702051,0.08252 0.01118,-0.08301 0.140989,-0.105857 0.250098,-0.116797 0.07669,-0.002 0.171932,-0.01777 0.256445,-0.01523 z m -1.079101,0.40625 c 0.05616,-0.0013 0.11348,0.01093 0.172656,0.02666 -0.153407,0.128323 -0.319296,0.201019 -0.582715,0.284375 -0.126659,0.03991 -0.345412,0.08959 -0.366895,-0.05205 -0.02613,-0.173368 0.185225,-0.133026 0.300879,-0.148535 0.145607,-0.02022 0.305489,-0.104989 0.476075,-0.110449 z m 16.554687,0.987696 c -0.0196,0.04718 -0.03406,0.09393 -0.03174,0.139648 0.01066,0.08044 0.09839,0.157798 0.118066,0.266602 0.01066,0.05759 -0.0271,0.182271 0,0.234863 0.08026,0.155655 0.290288,0.04368 0.440528,0.05205 -0.170678,-0.23503 -0.341144,-0.470473 -0.526856,-0.693164 z m 0.851856,1.146386 c -0.02379,0.114845 -0.10196,0.264632 -0.16504,0.360547 -0.145288,0.22098 -0.342632,0.231289 -0.550976,0.349121 -0.173752,0.0985 -0.248536,0.262859 -0.350391,0.43418 -0.110357,0.185055 -0.178749,0.296842 -0.133301,0.564941 -0.148941,0.295445 -0.374459,0.476449 -0.683008,0.616993 -0.09128,0.04115 -0.215876,0.05628 -0.299609,0.116796 -0.06668,0.04791 -0.104585,0.176662 -0.199316,0.283106 -0.116903,0.130084 -0.239428,0.184983 -0.300879,0.284375 -0.04758,0.07669 -0.06443,0.229547 -0.116797,0.332617 -0.07112,0.139991 -0.222695,0.20856 -0.316113,0.35039 -0.04251,0.06559 -0.07097,0.198484 -0.118067,0.284375 -0.105573,0.1919 -0.285984,0.330154 -0.266601,0.498926 0.01924,0.163105 0.204447,0.191699 0.217089,0.333887 0.002,0.08037 -0.05308,0.129489 -0.04951,0.21709 0.002,0.127894 0.08892,0.217697 0.09902,0.316113 0.02477,0.247462 -0.08418,0.346215 -0.130762,0.51543 -0.02204,0.0808 -0.0127,0.171741 -0.03428,0.234863 -0.04082,0.123884 -0.213678,0.235671 -0.217089,0.382129 -0.0013,0.104078 0.106752,0.18778 0.115527,0.333887 0.002,0.100717 -0.04949,0.208267 -0.03174,0.300879 0.03543,0.181376 0.359217,0.392289 0.500195,0.533203 0.188565,0.188571 0.435424,0.334531 0.5167,0.533203 0.06847,0.168727 0.06783,0.38827 0.199316,0.515429 0.09723,0.0939 0.258865,0.152429 0.383398,0.250098 0.116149,0.09117 0.242725,0.169862 0.366895,0.266602 0.202865,0.158704 0.5096,0.475072 0.832812,0.450684 0.168779,-0.01235 0.341753,-0.150081 0.533204,-0.184082 0.196956,-0.03529 0.452558,-0.05348 0.651269,-0.03301 0.152198,0.01515 0.308971,0.106297 0.467188,0.09902 0.16705,-0.01066 0.358605,-0.134169 0.548437,-0.217089 0.152727,-0.06648 0.340154,-0.14014 0.545899,-0.194239 C 36.949606,25.31081 37,24.661178 37,24 37,21.338117 36.204033,18.87089 34.841797,16.814453 Z M 13.341015,21.18291 c -0.27688,0.01515 -0.458325,0.02774 -0.615723,0.09902 -0.360672,0.164125 -0.290955,0.651488 -0.651269,0.766798 -0.124625,0.03978 -0.295721,0.04175 -0.43291,0.06728 -0.118411,0.02164 -0.26265,0.08637 -0.384668,0.08379 -0.03415,-4.62e-4 -0.08188,-0.0259 -0.124414,-0.03936 -0.03211,0.228548 -0.05856,0.459616 -0.07871,0.691895 0.34279,0.06568 0.519685,0.520002 0.822656,0.670312 0.08301,0.04115 0.19148,0.04331 0.29834,0.06729 0.08627,0.01924 0.151754,0.05579 0.234863,0.08379 0.176287,0.05986 0.392205,0.05266 0.533203,0.115527 0.212485,0.09429 0.368255,0.493595 0.550977,0.600488 0.01066,0.107711 -0.02094,0.25231 0.0165,0.332617 0.08629,0.117052 0.208184,0.09126 0.350391,0.167579 0.170118,0.09177 0.222172,0.328742 0.383398,0.401171 0.0557,0.0247 0.195174,0.02153 0.283106,0.04824 0.220935,0.06688 0.293063,0.322469 0.482421,0.266602 0.124215,-0.03666 0.114453,-0.164377 0.134571,-0.283106 0.08207,-0.089 0.171644,-0.229828 0.299609,-0.232324 0.207096,-0.01066 0.225531,0.213994 0.300879,0.415137 0.04245,0.113659 0.15377,0.212724 0.182812,0.332617 0.05168,0.207116 0.02591,0.827074 -0.01777,0.950879 -0.05206,0.151866 -0.257891,0.216285 -0.384667,0.384667 -0.05987,0.07895 -0.08826,0.194608 -0.133302,0.250098 -0.08164,0.09935 -0.202982,0.125382 -0.264062,0.21709 -0.03439,0.05168 -0.06787,0.162508 -0.101563,0.232324 -0.100106,0.212082 -0.233998,0.362362 -0.149804,0.616993 0.03529,0.104806 0.198907,0.174996 0.199316,0.29834 4.55e-4,0.145118 -0.308677,0.275066 -0.332617,0.434179 -0.01768,0.118365 0.09575,0.329655 0.133301,0.483692 0.0275,0.116408 0.247493,0.189167 0.316113,0.266601 0.117,0.131359 0.210497,0.317439 0.317383,0.482422 0.211348,0.324506 0.376944,0.720269 0.582715,1.034668 0.108751,0.164677 0.261431,0.312748 0.333886,0.483691 0.03698,0.08627 0.0319,0.189083 0.06602,0.266602 0.119126,0.268853 0.645142,0.549557 0.916602,0.683008 0.127081,0.06169 0.268051,0.08396 0.384668,0.148535 0.176637,0.09851 0.526555,0.363074 0.615723,0.517969 0.07942,0.139223 0.128942,0.478115 0.167578,0.699511 0.05168,0.292572 5.79e-4,0.517214 0.0165,0.834082 0.01066,0.17134 0.06547,0.343655 0.06729,0.51543 6.5e-4,0.06012 -0.03161,0.104916 -0.03428,0.166309 -9.5e-5,0.01016 0.0024,0.02146 0.0025,0.03174 C 20.265803,36.578017 22.079979,37 24,37 c 0.346892,0 0.689702,-0.01802 1.029589,-0.04443 0.01481,-0.0256 0.02861,-0.05214 0.04698,-0.07617 0.07821,-0.1027 0.147706,-0.192658 0.199316,-0.283106 0.04921,-0.304323 -0.121363,-0.516911 -0.04951,-0.7833 0.07957,-0.299241 0.493309,-0.481988 0.7833,-0.616993 0.09976,-0.04635 0.201862,-0.1216 0.283106,-0.149804 0.200694,-0.06984 0.451264,-0.03209 0.634765,-0.09902 0.312286,-0.114283 0.344915,-0.449264 0.498926,-0.733788 0.07258,-0.134745 0.168571,-0.269659 0.182812,-0.365625 0.01235,-0.08628 -0.03162,-0.167423 -0.01777,-0.269141 0.01515,-0.100718 0.105364,-0.187717 0.133301,-0.29834 0.03666,-0.144372 0.05205,-0.355876 0.05205,-0.516699 0,-0.131996 -0.06177,-0.247821 -0.06729,-0.366895 -0.02164,-0.432328 0.156148,-0.480722 0.316113,-0.716016 0.08029,-0.116883 0.110292,-0.250121 0.166309,-0.333887 0.268534,-0.400647 0.734484,-0.594069 0.700781,-1.199707 -0.01118,-0.200407 -0.136942,-0.653311 -0.284375,-0.717284 -0.08438,-0.03673 -0.277884,-0.0021 -0.399902,-0.04951 -0.393966,-0.146965 -0.625198,-0.635317 -1.033398,-0.666504 -0.08719,-0.01066 -0.167222,0.03577 -0.265333,0.03428 -0.161583,-0.01066 -0.405104,-0.113171 -0.583984,-0.133302 -0.113653,-0.01235 -0.26565,0.03386 -0.333887,0 -0.104065,-0.05057 -0.11466,-0.242422 -0.199317,-0.299609 -0.06709,-0.04622 -0.197799,-0.06211 -0.299609,-0.101562 -0.164144,-0.06305 -0.294294,-0.13661 -0.483691,-0.149805 -0.0585,-0.0019 -0.131268,0.02811 -0.199316,0.01777 -0.104806,-0.01768 -0.187675,-0.141735 -0.284375,-0.200586 -0.121108,-0.07372 -0.23303,-0.109387 -0.283106,-0.214551 0.109454,-0.359014 -0.193008,-0.459076 -0.266601,-0.666504 -0.03529,-0.0972 -0.01896,-0.214169 -0.04951,-0.300879 -0.04349,-0.124208 -0.166264,-0.195993 -0.300879,-0.299609 -0.241189,-0.185627 -0.455116,-0.359925 -0.799805,-0.402441 -0.151541,-0.01924 -0.301888,0.04539 -0.48496,0.03427 -0.194019,-0.01235 -0.437583,-0.181984 -0.582715,-0.347851 -0.141076,-0.161928 -0.209709,-0.30726 -0.332618,-0.384668 -0.116428,-0.07485 -0.270889,-0.07269 -0.35039,-0.148536 -0.03543,-0.03295 -0.02933,-0.08971 -0.06729,-0.167577 -0.05856,-0.121238 -0.15681,-0.188625 -0.08379,-0.333887 -0.132808,-0.06825 -0.136496,0.126756 -0.281836,0.101562 -0.129558,-0.183898 -0.238994,-0.271021 -0.533203,-0.21709 -0.134726,0.02477 -0.209907,0.195085 -0.366895,0.199317 -0.128739,0.01066 -0.229869,-0.143424 -0.399902,-0.167578 -0.128336,-0.01768 -0.274268,0.03487 -0.365625,0.01777 -0.142259,-0.02847 -0.186166,-0.146869 -0.316114,-0.232324 -0.09528,-0.06266 -0.280437,-0.169281 -0.333886,-0.167578 -0.167531,0.01066 -0.286927,0.356028 -0.517969,0.233593 -0.112275,-0.142278 0.182898,-0.217264 0.04951,-0.35039 -0.101023,-0.101023 -0.185839,0.04572 -0.266601,0.101562 -0.09255,0.06396 -0.179546,0.127184 -0.281836,0.16504 -0.228956,0.08572 -0.372045,0.04081 -0.550977,0.1333 -0.165678,0.08582 -0.172722,0.229401 -0.266601,0.399902 -0.07669,0.139685 -0.251571,0.34323 -0.366894,0.351661 -0.139692,0.01066 -0.273199,-0.19531 -0.399903,-0.250098 -0.381706,-0.165341 -0.566628,0.14683 -0.883594,0.151074 -0.294164,0.01066 -0.714292,-0.475 -0.699511,-0.751562 0.002,-0.168753 0.09705,-0.424742 0.116796,-0.633496 0.01768,-0.166036 0.13139,-0.266122 0.133301,-0.417676 0.002,-0.202449 -0.268557,-0.358111 -0.399902,-0.382129 -0.311415,-0.05727 -0.743782,0.125285 -1.100684,-0.01777 -0.06825,-0.112957 0.07981,-0.191002 0.118067,-0.300878 0.02164,-0.06253 0.0091,-0.145846 0.03174,-0.214552 0.03958,-0.106151 0.150809,-0.188409 0.200586,-0.300878 0.03712,-0.08583 0.04644,-0.209624 0.08379,-0.316114 0.04349,-0.121251 0.123928,-0.199335 0.133301,-0.284375 0.01235,-0.112281 -0.03009,-0.242071 -0.118067,-0.316113 z m 4.456055,3.528027 c 0.112976,0.01066 0.127119,0.244015 0.01143,0.262794 -0.124631,0.0193 -0.187984,-0.195468 -0.06728,-0.251368 0.02028,-0.01066 0.04007,-0.01132 0.05586,-0.01016 l 0,-0.0013 z"
         style="fill:url(#linearGradient4161-1);fill-opacity:1;fill-rule:nonzero;stroke:none"
         inkscape:connector-curvature="0" />
    </g>
  </g>
</svg>
