<?xml version="1.0" encoding="UTF-8" standalone="no"?>
<!-- Created with Inkscape (http://www.inkscape.org/) -->

<svg
   xmlns:dc="http://purl.org/dc/elements/1.1/"
   xmlns:cc="http://creativecommons.org/ns#"
   xmlns:rdf="http://www.w3.org/1999/02/22-rdf-syntax-ns#"
   xmlns:svg="http://www.w3.org/2000/svg"
   xmlns="http://www.w3.org/2000/svg"
   xmlns:xlink="http://www.w3.org/1999/xlink"
   xmlns:sodipodi="http://sodipodi.sourceforge.net/DTD/sodipodi-0.dtd"
   xmlns:inkscape="http://www.inkscape.org/namespaces/inkscape"
   width="48"
   height="48"
   id="svg5453"
   version="1.1"
   inkscape:version="0.91+devel r"
   sodipodi:docname="LO-base.svg">
  <defs
     id="defs5455">
    <linearGradient
       inkscape:collect="always"
       id="linearGradient4298">
      <stop
         style="stop-color:#b985ce;stop-opacity:1"
         offset="0"
         id="stop4300" />
      <stop
         style="stop-color:#e2cdeb;stop-opacity:1"
         offset="1"
         id="stop4302" />
    </linearGradient>
    <linearGradient
       id="linearGradient4300-1"
       inkscape:collect="always">
      <stop
         id="stop4302-0"
         offset="0"
         style="stop-color:#8e44ad;stop-opacity:1" />
      <stop
         id="stop4304-6"
         offset="1"
         style="stop-color:#9b59b6;stop-opacity:1" />
    </linearGradient>
    <linearGradient
       inkscape:collect="always"
       xlink:href="#linearGradient4300-1"
       id="linearGradient4263"
       gradientUnits="userSpaceOnUse"
       gradientTransform="matrix(0.7272726,0,0,0.68965569,-383.84417,-497.86697)"
       x1="560.78583"
       y1="785.70648"
       x2="560.78583"
       y2="727.70654" />
    <linearGradient
       inkscape:collect="always"
       xlink:href="#linearGradient4410"
       id="linearGradient4288"
       x1="16.000011"
       y1="16"
       x2="31.999985"
       y2="31.999973"
       gradientUnits="userSpaceOnUse"
       gradientTransform="translate(384.57143,499.798)" />
    <linearGradient
       inkscape:collect="always"
       xlink:href="#linearGradient4298"
       id="linearGradient4296"
       x1="24"
       y1="32"
       x2="24"
       y2="16"
       gradientUnits="userSpaceOnUse" />
    <linearGradient
       id="linearGradient4410"
       inkscape:collect="always">
      <stop
         id="stop4412"
         offset="0"
         style="stop-color:#383e51;stop-opacity:1" />
      <stop
         id="stop4414"
         offset="1"
         style="stop-color:#655c6f;stop-opacity:0" />
    </linearGradient>
  </defs>
  <sodipodi:namedview
     id="base"
     pagecolor="#ffffff"
     bordercolor="#666666"
     borderopacity="1.0"
     inkscape:pageopacity="0"
     inkscape:pageshadow="2"
     inkscape:zoom="14.908168"
     inkscape:cx="15.481659"
     inkscape:cy="23.694372"
     inkscape:document-units="px"
     inkscape:current-layer="layer1"
     showgrid="true"
     fit-margin-top="0"
     fit-margin-left="0"
     fit-margin-right="0"
     fit-margin-bottom="0"
     inkscape:window-width="1366"
     inkscape:window-height="670"
     inkscape:window-x="-4"
     inkscape:window-y="29"
     inkscape:window-maximized="1"
     inkscape:showpageshadow="false"
     borderlayer="true"
     showguides="true"
     inkscape:snap-bbox="true"
     inkscape:snap-global="true">
    <inkscape:grid
       type="xygrid"
       id="grid4063" />
    <sodipodi:guide
       position="1.1650391e-05,47.999996"
       orientation="4,0"
       id="guide4146" />
    <sodipodi:guide
       position="39,44"
       orientation="0,48"
       id="guide4148" />
    <sodipodi:guide
       position="48.000012,43.999996"
       orientation="-4,0"
       id="guide4150" />
    <sodipodi:guide
       position="48.000012,47.999996"
       orientation="0,-48"
       id="guide4152" />
    <sodipodi:guide
       position="1.1650391e-05,4.0000264"
       orientation="4,0"
       id="guide4154" />
    <sodipodi:guide
       position="1.1650391e-05,2.6367188e-05"
       orientation="0,48"
       id="guide4156" />
    <sodipodi:guide
       position="48.000012,2.6367188e-05"
       orientation="-4,0"
       id="guide4158" />
    <sodipodi:guide
       position="48.000012,4.0000264"
       orientation="0,-48"
       id="guide4160" />
    <sodipodi:guide
       position="48.000012,48.000026"
       orientation="0,-4"
       id="guide4162" />
    <sodipodi:guide
       position="40,21"
       orientation="48,0"
       id="guide4164" />
    <sodipodi:guide
       position="44.000012,2.6367188e-05"
       orientation="0,4"
       id="guide4166" />
    <sodipodi:guide
       position="48.000012,2.6367188e-05"
       orientation="-48,0"
       id="guide4168" />
    <sodipodi:guide
       position="4.0000422,48.000026"
       orientation="0,-4"
       id="guide4170" />
    <sodipodi:guide
       position="4.2167969e-05,48.000026"
       orientation="48,0"
       id="guide4172" />
    <sodipodi:guide
       position="4.2167969e-05,2.6367188e-05"
       orientation="0,4"
       id="guide4174" />
    <sodipodi:guide
       position="8.0000117,43.999996"
       orientation="13.999969,0"
       id="guide4888" />
    <sodipodi:guide
       position="22.000012,43.999996"
       orientation="0,-14"
       id="guide4894" />
    <sodipodi:guide
       position="16.000012,32.000026"
       orientation="16,0"
       id="guide4238" />
    <sodipodi:guide
       position="16.000012,16.000026"
       orientation="0,16"
       id="guide4240" />
    <sodipodi:guide
       position="32.000012,16.000026"
       orientation="-16,0"
       id="guide4242" />
    <sodipodi:guide
       position="32.000012,32.000026"
       orientation="0,-16"
       id="guide4244" />
  </sodipodi:namedview>
  <metadata
     id="metadata5458">
    <rdf:RDF>
      <cc:Work
         rdf:about="">
        <dc:format>image/svg+xml</dc:format>
        <dc:type
           rdf:resource="http://purl.org/dc/dcmitype/StillImage" />
        <dc:title />
      </cc:Work>
    </rdf:RDF>
  </metadata>
  <g
     inkscape:label="Capa 1"
     inkscape:groupmode="layer"
     id="layer1"
     transform="translate(-384.57143,-499.798)">
    <path
       style="fill:url(#linearGradient4263);fill-opacity:1;stroke:none"
       d="M 8.0097656,4 C 8.0040548,4 8,7.5679947 8,12 l 0,24 c 0,4.432005 0.00405,8 0.00977,8 l 21.80273,0 10.177734,0 C 39.995945,44 40,40.432005 40,36 L 40,34.34375 40,16 28,4 Z"
       transform="translate(384.57143,499.798)"
       id="path4259"
       inkscape:connector-curvature="0"
       sodipodi:nodetypes="sssscsscccs" />
    <path
       style="opacity:1;fill:#713e88;fill-opacity:1;stroke:none;stroke-opacity:1"
       d="m 424.55167,513.798 c 0.006,-0.009 0.01,-2.22564 0.01,-4.99023 0,-2.77 -0.004,-5 -0.01,-5 l -9.98046,0 c -2e-5,0 10e-6,0.01 0,0.01 l 9.98046,9.98047 z"
       id="rect4307"
       inkscape:connector-curvature="0" />
    <rect
       style="fill:#2e3132;fill-opacity:0.29411765;stroke:none"
       id="rect4169-5"
       width="31.999989"
       height="0.99999309"
       x="392.57144"
       y="542.79797" />
    <path
       style="opacity:0.2;fill:url(#linearGradient4288);fill-opacity:1;fill-rule:evenodd;stroke:none;stroke-width:1px;stroke-linecap:butt;stroke-linejoin:miter;stroke-opacity:1"
       d="m 402.57143,516.798 -2,1 0,12 13.09375,14 1.8125,0 9.09375,0 0,-9.65625 0,-8.34375 -9,-9 -0.53516,0.46484 -0.46484,-0.46484 -12,0 z"
       id="path4274"
       inkscape:connector-curvature="0" />
    <path
       style="color:#000000;fill:url(#linearGradient4296);fill-opacity:1;fill-rule:nonzero;stroke:none;stroke-width:2;marker:none;visibility:visible;display:inline;overflow:visible;enable-background:accumulate"
       d="M 24 16 C 19.581722 16 16 16.895431 16 18 L 16 30 C 16 31.10457 19.58172 32 24 32 C 28.41828 32 32 31.10457 32 30 L 32 18 C 32 16.895431 28.418278 16 24 16 z M 24 17 C 27.865993 17 31 17.447715 31 18 C 31 18.552285 27.865993 19 24 19 C 20.134007 19 17 18.552285 17 18 C 17 17.447715 20.134007 17 24 17 z M 17 18.949219 C 18.355198 19.572263 20.963639 20 24 20 C 27.036361 20 29.644802 19.572263 31 18.949219 L 31 22 C 31 22.55228 27.86599 23 24 23 C 20.13401 23 17 22.55228 17 22 L 17 18.949219 z M 17 22.949219 C 18.355198 23.572263 20.963638 24 24 24 C 27.036362 24 29.644802 23.572263 31 22.949219 L 31 26 C 31 26.55228 27.86599 27 24 27 C 20.13401 27 17 26.55228 17 26 L 17 22.949219 z M 17 26.949219 C 18.355198 27.572263 20.963638 28 24 28 C 27.036362 28 29.644802 27.572263 31 26.949219 L 31 30 C 31 30.55228 27.86599 31 24 31 C 20.13401 31 17 30.55228 17 30 L 17 26.949219 z "
       transform="translate(384.57143,499.798)"
       id="path3936" />
  </g>
</svg>
