<?xml version="1.0" encoding="UTF-8" standalone="no"?>
<!-- Created with Inkscape (http://www.inkscape.org/) -->

<svg
   xmlns:dc="http://purl.org/dc/elements/1.1/"
   xmlns:cc="http://creativecommons.org/ns#"
   xmlns:rdf="http://www.w3.org/1999/02/22-rdf-syntax-ns#"
   xmlns:svg="http://www.w3.org/2000/svg"
   xmlns="http://www.w3.org/2000/svg"
   xmlns:xlink="http://www.w3.org/1999/xlink"
   xmlns:sodipodi="http://sodipodi.sourceforge.net/DTD/sodipodi-0.dtd"
   xmlns:inkscape="http://www.inkscape.org/namespaces/inkscape"
   width="48"
   height="48"
   id="svg5453"
   version="1.1"
   inkscape:version="0.91+devel r"
   sodipodi:docname="libreoffice-math.svg">
  <defs
     id="defs5455">
    <linearGradient
       inkscape:collect="always"
       id="linearGradient4283">
      <stop
         style="stop-color:#a0aab4;stop-opacity:1"
         offset="0"
         id="stop4285" />
      <stop
         style="stop-color:#d8dce0;stop-opacity:1"
         offset="1"
         id="stop4287" />
    </linearGradient>
    <linearGradient
       inkscape:collect="always"
       xlink:href="#linearGradient4300-7"
       id="linearGradient4263"
       gradientUnits="userSpaceOnUse"
       gradientTransform="matrix(0.7272726,0,0,0.68965569,0.72726,1.93103)"
       x1="560.78583"
       y1="785.70648"
       x2="560.78583"
       y2="727.70654" />
    <linearGradient
       id="linearGradient4300-7"
       inkscape:collect="always">
      <stop
         id="stop4302-2"
         offset="0"
         style="stop-color:#6c7a89;stop-opacity:1" />
      <stop
         id="stop4304-4"
         offset="1"
         style="stop-color:#768492;stop-opacity:1" />
    </linearGradient>
    <linearGradient
       inkscape:collect="always"
       xlink:href="#linearGradient4283"
       id="linearGradient4289"
       gradientUnits="userSpaceOnUse"
       x1="56.110668"
       y1="1052.3029"
       x2="56.110668"
       y2="1039.3029"
       gradientTransform="translate(-31.11067,-1020.3029)" />
    <linearGradient
       inkscape:collect="always"
       xlink:href="#linearGradient4410"
       id="linearGradient4185"
       x1="16"
       y1="15.999974"
       x2="32"
       y2="31.999973"
       gradientUnits="userSpaceOnUse" />
    <linearGradient
       id="linearGradient4410"
       inkscape:collect="always">
      <stop
         id="stop4412"
         offset="0"
         style="stop-color:#383e51;stop-opacity:1" />
      <stop
         id="stop4414"
         offset="1"
         style="stop-color:#655c6f;stop-opacity:0" />
    </linearGradient>
  </defs>
  <sodipodi:namedview
     id="base"
     pagecolor="#ffffff"
     bordercolor="#666666"
     borderopacity="1.0"
     inkscape:pageopacity="0"
     inkscape:pageshadow="2"
     inkscape:zoom="8"
     inkscape:cx="49.693362"
     inkscape:cy="22.806309"
     inkscape:document-units="px"
     inkscape:current-layer="layer1"
     showgrid="true"
     fit-margin-top="0"
     fit-margin-left="0"
     fit-margin-right="0"
     fit-margin-bottom="0"
     inkscape:window-width="1366"
     inkscape:window-height="670"
     inkscape:window-x="-4"
     inkscape:window-y="29"
     inkscape:window-maximized="1"
     inkscape:showpageshadow="false"
     borderlayer="true"
     showguides="true"
     inkscape:snap-bbox="true"
     inkscape:snap-global="true">
    <inkscape:grid
       type="xygrid"
       id="grid4063" />
    <sodipodi:guide
       position="1.1650391e-05,47.999996"
       orientation="4,0"
       id="guide4146" />
    <sodipodi:guide
       position="39,44"
       orientation="0,48"
       id="guide4148" />
    <sodipodi:guide
       position="48.000012,43.999996"
       orientation="-4,0"
       id="guide4150" />
    <sodipodi:guide
       position="48.000012,47.999996"
       orientation="0,-48"
       id="guide4152" />
    <sodipodi:guide
       position="1.1650391e-05,4.0000264"
       orientation="4,0"
       id="guide4154" />
    <sodipodi:guide
       position="1.1650391e-05,2.6367188e-05"
       orientation="0,48"
       id="guide4156" />
    <sodipodi:guide
       position="48.000012,2.6367188e-05"
       orientation="-4,0"
       id="guide4158" />
    <sodipodi:guide
       position="48.000012,4.0000264"
       orientation="0,-48"
       id="guide4160" />
    <sodipodi:guide
       position="48.000012,48.000026"
       orientation="0,-4"
       id="guide4162" />
    <sodipodi:guide
       position="40,23"
       orientation="48,0"
       id="guide4164" />
    <sodipodi:guide
       position="44.000012,2.6367188e-05"
       orientation="0,4"
       id="guide4166" />
    <sodipodi:guide
       position="48.000012,2.6367188e-05"
       orientation="-48,0"
       id="guide4168" />
    <sodipodi:guide
       position="4.0000422,48.000026"
       orientation="0,-4"
       id="guide4170" />
    <sodipodi:guide
       position="4.2167969e-05,48.000026"
       orientation="48,0"
       id="guide4172" />
    <sodipodi:guide
       position="4.2167969e-05,2.6367188e-05"
       orientation="0,4"
       id="guide4174" />
    <sodipodi:guide
       position="8.0000117,43.999996"
       orientation="13.999969,0"
       id="guide4888" />
    <sodipodi:guide
       position="22.000012,43.999996"
       orientation="0,-14"
       id="guide4894" />
    <sodipodi:guide
       position="16.000012,32.000026"
       orientation="16,0"
       id="guide4216" />
    <sodipodi:guide
       position="16.000012,16.000026"
       orientation="0,16"
       id="guide4218" />
    <sodipodi:guide
       position="32.000012,16.000026"
       orientation="-16,0"
       id="guide4220" />
    <sodipodi:guide
       position="32.000012,32.000026"
       orientation="0,-16"
       id="guide4222" />
  </sodipodi:namedview>
  <metadata
     id="metadata5458">
    <rdf:RDF>
      <cc:Work
         rdf:about="">
        <dc:format>image/svg+xml</dc:format>
        <dc:type
           rdf:resource="http://purl.org/dc/dcmitype/StillImage" />
        <dc:title />
      </cc:Work>
    </rdf:RDF>
  </metadata>
  <g
     inkscape:label="Capa 1"
     inkscape:groupmode="layer"
     id="layer1"
     transform="translate(-384.57143,-499.798)">
    <path
       style="fill:url(#linearGradient4263);fill-opacity:1;stroke:none"
       d="m 392.5812,503.798 c -0.006,0 -0.01,3.56799 -0.01,8 l 0,24 c 0,4.432 0.004,8 0.01,8 l 21.80273,0 10.17773,0 c 0.006,0 0.01,-3.568 0.01,-8 l 0,-1.65625 0,-18.34375 -12,-12 z"
       id="path4259"
       inkscape:connector-curvature="0"
       sodipodi:nodetypes="sssscsscccs" />
    <rect
       style="fill:#2e3132;fill-opacity:0.29411765;stroke:none"
       id="rect4169-4"
       width="31.999989"
       height="0.99999309"
       x="392.57144"
       y="542.79797" />
    <path
       style="opacity:1;fill:#59646f;fill-opacity:1;stroke:none;stroke-opacity:1"
       d="m 424.56166,513.78823 c 0.006,-0.009 0.01,-2.22564 0.01,-4.99023 0,-2.77 -0.004,-5 -0.01,-5 l -9.98046,0 c -2e-5,0 10e-6,0.01 0,0.01 l 9.98046,9.98047 z"
       id="rect4307"
       inkscape:connector-curvature="0" />
    <path
       style="fill:url(#linearGradient4185);fill-rule:evenodd;stroke:none;stroke-width:1px;stroke-linecap:butt;stroke-linejoin:miter;stroke-opacity:1;fill-opacity:1;opacity:0.2"
       d="M 32 19 L 31 21 L 31 20 L 24 20 L 20 27 L 19 27 L 18 25 L 16 25 L 21 30 L 16 30 L 30 44 L 39.990234 44 C 39.996234 44 40 40.432 40 36 L 40 34.34375 L 40 27 L 32 19 z "
       transform="translate(384.57143,499.798)"
       id="path4174" />
    <path
       style="opacity:1;fill:url(#linearGradient4289);fill-opacity:1;stroke:none;stroke-opacity:1"
       d="M 32 19.005859 L 24 19.009766 L 19.558594 26.701172 L 18.003906 24.005859 L 18 24.005859 L 16 24.005859 L 16 25.005859 L 17.427734 25.005859 L 19.560547 28.699219 L 20.136719 27.701172 L 24.580078 20.005859 L 31 20.005859 L 31 21.005859 L 32 21.005859 L 32 19.005859 z M 27 22.009766 C 25.338 22.009766 24 23.347766 24 25.009766 C 24 26.671766 25.338 28.009766 27 28.009766 C 27.7733 28.009766 28.46913 27.711575 29 27.234375 L 29 28.009766 L 30 28.009766 L 30 25.009766 L 30 22.009766 L 29 22.009766 L 29 22.785156 C 28.46913 22.307956 27.7733 22.009766 27 22.009766 z M 27 23.009766 C 28.108 23.009766 29 23.901766 29 25.009766 C 29 26.117766 28.108 27.009766 27 27.009766 C 25.892 27.009766 25 26.117766 25 25.009766 C 25 23.901766 25.892 23.009766 27 23.009766 z M 16.009766 29 C 16.004055 29 16 29.223 16 29.5 C 16 29.777 16.004055 30 16.009766 30 L 31.990234 30 C 31.995945 30 32 29.777 32 29.5 C 32 29.223 31.995945 29 31.990234 29 L 16.009766 29 z M 23.009766 31 C 23.004055 31 23 31.223007 23 31.5 C 23 31.776993 23.004055 32 23.009766 32 L 24.990234 32 C 24.995945 32 25 31.776993 25 31.5 C 25 31.223007 24.995945 31 24.990234 31 L 23.009766 31 z "
       transform="translate(384.57143,499.798)"
       id="rect4151" />
  </g>
</svg>
