<?xml version="1.0" encoding="UTF-8" standalone="no"?>
<!-- Created with Inkscape (http://www.inkscape.org/) -->

<svg
   xmlns:dc="http://purl.org/dc/elements/1.1/"
   xmlns:cc="http://creativecommons.org/ns#"
   xmlns:rdf="http://www.w3.org/1999/02/22-rdf-syntax-ns#"
   xmlns:svg="http://www.w3.org/2000/svg"
   xmlns="http://www.w3.org/2000/svg"
   xmlns:xlink="http://www.w3.org/1999/xlink"
   xmlns:sodipodi="http://sodipodi.sourceforge.net/DTD/sodipodi-0.dtd"
   xmlns:inkscape="http://www.inkscape.org/namespaces/inkscape"
   width="48"
   height="48"
   id="svg5453"
   version="1.1"
   inkscape:version="0.91+devel r"
   sodipodi:docname="muondiscover.svg">
  <defs
     id="defs5455">
    <linearGradient
       inkscape:collect="always"
       id="linearGradient4438">
      <stop
         style="stop-color:#000000;stop-opacity:0"
         offset="0"
         id="stop4440" />
      <stop
         style="stop-color:#000000;stop-opacity:1"
         offset="1"
         id="stop4442" />
    </linearGradient>
    <linearGradient
       inkscape:collect="always"
       xlink:href="#linearGradient4143"
       id="linearGradient4158"
       x1="409.57144"
       y1="543.79797"
       x2="409.57144"
       y2="513.79797"
       gradientUnits="userSpaceOnUse"
       gradientTransform="matrix(1.1250015,0,0,1,-51.071966,0)" />
    <linearGradient
       inkscape:collect="always"
       id="linearGradient4143">
      <stop
         style="stop-color:#197cf1;stop-opacity:1"
         offset="0"
         id="stop4145" />
      <stop
         style="stop-color:#20bcfa;stop-opacity:1"
         offset="1"
         id="stop4147" />
    </linearGradient>
    <linearGradient
       inkscape:collect="always"
       xlink:href="#linearGradient4143"
       id="linearGradient4205"
       x1="24"
       y1="43.999973"
       x2="24"
       y2="11"
       gradientUnits="userSpaceOnUse" />
    <linearGradient
       inkscape:collect="always"
       id="linearGradient4159-7">
      <stop
         style="stop-color:#1d1e1e;stop-opacity:1"
         offset="0"
         id="stop4161-4" />
      <stop
         style="stop-color:#44484c;stop-opacity:1"
         offset="1"
         id="stop4163-9" />
    </linearGradient>
    <linearGradient
       inkscape:collect="always"
       xlink:href="#linearGradient4159-7"
       id="linearGradient4302"
       x1="25"
       y1="10"
       x2="25"
       y2="14"
       gradientUnits="userSpaceOnUse" />
    <linearGradient
       inkscape:collect="always"
       xlink:href="#linearGradient4143"
       id="linearGradient4174"
       gradientUnits="userSpaceOnUse"
       x1="24"
       y1="14"
       x2="24"
       y2="10" />
    <linearGradient
       inkscape:collect="always"
       xlink:href="#linearGradient4143"
       id="linearGradient4187"
       x1="408.57144"
       y1="516.79797"
       x2="408.57144"
       y2="503.798"
       gradientUnits="userSpaceOnUse" />
    <linearGradient
       inkscape:collect="always"
       id="linearGradient4303">
      <stop
         style="stop-color:#c6cdd1;stop-opacity:1"
         offset="0"
         id="stop4305" />
      <stop
         style="stop-color:#e0e5e7;stop-opacity:1"
         offset="1"
         id="stop4307" />
    </linearGradient>
    <linearGradient
       inkscape:collect="always"
       xlink:href="#linearGradient4303"
       id="linearGradient4282"
       x1="32"
       y1="17.999973"
       x2="32"
       y2="15"
       gradientUnits="userSpaceOnUse" />
    <linearGradient
       inkscape:collect="always"
       xlink:href="#linearGradient4303"
       id="linearGradient4290"
       x1="400.57144"
       y1="517.79797"
       x2="400.57144"
       y2="514.79797"
       gradientUnits="userSpaceOnUse" />
    <linearGradient
       id="linearGradient4290-2"
       inkscape:collect="always">
      <stop
         id="stop4292"
         offset="0"
         style="stop-color:#7cbaf8;stop-opacity:1" />
      <stop
         id="stop4294"
         offset="1"
         style="stop-color:#f4fcff;stop-opacity:1" />
    </linearGradient>
    <linearGradient
       inkscape:collect="always"
       xlink:href="#linearGradient4438"
       id="linearGradient4444"
       x1="10.99999"
       y1="1049.3622"
       x2="10.99999"
       y2="1033.3622"
       gradientUnits="userSpaceOnUse"
       gradientTransform="translate(0,-2.00004)" />
    <linearGradient
       inkscape:collect="always"
       xlink:href="#linearGradient4290-2"
       id="linearGradient4452"
       x1="10.99999"
       y1="19.00004"
       x2="10.99999"
       y2="3.0000401"
       gradientUnits="userSpaceOnUse"
       gradientTransform="translate(0,-2.00004)" />
    <linearGradient
       inkscape:collect="always"
       xlink:href="#linearGradient4227"
       id="linearGradient4507"
       x1="16.000011"
       y1="23"
       x2="32"
       y2="38.999729"
       gradientUnits="userSpaceOnUse" />
    <linearGradient
       inkscape:collect="always"
       id="linearGradient4227">
      <stop
         style="stop-color:#292c2f;stop-opacity:1"
         offset="0"
         id="stop4229" />
      <stop
         style="stop-color:#000000;stop-opacity:0;"
         offset="1"
         id="stop4231" />
    </linearGradient>
  </defs>
  <sodipodi:namedview
     id="base"
     pagecolor="#ffffff"
     bordercolor="#666666"
     borderopacity="1.0"
     inkscape:pageopacity="0"
     inkscape:pageshadow="2"
     inkscape:zoom="11.313708"
     inkscape:cx="29.317602"
     inkscape:cy="17.449164"
     inkscape:document-units="px"
     inkscape:current-layer="layer1"
     showgrid="true"
     fit-margin-top="0"
     fit-margin-left="0"
     fit-margin-right="0"
     fit-margin-bottom="0"
     inkscape:window-width="1366"
     inkscape:window-height="670"
     inkscape:window-x="-4"
     inkscape:window-y="29"
     inkscape:window-maximized="1"
     inkscape:showpageshadow="false"
     borderlayer="true"
     showguides="true">
    <inkscape:grid
       type="xygrid"
       id="grid4063" />
    <sodipodi:guide
       position="1.1650391e-05,47.999996"
       orientation="4,0"
       id="guide4146" />
    <sodipodi:guide
       position="1.1650391e-05,43.999996"
       orientation="0,48"
       id="guide4148" />
    <sodipodi:guide
       position="48.000012,43.999996"
       orientation="-4,0"
       id="guide4150" />
    <sodipodi:guide
       position="48.000012,47.999996"
       orientation="0,-48"
       id="guide4152" />
    <sodipodi:guide
       position="1.1650391e-05,4.0000264"
       orientation="4,0"
       id="guide4154" />
    <sodipodi:guide
       position="1.1650391e-05,2.6367188e-05"
       orientation="0,48"
       id="guide4156" />
    <sodipodi:guide
       position="48.000012,2.6367188e-05"
       orientation="-4,0"
       id="guide4158" />
    <sodipodi:guide
       position="48.000012,4.0000264"
       orientation="0,-48"
       id="guide4160" />
    <sodipodi:guide
       position="48.000012,48.000026"
       orientation="0,-4"
       id="guide4162" />
    <sodipodi:guide
       position="44.000012,48.000026"
       orientation="48,0"
       id="guide4164" />
    <sodipodi:guide
       position="44.000012,2.6367188e-05"
       orientation="0,4"
       id="guide4166" />
    <sodipodi:guide
       position="48.000012,2.6367188e-05"
       orientation="-48,0"
       id="guide4168" />
    <sodipodi:guide
       position="4.0000422,48.000026"
       orientation="0,-4"
       id="guide4170" />
    <sodipodi:guide
       position="4.2167969e-05,48.000026"
       orientation="48,0"
       id="guide4172" />
    <sodipodi:guide
       position="4.2167969e-05,2.6367188e-05"
       orientation="0,4"
       id="guide4174" />
    <sodipodi:guide
       position="4.0000422,2.6367188e-05"
       orientation="-48,0"
       id="guide4176" />
    <sodipodi:guide
       position="8.0000117,30.000026"
       orientation="0,14"
       id="guide4890" />
    <sodipodi:guide
       position="24,29"
       orientation="-13.999969,0"
       id="guide4892" />
    <sodipodi:guide
       position="22.000012,43.999996"
       orientation="0,-14"
       id="guide4894" />
    <sodipodi:guide
       position="16.000012,25.000271"
       orientation="16,0"
       id="guide4499" />
    <sodipodi:guide
       position="16.000012,9.0002705"
       orientation="0,16"
       id="guide4501" />
    <sodipodi:guide
       position="32.000012,9.0002705"
       orientation="-16,0"
       id="guide4503" />
    <sodipodi:guide
       position="32.000012,25.000271"
       orientation="0,-16"
       id="guide4505" />
  </sodipodi:namedview>
  <metadata
     id="metadata5458">
    <rdf:RDF>
      <cc:Work
         rdf:about="">
        <dc:format>image/svg+xml</dc:format>
        <dc:type
           rdf:resource="http://purl.org/dc/dcmitype/StillImage" />
        <dc:title />
      </cc:Work>
    </rdf:RDF>
  </metadata>
  <g
     inkscape:label="Capa 1"
     inkscape:groupmode="layer"
     id="layer1"
     transform="translate(-384.57143,-499.798)">
    <path
       style="fill:url(#linearGradient4205);fill-rule:evenodd;stroke:none;stroke-width:1px;stroke-linecap:butt;stroke-linejoin:miter;stroke-opacity:1;fill-opacity:1"
       d="M 9 11 L 9 13 L 10 12 L 9 11 z M 39 11 L 38 12 L 39 13 L 39 11 z "
       transform="translate(384.57143,499.798)"
       id="path4194" />
    <rect
       style="opacity:1;fill:url(#linearGradient4158);fill-opacity:1;stroke:none"
       id="rect4139"
       width="36"
       height="29.999973"
       x="390.57144"
       y="513.79797"
       ry="0" />
    <path
       style="opacity:0.2;fill:url(#linearGradient4507);fill-opacity:1;stroke:none;stroke-opacity:1"
       d="M 20.707031 23.292969 L 19.292969 24.707031 L 27.292969 32.707031 L 27 33 L 38 44 L 38.585938 44 L 41.414062 44 L 42 44 L 42 38 L 37 33 L 32 28 L 28.707031 31.292969 L 20.707031 23.292969 z M 18.560547 29.439453 L 16.439453 31.560547 L 21.939453 37.060547 L 20.585938 38.414062 L 26.171875 44 L 33.123047 44 L 18.560547 29.439453 z "
       id="rect4480"
       transform="translate(384.57143,499.798)" />
    <rect
       style="opacity:1;fill:#1c5593;fill-opacity:1;stroke:none"
       id="rect4171"
       width="35.999992"
       height="0.9999736"
       x="390.57144"
       y="542.79797" />
    <path
       id="path4172"
       transform="translate(384.57143,499.798)"
       d="M 10 10 L 9 11 L 10 12 L 6 14 L 24 14 L 42 14 L 38 12 L 39 11 L 38 10 L 24 10 L 10 10 z "
       style="fill:url(#linearGradient4174);fill-rule:evenodd;stroke:none;stroke-width:1px;stroke-linecap:butt;stroke-linejoin:miter;stroke-opacity:1;fill-opacity:1" />
    <path
       style="fill:url(#linearGradient4302);fill-rule:evenodd;stroke:none;stroke-width:1px;stroke-linecap:butt;stroke-linejoin:miter;stroke-opacity:1;fill-opacity:1;opacity:0.6"
       d="M 10 10 L 9 11 L 10 12 L 6 14 L 24 14 L 42 14 L 38 12 L 39 11 L 38 10 L 24 10 L 10 10 z "
       transform="translate(384.57143,499.798)"
       id="path4183" />
    <path
       style="opacity:0.2;fill:#000000;fill-opacity:1;stroke:none;stroke-opacity:1"
       d="M 10 10 L 9 11 L 39 11 L 38 10 L 24 10 L 10 10 z "
       transform="translate(384.57143,499.798)"
       id="rect4176" />
    <path
       style="opacity:1;fill:url(#linearGradient4187);fill-opacity:1;stroke:none;stroke-opacity:1"
       d="m 400.57143,516.798 0,-5 c 0,-4.432 3.568,-8 8,-8 4.432,0 8,3.568 8,8 l 0,5 -1,0 0,-5 c 0,-3.878 -3.122,-7 -7,-7 -3.878,0 -7,3.122 -7,7 l 0,5 z"
       id="rect4304"
       inkscape:connector-curvature="0"
       sodipodi:nodetypes="csssccssscc" />
    <path
       style="opacity:1;fill:url(#linearGradient4290);fill-opacity:1;stroke:none;stroke-opacity:1"
       d="m 401.07143,514.798 a 1.5000002,1.5000002 0 0 1 1.5,1.5 1.5000002,1.5000002 0 0 1 -1.5,1.5 1.5000002,1.5000002 0 0 1 -1.5,-1.5 1.5000002,1.5000002 0 0 1 1.5,-1.5 z m 0,1 a 0.50000024,0.50000024 0 0 0 -0.5,0.5 0.50000024,0.50000024 0 0 0 0.5,0.5 0.50000024,0.50000024 0 0 0 0.5,-0.5 0.50000024,0.50000024 0 0 0 -0.5,-0.5 z"
       id="path4189"
       inkscape:connector-curvature="0" />
    <path
       style="opacity:1;fill:url(#linearGradient4282);fill-opacity:1;stroke:none;stroke-opacity:1"
       d="M 31.5 15 A 1.5000002 1.5000002 0 0 0 30 16.5 A 1.5000002 1.5000002 0 0 0 31.5 18 A 1.5000002 1.5000002 0 0 0 33 16.5 A 1.5000002 1.5000002 0 0 0 31.5 15 z M 31.5 16 A 0.50000024 0.50000024 0 0 1 32 16.5 A 0.50000024 0.50000024 0 0 1 31.5 17 A 0.50000024 0.50000024 0 0 1 31 16.5 A 0.50000024 0.50000024 0 0 1 31.5 16 z "
       transform="translate(384.57143,499.798)"
       id="circle4191" />
    <g
       transform="translate(397.57144,-510.5642)"
       id="layer1-2"
       inkscape:label="Capa 1"
       style="fill:url(#linearGradient4444);fill-opacity:1;stroke:none">
      <path
         id="rect4231"
         transform="translate(0,1030.3622)"
         d="M 7,3 C 6.446,3 6,3.446 6,4 6,4.554 6.446,5 7,5 7.554,5 8,4.554 8,4 8,3.446 7.554,3 7,3 Z m 7,0 -2,2 3,3 -3,3 2,2 3,-3 2,-2 -5,-5 z M 4.5,9 C 3.669,9 3,9.669 3,10.5 3,11.331 3.669,12 4.5,12 5.331,12 6,11.331 6,10.5 6,9.669 5.331,9 4.5,9 Z M 9,15 c -1.108,0 -2,0.892 -2,2 0,1.108 0.892,2 2,2 1.108,0 2,-0.892 2,-2 0,-1.108 -0.892,-2 -2,-2 z"
         style="opacity:1;fill:url(#linearGradient4452);fill-opacity:1;stroke:none"
         inkscape:connector-curvature="0" />
    </g>
  </g>
</svg>
