<?xml version="1.0" encoding="UTF-8" standalone="no"?>
<!-- Created with Inkscape (http://www.inkscape.org/) -->

<svg
   xmlns:dc="http://purl.org/dc/elements/1.1/"
   xmlns:cc="http://creativecommons.org/ns#"
   xmlns:rdf="http://www.w3.org/1999/02/22-rdf-syntax-ns#"
   xmlns:svg="http://www.w3.org/2000/svg"
   xmlns="http://www.w3.org/2000/svg"
   xmlns:xlink="http://www.w3.org/1999/xlink"
   xmlns:sodipodi="http://sodipodi.sourceforge.net/DTD/sodipodi-0.dtd"
   xmlns:inkscape="http://www.inkscape.org/namespaces/inkscape"
   width="48"
   height="48"
   id="svg3209"
   version="1.1"
   inkscape:version="0.48.4 r9939"
   sodipodi:docname="qelectrotech.svg">
  <defs
     id="defs3211">
    <linearGradient
       gradientTransform="translate(-182.85714,-77.150103)"
       inkscape:collect="always"
       xlink:href="#linearGradient4256"
       id="linearGradient6638"
       gradientUnits="userSpaceOnUse"
       x1="410.57144"
       y1="534.79797"
       x2="410.57144"
       y2="510.798" />
    <linearGradient
       id="linearGradient4256">
      <stop
         style="stop-color:#8cbdf8;stop-opacity:1;"
         offset="0"
         id="stop4258" />
      <stop
         style="stop-color:#d5e8ff;stop-opacity:1;"
         offset="1"
         id="stop4260" />
    </linearGradient>
    <linearGradient
       inkscape:collect="always"
       xlink:href="#linearGradient4227-0-8"
       id="linearGradient6640"
       gradientUnits="userSpaceOnUse"
       gradientTransform="translate(-182.85714,-76.735793)"
       x1="396.57144"
       y1="513.38367"
       x2="412.57144"
       y2="531.38367" />
    <linearGradient
       id="linearGradient4227-0-8"
       inkscape:collect="always">
      <stop
         id="stop4229-3-3"
         offset="0"
         style="stop-color:#292c2f;stop-opacity:1" />
      <stop
         id="stop4231-90-8"
         offset="1"
         style="stop-color:#000000;stop-opacity:0;" />
    </linearGradient>
    <linearGradient
       inkscape:collect="always"
       xlink:href="#linearGradient4232"
       id="linearGradient4849"
       gradientUnits="userSpaceOnUse"
       gradientTransform="matrix(1.0810811,0,0,1.0810811,199.76834,420.70195)"
       x1="24"
       y1="43"
       x2="24"
       y2="5" />
    <linearGradient
       id="linearGradient4232">
      <stop
         style="stop-color:#3889e9;stop-opacity:1"
         offset="0"
         id="stop4234-0" />
      <stop
         style="stop-color:#5ea5fb;stop-opacity:1"
         offset="1"
         id="stop4236" />
    </linearGradient>
    <linearGradient
       inkscape:collect="always"
       xlink:href="#linearGradient4232-4"
       id="linearGradient4849-7"
       gradientUnits="userSpaceOnUse"
       gradientTransform="matrix(1.0810811,0,0,1.0810811,-1.94595,1002.4163)"
       x1="24"
       y1="43"
       x2="24"
       y2="5" />
    <linearGradient
       id="linearGradient4232-4">
      <stop
         style="stop-color:#3889e9;stop-opacity:1"
         offset="0"
         id="stop4234-0-5" />
      <stop
         style="stop-color:#5ea5fb;stop-opacity:1"
         offset="1"
         id="stop4236-2" />
    </linearGradient>
    <linearGradient
       inkscape:collect="always"
       xlink:href="#linearGradient4227-0-8-7"
       id="linearGradient6640-3"
       gradientUnits="userSpaceOnUse"
       gradientTransform="translate(-384.57143,504.97853)"
       x1="396.57144"
       y1="513.38367"
       x2="412.57144"
       y2="531.38367" />
    <linearGradient
       id="linearGradient4227-0-8-7">
      <stop
         id="stop4229-3-3-9"
         offset="0"
         style="stop-color:#292c2f;stop-opacity:1" />
      <stop
         id="stop4231-90-8-4"
         offset="1"
         style="stop-color:#000000;stop-opacity:0;" />
    </linearGradient>
    <linearGradient
       gradientTransform="translate(-384.57143,-499.79798)"
       inkscape:collect="always"
       xlink:href="#linearGradient4256-4"
       id="linearGradient6638-4"
       gradientUnits="userSpaceOnUse"
       x1="410.57144"
       y1="534.79797"
       x2="410.57144"
       y2="510.798" />
    <linearGradient
       id="linearGradient4256-4">
      <stop
         style="stop-color:#8cbdf8;stop-opacity:1;"
         offset="0"
         id="stop4258-4" />
      <stop
         style="stop-color:#d5e8ff;stop-opacity:1;"
         offset="1"
         id="stop4260-2" />
    </linearGradient>
    <linearGradient
       inkscape:collect="always"
       xlink:href="#linearGradient4256-4"
       id="linearGradient3838"
       gradientUnits="userSpaceOnUse"
       gradientTransform="translate(-384.57143,-499.79798)"
       x1="410.57144"
       y1="534.79797"
       x2="410.57144"
       y2="510.798" />
    <linearGradient
       inkscape:collect="always"
       xlink:href="#linearGradient4256-4"
       id="linearGradient3864"
       gradientUnits="userSpaceOnUse"
       gradientTransform="translate(-384.57143,-499.79798)"
       x1="410.57144"
       y1="534.79797"
       x2="410.57144"
       y2="510.798" />
  </defs>
  <sodipodi:namedview
     id="base"
     pagecolor="#ffffff"
     bordercolor="#666666"
     borderopacity="1.0"
     inkscape:pageopacity="0.0"
     inkscape:pageshadow="2"
     inkscape:zoom="11.2"
     inkscape:cx="37.422317"
     inkscape:cy="29.965275"
     inkscape:document-units="px"
     inkscape:current-layer="layer1"
     showgrid="true"
     inkscape:snap-bbox="true"
     inkscape:window-width="1864"
     inkscape:window-height="1060"
     inkscape:window-x="54"
     inkscape:window-y="-3"
     inkscape:window-maximized="1"
     inkscape:snap-global="true">
    <inkscape:grid
       type="xygrid"
       id="grid3310"
       empspacing="5"
       visible="true"
       enabled="true"
       snapvisiblegridlinesonly="true" />
  </sodipodi:namedview>
  <metadata
     id="metadata3214">
    <rdf:RDF>
      <cc:Work
         rdf:about="">
        <dc:format>image/svg+xml</dc:format>
        <dc:type
           rdf:resource="http://purl.org/dc/dcmitype/StillImage" />
        <dc:title />
      </cc:Work>
    </rdf:RDF>
  </metadata>
  <g
     inkscape:label="Layer 1"
     inkscape:groupmode="layer"
     id="layer1"
     transform="translate(0,-1004.3622)">
    <path
       style="fill:#ffffff;fill-opacity:1;fill-rule:evenodd;stroke:none;display:inline"
       d="m 5,1009.3622 38,0 0,38 -38,0 z"
       id="path4186"
       inkscape:connector-curvature="0"
       sodipodi:nodetypes="ccccc" />
    <path
       sodipodi:nodetypes="ccccccc"
       inkscape:connector-curvature="0"
       id="rect9148"
       d="m 4,1008.3622 40,0 0,32 0,8 -8,0 -32,0 z"
       style="fill:url(#linearGradient4849-7);fill-opacity:1;fill-rule:evenodd;stroke:none;display:inline" />
    <path
       inkscape:connector-curvature="0"
       style="opacity:0.2;color:#000000;fill:#ffffff;fill-opacity:1;fill-rule:evenodd;stroke:none;stroke-width:2;marker:none;visibility:visible;display:inline;overflow:visible;enable-background:accumulate"
       d="m 5,1009.3622 0,1 0,36 0,1 1,0 36,0 1,0 0,-1 0,-37 -38,0 z m 1,1 36,0 0,36 -36,0 0,-36 z"
       id="rect5357-4-0" />
    <path
       inkscape:connector-curvature="0"
       id="path4225"
       d="m 10,1036.3622 13,12 21,0 0,-7 0,-18 -5,-5 0,18 -4,0 -3,3 -4,-3 z"
       style="opacity:0.2;fill:url(#linearGradient6640-3);fill-opacity:1;fill-rule:evenodd;stroke:none"
       sodipodi:nodetypes="ccccccccccc" />
    <path
       style="color:#000000;fill:url(#linearGradient3864);fill-opacity:1;fill-rule:evenodd;stroke:none;stroke-width:2;marker:none;visibility:visible;display:inline;overflow:visible;enable-background:accumulate"
       d="M 19.5 11 C 17.734735 11 16.271341 12.300997 16.03125 14 L 16 14 L 15.3125 14 L 11 14 L 10 14 L 10 22 L 8 22 L 8 23 L 13 23 L 13 22 L 11 22 L 11 15 L 15.3125 15 L 16 15 L 16.03125 15 C 16.271341 16.699003 17.734735 18 19.5 18 C 21.265265 18 22.728659 16.699003 22.96875 15 L 23 15 L 23.3125 15 L 27 15 L 27 17 L 36 17 L 36 15 L 38 15 L 38 31 L 34.96875 31 C 34.72866 29.301 33.26527 28 31.5 28 C 29.73473 28 28.27134 29.301 28.03125 31 L 24.90625 31 C 24.70241 30.4136 24.15584 30 23.5 30 C 22.67157 30 22 30.6716 22 31.5 C 22 32.3284 22.67157 33 23.5 33 C 24.15584 33 24.70241 32.5864 24.90625 32 L 28.03125 32 C 28.27134 33.699 29.73473 35 31.5 35 C 33.26527 35 34.72866 33.699 34.96875 32 L 38 32 L 39 32 L 39 14 L 36 14 L 36 12 L 27 12 L 27 14 L 23.3125 14 L 23 14 L 22.96875 14 C 22.728659 12.300997 21.265265 11 19.5 11 z M 19.5 12 C 20.003163 12 20.482791 12.150474 20.875 12.40625 L 19.5 13.78125 L 18.125 12.40625 C 18.517209 12.15045 18.996837 12 19.5 12 z M 17.40625 13.125 L 18.78125 14.5 L 17.40625 15.875 C 17.150476 15.482791 17 15.003159 17 14.5 C 17 13.9968 17.150476 13.5172 17.40625 13.125 z M 21.59375 13.125 C 21.849524 13.517209 22 13.996841 22 14.5 C 22 15.0032 21.849524 15.4828 21.59375 15.875 L 20.21875 14.5 L 21.59375 13.125 z M 19.5 15.21875 L 20.875 16.59375 C 20.482791 16.84945 20.003163 17 19.5 17 C 18.996837 17 18.517209 16.849526 18.125 16.59375 L 19.5 15.21875 z M 9 24 L 9 25 L 10 25 L 10 32 L 11 32 L 14.09375 32 C 14.29759 32.5864 14.84416 33 15.5 33 C 16.32843 33 17 32.3284 17 31.5 C 17 31.3965 16.98865 31.2852 16.96875 31.1875 L 22.28125 28.125 L 21.78125 27.25 L 16.4375 30.34375 C 16.17957 30.13425 15.85817 30 15.5 30 C 14.84416 30 14.29759 30.4136 14.09375 31 L 11 31 L 11 25 L 12 25 L 12 24 L 9 24 z M 31.5 29 C 32.88071 29 34 30.1193 34 31.5 C 34 32.8807 32.88071 34 31.5 34 C 30.11929 34 29 32.8807 29 31.5 C 29 30.1193 30.11929 29 31.5 29 z M 15.5 31 C 15.77614 31 16 31.2239 16 31.5 C 16 31.7761 15.77614 32 15.5 32 C 15.22386 32 15 31.7761 15 31.5 C 15 31.2239 15.22386 31 15.5 31 z M 23.5 31 C 23.77614 31 24 31.2239 24 31.5 C 24 31.7761 23.77614 32 23.5 32 C 23.22386 32 23 31.7761 23 31.5 C 23 31.2239 23.22386 31 23.5 31 z "
       transform="translate(0,1004.3622)"
       id="rect6279" />
  </g>
</svg>
