<?xml version="1.0" encoding="UTF-8" standalone="no"?>
<!-- Created with Inkscape (http://www.inkscape.org/) -->

<svg
   xmlns:dc="http://purl.org/dc/elements/1.1/"
   xmlns:cc="http://creativecommons.org/ns#"
   xmlns:rdf="http://www.w3.org/1999/02/22-rdf-syntax-ns#"
   xmlns:svg="http://www.w3.org/2000/svg"
   xmlns="http://www.w3.org/2000/svg"
   xmlns:sodipodi="http://sodipodi.sourceforge.net/DTD/sodipodi-0.dtd"
   xmlns:inkscape="http://www.inkscape.org/namespaces/inkscape"
   width="22"
   height="22"
   id="svg3109"
   version="1.1"
   inkscape:version="0.91+devel r"
   sodipodi:docname="application-menu.svg">
  <defs
     id="defs3111" />
  <sodipodi:namedview
     id="base"
     pagecolor="#ffffff"
     bordercolor="#666666"
     borderopacity="1.0"
     inkscape:pageopacity="0.0"
     inkscape:pageshadow="2"
     inkscape:zoom="22.72464"
     inkscape:cx="11.787938"
     inkscape:cy="11.249333"
     inkscape:document-units="px"
     inkscape:current-layer="layer1"
     showgrid="true"
     fit-margin-top="0"
     fit-margin-left="0"
     fit-margin-right="0"
     fit-margin-bottom="0"
     inkscape:window-width="1366"
     inkscape:window-height="670"
     inkscape:window-x="-4"
     inkscape:window-y="29"
     inkscape:window-maximized="1"
     inkscape:showpageshadow="false">
    <inkscape:grid
       type="xygrid"
       id="grid4108"
       originx="-1.0000233px"
       originy="-1.0000029px" />
    <sodipodi:guide
       position="2,20"
       orientation="18,0"
       id="guide4114" />
    <sodipodi:guide
       position="2,2"
       orientation="0,18"
       id="guide4116" />
    <sodipodi:guide
       position="20,2"
       orientation="-18,0"
       id="guide4118" />
    <sodipodi:guide
       position="20,20"
       orientation="0,-18"
       id="guide4120" />
    <sodipodi:guide
       position="3,19"
       orientation="16,0"
       id="guide4122" />
    <sodipodi:guide
       position="3,3"
       orientation="0,16"
       id="guide4124" />
    <sodipodi:guide
       position="18.999977,9.9999971"
       orientation="-16,0"
       id="guide4126" />
    <sodipodi:guide
       position="19,19"
       orientation="0,-16"
       id="guide4128" />
  </sodipodi:namedview>
  <metadata
     id="metadata3114">
    <rdf:RDF>
      <cc:Work
         rdf:about="">
        <dc:format>image/svg+xml</dc:format>
        <dc:type
           rdf:resource="http://purl.org/dc/dcmitype/StillImage" />
        <dc:title></dc:title>
      </cc:Work>
    </rdf:RDF>
  </metadata>
  <g
     inkscape:label="Capa 1"
     inkscape:groupmode="layer"
     id="layer1"
     transform="translate(-534.14288,-579.07648)">
    <path
       style="opacity:1;fill:#4d4d4d;fill-opacity:1;stroke:none;stroke-width:0.1;stroke-linecap:round;stroke-linejoin:miter;stroke-miterlimit:4;stroke-dasharray:none;stroke-opacity:0.29943501"
       d="M 4.5 3 C 3.6690065 3 3 3.6690065 3 4.5 C 3 5.3309935 3.6690065 6 4.5 6 C 5.3309935 6 6 5.3309935 6 4.5 C 6 3.6690065 5.3309935 3 4.5 3 z M 8 3 L 8 4 L 19 4 L 19 3 L 8 3 z M 8 5 L 8 6 L 19 6 L 19 5 L 8 5 z M 3 8 L 3 9 L 4 9 L 4 8 L 3 8 z M 8 8 L 8 9 L 9 9 L 9 8 L 8 8 z M 13 8 L 13 9 L 14 9 L 14 8 L 13 8 z M 18 8 L 18 9 L 19 9 L 19 8 L 18 8 z M 3 11 L 3 14 L 6 14 L 6 11 L 3 11 z M 8 11 L 8 12 L 15 12 L 15 11 L 8 11 z M 8 13 L 8 14 L 19 14 L 19 13 L 8 13 z M 3 16 L 3 17 L 19 17 L 19 16 L 3 16 z M 8 18 L 8 19 L 14 19 L 14 18 L 8 18 z "
       transform="translate(534.14288,579.07648)"
       id="rect3343" />
  </g>
</svg>
