<?xml version="1.0" encoding="UTF-8" standalone="no"?>
<!-- Created with Inkscape (http://www.inkscape.org/) -->

<svg
   xmlns:dc="http://purl.org/dc/elements/1.1/"
   xmlns:cc="http://creativecommons.org/ns#"
   xmlns:rdf="http://www.w3.org/1999/02/22-rdf-syntax-ns#"
   xmlns:svg="http://www.w3.org/2000/svg"
   xmlns="http://www.w3.org/2000/svg"
   xmlns:sodipodi="http://sodipodi.sourceforge.net/DTD/sodipodi-0.dtd"
   xmlns:inkscape="http://www.inkscape.org/namespaces/inkscape"
   width="22"
   height="22"
   id="svg3404"
   version="1.1"
   inkscape:version="0.91 r13725"
   sodipodi:docname="document-print-direct.svg">
  <defs
     id="defs3406" />
  <sodipodi:namedview
     id="base"
     pagecolor="#ffffff"
     bordercolor="#666666"
     borderopacity="1.0"
     inkscape:pageopacity="0.0"
     inkscape:pageshadow="2"
     inkscape:zoom="22.724638"
     inkscape:cx="12.567556"
     inkscape:cy="11.621687"
     inkscape:document-units="px"
     inkscape:current-layer="layer1"
     showgrid="true"
     fit-margin-top="0"
     fit-margin-left="0"
     fit-margin-right="0"
     fit-margin-bottom="0"
     inkscape:window-width="1920"
     inkscape:window-height="1021"
     inkscape:window-x="-4"
     inkscape:window-y="0"
     inkscape:window-maximized="1"
     inkscape:showpageshadow="false">
    <inkscape:grid
       type="xygrid"
       id="grid4117" />
    <sodipodi:guide
       position="2.0000117,19.999986"
       orientation="18,0"
       id="guide4123" />
    <sodipodi:guide
       position="2.0000117,1.9999857"
       orientation="0,18"
       id="guide4125" />
    <sodipodi:guide
       position="20.000012,1.9999857"
       orientation="-18,0"
       id="guide4127" />
    <sodipodi:guide
       position="20.000012,19.999986"
       orientation="0,-18"
       id="guide4129" />
    <sodipodi:guide
       position="3.0000117,18.999986"
       orientation="16,0"
       id="guide4131" />
    <sodipodi:guide
       position="3.0000117,2.9999857"
       orientation="0,16"
       id="guide4133" />
    <sodipodi:guide
       position="19.000012,2.9999857"
       orientation="-16,0"
       id="guide4135" />
    <sodipodi:guide
       position="19.000012,18.999986"
       orientation="0,-16"
       id="guide4137" />
  </sodipodi:namedview>
  <metadata
     id="metadata3409">
    <rdf:RDF>
      <cc:Work
         rdf:about="">
        <dc:format>image/svg+xml</dc:format>
        <dc:type
           rdf:resource="http://purl.org/dc/dcmitype/StillImage" />
        <dc:title></dc:title>
      </cc:Work>
    </rdf:RDF>
  </metadata>
  <g
     inkscape:label="Capa 1"
     inkscape:groupmode="layer"
     id="layer1"
     transform="translate(-384.57143,-482.93361)">
    <path
       inkscape:connector-curvature="0"
       style="opacity:1;fill:#4d4d4d;fill-opacity:1;stroke:none"
       d="m 389.57143,485.93361 0,1 0,4 -2,0 0,1 0,7 1,0 3,0 0,2 0,1 8,0 0,-3 1,0 0,-3 -1,0 -9,0 0,2 -2,0 0,-6 14,0 0,3 0,1 1,0 0,-1 0,-3 0,-1 -2,0 0,-4 0,-1 -12,0 z m 1,1 10,0 0,4 -1,0 0,-1 -8,0 0,1 -1,0 0,-4 z m 1,1 0,1 8,0 0,-1 -8,0 z m -2,5 0,1 3,0 0,-1 -3,0 z m 3,6 6,0 0,2 -6,0 0,-2 z"
       id="rect4145-6" />
    <path
       style="fill:#4d4d4d;fill-opacity:1;stroke:none"
       d="m 401.57142,496.9336 3.00001,2.5 -3.00001,2.5 z"
       id="path2997"
       inkscape:connector-curvature="0" />
  </g>
</svg>
