<?xml version="1.0" encoding="UTF-8" standalone="no"?>
<!-- Created with Inkscape (http://www.inkscape.org/) -->

<svg
   xmlns:dc="http://purl.org/dc/elements/1.1/"
   xmlns:cc="http://creativecommons.org/ns#"
   xmlns:rdf="http://www.w3.org/1999/02/22-rdf-syntax-ns#"
   xmlns:svg="http://www.w3.org/2000/svg"
   xmlns="http://www.w3.org/2000/svg"
   xmlns:sodipodi="http://sodipodi.sourceforge.net/DTD/sodipodi-0.dtd"
   xmlns:inkscape="http://www.inkscape.org/namespaces/inkscape"
   width="22"
   height="22"
   id="svg3760"
   version="1.1"
   inkscape:version="0.91+devel r"
   sodipodi:docname="draw-square-inverted-corners.svg">
  <defs
     id="defs3762" />
  <sodipodi:namedview
     id="base"
     pagecolor="#ffffff"
     bordercolor="#666666"
     borderopacity="1.0"
     inkscape:pageopacity="0.0"
     inkscape:pageshadow="2"
     inkscape:zoom="11.759966"
     inkscape:cx="-3.1118444"
     inkscape:cy="8.9418624"
     inkscape:document-units="px"
     inkscape:current-layer="layer1"
     showgrid="true"
     fit-margin-top="0"
     fit-margin-left="0"
     fit-margin-right="0"
     fit-margin-bottom="0"
     inkscape:window-width="1366"
     inkscape:window-height="670"
     inkscape:window-x="-4"
     inkscape:window-y="29"
     inkscape:window-maximized="1"
     inkscape:showpageshadow="false">
    <sodipodi:guide
       position="1.886e-05,21.999986"
       orientation="24,0"
       id="guide4115" />
    <sodipodi:guide
       position="22.000019,-1.37e-05"
       orientation="0,24"
       id="guide4117" />
    <sodipodi:guide
       position="22.000019,20.999986"
       orientation="-24,0"
       id="guide4119" />
    <sodipodi:guide
       position="1.886e-05,21.999986"
       orientation="0,-24"
       id="guide4121" />
    <sodipodi:guide
       position="2.0000044,19.999999"
       orientation="18,0"
       id="guide4123" />
    <sodipodi:guide
       position="2.0000044,1.9999981"
       orientation="0,18"
       id="guide4125" />
    <sodipodi:guide
       position="20.000004,1.9999981"
       orientation="-18,0"
       id="guide4127" />
    <sodipodi:guide
       position="20.000004,19.999999"
       orientation="0,-18"
       id="guide4129" />
    <sodipodi:guide
       position="3.0000044,18.999999"
       orientation="16,0"
       id="guide4131" />
    <sodipodi:guide
       position="3.0000044,2.9999981"
       orientation="0,16"
       id="guide4133" />
    <sodipodi:guide
       position="19.000004,2.9999981"
       orientation="-16,0"
       id="guide4135" />
    <sodipodi:guide
       position="19.000004,18.999999"
       orientation="0,-16"
       id="guide4137" />
    <inkscape:grid
       type="xygrid"
       id="grid4139"
       originx="-0.99998114"
       originy="-1.0000137" />
  </sodipodi:namedview>
  <metadata
     id="metadata3765">
    <rdf:RDF>
      <cc:Work
         rdf:about="">
        <dc:format>image/svg+xml</dc:format>
        <dc:type
           rdf:resource="http://purl.org/dc/dcmitype/StillImage" />
        <dc:title></dc:title>
      </cc:Work>
    </rdf:RDF>
  </metadata>
  <g
     inkscape:label="Capa 1"
     inkscape:groupmode="layer"
     id="layer1"
     transform="translate(-551.28571,-607.64789)">
    <path
       style="opacity:1;fill:#4d4d4d;fill-opacity:1;stroke:none"
       d="M 8,4 8,4.5078125 8,6.5 C 8,7.331 7.331,8 6.5,8 L 4,8 l 0,1 0,6 0,1 2.5,0 C 7.331,16 8,16.669 8,17.5 L 8,19.492188 8,20 l 1,0 6,0 1,0 0,-0.507812 L 16,17.5 C 16,16.669 16.669,16 17.5,16 L 19.492188,16 20,16 20,15 20,9 20,8 19.492188,8 17.5,8 C 16.669,8 16,7.331 16,6.5 L 16,4 15,4 9,4 8,4 Z m 1,1 6,0 0,1.5 C 15,7.885 16.115,9 17.5,9 l 1.5,0 0,6 -1.5,0 C 16.115,15 15,16.115 15,17.5 L 15,19 9,19 9,17.5 C 9,16.115 7.885,15 6.5,15 L 5,15 5,9 6.5,9 C 7.885,9 9,7.885 9,6.5 L 9,5 Z"
       transform="translate(550.28572,606.6479)"
       id="rect4112"
       inkscape:connector-curvature="0" />
  </g>
</svg>
