<?xml version="1.0" encoding="UTF-8" standalone="no"?>
<!-- Created with Inkscape (http://www.inkscape.org/) -->

<svg
   xmlns:dc="http://purl.org/dc/elements/1.1/"
   xmlns:cc="http://creativecommons.org/ns#"
   xmlns:rdf="http://www.w3.org/1999/02/22-rdf-syntax-ns#"
   xmlns:svg="http://www.w3.org/2000/svg"
   xmlns="http://www.w3.org/2000/svg"
   xmlns:sodipodi="http://sodipodi.sourceforge.net/DTD/sodipodi-0.dtd"
   xmlns:inkscape="http://www.inkscape.org/namespaces/inkscape"
   width="24"
   height="24"
   id="svg3760"
   version="1.1"
   inkscape:version="0.48+devel r"
   sodipodi:docname="games-highscores.svg">
  <defs
     id="defs3762" />
  <sodipodi:namedview
     id="base"
     pagecolor="#ffffff"
     bordercolor="#666666"
     borderopacity="1.0"
     inkscape:pageopacity="0.0"
     inkscape:pageshadow="2"
     inkscape:zoom="16"
     inkscape:cx="8.3404196"
     inkscape:cy="17.042812"
     inkscape:document-units="px"
     inkscape:current-layer="layer1"
     showgrid="true"
     fit-margin-top="0"
     fit-margin-left="0"
     fit-margin-right="0"
     fit-margin-bottom="0"
     inkscape:window-width="1366"
     inkscape:window-height="668"
     inkscape:window-x="-2"
     inkscape:window-y="23"
     inkscape:window-maximized="1"
     inkscape:showpageshadow="false">
    <sodipodi:guide
       position="-1.4433594e-05,24.000012"
       orientation="24,0"
       id="guide4115" />
    <sodipodi:guide
       position="-1.4433594e-05,1.1816406e-05"
       orientation="0,24"
       id="guide4117" />
    <sodipodi:guide
       position="23.999986,1.1816406e-05"
       orientation="-24,0"
       id="guide4119" />
    <sodipodi:guide
       position="23.999986,24.000012"
       orientation="0,-24"
       id="guide4121" />
    <sodipodi:guide
       position="2.9999856,3.0000118"
       orientation="0,18"
       id="guide4125" />
    <sodipodi:guide
       position="20.999986,3.0000118"
       orientation="-18,0"
       id="guide4127" />
    <sodipodi:guide
       position="20.999986,21.000012"
       orientation="0,-18"
       id="guide4129" />
    <sodipodi:guide
       position="3.9999856,20.000012"
       orientation="16,0"
       id="guide4131" />
    <sodipodi:guide
       position="3.9999856,4.0000118"
       orientation="0,16"
       id="guide4133" />
    <sodipodi:guide
       position="19.999986,4.0000118"
       orientation="-16,0"
       id="guide4135" />
    <sodipodi:guide
       position="19.999986,20.000012"
       orientation="0,-16"
       id="guide4137" />
    <inkscape:grid
       type="xygrid"
       id="grid4139" />
  </sodipodi:namedview>
  <metadata
     id="metadata3765">
    <rdf:RDF>
      <cc:Work
         rdf:about="">
        <dc:format>image/svg+xml</dc:format>
        <dc:type
           rdf:resource="http://purl.org/dc/dcmitype/StillImage" />
        <dc:title />
      </cc:Work>
    </rdf:RDF>
  </metadata>
  <g
     inkscape:label="Capa 1"
     inkscape:groupmode="layer"
     id="layer1"
     transform="translate(-550.28572,-606.6479)">
    <path
       style="opacity:1;fill:#4d4d4d;fill-opacity:1;stroke:none"
       d="M 16.978516 4 C 15.465022 4.4377241 13.748442 4.6693848 12 4.671875 C 10.251603 4.6707433 8.5343535 4.4404299 7.0195312 4.0039062 C 7.0416342 4.6933546 7.0966507 5.3493587 7.15625 6 L 7 6 C 7 5 6 5 6 5 L 5 5 L 4 5 L 4 7 L 4.0078125 7 C 4.0072569 7.0337531 4 7.0657146 4 7.0996094 C 4 10.812041 6.506106 13.909543 9.9238281 14.820312 C 10.264788 15.22506 10.624017 15.538585 11 15.736328 L 11 18 L 10 18 L 10 19 L 9 19 L 9 20 L 15 20 L 15 19 L 14 19 L 14 18 L 13 18 L 13 15.736328 C 13.375468 15.53846 13.733706 15.224629 14.074219 14.820312 C 17.492875 13.91016 20 10.812702 20 7.0996094 C 20 7.0657146 19.992743 7.0337531 19.992188 7 L 20 7 L 20 5 L 19 5 L 18 5 L 17.984375 5 C 17.984375 5 17.278145 5.0050984 17 5.9570312 L 17 6 L 16.984375 6 L 16.841797 6 C 16.901502 5.3481803 16.956448 4.6907471 16.978516 4 z M 5.09375 6 L 6 6 C 6.26795 7 7 7 7 7 L 7.2636719 7 C 7.5888438 9.6160501 8.2011571 11.849622 9.0136719 13.427734 C 6.6395546 12.310166 5 9.906602 5 7.0996094 C 5 6.7241857 5.0373785 6.3591067 5.09375 6 z M 12 6 L 12.619141 7.3164062 L 14 7.5273438 L 13 8.5527344 L 13.236328 10 L 12 9.3164062 L 10.763672 10 L 11 8.5527344 L 10 7.5273438 L 11.380859 7.3164062 L 12 6 z M 18 6 L 18.90625 6 C 18.962621 6.3591067 19 6.7241857 19 7.0996094 C 19 9.908793 17.357592 12.313268 14.980469 13.429688 C 15.793939 11.851297 16.408955 9.6180147 16.734375 7 L 17 7 C 17 7 18 7 18 6 z "
       transform="translate(550.28572,606.6479)"
       id="rect4118" />
  </g>
</svg>
