<?xml version="1.0" encoding="UTF-8" standalone="no"?>
<!-- Created with Inkscape (http://www.inkscape.org/) -->

<svg
   xmlns:dc="http://purl.org/dc/elements/1.1/"
   xmlns:cc="http://creativecommons.org/ns#"
   xmlns:rdf="http://www.w3.org/1999/02/22-rdf-syntax-ns#"
   xmlns:svg="http://www.w3.org/2000/svg"
   xmlns="http://www.w3.org/2000/svg"
   xmlns:sodipodi="http://sodipodi.sourceforge.net/DTD/sodipodi-0.dtd"
   xmlns:inkscape="http://www.inkscape.org/namespaces/inkscape"
   width="22"
   height="22"
   id="svg3049"
   version="1.1"
   inkscape:version="0.48+devel r"
   sodipodi:docname="speaker.svg"
   inkscape:export-filename="/home/uri/.kde/share/icons/NITRUX-KDE/16x16/actions/view-right-new.png"
   inkscape:export-xdpi="30"
   inkscape:export-ydpi="30">
  <defs
     id="defs3051" />
  <sodipodi:namedview
     id="base"
     pagecolor="#ffffff"
     bordercolor="#666666"
     borderopacity="1.0"
     inkscape:pageopacity="0.0"
     inkscape:pageshadow="2"
     inkscape:zoom="26.422189"
     inkscape:cx="7.4743653"
     inkscape:cy="10.630558"
     inkscape:document-units="px"
     inkscape:current-layer="layer1"
     showgrid="true"
     fit-margin-top="0"
     fit-margin-left="0"
     fit-margin-right="0"
     fit-margin-bottom="0"
     inkscape:window-width="1366"
     inkscape:window-height="666"
     inkscape:window-x="-2"
     inkscape:window-y="25"
     inkscape:window-maximized="1"
     inkscape:showpageshadow="false"
     borderlayer="true">
    <sodipodi:guide
       position="2.0000044,20.00003"
       orientation="18,0"
       id="guide4067" />
    <sodipodi:guide
       position="2.0000044,2.0000296"
       orientation="0,18"
       id="guide4069" />
    <sodipodi:guide
       position="20.000004,2.0000296"
       orientation="-18,0"
       id="guide4071" />
    <sodipodi:guide
       position="20.000004,20.00003"
       orientation="0,-18"
       id="guide4073" />
    <sodipodi:guide
       position="3.0000044,19.00003"
       orientation="16,0"
       id="guide4077" />
    <sodipodi:guide
       position="3.0000044,3.0000296"
       orientation="0,16"
       id="guide4079" />
    <sodipodi:guide
       position="19.000004,3.0000296"
       orientation="-16,0"
       id="guide4081" />
    <sodipodi:guide
       position="19.000004,19.00003"
       orientation="0,-16"
       id="guide4083" />
    <inkscape:grid
       type="xygrid"
       id="grid4085" />
  </sodipodi:namedview>
  <metadata
     id="metadata3054">
    <rdf:RDF>
      <cc:Work
         rdf:about="">
        <dc:format>image/svg+xml</dc:format>
        <dc:type
           rdf:resource="http://purl.org/dc/dcmitype/StillImage" />
        <dc:title />
      </cc:Work>
    </rdf:RDF>
  </metadata>
  <g
     inkscape:label="Capa 1"
     inkscape:groupmode="layer"
     id="layer1"
     transform="translate(-421.71429,-525.79074)">
    <path
       style="opacity:1;fill:#4d4d4d;fill-opacity:1;stroke:none;stroke-width:2.79999995;stroke-miterlimit:4;stroke-dasharray:none;stroke-opacity:0.55026455"
       d="M 11 3 C 9.0836958 3 7.3317076 3.6696447 5.9570312 4.7851562 C 5.8567573 4.3384591 5.477825 4 5 4 C 4.446 4 4 4.446 4 5 C 4 5.477825 4.3384591 5.8567573 4.7851562 5.9570312 C 3.6696447 7.3317076 3 9.0836958 3 11 C 3 12.916304 3.6696447 14.668292 4.7851562 16.042969 C 4.3384591 16.143243 4 16.522175 4 17 C 4 17.554 4.446 18 5 18 C 5.477825 18 5.8567573 17.661541 5.9570312 17.214844 C 7.3317076 18.330355 9.0836958 19 11 19 C 12.916304 19 14.668292 18.330355 16.042969 17.214844 C 16.143243 17.661541 16.522175 18 17 18 C 17.554 18 18 17.554 18 17 C 18 16.522175 17.661541 16.143243 17.214844 16.042969 C 18.330355 14.668292 19 12.916304 19 11 C 19 9.0836958 18.330355 7.3317076 17.214844 5.9570312 C 17.661541 5.8567573 18 5.477825 18 5 C 18 4.446 17.554 4 17 4 C 16.522175 4 16.143243 4.3384591 16.042969 4.7851562 C 14.668292 3.6696447 12.916304 3 11 3 z M 10 4 L 10.046875 4.0722656 C 10.359458 4.0299165 10.675439 4 11 4 C 14.878002 4 18 7.1219982 18 11 C 18 14.878002 14.878002 18 11 18 C 7.1219982 18 4 14.878002 4 11 C 4 7.5163997 6.5222216 4.6500238 9.8457031 4.1015625 L 10 4 z M 11 9 C 9.892 9 9 9.892 9 11 C 9 12.108 9.892 13 11 13 C 12.108 13 13 12.108 13 11 C 13 9.892 12.108 9 11 9 z "
       transform="translate(421.71429,525.79074)"
       id="rect3344" />
  </g>
</svg>
