<?xml version="1.0" encoding="UTF-8" standalone="no"?>
<!-- Created with Inkscape (http://www.inkscape.org/) -->

<svg
   xmlns:dc="http://purl.org/dc/elements/1.1/"
   xmlns:cc="http://creativecommons.org/ns#"
   xmlns:rdf="http://www.w3.org/1999/02/22-rdf-syntax-ns#"
   xmlns:svg="http://www.w3.org/2000/svg"
   xmlns="http://www.w3.org/2000/svg"
   xmlns:sodipodi="http://sodipodi.sourceforge.net/DTD/sodipodi-0.dtd"
   xmlns:inkscape="http://www.inkscape.org/namespaces/inkscape"
   width="16"
   height="16"
   id="svg2"
   version="1.1"
   inkscape:version="0.91 r13725"
   viewBox="0 0 16 16"
   sodipodi:docname="emblem-symbolic-link.svg">
  <defs
     id="defs4" />
  <sodipodi:namedview
     id="base"
     pagecolor="#ffffff"
     bordercolor="#666666"
     borderopacity="1.0"
     inkscape:pageopacity="0.0"
     inkscape:pageshadow="2"
     inkscape:zoom="16.681818"
     inkscape:cx="-1.1117167"
     inkscape:cy="7.9999652"
     inkscape:document-units="px"
     inkscape:current-layer="layer1"
     showgrid="true"
     inkscape:showpageshadow="false"
     borderlayer="true"
     units="px"
     inkscape:window-width="1366"
     inkscape:window-height="709"
     inkscape:window-x="-4"
     inkscape:window-y="0"
     inkscape:window-maximized="1"
     inkscape:snap-bbox="true"
     showguides="true"
     fit-margin-top="0"
     fit-margin-left="0"
     fit-margin-right="0"
     fit-margin-bottom="0">
    <inkscape:grid
       type="xygrid"
       id="grid4062"
       empspacing="2"
       originx="-3"
       originy="-3.0000348" />
    <sodipodi:guide
       position="16,-1.7365625e-05"
       orientation="-16,0"
       id="guide3352" />
    <sodipodi:guide
       position="2,14"
       orientation="12,0"
       id="guide4147" />
    <sodipodi:guide
       position="2,2"
       orientation="0,12"
       id="guide4149" />
    <sodipodi:guide
       position="14,2"
       orientation="-12,0"
       id="guide4151" />
    <sodipodi:guide
       position="14,14"
       orientation="0,-12"
       id="guide4153" />
    <sodipodi:guide
       position="0,16"
       orientation="16,0"
       id="guide4155" />
    <sodipodi:guide
       position="0,0"
       orientation="0,16"
       id="guide4157" />
    <sodipodi:guide
       position="16,0"
       orientation="-16,0"
       id="guide4159" />
    <sodipodi:guide
       position="16,16"
       orientation="0,-16"
       id="guide4161" />
  </sodipodi:namedview>
  <metadata
     id="metadata7">
    <rdf:RDF>
      <cc:Work
         rdf:about="">
        <dc:format>image/svg+xml</dc:format>
        <dc:type
           rdf:resource="http://purl.org/dc/dcmitype/StillImage" />
        <dc:title />
      </cc:Work>
    </rdf:RDF>
  </metadata>
  <g
     inkscape:label="Capa 1"
     inkscape:groupmode="layer"
     id="layer1"
     transform="translate(-3,-1033.3622)">
    <path
       style="opacity:1;fill:#4d4d4d;fill-opacity:1;stroke:none"
       d="M 4,7 C 3.4459904,7 3,7.4459904 3,8 l 0,6 c 0,0.55401 0.4459904,1 1,1 l 5,0 c 0.55401,0 1,-0.44599 1,-1 l 0,-1 2,0 0,1 c 0,0.554 0.44599,1 1,1 l 5,0 c 0.55401,0 1,-0.446 1,-1 L 19,8 C 19,7.446 18.55401,7 18,7 l -5,0 c -0.55401,0 -1,0.446 -1,1 l 0,1 -2,0 0,-1 C 10,7.4459904 9.55401,7 9,7 Z M 4,8 7,8 9,8 9,9 C 8.4459904,9 8,9.4459904 8,10 l 0,2 c 0,0.55401 0.4459904,1 1,1 l 0,1 -2,0 -3,0 z m 9,0 3,0 2,0 0,6 -2,0 -3,0 0,-1 c 0.55401,0 1,-0.44599 1,-1 l 0,-2 C 14,9.4459904 13.55401,9 13,9 Z m -4,2 4,0 0,2 -4,0 z"
       transform="translate(0,1030.3622)"
       id="rect4161"
       inkscape:connector-curvature="0"
       sodipodi:nodetypes="ssssssccssssssssccsssccccssccccccccccccssccccccc" />
  </g>
</svg>
