<?xml version="1.0" encoding="UTF-8" standalone="no"?>
<!-- Created with Inkscape (http://www.inkscape.org/) -->

<svg
   xmlns:dc="http://purl.org/dc/elements/1.1/"
   xmlns:cc="http://creativecommons.org/ns#"
   xmlns:rdf="http://www.w3.org/1999/02/22-rdf-syntax-ns#"
   xmlns:svg="http://www.w3.org/2000/svg"
   xmlns="http://www.w3.org/2000/svg"
   xmlns:xlink="http://www.w3.org/1999/xlink"
   xmlns:sodipodi="http://sodipodi.sourceforge.net/DTD/sodipodi-0.dtd"
   xmlns:inkscape="http://www.inkscape.org/namespaces/inkscape"
   width="128"
   height="128"
   viewBox="0 0 33.866666 33.866668"
   id="svg2"
   version="1.1"
   inkscape:version="0.91+devel r"
   sodipodi:docname="plasmoid-cdcover.svg">
  <defs
     id="defs4">
    <linearGradient
       inkscape:collect="always"
       id="linearGradient4736">
      <stop
         style="stop-color:#cccccc;stop-opacity:1;"
         offset="0"
         id="stop4738" />
      <stop
         style="stop-color:#cccccc;stop-opacity:0;"
         offset="1"
         id="stop4740" />
    </linearGradient>
    <linearGradient
       inkscape:collect="always"
       id="linearGradient4547">
      <stop
         style="stop-color:#313437;stop-opacity:1;"
         offset="0"
         id="stop4549" />
      <stop
         id="stop4555"
         offset="0.97916687"
         style="stop-color:#313437;stop-opacity:0.49803922;" />
      <stop
         style="stop-color:#313437;stop-opacity:0;"
         offset="1"
         id="stop4551" />
    </linearGradient>
    <linearGradient
       id="linearGradient4143"
       inkscape:collect="always">
      <stop
         id="stop4145"
         offset="0"
         style="stop-color:#197cf1;stop-opacity:1" />
      <stop
         id="stop4147"
         offset="1"
         style="stop-color:#20bcfa;stop-opacity:1" />
    </linearGradient>
    <linearGradient
       inkscape:collect="always"
       xlink:href="#linearGradient4143"
       id="linearGradient4306"
       x1="6.6145825"
       y1="292.76672"
       x2="6.6145825"
       y2="267.36673"
       gradientUnits="userSpaceOnUse"
       gradientTransform="translate(-1.8520816,1.9532025e-6)" />
    <linearGradient
       gradientTransform="matrix(0.26458334,0,0,0.26458334,-0.2645848,263.13332)"
       inkscape:collect="always"
       xlink:href="#linearGradient4227"
       id="linearGradient4507"
       x1="16.000011"
       y1="23"
       x2="32"
       y2="38.999729"
       gradientUnits="userSpaceOnUse" />
    <linearGradient
       inkscape:collect="always"
       id="linearGradient4227">
      <stop
         style="stop-color:#292c2f;stop-opacity:1"
         offset="0"
         id="stop4229" />
      <stop
         style="stop-color:#000000;stop-opacity:0;"
         offset="1"
         id="stop4231" />
    </linearGradient>
    <linearGradient
       inkscape:collect="always"
       xlink:href="#linearGradient4438"
       id="linearGradient4444"
       x1="10.99999"
       y1="1049.3622"
       x2="10.99999"
       y2="1033.3622"
       gradientUnits="userSpaceOnUse"
       gradientTransform="translate(0,-2.00004)" />
    <linearGradient
       inkscape:collect="always"
       id="linearGradient4438">
      <stop
         style="stop-color:#000000;stop-opacity:0"
         offset="0"
         id="stop4440" />
      <stop
         style="stop-color:#000000;stop-opacity:1"
         offset="1"
         id="stop4442" />
    </linearGradient>
    <linearGradient
       inkscape:collect="always"
       xlink:href="#linearGradient4290-2"
       id="linearGradient4452"
       x1="10.99999"
       y1="19.00004"
       x2="10.99999"
       y2="3.0000401"
       gradientUnits="userSpaceOnUse"
       gradientTransform="translate(0,-2.00004)" />
    <linearGradient
       id="linearGradient4290-2"
       inkscape:collect="always">
      <stop
         id="stop4292"
         offset="0"
         style="stop-color:#7cbaf8;stop-opacity:1" />
      <stop
         id="stop4294"
         offset="1"
         style="stop-color:#f4fcff;stop-opacity:1" />
    </linearGradient>
    <radialGradient
       inkscape:collect="always"
       xlink:href="#linearGradient4547"
       id="radialGradient4553"
       cx="18.520836"
       cy="280.06671"
       fx="18.520836"
       fy="280.06671"
       r="12.699996"
       gradientUnits="userSpaceOnUse"
       gradientTransform="translate(2.6458317,-6.9390098e-4)" />
    <linearGradient
       id="linearGradient4303"
       inkscape:collect="always">
      <stop
         id="stop4305"
         offset="0"
         style="stop-color:#c6cdd1;stop-opacity:1" />
      <stop
         id="stop4307"
         offset="1"
         style="stop-color:#e0e5e7;stop-opacity:1" />
    </linearGradient>
    <linearGradient
       inkscape:collect="always"
       xlink:href="#linearGradient4303"
       id="linearGradient4652"
       x1="19.049999"
       y1="292.50208"
       x2="19.049999"
       y2="267.63126"
       gradientUnits="userSpaceOnUse"
       gradientTransform="translate(2.6458335,4.5990358e-6)" />
    <linearGradient
       inkscape:collect="always"
       xlink:href="#linearGradient4736"
       id="linearGradient4742"
       x1="28.045834"
       y1="282.97708"
       x2="28.045834"
       y2="278.74374"
       gradientUnits="userSpaceOnUse"
       gradientTransform="translate(1.5875001,-0.26453607)" />
  </defs>
  <sodipodi:namedview
     id="base"
     pagecolor="#ffffff"
     bordercolor="#666666"
     borderopacity="1.0"
     inkscape:pageopacity="0.0"
     inkscape:pageshadow="2"
     inkscape:zoom="5.590563"
     inkscape:cx="76.521151"
     inkscape:cy="67.582439"
     inkscape:document-units="px"
     inkscape:current-layer="layer1"
     showgrid="true"
     inkscape:showpageshadow="false"
     borderlayer="true"
     units="px"
     inkscape:window-width="1366"
     inkscape:window-height="670"
     inkscape:window-x="-4"
     inkscape:window-y="29"
     inkscape:window-maximized="1">
    <inkscape:grid
       type="xygrid"
       id="grid4141"
       empspacing="2" />
    <sodipodi:guide
       position="-2.5038734e-14,33.866667"
       orientation="128,0"
       id="guide4172" />
    <sodipodi:guide
       position="-2.5038734e-14,-2.1389887e-06"
       orientation="0,128.00001"
       id="guide4174" />
    <sodipodi:guide
       position="33.866668,-2.1389887e-06"
       orientation="-128,0"
       id="guide4176" />
    <sodipodi:guide
       position="33.866668,33.866667"
       orientation="0,-128.00001"
       id="guide4178" />
    <sodipodi:guide
       position="4.2333377,29.633268"
       orientation="95.999974,0"
       id="guide4180" />
    <sodipodi:guide
       position="4.2333377,4.2332742"
       orientation="0,96.000004"
       id="guide4182" />
    <sodipodi:guide
       position="29.633338,4.2332742"
       orientation="-95.999974,0"
       id="guide4184" />
    <sodipodi:guide
       position="29.633338,29.633268"
       orientation="0,-96.000004"
       id="guide4186" />
  </sodipodi:namedview>
  <metadata
     id="metadata7">
    <rdf:RDF>
      <cc:Work
         rdf:about="">
        <dc:format>image/svg+xml</dc:format>
        <dc:type
           rdf:resource="http://purl.org/dc/dcmitype/StillImage" />
        <dc:title></dc:title>
      </cc:Work>
    </rdf:RDF>
  </metadata>
  <g
     inkscape:label="Capa 1"
     inkscape:groupmode="layer"
     id="layer1"
     transform="translate(0,-263.13333)">
    <g
       id="g4785"
       transform="translate(-2.3812507)">
      <path
         style="opacity:1;fill:#000000;fill-opacity:0.15686275;stroke:none;stroke-width:0.1;stroke-linecap:round;stroke-linejoin:miter;stroke-miterlimit:4;stroke-dasharray:none;stroke-opacity:0.29943501"
         d="m 21.166667,276.36238 a 3.7042129,3.7042129 0 0 0 -3.704212,3.70428 3.7042129,3.7042129 0 0 0 3.704212,3.70428 3.7042129,3.7042129 0 0 0 3.704213,-3.70428 3.7042129,3.7042129 0 0 0 -3.704213,-3.70428 z m 0,2.70103 a 1.0032232,1.0032232 0 0 1 1.003228,1.00325 1.0032232,1.0032232 0 0 1 -1.003228,1.00325 1.0032232,1.0032232 0 0 1 -1.003227,-1.00325 1.0032232,1.0032232 0 0 1 1.003227,-1.00325 z"
         id="path4744"
         inkscape:connector-curvature="0" />
      <path
         inkscape:connector-curvature="0"
         id="circle4545"
         d="m 21.166667,267.36666 a 12.699996,12.699996 0 0 0 -12.7000011,12.7 12.699996,12.699996 0 0 0 12.7000011,12.7 12.699996,12.699996 0 0 0 12.700001,-12.7 12.699996,12.699996 0 0 0 -12.700001,-12.7 z m 0,9.26042 a 3.4395781,3.4395781 0 0 1 3.439584,3.43958 3.4395781,3.4395781 0 0 1 -3.439584,3.43959 3.4395781,3.4395781 0 0 1 -3.439583,-3.43959 3.4395781,3.4395781 0 0 1 3.439583,-3.43958 z"
         style="opacity:1;fill:url(#radialGradient4553);fill-opacity:1;stroke:none;stroke-width:0.1;stroke-linecap:round;stroke-linejoin:miter;stroke-miterlimit:4;stroke-dasharray:none;stroke-opacity:0.29943501" />
      <path
         inkscape:connector-curvature="0"
         id="path4308"
         d="M 21.166667,267.63125 A 12.435412,12.435412 0 0 0 8.7312489,280.06666 12.435412,12.435412 0 0 0 21.166667,292.50208 12.435412,12.435412 0 0 0 33.602084,280.06666 12.435412,12.435412 0 0 0 21.166667,267.63125 Z m 0,8.99583 a 3.4395832,3.4395832 0 0 0 -0.289904,0.0145 3.4395781,3.4395781 0 0 1 0.289904,-0.0145 z m 0.289905,0.0145 a 3.4395781,3.4395781 0 0 1 0.17725,0.0217 3.4395832,3.4395832 0 0 0 -0.17725,-0.0217 z m -0.757059,0.0217 a 3.4395832,3.4395832 0 0 0 -0.166915,0.0248 3.4395781,3.4395781 0 0 1 0.166915,-0.0248 z m 1.101224,0.0248 a 3.4395781,3.4395781 0 0 1 0.172083,0.0388 3.4395832,3.4395832 0 0 0 -0.172083,-0.0388 z m -1.440222,0.0388 a 3.4395832,3.4395832 0 0 0 -0.157096,0.0403 3.4395781,3.4395781 0 0 1 0.157096,-0.0403 z m 1.769401,0.0403 a 3.4395781,3.4395781 0 0 1 0.172083,0.0568 3.4395832,3.4395832 0 0 0 -0.172083,-0.0568 z m -2.09858,0.0568 a 3.4395832,3.4395832 0 0 0 -0.156579,0.0568 3.4395781,3.4395781 0 0 1 0.156579,-0.0568 z m 2.427242,0.0568 a 3.4395781,3.4395781 0 0 1 0.157614,0.0708 3.4395832,3.4395832 0 0 0 -0.157614,-0.0708 z m -2.741435,0.0708 a 3.4395832,3.4395832 0 0 0 -0.155029,0.0754 3.4395781,3.4395781 0 0 1 0.155029,-0.0754 z m 3.054078,0.0754 a 3.4395781,3.4395781 0 0 1 0.143144,0.0816 3.4395832,3.4395832 0 0 0 -0.143144,-0.0816 z m -3.352251,0.0816 a 3.4395832,3.4395832 0 0 0 -0.153995,0.0946 3.4395781,3.4395781 0 0 1 0.153995,-0.0946 z m 3.64939,0.0946 a 3.4395781,3.4395781 0 0 1 0.134876,0.0966 3.4395832,3.4395832 0 0 0 -0.134876,-0.0966 z m -3.938261,0.0966 a 3.4395832,3.4395832 0 0 0 -0.137976,0.10438 3.4395781,3.4395781 0 0 1 0.137976,-0.10438 z m 4.211113,0.10438 a 3.4395781,3.4395781 0 0 1 0.132808,0.11679 3.4395832,3.4395832 0 0 0 -0.132808,-0.11679 z m -4.481897,0.11679 a 3.4395832,3.4395832 0 0 0 -0.123507,0.11472 3.4395781,3.4395781 0 0 1 0.123507,-0.11472 z m 4.738212,0.11472 a 3.4395781,3.4395781 0 0 1 0.114722,0.12351 3.4395832,3.4395832 0 0 0 -0.114722,-0.12351 z m -4.976441,0.12351 a 3.4395832,3.4395832 0 0 0 -0.116788,0.13281 3.4395781,3.4395781 0 0 1 0.116788,-0.13281 z m 5.207951,0.13281 a 3.4395781,3.4395781 0 0 1 0.104387,0.13798 3.4395832,3.4395832 0 0 0 -0.104387,-0.13798 z m -5.429126,0.13798 a 3.4395832,3.4395832 0 0 0 -0.09663,0.13487 3.4395781,3.4395781 0 0 1 0.09663,-0.13487 z m 5.630148,0.13487 a 3.4395781,3.4395781 0 0 1 0.09457,0.154 3.4395832,3.4395832 0 0 0 -0.09457,-0.154 z m -5.821351,0.154 a 3.4395832,3.4395832 0 0 0 -0.08165,0.14314 3.4395781,3.4395781 0 0 1 0.08165,-0.14314 z m 5.997567,0.14314 a 3.4395781,3.4395781 0 0 1 0.07545,0.15503 3.4395832,3.4395832 0 0 0 -0.07545,-0.15503 z m -6.154663,0.15503 a 3.4395832,3.4395832 0 0 0 -0.0708,0.15761 3.4395781,3.4395781 0 0 1 0.0708,-0.15761 z m 3.115055,0.12661 a 1.3229165,1.3229165 0 0 1 1.322917,1.32291 1.3229165,1.3229165 0 0 1 -1.322917,1.32292 1.3229165,1.3229165 0 0 1 -1.322916,-1.32292 1.3229165,1.3229165 0 0 1 1.322916,-1.32291 z m 3.185853,0.031 a 3.4395781,3.4395781 0 0 1 0.05684,0.15658 3.4395832,3.4395832 0 0 0 -0.05684,-0.15658 z m -6.428549,0.15658 a 3.4395832,3.4395832 0 0 0 -0.05684,0.17209 3.4395781,3.4395781 0 0 1 0.05684,-0.17209 z m 6.542237,0.17209 a 3.4395781,3.4395781 0 0 1 0.04031,0.15709 3.4395832,3.4395832 0 0 0 -0.04031,-0.15709 z m -6.639388,0.15709 a 3.4395832,3.4395832 0 0 0 -0.03876,0.17208 3.4395781,3.4395781 0 0 1 0.03876,-0.17208 z m 6.718453,0.17208 a 3.4395781,3.4395781 0 0 1 0.0248,0.16692 3.4395832,3.4395832 0 0 0 -0.0248,-0.16692 z m -6.782015,0.16692 a 3.4395832,3.4395832 0 0 0 -0.0217,0.17725 3.4395781,3.4395781 0 0 1 0.0217,-0.17725 z m 6.828523,0.17725 a 3.4395781,3.4395781 0 0 1 0.01447,0.2899 3.4395832,3.4395832 0 0 0 -0.01447,-0.2899 z m -6.864697,0.2899 a 3.4395832,3.4395832 0 0 0 0.01447,0.28991 3.4395781,3.4395781 0 0 1 -0.01447,-0.28991 z m 6.864697,0.28991 a 3.4395781,3.4395781 0 0 1 -0.0217,0.17725 3.4395832,3.4395832 0 0 0 0.0217,-0.17725 z m -6.828523,0.17725 a 3.4395832,3.4395832 0 0 0 0.0248,0.16691 3.4395781,3.4395781 0 0 1 -0.0248,-0.16691 z m 6.782015,0.16691 a 3.4395781,3.4395781 0 0 1 -0.03876,0.17209 3.4395832,3.4395832 0 0 0 0.03876,-0.17209 z m -6.718453,0.17209 a 3.4395832,3.4395832 0 0 0 0.04031,0.15709 3.4395781,3.4395781 0 0 1 -0.04031,-0.15709 z m 6.639388,0.15709 a 3.4395781,3.4395781 0 0 1 -0.05684,0.17209 3.4395832,3.4395832 0 0 0 0.05684,-0.17209 z m -6.542237,0.17209 a 3.4395832,3.4395832 0 0 0 0.05684,0.15657 3.4395781,3.4395781 0 0 1 -0.05684,-0.15657 z m 6.428549,0.15657 a 3.4395781,3.4395781 0 0 1 -0.0708,0.15762 3.4395832,3.4395832 0 0 0 0.0708,-0.15762 z m -6.300908,0.15762 a 3.4395832,3.4395832 0 0 0 0.07545,0.15503 3.4395781,3.4395781 0 0 1 -0.07545,-0.15503 z m 6.154663,0.15503 a 3.4395781,3.4395781 0 0 1 -0.08165,0.14314 3.4395832,3.4395832 0 0 0 0.08165,-0.14314 z m -5.997567,0.14314 a 3.4395832,3.4395832 0 0 0 0.09457,0.154 3.4395781,3.4395781 0 0 1 -0.09457,-0.154 z m 5.821351,0.154 a 3.4395781,3.4395781 0 0 1 -0.09663,0.13487 3.4395832,3.4395832 0 0 0 0.09663,-0.13487 z m -5.630148,0.13487 a 3.4395832,3.4395832 0 0 0 0.104387,0.13798 3.4395781,3.4395781 0 0 1 -0.104387,-0.13798 z m 5.429126,0.13798 a 3.4395781,3.4395781 0 0 1 -0.116788,0.13281 3.4395832,3.4395832 0 0 0 0.116788,-0.13281 z m -5.207951,0.13281 a 3.4395832,3.4395832 0 0 0 0.114722,0.1235 3.4395781,3.4395781 0 0 1 -0.114722,-0.1235 z m 4.976441,0.1235 a 3.4395781,3.4395781 0 0 1 -0.123507,0.11472 3.4395832,3.4395832 0 0 0 0.123507,-0.11472 z m -4.738212,0.11472 a 3.4395832,3.4395832 0 0 0 0.132808,0.11679 3.4395781,3.4395781 0 0 1 -0.132808,-0.11679 z m 4.481897,0.11679 a 3.4395781,3.4395781 0 0 1 -0.137976,0.10439 3.4395832,3.4395832 0 0 0 0.137976,-0.10439 z m -4.211113,0.10439 a 3.4395832,3.4395832 0 0 0 0.134876,0.0966 3.4395781,3.4395781 0 0 1 -0.134876,-0.0966 z m 3.938261,0.0966 a 3.4395781,3.4395781 0 0 1 -0.153995,0.0946 3.4395832,3.4395832 0 0 0 0.153995,-0.0946 z m -3.64939,0.0946 a 3.4395832,3.4395832 0 0 0 0.143144,0.0816 3.4395781,3.4395781 0 0 1 -0.143144,-0.0816 z m 3.352251,0.0816 a 3.4395781,3.4395781 0 0 1 -0.155029,0.0754 3.4395832,3.4395832 0 0 0 0.155029,-0.0754 z m -3.054078,0.0754 a 3.4395832,3.4395832 0 0 0 0.157614,0.0708 3.4395781,3.4395781 0 0 1 -0.157614,-0.0708 z m 2.741435,0.0708 a 3.4395781,3.4395781 0 0 1 -0.156579,0.0568 3.4395832,3.4395832 0 0 0 0.156579,-0.0568 z m -2.427242,0.0568 a 3.4395832,3.4395832 0 0 0 0.172083,0.0568 3.4395781,3.4395781 0 0 1 -0.172083,-0.0568 z m 2.09858,0.0568 a 3.4395781,3.4395781 0 0 1 -0.157096,0.0403 3.4395832,3.4395832 0 0 0 0.157096,-0.0403 z m -1.769401,0.0403 a 3.4395832,3.4395832 0 0 0 0.172083,0.0388 3.4395781,3.4395781 0 0 1 -0.172083,-0.0388 z m 1.440222,0.0388 a 3.4395781,3.4395781 0 0 1 -0.166915,0.0248 3.4395832,3.4395832 0 0 0 0.166915,-0.0248 z m -1.101224,0.0248 a 3.4395832,3.4395832 0 0 0 0.17725,0.0217 3.4395781,3.4395781 0 0 1 -0.17725,-0.0217 z m 0.757059,0.0217 a 3.4395781,3.4395781 0 0 1 -0.289905,0.0145 3.4395832,3.4395832 0 0 0 0.289905,-0.0145 z"
         style="opacity:1;fill:url(#linearGradient4652);fill-opacity:1;stroke:none;stroke-width:0.1;stroke-linecap:round;stroke-linejoin:miter;stroke-miterlimit:4;stroke-dasharray:none;stroke-opacity:0.29943501" />
      <path
         inkscape:connector-curvature="0"
         id="circle4543"
         d="M 21.166667,268.16041 A 11.906245,11.906245 0 0 0 9.2604156,280.06666 11.906245,11.906245 0 0 0 21.166667,291.97291 11.906245,11.906245 0 0 0 33.072918,280.06666 11.906245,11.906245 0 0 0 21.166667,268.16041 Z m 0,8.46667 a 3.4395781,3.4395781 0 0 1 3.439584,3.43958 3.4395781,3.4395781 0 0 1 -3.439584,3.43959 3.4395781,3.4395781 0 0 1 -3.439583,-3.43959 3.4395781,3.4395781 0 0 1 3.439583,-3.43958 z m 0,0.79375 a 2.6458282,2.6458282 0 0 0 -2.645833,2.64583 2.6458282,2.6458282 0 0 0 2.645833,2.64584 2.6458282,2.6458282 0 0 0 2.645834,-2.64584 2.6458282,2.6458282 0 0 0 -2.645834,-2.64583 z m 0,1.32292 a 1.3229115,1.3229115 0 0 1 1.322917,1.32291 1.3229115,1.3229115 0 0 1 -1.322917,1.32292 1.3229115,1.3229115 0 0 1 -1.322916,-1.32292 1.3229115,1.3229115 0 0 1 1.322916,-1.32291 z"
         style="opacity:1;fill:#313437;fill-opacity:1;stroke:none;stroke-width:0.1;stroke-linecap:round;stroke-linejoin:miter;stroke-miterlimit:4;stroke-dasharray:none;stroke-opacity:0.29943501" />
      <path
         id="rect4141"
         d="m 28.839584,278.47921 0,0.52916 0,1.66037 c -0.07805,-0.0453 -0.1675,-0.0729 -0.264584,-0.0729 -0.293157,0 -0.529166,0.23601 -0.529166,0.52917 0,0.29316 0.236009,0.52917 0.529166,0.52917 0.293157,0 0.529167,-0.23601 0.529167,-0.52917 l 0,-1.5875 1.852083,0 0,0.60203 c -0.07805,-0.0453 -0.1675,-0.0729 -0.264583,-0.0729 -0.293157,0 -0.529167,0.23601 -0.529167,0.52916 0,0.29316 0.23601,0.52917 0.529167,0.52917 0.293157,0 0.529167,-0.23601 0.529167,-0.52917 l 0,-2.11666 -2.38125,0 z m 0.264583,0.52916 1.852083,0 0,0.26459 -1.852083,0 0,-0.26459 z"
         style="fill:url(#linearGradient4742);fill-opacity:1;stroke:none"
         inkscape:connector-curvature="0" />
      <path
         inkscape:connector-curvature="0"
         id="path4128"
         d="m 26.822133,270.27108 c -0.577927,-0.33354 -1.174773,-0.59804 -1.779756,-0.81944 l -2.062656,5.57723 c 0.294443,0.10736 0.584737,0.23544 0.865846,0.39782 0.281108,0.1621 0.537832,0.34924 0.777498,0.55086 l 3.798623,-4.57478 c -0.494258,-0.41316 -1.021625,-0.79789 -1.599555,-1.13169 z"
         style="fill:#4c5053;fill-opacity:1;stroke:none" />
      <path
         inkscape:connector-curvature="0"
         style="fill:#4c5053;fill-opacity:1;stroke:none"
         d="m 15.5112,289.86225 c -0.57793,-0.3338 -1.105322,-0.71828 -1.599559,-1.13168 l 3.798627,-4.57478 c 0.239666,0.20164 0.49639,0.38872 0.777473,0.55085 0.281109,0.16228 0.571405,0.29114 0.865871,0.39783 l -2.062656,5.57723 c -0.604983,-0.2214 -1.201851,-0.48591 -1.779756,-0.81945 z"
         id="path4197" />
      <path
         id="path4461"
         d="m 13.168606,288.0646 c -0.471869,-0.47172 -0.881699,-0.97979 -1.252166,-1.50679 l 4.853277,-3.43604 c 0.17925,0.25688 0.378869,0.50394 0.608402,0.73344 0.229507,0.22951 0.476562,0.42922 0.733368,0.60841 l -3.435838,4.85325 c -0.527079,-0.37039 -1.035171,-0.7803 -1.507043,-1.25227 z"
         style="fill:#4c5053;fill-opacity:0.19774014;stroke:none"
         inkscape:connector-curvature="0" />
      <path
         inkscape:connector-curvature="0"
         id="path4463"
         d="m 30.962223,274.41112 c -0.333669,-0.57785 -0.718373,-1.10524 -1.131581,-1.5994 l -4.574905,3.79852 c 0.201643,0.23977 0.388647,0.49637 0.550928,0.77755 0.162344,0.28118 0.291142,0.57145 0.397851,0.86582 l 5.577156,-2.06273 c -0.2214,-0.60488 -0.485781,-1.20165 -0.819449,-1.77976 z"
         style="fill:#4c5053;fill-opacity:0.19774014;stroke:none" />
      <path
         inkscape:connector-curvature="0"
         style="fill:#4c5053;fill-opacity:0.19774014;stroke:none"
         d="m 11.371085,285.72221 c -0.333644,-0.57811 -0.598023,-1.17488 -0.819424,-1.77976 l 5.577131,-2.06273 c 0.106693,0.29437 0.23557,0.58489 0.397876,0.86582 0.162326,0.28118 0.349261,0.53779 0.550903,0.77755 l -4.57488,3.79853 c -0.413233,-0.49417 -0.797935,-1.02156 -1.131606,-1.59941 z"
         id="path4465" />
      <path
         id="path4780"
         transform="matrix(0.26458334,0,0,0.26458334,-1.0093054e-6,263.13333)"
         d="M 80,52 A 12,12 0 0 0 68,64 12,12 0 0 0 80,76 12,12 0 0 0 92,64 12,12 0 0 0 80,52 Z m 0,1 A 11,11 0 0 1 91,64 11,11 0 0 1 80,75 11,11 0 0 1 69,64 11,11 0 0 1 80,53 Z"
         style="opacity:1;fill:#000000;fill-opacity:0.07843137;stroke:none;stroke-width:0.1;stroke-linecap:round;stroke-linejoin:miter;stroke-miterlimit:4;stroke-dasharray:none;stroke-opacity:0.29943501"
         inkscape:connector-curvature="0" />
    </g>
    <path
       style="opacity:1;fill:url(#linearGradient4306);fill-opacity:1;stroke:none;stroke-width:0.1;stroke-linecap:round;stroke-linejoin:miter;stroke-miterlimit:4;stroke-dasharray:none;stroke-opacity:0.29943501"
       d="m 2.3812485,267.36666 0,25.4 25.4000005,0 0,-10.84791 -2.38125,0 c -1.026054,0 -1.852083,-0.82603 -1.852083,-1.85209 0,-1.02605 0.826029,-1.85208 1.852083,-1.85208 l 2.38125,0 0,-10.84792 -25.4000005,0 z"
       id="rect4188"
       inkscape:connector-curvature="0" />
    <path
       inkscape:connector-curvature="0"
       style="opacity:0.2;fill:url(#linearGradient4507);fill-opacity:1;stroke:none;stroke-opacity:1"
       d="m 5.2141508,269.29625 -0.374138,0.37414 2.1166671,2.11667 -0.07752,0.0775 2.9104172,2.91042 0.155029,0 0.7482749,0 0.155028,0 0,-1.5875 -1.3229152,-1.32292 -1.322917,-1.32291 -0.871265,0.87126 -2.116667,-2.11667 z m -0.567924,1.62626 -0.561206,0.56121 1.455208,1.45521 -0.358117,0.35811 1.477945,1.47795 1.8391651,0 -3.8529951,-3.85248 z"
       id="rect4480" />
    <g
       transform="matrix(0.26458334,0,0,0.26458334,3.1750013,-4.1916754)"
       id="layer1-2"
       inkscape:label="Capa 1"
       style="fill:url(#linearGradient4444);fill-opacity:1;stroke:none">
      <path
         id="rect4231"
         transform="translate(0,1030.3622)"
         d="M 7,3 C 6.446,3 6,3.446 6,4 6,4.554 6.446,5 7,5 7.554,5 8,4.554 8,4 8,3.446 7.554,3 7,3 Z m 7,0 -2,2 3,3 -3,3 2,2 3,-3 2,-2 -5,-5 z M 4.5,9 C 3.669,9 3,9.669 3,10.5 3,11.331 3.669,12 4.5,12 5.331,12 6,11.331 6,10.5 6,9.669 5.331,9 4.5,9 Z M 9,15 c -1.108,0 -2,0.892 -2,2 0,1.108 0.892,2 2,2 1.108,0 2,-0.892 2,-2 0,-1.108 -0.892,-2 -2,-2 z"
         style="opacity:1;fill:url(#linearGradient4452);fill-opacity:1;stroke:none"
         inkscape:connector-curvature="0" />
    </g>
    <path
       style="opacity:1;fill:#000000;fill-opacity:0.31372549;stroke:none;stroke-width:0.1;stroke-linecap:round;stroke-linejoin:miter;stroke-miterlimit:4;stroke-dasharray:none;stroke-opacity:0.29943501"
       d="m 27.516666,267.36666 0,10.58334 -2.38125,0 c -1.026054,0 -1.852083,0.82602 -1.852083,1.85208 0,0.58063 0.264987,1.09701 0.680578,1.43609 -0.260127,-0.31882 -0.415995,-0.72608 -0.415995,-1.17151 0,-1.02605 0.826029,-1.85208 1.852083,-1.85208 l 2.38125,0 0,-10.84792 -0.264583,0 z m 0,14.55209 0,10.58333 -25.1354175,0 0,0.26458 25.4000005,0 0,-10.84791 -0.264583,0 z"
       id="path4532"
       inkscape:connector-curvature="0" />
    <path
       style="opacity:1;fill:#ffffff;fill-opacity:0.23529412;stroke:none;stroke-width:0.1;stroke-linecap:round;stroke-linejoin:miter;stroke-miterlimit:4;stroke-dasharray:none;stroke-opacity:0.29943501"
       d="m 2.3812485,267.36666 0,0.26459 25.1354175,0 0,-0.26459 z m 21.1733855,12.8323 c -0.0031,0.0439 -0.0067,0.0876 -0.0067,0.13229 0,1.02605 0.826029,1.85208 1.852083,1.85208 l 2.38125,0 0,-0.26458 -2.38125,0 c -0.981317,0 -1.777613,-0.7563 -1.845365,-1.71979 z"
       id="path4537"
       inkscape:connector-curvature="0"
       sodipodi:nodetypes="ccccccssccsc" />
  </g>
</svg>
