<?xml version="1.0" encoding="UTF-8" standalone="no"?>
<!-- Created with Inkscape (http://www.inkscape.org/) -->

<svg
   xmlns:dc="http://purl.org/dc/elements/1.1/"
   xmlns:cc="http://creativecommons.org/ns#"
   xmlns:rdf="http://www.w3.org/1999/02/22-rdf-syntax-ns#"
   xmlns:svg="http://www.w3.org/2000/svg"
   xmlns="http://www.w3.org/2000/svg"
   xmlns:xlink="http://www.w3.org/1999/xlink"
   xmlns:sodipodi="http://sodipodi.sourceforge.net/DTD/sodipodi-0.dtd"
   xmlns:inkscape="http://www.inkscape.org/namespaces/inkscape"
   width="32"
   height="32"
   id="svg5453"
   version="1.1"
   inkscape:version="0.91 r13725"
   sodipodi:docname="folder-print.svg"
   viewBox="0 0 32 32">
  <defs
     id="defs5455">
    <linearGradient
       id="linearGradient4172-5"
       inkscape:collect="always">
      <stop
         id="stop4174-6"
         offset="0"
         style="stop-color:#3daee9;stop-opacity:1" />
      <stop
         id="stop4176-6"
         offset="1"
         style="stop-color:#6cc1ef;stop-opacity:1" />
    </linearGradient>
    <linearGradient
       gradientUnits="userSpaceOnUse"
       y2="8"
       x2="16"
       y1="29"
       x1="16"
       id="linearGradient4342"
       xlink:href="#linearGradient4172-5"
       inkscape:collect="always" />
  </defs>
  <sodipodi:namedview
     id="base"
     pagecolor="#ffffff"
     bordercolor="#666666"
     borderopacity="1.0"
     inkscape:pageopacity="0"
     inkscape:pageshadow="2"
     inkscape:zoom="24.15625"
     inkscape:cx="16"
     inkscape:cy="16"
     inkscape:document-units="px"
     inkscape:current-layer="layer1"
     showgrid="true"
     fit-margin-top="0"
     fit-margin-left="0"
     fit-margin-right="0"
     fit-margin-bottom="0"
     inkscape:window-width="2560"
     inkscape:window-height="955"
     inkscape:window-x="0"
     inkscape:window-y="35"
     inkscape:window-maximized="1"
     inkscape:showpageshadow="false"
     borderlayer="true"
     showguides="true"
     inkscape:guide-bbox="true"
     inkscape:object-nodes="true"
     inkscape:snap-bbox="true">
    <inkscape:grid
       type="xygrid"
       id="grid4063" />
    <sodipodi:guide
       position="1.1650391e-05,32.000026"
       orientation="32,0"
       id="guide4272" />
    <sodipodi:guide
       position="1.1650391e-05,2.6367188e-05"
       orientation="0,31.999969"
       id="guide4274" />
    <sodipodi:guide
       position="31.999981,2.6367188e-05"
       orientation="-32,0"
       id="guide4276" />
    <sodipodi:guide
       position="31.999981,32.000026"
       orientation="0,-31.999969"
       id="guide4278" />
    <sodipodi:guide
       position="2.0000117,30.000026"
       orientation="28,0"
       id="guide4280" />
    <sodipodi:guide
       position="13,4"
       orientation="0,28"
       id="guide4282" />
    <sodipodi:guide
       position="30.000012,2.0000264"
       orientation="-28,0"
       id="guide4284" />
    <sodipodi:guide
       position="15,28"
       orientation="0,-28"
       id="guide4286" />
    <sodipodi:guide
       position="11.000012,19.000026"
       orientation="10,0"
       id="guide4202" />
    <sodipodi:guide
       position="11.000012,9.0000264"
       orientation="0,10"
       id="guide4204" />
    <sodipodi:guide
       position="21.000012,9.0000264"
       orientation="-10,0"
       id="guide4206" />
    <sodipodi:guide
       position="21.000012,19.000026"
       orientation="0,-10"
       id="guide4208" />
  </sodipodi:namedview>
  <metadata
     id="metadata5458">
    <rdf:RDF>
      <cc:Work
         rdf:about="">
        <dc:format>image/svg+xml</dc:format>
        <dc:type
           rdf:resource="http://purl.org/dc/dcmitype/StillImage" />
        <dc:title></dc:title>
      </cc:Work>
    </rdf:RDF>
  </metadata>
  <g
     inkscape:label="Capa 1"
     inkscape:groupmode="layer"
     id="layer1"
     transform="translate(-384.57143,-515.798)">
    <g
       id="layer1-7"
       inkscape:label="Capa 1"
       transform="translate(-5.8251953e-6,0)">
      <path
         inkscape:connector-curvature="0"
         id="path4308"
         d="m 386.57144,518.798 0,7 0,1 28,0 0,-6 -14.00001,0 -2,-2 z"
         style="fill:#147eb8;fill-opacity:1;fill-rule:evenodd;stroke:none;stroke-width:1px;stroke-linecap:butt;stroke-linejoin:miter;stroke-opacity:1" />
      <path
         sodipodi:nodetypes="ccccccc"
         inkscape:connector-curvature="0"
         id="path4306"
         d="m 397.57143,523.798 -1.99999,1 -9,0 0,1 6.99999,0 3,0 z"
         style="fill:#000000;fill-opacity:0.23529412;fill-rule:evenodd;stroke:none;stroke-width:1px;stroke-linecap:butt;stroke-linejoin:miter;stroke-opacity:1" />
      <path
         transform="translate(384.57143,515.798)"
         id="rect4294"
         d="m 13,8 -2,2 -9,0 -1,0 0,19 11,0 1,0 18,0 0,-21 -18,0 z"
         style="opacity:1;fill:url(#linearGradient4342);fill-opacity:1;stroke:none"
         inkscape:connector-curvature="0" />
      <path
         inkscape:connector-curvature="0"
         id="path4304"
         d="m 397.57143,523.798 -2,2 -10,0 0,1 11,0 z"
         style="fill:#ffffff;fill-opacity:0.23529412;fill-rule:evenodd;stroke:none;stroke-width:1px;stroke-linecap:butt;stroke-linejoin:miter;stroke-opacity:1" />
      <path
         inkscape:connector-curvature="0"
         id="path4310"
         d="m 398.57143,518.798 1,3 15.00001,0 0,-1 -14.00001,0 z"
         style="fill:#ffffff;fill-opacity:0.23529412;fill-rule:evenodd;stroke:none;stroke-width:1px;stroke-linecap:butt;stroke-linejoin:miter;stroke-opacity:1" />
      <rect
         y="543.79797"
         x="385.57144"
         height="1"
         width="30"
         id="rect4292"
         style="opacity:1;fill:#000000;fill-opacity:0.23529412;stroke:none" />
    </g>
    <path
       style="opacity:1;fill:#1272a5;fill-opacity:1;stroke:none;stroke-opacity:1"
       d="M 12 13 L 12 14 L 12 16 L 11 16 L 11 17 L 11 20 L 11 21 L 12 21 L 13 21 L 13 22 L 13 23 L 18 23 L 19 23 L 19 21 L 21 21 L 21 20 L 21 16 L 20 16 L 20 13 L 12 13 z M 13 14 L 19 14 L 19 16 L 13 16 L 13 14 z M 12 17 L 18 17 L 18 18 L 19 18 L 19 17 L 20 17 L 20 20 L 19 20 L 19 19 L 13 19 L 13 20 L 12 20 L 12 17 z M 14 21 L 18 21 L 18 22 L 14 22 L 14 21 z "
       transform="translate(384.57143,515.798)"
       id="rect4266" />
  </g>
</svg>
