<?xml version="1.0" encoding="UTF-8" standalone="no"?>
<!-- Created with Inkscape (http://www.inkscape.org/) -->

<svg
   xmlns:dc="http://purl.org/dc/elements/1.1/"
   xmlns:cc="http://creativecommons.org/ns#"
   xmlns:rdf="http://www.w3.org/1999/02/22-rdf-syntax-ns#"
   xmlns:svg="http://www.w3.org/2000/svg"
   xmlns="http://www.w3.org/2000/svg"
   xmlns:sodipodi="http://sodipodi.sourceforge.net/DTD/sodipodi-0.dtd"
   xmlns:inkscape="http://www.inkscape.org/namespaces/inkscape"
   width="22"
   height="22"
   id="svg3813"
   version="1.1"
   inkscape:version="0.48+devel r"
   sodipodi:docname="debug-step-over.svg">
  <defs
     id="defs3815" />
  <sodipodi:namedview
     id="base"
     pagecolor="#ffffff"
     bordercolor="#666666"
     borderopacity="1.0"
     inkscape:pageopacity="0.0"
     inkscape:pageshadow="2"
     inkscape:zoom="25.908291"
     inkscape:cx="11.802358"
     inkscape:cy="12.780134"
     inkscape:document-units="px"
     inkscape:current-layer="layer1"
     showgrid="true"
     fit-margin-top="0"
     fit-margin-left="0"
     fit-margin-right="0"
     fit-margin-bottom="0"
     inkscape:window-width="1366"
     inkscape:window-height="668"
     inkscape:window-x="-2"
     inkscape:window-y="23"
     inkscape:window-maximized="1"
     inkscape:showpageshadow="false">
    <inkscape:grid
       type="xygrid"
       id="grid4109" />
    <sodipodi:guide
       position="2.0000072,19.999993"
       orientation="18,0"
       id="guide4115" />
    <sodipodi:guide
       position="2.0000072,1.9999929"
       orientation="0,18"
       id="guide4117" />
    <sodipodi:guide
       position="20.000007,1.9999929"
       orientation="-18,0"
       id="guide4119" />
    <sodipodi:guide
       position="20.000007,19.999993"
       orientation="0,-18"
       id="guide4121" />
    <sodipodi:guide
       position="3.0000072,18.999993"
       orientation="16,0"
       id="guide4123" />
    <sodipodi:guide
       position="3.0000072,2.9999929"
       orientation="0,16"
       id="guide4125" />
    <sodipodi:guide
       position="19.000007,2.9999929"
       orientation="-16,0"
       id="guide4127" />
    <sodipodi:guide
       position="19.000007,18.999993"
       orientation="0,-16"
       id="guide4129" />
  </sodipodi:namedview>
  <metadata
     id="metadata3818">
    <rdf:RDF>
      <cc:Work
         rdf:about="">
        <dc:format>image/svg+xml</dc:format>
        <dc:type
           rdf:resource="http://purl.org/dc/dcmitype/StillImage" />
        <dc:title />
      </cc:Work>
    </rdf:RDF>
  </metadata>
  <g
     inkscape:label="Capa 1"
     inkscape:groupmode="layer"
     id="layer1"
     transform="translate(-378.85714,-540.07647)">
    <path
       style="font-style:normal;font-variant:normal;font-weight:normal;font-stretch:normal;font-size:medium;line-height:125%;font-family:oxygen;-inkscape-font-specification:oxygen;letter-spacing:0px;word-spacing:0px;fill:#f2f2f2;fill-opacity:1;stroke:none;stroke-width:1px;stroke-linecap:butt;stroke-linejoin:miter;stroke-opacity:1"
       d="m 3,3 0,4 0,12 1,0 15,0 0,-1 0,-9 -1,0 0,9 -14,0 0,-11 9,0 0,-2 0,-2 z m 6.4277344,6 c -1.06609,0 -1.5136719,0.3522483 -1.5136719,1.253906 l 0,1.222656 c 0,0.556913 -0.020505,1.201172 -0.609375,1.201172 l -0.3046875,0 0,0.644532 0.3046875,0 c 0.58889,0 0.609375,0.644261 0.609375,1.201172 l 0,1.222656 C 7.9140625,16.647754 8.3616444,17 9.4277344,17 l 0,-0.591797 c -0.71072,0 -0.720703,-0.239159 -0.7207032,-1.105469 l 0,-1.007812 c 0,-0.41546 -0.1236162,-1.034666 -0.7226562,-1.291016 0.59904,-0.25635 0.7226562,-0.873592 0.7226562,-1.289062 l 0,-1.017578 c 0,-0.8663036 0.010003,-1.1054691 0.7207032,-1.1054691 z m 3.1367186,0 0,0.5917969 c 0.71073,0 0.728516,0.2391655 0.728516,1.1054691 l 0,1.017578 c 0,0.41547 0.123606,1.032712 0.722656,1.289062 -0.59905,0.25635 -0.722656,0.875556 -0.722656,1.291016 l 0,1.007812 c 0,0.86631 -0.0177,1.105469 -0.728516,1.105469 l 0,0.591797 c 1.0661,0 1.521481,-0.352246 1.521485,-1.253906 l 0,-1.222656 c 0,-0.556913 0.0404,-1.201172 0.61914,-1.201172 l 0.294922,0 0,-0.644532 -0.294922,0 c -0.57874,0 -0.619144,-0.644261 -0.61914,-1.201172 l 0,-1.222656 C 14.085938,9.3522483 13.630553,9 12.564453,9 Z"
       transform="translate(378.85714,540.07647)"
       id="path4136"
       inkscape:connector-curvature="0"
       sodipodi:nodetypes="ccccccccccccccccsssccsssccsscssccccsscssccsssccsssc" />
    <path
       style="fill:#ff6600;fill-rule:evenodd;stroke:none;stroke-width:1px;stroke-linecap:butt;stroke-linejoin:miter;stroke-opacity:1"
       d="m 393.85715,543.07647 2,3 1.99999,-3 z"
       id="path4133"
       inkscape:connector-curvature="0"
       sodipodi:nodetypes="cccc" />
  </g>
</svg>
