<?xml version="1.0" encoding="UTF-8" standalone="no"?>
<!-- Created with Inkscape (http://www.inkscape.org/) -->

<svg
   xmlns:dc="http://purl.org/dc/elements/1.1/"
   xmlns:cc="http://creativecommons.org/ns#"
   xmlns:rdf="http://www.w3.org/1999/02/22-rdf-syntax-ns#"
   xmlns:svg="http://www.w3.org/2000/svg"
   xmlns="http://www.w3.org/2000/svg"
   xmlns:sodipodi="http://sodipodi.sourceforge.net/DTD/sodipodi-0.dtd"
   xmlns:inkscape="http://www.inkscape.org/namespaces/inkscape"
   width="22"
   height="22"
   id="svg2"
   version="1.1"
   inkscape:version="0.91 r13725"
   viewBox="0 0 22 22"
   sodipodi:docname="network-modem.svg">
  <defs
     id="defs4" />
  <sodipodi:namedview
     id="base"
     pagecolor="#ffffff"
     bordercolor="#666666"
     borderopacity="1.0"
     inkscape:pageopacity="0.0"
     inkscape:pageshadow="2"
     inkscape:zoom="11.552735"
     inkscape:cx="19.790893"
     inkscape:cy="4.9833667"
     inkscape:document-units="px"
     inkscape:current-layer="layer1"
     showgrid="true"
     inkscape:showpageshadow="false"
     units="px"
     inkscape:window-width="1366"
     inkscape:window-height="709"
     inkscape:window-x="-4"
     inkscape:window-y="0"
     inkscape:window-maximized="1"
     inkscape:snap-bbox="true"
     inkscape:object-nodes="true">
    <inkscape:grid
       type="xygrid"
       id="grid4101" />
    <sodipodi:guide
       position="2,20.000017"
       orientation="18,0"
       id="guide4107" />
    <sodipodi:guide
       position="2,2.0000174"
       orientation="0,18"
       id="guide4109" />
    <sodipodi:guide
       position="20,2.0000174"
       orientation="-18,0"
       id="guide4111" />
    <sodipodi:guide
       position="20,20.000017"
       orientation="0,-18"
       id="guide4113" />
    <sodipodi:guide
       position="3,19.000017"
       orientation="16,0"
       id="guide4115" />
    <sodipodi:guide
       position="3,3.0000174"
       orientation="0,16"
       id="guide4117" />
    <sodipodi:guide
       position="19,3.0000174"
       orientation="-16,0"
       id="guide4119" />
    <sodipodi:guide
       position="19,19.000017"
       orientation="0,-16"
       id="guide4121" />
  </sodipodi:namedview>
  <metadata
     id="metadata7">
    <rdf:RDF>
      <cc:Work
         rdf:about="">
        <dc:format>image/svg+xml</dc:format>
        <dc:type
           rdf:resource="http://purl.org/dc/dcmitype/StillImage" />
        <dc:title></dc:title>
      </cc:Work>
    </rdf:RDF>
  </metadata>
  <g
     inkscape:label="Capa 1"
     inkscape:groupmode="layer"
     id="layer1"
     transform="translate(0,-1030.3622)">
    <path
       style="opacity:1;fill:#4d4d4d;fill-opacity:1;stroke-linecap:round"
       d="m 3,11 0,7 16,0 0,-7 z m 1,1 14,0 0,5 -14,0 z"
       transform="translate(0,1030.3622)"
       id="rect3343"
       inkscape:connector-curvature="0"
       sodipodi:nodetypes="cccccccccc" />
    <rect
       style="opacity:1;fill:#4d4d4d;fill-opacity:1;stroke-linecap:round"
       id="rect4148"
       width="1"
       height="1"
       x="16"
       y="1045.3622" />
    <rect
       style="opacity:1;fill:#4d4d4d;fill-opacity:1;stroke-linecap:round"
       id="rect4150"
       width="1"
       height="1"
       x="14"
       y="1045.3622" />
    <rect
       style="opacity:1;fill:#4d4d4d;fill-opacity:1;stroke-linecap:round"
       id="rect4152"
       width="1"
       height="1"
       x="12"
       y="1045.3622" />
    <circle
       style="opacity:1;fill:#4d4d4d;fill-opacity:1;stroke-linecap:round"
       id="path4154"
       cx="8"
       cy="1039.3622"
       r="1" />
    <path
       style="opacity:1;fill:#4d4d4d;fill-opacity:1;stroke-linecap:round"
       d="m 8,1036.3622 a 3,3 0 0 0 -3,3 l 1,0 a 2,2 0 0 1 2,-2 2,2 0 0 1 2,2 l 1,0 a 3,3 0 0 0 -3,-3 z"
       id="path4156"
       inkscape:connector-curvature="0" />
    <path
       style="opacity:1;fill:#4d4d4d;fill-opacity:1;stroke-linecap:round"
       d="m 8,1034.3622 a 5,5 0 0 0 -5,5 l 1,0 a 4,4 0 0 1 4,-4 4,4 0 0 1 4,4 l 1,0 a 5,5 0 0 0 -5,-5 z"
       id="path4164"
       inkscape:connector-curvature="0" />
  </g>
</svg>
