<?xml version="1.0" encoding="UTF-8" standalone="no"?>
<!-- Created with Inkscape (http://www.inkscape.org/) -->

<svg
   xmlns:dc="http://purl.org/dc/elements/1.1/"
   xmlns:cc="http://creativecommons.org/ns#"
   xmlns:rdf="http://www.w3.org/1999/02/22-rdf-syntax-ns#"
   xmlns:svg="http://www.w3.org/2000/svg"
   xmlns="http://www.w3.org/2000/svg"
   xmlns:sodipodi="http://sodipodi.sourceforge.net/DTD/sodipodi-0.dtd"
   xmlns:inkscape="http://www.inkscape.org/namespaces/inkscape"
   width="32"
   height="32"
   id="svg3013"
   version="1.1"
   inkscape:version="0.48.4 r9939"
   sodipodi:docname="odb_32_8.svg">
  <defs
     id="defs3015" />
  <sodipodi:namedview
     id="base"
     pagecolor="#ffffff"
     bordercolor="#666666"
     borderopacity="1.0"
     inkscape:pageopacity="0.0"
     inkscape:pageshadow="2"
     inkscape:zoom="22.4"
     inkscape:cx="15.215575"
     inkscape:cy="14.681444"
     inkscape:document-units="px"
     inkscape:current-layer="layer1"
     showgrid="true"
     inkscape:window-width="1868"
     inkscape:window-height="1060"
     inkscape:window-x="50"
     inkscape:window-y="-3"
     inkscape:window-maximized="1"
     inkscape:snap-bbox="true">
    <inkscape:grid
       type="xygrid"
       id="grid3030"
       empspacing="5"
       visible="true"
       enabled="true"
       snapvisiblegridlinesonly="true" />
  </sodipodi:namedview>
  <metadata
     id="metadata3018">
    <rdf:RDF>
      <cc:Work
         rdf:about="">
        <dc:format>image/svg+xml</dc:format>
        <dc:type
           rdf:resource="http://purl.org/dc/dcmitype/StillImage" />
        <dc:title />
      </cc:Work>
    </rdf:RDF>
  </metadata>
  <g
     inkscape:label="Layer 1"
     inkscape:groupmode="layer"
     id="layer1"
     transform="translate(0,-1020.3622)">
    <rect
       style="fill:#8e44ad;fill-opacity:1;stroke:none"
       id="rect4035"
       width="0"
       height="14.666643"
       x="5.333333"
       y="1033.6956" />
    <rect
       style="fill:#8e44ad;fill-opacity:1;stroke:none"
       id="rect4035-5"
       width="0"
       height="9.7777624"
       x="-16.444445"
       y="1039.9177" />
    <path
       inkscape:connector-curvature="0"
       style="color:#000000;fill:#8e44ad;fill-opacity:1;fill-rule:nonzero;stroke:none;stroke-width:2;marker:none;visibility:visible;display:inline;overflow:visible;enable-background:accumulate"
       d="m 16,1024.3622 c -6.627417,0 -12,1.7909 -12,4 l 0,5.3333 0,5.3334 0,5.3333 c 0,2.2091 5.372583,4 12,4 6.627417,0 12,-1.7909 12,-4 l 0,-5.3333 0,-5.3334 0,-5.3333 c 0,-2.2091 -5.372583,-4 -12,-4 z m 0,2 c 5.522847,0 10,0.8954 10,2 0,1.1046 -4.477153,2 -10,2 -5.522847,0 -10,-0.8954 -10,-2 0,-1.1046 4.477153,-2 10,-2 z m -10,4.2083 c 2.150417,1.0767 5.828718,1.7917 10,1.7917 4.171282,0 7.849583,-0.715 10,-1.7917 l 0,3.125 c 0,1.1046 -4.477153,2 -10,2 -5.522847,0 -10,-0.8954 -10,-2 l 0,-3.125 z m 0,5.3334 c 2.150417,1.0766 5.828718,1.7916 10,1.7916 4.171282,0 7.849583,-0.715 10,-1.7916 l 0,3.125 c 0,1.1046 -4.477153,2 -10,2 -5.522847,0 -10,-0.8954 -10,-2 l 0,-3.125 z m 0,5.3333 c 2.150417,1.0767 5.828718,1.7917 10,1.7917 4.171282,0 7.849583,-0.715 10,-1.7917 l 0,3.125 c 0,1.1046 -4.477153,2 -10,2 -5.522847,0 -10,-0.8954 -10,-2 l 0,-3.125 z"
       id="path2985" />
  </g>
</svg>
