<?xml version="1.0" encoding="UTF-8" standalone="no"?>
<!-- Created with Inkscape (http://www.inkscape.org/) -->

<svg
   xmlns:dc="http://purl.org/dc/elements/1.1/"
   xmlns:cc="http://creativecommons.org/ns#"
   xmlns:rdf="http://www.w3.org/1999/02/22-rdf-syntax-ns#"
   xmlns:svg="http://www.w3.org/2000/svg"
   xmlns="http://www.w3.org/2000/svg"
   xmlns:xlink="http://www.w3.org/1999/xlink"
   xmlns:sodipodi="http://sodipodi.sourceforge.net/DTD/sodipodi-0.dtd"
   xmlns:inkscape="http://www.inkscape.org/namespaces/inkscape"
   width="96"
   height="96"
   id="svg3013"
   version="1.1"
   inkscape:version="0.48.4 r9939"
   sodipodi:docname="odg_96_8.svg">
  <defs
     id="defs3015">
    <linearGradient
       gradientUnits="userSpaceOnUse"
       y2="47"
       x2="47"
       y1="61"
       x1="47"
       id="linearGradient4357"
       xlink:href="#linearGradient4351"
       inkscape:collect="always" />
    <linearGradient
       id="linearGradient4410"
       inkscape:collect="always">
      <stop
         id="stop4412"
         offset="0"
         style="stop-color:#383e51;stop-opacity:1" />
      <stop
         id="stop4414"
         offset="1"
         style="stop-color:#655c6f;stop-opacity:0" />
    </linearGradient>
    <linearGradient
       gradientUnits="userSpaceOnUse"
       y2="17"
       x2="40"
       y1="31"
       x1="54"
       id="linearGradient4427"
       xlink:href="#linearGradient4410"
       inkscape:collect="always"
       gradientTransform="matrix(1,0,0,-1,-14,78)" />
    <linearGradient
       gradientUnits="userSpaceOnUse"
       y2="3"
       x2="32"
       y1="61"
       x1="32"
       id="linearGradient4306"
       xlink:href="#linearGradient4300"
       inkscape:collect="always" />
    <linearGradient
       id="linearGradient4300"
       inkscape:collect="always">
      <stop
         id="stop4302"
         offset="0"
         style="stop-color:#26c281;stop-opacity:1" />
      <stop
         id="stop4304"
         offset="1"
         style="stop-color:#3fc380;stop-opacity:1" />
    </linearGradient>
    <linearGradient
       id="linearGradient4351"
       inkscape:collect="always">
      <stop
         id="stop4353"
         offset="0"
         style="stop-color:#04896a;stop-opacity:1" />
      <stop
         id="stop4355"
         offset="1"
         style="stop-color:#04896a;stop-opacity:1" />
    </linearGradient>
  </defs>
  <sodipodi:namedview
     id="base"
     pagecolor="#ffffff"
     bordercolor="#666666"
     borderopacity="1.0"
     inkscape:pageopacity="0.0"
     inkscape:pageshadow="2"
     inkscape:zoom="11.2"
     inkscape:cx="44.920846"
     inkscape:cy="41.826376"
     inkscape:document-units="px"
     inkscape:current-layer="layer1"
     showgrid="true"
     inkscape:window-width="1868"
     inkscape:window-height="1060"
     inkscape:window-x="50"
     inkscape:window-y="-3"
     inkscape:window-maximized="1"
     inkscape:snap-bbox="true">
    <inkscape:grid
       type="xygrid"
       id="grid3030"
       empspacing="5"
       visible="true"
       enabled="true"
       snapvisiblegridlinesonly="true" />
  </sodipodi:namedview>
  <metadata
     id="metadata3018">
    <rdf:RDF>
      <cc:Work
         rdf:about="">
        <dc:format>image/svg+xml</dc:format>
        <dc:type
           rdf:resource="http://purl.org/dc/dcmitype/StillImage" />
        <dc:title></dc:title>
      </cc:Work>
    </rdf:RDF>
  </metadata>
  <g
     inkscape:label="Layer 1"
     inkscape:groupmode="layer"
     id="layer1"
     transform="translate(0,-956.3622)">
    <g
       id="g3034"
       transform="matrix(1.3636364,0,0,1.3793103,4.3636364,960.22427)">
      <path
         id="rect3500"
         d="M 10,3 10,61 40,61 54,47 54,17 54,3 40,3 10,3 z"
         style="fill:url(#linearGradient4306);fill-opacity:1;stroke:none"
         inkscape:connector-curvature="0" />
      <rect
         y="60"
         x="10"
         height="1"
         width="30"
         id="rect4169"
         style="fill:#2e3132;fill-opacity:0.29411765;stroke:none" />
      <rect
         y="3"
         x="10"
         height="1"
         width="44"
         id="rect4236"
         style="fill:#ffffff;fill-opacity:0.40983605;stroke:none" />
      <path
         inkscape:connector-curvature="0"
         id="path4314"
         d="M 54,47 40,61 40,47 z"
         style="fill:url(#linearGradient4357);fill-opacity:1;fill-rule:evenodd;stroke:none" />
      <path
         style="opacity:0.2;fill:url(#linearGradient4427);fill-opacity:1;fill-rule:evenodd;stroke:none"
         d="M 26,61 40,47 40,61 z"
         id="path4320"
         inkscape:connector-curvature="0" />
      <path
         id="rect4166"
         d="m 23.5,21 c -1.385,0 -2.5,1.115 -2.5,2.5 0,1.385 1.115,2.5 2.5,2.5 0.805383,0 1.512122,-0.382791 1.96875,-0.970703 1.400455,1.963082 2.230469,4.365183 2.230469,6.970703 0,2.60552 -0.830014,5.007621 -2.230469,6.970703 C 25.012122,38.382791 24.305383,38 23.5,38 22.115,38 21,39.115 21,40.5 c 0,1.385 1.115,2.5 2.5,2.5 1.21386,0 2.219022,-0.855928 2.449219,-2 L 38,41 l 0,1 3,0 0,-3 -3,0 0,1 -12.050781,0 c -3.77e-4,-0.0019 3.8e-4,-0.004 0,-0.0059 -1.27e-4,-6.21e-4 1.27e-4,-0.0013 0,-0.002 1.718845,-2.201872 2.75,-4.969771 2.75,-7.992188 0,-3.022417 -1.031155,-5.792269 -2.75,-7.994141 3.8e-4,-0.0019 -3.77e-4,-0.004 0,-0.0059 L 38,24 l 0,2 5,0 0,-5 -5,0 0,2 -12.050781,0 C 25.719022,21.855928 24.71386,21 23.5,21 z m 0,1 C 24.331,22 25,22.669 25,23.5 25,24.331 24.331,25 23.5,25 22.669,25 22,24.331 22,23.5 22,22.669 22.669,22 23.5,22 z m 15.5,0 3,0 0,3 -3,0 0,-3 z M 23.5,39 C 24.331,39 25,39.669 25,40.5 25,41.331 24.331,42 23.5,42 22.669,42 22,41.331 22,40.5 22,39.669 22.669,39 23.5,39 z m 15.5,1 1,0 0,1 -1,0 0,-1 z"
         style="fill:#04896a;fill-opacity:1;stroke:none"
         inkscape:connector-curvature="0" />
    </g>
  </g>
</svg>
