<?xml version="1.0" encoding="UTF-8" standalone="no"?>
<!-- Created with Inkscape (http://www.inkscape.org/) -->

<svg
   xmlns:dc="http://purl.org/dc/elements/1.1/"
   xmlns:cc="http://creativecommons.org/ns#"
   xmlns:rdf="http://www.w3.org/1999/02/22-rdf-syntax-ns#"
   xmlns:svg="http://www.w3.org/2000/svg"
   xmlns="http://www.w3.org/2000/svg"
   xmlns:xlink="http://www.w3.org/1999/xlink"
   xmlns:sodipodi="http://sodipodi.sourceforge.net/DTD/sodipodi-0.dtd"
   xmlns:inkscape="http://www.inkscape.org/namespaces/inkscape"
   width="48"
   height="48"
   id="svg5453"
   version="1.1"
   inkscape:version="0.48+devel r"
   sodipodi:docname="kmix.svg">
  <defs
     id="defs5455">
    <linearGradient
       inkscape:collect="always"
       id="linearGradient4306">
      <stop
         style="stop-color:#000000;stop-opacity:1;"
         offset="0"
         id="stop4308" />
      <stop
         style="stop-color:#000000;stop-opacity:0;"
         offset="1"
         id="stop4310" />
    </linearGradient>
    <linearGradient
       id="linearGradient4159"
       inkscape:collect="always">
      <stop
         id="stop4161"
         offset="0"
         style="stop-color:#1d1e1e;stop-opacity:1" />
      <stop
         id="stop4163"
         offset="1"
         style="stop-color:#44484c;stop-opacity:1" />
    </linearGradient>
    <linearGradient
       inkscape:collect="always"
       xlink:href="#linearGradient4159"
       id="linearGradient4489"
       x1="25"
       y1="44"
       x2="25"
       y2="4.0000038"
       gradientUnits="userSpaceOnUse" />
    <linearGradient
       inkscape:collect="always"
       xlink:href="#linearGradient4306"
       id="linearGradient4312"
       x1="393.57144"
       y1="513.79797"
       x2="421.57144"
       y2="529.96375"
       gradientUnits="userSpaceOnUse" />
  </defs>
  <sodipodi:namedview
     id="base"
     pagecolor="#ffffff"
     bordercolor="#666666"
     borderopacity="1.0"
     inkscape:pageopacity="0"
     inkscape:pageshadow="2"
     inkscape:zoom="8.0000004"
     inkscape:cx="15.011426"
     inkscape:cy="28.43067"
     inkscape:document-units="px"
     inkscape:current-layer="layer1"
     showgrid="true"
     fit-margin-top="0"
     fit-margin-left="0"
     fit-margin-right="0"
     fit-margin-bottom="0"
     inkscape:window-width="1366"
     inkscape:window-height="669"
     inkscape:window-x="-4"
     inkscape:window-y="25"
     inkscape:window-maximized="1"
     inkscape:showpageshadow="false"
     borderlayer="true"
     showguides="true">
    <inkscape:grid
       type="xygrid"
       id="grid4063" />
    <sodipodi:guide
       position="1.1650391e-05,47.999996"
       orientation="4,0"
       id="guide4146" />
    <sodipodi:guide
       position="1.1650391e-05,43.999996"
       orientation="0,48"
       id="guide4148" />
    <sodipodi:guide
       position="48.000012,43.999996"
       orientation="-4,0"
       id="guide4150" />
    <sodipodi:guide
       position="48.000012,47.999996"
       orientation="0,-48"
       id="guide4152" />
    <sodipodi:guide
       position="1.1650391e-05,4.0000264"
       orientation="4,0"
       id="guide4154" />
    <sodipodi:guide
       position="1.1650391e-05,2.6367188e-05"
       orientation="0,48"
       id="guide4156" />
    <sodipodi:guide
       position="48.000012,2.6367188e-05"
       orientation="-4,0"
       id="guide4158" />
    <sodipodi:guide
       position="48.000012,4.0000264"
       orientation="0,-48"
       id="guide4160" />
    <sodipodi:guide
       position="48.000012,48.000026"
       orientation="0,-4"
       id="guide4162" />
    <sodipodi:guide
       position="44.000012,48.000026"
       orientation="48,0"
       id="guide4164" />
    <sodipodi:guide
       position="44.000012,2.6367188e-05"
       orientation="0,4"
       id="guide4166" />
    <sodipodi:guide
       position="48.000012,2.6367188e-05"
       orientation="-48,0"
       id="guide4168" />
    <sodipodi:guide
       position="4.0000422,48.000026"
       orientation="0,-4"
       id="guide4170" />
    <sodipodi:guide
       position="4.2167969e-05,48.000026"
       orientation="48,0"
       id="guide4172" />
    <sodipodi:guide
       position="4.2167969e-05,2.6367188e-05"
       orientation="0,4"
       id="guide4174" />
    <sodipodi:guide
       position="4.0000422,2.6367188e-05"
       orientation="-48,0"
       id="guide4176" />
    <sodipodi:guide
       position="6.0000117,43.999996"
       orientation="39.999969,0"
       id="guide4388" />
    <sodipodi:guide
       position="6.0000117,4.0000264"
       orientation="0,36"
       id="guide4390" />
    <sodipodi:guide
       position="42.000012,4.0000264"
       orientation="-39.999969,0"
       id="guide4392" />
    <sodipodi:guide
       position="42.000012,43.999996"
       orientation="0,-36"
       id="guide4394" />
  </sodipodi:namedview>
  <metadata
     id="metadata5458">
    <rdf:RDF>
      <cc:Work
         rdf:about="">
        <dc:format>image/svg+xml</dc:format>
        <dc:type
           rdf:resource="http://purl.org/dc/dcmitype/StillImage" />
        <dc:title />
      </cc:Work>
    </rdf:RDF>
  </metadata>
  <g
     inkscape:label="Capa 1"
     inkscape:groupmode="layer"
     id="layer1"
     transform="translate(-384.57143,-499.798)">
    <path
       style="opacity:1;fill:url(#linearGradient4489);fill-opacity:1;stroke:none"
       d="m 6,4 0,8 0,1 0,7 0,8 0,1 0,6 0,1 0,8 36,0 0,-8 0,-1 0,-7 0,-8 0,-1 0,-6 0,-1 0,-8 z"
       id="rect4396"
       inkscape:connector-curvature="0"
       sodipodi:nodetypes="ccccccccccccccccccc"
       transform="translate(384.57143,499.798)" />
    <rect
       style="opacity:1;fill:#202222;fill-opacity:1;stroke:none;stroke-width:0.1;stroke-miterlimit:4;stroke-dasharray:none;stroke-opacity:1"
       id="rect4160"
       width="32.000015"
       height="32.000015"
       x="392.57141"
       y="507.798"
       ry="16.000008" />
    <rect
       ry="15.000008"
       y="508.798"
       x="393.57141"
       height="30.000015"
       width="30.000015"
       id="rect4338"
       style="opacity:1;fill:#3b3f3f;fill-opacity:0.22340426;stroke:none;stroke-width:0.1;stroke-miterlimit:4;stroke-dasharray:none;stroke-opacity:1" />
    <path
       style="fill:url(#linearGradient4312);fill-rule:evenodd;stroke:none;stroke-width:1px;stroke-linecap:butt;stroke-linejoin:miter;stroke-opacity:1;fill-opacity:1"
       d="m 399.57143,532.798 19.05256,11 7.94745,0 0,-21 0,2 0,-1 0,-2 0,-2 -15.00001,-8.66026 z"
       id="path4304"
       inkscape:connector-curvature="0" />
    <rect
       ry="13.000008"
       y="510.798"
       x="395.57141"
       height="26.000015"
       width="26.000015"
       id="rect4162"
       style="opacity:1;fill:#101111;fill-opacity:1;stroke:none;stroke-width:0.1;stroke-miterlimit:4;stroke-dasharray:none;stroke-opacity:1" />
    <rect
       style="opacity:1;fill:#050606;fill-opacity:1;stroke:none;stroke-width:0.1;stroke-miterlimit:4;stroke-dasharray:none;stroke-opacity:1"
       id="rect4164"
       width="10.000015"
       height="10.000015"
       x="403.57141"
       y="518.79797"
       ry="5.0000076" />
    <path
       style="opacity:1;fill:#000000;fill-opacity:0.23529412;stroke:none;stroke-width:0.1;stroke-miterlimit:4;stroke-dasharray:none;stroke-opacity:1"
       d="M 23.732422 11.013672 C 23.291402 11.02259 22.856677 11.05212 22.427734 11.103516 C 22.764451 11.264091 23 11.600783 23 12 C 23 12.554 22.554 13 22 13 C 21.446 13 21 12.554 21 12 C 21 11.713782 21.122974 11.461251 21.314453 11.279297 C 20.880783 11.369716 20.455446 11.481058 20.039062 11.613281 C 20.014716 11.738423 20 11.867528 20 12 C 20 13.108 20.892 14 22 14 C 23.108 14 24 13.108 24 12 C 24 11.638714 23.898664 11.305591 23.732422 11.013672 z M 24 12 C 24 13.108 24.892 14 26 14 C 27.108 14 28 13.108 28 12 C 28 11.867528 27.985284 11.738423 27.960938 11.613281 C 27.544554 11.481058 27.119217 11.369716 26.685547 11.279297 C 26.877026 11.461251 27 11.713782 27 12 C 27 12.554 26.554 13 26 13 C 25.446 13 25 12.554 25 12 C 25 11.600783 25.235549 11.264091 25.572266 11.103516 C 25.143323 11.05212 24.708598 11.02259 24.267578 11.013672 C 24.101336 11.305591 24 11.638714 24 12 z M 28 12 C 28 13.108 28.892 14 30 14 C 30.582473 14 31.10192 13.750282 31.466797 13.355469 C 31.18083 13.154922 30.884403 12.970386 30.582031 12.792969 C 30.416439 12.914523 30.222068 13 30 13 C 29.446 13 29 12.554 29 12 C 29 11.997203 29.00193 11.994979 29.001953 11.992188 C 28.686986 11.861491 28.364171 11.746755 28.037109 11.640625 C 28.016004 11.757495 28 11.876866 28 12 z M 30 14 C 28.892 14 28 14.892 28 16 C 28 17.108 28.892 18 30 18 C 31.108 18 32 17.108 32 16 C 32 14.892 31.108 14 30 14 z M 32 16 C 32 17.108 32.892 18 34 18 C 34.488489 18 34.928798 17.820078 35.275391 17.53125 C 35.105283 17.234412 34.930557 16.941555 34.738281 16.660156 C 34.555417 16.864924 34.297401 17 34 17 C 33.446 17 33 16.554 33 16 C 33 15.626284 33.211519 15.314246 33.513672 15.142578 C 33.279913 14.891492 33.036088 14.651765 32.783203 14.419922 C 32.309501 14.78502 32 15.353006 32 16 z M 34 18 C 32.892 18 32 18.892 32 20 C 32 21.108 32.892 22 34 22 C 35.108 22 36 21.108 36 20 C 36 18.892 35.108 18 34 18 z M 36 20 C 36 20.638525 36.302526 21.198776 36.765625 21.564453 C 36.619667 20.789101 36.401302 20.041686 36.125 19.322266 C 36.048482 19.534743 36 19.760515 36 20 z M 34 22 C 32.892 22 32 22.892 32 24 C 32 25.108 32.892 26 34 26 C 35.108 26 36 25.108 36 24 C 36 22.892 35.108 22 34 22 z M 34 26 C 32.892 26 32 26.892 32 28 C 32 29.108 32.892 30 34 30 C 35.108 30 36 29.108 36 28 C 36 26.892 35.108 26 34 26 z M 36 28 C 36 28.239485 36.048482 28.465257 36.125 28.677734 C 36.401302 27.958314 36.619667 27.210899 36.765625 26.435547 C 36.302526 26.801224 36 27.361475 36 28 z M 34 30 C 32.892 30 32 30.892 32 32 C 32 32.646994 32.309501 33.21498 32.783203 33.580078 C 33.036088 33.348235 33.279913 33.108508 33.513672 32.857422 C 33.211519 32.685754 33 32.373716 33 32 C 33 31.446 33.446 31 34 31 C 34.297401 31 34.555417 31.135076 34.738281 31.339844 C 34.930557 31.058445 35.105283 30.765588 35.275391 30.46875 C 34.928798 30.179922 34.488489 30 34 30 z M 32 32 C 32 30.892 31.108 30 30 30 C 28.892 30 28 30.892 28 32 C 28 33.108 28.892 34 30 34 C 31.108 34 32 33.108 32 32 z M 30 34 C 28.892 34 28 34.892 28 36 C 28 36.123134 28.016004 36.242505 28.037109 36.359375 C 28.364171 36.253245 28.686986 36.138509 29.001953 36.007812 C 29.00193 36.005021 29 36.002797 29 36 C 29 35.446 29.446 35 30 35 C 30.222068 35 30.416439 35.085477 30.582031 35.207031 C 30.884403 35.029614 31.18083 34.845078 31.466797 34.644531 C 31.10192 34.249718 30.582473 34 30 34 z M 28 36 C 28 34.892 27.108 34 26 34 C 24.892 34 24 34.892 24 36 C 24 36.361286 24.101336 36.694409 24.267578 36.986328 C 24.708598 36.97741 25.143323 36.94788 25.572266 36.896484 C 25.235549 36.735909 25 36.399217 25 36 C 25 35.446 25.446 35 26 35 C 26.554 35 27 35.446 27 36 C 27 36.286218 26.877026 36.538749 26.685547 36.720703 C 27.119217 36.630284 27.544554 36.518942 27.960938 36.386719 C 27.985284 36.261577 28 36.132472 28 36 z M 24 36 C 24 34.892 23.108 34 22 34 C 20.892 34 20 34.892 20 36 C 20 36.132472 20.014716 36.261577 20.039062 36.386719 C 20.455446 36.518942 20.880783 36.630284 21.314453 36.720703 C 21.122974 36.538749 21 36.286218 21 36 C 21 35.446 21.446 35 22 35 C 22.554 35 23 35.446 23 36 C 23 36.399217 22.764451 36.735909 22.427734 36.896484 C 22.856677 36.94788 23.291402 36.97741 23.732422 36.986328 C 23.898664 36.694409 24 36.361286 24 36 z M 20 36 C 20 34.892 19.108 34 18 34 C 17.417527 34 16.89808 34.249718 16.533203 34.644531 C 16.81917 34.845078 17.115597 35.029614 17.417969 35.207031 C 17.583561 35.085477 17.777932 35 18 35 C 18.554 35 19 35.446 19 36 C 19 36.002797 18.99807 36.005021 18.998047 36.007812 C 19.313014 36.138509 19.635829 36.253245 19.962891 36.359375 C 19.983996 36.242505 20 36.123134 20 36 z M 18 34 C 19.108 34 20 33.108 20 32 C 20 30.892 19.108 30 18 30 C 16.892 30 16 30.892 16 32 C 16 33.108 16.892 34 18 34 z M 16 32 C 16 30.892 15.108 30 14 30 C 13.511511 30 13.071202 30.179922 12.724609 30.46875 C 12.894717 30.765588 13.069443 31.058445 13.261719 31.339844 C 13.444583 31.135076 13.702599 31 14 31 C 14.554 31 15 31.446 15 32 C 15 32.373716 14.788481 32.685754 14.486328 32.857422 C 14.720087 33.108508 14.963912 33.348235 15.216797 33.580078 C 15.690499 33.21498 16 32.646994 16 32 z M 14 30 C 15.108 30 16 29.108 16 28 C 16 26.892 15.108 26 14 26 C 12.892 26 12 26.892 12 28 C 12 29.108 12.892 30 14 30 z M 14 26 C 15.108 26 16 25.108 16 24 C 16 22.892 15.108 22 14 22 C 12.892 22 12 22.892 12 24 C 12 25.108 12.892 26 14 26 z M 12 24 C 12 23.306551 11.650255 22.696408 11.117188 22.337891 C 11.047969 22.883384 11 23.435111 11 24 C 11 24.564889 11.047969 25.116616 11.117188 25.662109 C 11.650255 25.303592 12 24.693449 12 24 z M 14 22 C 15.108 22 16 21.108 16 20 C 16 18.892 15.108 18 14 18 C 12.892 18 12 18.892 12 20 C 12 21.108 12.892 22 14 22 z M 14 18 C 15.108 18 16 17.108 16 16 C 16 15.353006 15.690499 14.78502 15.216797 14.419922 C 14.963912 14.651765 14.720087 14.891492 14.486328 15.142578 C 14.788481 15.314246 15 15.626284 15 16 C 15 16.554 14.554 17 14 17 C 13.702599 17 13.444583 16.864924 13.261719 16.660156 C 13.069443 16.941555 12.894717 17.234412 12.724609 17.53125 C 13.071202 17.820078 13.511511 18 14 18 z M 16 16 C 16 17.108 16.892 18 18 18 C 19.108 18 20 17.108 20 16 C 20 14.892 19.108 14 18 14 C 16.892 14 16 14.892 16 16 z M 18 14 C 19.108 14 20 13.108 20 12 C 20 11.876866 19.983996 11.757495 19.962891 11.640625 C 19.635829 11.746755 19.313014 11.861491 18.998047 11.992188 C 18.99807 11.994979 19 11.997203 19 12 C 19 12.554 18.554 13 18 13 C 17.777932 13 17.583561 12.914523 17.417969 12.792969 C 17.115597 12.970386 16.81917 13.154922 16.533203 13.355469 C 16.89808 13.750282 17.417527 14 18 14 z M 20 16 C 20 17.108 20.892 18 22 18 C 23.108 18 24 17.108 24 16 C 24 14.892 23.108 14 22 14 C 20.892 14 20 14.892 20 16 z M 24 16 C 24 17.108 24.892 18 26 18 C 27.108 18 28 17.108 28 16 C 28 14.892 27.108 14 26 14 C 24.892 14 24 14.892 24 16 z M 26 18 C 24.892 18 24 18.892 24 20 C 24 21.108 24.892 22 26 22 C 27.108 22 28 21.108 28 20 C 28 18.892 27.108 18 26 18 z M 28 20 C 28 21.108 28.892 22 30 22 C 31.108 22 32 21.108 32 20 C 32 18.892 31.108 18 30 18 C 28.892 18 28 18.892 28 20 z M 30 22 C 28.892 22 28 22.892 28 24 C 28 25.108 28.892 26 30 26 C 31.108 26 32 25.108 32 24 C 32 22.892 31.108 22 30 22 z M 30 26 C 28.892 26 28 26.892 28 28 C 28 29.108 28.892 30 30 30 C 31.108 30 32 29.108 32 28 C 32 26.892 31.108 26 30 26 z M 28 28 C 28 26.892 27.108 26 26 26 C 24.892 26 24 26.892 24 28 C 24 29.108 24.892 30 26 30 C 27.108 30 28 29.108 28 28 z M 26 30 C 24.892 30 24 30.892 24 32 C 24 33.108 24.892 34 26 34 C 27.108 34 28 33.108 28 32 C 28 30.892 27.108 30 26 30 z M 24 32 C 24 30.892 23.108 30 22 30 C 20.892 30 20 30.892 20 32 C 20 33.108 20.892 34 22 34 C 23.108 34 24 33.108 24 32 z M 22 30 C 23.108 30 24 29.108 24 28 C 24 26.892 23.108 26 22 26 C 20.892 26 20 26.892 20 28 C 20 29.108 20.892 30 22 30 z M 20 28 C 20 26.892 19.108 26 18 26 C 16.892 26 16 26.892 16 28 C 16 29.108 16.892 30 18 30 C 19.108 30 20 29.108 20 28 z M 18 26 C 19.108 26 20 25.108 20 24 C 20 22.892 19.108 22 18 22 C 16.892 22 16 22.892 16 24 C 16 25.108 16.892 26 18 26 z M 18 22 C 19.108 22 20 21.108 20 20 C 20 18.892 19.108 18 18 18 C 16.892 18 16 18.892 16 20 C 16 21.108 16.892 22 18 22 z M 20 20 C 20 21.108 20.892 22 22 22 C 23.108 22 24 21.108 24 20 C 24 18.892 23.108 18 22 18 C 20.892 18 20 18.892 20 20 z M 22 22 C 20.892 22 20 22.892 20 24 C 20 25.108 20.892 26 22 26 C 23.108 26 24 25.108 24 24 C 24 22.892 23.108 22 22 22 z M 24 24 C 24 25.108 24.892 26 26 26 C 27.108 26 28 25.108 28 24 C 28 22.892 27.108 22 26 22 C 24.892 22 24 22.892 24 24 z M 18 15 C 18.554 15 19 15.446 19 16 C 19 16.554 18.554 17 18 17 C 17.446 17 17 16.554 17 16 C 17 15.446 17.446 15 18 15 z M 22 15 C 22.554 15 23 15.446 23 16 C 23 16.554 22.554 17 22 17 C 21.446 17 21 16.554 21 16 C 21 15.446 21.446 15 22 15 z M 26 15 C 26.554 15 27 15.446 27 16 C 27 16.554 26.554 17 26 17 C 25.446 17 25 16.554 25 16 C 25 15.446 25.446 15 26 15 z M 30 15 C 30.554 15 31 15.446 31 16 C 31 16.554 30.554 17 30 17 C 29.446 17 29 16.554 29 16 C 29 15.446 29.446 15 30 15 z M 14 19 C 14.554 19 15 19.446 15 20 C 15 20.554 14.554 21 14 21 C 13.446 21 13 20.554 13 20 C 13 19.446 13.446 19 14 19 z M 18 19 C 18.554 19 19 19.446 19 20 C 19 20.554 18.554 21 18 21 C 17.446 21 17 20.554 17 20 C 17 19.446 17.446 19 18 19 z M 22 19 C 22.554 19 23 19.446 23 20 C 23 20.554 22.554 21 22 21 C 21.446 21 21 20.554 21 20 C 21 19.446 21.446 19 22 19 z M 26 19 C 26.554 19 27 19.446 27 20 C 27 20.554 26.554 21 26 21 C 25.446 21 25 20.554 25 20 C 25 19.446 25.446 19 26 19 z M 30 19 C 30.554 19 31 19.446 31 20 C 31 20.554 30.554 21 30 21 C 29.446 21 29 20.554 29 20 C 29 19.446 29.446 19 30 19 z M 34 19 C 34.554 19 35 19.446 35 20 C 35 20.554 34.554 21 34 21 C 33.446 21 33 20.554 33 20 C 33 19.446 33.446 19 34 19 z M 14 23 C 14.554 23 15 23.446 15 24 C 15 24.554 14.554 25 14 25 C 13.446 25 13 24.554 13 24 C 13 23.446 13.446 23 14 23 z M 18 23 C 18.554 23 19 23.446 19 24 C 19 24.554 18.554 25 18 25 C 17.446 25 17 24.554 17 24 C 17 23.446 17.446 23 18 23 z M 22 23 C 22.554 23 23 23.446 23 24 C 23 24.554 22.554 25 22 25 C 21.446 25 21 24.554 21 24 C 21 23.446 21.446 23 22 23 z M 26 23 C 26.554 23 27 23.446 27 24 C 27 24.554 26.554 25 26 25 C 25.446 25 25 24.554 25 24 C 25 23.446 25.446 23 26 23 z M 30 23 C 30.554 23 31 23.446 31 24 C 31 24.554 30.554 25 30 25 C 29.446 25 29 24.554 29 24 C 29 23.446 29.446 23 30 23 z M 34 23 C 34.554 23 35 23.446 35 24 C 35 24.554 34.554 25 34 25 C 33.446 25 33 24.554 33 24 C 33 23.446 33.446 23 34 23 z M 14 27 C 14.554 27 15 27.446 15 28 C 15 28.554 14.554 29 14 29 C 13.446 29 13 28.554 13 28 C 13 27.446 13.446 27 14 27 z M 18 27 C 18.554 27 19 27.446 19 28 C 19 28.554 18.554 29 18 29 C 17.446 29 17 28.554 17 28 C 17 27.446 17.446 27 18 27 z M 22 27 C 22.554 27 23 27.446 23 28 C 23 28.554 22.554 29 22 29 C 21.446 29 21 28.554 21 28 C 21 27.446 21.446 27 22 27 z M 26 27 C 26.554 27 27 27.446 27 28 C 27 28.554 26.554 29 26 29 C 25.446 29 25 28.554 25 28 C 25 27.446 25.446 27 26 27 z M 30 27 C 30.554 27 31 27.446 31 28 C 31 28.554 30.554 29 30 29 C 29.446 29 29 28.554 29 28 C 29 27.446 29.446 27 30 27 z M 34 27 C 34.554 27 35 27.446 35 28 C 35 28.554 34.554 29 34 29 C 33.446 29 33 28.554 33 28 C 33 27.446 33.446 27 34 27 z M 18 31 C 18.554 31 19 31.446 19 32 C 19 32.554 18.554 33 18 33 C 17.446 33 17 32.554 17 32 C 17 31.446 17.446 31 18 31 z M 22 31 C 22.554 31 23 31.446 23 32 C 23 32.554 22.554 33 22 33 C 21.446 33 21 32.554 21 32 C 21 31.446 21.446 31 22 31 z M 26 31 C 26.554 31 27 31.446 27 32 C 27 32.554 26.554 33 26 33 C 25.446 33 25 32.554 25 32 C 25 31.446 25.446 31 26 31 z M 30 31 C 30.554 31 31 31.446 31 32 C 31 32.554 30.554 33 30 33 C 29.446 33 29 32.554 29 32 C 29 31.446 29.446 31 30 31 z "
       transform="translate(384.57143,499.798)"
       id="rect4170" />
    <rect
       y="542.79803"
       x="390.57144"
       height="1"
       width="35.999989"
       id="rect4167-9"
       style="opacity:1;fill:#080809;fill-opacity:1;stroke:none" />
  </g>
</svg>
