<?xml version="1.0" encoding="UTF-8" standalone="no"?>
<!-- Created with Inkscape (http://www.inkscape.org/) -->

<svg
   xmlns:dc="http://purl.org/dc/elements/1.1/"
   xmlns:cc="http://creativecommons.org/ns#"
   xmlns:rdf="http://www.w3.org/1999/02/22-rdf-syntax-ns#"
   xmlns:svg="http://www.w3.org/2000/svg"
   xmlns="http://www.w3.org/2000/svg"
   xmlns:xlink="http://www.w3.org/1999/xlink"
   xmlns:sodipodi="http://sodipodi.sourceforge.net/DTD/sodipodi-0.dtd"
   xmlns:inkscape="http://www.inkscape.org/namespaces/inkscape"
   width="48"
   height="48"
   id="svg5453"
   version="1.1"
   inkscape:version="0.91+devel r"
   sodipodi:docname="utilities-system-monitor.svg">
  <defs
     id="defs5455">
    <linearGradient
       inkscape:collect="always"
       id="linearGradient4573">
      <stop
         style="stop-color:#ffffff;stop-opacity:1"
         offset="0"
         id="stop4575" />
      <stop
         style="stop-color:#ffffff;stop-opacity:0"
         offset="1"
         id="stop4577" />
    </linearGradient>
    <linearGradient
       inkscape:collect="always"
       id="linearGradient4492">
      <stop
         style="stop-color:#b8ddd2;stop-opacity:1"
         offset="0"
         id="stop4494" />
      <stop
         style="stop-color:#c4e4dd;stop-opacity:1"
         offset="1"
         id="stop4496" />
    </linearGradient>
    <linearGradient
       inkscape:collect="always"
       id="linearGradient4473">
      <stop
         style="stop-color:#77b76b;stop-opacity:1"
         offset="0"
         id="stop4475" />
      <stop
         style="stop-color:#58b4b4;stop-opacity:1"
         offset="1"
         id="stop4477" />
    </linearGradient>
    <linearGradient
       id="linearGradient4271"
       inkscape:collect="always">
      <stop
         id="stop4273"
         offset="0"
         style="stop-color:#2a2c2f;stop-opacity:1" />
      <stop
         id="stop4275"
         offset="1"
         style="stop-color:#424649;stop-opacity:1" />
    </linearGradient>
    <linearGradient
       inkscape:collect="always"
       xlink:href="#linearGradient4271"
       id="linearGradient4335"
       x1="408.57144"
       y1="543.79797"
       x2="408.57144"
       y2="503.798"
       gradientUnits="userSpaceOnUse" />
    <linearGradient
       inkscape:collect="always"
       xlink:href="#linearGradient4473"
       id="linearGradient4479"
       x1="26"
       y1="44"
       x2="26"
       y2="12"
       gradientUnits="userSpaceOnUse" />
    <linearGradient
       inkscape:collect="always"
       xlink:href="#linearGradient4492"
       id="linearGradient4498"
       x1="13"
       y1="21"
       x2="13"
       y2="15"
       gradientUnits="userSpaceOnUse" />
    <linearGradient
       gradientTransform="translate(406.57143,509.798)"
       inkscape:collect="always"
       xlink:href="#linearGradient4492"
       id="linearGradient4498-6"
       x1="13"
       y1="21"
       x2="13"
       y2="15"
       gradientUnits="userSpaceOnUse" />
    <linearGradient
       inkscape:collect="always"
       xlink:href="#linearGradient4573"
       id="linearGradient4579"
       x1="9"
       y1="15"
       x2="13"
       y2="21.928204"
       gradientUnits="userSpaceOnUse" />
    <linearGradient
       inkscape:collect="always"
       xlink:href="#linearGradient4573"
       id="linearGradient4583"
       gradientUnits="userSpaceOnUse"
       x1="46"
       y1="23"
       x2="39"
       y2="30" />
    <linearGradient
       inkscape:collect="always"
       xlink:href="#linearGradient4573"
       id="linearGradient4587"
       gradientUnits="userSpaceOnUse"
       x1="24"
       y1="46"
       x2="24"
       y2="38" />
    <linearGradient
       inkscape:collect="always"
       xlink:href="#linearGradient4227"
       id="linearGradient4626"
       x1="10"
       y1="15"
       x2="36"
       y2="41"
       gradientUnits="userSpaceOnUse" />
    <linearGradient
       id="linearGradient4227"
       inkscape:collect="always">
      <stop
         id="stop4229"
         offset="0"
         style="stop-color:#292c2f;stop-opacity:1" />
      <stop
         id="stop4231"
         offset="1"
         style="stop-color:#000000;stop-opacity:0;" />
    </linearGradient>
    <linearGradient
       inkscape:collect="always"
       xlink:href="#linearGradient4227"
       id="linearGradient4696"
       gradientUnits="userSpaceOnUse"
       x1="6"
       y1="11"
       x2="22"
       y2="27"
       gradientTransform="translate(22,10)" />
  </defs>
  <sodipodi:namedview
     id="base"
     pagecolor="#ffffff"
     bordercolor="#666666"
     borderopacity="1.0"
     inkscape:pageopacity="0"
     inkscape:pageshadow="2"
     inkscape:zoom="11.313709"
     inkscape:cx="11.914758"
     inkscape:cy="24.876654"
     inkscape:document-units="px"
     inkscape:current-layer="layer1"
     showgrid="true"
     fit-margin-top="0"
     fit-margin-left="0"
     fit-margin-right="0"
     fit-margin-bottom="0"
     inkscape:window-width="1366"
     inkscape:window-height="670"
     inkscape:window-x="-4"
     inkscape:window-y="29"
     inkscape:window-maximized="1"
     inkscape:showpageshadow="false"
     borderlayer="true"
     showguides="true">
    <inkscape:grid
       type="xygrid"
       id="grid4063" />
    <sodipodi:guide
       position="2,9"
       orientation="4,0"
       id="guide4146" />
    <sodipodi:guide
       position="1.1650391e-05,43.999996"
       orientation="0,48"
       id="guide4148" />
    <sodipodi:guide
       position="48.000012,43.999996"
       orientation="-4,0"
       id="guide4150" />
    <sodipodi:guide
       position="48.000012,47.999996"
       orientation="0,-48"
       id="guide4152" />
    <sodipodi:guide
       position="1.1650391e-05,4.0000264"
       orientation="4,0"
       id="guide4154" />
    <sodipodi:guide
       position="1.1650391e-05,2.6367188e-05"
       orientation="0,48"
       id="guide4156" />
    <sodipodi:guide
       position="48.000012,2.6367188e-05"
       orientation="-4,0"
       id="guide4158" />
    <sodipodi:guide
       position="-5,4"
       orientation="0,-48"
       id="guide4160" />
    <sodipodi:guide
       position="48.000012,48.000026"
       orientation="0,-4"
       id="guide4162" />
    <sodipodi:guide
       position="46,12"
       orientation="48,0"
       id="guide4164" />
    <sodipodi:guide
       position="44.000012,2.6367188e-05"
       orientation="0,4"
       id="guide4166" />
    <sodipodi:guide
       position="48.000012,2.6367188e-05"
       orientation="-48,0"
       id="guide4168" />
    <sodipodi:guide
       position="4.0000422,48.000026"
       orientation="0,-4"
       id="guide4170" />
    <sodipodi:guide
       position="4.2167969e-05,48.000026"
       orientation="48,0"
       id="guide4172" />
    <sodipodi:guide
       position="4.2167969e-05,2.6367188e-05"
       orientation="0,4"
       id="guide4174" />
    <sodipodi:guide
       position="15.999981,32.000026"
       orientation="16,0"
       id="guide4360" />
    <sodipodi:guide
       position="31.999981,16.000026"
       orientation="-16,0"
       id="guide4364" />
  </sodipodi:namedview>
  <metadata
     id="metadata5458">
    <rdf:RDF>
      <cc:Work
         rdf:about="">
        <dc:format>image/svg+xml</dc:format>
        <dc:type
           rdf:resource="http://purl.org/dc/dcmitype/StillImage" />
        <dc:title />
      </cc:Work>
    </rdf:RDF>
  </metadata>
  <g
     inkscape:label="Capa 1"
     inkscape:groupmode="layer"
     id="layer1"
     transform="translate(-384.57143,-499.798)">
    <rect
       y="503.798"
       x="386.57144"
       height="39.999969"
       width="43.999969"
       id="rect4327"
       style="opacity:1;fill:url(#linearGradient4335);fill-opacity:1.0;stroke:none" />
    <path
       style="opacity:0.11;fill:#1a1a1a;fill-opacity:1;fill-rule:evenodd;stroke:none;stroke-width:1px;stroke-linecap:butt;stroke-linejoin:miter;stroke-opacity:1"
       d="M 14.332031 17.935547 C 13.908589 17.917963 13.456821 17.936437 12.976562 17.994141 C 6.7861325 18.737941 7.71582 25.471402 2 28.544922 L 2 42 L 46 42 L 46 31.644531 C 45.62275 31.489003 45.232003 31.274447 44.810547 30.919922 C 36.028377 21.687102 33.379871 31.925459 26.150391 29.074219 C 21.004941 26.477522 20.683659 18.199305 14.332031 17.935547 z "
       transform="translate(384.57143,499.798)"
       id="path4589" />
    <path
       style="fill:url(#linearGradient4479);fill-opacity:1;fill-rule:evenodd;stroke:none;stroke-width:1px;stroke-linecap:butt;stroke-linejoin:miter;stroke-opacity:1"
       d="M 24,30 C 19,27 19,17 12,18 6.360834,18.805595 7.2071268,26.098828 2,29.427734 L 2,44 46,44 46,32.488281 C 44.367218,32.636886 43,34 41,32 33,22 30.585767,33.088063 24,30 Z"
       id="path4468"
       inkscape:connector-curvature="0"
       sodipodi:nodetypes="cscccccc"
       transform="translate(384.57143,499.798)" />
    <path
       style="fill:url(#linearGradient4579);fill-opacity:1;fill-rule:evenodd;stroke:none;stroke-width:1px;stroke-linecap:butt;stroke-linejoin:miter;stroke-opacity:1"
       d="M 12.636719 17.9375 C 12.431274 17.947815 12.21875 17.96875 12 18 C 6.360834 18.805595 7.2071268 26.098828 2 29.427734 L 2 30.427734 C 7.20713 27.098834 6.36083 19.8056 12 19 C 19 18 19 28 24 31 C 30.58577 34.08806 33 23 41 33 C 43 35 44.36722 33.636891 46 33.488281 L 46 32.488281 C 44.367218 32.636886 43 34 41 32 C 33 22 30.585767 33.088063 24 30 C 19.15625 27.09375 19.005493 17.617737 12.636719 17.9375 z "
       transform="translate(384.57143,499.798)"
       id="path4568" />
    <path
       id="path4581"
       transform="translate(384.57143,499.798)"
       d="M 12.636719 17.9375 C 12.431274 17.947815 12.21875 17.96875 12 18 C 6.360834 18.805595 7.2071268 26.098828 2 29.427734 L 2 30.427734 C 7.20713 27.098834 6.36083 19.8056 12 19 C 19 18 19 28 24 31 C 30.58577 34.08806 33 23 41 33 C 43 35 44.36722 33.636891 46 33.488281 L 46 32.488281 C 44.367218 32.636886 43 34 41 32 C 33 22 30.585767 33.088063 24 30 C 19.15625 27.09375 19.005493 17.617737 12.636719 17.9375 z "
       style="fill:url(#linearGradient4583);fill-opacity:1;fill-rule:evenodd;stroke:none;stroke-width:1px;stroke-linecap:butt;stroke-linejoin:miter;stroke-opacity:1" />
    <path
       style="opacity:0.2;fill:url(#linearGradient4696);fill-opacity:1;fill-rule:evenodd;stroke:none;stroke-width:1px;stroke-linecap:butt;stroke-linejoin:miter;stroke-opacity:1"
       d="M 34 25 L 34 26 L 33 26 L 33 27 L 32 27 L 36 31 L 46 41 L 46 37 L 38 29 L 34 25 z M 38 25 L 38 27 L 37 27 L 46 36 L 46 33 L 38 25 z M 32 29 L 32 31 L 35 34 L 45 44 L 46 44 L 46 42 L 35 31 L 33 29 L 32 29 z "
       transform="translate(384.57143,499.798)"
       id="path4694" />
    <path
       inkscape:connector-curvature="0"
       style="opacity:1;fill:url(#linearGradient4498-6);fill-opacity:1;stroke:none;stroke-opacity:1"
       d="m 416.57143,524.798 0,2 1,0 0,-1 1,0 0,-1 -2,0 z m 4,0 0,1 1,0 0,1 1,0 0,-2 -2,0 z m -4,4 0,2 2,0 0,-1 -1,0 0,-1 -1,0 z m 5,0 0,1 -1,0 0,1 2,0 0,-2 -1,0 z"
       id="rect4481-9" />
    <path
       sodipodi:nodetypes="cscccccc"
       inkscape:connector-curvature="0"
       id="path4585"
       d="M 24,30 C 19,27 19,17 12,18 6.360834,18.805595 7.2071268,26.098828 2,29.427734 L 2,44 46,44 46,32.488281 C 44.367218,32.636886 43,34 41,32 33,22 30.585767,33.088063 24,30 Z"
       style="fill:url(#linearGradient4587);fill-opacity:1;fill-rule:evenodd;stroke:none;stroke-width:1px;stroke-linecap:butt;stroke-linejoin:miter;stroke-opacity:1;opacity:0.3"
       transform="translate(384.57143,499.798)" />
    <path
       style="fill:url(#linearGradient4626);fill-rule:evenodd;stroke:none;stroke-width:1px;stroke-linecap:butt;stroke-linejoin:miter;stroke-opacity:1;fill-opacity:1;opacity:0.2"
       d="M 12 15 L 12 16 L 11 16 L 11 17 L 10 17 L 14 21 L 37 44 L 41 44 L 16 19 L 12 15 z M 16 15 L 16 17 L 15 17 L 42 44 L 45 44 L 16 15 z M 10 19 L 10 21 L 13 24 L 33 44 L 36 44 L 13 21 L 11 19 L 10 19 z "
       transform="translate(384.57143,499.798)"
       id="path4600" />
    <path
       style="opacity:1;fill:url(#linearGradient4498);fill-opacity:1;stroke:none;stroke-opacity:1"
       d="M 10 15 L 10 17 L 11 17 L 11 16 L 12 16 L 12 15 L 10 15 z M 14 15 L 14 16 L 15 16 L 15 17 L 16 17 L 16 15 L 14 15 z M 10 19 L 10 21 L 12 21 L 12 20 L 11 20 L 11 19 L 10 19 z M 15 19 L 15 20 L 14 20 L 14 21 L 16 21 L 16 19 L 15 19 z "
       transform="translate(384.57143,499.798)"
       id="rect4481" />
    <rect
       style="opacity:1;fill:#498d48;fill-opacity:1;stroke:none"
       id="rect4167"
       width="43.999969"
       height="1"
       x="386.57144"
       y="542.79797" />
  </g>
</svg>
