<?xml version="1.0" encoding="UTF-8" standalone="no"?>
<!-- Created with Inkscape (http://www.inkscape.org/) -->

<svg
   xmlns:dc="http://purl.org/dc/elements/1.1/"
   xmlns:cc="http://creativecommons.org/ns#"
   xmlns:rdf="http://www.w3.org/1999/02/22-rdf-syntax-ns#"
   xmlns:svg="http://www.w3.org/2000/svg"
   xmlns="http://www.w3.org/2000/svg"
   xmlns:xlink="http://www.w3.org/1999/xlink"
   xmlns:sodipodi="http://sodipodi.sourceforge.net/DTD/sodipodi-0.dtd"
   xmlns:inkscape="http://www.inkscape.org/namespaces/inkscape"
   width="48"
   height="48"
   id="svg5453"
   version="1.1"
   inkscape:version="0.48+devel r"
   sodipodi:docname="virtualbox.svg">
  <defs
     id="defs5455">
    <linearGradient
       inkscape:collect="always"
       id="linearGradient4885">
      <stop
         style="stop-color:#3da103;stop-opacity:1"
         offset="0"
         id="stop4887" />
      <stop
         style="stop-color:#7ddf07;stop-opacity:1"
         offset="1"
         id="stop4889" />
    </linearGradient>
    <linearGradient
       inkscape:collect="always"
       id="linearGradient4542">
      <stop
         style="stop-color:#1d1e1e;stop-opacity:1"
         offset="0"
         id="stop4544" />
      <stop
         style="stop-color:#2c2f32;stop-opacity:1"
         offset="1"
         id="stop4546" />
    </linearGradient>
    <linearGradient
       id="linearGradient4159"
       inkscape:collect="always">
      <stop
         id="stop4161"
         offset="0"
         style="stop-color:#1d1e1e;stop-opacity:1" />
      <stop
         id="stop4163"
         offset="1"
         style="stop-color:#44484c;stop-opacity:1" />
    </linearGradient>
    <linearGradient
       inkscape:collect="always"
       xlink:href="#linearGradient4159"
       id="linearGradient4489"
       x1="25"
       y1="44"
       x2="25"
       y2="4.0000038"
       gradientUnits="userSpaceOnUse" />
    <linearGradient
       inkscape:collect="always"
       xlink:href="#linearGradient4542"
       id="linearGradient4540"
       x1="409.57144"
       y1="511.798"
       x2="409.57144"
       y2="543.52875"
       gradientUnits="userSpaceOnUse"
       gradientTransform="matrix(1,0,0,1.04,0,-21.471899)" />
    <linearGradient
       id="linearGradient4227"
       inkscape:collect="always">
      <stop
         id="stop4229"
         offset="0"
         style="stop-color:#292c2f;stop-opacity:1" />
      <stop
         id="stop4231"
         offset="1"
         style="stop-color:#000000;stop-opacity:0;" />
    </linearGradient>
    <linearGradient
       inkscape:collect="always"
       xlink:href="#linearGradient4227"
       id="linearGradient4860"
       x1="392.57144"
       y1="518.79797"
       x2="411.57147"
       y2="537.79797"
       gradientUnits="userSpaceOnUse"
       gradientTransform="translate(-384.57143,-499.798)" />
    <linearGradient
       inkscape:collect="always"
       xlink:href="#linearGradient4885"
       id="linearGradient4891"
       x1="395.57144"
       y1="507.798"
       x2="395.57144"
       y2="506.798"
       gradientUnits="userSpaceOnUse" />
    <linearGradient
       inkscape:collect="always"
       xlink:href="#linearGradient4885"
       id="linearGradient4895"
       gradientUnits="userSpaceOnUse"
       x1="395.57144"
       y1="507.798"
       x2="395.57144"
       y2="506.798"
       gradientTransform="translate(0,16.499969)" />
    <linearGradient
       inkscape:collect="always"
       xlink:href="#linearGradient4885"
       id="linearGradient4899"
       gradientUnits="userSpaceOnUse"
       gradientTransform="translate(0,32.499969)"
       x1="395.57144"
       y1="507.798"
       x2="395.57144"
       y2="506.798" />
  </defs>
  <sodipodi:namedview
     id="base"
     pagecolor="#ffffff"
     bordercolor="#666666"
     borderopacity="1.0"
     inkscape:pageopacity="0"
     inkscape:pageshadow="2"
     inkscape:zoom="11.313709"
     inkscape:cx="19.812647"
     inkscape:cy="17.22691"
     inkscape:document-units="px"
     inkscape:current-layer="layer1"
     showgrid="true"
     fit-margin-top="0"
     fit-margin-left="0"
     fit-margin-right="0"
     fit-margin-bottom="0"
     inkscape:window-width="1366"
     inkscape:window-height="669"
     inkscape:window-x="-4"
     inkscape:window-y="25"
     inkscape:window-maximized="1"
     inkscape:showpageshadow="false"
     borderlayer="true"
     showguides="true">
    <inkscape:grid
       type="xygrid"
       id="grid4063" />
    <sodipodi:guide
       position="1.1650391e-05,47.999996"
       orientation="4,0"
       id="guide4146" />
    <sodipodi:guide
       position="1.1650391e-05,43.999996"
       orientation="0,48"
       id="guide4148" />
    <sodipodi:guide
       position="48.000012,43.999996"
       orientation="-4,0"
       id="guide4150" />
    <sodipodi:guide
       position="48.000012,47.999996"
       orientation="0,-48"
       id="guide4152" />
    <sodipodi:guide
       position="1.1650391e-05,4.0000264"
       orientation="4,0"
       id="guide4154" />
    <sodipodi:guide
       position="1.1650391e-05,2.6367188e-05"
       orientation="0,48"
       id="guide4156" />
    <sodipodi:guide
       position="48.000012,2.6367188e-05"
       orientation="-4,0"
       id="guide4158" />
    <sodipodi:guide
       position="48.000012,4.0000264"
       orientation="0,-48"
       id="guide4160" />
    <sodipodi:guide
       position="48.000012,48.000026"
       orientation="0,-4"
       id="guide4162" />
    <sodipodi:guide
       position="44.000012,48.000026"
       orientation="48,0"
       id="guide4164" />
    <sodipodi:guide
       position="44.000012,2.6367188e-05"
       orientation="0,4"
       id="guide4166" />
    <sodipodi:guide
       position="48.000012,2.6367188e-05"
       orientation="-48,0"
       id="guide4168" />
    <sodipodi:guide
       position="4.0000422,48.000026"
       orientation="0,-4"
       id="guide4170" />
    <sodipodi:guide
       position="4.2167969e-05,48.000026"
       orientation="48,0"
       id="guide4172" />
    <sodipodi:guide
       position="4.2167969e-05,2.6367188e-05"
       orientation="0,4"
       id="guide4174" />
    <sodipodi:guide
       position="4.0000422,2.6367188e-05"
       orientation="-48,0"
       id="guide4176" />
    <sodipodi:guide
       position="6.0000117,43.999996"
       orientation="39.999969,0"
       id="guide4388" />
    <sodipodi:guide
       position="6.0000117,4.0000264"
       orientation="0,36"
       id="guide4390" />
    <sodipodi:guide
       position="42.000012,4.0000264"
       orientation="-39.999969,0"
       id="guide4392" />
    <sodipodi:guide
       position="42.000012,43.999996"
       orientation="0,-36"
       id="guide4394" />
  </sodipodi:namedview>
  <metadata
     id="metadata5458">
    <rdf:RDF>
      <cc:Work
         rdf:about="">
        <dc:format>image/svg+xml</dc:format>
        <dc:type
           rdf:resource="http://purl.org/dc/dcmitype/StillImage" />
        <dc:title />
      </cc:Work>
    </rdf:RDF>
  </metadata>
  <g
     inkscape:label="Capa 1"
     inkscape:groupmode="layer"
     id="layer1"
     transform="translate(-384.57143,-499.798)">
    <rect
       style="opacity:1;fill:url(#linearGradient4540);fill-opacity:1;stroke:none"
       id="rect4532"
       width="36"
       height="26.000002"
       x="390.57144"
       y="510.79794" />
    <rect
       y="511.79797"
       x="390.57144"
       height="8"
       width="36.000011"
       id="rect4766"
       style="opacity:1;fill:#181a1c;fill-opacity:1;stroke:none" />
    <rect
       style="opacity:1;fill:#181a1c;fill-opacity:1;stroke:none"
       id="rect4548"
       width="36.000011"
       height="8"
       x="390.57144"
       y="527.79797" />
    <path
       style="color:#000000;display:inline;overflow:visible;visibility:visible;fill:#000000;fill-opacity:0.31073445;fill-rule:nonzero;stroke:none;stroke-width:0.2;marker:none;enable-background:accumulate"
       d="M 6 28 L 6 28.75 L 6.09375 28.75 L 6.34375 28.34375 L 6.1464844 28 L 6 28 z M 6.5585938 28 L 6.71875 28.28125 L 7.21875 28.28125 L 7.3789062 28 L 6.5585938 28 z M 7.7597656 28 L 7.5625 28.34375 L 7.8125 28.75 L 8.3125 28.75 L 8.5625 28.34375 L 8.3652344 28 L 7.7597656 28 z M 8.7460938 28 L 8.90625 28.28125 L 9.40625 28.28125 L 9.5664062 28 L 8.7460938 28 z M 9.9160156 28 L 9.71875 28.34375 L 9.96875 28.75 L 10.46875 28.75 L 10.71875 28.34375 L 10.521484 28 L 9.9160156 28 z M 10.964844 28 L 11.125 28.28125 L 11.625 28.28125 L 11.785156 28 L 10.964844 28 z M 12.134766 28 L 11.9375 28.34375 L 12.1875 28.75 L 12.6875 28.75 L 12.9375 28.34375 L 12.740234 28 L 12.134766 28 z M 13.121094 28 L 13.28125 28.28125 L 13.78125 28.28125 L 13.941406 28 L 13.121094 28 z M 14.322266 28 L 14.125 28.34375 L 14.375 28.75 L 14.875 28.75 L 15.125 28.34375 L 14.927734 28 L 14.322266 28 z M 15.339844 28 L 15.5 28.28125 L 16 28.28125 L 16.160156 28 L 15.339844 28 z M 16.541016 28 L 16.34375 28.34375 L 16.59375 28.75 L 17.09375 28.75 L 17.34375 28.34375 L 17.146484 28 L 16.541016 28 z M 17.558594 28 L 17.71875 28.28125 L 18.21875 28.28125 L 18.378906 28 L 17.558594 28 z M 18.728516 28 L 18.53125 28.34375 L 18.78125 28.75 L 19.28125 28.75 L 19.53125 28.34375 L 19.333984 28 L 18.728516 28 z M 19.777344 28 L 19.9375 28.28125 L 20.4375 28.28125 L 20.597656 28 L 19.777344 28 z M 20.947266 28 L 20.75 28.34375 L 21 28.75 L 21.5 28.75 L 21.75 28.34375 L 21.552734 28 L 20.947266 28 z M 21.933594 28 L 22.09375 28.28125 L 22.59375 28.28125 L 22.753906 28 L 21.933594 28 z M 23.134766 28 L 22.9375 28.34375 L 23.1875 28.75 L 23.6875 28.75 L 23.9375 28.34375 L 23.740234 28 L 23.134766 28 z M 24.152344 28 L 24.3125 28.28125 L 24.8125 28.28125 L 24.972656 28 L 24.152344 28 z M 25.353516 28 L 25.15625 28.34375 L 25.40625 28.75 L 25.90625 28.75 L 26.15625 28.34375 L 25.958984 28 L 25.353516 28 z M 26.339844 28 L 26.5 28.28125 L 27 28.28125 L 27.160156 28 L 26.339844 28 z M 27.509766 28 L 27.3125 28.34375 L 27.5625 28.75 L 28.0625 28.75 L 28.3125 28.34375 L 28.115234 28 L 27.509766 28 z M 28.558594 28 L 28.71875 28.28125 L 29.21875 28.28125 L 29.378906 28 L 28.558594 28 z M 29.728516 28 L 29.53125 28.34375 L 29.78125 28.75 L 30.28125 28.75 L 30.53125 28.34375 L 30.333984 28 L 29.728516 28 z M 30.714844 28 L 30.875 28.28125 L 31.375 28.28125 L 31.535156 28 L 30.714844 28 z M 31.916016 28 L 31.71875 28.34375 L 31.96875 28.75 L 32.46875 28.75 L 32.71875 28.34375 L 32.521484 28 L 31.916016 28 z M 32.933594 28 L 33.09375 28.28125 L 33.59375 28.28125 L 33.753906 28 L 32.933594 28 z M 34.134766 28 L 33.9375 28.34375 L 34.1875 28.75 L 34.6875 28.75 L 34.9375 28.34375 L 34.740234 28 L 34.134766 28 z M 35.121094 28 L 35.28125 28.28125 L 35.78125 28.28125 L 35.941406 28 L 35.121094 28 z M 36.322266 28 L 36.125 28.34375 L 36.375 28.75 L 36.875 28.75 L 37.125 28.34375 L 36.927734 28 L 36.322266 28 z M 37.339844 28 L 37.5 28.28125 L 38 28.28125 L 38.160156 28 L 37.339844 28 z M 38.541016 28 L 38.34375 28.34375 L 38.59375 28.75 L 39.09375 28.75 L 39.34375 28.34375 L 39.146484 28 L 38.541016 28 z M 39.527344 28 L 39.6875 28.28125 L 40.1875 28.28125 L 40.347656 28 L 39.527344 28 z M 40.697266 28 L 40.5 28.34375 L 40.75 28.75 L 41.25 28.75 L 41.5 28.34375 L 41.302734 28 L 40.697266 28 z M 41.746094 28 L 41.90625 28.28125 L 42 28.28125 L 42 28 L 41.746094 28 z M 6.71875 28.625 L 6.46875 29.0625 L 6.71875 29.46875 L 7.21875 29.46875 L 7.46875 29.0625 L 7.21875 28.625 L 6.71875 28.625 z M 8.90625 28.625 L 8.65625 29.0625 L 8.90625 29.46875 L 9.40625 29.46875 L 9.65625 29.0625 L 9.40625 28.625 L 8.90625 28.625 z M 11.125 28.625 L 10.875 29.0625 L 11.125 29.46875 L 11.625 29.46875 L 11.875 29.0625 L 11.625 28.625 L 11.125 28.625 z M 13.28125 28.625 L 13.03125 29.0625 L 13.28125 29.46875 L 13.78125 29.46875 L 14.03125 29.0625 L 13.78125 28.625 L 13.28125 28.625 z M 15.5 28.625 L 15.25 29.0625 L 15.5 29.46875 L 16 29.46875 L 16.25 29.0625 L 16 28.625 L 15.5 28.625 z M 17.71875 28.625 L 17.46875 29.0625 L 17.71875 29.46875 L 18.21875 29.46875 L 18.46875 29.0625 L 18.21875 28.625 L 17.71875 28.625 z M 19.9375 28.625 L 19.6875 29.0625 L 19.9375 29.46875 L 20.4375 29.46875 L 20.6875 29.0625 L 20.4375 28.625 L 19.9375 28.625 z M 22.09375 28.625 L 21.84375 29.0625 L 22.09375 29.46875 L 22.59375 29.46875 L 22.84375 29.0625 L 22.59375 28.625 L 22.09375 28.625 z M 24.3125 28.625 L 24.0625 29.0625 L 24.3125 29.46875 L 24.8125 29.46875 L 25.0625 29.0625 L 24.8125 28.625 L 24.3125 28.625 z M 26.5 28.625 L 26.25 29.0625 L 26.5 29.46875 L 27 29.46875 L 27.25 29.0625 L 27 28.625 L 26.5 28.625 z M 28.71875 28.625 L 28.46875 29.0625 L 28.71875 29.46875 L 29.21875 29.46875 L 29.46875 29.0625 L 29.21875 28.625 L 28.71875 28.625 z M 30.875 28.625 L 30.625 29.0625 L 30.875 29.46875 L 31.375 29.46875 L 31.625 29.0625 L 31.375 28.625 L 30.875 28.625 z M 33.09375 28.625 L 32.84375 29.0625 L 33.09375 29.46875 L 33.59375 29.46875 L 33.84375 29.0625 L 33.59375 28.625 L 33.09375 28.625 z M 35.28125 28.625 L 35.03125 29.0625 L 35.28125 29.46875 L 35.78125 29.46875 L 36.03125 29.0625 L 35.78125 28.625 L 35.28125 28.625 z M 37.5 28.625 L 37.25 29.0625 L 37.5 29.46875 L 38 29.46875 L 38.25 29.0625 L 38 28.625 L 37.5 28.625 z M 39.6875 28.625 L 39.4375 29.0625 L 39.6875 29.46875 L 40.1875 29.46875 L 40.4375 29.0625 L 40.1875 28.625 L 39.6875 28.625 z M 41.90625 28.625 L 41.65625 29.0625 L 41.90625 29.46875 L 42 29.46875 L 42 28.625 L 41.90625 28.625 z M 6 29.0625 L 6 29.90625 L 6.09375 29.90625 L 6.34375 29.46875 L 6.09375 29.0625 L 6 29.0625 z M 7.8125 29.0625 L 7.5625 29.46875 L 7.8125 29.90625 L 8.3125 29.90625 L 8.5625 29.46875 L 8.3125 29.0625 L 7.8125 29.0625 z M 9.96875 29.0625 L 9.71875 29.46875 L 9.96875 29.90625 L 10.46875 29.90625 L 10.71875 29.46875 L 10.46875 29.0625 L 9.96875 29.0625 z M 12.1875 29.0625 L 11.9375 29.46875 L 12.1875 29.90625 L 12.6875 29.90625 L 12.9375 29.46875 L 12.6875 29.0625 L 12.1875 29.0625 z M 14.375 29.0625 L 14.125 29.46875 L 14.375 29.90625 L 14.875 29.90625 L 15.125 29.46875 L 14.875 29.0625 L 14.375 29.0625 z M 16.59375 29.0625 L 16.34375 29.46875 L 16.59375 29.90625 L 17.09375 29.90625 L 17.34375 29.46875 L 17.09375 29.0625 L 16.59375 29.0625 z M 18.78125 29.0625 L 18.53125 29.46875 L 18.78125 29.90625 L 19.28125 29.90625 L 19.53125 29.46875 L 19.28125 29.0625 L 18.78125 29.0625 z M 21 29.0625 L 20.75 29.46875 L 21 29.90625 L 21.5 29.90625 L 21.75 29.46875 L 21.5 29.0625 L 21 29.0625 z M 23.1875 29.0625 L 22.9375 29.46875 L 23.1875 29.90625 L 23.6875 29.90625 L 23.9375 29.46875 L 23.6875 29.0625 L 23.1875 29.0625 z M 25.40625 29.0625 L 25.15625 29.46875 L 25.40625 29.90625 L 25.90625 29.90625 L 26.15625 29.46875 L 25.90625 29.0625 L 25.40625 29.0625 z M 27.5625 29.0625 L 27.3125 29.46875 L 27.5625 29.90625 L 28.0625 29.90625 L 28.3125 29.46875 L 28.0625 29.0625 L 27.5625 29.0625 z M 29.78125 29.0625 L 29.53125 29.46875 L 29.78125 29.90625 L 30.28125 29.90625 L 30.53125 29.46875 L 30.28125 29.0625 L 29.78125 29.0625 z M 31.96875 29.0625 L 31.71875 29.46875 L 31.96875 29.90625 L 32.46875 29.90625 L 32.71875 29.46875 L 32.46875 29.0625 L 31.96875 29.0625 z M 34.1875 29.0625 L 33.9375 29.46875 L 34.1875 29.90625 L 34.6875 29.90625 L 34.9375 29.46875 L 34.6875 29.0625 L 34.1875 29.0625 z M 36.375 29.0625 L 36.125 29.46875 L 36.375 29.90625 L 36.875 29.90625 L 37.125 29.46875 L 36.875 29.0625 L 36.375 29.0625 z M 38.59375 29.0625 L 38.34375 29.46875 L 38.59375 29.90625 L 39.09375 29.90625 L 39.34375 29.46875 L 39.09375 29.0625 L 38.59375 29.0625 z M 40.75 29.0625 L 40.5 29.46875 L 40.75 29.90625 L 41.25 29.90625 L 41.5 29.46875 L 41.25 29.0625 L 40.75 29.0625 z M 6.71875 29.78125 L 6.46875 30.21875 L 6.71875 30.625 L 7.21875 30.625 L 7.46875 30.21875 L 7.21875 29.78125 L 6.71875 29.78125 z M 8.90625 29.78125 L 8.65625 30.21875 L 8.90625 30.625 L 9.40625 30.625 L 9.65625 30.21875 L 9.40625 29.78125 L 8.90625 29.78125 z M 11.125 29.78125 L 10.875 30.21875 L 11.125 30.625 L 11.625 30.625 L 11.875 30.21875 L 11.625 29.78125 L 11.125 29.78125 z M 13.28125 29.78125 L 13.03125 30.21875 L 13.28125 30.625 L 13.78125 30.625 L 14.03125 30.21875 L 13.78125 29.78125 L 13.28125 29.78125 z M 15.5 29.78125 L 15.25 30.21875 L 15.5 30.625 L 16 30.625 L 16.25 30.21875 L 16 29.78125 L 15.5 29.78125 z M 17.71875 29.78125 L 17.46875 30.21875 L 17.71875 30.625 L 18.21875 30.625 L 18.46875 30.21875 L 18.21875 29.78125 L 17.71875 29.78125 z M 19.9375 29.78125 L 19.6875 30.21875 L 19.9375 30.625 L 20.4375 30.625 L 20.6875 30.21875 L 20.4375 29.78125 L 19.9375 29.78125 z M 22.09375 29.78125 L 21.84375 30.21875 L 22.09375 30.625 L 22.59375 30.625 L 22.84375 30.21875 L 22.59375 29.78125 L 22.09375 29.78125 z M 24.3125 29.78125 L 24.0625 30.21875 L 24.3125 30.625 L 24.8125 30.625 L 25.0625 30.21875 L 24.8125 29.78125 L 24.3125 29.78125 z M 26.5 29.78125 L 26.25 30.21875 L 26.5 30.625 L 27 30.625 L 27.25 30.21875 L 27 29.78125 L 26.5 29.78125 z M 28.71875 29.78125 L 28.46875 30.21875 L 28.71875 30.625 L 29.21875 30.625 L 29.46875 30.21875 L 29.21875 29.78125 L 28.71875 29.78125 z M 30.875 29.78125 L 30.625 30.21875 L 30.875 30.625 L 31.375 30.625 L 31.625 30.21875 L 31.375 29.78125 L 30.875 29.78125 z M 33.09375 29.78125 L 32.84375 30.21875 L 33.09375 30.625 L 33.59375 30.625 L 33.84375 30.21875 L 33.59375 29.78125 L 33.09375 29.78125 z M 35.28125 29.78125 L 35.03125 30.21875 L 35.28125 30.625 L 35.78125 30.625 L 36.03125 30.21875 L 35.78125 29.78125 L 35.28125 29.78125 z M 37.5 29.78125 L 37.25 30.21875 L 37.5 30.625 L 38 30.625 L 38.25 30.21875 L 38 29.78125 L 37.5 29.78125 z M 39.6875 29.78125 L 39.4375 30.21875 L 39.6875 30.625 L 40.1875 30.625 L 40.4375 30.21875 L 40.1875 29.78125 L 39.6875 29.78125 z M 41.90625 29.78125 L 41.65625 30.21875 L 41.90625 30.625 L 42 30.625 L 42 29.78125 L 41.90625 29.78125 z M 6 30.25 L 6 31.125 L 6.09375 31.125 L 6.34375 30.6875 L 6.09375 30.25 L 6 30.25 z M 7.8125 30.25 L 7.5625 30.6875 L 7.8125 31.125 L 8.3125 31.125 L 8.5625 30.6875 L 8.3125 30.25 L 7.8125 30.25 z M 9.96875 30.25 L 9.71875 30.6875 L 9.96875 31.125 L 10.46875 31.125 L 10.71875 30.6875 L 10.46875 30.25 L 9.96875 30.25 z M 12.1875 30.25 L 11.9375 30.6875 L 12.1875 31.125 L 12.6875 31.125 L 12.9375 30.6875 L 12.6875 30.25 L 12.1875 30.25 z M 14.375 30.25 L 14.125 30.6875 L 14.375 31.125 L 14.875 31.125 L 15.125 30.6875 L 14.875 30.25 L 14.375 30.25 z M 16.59375 30.25 L 16.34375 30.6875 L 16.59375 31.125 L 17.09375 31.125 L 17.34375 30.6875 L 17.09375 30.25 L 16.59375 30.25 z M 18.78125 30.25 L 18.53125 30.6875 L 18.78125 31.125 L 19.28125 31.125 L 19.53125 30.6875 L 19.28125 30.25 L 18.78125 30.25 z M 21 30.25 L 20.75 30.6875 L 21 31.125 L 21.5 31.125 L 21.75 30.6875 L 21.5 30.25 L 21 30.25 z M 23.1875 30.25 L 22.9375 30.6875 L 23.1875 31.125 L 23.6875 31.125 L 23.9375 30.6875 L 23.6875 30.25 L 23.1875 30.25 z M 25.40625 30.25 L 25.15625 30.6875 L 25.40625 31.125 L 25.90625 31.125 L 26.15625 30.6875 L 25.90625 30.25 L 25.40625 30.25 z M 27.5625 30.25 L 27.3125 30.6875 L 27.5625 31.125 L 28.0625 31.125 L 28.3125 30.6875 L 28.0625 30.25 L 27.5625 30.25 z M 29.78125 30.25 L 29.53125 30.6875 L 29.78125 31.125 L 30.28125 31.125 L 30.53125 30.6875 L 30.28125 30.25 L 29.78125 30.25 z M 31.96875 30.25 L 31.71875 30.6875 L 31.96875 31.125 L 32.46875 31.125 L 32.71875 30.6875 L 32.46875 30.25 L 31.96875 30.25 z M 34.1875 30.25 L 33.9375 30.6875 L 34.1875 31.125 L 34.6875 31.125 L 34.9375 30.6875 L 34.6875 30.25 L 34.1875 30.25 z M 36.375 30.25 L 36.125 30.6875 L 36.375 31.125 L 36.875 31.125 L 37.125 30.6875 L 36.875 30.25 L 36.375 30.25 z M 38.59375 30.25 L 38.34375 30.6875 L 38.59375 31.125 L 39.09375 31.125 L 39.34375 30.6875 L 39.09375 30.25 L 38.59375 30.25 z M 40.75 30.25 L 40.5 30.6875 L 40.75 31.125 L 41.25 31.125 L 41.5 30.6875 L 41.25 30.25 L 40.75 30.25 z M 6.71875 30.96875 L 6.46875 31.40625 L 6.71875 31.8125 L 7.21875 31.8125 L 7.46875 31.40625 L 7.21875 30.96875 L 6.71875 30.96875 z M 8.90625 30.96875 L 8.65625 31.40625 L 8.90625 31.8125 L 9.40625 31.8125 L 9.65625 31.40625 L 9.40625 30.96875 L 8.90625 30.96875 z M 11.125 30.96875 L 10.875 31.40625 L 11.125 31.8125 L 11.625 31.8125 L 11.875 31.40625 L 11.625 30.96875 L 11.125 30.96875 z M 13.28125 30.96875 L 13.03125 31.40625 L 13.28125 31.8125 L 13.78125 31.8125 L 14.03125 31.40625 L 13.78125 30.96875 L 13.28125 30.96875 z M 15.5 30.96875 L 15.25 31.40625 L 15.5 31.8125 L 16 31.8125 L 16.25 31.40625 L 16 30.96875 L 15.5 30.96875 z M 17.71875 30.96875 L 17.46875 31.40625 L 17.71875 31.8125 L 18.21875 31.8125 L 18.46875 31.40625 L 18.21875 30.96875 L 17.71875 30.96875 z M 19.9375 30.96875 L 19.6875 31.40625 L 19.9375 31.8125 L 20.4375 31.8125 L 20.6875 31.40625 L 20.4375 30.96875 L 19.9375 30.96875 z M 22.09375 30.96875 L 21.84375 31.40625 L 22.09375 31.8125 L 22.59375 31.8125 L 22.84375 31.40625 L 22.59375 30.96875 L 22.09375 30.96875 z M 24.3125 30.96875 L 24.0625 31.40625 L 24.3125 31.8125 L 24.8125 31.8125 L 25.0625 31.40625 L 24.8125 30.96875 L 24.3125 30.96875 z M 26.5 30.96875 L 26.25 31.40625 L 26.5 31.8125 L 27 31.8125 L 27.25 31.40625 L 27 30.96875 L 26.5 30.96875 z M 28.71875 30.96875 L 28.46875 31.40625 L 28.71875 31.8125 L 29.21875 31.8125 L 29.46875 31.40625 L 29.21875 30.96875 L 28.71875 30.96875 z M 30.875 30.96875 L 30.625 31.40625 L 30.875 31.8125 L 31.375 31.8125 L 31.625 31.40625 L 31.375 30.96875 L 30.875 30.96875 z M 33.09375 30.96875 L 32.84375 31.40625 L 33.09375 31.8125 L 33.59375 31.8125 L 33.84375 31.40625 L 33.59375 30.96875 L 33.09375 30.96875 z M 35.28125 30.96875 L 35.03125 31.40625 L 35.28125 31.8125 L 35.78125 31.8125 L 36.03125 31.40625 L 35.78125 30.96875 L 35.28125 30.96875 z M 37.5 30.96875 L 37.25 31.40625 L 37.5 31.8125 L 38 31.8125 L 38.25 31.40625 L 38 30.96875 L 37.5 30.96875 z M 39.6875 30.96875 L 39.4375 31.40625 L 39.6875 31.8125 L 40.1875 31.8125 L 40.4375 31.40625 L 40.1875 30.96875 L 39.6875 30.96875 z M 41.90625 30.96875 L 41.65625 31.40625 L 41.90625 31.8125 L 42 31.8125 L 42 30.96875 L 41.90625 30.96875 z M 6 31.46875 L 6 32.3125 L 6.09375 32.3125 L 6.34375 31.90625 L 6.09375 31.46875 L 6 31.46875 z M 7.8125 31.46875 L 7.5625 31.90625 L 7.8125 32.3125 L 8.3125 32.3125 L 8.5625 31.90625 L 8.3125 31.46875 L 7.8125 31.46875 z M 9.96875 31.46875 L 9.71875 31.90625 L 9.96875 32.3125 L 10.46875 32.3125 L 10.71875 31.90625 L 10.46875 31.46875 L 9.96875 31.46875 z M 12.1875 31.46875 L 11.9375 31.90625 L 12.1875 32.3125 L 12.6875 32.3125 L 12.9375 31.90625 L 12.6875 31.46875 L 12.1875 31.46875 z M 14.375 31.46875 L 14.125 31.90625 L 14.375 32.3125 L 14.875 32.3125 L 15.125 31.90625 L 14.875 31.46875 L 14.375 31.46875 z M 16.59375 31.46875 L 16.34375 31.90625 L 16.59375 32.3125 L 17.09375 32.3125 L 17.34375 31.90625 L 17.09375 31.46875 L 16.59375 31.46875 z M 18.78125 31.46875 L 18.53125 31.90625 L 18.78125 32.3125 L 19.28125 32.3125 L 19.53125 31.90625 L 19.28125 31.46875 L 18.78125 31.46875 z M 21 31.46875 L 20.75 31.90625 L 21 32.3125 L 21.5 32.3125 L 21.75 31.90625 L 21.5 31.46875 L 21 31.46875 z M 23.1875 31.46875 L 22.9375 31.90625 L 23.1875 32.3125 L 23.6875 32.3125 L 23.9375 31.90625 L 23.6875 31.46875 L 23.1875 31.46875 z M 25.40625 31.46875 L 25.15625 31.90625 L 25.40625 32.3125 L 25.90625 32.3125 L 26.15625 31.90625 L 25.90625 31.46875 L 25.40625 31.46875 z M 27.5625 31.46875 L 27.3125 31.90625 L 27.5625 32.3125 L 28.0625 32.3125 L 28.3125 31.90625 L 28.0625 31.46875 L 27.5625 31.46875 z M 29.78125 31.46875 L 29.53125 31.90625 L 29.78125 32.3125 L 30.28125 32.3125 L 30.53125 31.90625 L 30.28125 31.46875 L 29.78125 31.46875 z M 31.96875 31.46875 L 31.71875 31.90625 L 31.96875 32.3125 L 32.46875 32.3125 L 32.71875 31.90625 L 32.46875 31.46875 L 31.96875 31.46875 z M 34.1875 31.46875 L 33.9375 31.90625 L 34.1875 32.3125 L 34.6875 32.3125 L 34.9375 31.90625 L 34.6875 31.46875 L 34.1875 31.46875 z M 36.375 31.46875 L 36.125 31.90625 L 36.375 32.3125 L 36.875 32.3125 L 37.125 31.90625 L 36.875 31.46875 L 36.375 31.46875 z M 38.59375 31.46875 L 38.34375 31.90625 L 38.59375 32.3125 L 39.09375 32.3125 L 39.34375 31.90625 L 39.09375 31.46875 L 38.59375 31.46875 z M 40.75 31.46875 L 40.5 31.90625 L 40.75 32.3125 L 41.25 32.3125 L 41.5 31.90625 L 41.25 31.46875 L 40.75 31.46875 z M 6.71875 32.125 L 6.46875 32.5625 L 6.71875 32.96875 L 7.21875 32.96875 L 7.46875 32.5625 L 7.21875 32.125 L 6.71875 32.125 z M 8.90625 32.125 L 8.65625 32.5625 L 8.90625 32.96875 L 9.40625 32.96875 L 9.65625 32.5625 L 9.40625 32.125 L 8.90625 32.125 z M 11.125 32.125 L 10.875 32.5625 L 11.125 32.96875 L 11.625 32.96875 L 11.875 32.5625 L 11.625 32.125 L 11.125 32.125 z M 13.28125 32.125 L 13.03125 32.5625 L 13.28125 32.96875 L 13.78125 32.96875 L 14.03125 32.5625 L 13.78125 32.125 L 13.28125 32.125 z M 15.5 32.125 L 15.25 32.5625 L 15.5 32.96875 L 16 32.96875 L 16.25 32.5625 L 16 32.125 L 15.5 32.125 z M 17.71875 32.125 L 17.46875 32.5625 L 17.71875 32.96875 L 18.21875 32.96875 L 18.46875 32.5625 L 18.21875 32.125 L 17.71875 32.125 z M 19.9375 32.125 L 19.6875 32.5625 L 19.9375 32.96875 L 20.4375 32.96875 L 20.6875 32.5625 L 20.4375 32.125 L 19.9375 32.125 z M 22.09375 32.125 L 21.84375 32.5625 L 22.09375 32.96875 L 22.59375 32.96875 L 22.84375 32.5625 L 22.59375 32.125 L 22.09375 32.125 z M 24.3125 32.125 L 24.0625 32.5625 L 24.3125 32.96875 L 24.8125 32.96875 L 25.0625 32.5625 L 24.8125 32.125 L 24.3125 32.125 z M 26.5 32.125 L 26.25 32.5625 L 26.5 32.96875 L 27 32.96875 L 27.25 32.5625 L 27 32.125 L 26.5 32.125 z M 28.71875 32.125 L 28.46875 32.5625 L 28.71875 32.96875 L 29.21875 32.96875 L 29.46875 32.5625 L 29.21875 32.125 L 28.71875 32.125 z M 30.875 32.125 L 30.625 32.5625 L 30.875 32.96875 L 31.375 32.96875 L 31.625 32.5625 L 31.375 32.125 L 30.875 32.125 z M 33.09375 32.125 L 32.84375 32.5625 L 33.09375 32.96875 L 33.59375 32.96875 L 33.84375 32.5625 L 33.59375 32.125 L 33.09375 32.125 z M 35.28125 32.125 L 35.03125 32.5625 L 35.28125 32.96875 L 35.78125 32.96875 L 36.03125 32.5625 L 35.78125 32.125 L 35.28125 32.125 z M 37.5 32.125 L 37.25 32.5625 L 37.5 32.96875 L 38 32.96875 L 38.25 32.5625 L 38 32.125 L 37.5 32.125 z M 39.6875 32.125 L 39.4375 32.5625 L 39.6875 32.96875 L 40.1875 32.96875 L 40.4375 32.5625 L 40.1875 32.125 L 39.6875 32.125 z M 41.90625 32.125 L 41.65625 32.5625 L 41.90625 32.96875 L 42 32.96875 L 42 32.125 L 41.90625 32.125 z M 6 32.65625 L 6 33.5 L 6.09375 33.5 L 6.34375 33.0625 L 6.09375 32.65625 L 6 32.65625 z M 7.8125 32.65625 L 7.5625 33.0625 L 7.8125 33.5 L 8.3125 33.5 L 8.5625 33.0625 L 8.3125 32.65625 L 7.8125 32.65625 z M 9.96875 32.65625 L 9.71875 33.0625 L 9.96875 33.5 L 10.46875 33.5 L 10.71875 33.0625 L 10.46875 32.65625 L 9.96875 32.65625 z M 12.1875 32.65625 L 11.9375 33.0625 L 12.1875 33.5 L 12.6875 33.5 L 12.9375 33.0625 L 12.6875 32.65625 L 12.1875 32.65625 z M 14.375 32.65625 L 14.125 33.0625 L 14.375 33.5 L 14.875 33.5 L 15.125 33.0625 L 14.875 32.65625 L 14.375 32.65625 z M 16.59375 32.65625 L 16.34375 33.0625 L 16.59375 33.5 L 17.09375 33.5 L 17.34375 33.0625 L 17.09375 32.65625 L 16.59375 32.65625 z M 18.78125 32.65625 L 18.53125 33.0625 L 18.78125 33.5 L 19.28125 33.5 L 19.53125 33.0625 L 19.28125 32.65625 L 18.78125 32.65625 z M 21 32.65625 L 20.75 33.0625 L 21 33.5 L 21.5 33.5 L 21.75 33.0625 L 21.5 32.65625 L 21 32.65625 z M 23.1875 32.65625 L 22.9375 33.0625 L 23.1875 33.5 L 23.6875 33.5 L 23.9375 33.0625 L 23.6875 32.65625 L 23.1875 32.65625 z M 25.40625 32.65625 L 25.15625 33.0625 L 25.40625 33.5 L 25.90625 33.5 L 26.15625 33.0625 L 25.90625 32.65625 L 25.40625 32.65625 z M 27.5625 32.65625 L 27.3125 33.0625 L 27.5625 33.5 L 28.0625 33.5 L 28.3125 33.0625 L 28.0625 32.65625 L 27.5625 32.65625 z M 29.78125 32.65625 L 29.53125 33.0625 L 29.78125 33.5 L 30.28125 33.5 L 30.53125 33.0625 L 30.28125 32.65625 L 29.78125 32.65625 z M 31.96875 32.65625 L 31.71875 33.0625 L 31.96875 33.5 L 32.46875 33.5 L 32.71875 33.0625 L 32.46875 32.65625 L 31.96875 32.65625 z M 34.1875 32.65625 L 33.9375 33.0625 L 34.1875 33.5 L 34.6875 33.5 L 34.9375 33.0625 L 34.6875 32.65625 L 34.1875 32.65625 z M 36.375 32.65625 L 36.125 33.0625 L 36.375 33.5 L 36.875 33.5 L 37.125 33.0625 L 36.875 32.65625 L 36.375 32.65625 z M 38.59375 32.65625 L 38.34375 33.0625 L 38.59375 33.5 L 39.09375 33.5 L 39.34375 33.0625 L 39.09375 32.65625 L 38.59375 32.65625 z M 40.75 32.65625 L 40.5 33.0625 L 40.75 33.5 L 41.25 33.5 L 41.5 33.0625 L 41.25 32.65625 L 40.75 32.65625 z M 6.71875 33.28125 L 6.46875 33.71875 L 6.71875 34.15625 L 7.21875 34.15625 L 7.46875 33.71875 L 7.21875 33.28125 L 6.71875 33.28125 z M 8.90625 33.28125 L 8.65625 33.71875 L 8.90625 34.15625 L 9.40625 34.15625 L 9.65625 33.71875 L 9.40625 33.28125 L 8.90625 33.28125 z M 11.125 33.28125 L 10.875 33.71875 L 11.125 34.15625 L 11.625 34.15625 L 11.875 33.71875 L 11.625 33.28125 L 11.125 33.28125 z M 13.28125 33.28125 L 13.03125 33.71875 L 13.28125 34.15625 L 13.78125 34.15625 L 14.03125 33.71875 L 13.78125 33.28125 L 13.28125 33.28125 z M 15.5 33.28125 L 15.25 33.71875 L 15.5 34.15625 L 16 34.15625 L 16.25 33.71875 L 16 33.28125 L 15.5 33.28125 z M 17.71875 33.28125 L 17.46875 33.71875 L 17.71875 34.15625 L 18.21875 34.15625 L 18.46875 33.71875 L 18.21875 33.28125 L 17.71875 33.28125 z M 19.9375 33.28125 L 19.6875 33.71875 L 19.9375 34.15625 L 20.4375 34.15625 L 20.6875 33.71875 L 20.4375 33.28125 L 19.9375 33.28125 z M 22.09375 33.28125 L 21.84375 33.71875 L 22.09375 34.15625 L 22.59375 34.15625 L 22.84375 33.71875 L 22.59375 33.28125 L 22.09375 33.28125 z M 24.3125 33.28125 L 24.0625 33.71875 L 24.3125 34.15625 L 24.8125 34.15625 L 25.0625 33.71875 L 24.8125 33.28125 L 24.3125 33.28125 z M 26.5 33.28125 L 26.25 33.71875 L 26.5 34.15625 L 27 34.15625 L 27.25 33.71875 L 27 33.28125 L 26.5 33.28125 z M 28.71875 33.28125 L 28.46875 33.71875 L 28.71875 34.15625 L 29.21875 34.15625 L 29.46875 33.71875 L 29.21875 33.28125 L 28.71875 33.28125 z M 30.875 33.28125 L 30.625 33.71875 L 30.875 34.15625 L 31.375 34.15625 L 31.625 33.71875 L 31.375 33.28125 L 30.875 33.28125 z M 33.09375 33.28125 L 32.84375 33.71875 L 33.09375 34.15625 L 33.59375 34.15625 L 33.84375 33.71875 L 33.59375 33.28125 L 33.09375 33.28125 z M 35.28125 33.28125 L 35.03125 33.71875 L 35.28125 34.15625 L 35.78125 34.15625 L 36.03125 33.71875 L 35.78125 33.28125 L 35.28125 33.28125 z M 37.5 33.28125 L 37.25 33.71875 L 37.5 34.15625 L 38 34.15625 L 38.25 33.71875 L 38 33.28125 L 37.5 33.28125 z M 39.6875 33.28125 L 39.4375 33.71875 L 39.6875 34.15625 L 40.1875 34.15625 L 40.4375 33.71875 L 40.1875 33.28125 L 39.6875 33.28125 z M 41.90625 33.28125 L 41.65625 33.71875 L 41.90625 34.15625 L 42 34.15625 L 42 33.28125 L 41.90625 33.28125 z M 6 33.78125 L 6 34.65625 L 6.09375 34.65625 L 6.34375 34.21875 L 6.09375 33.78125 L 6 33.78125 z M 7.8125 33.78125 L 7.5625 34.21875 L 7.8125 34.65625 L 8.3125 34.65625 L 8.5625 34.21875 L 8.3125 33.78125 L 7.8125 33.78125 z M 9.96875 33.78125 L 9.71875 34.21875 L 9.96875 34.65625 L 10.46875 34.65625 L 10.71875 34.21875 L 10.46875 33.78125 L 9.96875 33.78125 z M 12.1875 33.78125 L 11.9375 34.21875 L 12.1875 34.65625 L 12.6875 34.65625 L 12.9375 34.21875 L 12.6875 33.78125 L 12.1875 33.78125 z M 14.375 33.78125 L 14.125 34.21875 L 14.375 34.65625 L 14.875 34.65625 L 15.125 34.21875 L 14.875 33.78125 L 14.375 33.78125 z M 16.59375 33.78125 L 16.34375 34.21875 L 16.59375 34.65625 L 17.09375 34.65625 L 17.34375 34.21875 L 17.09375 33.78125 L 16.59375 33.78125 z M 18.78125 33.78125 L 18.53125 34.21875 L 18.78125 34.65625 L 19.28125 34.65625 L 19.53125 34.21875 L 19.28125 33.78125 L 18.78125 33.78125 z M 21 33.78125 L 20.75 34.21875 L 21 34.65625 L 21.5 34.65625 L 21.75 34.21875 L 21.5 33.78125 L 21 33.78125 z M 23.1875 33.78125 L 22.9375 34.21875 L 23.1875 34.65625 L 23.6875 34.65625 L 23.9375 34.21875 L 23.6875 33.78125 L 23.1875 33.78125 z M 25.40625 33.78125 L 25.15625 34.21875 L 25.40625 34.65625 L 25.90625 34.65625 L 26.15625 34.21875 L 25.90625 33.78125 L 25.40625 33.78125 z M 27.5625 33.78125 L 27.3125 34.21875 L 27.5625 34.65625 L 28.0625 34.65625 L 28.3125 34.21875 L 28.0625 33.78125 L 27.5625 33.78125 z M 29.78125 33.78125 L 29.53125 34.21875 L 29.78125 34.65625 L 30.28125 34.65625 L 30.53125 34.21875 L 30.28125 33.78125 L 29.78125 33.78125 z M 31.96875 33.78125 L 31.71875 34.21875 L 31.96875 34.65625 L 32.46875 34.65625 L 32.71875 34.21875 L 32.46875 33.78125 L 31.96875 33.78125 z M 34.1875 33.78125 L 33.9375 34.21875 L 34.1875 34.65625 L 34.6875 34.65625 L 34.9375 34.21875 L 34.6875 33.78125 L 34.1875 33.78125 z M 36.375 33.78125 L 36.125 34.21875 L 36.375 34.65625 L 36.875 34.65625 L 37.125 34.21875 L 36.875 33.78125 L 36.375 33.78125 z M 38.59375 33.78125 L 38.34375 34.21875 L 38.59375 34.65625 L 39.09375 34.65625 L 39.34375 34.21875 L 39.09375 33.78125 L 38.59375 33.78125 z M 40.75 33.78125 L 40.5 34.21875 L 40.75 34.65625 L 41.25 34.65625 L 41.5 34.21875 L 41.25 33.78125 L 40.75 33.78125 z M 6.71875 34.5 L 6.46875 34.9375 L 6.71875 35.375 L 7.21875 35.375 L 7.46875 34.9375 L 7.21875 34.5 L 6.71875 34.5 z M 8.90625 34.5 L 8.65625 34.9375 L 8.90625 35.375 L 9.40625 35.375 L 9.65625 34.9375 L 9.40625 34.5 L 8.90625 34.5 z M 11.125 34.5 L 10.875 34.9375 L 11.125 35.375 L 11.625 35.375 L 11.875 34.9375 L 11.625 34.5 L 11.125 34.5 z M 13.28125 34.5 L 13.03125 34.9375 L 13.28125 35.375 L 13.78125 35.375 L 14.03125 34.9375 L 13.78125 34.5 L 13.28125 34.5 z M 15.5 34.5 L 15.25 34.9375 L 15.5 35.375 L 16 35.375 L 16.25 34.9375 L 16 34.5 L 15.5 34.5 z M 17.71875 34.5 L 17.46875 34.9375 L 17.71875 35.375 L 18.21875 35.375 L 18.46875 34.9375 L 18.21875 34.5 L 17.71875 34.5 z M 19.9375 34.5 L 19.6875 34.9375 L 19.9375 35.375 L 20.4375 35.375 L 20.6875 34.9375 L 20.4375 34.5 L 19.9375 34.5 z M 22.09375 34.5 L 21.84375 34.9375 L 22.09375 35.375 L 22.59375 35.375 L 22.84375 34.9375 L 22.59375 34.5 L 22.09375 34.5 z M 24.3125 34.5 L 24.0625 34.9375 L 24.3125 35.375 L 24.8125 35.375 L 25.0625 34.9375 L 24.8125 34.5 L 24.3125 34.5 z M 26.5 34.5 L 26.25 34.9375 L 26.5 35.375 L 27 35.375 L 27.25 34.9375 L 27 34.5 L 26.5 34.5 z M 28.71875 34.5 L 28.46875 34.9375 L 28.71875 35.375 L 29.21875 35.375 L 29.46875 34.9375 L 29.21875 34.5 L 28.71875 34.5 z M 30.875 34.5 L 30.625 34.9375 L 30.875 35.375 L 31.375 35.375 L 31.625 34.9375 L 31.375 34.5 L 30.875 34.5 z M 33.09375 34.5 L 32.84375 34.9375 L 33.09375 35.375 L 33.59375 35.375 L 33.84375 34.9375 L 33.59375 34.5 L 33.09375 34.5 z M 35.28125 34.5 L 35.03125 34.9375 L 35.28125 35.375 L 35.78125 35.375 L 36.03125 34.9375 L 35.78125 34.5 L 35.28125 34.5 z M 37.5 34.5 L 37.25 34.9375 L 37.5 35.375 L 38 35.375 L 38.25 34.9375 L 38 34.5 L 37.5 34.5 z M 39.6875 34.5 L 39.4375 34.9375 L 39.6875 35.375 L 40.1875 35.375 L 40.4375 34.9375 L 40.1875 34.5 L 39.6875 34.5 z M 41.90625 34.5 L 41.65625 34.9375 L 41.90625 35.375 L 42 35.375 L 42 34.5 L 41.90625 34.5 z M 6 35 L 6 35.84375 L 6.09375 35.84375 L 6.34375 35.4375 L 6.09375 35 L 6 35 z M 7.8125 35 L 7.5625 35.4375 L 7.8125 35.84375 L 8.3125 35.84375 L 8.5625 35.4375 L 8.3125 35 L 7.8125 35 z M 9.96875 35 L 9.71875 35.4375 L 9.96875 35.84375 L 10.46875 35.84375 L 10.71875 35.4375 L 10.46875 35 L 9.96875 35 z M 12.1875 35 L 11.9375 35.4375 L 12.1875 35.84375 L 12.6875 35.84375 L 12.9375 35.4375 L 12.6875 35 L 12.1875 35 z M 14.375 35 L 14.125 35.4375 L 14.375 35.84375 L 14.875 35.84375 L 15.125 35.4375 L 14.875 35 L 14.375 35 z M 16.59375 35 L 16.34375 35.4375 L 16.59375 35.84375 L 17.09375 35.84375 L 17.34375 35.4375 L 17.09375 35 L 16.59375 35 z M 18.78125 35 L 18.53125 35.4375 L 18.78125 35.84375 L 19.28125 35.84375 L 19.53125 35.4375 L 19.28125 35 L 18.78125 35 z M 21 35 L 20.75 35.4375 L 21 35.84375 L 21.5 35.84375 L 21.75 35.4375 L 21.5 35 L 21 35 z M 23.1875 35 L 22.9375 35.4375 L 23.1875 35.84375 L 23.6875 35.84375 L 23.9375 35.4375 L 23.6875 35 L 23.1875 35 z M 25.40625 35 L 25.15625 35.4375 L 25.40625 35.84375 L 25.90625 35.84375 L 26.15625 35.4375 L 25.90625 35 L 25.40625 35 z M 27.5625 35 L 27.3125 35.4375 L 27.5625 35.84375 L 28.0625 35.84375 L 28.3125 35.4375 L 28.0625 35 L 27.5625 35 z M 29.78125 35 L 29.53125 35.4375 L 29.78125 35.84375 L 30.28125 35.84375 L 30.53125 35.4375 L 30.28125 35 L 29.78125 35 z M 31.96875 35 L 31.71875 35.4375 L 31.96875 35.84375 L 32.46875 35.84375 L 32.71875 35.4375 L 32.46875 35 L 31.96875 35 z M 34.1875 35 L 33.9375 35.4375 L 34.1875 35.84375 L 34.6875 35.84375 L 34.9375 35.4375 L 34.6875 35 L 34.1875 35 z M 36.375 35 L 36.125 35.4375 L 36.375 35.84375 L 36.875 35.84375 L 37.125 35.4375 L 36.875 35 L 36.375 35 z M 38.59375 35 L 38.34375 35.4375 L 38.59375 35.84375 L 39.09375 35.84375 L 39.34375 35.4375 L 39.09375 35 L 38.59375 35 z M 40.75 35 L 40.5 35.4375 L 40.75 35.84375 L 41.25 35.84375 L 41.5 35.4375 L 41.25 35 L 40.75 35 z M 6.71875 35.6875 L 6.5410156 36 L 7.3964844 36 L 7.21875 35.6875 L 6.71875 35.6875 z M 8.90625 35.6875 L 8.7285156 36 L 9.5839844 36 L 9.40625 35.6875 L 8.90625 35.6875 z M 11.125 35.6875 L 10.947266 36 L 11.802734 36 L 11.625 35.6875 L 11.125 35.6875 z M 13.28125 35.6875 L 13.103516 36 L 13.958984 36 L 13.78125 35.6875 L 13.28125 35.6875 z M 15.5 35.6875 L 15.322266 36 L 16.177734 36 L 16 35.6875 L 15.5 35.6875 z M 17.71875 35.6875 L 17.541016 36 L 18.396484 36 L 18.21875 35.6875 L 17.71875 35.6875 z M 19.9375 35.6875 L 19.759766 36 L 20.615234 36 L 20.4375 35.6875 L 19.9375 35.6875 z M 22.09375 35.6875 L 21.916016 36 L 22.771484 36 L 22.59375 35.6875 L 22.09375 35.6875 z M 24.3125 35.6875 L 24.134766 36 L 24.990234 36 L 24.8125 35.6875 L 24.3125 35.6875 z M 26.5 35.6875 L 26.322266 36 L 27.177734 36 L 27 35.6875 L 26.5 35.6875 z M 28.71875 35.6875 L 28.541016 36 L 29.396484 36 L 29.21875 35.6875 L 28.71875 35.6875 z M 30.875 35.6875 L 30.697266 36 L 31.552734 36 L 31.375 35.6875 L 30.875 35.6875 z M 33.09375 35.6875 L 32.916016 36 L 33.771484 36 L 33.59375 35.6875 L 33.09375 35.6875 z M 35.28125 35.6875 L 35.103516 36 L 35.958984 36 L 35.78125 35.6875 L 35.28125 35.6875 z M 37.5 35.6875 L 37.322266 36 L 38.177734 36 L 38 35.6875 L 37.5 35.6875 z M 39.6875 35.6875 L 39.509766 36 L 40.365234 36 L 40.1875 35.6875 L 39.6875 35.6875 z M 41.90625 35.6875 L 41.728516 36 L 42 36 L 42 35.6875 L 41.90625 35.6875 z "
       transform="translate(384.57143,499.798)"
       id="path20487-1" />
    <path
       id="path4768"
       d="m 390.57143,511.798 0,0.75 0.0937,0 0.25,-0.40625 -0.19727,-0.34375 -0.14648,0 z m 0.55859,0 0.16016,0.28125 0.5,0 0.16016,-0.28125 -0.82032,0 z m 1.20118,0 -0.19727,0.34375 0.25,0.40625 0.5,0 0.25,-0.40625 -0.19727,-0.34375 -0.60546,0 z m 0.98632,0 0.16016,0.28125 0.5,0 0.16016,-0.28125 -0.82032,0 z m 1.16993,0 -0.19727,0.34375 0.25,0.40625 0.5,0 0.25,-0.40625 -0.19727,-0.34375 -0.60546,0 z m 1.04882,0 0.16016,0.28125 0.5,0 0.16016,-0.28125 -0.82032,0 z m 1.16993,0 -0.19727,0.34375 0.25,0.40625 0.5,0 0.25,-0.40625 -0.19727,-0.34375 -0.60546,0 z m 0.98632,0 0.16016,0.28125 0.5,0 0.16016,-0.28125 -0.82032,0 z m 1.20118,0 -0.19727,0.34375 0.25,0.40625 0.5,0 0.25,-0.40625 -0.19727,-0.34375 -0.60546,0 z m 1.01757,0 0.16016,0.28125 0.5,0 0.16016,-0.28125 -0.82032,0 z m 1.20118,0 -0.19727,0.34375 0.25,0.40625 0.5,0 0.25,-0.40625 -0.19727,-0.34375 -0.60546,0 z m 1.01757,0 0.16016,0.28125 0.5,0 0.16016,-0.28125 -0.82032,0 z m 1.16993,0 -0.19727,0.34375 0.25,0.40625 0.5,0 0.25,-0.40625 -0.19727,-0.34375 -0.60546,0 z m 1.04882,0 0.16016,0.28125 0.5,0 0.16016,-0.28125 -0.82032,0 z m 1.16993,0 -0.19727,0.34375 0.25,0.40625 0.5,0 0.25,-0.40625 -0.19727,-0.34375 -0.60546,0 z m 0.98632,0 0.16016,0.28125 0.5,0 0.16016,-0.28125 -0.82032,0 z m 1.20118,0 -0.19727,0.34375 0.25,0.40625 0.5,0 0.25,-0.40625 -0.19727,-0.34375 -0.60546,0 z m 1.01757,0 0.16016,0.28125 0.5,0 0.16016,-0.28125 -0.82032,0 z m 1.20118,0 -0.19727,0.34375 0.25,0.40625 0.5,0 0.25,-0.40625 -0.19727,-0.34375 -0.60546,0 z m 0.98632,0 0.16016,0.28125 0.5,0 0.16016,-0.28125 -0.82032,0 z m 1.16993,0 -0.19727,0.34375 0.25,0.40625 0.5,0 0.25,-0.40625 -0.19727,-0.34375 -0.60546,0 z m 1.04882,0 0.16016,0.28125 0.5,0 0.16016,-0.28125 -0.82032,0 z m 1.16993,0 -0.19727,0.34375 0.25,0.40625 0.5,0 0.25,-0.40625 -0.19727,-0.34375 -0.60546,0 z m 0.98632,0 0.16016,0.28125 0.5,0 0.16016,-0.28125 -0.82032,0 z m 1.20118,0 -0.19727,0.34375 0.25,0.40625 0.5,0 0.25,-0.40625 -0.19727,-0.34375 -0.60546,0 z m 1.01757,0 0.16016,0.28125 0.5,0 0.16016,-0.28125 -0.82032,0 z m 1.20118,0 -0.19727,0.34375 0.25,0.40625 0.5,0 0.25,-0.40625 -0.19727,-0.34375 -0.60546,0 z m 0.98632,0 0.16016,0.28125 0.5,0 0.16016,-0.28125 -0.82032,0 z m 1.20118,0 -0.19727,0.34375 0.25,0.40625 0.5,0 0.25,-0.40625 -0.19727,-0.34375 -0.60546,0 z m 1.01757,0 0.16016,0.28125 0.5,0 0.16016,-0.28125 -0.82032,0 z m 1.20118,0 -0.19727,0.34375 0.25,0.40625 0.5,0 0.25,-0.40625 -0.19727,-0.34375 -0.60546,0 z m 0.98632,0 0.16016,0.28125 0.5,0 0.16016,-0.28125 -0.82032,0 z m 1.16993,0 -0.19727,0.34375 0.25,0.40625 0.5,0 0.25,-0.40625 -0.19727,-0.34375 -0.60546,0 z m 1.04882,0 0.16016,0.28125 0.0937,0 0,-0.28125 -0.25391,0 z m -35.02734,0.625 -0.25,0.4375 0.25,0.40625 0.5,0 0.25,-0.40625 -0.25,-0.4375 -0.5,0 z m 2.1875,0 -0.25,0.4375 0.25,0.40625 0.5,0 0.25,-0.40625 -0.25,-0.4375 -0.5,0 z m 2.21875,0 -0.25,0.4375 0.25,0.40625 0.5,0 0.25,-0.40625 -0.25,-0.4375 -0.5,0 z m 2.15625,0 -0.25,0.4375 0.25,0.40625 0.5,0 0.25,-0.40625 -0.25,-0.4375 -0.5,0 z m 2.21875,0 -0.25,0.4375 0.25,0.40625 0.5,0 0.25,-0.40625 -0.25,-0.4375 -0.5,0 z m 2.21875,0 -0.25,0.4375 0.25,0.40625 0.5,0 0.25,-0.40625 -0.25,-0.4375 -0.5,0 z m 2.21875,0 -0.25,0.4375 0.25,0.40625 0.5,0 0.25,-0.40625 -0.25,-0.4375 -0.5,0 z m 2.15625,0 -0.25,0.4375 0.25,0.40625 0.5,0 0.25,-0.40625 -0.25,-0.4375 -0.5,0 z m 2.21875,0 -0.25,0.4375 0.25,0.40625 0.5,0 0.25,-0.40625 -0.25,-0.4375 -0.5,0 z m 2.1875,0 -0.25,0.4375 0.25,0.40625 0.5,0 0.25,-0.40625 -0.25,-0.4375 -0.5,0 z m 2.21875,0 -0.25,0.4375 0.25,0.40625 0.5,0 0.25,-0.40625 -0.25,-0.4375 -0.5,0 z m 2.15625,0 -0.25,0.4375 0.25,0.40625 0.5,0 0.25,-0.40625 -0.25,-0.4375 -0.5,0 z m 2.21875,0 -0.25,0.4375 0.25,0.40625 0.5,0 0.25,-0.40625 -0.25,-0.4375 -0.5,0 z m 2.1875,0 -0.25,0.4375 0.25,0.40625 0.5,0 0.25,-0.40625 -0.25,-0.4375 -0.5,0 z m 2.21875,0 -0.25,0.4375 0.25,0.40625 0.5,0 0.25,-0.40625 -0.25,-0.4375 -0.5,0 z m 2.1875,0 -0.25,0.4375 0.25,0.40625 0.5,0 0.25,-0.40625 -0.25,-0.4375 -0.5,0 z m 2.21875,0 -0.25,0.4375 0.25,0.40625 0.0937,0 0,-0.84375 -0.0937,0 z m -35.90625,0.4375 0,0.84375 0.0937,0 0.25,-0.4375 -0.25,-0.40625 -0.0937,0 z m 1.8125,0 -0.25,0.40625 0.25,0.4375 0.5,0 0.25,-0.4375 -0.25,-0.40625 -0.5,0 z m 2.15625,0 -0.25,0.40625 0.25,0.4375 0.5,0 0.25,-0.4375 -0.25,-0.40625 -0.5,0 z m 2.21875,0 -0.25,0.40625 0.25,0.4375 0.5,0 0.25,-0.4375 -0.25,-0.40625 -0.5,0 z m 2.1875,0 -0.25,0.40625 0.25,0.4375 0.5,0 0.25,-0.4375 -0.25,-0.40625 -0.5,0 z m 2.21875,0 -0.25,0.40625 0.25,0.4375 0.5,0 0.25,-0.4375 -0.25,-0.40625 -0.5,0 z m 2.1875,0 -0.25,0.40625 0.25,0.4375 0.5,0 0.25,-0.4375 -0.25,-0.40625 -0.5,0 z m 2.21875,0 -0.25,0.40625 0.25,0.4375 0.5,0 0.25,-0.4375 -0.25,-0.40625 -0.5,0 z m 2.1875,0 -0.25,0.40625 0.25,0.4375 0.5,0 0.25,-0.4375 -0.25,-0.40625 -0.5,0 z m 2.21875,0 -0.25,0.40625 0.25,0.4375 0.5,0 0.25,-0.4375 -0.25,-0.40625 -0.5,0 z m 2.15625,0 -0.25,0.40625 0.25,0.4375 0.5,0 0.25,-0.4375 -0.25,-0.40625 -0.5,0 z m 2.21875,0 -0.25,0.40625 0.25,0.4375 0.5,0 0.25,-0.4375 -0.25,-0.40625 -0.5,0 z m 2.1875,0 -0.25,0.40625 0.25,0.4375 0.5,0 0.25,-0.4375 -0.25,-0.40625 -0.5,0 z m 2.21875,0 -0.25,0.40625 0.25,0.4375 0.5,0 0.25,-0.4375 -0.25,-0.40625 -0.5,0 z m 2.1875,0 -0.25,0.40625 0.25,0.4375 0.5,0 0.25,-0.4375 -0.25,-0.40625 -0.5,0 z m 2.21875,0 -0.25,0.40625 0.25,0.4375 0.5,0 0.25,-0.4375 -0.25,-0.40625 -0.5,0 z m 2.15625,0 -0.25,0.40625 0.25,0.4375 0.5,0 0.25,-0.4375 -0.25,-0.40625 -0.5,0 z m -34.03125,0.71875 -0.25,0.4375 0.25,0.40625 0.5,0 0.25,-0.40625 -0.25,-0.4375 -0.5,0 z m 2.1875,0 -0.25,0.4375 0.25,0.40625 0.5,0 0.25,-0.40625 -0.25,-0.4375 -0.5,0 z m 2.21875,0 -0.25,0.4375 0.25,0.40625 0.5,0 0.25,-0.40625 -0.25,-0.4375 -0.5,0 z m 2.15625,0 -0.25,0.4375 0.25,0.40625 0.5,0 0.25,-0.40625 -0.25,-0.4375 -0.5,0 z m 2.21875,0 -0.25,0.4375 0.25,0.40625 0.5,0 0.25,-0.40625 -0.25,-0.4375 -0.5,0 z m 2.21875,0 -0.25,0.4375 0.25,0.40625 0.5,0 0.25,-0.40625 -0.25,-0.4375 -0.5,0 z m 2.21875,0 -0.25,0.4375 0.25,0.40625 0.5,0 0.25,-0.40625 -0.25,-0.4375 -0.5,0 z m 2.15625,0 -0.25,0.4375 0.25,0.40625 0.5,0 0.25,-0.40625 -0.25,-0.4375 -0.5,0 z m 2.21875,0 -0.25,0.4375 0.25,0.40625 0.5,0 0.25,-0.40625 -0.25,-0.4375 -0.5,0 z m 2.1875,0 -0.25,0.4375 0.25,0.40625 0.5,0 0.25,-0.40625 -0.25,-0.4375 -0.5,0 z m 2.21875,0 -0.25,0.4375 0.25,0.40625 0.5,0 0.25,-0.40625 -0.25,-0.4375 -0.5,0 z m 2.15625,0 -0.25,0.4375 0.25,0.40625 0.5,0 0.25,-0.40625 -0.25,-0.4375 -0.5,0 z m 2.21875,0 -0.25,0.4375 0.25,0.40625 0.5,0 0.25,-0.40625 -0.25,-0.4375 -0.5,0 z m 2.1875,0 -0.25,0.4375 0.25,0.40625 0.5,0 0.25,-0.40625 -0.25,-0.4375 -0.5,0 z m 2.21875,0 -0.25,0.4375 0.25,0.40625 0.5,0 0.25,-0.40625 -0.25,-0.4375 -0.5,0 z m 2.1875,0 -0.25,0.4375 0.25,0.40625 0.5,0 0.25,-0.40625 -0.25,-0.4375 -0.5,0 z m 2.21875,0 -0.25,0.4375 0.25,0.40625 0.0937,0 0,-0.84375 -0.0937,0 z m -35.90625,0.46875 0,0.875 0.0937,0 0.25,-0.4375 -0.25,-0.4375 -0.0937,0 z m 1.8125,0 -0.25,0.4375 0.25,0.4375 0.5,0 0.25,-0.4375 -0.25,-0.4375 -0.5,0 z m 2.15625,0 -0.25,0.4375 0.25,0.4375 0.5,0 0.25,-0.4375 -0.25,-0.4375 -0.5,0 z m 2.21875,0 -0.25,0.4375 0.25,0.4375 0.5,0 0.25,-0.4375 -0.25,-0.4375 -0.5,0 z m 2.1875,0 -0.25,0.4375 0.25,0.4375 0.5,0 0.25,-0.4375 -0.25,-0.4375 -0.5,0 z m 2.21875,0 -0.25,0.4375 0.25,0.4375 0.5,0 0.25,-0.4375 -0.25,-0.4375 -0.5,0 z m 2.1875,0 -0.25,0.4375 0.25,0.4375 0.5,0 0.25,-0.4375 -0.25,-0.4375 -0.5,0 z m 2.21875,0 -0.25,0.4375 0.25,0.4375 0.5,0 0.25,-0.4375 -0.25,-0.4375 -0.5,0 z m 2.1875,0 -0.25,0.4375 0.25,0.4375 0.5,0 0.25,-0.4375 -0.25,-0.4375 -0.5,0 z m 2.21875,0 -0.25,0.4375 0.25,0.4375 0.5,0 0.25,-0.4375 -0.25,-0.4375 -0.5,0 z m 2.15625,0 -0.25,0.4375 0.25,0.4375 0.5,0 0.25,-0.4375 -0.25,-0.4375 -0.5,0 z m 2.21875,0 -0.25,0.4375 0.25,0.4375 0.5,0 0.25,-0.4375 -0.25,-0.4375 -0.5,0 z m 2.1875,0 -0.25,0.4375 0.25,0.4375 0.5,0 0.25,-0.4375 -0.25,-0.4375 -0.5,0 z m 2.21875,0 -0.25,0.4375 0.25,0.4375 0.5,0 0.25,-0.4375 -0.25,-0.4375 -0.5,0 z m 2.1875,0 -0.25,0.4375 0.25,0.4375 0.5,0 0.25,-0.4375 -0.25,-0.4375 -0.5,0 z m 2.21875,0 -0.25,0.4375 0.25,0.4375 0.5,0 0.25,-0.4375 -0.25,-0.4375 -0.5,0 z m 2.15625,0 -0.25,0.4375 0.25,0.4375 0.5,0 0.25,-0.4375 -0.25,-0.4375 -0.5,0 z m -34.03125,0.71875 -0.25,0.4375 0.25,0.40625 0.5,0 0.25,-0.40625 -0.25,-0.4375 -0.5,0 z m 2.1875,0 -0.25,0.4375 0.25,0.40625 0.5,0 0.25,-0.40625 -0.25,-0.4375 -0.5,0 z m 2.21875,0 -0.25,0.4375 0.25,0.40625 0.5,0 0.25,-0.40625 -0.25,-0.4375 -0.5,0 z m 2.15625,0 -0.25,0.4375 0.25,0.40625 0.5,0 0.25,-0.40625 -0.25,-0.4375 -0.5,0 z m 2.21875,0 -0.25,0.4375 0.25,0.40625 0.5,0 0.25,-0.40625 -0.25,-0.4375 -0.5,0 z m 2.21875,0 -0.25,0.4375 0.25,0.40625 0.5,0 0.25,-0.40625 -0.25,-0.4375 -0.5,0 z m 2.21875,0 -0.25,0.4375 0.25,0.40625 0.5,0 0.25,-0.40625 -0.25,-0.4375 -0.5,0 z m 2.15625,0 -0.25,0.4375 0.25,0.40625 0.5,0 0.25,-0.40625 -0.25,-0.4375 -0.5,0 z m 2.21875,0 -0.25,0.4375 0.25,0.40625 0.5,0 0.25,-0.40625 -0.25,-0.4375 -0.5,0 z m 2.1875,0 -0.25,0.4375 0.25,0.40625 0.5,0 0.25,-0.40625 -0.25,-0.4375 -0.5,0 z m 2.21875,0 -0.25,0.4375 0.25,0.40625 0.5,0 0.25,-0.40625 -0.25,-0.4375 -0.5,0 z m 2.15625,0 -0.25,0.4375 0.25,0.40625 0.5,0 0.25,-0.40625 -0.25,-0.4375 -0.5,0 z m 2.21875,0 -0.25,0.4375 0.25,0.40625 0.5,0 0.25,-0.40625 -0.25,-0.4375 -0.5,0 z m 2.1875,0 -0.25,0.4375 0.25,0.40625 0.5,0 0.25,-0.40625 -0.25,-0.4375 -0.5,0 z m 2.21875,0 -0.25,0.4375 0.25,0.40625 0.5,0 0.25,-0.40625 -0.25,-0.4375 -0.5,0 z m 2.1875,0 -0.25,0.4375 0.25,0.40625 0.5,0 0.25,-0.40625 -0.25,-0.4375 -0.5,0 z m 2.21875,0 -0.25,0.4375 0.25,0.40625 0.0937,0 0,-0.84375 -0.0937,0 z m -35.90625,0.5 0,0.84375 0.0937,0 0.25,-0.40625 -0.25,-0.4375 -0.0937,0 z m 1.8125,0 -0.25,0.4375 0.25,0.40625 0.5,0 0.25,-0.40625 -0.25,-0.4375 -0.5,0 z m 2.15625,0 -0.25,0.4375 0.25,0.40625 0.5,0 0.25,-0.40625 -0.25,-0.4375 -0.5,0 z m 2.21875,0 -0.25,0.4375 0.25,0.40625 0.5,0 0.25,-0.40625 -0.25,-0.4375 -0.5,0 z m 2.1875,0 -0.25,0.4375 0.25,0.40625 0.5,0 0.25,-0.40625 -0.25,-0.4375 -0.5,0 z m 2.21875,0 -0.25,0.4375 0.25,0.40625 0.5,0 0.25,-0.40625 -0.25,-0.4375 -0.5,0 z m 2.1875,0 -0.25,0.4375 0.25,0.40625 0.5,0 0.25,-0.40625 -0.25,-0.4375 -0.5,0 z m 2.21875,0 -0.25,0.4375 0.25,0.40625 0.5,0 0.25,-0.40625 -0.25,-0.4375 -0.5,0 z m 2.1875,0 -0.25,0.4375 0.25,0.40625 0.5,0 0.25,-0.40625 -0.25,-0.4375 -0.5,0 z m 2.21875,0 -0.25,0.4375 0.25,0.40625 0.5,0 0.25,-0.40625 -0.25,-0.4375 -0.5,0 z m 2.15625,0 -0.25,0.4375 0.25,0.40625 0.5,0 0.25,-0.40625 -0.25,-0.4375 -0.5,0 z m 2.21875,0 -0.25,0.4375 0.25,0.40625 0.5,0 0.25,-0.40625 -0.25,-0.4375 -0.5,0 z m 2.1875,0 -0.25,0.4375 0.25,0.40625 0.5,0 0.25,-0.40625 -0.25,-0.4375 -0.5,0 z m 2.21875,0 -0.25,0.4375 0.25,0.40625 0.5,0 0.25,-0.40625 -0.25,-0.4375 -0.5,0 z m 2.1875,0 -0.25,0.4375 0.25,0.40625 0.5,0 0.25,-0.40625 -0.25,-0.4375 -0.5,0 z m 2.21875,0 -0.25,0.4375 0.25,0.40625 0.5,0 0.25,-0.40625 -0.25,-0.4375 -0.5,0 z m 2.15625,0 -0.25,0.4375 0.25,0.40625 0.5,0 0.25,-0.40625 -0.25,-0.4375 -0.5,0 z m -34.03125,0.65625 -0.25,0.4375 0.25,0.40625 0.5,0 0.25,-0.40625 -0.25,-0.4375 -0.5,0 z m 2.1875,0 -0.25,0.4375 0.25,0.40625 0.5,0 0.25,-0.40625 -0.25,-0.4375 -0.5,0 z m 2.21875,0 -0.25,0.4375 0.25,0.40625 0.5,0 0.25,-0.40625 -0.25,-0.4375 -0.5,0 z m 2.15625,0 -0.25,0.4375 0.25,0.40625 0.5,0 0.25,-0.40625 -0.25,-0.4375 -0.5,0 z m 2.21875,0 -0.25,0.4375 0.25,0.40625 0.5,0 0.25,-0.40625 -0.25,-0.4375 -0.5,0 z m 2.21875,0 -0.25,0.4375 0.25,0.40625 0.5,0 0.25,-0.40625 -0.25,-0.4375 -0.5,0 z m 2.21875,0 -0.25,0.4375 0.25,0.40625 0.5,0 0.25,-0.40625 -0.25,-0.4375 -0.5,0 z m 2.15625,0 -0.25,0.4375 0.25,0.40625 0.5,0 0.25,-0.40625 -0.25,-0.4375 -0.5,0 z m 2.21875,0 -0.25,0.4375 0.25,0.40625 0.5,0 0.25,-0.40625 -0.25,-0.4375 -0.5,0 z m 2.1875,0 -0.25,0.4375 0.25,0.40625 0.5,0 0.25,-0.40625 -0.25,-0.4375 -0.5,0 z m 2.21875,0 -0.25,0.4375 0.25,0.40625 0.5,0 0.25,-0.40625 -0.25,-0.4375 -0.5,0 z m 2.15625,0 -0.25,0.4375 0.25,0.40625 0.5,0 0.25,-0.40625 -0.25,-0.4375 -0.5,0 z m 2.21875,0 -0.25,0.4375 0.25,0.40625 0.5,0 0.25,-0.40625 -0.25,-0.4375 -0.5,0 z m 2.1875,0 -0.25,0.4375 0.25,0.40625 0.5,0 0.25,-0.40625 -0.25,-0.4375 -0.5,0 z m 2.21875,0 -0.25,0.4375 0.25,0.40625 0.5,0 0.25,-0.40625 -0.25,-0.4375 -0.5,0 z m 2.1875,0 -0.25,0.4375 0.25,0.40625 0.5,0 0.25,-0.40625 -0.25,-0.4375 -0.5,0 z m 2.21875,0 -0.25,0.4375 0.25,0.40625 0.0937,0 0,-0.84375 -0.0937,0 z m -35.90625,0.53125 0,0.84375 0.0937,0 0.25,-0.4375 -0.25,-0.40625 -0.0937,0 z m 1.8125,0 -0.25,0.40625 0.25,0.4375 0.5,0 0.25,-0.4375 -0.25,-0.40625 -0.5,0 z m 2.15625,0 -0.25,0.40625 0.25,0.4375 0.5,0 0.25,-0.4375 -0.25,-0.40625 -0.5,0 z m 2.21875,0 -0.25,0.40625 0.25,0.4375 0.5,0 0.25,-0.4375 -0.25,-0.40625 -0.5,0 z m 2.1875,0 -0.25,0.40625 0.25,0.4375 0.5,0 0.25,-0.4375 -0.25,-0.40625 -0.5,0 z m 2.21875,0 -0.25,0.40625 0.25,0.4375 0.5,0 0.25,-0.4375 -0.25,-0.40625 -0.5,0 z m 2.1875,0 -0.25,0.40625 0.25,0.4375 0.5,0 0.25,-0.4375 -0.25,-0.40625 -0.5,0 z m 2.21875,0 -0.25,0.40625 0.25,0.4375 0.5,0 0.25,-0.4375 -0.25,-0.40625 -0.5,0 z m 2.1875,0 -0.25,0.40625 0.25,0.4375 0.5,0 0.25,-0.4375 -0.25,-0.40625 -0.5,0 z m 2.21875,0 -0.25,0.40625 0.25,0.4375 0.5,0 0.25,-0.4375 -0.25,-0.40625 -0.5,0 z m 2.15625,0 -0.25,0.40625 0.25,0.4375 0.5,0 0.25,-0.4375 -0.25,-0.40625 -0.5,0 z m 2.21875,0 -0.25,0.40625 0.25,0.4375 0.5,0 0.25,-0.4375 -0.25,-0.40625 -0.5,0 z m 2.1875,0 -0.25,0.40625 0.25,0.4375 0.5,0 0.25,-0.4375 -0.25,-0.40625 -0.5,0 z m 2.21875,0 -0.25,0.40625 0.25,0.4375 0.5,0 0.25,-0.4375 -0.25,-0.40625 -0.5,0 z m 2.1875,0 -0.25,0.40625 0.25,0.4375 0.5,0 0.25,-0.4375 -0.25,-0.40625 -0.5,0 z m 2.21875,0 -0.25,0.40625 0.25,0.4375 0.5,0 0.25,-0.4375 -0.25,-0.40625 -0.5,0 z m 2.15625,0 -0.25,0.40625 0.25,0.4375 0.5,0 0.25,-0.4375 -0.25,-0.40625 -0.5,0 z m -34.03125,0.625 -0.25,0.4375 0.25,0.4375 0.5,0 0.25,-0.4375 -0.25,-0.4375 -0.5,0 z m 2.1875,0 -0.25,0.4375 0.25,0.4375 0.5,0 0.25,-0.4375 -0.25,-0.4375 -0.5,0 z m 2.21875,0 -0.25,0.4375 0.25,0.4375 0.5,0 0.25,-0.4375 -0.25,-0.4375 -0.5,0 z m 2.15625,0 -0.25,0.4375 0.25,0.4375 0.5,0 0.25,-0.4375 -0.25,-0.4375 -0.5,0 z m 2.21875,0 -0.25,0.4375 0.25,0.4375 0.5,0 0.25,-0.4375 -0.25,-0.4375 -0.5,0 z m 2.21875,0 -0.25,0.4375 0.25,0.4375 0.5,0 0.25,-0.4375 -0.25,-0.4375 -0.5,0 z m 2.21875,0 -0.25,0.4375 0.25,0.4375 0.5,0 0.25,-0.4375 -0.25,-0.4375 -0.5,0 z m 2.15625,0 -0.25,0.4375 0.25,0.4375 0.5,0 0.25,-0.4375 -0.25,-0.4375 -0.5,0 z m 2.21875,0 -0.25,0.4375 0.25,0.4375 0.5,0 0.25,-0.4375 -0.25,-0.4375 -0.5,0 z m 2.1875,0 -0.25,0.4375 0.25,0.4375 0.5,0 0.25,-0.4375 -0.25,-0.4375 -0.5,0 z m 2.21875,0 -0.25,0.4375 0.25,0.4375 0.5,0 0.25,-0.4375 -0.25,-0.4375 -0.5,0 z m 2.15625,0 -0.25,0.4375 0.25,0.4375 0.5,0 0.25,-0.4375 -0.25,-0.4375 -0.5,0 z m 2.21875,0 -0.25,0.4375 0.25,0.4375 0.5,0 0.25,-0.4375 -0.25,-0.4375 -0.5,0 z m 2.1875,0 -0.25,0.4375 0.25,0.4375 0.5,0 0.25,-0.4375 -0.25,-0.4375 -0.5,0 z m 2.21875,0 -0.25,0.4375 0.25,0.4375 0.5,0 0.25,-0.4375 -0.25,-0.4375 -0.5,0 z m 2.1875,0 -0.25,0.4375 0.25,0.4375 0.5,0 0.25,-0.4375 -0.25,-0.4375 -0.5,0 z m 2.21875,0 -0.25,0.4375 0.25,0.4375 0.0937,0 0,-0.875 -0.0937,0 z m -35.90625,0.5 0,0.875 0.0937,0 0.25,-0.4375 -0.25,-0.4375 -0.0937,0 z m 1.8125,0 -0.25,0.4375 0.25,0.4375 0.5,0 0.25,-0.4375 -0.25,-0.4375 -0.5,0 z m 2.15625,0 -0.25,0.4375 0.25,0.4375 0.5,0 0.25,-0.4375 -0.25,-0.4375 -0.5,0 z m 2.21875,0 -0.25,0.4375 0.25,0.4375 0.5,0 0.25,-0.4375 -0.25,-0.4375 -0.5,0 z m 2.1875,0 -0.25,0.4375 0.25,0.4375 0.5,0 0.25,-0.4375 -0.25,-0.4375 -0.5,0 z m 2.21875,0 -0.25,0.4375 0.25,0.4375 0.5,0 0.25,-0.4375 -0.25,-0.4375 -0.5,0 z m 2.1875,0 -0.25,0.4375 0.25,0.4375 0.5,0 0.25,-0.4375 -0.25,-0.4375 -0.5,0 z m 2.21875,0 -0.25,0.4375 0.25,0.4375 0.5,0 0.25,-0.4375 -0.25,-0.4375 -0.5,0 z m 2.1875,0 -0.25,0.4375 0.25,0.4375 0.5,0 0.25,-0.4375 -0.25,-0.4375 -0.5,0 z m 2.21875,0 -0.25,0.4375 0.25,0.4375 0.5,0 0.25,-0.4375 -0.25,-0.4375 -0.5,0 z m 2.15625,0 -0.25,0.4375 0.25,0.4375 0.5,0 0.25,-0.4375 -0.25,-0.4375 -0.5,0 z m 2.21875,0 -0.25,0.4375 0.25,0.4375 0.5,0 0.25,-0.4375 -0.25,-0.4375 -0.5,0 z m 2.1875,0 -0.25,0.4375 0.25,0.4375 0.5,0 0.25,-0.4375 -0.25,-0.4375 -0.5,0 z m 2.21875,0 -0.25,0.4375 0.25,0.4375 0.5,0 0.25,-0.4375 -0.25,-0.4375 -0.5,0 z m 2.1875,0 -0.25,0.4375 0.25,0.4375 0.5,0 0.25,-0.4375 -0.25,-0.4375 -0.5,0 z m 2.21875,0 -0.25,0.4375 0.25,0.4375 0.5,0 0.25,-0.4375 -0.25,-0.4375 -0.5,0 z m 2.15625,0 -0.25,0.4375 0.25,0.4375 0.5,0 0.25,-0.4375 -0.25,-0.4375 -0.5,0 z m -34.03125,0.71875 -0.25,0.4375 0.25,0.4375 0.5,0 0.25,-0.4375 -0.25,-0.4375 -0.5,0 z m 2.1875,0 -0.25,0.4375 0.25,0.4375 0.5,0 0.25,-0.4375 -0.25,-0.4375 -0.5,0 z m 2.21875,0 -0.25,0.4375 0.25,0.4375 0.5,0 0.25,-0.4375 -0.25,-0.4375 -0.5,0 z m 2.15625,0 -0.25,0.4375 0.25,0.4375 0.5,0 0.25,-0.4375 -0.25,-0.4375 -0.5,0 z m 2.21875,0 -0.25,0.4375 0.25,0.4375 0.5,0 0.25,-0.4375 -0.25,-0.4375 -0.5,0 z m 2.21875,0 -0.25,0.4375 0.25,0.4375 0.5,0 0.25,-0.4375 -0.25,-0.4375 -0.5,0 z m 2.21875,0 -0.25,0.4375 0.25,0.4375 0.5,0 0.25,-0.4375 -0.25,-0.4375 -0.5,0 z m 2.15625,0 -0.25,0.4375 0.25,0.4375 0.5,0 0.25,-0.4375 -0.25,-0.4375 -0.5,0 z m 2.21875,0 -0.25,0.4375 0.25,0.4375 0.5,0 0.25,-0.4375 -0.25,-0.4375 -0.5,0 z m 2.1875,0 -0.25,0.4375 0.25,0.4375 0.5,0 0.25,-0.4375 -0.25,-0.4375 -0.5,0 z m 2.21875,0 -0.25,0.4375 0.25,0.4375 0.5,0 0.25,-0.4375 -0.25,-0.4375 -0.5,0 z m 2.15625,0 -0.25,0.4375 0.25,0.4375 0.5,0 0.25,-0.4375 -0.25,-0.4375 -0.5,0 z m 2.21875,0 -0.25,0.4375 0.25,0.4375 0.5,0 0.25,-0.4375 -0.25,-0.4375 -0.5,0 z m 2.1875,0 -0.25,0.4375 0.25,0.4375 0.5,0 0.25,-0.4375 -0.25,-0.4375 -0.5,0 z m 2.21875,0 -0.25,0.4375 0.25,0.4375 0.5,0 0.25,-0.4375 -0.25,-0.4375 -0.5,0 z m 2.1875,0 -0.25,0.4375 0.25,0.4375 0.5,0 0.25,-0.4375 -0.25,-0.4375 -0.5,0 z m 2.21875,0 -0.25,0.4375 0.25,0.4375 0.0937,0 0,-0.875 -0.0937,0 z m -35.90625,0.5 0,0.84375 0.0937,0 0.25,-0.40625 -0.25,-0.4375 -0.0937,0 z m 1.8125,0 -0.25,0.4375 0.25,0.40625 0.5,0 0.25,-0.40625 -0.25,-0.4375 -0.5,0 z m 2.15625,0 -0.25,0.4375 0.25,0.40625 0.5,0 0.25,-0.40625 -0.25,-0.4375 -0.5,0 z m 2.21875,0 -0.25,0.4375 0.25,0.40625 0.5,0 0.25,-0.40625 -0.25,-0.4375 -0.5,0 z m 2.1875,0 -0.25,0.4375 0.25,0.40625 0.5,0 0.25,-0.40625 -0.25,-0.4375 -0.5,0 z m 2.21875,0 -0.25,0.4375 0.25,0.40625 0.5,0 0.25,-0.40625 -0.25,-0.4375 -0.5,0 z m 2.1875,0 -0.25,0.4375 0.25,0.40625 0.5,0 0.25,-0.40625 -0.25,-0.4375 -0.5,0 z m 2.21875,0 -0.25,0.4375 0.25,0.40625 0.5,0 0.25,-0.40625 -0.25,-0.4375 -0.5,0 z m 2.1875,0 -0.25,0.4375 0.25,0.40625 0.5,0 0.25,-0.40625 -0.25,-0.4375 -0.5,0 z m 2.21875,0 -0.25,0.4375 0.25,0.40625 0.5,0 0.25,-0.40625 -0.25,-0.4375 -0.5,0 z m 2.15625,0 -0.25,0.4375 0.25,0.40625 0.5,0 0.25,-0.40625 -0.25,-0.4375 -0.5,0 z m 2.21875,0 -0.25,0.4375 0.25,0.40625 0.5,0 0.25,-0.40625 -0.25,-0.4375 -0.5,0 z m 2.1875,0 -0.25,0.4375 0.25,0.40625 0.5,0 0.25,-0.40625 -0.25,-0.4375 -0.5,0 z m 2.21875,0 -0.25,0.4375 0.25,0.40625 0.5,0 0.25,-0.40625 -0.25,-0.4375 -0.5,0 z m 2.1875,0 -0.25,0.4375 0.25,0.40625 0.5,0 0.25,-0.40625 -0.25,-0.4375 -0.5,0 z m 2.21875,0 -0.25,0.4375 0.25,0.40625 0.5,0 0.25,-0.40625 -0.25,-0.4375 -0.5,0 z m 2.15625,0 -0.25,0.4375 0.25,0.40625 0.5,0 0.25,-0.40625 -0.25,-0.4375 -0.5,0 z m -34.03125,0.6875 -0.17773,0.3125 0.85546,0 -0.17773,-0.3125 -0.5,0 z m 2.1875,0 -0.17773,0.3125 0.85546,0 -0.17773,-0.3125 -0.5,0 z m 2.21875,0 -0.17773,0.3125 0.85546,0 -0.17773,-0.3125 -0.5,0 z m 2.15625,0 -0.17773,0.3125 0.85546,0 -0.17773,-0.3125 -0.5,0 z m 2.21875,0 -0.17773,0.3125 0.85546,0 -0.17773,-0.3125 -0.5,0 z m 2.21875,0 -0.17773,0.3125 0.85546,0 -0.17773,-0.3125 -0.5,0 z m 2.21875,0 -0.17773,0.3125 0.85546,0 -0.17773,-0.3125 -0.5,0 z m 2.15625,0 -0.17773,0.3125 0.85546,0 -0.17773,-0.3125 -0.5,0 z m 2.21875,0 -0.17773,0.3125 0.85546,0 -0.17773,-0.3125 -0.5,0 z m 2.1875,0 -0.17773,0.3125 0.85546,0 -0.17773,-0.3125 -0.5,0 z m 2.21875,0 -0.17773,0.3125 0.85546,0 -0.17773,-0.3125 -0.5,0 z m 2.15625,0 -0.17773,0.3125 0.85546,0 -0.17773,-0.3125 -0.5,0 z m 2.21875,0 -0.17773,0.3125 0.85546,0 -0.17773,-0.3125 -0.5,0 z m 2.1875,0 -0.17773,0.3125 0.85546,0 -0.17773,-0.3125 -0.5,0 z m 2.21875,0 -0.17773,0.3125 0.85546,0 -0.17773,-0.3125 -0.5,0 z m 2.1875,0 -0.17773,0.3125 0.85546,0 -0.17773,-0.3125 -0.5,0 z m 2.21875,0 -0.17773,0.3125 0.27148,0 0,-0.3125 -0.0937,0 z"
       style="color:#000000;display:inline;overflow:visible;visibility:visible;fill:#000000;fill-opacity:0.31073447;fill-rule:nonzero;stroke:none;stroke-width:0.2;marker:none;enable-background:accumulate"
       inkscape:connector-curvature="0" />
    <path
       style="opacity:1;fill:url(#linearGradient4489);fill-opacity:1;stroke:none"
       d="M 6 4 L 6 12 L 6 13 L 6 20 L 6 28 L 6 29 L 6 35 L 6 36 L 6 44 L 42 44 L 42 36 L 42 35 L 42 28 L 42 20 L 42 19 L 42 13 L 42 12 L 42 4 L 6 4 z M 7 13 L 41 13 L 41 19 L 7 19 L 7 13 z M 7 29 L 41 29 L 41 35 L 7 35 L 7 29 z "
       transform="translate(384.57143,499.798)"
       id="rect4396" />
    <rect
       y="512.79822"
       x="391.57144"
       height="1"
       width="34"
       id="rect4770"
       style="opacity:1;fill:#000000;fill-opacity:0.47058824;stroke:none" />
    <rect
       style="opacity:1;fill:url(#linearGradient4891);fill-opacity:1;stroke:none"
       id="rect4491"
       width="3"
       height="1"
       x="393.57144"
       y="506.798" />
    <rect
       style="opacity:1;fill:#000000;fill-opacity:0.47058824;stroke:none"
       id="rect4764"
       width="34"
       height="1"
       x="391.57144"
       y="528.79822" />
    <path
       style="fill:url(#linearGradient4860);fill-rule:evenodd;stroke:none;stroke-width:1px;stroke-linecap:butt;stroke-linejoin:miter;stroke-opacity:1;fill-opacity:1;opacity:0.4"
       d="M 7 19 L 16 28 L 17 29 L 41 29 L 41 35 L 23 35 L 32 44 L 42 44 L 42 29 L 42 21 L 42 20.732422 L 41 19 L 40.845703 19 L 7 19 z "
       transform="translate(384.57143,499.798)"
       id="path4783" />
    <rect
       y="523.29797"
       x="393.57144"
       height="1"
       width="3"
       id="rect4893"
       style="opacity:1;fill:url(#linearGradient4895);fill-opacity:1;stroke:none" />
    <rect
       style="opacity:1;fill:url(#linearGradient4899);fill-opacity:1;stroke:none"
       id="rect4897"
       width="3"
       height="1"
       x="393.57144"
       y="539.29797" />
    <rect
       style="opacity:1;fill:#080809;fill-opacity:1;stroke:none"
       id="rect4167-9-8"
       width="35.999989"
       height="1"
       x="390.57144"
       y="542.79797" />
  </g>
</svg>
