<?xml version="1.0" encoding="UTF-8" standalone="no"?>
<!-- Created with Inkscape (http://www.inkscape.org/) -->

<svg
   xmlns:dc="http://purl.org/dc/elements/1.1/"
   xmlns:cc="http://creativecommons.org/ns#"
   xmlns:rdf="http://www.w3.org/1999/02/22-rdf-syntax-ns#"
   xmlns:svg="http://www.w3.org/2000/svg"
   xmlns="http://www.w3.org/2000/svg"
   xmlns:sodipodi="http://sodipodi.sourceforge.net/DTD/sodipodi-0.dtd"
   xmlns:inkscape="http://www.inkscape.org/namespaces/inkscape"
   width="16"
   height="16"
   id="svg2"
   version="1.1"
   inkscape:version="0.91 r13725"
   viewBox="0 0 16 16"
   sodipodi:docname="media-optical-mixed-cd.svg">
  <defs
     id="defs4" />
  <sodipodi:namedview
     id="base"
     pagecolor="#ffffff"
     bordercolor="#666666"
     borderopacity="1.0"
     inkscape:pageopacity="0.0"
     inkscape:pageshadow="2"
     inkscape:zoom="11.313708"
     inkscape:cx="2.1391645"
     inkscape:cy="5.2457386"
     inkscape:document-units="px"
     inkscape:current-layer="layer1"
     showgrid="true"
     inkscape:showpageshadow="false"
     borderlayer="true"
     units="px"
     inkscape:window-width="1366"
     inkscape:window-height="709"
     inkscape:window-x="-4"
     inkscape:window-y="0"
     inkscape:window-maximized="1"
     inkscape:snap-bbox="true"
     inkscape:object-nodes="true">
    <inkscape:grid
       type="xygrid"
       id="grid4062" />
    <sodipodi:guide
       position="2,14.000017"
       orientation="12,0"
       id="guide4066" />
    <sodipodi:guide
       position="2,2.0000174"
       orientation="0,12"
       id="guide4068" />
    <sodipodi:guide
       position="14,2.0000174"
       orientation="-12,0"
       id="guide4070" />
    <sodipodi:guide
       position="14,14.000017"
       orientation="0,-12"
       id="guide4072" />
  </sodipodi:namedview>
  <metadata
     id="metadata7">
    <rdf:RDF>
      <cc:Work
         rdf:about="">
        <dc:format>image/svg+xml</dc:format>
        <dc:type
           rdf:resource="http://purl.org/dc/dcmitype/StillImage" />
        <dc:title></dc:title>
      </cc:Work>
    </rdf:RDF>
  </metadata>
  <g
     inkscape:label="Capa 1"
     inkscape:groupmode="layer"
     id="layer1"
     transform="translate(0,-1036.3622)">
    <path
       style="opacity:1;fill:#4d4d4d;fill-opacity:1;stroke:none"
       d="M 8 2 C 4.6862915 2 2 4.6863 2 8 L 3 8 C 3 5.2386 5.2385763 3 8 3 C 10.761424 3 13 5.2386 13 8 L 14 8 C 14 4.6863 11.313708 2 8 2 z M 8 6 C 6.8954305 6 6 6.8954 6 8 L 7 8 C 7 7.4477 7.4477153 7 8 7 C 8.5522847 7 9 7.4477 9 8 L 10 8 C 10 6.8954 9.1045695 6 8 6 z "
       transform="translate(0,1036.3622)"
       id="path3784" />
    <path
       inkscape:connector-curvature="0"
       style="fill:#4d4d4d;fill-opacity:1;stroke:none"
       d="m 3,1045.3622 0,5 2,0 1,-1 1,-1 0,-3 -4,0 z m 1,1 2,0 0,2 -1,0 0,1 -1,0 0,-3 z"
       id="rect3763" />
    <path
       style="opacity:1;fill:#4d4d4d;fill-opacity:1;stroke:none"
       d="m 11,1044.3622 0,3.0938 c -0.154319,-0.054 -0.327411,-0.094 -0.5,-0.094 -0.828427,0 -1.5,0.6716 -1.5,1.5 0,0.8284 0.671573,1.5 1.5,1.5 0.828427,0 1.5,-0.6716 1.5,-1.5 l 0,-3.5 1,0 -1,-1 -1,0 z"
       id="path3784-9"
       inkscape:connector-curvature="0" />
  </g>
</svg>
