<?xml version="1.0" encoding="UTF-8" standalone="no"?>
<!-- Created with Inkscape (http://www.inkscape.org/) -->

<svg
   xmlns:dc="http://purl.org/dc/elements/1.1/"
   xmlns:cc="http://creativecommons.org/ns#"
   xmlns:rdf="http://www.w3.org/1999/02/22-rdf-syntax-ns#"
   xmlns:svg="http://www.w3.org/2000/svg"
   xmlns="http://www.w3.org/2000/svg"
   xmlns:sodipodi="http://sodipodi.sourceforge.net/DTD/sodipodi-0.dtd"
   xmlns:inkscape="http://www.inkscape.org/namespaces/inkscape"
   width="24"
   height="24"
   id="svg3760"
   version="1.1"
   inkscape:version="0.48.4 r9939"
   sodipodi:docname="lc_diagramdata.svg">
  <defs
     id="defs3762" />
  <sodipodi:namedview
     id="base"
     pagecolor="#ffffff"
     bordercolor="#666666"
     borderopacity="1.0"
     inkscape:pageopacity="0.0"
     inkscape:pageshadow="2"
     inkscape:zoom="17.287101"
     inkscape:cx="5.2783426"
     inkscape:cy="21.666176"
     inkscape:document-units="px"
     inkscape:current-layer="layer1"
     showgrid="true"
     fit-margin-top="0"
     fit-margin-left="0"
     fit-margin-right="0"
     fit-margin-bottom="0"
     inkscape:window-width="1868"
     inkscape:window-height="1060"
     inkscape:window-x="50"
     inkscape:window-y="-3"
     inkscape:window-maximized="1"
     inkscape:showpageshadow="false"
     showguides="true"
     inkscape:snap-bbox="true">
    <sodipodi:guide
       position="1,23"
       orientation="22,0"
       id="guide4116" />
    <sodipodi:guide
       position="1,1"
       orientation="0,22"
       id="guide4118" />
    <sodipodi:guide
       position="23,1"
       orientation="-22,0"
       id="guide4120" />
    <sodipodi:guide
       position="23,23"
       orientation="0,-22"
       id="guide4122" />
    <sodipodi:guide
       position="3,21"
       orientation="18,0"
       id="guide4124" />
    <sodipodi:guide
       position="21,3"
       orientation="-18,0"
       id="guide4128" />
    <sodipodi:guide
       position="21,21"
       orientation="0,-18"
       id="guide4130" />
    <sodipodi:guide
       position="4,20"
       orientation="16,0"
       id="guide4132" />
    <sodipodi:guide
       position="4,4"
       orientation="0,16"
       id="guide4134" />
    <sodipodi:guide
       position="20,4"
       orientation="-16,0"
       id="guide4136" />
    <sodipodi:guide
       position="20,20"
       orientation="0,-16"
       id="guide4138" />
    <inkscape:grid
       type="xygrid"
       id="grid4140"
       originx="0.99999582px"
       originy="1.0000027px" />
  </sodipodi:namedview>
  <metadata
     id="metadata3765">
    <rdf:RDF>
      <cc:Work
         rdf:about="">
        <dc:format>image/svg+xml</dc:format>
        <dc:type
           rdf:resource="http://purl.org/dc/dcmitype/StillImage" />
        <dc:title />
      </cc:Work>
    </rdf:RDF>
  </metadata>
  <g
     inkscape:label="Capa 1"
     inkscape:groupmode="layer"
     id="layer1"
     transform="translate(-552.72253,-582.11926)">
    <path
       style="opacity:1;fill:#4d4d4d;fill-opacity:1;stroke:none"
       d="M 4 4 L 4 5 L 4 20 L 5 20 L 9 20 L 19 20 L 20 20 L 20 19 L 20 17 L 20 5 L 20 4 L 4 4 z M 5 5 L 9 5 L 10 5 L 14 5 L 15 5 L 19 5 L 19 7 L 19 8 L 19 10 L 19 11 L 19 13 L 19 14 L 19 16 L 19 17 L 19 18 L 19 19 L 15 19 L 14 19 L 10 19 L 9 19 L 5 19 L 5 17 L 5 16 L 5 14 L 5 13 L 5 11 L 5 10 L 5 8 L 5 7 L 5 5 z "
       transform="translate(552.72253,582.11926)"
       id="rect4108-9" />
    <path
       inkscape:connector-curvature="0"
       style="fill:#4d4d4d;fill-opacity:1;stroke:none"
       d="m 564.72253,588.11926 a 5.9999979,2.0000005 0 0 0 -6,2 l 0,8 a 5.9999979,2.0000005 0 0 0 6,2 5.9999979,2.0000005 0 0 0 6,-2 l 0,-8 a 5.9999979,2.0000005 0 0 0 -6,-2 z m 0,1 a 4.9999983,1.0000002 0 0 1 5,1 4.9999983,1.0000002 0 0 1 -5,1 4.9999983,1.0000002 0 0 1 -5,-1 4.9999983,1.0000002 0 0 1 5,-1 z m -5,2.10156 a 5.9999979,2.0000005 0 0 0 5,0.89844 5.9999979,2.0000005 0 0 0 5,-0.89648 l 0,2.89648 a 4.9999983,1.0000002 0 0 1 -5,1 4.9999983,1.0000002 0 0 1 -5,-1 l 0,-2.89844 z m 0,4 a 5.9999979,2.0000005 0 0 0 5,0.89844 5.9999979,2.0000005 0 0 0 5,-0.89648 l 0,2.89648 a 4.9999983,1.0000002 0 0 1 -5,1 4.9999983,1.0000002 0 0 1 -5,-1 l 0,-2.89844 z"
       id="path4140" />
  </g>
</svg>
