<?xml version="1.0" encoding="UTF-8" standalone="no"?>
<!-- Created with Inkscape (http://www.inkscape.org/) -->

<svg
   xmlns:dc="http://purl.org/dc/elements/1.1/"
   xmlns:cc="http://creativecommons.org/ns#"
   xmlns:rdf="http://www.w3.org/1999/02/22-rdf-syntax-ns#"
   xmlns:svg="http://www.w3.org/2000/svg"
   xmlns="http://www.w3.org/2000/svg"
   xmlns:sodipodi="http://sodipodi.sourceforge.net/DTD/sodipodi-0.dtd"
   xmlns:inkscape="http://www.inkscape.org/namespaces/inkscape"
   width="24"
   height="24"
   id="svg2"
   version="1.1"
   inkscape:version="0.48.4 r9939"
   viewBox="0 0 24 24"
   sodipodi:docname="lc_dbreportedit.svg">
  <defs
     id="defs4" />
  <sodipodi:namedview
     id="base"
     pagecolor="#ffffff"
     bordercolor="#666666"
     borderopacity="1.0"
     inkscape:pageopacity="0.0"
     inkscape:pageshadow="2"
     inkscape:zoom="25.15656"
     inkscape:cx="14.254644"
     inkscape:cy="10.18419"
     inkscape:document-units="px"
     inkscape:current-layer="layer1"
     showgrid="true"
     inkscape:showpageshadow="false"
     units="px"
     inkscape:window-width="1885"
     inkscape:window-height="1060"
     inkscape:window-x="-2"
     inkscape:window-y="-3"
     inkscape:window-maximized="1"
     showguides="true"
     fit-margin-top="0"
     fit-margin-left="0"
     fit-margin-right="0"
     fit-margin-bottom="0"
     inkscape:snap-bbox="true">
    <inkscape:grid
       type="xygrid"
       id="grid4120"
       originx="1px"
       originy="0.99998262px" />
    <sodipodi:guide
       position="3,21"
       orientation="18,0"
       id="guide4126" />
    <sodipodi:guide
       position="21,3"
       orientation="-18,0"
       id="guide4130" />
    <sodipodi:guide
       position="21,21"
       orientation="0,-18"
       id="guide4132" />
    <sodipodi:guide
       position="4,20"
       orientation="16,0"
       id="guide4134" />
    <sodipodi:guide
       position="4,4"
       orientation="0,16"
       id="guide4136" />
    <sodipodi:guide
       position="20,4"
       orientation="-16,0"
       id="guide4138" />
    <sodipodi:guide
       position="20,20"
       orientation="0,-16"
       id="guide4140" />
    <sodipodi:guide
       position="20,14"
       orientation="-6,0"
       id="guide4199" />
    <sodipodi:guide
       position="20,20"
       orientation="0,-6.0000172"
       id="guide4201" />
  </sodipodi:namedview>
  <metadata
     id="metadata7">
    <rdf:RDF>
      <cc:Work
         rdf:about="">
        <dc:format>image/svg+xml</dc:format>
        <dc:type
           rdf:resource="http://purl.org/dc/dcmitype/StillImage" />
        <dc:title />
      </cc:Work>
    </rdf:RDF>
  </metadata>
  <g
     inkscape:label="Capa 1"
     inkscape:groupmode="layer"
     id="layer1"
     transform="translate(1,-1029.3622)">
    <path
       style="fill:#4d4d4d;fill-opacity:1;stroke:none"
       d="M 5 4 L 5 20 L 6 20 L 9 20 L 9 19 L 6 19 L 6 5 L 9 5 L 18 5 L 18 7 L 18 14 L 18 15 L 18 17 L 19 17 L 19 16 L 19 15 L 19 14.59375 L 19 7 L 19 5 L 19 4 L 9 4 L 6 4 L 5 4 z M 7 7 L 7 11 L 11 11 L 11 7 L 7 7 z M 12 7 L 12 8 L 17 8 L 17 7 L 12 7 z M 8 8 L 10 8 L 10 10 L 8 10 L 8 8 z M 12 10 L 12 11 L 17 11 L 17 10 L 12 10 z M 7 13 L 7 14 L 17 14 L 17 13 L 7 13 z M 7 16 L 7 17 L 17 17 L 17 16 L 7 16 z M 11 18 C 10.447715 18 10 18.4477 10 19 C 10 19.5523 10.447715 20 11 20 C 11.552285 20 12 19.5523 12 19 C 12 18.4477 11.552285 18 11 18 z M 15 18 C 14.447715 18 14 18.4477 14 19 C 14 19.5523 14.447715 20 15 20 C 15.552285 20 16 19.5523 16 19 C 16 18.4477 15.552285 18 15 18 z M 19 18 C 18.447715 18 18 18.4477 18 19 C 18 19.5523 18.447715 20 19 20 C 19.552285 20 20 19.5523 20 19 C 20 18.4477 19.552285 18 19 18 z "
       transform="translate(-1,1029.3622)"
       id="rect4108-9" />
  </g>
</svg>
