<?xml version="1.0" encoding="UTF-8" standalone="no"?>
<!-- Created with Inkscape (http://www.inkscape.org/) -->

<svg
   xmlns:dc="http://purl.org/dc/elements/1.1/"
   xmlns:cc="http://creativecommons.org/ns#"
   xmlns:rdf="http://www.w3.org/1999/02/22-rdf-syntax-ns#"
   xmlns:svg="http://www.w3.org/2000/svg"
   xmlns="http://www.w3.org/2000/svg"
   xmlns:sodipodi="http://sodipodi.sourceforge.net/DTD/sodipodi-0.dtd"
   xmlns:inkscape="http://www.inkscape.org/namespaces/inkscape"
   width="24"
   height="24"
   id="svg2"
   version="1.1"
   inkscape:version="0.48.4 r9939"
   viewBox="0 0 24 24"
   sodipodi:docname="lc_formattedfield.svg">
  <defs
     id="defs4" />
  <sodipodi:namedview
     id="base"
     pagecolor="#ffffff"
     bordercolor="#666666"
     borderopacity="1.0"
     inkscape:pageopacity="0.0"
     inkscape:pageshadow="2"
     inkscape:zoom="25.15656"
     inkscape:cx="15.803585"
     inkscape:cy="18.555682"
     inkscape:document-units="px"
     inkscape:current-layer="layer1"
     showgrid="true"
     inkscape:showpageshadow="false"
     units="px"
     inkscape:window-width="1868"
     inkscape:window-height="1060"
     inkscape:window-x="50"
     inkscape:window-y="-3"
     inkscape:window-maximized="1"
     showguides="true"
     fit-margin-top="0"
     fit-margin-left="0"
     fit-margin-right="0"
     fit-margin-bottom="0"
     inkscape:snap-bbox="true"
     inkscape:snap-global="false">
    <inkscape:grid
       type="xygrid"
       id="grid4120"
       originx="1px"
       originy="0.99998262px" />
    <sodipodi:guide
       position="3,21"
       orientation="18,0"
       id="guide4126" />
    <sodipodi:guide
       position="3,3"
       orientation="0,18"
       id="guide4128" />
    <sodipodi:guide
       position="21,21"
       orientation="0,-18"
       id="guide4132" />
    <sodipodi:guide
       position="4,20"
       orientation="16,0"
       id="guide4134" />
    <sodipodi:guide
       position="4,4"
       orientation="0,16"
       id="guide4136" />
    <sodipodi:guide
       position="20,4"
       orientation="-16,0"
       id="guide4138" />
    <sodipodi:guide
       position="20,20"
       orientation="0,-16"
       id="guide4140" />
    <sodipodi:guide
       position="20,14"
       orientation="-6,0"
       id="guide4199" />
    <sodipodi:guide
       position="20,20"
       orientation="0,-6.0000172"
       id="guide4201" />
  </sodipodi:namedview>
  <metadata
     id="metadata7">
    <rdf:RDF>
      <cc:Work
         rdf:about="">
        <dc:format>image/svg+xml</dc:format>
        <dc:type
           rdf:resource="http://purl.org/dc/dcmitype/StillImage" />
        <dc:title />
      </cc:Work>
    </rdf:RDF>
  </metadata>
  <g
     inkscape:label="Capa 1"
     inkscape:groupmode="layer"
     id="layer1"
     transform="translate(1,-1029.3622)">
    <path
       style="fill:#4d4d4d;fill-opacity:1;stroke:none"
       d="M 5 4 L 5 18 L 4 18 L 4 19 L 5 19 L 5 20 L 6 20 L 6 19 L 18 19 L 18 20 L 19 20 L 19 19 L 20 19 L 20 18 L 19 18 L 19 4 L 18 4 L 18 18 L 17 18 L 7 18 L 6 18 L 6 4 L 5 4 z "
       transform="translate(-1,1029.3622)"
       id="rect4112" />
    <path
       inkscape:connector-curvature="0"
       id="path3775"
       style="font-size:13.49886227px;font-style:normal;font-variant:normal;font-weight:normal;font-stretch:normal;line-height:125%;letter-spacing:0px;word-spacing:0px;fill:#4d4d4d;fill-opacity:1;stroke:none;font-family:Oxygen;-inkscape-font-specification:Oxygen"
       d="m 7.8022633,1042.6961 c 1.1722148,0.4909 1.8581122,0.6539 3.1977367,0.6661 1.092701,0.01 1.991527,-0.083 2.01141,-0.8211 -0.01817,-0.4044 -0.66144,-0.8021 -2.01141,-1.1789 -2.4204543,-0.601 -3.9887638,-1.4277 -3.9847761,-3.3127 -8e-7,-0.9086 0.3679025,-1.5826 1.1037108,-2.0219 0.7358047,-0.4436 1.7532477,-0.6654 3.0523313,-0.6654 0.679982,0 1.316835,0.063 1.910562,0.1873 0.593712,0.125 1.526694,0.4614 1.92759,0.6725 l -0.879097,1.9084 c -1.519212,-0.7438 -2.479659,-0.7647 -3.130321,-0.7682 -1.3699094,10e-5 -1.9990125,0.2868 -2.001921,0.7882 0.00657,0.7667 0.839248,0.9311 2.001921,1.2118 2.85219,0.9288 4.001931,1.2347 4,3.0607 -8e-6,0.9734 -0.352688,1.7076 -1.058039,2.2029 -0.700292,0.4909 -1.734228,0.7364 -2.941961,0.7364 -0.90327,0 -1.6276589,-0.077 -2.3330157,-0.2326 -0.7002873,-0.1593 -1.255948,-0.3466 -1.666984,-0.5619"
       sodipodi:nodetypes="csccccsccccccccscc" />
    <rect
       style="color:#000000;fill:#4d4d4d;fill-opacity:1;fill-rule:evenodd;stroke:none;stroke-width:0.2;marker:none;visibility:visible;display:inline;overflow:visible;enable-background:accumulate"
       id="rect3772"
       width="1"
       height="12"
       x="10.5"
       y="1034.3622" />
  </g>
</svg>
