<?xml version="1.0" encoding="UTF-8" standalone="no"?>
<!-- Created with Inkscape (http://www.inkscape.org/) -->

<svg
   xmlns:dc="http://purl.org/dc/elements/1.1/"
   xmlns:cc="http://creativecommons.org/ns#"
   xmlns:rdf="http://www.w3.org/1999/02/22-rdf-syntax-ns#"
   xmlns:svg="http://www.w3.org/2000/svg"
   xmlns="http://www.w3.org/2000/svg"
   xmlns:sodipodi="http://sodipodi.sourceforge.net/DTD/sodipodi-0.dtd"
   xmlns:inkscape="http://www.inkscape.org/namespaces/inkscape"
   width="24"
   height="24"
   id="svg3760"
   version="1.1"
   inkscape:version="0.48.4 r9939"
   sodipodi:docname="lc_grafmode.svg">
  <defs
     id="defs3762" />
  <sodipodi:namedview
     id="base"
     pagecolor="#ffffff"
     bordercolor="#666666"
     borderopacity="1.0"
     inkscape:pageopacity="0.0"
     inkscape:pageshadow="2"
     inkscape:zoom="23.519933"
     inkscape:cx="15.33729"
     inkscape:cy="7.7317494"
     inkscape:document-units="px"
     inkscape:current-layer="layer1"
     showgrid="true"
     fit-margin-top="0"
     fit-margin-left="0"
     fit-margin-right="0"
     fit-margin-bottom="0"
     inkscape:window-width="1868"
     inkscape:window-height="1060"
     inkscape:window-x="50"
     inkscape:window-y="-3"
     inkscape:window-maximized="1"
     inkscape:showpageshadow="false"
     inkscape:snap-bbox="true">
    <sodipodi:guide
       position="1,22.999996"
       orientation="22,0"
       id="guide4116" />
    <sodipodi:guide
       position="1,0.99999619"
       orientation="0,22"
       id="guide4118" />
    <sodipodi:guide
       position="23,0.99999619"
       orientation="-22,0"
       id="guide4120" />
    <sodipodi:guide
       position="23,22.999996"
       orientation="0,-22"
       id="guide4122" />
    <sodipodi:guide
       position="3,20.999996"
       orientation="18,0"
       id="guide4124" />
    <sodipodi:guide
       position="21,2.9999962"
       orientation="-18,0"
       id="guide4128" />
    <sodipodi:guide
       position="21,20.999996"
       orientation="0,-18"
       id="guide4130" />
    <sodipodi:guide
       position="4,19.999996"
       orientation="16,0"
       id="guide4132" />
    <sodipodi:guide
       position="4,3.9999962"
       orientation="0,16"
       id="guide4134" />
    <sodipodi:guide
       position="20,3.9999962"
       orientation="-16,0"
       id="guide4136" />
    <sodipodi:guide
       position="20,19.999996"
       orientation="0,-16"
       id="guide4138" />
    <inkscape:grid
       type="xygrid"
       id="grid4140"
       originx="0.99999582px"
       originy="0.99999888px" />
  </sodipodi:namedview>
  <metadata
     id="metadata3765">
    <rdf:RDF>
      <cc:Work
         rdf:about="">
        <dc:format>image/svg+xml</dc:format>
        <dc:type
           rdf:resource="http://purl.org/dc/dcmitype/StillImage" />
        <dc:title />
      </cc:Work>
    </rdf:RDF>
  </metadata>
  <g
     inkscape:label="Capa 1"
     inkscape:groupmode="layer"
     id="layer1"
     transform="translate(-552.72253,-582.11926)">
    <path
       style="fill:#4d4d4d;fill-opacity:1;stroke:none"
       d="M 4 4 L 4 5 L 4 20 L 5 20 L 9 20 L 9 17 L 13 17 L 17 17 L 18 17 L 19 17 L 20 17 L 20 13 L 20 5 L 20 4 L 5 4 L 4 4 z M 5 5 L 19 5 L 19 13 L 19 15 L 17 13 L 15 11 L 11 15 L 10 14 L 5.15625 18.84375 L 5 19 L 5 5 z M 8 6 C 6.892 6 6 6.892 6 8 C 6 9.108 6.892 10 8 10 C 9.108 10 10 9.108 10 8 C 10 6.892 9.108 6 8 6 z "
       transform="translate(552.72253,582.11926)"
       id="rect4112" />
    <path
       sodipodi:type="arc"
       style="color:#000000;fill:#4d4d4d;fill-opacity:1;fill-rule:nonzero;stroke:none;stroke-width:2;marker:none;visibility:visible;display:inline;overflow:visible;enable-background:accumulate"
       id="path2995"
       sodipodi:cx="18.999998"
       sodipodi:cy="19.000002"
       sodipodi:rx="1.0000021"
       sodipodi:ry="1"
       d="m 20,19.000002 c 0,0.552285 -0.447716,1 -1.000002,1 -0.552286,0 -1.000002,-0.447715 -1.000002,-1 0,-0.552285 0.447716,-1 1.000002,-1 0.552286,0 1.000002,0.447715 1.000002,1 z"
       transform="translate(552.72253,582.11926)" />
    <path
       sodipodi:type="arc"
       style="color:#000000;fill:#4d4d4d;fill-opacity:1;fill-rule:nonzero;stroke:none;stroke-width:2;marker:none;visibility:visible;display:inline;overflow:visible;enable-background:accumulate"
       id="path2997"
       sodipodi:cx="15.999996"
       sodipodi:cy="19.000002"
       sodipodi:rx="1"
       sodipodi:ry="1.0000013"
       d="m 16.999996,19.000002 c 0,0.552285 -0.447715,1.000001 -1,1.000001 -0.552285,0 -1,-0.447716 -1,-1.000001 0,-0.552286 0.447715,-1.000001 1,-1.000001 0.552285,0 1,0.447715 1,1.000001 z"
       transform="translate(551.72253,582.11926)" />
    <path
       sodipodi:type="arc"
       style="color:#000000;fill:#4d4d4d;fill-opacity:1;fill-rule:nonzero;stroke:none;stroke-width:2;marker:none;visibility:visible;display:inline;overflow:visible;enable-background:accumulate"
       id="path2999"
       sodipodi:cx="12.999996"
       sodipodi:cy="19.000002"
       sodipodi:rx="1"
       sodipodi:ry="1.0000013"
       d="m 13.999996,19.000002 c 0,0.552285 -0.447715,1.000001 -1,1.000001 -0.552285,0 -1,-0.447716 -1,-1.000001 0,-0.552286 0.447715,-1.000001 1,-1.000001 0.552285,0 1,0.447715 1,1.000001 z"
       transform="translate(550.72253,582.11926)" />
  </g>
</svg>
