<?xml version="1.0" encoding="UTF-8" standalone="no"?>
<!-- Created with Inkscape (http://www.inkscape.org/) -->

<svg
   xmlns:dc="http://purl.org/dc/elements/1.1/"
   xmlns:cc="http://creativecommons.org/ns#"
   xmlns:rdf="http://www.w3.org/1999/02/22-rdf-syntax-ns#"
   xmlns:svg="http://www.w3.org/2000/svg"
   xmlns="http://www.w3.org/2000/svg"
   xmlns:sodipodi="http://sodipodi.sourceforge.net/DTD/sodipodi-0.dtd"
   xmlns:inkscape="http://www.inkscape.org/namespaces/inkscape"
   width="24"
   height="24"
   id="svg3815"
   version="1.1"
   inkscape:version="0.91+devel r"
   sodipodi:docname="lc_insertrows.svg">
  <defs
     id="defs3817" />
  <sodipodi:namedview
     id="base"
     pagecolor="#ffffff"
     bordercolor="#666666"
     borderopacity="1.0"
     inkscape:pageopacity="0.0"
     inkscape:pageshadow="2"
     inkscape:zoom="18.693525"
     inkscape:cx="9.2333707"
     inkscape:cy="12.198549"
     inkscape:document-units="px"
     inkscape:current-layer="layer1"
     showgrid="true"
     fit-margin-top="0"
     fit-margin-left="0"
     fit-margin-right="0"
     fit-margin-bottom="0"
     inkscape:window-width="1366"
     inkscape:window-height="670"
     inkscape:window-x="-4"
     inkscape:window-y="29"
     inkscape:window-maximized="1"
     inkscape:showpageshadow="false"
     borderlayer="false"
     showguides="true">
    <sodipodi:guide
       position="3,21"
       orientation="18,0"
       id="guide3338" />
    <sodipodi:guide
       position="3,3"
       orientation="0,18"
       id="guide3340" />
    <sodipodi:guide
       position="21,3"
       orientation="-18,0"
       id="guide3342" />
    <sodipodi:guide
       position="21,21"
       orientation="0,-18"
       id="guide3344" />
    <sodipodi:guide
       position="4,20"
       orientation="16,0"
       id="guide3346" />
    <sodipodi:guide
       position="4,4"
       orientation="0,16"
       id="guide3348" />
    <sodipodi:guide
       position="20,4"
       orientation="-16,0"
       id="guide3350" />
    <sodipodi:guide
       position="17.999996,20.000021"
       orientation="0,-16"
       id="guide3352" />
    <inkscape:grid
       type="xygrid"
       id="grid3354"
       originx="0.99999557px"
       originy="1.0000215px" />
  </sodipodi:namedview>
  <metadata
     id="metadata3820">
    <rdf:RDF>
      <cc:Work
         rdf:about="">
        <dc:format>image/svg+xml</dc:format>
        <dc:type
           rdf:resource="http://purl.org/dc/dcmitype/StillImage" />
        <dc:title />
      </cc:Work>
    </rdf:RDF>
  </metadata>
  <g
     inkscape:label="Capa 1"
     inkscape:groupmode="layer"
     id="layer1"
     transform="translate(-460.71429,-524.79077)">
    <path
       inkscape:connector-curvature="0"
       style="opacity:1;fill:#1d99f3;fill-opacity:1;stroke:none"
       d="m 465.71429,538.79077 5.29297,0 2.70703,0 0,1 -2.29297,0 -4,4 2.58594,0 3.70703,-3.70703 0,1.41406 -2.29297,2.29297 2.29297,0 0,1 -8,0 0,-1 0.29297,0 4,-4 -4.29297,0 0,-1 z"
       id="rect4197" />
    <path
       inkscape:connector-curvature="0"
       id="rect4139"
       d="m 478.71429,539.79077 0,2 2,0 0,1 -2,0 0,2 -1,0 0,-2 -2,0 0,-1 2,0 0,-2 1,0 z"
       style="fill:#4d4d4d;fill-opacity:1;stroke:none" />
    <path
       inkscape:connector-curvature="0"
       style="opacity:1;fill:#4d4d4d;fill-opacity:1;stroke:none"
       d="m 464.71429,528.79077 1,0 15,0 0,1 0,9 -1,0 0,-4 -2,0 0,4 -1,0 0,-4 -2,0 0,4 0,6 -1,0 0,-6 0,-4 -2,0 0,4 -1,0 0,-4 -2,0 0,4 -1,0 0,-4 -1,0 -1,0 0,4 0,6 -1,0 0,-6 0,-10 z m 1,1 0,4 1,0 1,0 0,-1 0,-3 -2,0 z m 3,0 0,3 0,1 2,0 0,-4 -2,0 z m 3,0 0,4 2,0 0,-4 -2,0 z m 3,0 0,4 2,0 0,-1 0,-3 -2,0 z m 3,0 0,3 0,1 1.09961,0 0.90039,0 0,-4 -2,0 z"
       id="rect4108-9" />
  </g>
</svg>
