<?xml version="1.0" encoding="UTF-8" standalone="no"?>
<!-- Created with Inkscape (http://www.inkscape.org/) -->

<svg
   xmlns:dc="http://purl.org/dc/elements/1.1/"
   xmlns:cc="http://creativecommons.org/ns#"
   xmlns:rdf="http://www.w3.org/1999/02/22-rdf-syntax-ns#"
   xmlns:svg="http://www.w3.org/2000/svg"
   xmlns="http://www.w3.org/2000/svg"
   xmlns:sodipodi="http://sodipodi.sourceforge.net/DTD/sodipodi-0.dtd"
   xmlns:inkscape="http://www.inkscape.org/namespaces/inkscape"
   width="24"
   height="24"
   id="svg2"
   version="1.1"
   inkscape:version="0.48.4 r9939"
   viewBox="0 0 24 24"
   sodipodi:docname="lc_numberformatstandard.svg">
  <defs
     id="defs4" />
  <sodipodi:namedview
     id="base"
     pagecolor="#ffffff"
     bordercolor="#666666"
     borderopacity="1.0"
     inkscape:pageopacity="0.0"
     inkscape:pageshadow="2"
     inkscape:zoom="22.627417"
     inkscape:cx="-7.1304624"
     inkscape:cy="16.770919"
     inkscape:document-units="px"
     inkscape:current-layer="layer1"
     showgrid="true"
     inkscape:showpageshadow="false"
     units="px"
     inkscape:window-width="1868"
     inkscape:window-height="1060"
     inkscape:window-x="50"
     inkscape:window-y="-3"
     inkscape:window-maximized="1"
     showguides="true"
     fit-margin-top="0"
     fit-margin-left="0"
     fit-margin-right="0"
     fit-margin-bottom="0"
     inkscape:snap-bbox="true"
     inkscape:snap-global="true">
    <inkscape:grid
       type="xygrid"
       id="grid4120"
       originx="1px"
       originy="0.99998262px" />
    <sodipodi:guide
       position="3,21"
       orientation="18,0"
       id="guide4126" />
    <sodipodi:guide
       position="3,3"
       orientation="0,18"
       id="guide4128" />
    <sodipodi:guide
       position="21,21"
       orientation="0,-18"
       id="guide4132" />
    <sodipodi:guide
       position="4,20"
       orientation="16,0"
       id="guide4134" />
    <sodipodi:guide
       position="4,4"
       orientation="0,16"
       id="guide4136" />
    <sodipodi:guide
       position="20,4"
       orientation="-16,0"
       id="guide4138" />
    <sodipodi:guide
       position="8,20"
       orientation="0,-16"
       id="guide4140" />
    <sodipodi:guide
       position="20,14"
       orientation="-6,0"
       id="guide4199" />
    <sodipodi:guide
       position="20,20"
       orientation="0,-6.0000172"
       id="guide4201" />
  </sodipodi:namedview>
  <metadata
     id="metadata7">
    <rdf:RDF>
      <cc:Work
         rdf:about="">
        <dc:format>image/svg+xml</dc:format>
        <dc:type
           rdf:resource="http://purl.org/dc/dcmitype/StillImage" />
        <dc:title />
      </cc:Work>
    </rdf:RDF>
  </metadata>
  <g
     inkscape:label="Capa 1"
     inkscape:groupmode="layer"
     id="layer1"
     transform="translate(1,-1029.3622)">
    <path
       style="color:#000000;fill:#4d4d4d;fill-opacity:1;fill-rule:nonzero;stroke:none;stroke-width:2;marker:none;visibility:visible;display:inline;overflow:visible;enable-background:accumulate"
       d="m 14.46875,1034.362 c -1.932997,0 -3.5,1.567 -3.5,3.5 0,0.031 -0.0038,0.063 0,0.094 l 0,0.4062 0.03125,0 0.96875,0 c -0.006,-0.1862 0,-0.3274 0,-0.5 0,-1.3807 1.119288,-2.5 2.5,-2.5 1.380712,0 2.431662,1.121 2.5,2.5 0.03125,0.6306 -0.222127,1.1625 -0.53125,1.5938 -1.434338,2.2509 -3.518125,4.9456 -5.3125,7.4062 -0.10866,0.1599 -0.152165,0.3443 -0.15625,0.5313 0.01708,0.5373 0.458544,0.9687 1,0.9687 l 0.625,0 1.40625,0 4,0 0,-1 -0.03125,0 -2,0 -3.8125,0 c 1.601757,-2.3464 3.650652,-4.8384 5.1875,-7.5312 0.166669,-0.2789 0.242088,-0.4182 0.34375,-0.5938 0.180374,-0.4215 0.28125,-0.8852 0.28125,-1.375 0,-1.7226 -1.236008,-3.1462 -2.875,-3.4375 -0.194738,-0.044 -0.40665,-0.062 -0.625,-0.062 z"
       id="path3864"
       inkscape:connector-curvature="0" />
    <path
       style="color:#000000;fill:#4d4d4d;fill-opacity:1;fill-rule:nonzero;stroke:none;stroke-width:1;marker:none;visibility:visible;display:inline;overflow:visible;enable-background:accumulate"
       d="m 6.75,1034.3622 -0.75,0.4688 -2.15625,1.2812 0.625,1.0313 L 5,1036.831 l 2,-1.125 c 0,0 0.011049,12.6658 0,12.6562 l 1,0 0,-14 c 0,0 -1.2298171,0.022 -1.25,0 z"
       id="rect2993"
       inkscape:connector-curvature="0" />
    <path
       style="color:#000000;fill:#4d4d4d;fill-opacity:1;fill-rule:nonzero;stroke:none;stroke-width:2;marker:none;visibility:visible;display:inline;overflow:visible;enable-background:accumulate"
       d="m 9,1047.3622 0,0.5 0,0.5 1,0 0,-1 -0.96875,0 -0.03125,0 z"
       id="rect3772"
       inkscape:connector-curvature="0" />
  </g>
</svg>
