<?xml version="1.0" encoding="UTF-8" standalone="no"?>
<!-- Created with Inkscape (http://www.inkscape.org/) -->

<svg
   xmlns:dc="http://purl.org/dc/elements/1.1/"
   xmlns:cc="http://creativecommons.org/ns#"
   xmlns:rdf="http://www.w3.org/1999/02/22-rdf-syntax-ns#"
   xmlns:svg="http://www.w3.org/2000/svg"
   xmlns="http://www.w3.org/2000/svg"
   xmlns:sodipodi="http://sodipodi.sourceforge.net/DTD/sodipodi-0.dtd"
   xmlns:inkscape="http://www.inkscape.org/namespaces/inkscape"
   width="24"
   height="24"
   id="svg952"
   version="1.1"
   inkscape:version="0.48.4 r9939"
   sodipodi:docname="lc_printpreview.svg">
  <defs
     id="defs954" />
  <sodipodi:namedview
     id="base"
     pagecolor="#ffffff"
     bordercolor="#666666"
     borderopacity="1.0"
     inkscape:pageopacity="0.0"
     inkscape:pageshadow="2"
     inkscape:zoom="23.069359"
     inkscape:cx="9.6641864"
     inkscape:cy="13.96814"
     inkscape:document-units="px"
     inkscape:current-layer="layer1"
     showgrid="true"
     inkscape:window-width="1864"
     inkscape:window-height="1060"
     inkscape:window-x="54"
     inkscape:window-y="-3"
     inkscape:window-maximized="1"
     showguides="true"
     inkscape:guide-bbox="true"
     inkscape:showpageshadow="false"
     borderlayer="true"
     fit-margin-top="0"
     fit-margin-left="0"
     fit-margin-right="0"
     fit-margin-bottom="0"
     inkscape:snap-bbox="true">
    <inkscape:grid
       type="xygrid"
       id="grid4063"
       originx="1px"
       originy="0.99998262px" />
    <sodipodi:guide
       position="3,21"
       orientation="18,0"
       id="guide4077" />
    <sodipodi:guide
       position="3,3"
       orientation="0,18"
       id="guide4079" />
    <sodipodi:guide
       position="21,3"
       orientation="-18,0"
       id="guide4081" />
    <sodipodi:guide
       position="21,21"
       orientation="0,-18"
       id="guide4083" />
    <sodipodi:guide
       position="4,20"
       orientation="16,0"
       id="guide4085" />
    <sodipodi:guide
       position="4,4"
       orientation="0,16"
       id="guide4087" />
    <sodipodi:guide
       position="20,4"
       orientation="-16,0"
       id="guide4089" />
    <sodipodi:guide
       position="20,20"
       orientation="0,-16"
       id="guide4091" />
    <sodipodi:guide
       position="4,20"
       orientation="12,0"
       id="guide4099" />
    <sodipodi:guide
       position="16.000017,20"
       orientation="0,-12.000017"
       id="guide4105" />
    <sodipodi:guide
       position="15,4"
       orientation="0,6"
       id="guide4116" />
    <sodipodi:guide
       position="21,4"
       orientation="-6,0"
       id="guide4118" />
  </sodipodi:namedview>
  <metadata
     id="metadata957">
    <rdf:RDF>
      <cc:Work
         rdf:about="">
        <dc:format>image/svg+xml</dc:format>
        <dc:type
           rdf:resource="http://purl.org/dc/dcmitype/StillImage" />
        <dc:title />
      </cc:Work>
    </rdf:RDF>
  </metadata>
  <g
     inkscape:label="Capa 1"
     inkscape:groupmode="layer"
     id="layer1"
     transform="translate(1,-1029.3622)">
    <path
       inkscape:connector-curvature="0"
       style="fill:#4d4d4d;fill-opacity:1;stroke:none"
       d="m 4,1033.3622 0,16 1,0 7,0 0,-1 -7,0 0,-14 12,0 0,9 1,0 0,-10 -1,0 -12,0 -1,0 z m 9,8 c -1.662003,0 -3,1.338 -3,3 0,1.662 1.337997,3 3,3 0.649392,0 1.246354,-0.2086 1.736328,-0.5566 l 2.556641,2.5566 0.707031,-0.707 -2.556641,-2.5567 C 15.791414,1045.6086 16,1045.0116 16,1044.3622 c 0,-1.662 -1.337997,-3 -3,-3 z m 0,1 c 1.108003,0 2,0.892 2,2 0,1.108 -0.891997,2 -2,2 -1.108003,0 -2,-0.892 -2,-2 0,-1.108 0.891997,-2 2,-2 z"
       id="rect4139" />
  </g>
</svg>
