<?xml version="1.0" encoding="UTF-8" standalone="no"?>
<!-- Created with Inkscape (http://www.inkscape.org/) -->

<svg
   xmlns:dc="http://purl.org/dc/elements/1.1/"
   xmlns:cc="http://creativecommons.org/ns#"
   xmlns:rdf="http://www.w3.org/1999/02/22-rdf-syntax-ns#"
   xmlns:svg="http://www.w3.org/2000/svg"
   xmlns="http://www.w3.org/2000/svg"
   xmlns:sodipodi="http://sodipodi.sourceforge.net/DTD/sodipodi-0.dtd"
   xmlns:inkscape="http://www.inkscape.org/namespaces/inkscape"
   width="24"
   height="24"
   id="svg2"
   version="1.1"
   inkscape:version="0.48.4 r9939"
   viewBox="0 0 24 24"
   sodipodi:docname="lc_starshapes.star24.svg">
  <defs
     id="defs4" />
  <sodipodi:namedview
     id="base"
     pagecolor="#ffffff"
     bordercolor="#666666"
     borderopacity="1.0"
     inkscape:pageopacity="0.0"
     inkscape:pageshadow="2"
     inkscape:zoom="25.15656"
     inkscape:cx="9.9943589"
     inkscape:cy="5.9534643"
     inkscape:document-units="px"
     inkscape:current-layer="layer1"
     showgrid="true"
     inkscape:showpageshadow="false"
     units="px"
     inkscape:window-width="1195"
     inkscape:window-height="1053"
     inkscape:window-x="56"
     inkscape:window-y="0"
     inkscape:window-maximized="0"
     showguides="true"
     fit-margin-top="0"
     fit-margin-left="0"
     fit-margin-right="0"
     fit-margin-bottom="0"
     inkscape:snap-bbox="true"
     inkscape:snap-global="true">
    <inkscape:grid
       type="xygrid"
       id="grid4120"
       originx="1px"
       originy="0.99998262px" />
    <sodipodi:guide
       position="3,21"
       orientation="18,0"
       id="guide4126" />
    <sodipodi:guide
       position="21,21"
       orientation="0,-18"
       id="guide4132" />
    <sodipodi:guide
       position="4,20"
       orientation="16,0"
       id="guide4134" />
    <sodipodi:guide
       position="4,4"
       orientation="0,16"
       id="guide4136" />
    <sodipodi:guide
       position="20,4"
       orientation="-16,0"
       id="guide4138" />
    <sodipodi:guide
       position="20,20"
       orientation="0,-16"
       id="guide4140" />
    <sodipodi:guide
       position="20,14"
       orientation="-6,0"
       id="guide4199" />
    <sodipodi:guide
       position="20,20"
       orientation="0,-6.0000172"
       id="guide4201" />
  </sodipodi:namedview>
  <metadata
     id="metadata7">
    <rdf:RDF>
      <cc:Work
         rdf:about="">
        <dc:format>image/svg+xml</dc:format>
        <dc:type
           rdf:resource="http://purl.org/dc/dcmitype/StillImage" />
        <dc:title />
      </cc:Work>
    </rdf:RDF>
  </metadata>
  <g
     inkscape:label="Capa 1"
     inkscape:groupmode="layer"
     id="layer1"
     transform="translate(1,-1029.3622)">
    <path
       style="color:#000000;fill:#4d4d4d;fill-opacity:1;fill-rule:nonzero;stroke:none;stroke-width:2;marker:none;visibility:visible;display:inline;overflow:visible;enable-background:accumulate"
       d="M 12 4 L 11.46875 8.03125 L 9.9375 4.28125 L 10.46875 8.3125 L 8 5.0625 L 9.5625 8.8125 L 6.34375 6.34375 L 8.8125 9.5625 L 5.0625 8 L 8.3125 10.46875 L 4.28125 9.9375 L 8.03125 11.46875 L 4 12 L 8.03125 12.53125 L 4.28125 14.0625 L 8.3125 13.53125 L 5.0625 16 L 8.8125 14.4375 L 6.34375 17.65625 L 9.5625 15.1875 L 8 18.9375 L 10.46875 15.6875 L 9.9375 19.71875 L 11.46875 15.96875 L 12 20 L 12.53125 15.96875 L 14.0625 19.71875 L 13.53125 15.6875 L 16 18.9375 L 14.4375 15.1875 L 17.65625 17.65625 L 15.1875 14.4375 L 18.9375 16 L 15.6875 13.53125 L 19.71875 14.0625 L 15.96875 12.53125 L 20 12 L 15.96875 11.46875 L 19.71875 9.9375 L 15.6875 10.46875 L 18.9375 8 L 15.1875 9.5625 L 17.65625 6.34375 L 14.4375 8.8125 L 16 5.0625 L 13.53125 8.3125 L 14.0625 4.28125 L 12.53125 8.03125 L 12 4 z M 10.15625 10 C 10.341709 10 10.517603 10.0235 10.65625 10.0625 C 10.794893 10.1025 10.91421 10.1671 11.03125 10.25 C 11.150086 10.333 11.242275 10.44605 11.3125 10.59375 C 11.38452 10.74135 11.433896 10.89755 11.4375 11.09375 L 11.4375 11.15625 C 11.437497 11.39205 11.382079 11.59215 11.28125 11.78125 C 11.18221 11.96845 10.981633 12.2137 10.71875 12.5 L 9.78125 13.5 L 11.40625 13.5 L 11.375 14 L 9.125 14 L 9.09375 13.46875 L 10.34375 12.03125 C 10.513003 11.83685 10.617275 11.6867 10.6875 11.5625 C 10.759521 11.4365 10.812498 11.27385 10.8125 11.09375 C 10.812498 10.91375 10.752839 10.7847 10.625 10.6875 C 10.498957 10.5905 10.329104 10.53125 10.15625 10.53125 C 9.9833924 10.53125 9.8255038 10.564 9.65625 10.625 C 9.4869941 10.684 9.3303855 10.75725 9.21875 10.84375 L 9.03125 10.34375 C 9.1770968 10.24115 9.3536313 10.15675 9.5625 10.09375 C 9.7713667 10.03075 9.972589 10 10.15625 10 z M 13.75 10.0625 L 14.46875 10.0625 L 14.46875 12.59375 L 14.96875 12.59375 L 14.9375 13.0625 L 14.46875 13.0625 L 14.46875 14 L 13.875 14 L 13.875 13.0625 L 12.15625 13.0625 L 12.15625 12.59375 L 13.75 10.0625 z M 13.875 10.78125 L 12.78125 12.59375 L 13.875 12.59375 L 13.875 10.78125 z "
       transform="translate(-1,1029.3622)"
       id="path14679" />
  </g>
</svg>
