<?xml version="1.0" encoding="UTF-8" standalone="no"?>
<!-- Created with Inkscape (http://www.inkscape.org/) -->

<svg
   xmlns:dc="http://purl.org/dc/elements/1.1/"
   xmlns:cc="http://creativecommons.org/ns#"
   xmlns:rdf="http://www.w3.org/1999/02/22-rdf-syntax-ns#"
   xmlns:svg="http://www.w3.org/2000/svg"
   xmlns="http://www.w3.org/2000/svg"
   xmlns:sodipodi="http://sodipodi.sourceforge.net/DTD/sodipodi-0.dtd"
   xmlns:inkscape="http://www.inkscape.org/namespaces/inkscape"
   width="24"
   height="24"
   id="svg3760"
   version="1.1"
   inkscape:version="0.91+devel r"
   sodipodi:docname="lc_superscript.svg">
  <defs
     id="defs3762" />
  <sodipodi:namedview
     id="base"
     pagecolor="#ffffff"
     bordercolor="#666666"
     borderopacity="1.0"
     inkscape:pageopacity="0.0"
     inkscape:pageshadow="2"
     inkscape:zoom="24.451298"
     inkscape:cx="12.080183"
     inkscape:cy="12.923777"
     inkscape:document-units="px"
     inkscape:current-layer="layer1"
     showgrid="true"
     fit-margin-top="0"
     fit-margin-left="0"
     fit-margin-right="0"
     fit-margin-bottom="0"
     inkscape:window-width="1366"
     inkscape:window-height="670"
     inkscape:window-x="-4"
     inkscape:window-y="29"
     inkscape:window-maximized="1"
     inkscape:showpageshadow="false"
     showguides="true">
    <inkscape:grid
       type="xygrid"
       id="grid4106"
       originx="1.8863594e-05px"
       originy="-1.7016406e-05px" />
    <sodipodi:guide
       position="3.0000144,20.999978"
       orientation="0,18"
       id="guide4229" />
    <sodipodi:guide
       position="21.000014,20.999978"
       orientation="18,0"
       id="guide4231" />
    <sodipodi:guide
       position="21.000014,2.9999782"
       orientation="0,-18"
       id="guide4233" />
    <sodipodi:guide
       position="3.0000144,2.9999782"
       orientation="-18,0"
       id="guide4235" />
    <sodipodi:guide
       position="20.000014,3.9999782"
       orientation="0,-16"
       id="guide4241" />
    <sodipodi:guide
       position="4,20"
       orientation="6,0"
       id="guide4155" />
    <sodipodi:guide
       position="20,14"
       orientation="-6,0"
       id="guide4167" />
    <sodipodi:guide
       position="20,20"
       orientation="0,-6"
       id="guide4169" />
  </sodipodi:namedview>
  <metadata
     id="metadata3765">
    <rdf:RDF>
      <cc:Work
         rdf:about="">
        <dc:format>image/svg+xml</dc:format>
        <dc:type
           rdf:resource="http://purl.org/dc/dcmitype/StillImage" />
        <dc:title />
      </cc:Work>
    </rdf:RDF>
  </metadata>
  <g
     inkscape:label="Capa 1"
     inkscape:groupmode="layer"
     id="layer1"
     transform="translate(-550.28571,-606.64789)">
    <path
       style="font-style:normal;font-variant:normal;font-weight:normal;font-stretch:normal;font-size:medium;line-height:125%;font-family:Oxygen;-inkscape-font-specification:Oxygen;letter-spacing:0px;word-spacing:0px;fill:#4d4d4d;fill-opacity:1;stroke:none;stroke-width:1px;stroke-linecap:butt;stroke-linejoin:miter;stroke-opacity:1"
       d="m 15,4 0,2 0,1 0,2 0,1 1,0 2,0 C 19.108,10 20,9.108 20,8 20,7.1890639 19.518727,6.4980971 18.828125,6.1835938 18.934063,5.9777397 19,5.7483091 19,5.5 19,4.669 18.331,4 17.5,4 L 16,4 Z m 1,1 1.5,0 C 17.777,5 18,5.223 18,5.5 18,5.777 17.777,6 17.5,6 L 16,6 Z m -6.7835155,1 -5.216797,14 1.6875,0 1.6679688,-4.429688 5.5625007,0 L 14.45086,20 16.140312,20 11.210626,6 Z M 16,7 17.5,7 18,7 c 0.554,0 1,0.446 1,1 0,0.554 -0.446,1 -1,1 l -2,0 z m -5.76789,0.6113281 2.128906,6.6738279 -4.4882816,0 z"
       transform="translate(550.28571,606.64789)"
       id="path4149"
       inkscape:connector-curvature="0"
       sodipodi:nodetypes="ccccccsscsscccssscccccccccccccssscccccc" />
  </g>
</svg>
