<?xml version="1.0" encoding="UTF-8" standalone="no"?>
<!-- Created with Inkscape (http://www.inkscape.org/) -->

<svg
   xmlns:dc="http://purl.org/dc/elements/1.1/"
   xmlns:cc="http://creativecommons.org/ns#"
   xmlns:rdf="http://www.w3.org/1999/02/22-rdf-syntax-ns#"
   xmlns:svg="http://www.w3.org/2000/svg"
   xmlns="http://www.w3.org/2000/svg"
   xmlns:sodipodi="http://sodipodi.sourceforge.net/DTD/sodipodi-0.dtd"
   xmlns:inkscape="http://www.inkscape.org/namespaces/inkscape"
   width="24"
   height="24"
   id="svg2"
   version="1.1"
   inkscape:version="0.48.4 r9939"
   viewBox="0 0 24 24"
   sodipodi:docname="lc_starshapes.star12.svg">
  <defs
     id="defs4" />
  <sodipodi:namedview
     id="base"
     pagecolor="#ffffff"
     bordercolor="#666666"
     borderopacity="1.0"
     inkscape:pageopacity="0.0"
     inkscape:pageshadow="2"
     inkscape:zoom="39.465397"
     inkscape:cx="13.482449"
     inkscape:cy="11.092719"
     inkscape:document-units="px"
     inkscape:current-layer="layer1"
     showgrid="true"
     inkscape:showpageshadow="false"
     units="px"
     inkscape:window-width="1195"
     inkscape:window-height="1053"
     inkscape:window-x="56"
     inkscape:window-y="0"
     inkscape:window-maximized="0"
     showguides="true"
     fit-margin-top="0"
     fit-margin-left="0"
     fit-margin-right="0"
     fit-margin-bottom="0"
     inkscape:snap-bbox="true">
    <inkscape:grid
       type="xygrid"
       id="grid4120"
       originx="1px"
       originy="0.99998262px" />
    <sodipodi:guide
       position="3,21"
       orientation="18,0"
       id="guide4126" />
    <sodipodi:guide
       position="21,21"
       orientation="0,-18"
       id="guide4132" />
    <sodipodi:guide
       position="4,20"
       orientation="16,0"
       id="guide4134" />
    <sodipodi:guide
       position="4,4"
       orientation="0,16"
       id="guide4136" />
    <sodipodi:guide
       position="20,4"
       orientation="-16,0"
       id="guide4138" />
    <sodipodi:guide
       position="20,20"
       orientation="0,-16"
       id="guide4140" />
    <sodipodi:guide
       position="20,14"
       orientation="-6,0"
       id="guide4199" />
    <sodipodi:guide
       position="20,20"
       orientation="0,-6.0000172"
       id="guide4201" />
  </sodipodi:namedview>
  <metadata
     id="metadata7">
    <rdf:RDF>
      <cc:Work
         rdf:about="">
        <dc:format>image/svg+xml</dc:format>
        <dc:type
           rdf:resource="http://purl.org/dc/dcmitype/StillImage" />
        <dc:title />
      </cc:Work>
    </rdf:RDF>
  </metadata>
  <g
     inkscape:label="Capa 1"
     inkscape:groupmode="layer"
     id="layer1"
     transform="translate(1,-1029.3622)">
    <path
       style="color:#000000;fill:#4d4d4d;fill-opacity:1;fill-rule:nonzero;stroke:none;stroke-width:2;marker:none;visibility:visible;display:inline;overflow:visible;enable-background:accumulate"
       d="M 12 4 L 10.96875 8.125 L 8 5.0625 L 9.15625 9.15625 L 5.0625 8 L 8.125 10.96875 L 4 12 L 8.125 13.03125 L 5.0625 16 L 9.15625 14.84375 L 8 18.9375 L 10.96875 15.875 L 12 20 L 13.03125 15.875 L 16 18.9375 L 14.84375 14.84375 L 18.9375 16 L 15.875 13.03125 L 20 12 L 15.875 10.96875 L 18.9375 8 L 14.84375 9.15625 L 16 5.0625 L 13.03125 8.125 L 12 4 z M 9.96875 10 L 10.53125 10 L 10.53125 13.5625 L 11.4375 13.5625 L 11.4375 14 L 9.09375 14 L 9.09375 13.5625 L 10 13.5625 L 10 10.5625 L 9 10.75 L 9 10.25 L 9.96875 10 z M 13.5625 10 C 13.988773 10 14.340188 10.1091 14.59375 10.3125 C 14.847308 10.5161 14.968747 10.7846 14.96875 11.125 C 14.968747 11.2864 14.93931 11.44815 14.875 11.59375 C 14.81252 11.73755 14.698449 11.89735 14.53125 12.09375 C 14.48531 12.14475 14.339958 12.28735 14.09375 12.53125 C 13.847537 12.77345 13.510822 13.1257 13.0625 13.5625 L 15 13.5625 L 15 14 L 12.375 14 L 12.375 13.5625 C 12.5863 13.3538 12.886196 13.06955 13.25 12.71875 C 13.61564 12.36605 13.84379 12.13295 13.9375 12.03125 C 14.115725 11.84005 14.242678 11.694 14.3125 11.5625 C 14.38416 11.4291 14.406247 11.28435 14.40625 11.15625 C 14.406247 10.94745 14.341842 10.78785 14.1875 10.65625 C 14.034995 10.52475 13.839959 10.4375 13.59375 10.4375 C 13.419197 10.4375 13.226012 10.47325 13.03125 10.53125 C 12.838323 10.58925 12.626736 10.695 12.40625 10.8125 L 12.40625 10.25 C 12.630411 10.164 12.836486 10.1063 13.03125 10.0625 C 13.226012 10.0185 13.400809 10 13.5625 10 z "
       transform="translate(-1,1029.3622)"
       id="path13289" />
  </g>
</svg>
