<?xml version="1.0" encoding="UTF-8" standalone="no"?>
<!-- Created with Inkscape (http://www.inkscape.org/) -->

<svg
   xmlns:dc="http://purl.org/dc/elements/1.1/"
   xmlns:cc="http://creativecommons.org/ns#"
   xmlns:rdf="http://www.w3.org/1999/02/22-rdf-syntax-ns#"
   xmlns:svg="http://www.w3.org/2000/svg"
   xmlns="http://www.w3.org/2000/svg"
   xmlns:sodipodi="http://sodipodi.sourceforge.net/DTD/sodipodi-0.dtd"
   xmlns:inkscape="http://www.inkscape.org/namespaces/inkscape"
   width="24"
   height="24"
   id="svg2"
   version="1.1"
   inkscape:version="0.48.4 r9939"
   viewBox="0 0 24 24"
   sodipodi:docname="lc_unhainframes.svg">
  <defs
     id="defs4" />
  <sodipodi:namedview
     id="base"
     pagecolor="#ffffff"
     bordercolor="#666666"
     borderopacity="1.0"
     inkscape:pageopacity="0.0"
     inkscape:pageshadow="2"
     inkscape:zoom="50.31312"
     inkscape:cx="8.4978964"
     inkscape:cy="12.264059"
     inkscape:document-units="px"
     inkscape:current-layer="layer1"
     showgrid="true"
     inkscape:showpageshadow="false"
     units="px"
     inkscape:window-width="1868"
     inkscape:window-height="1060"
     inkscape:window-x="50"
     inkscape:window-y="-3"
     inkscape:window-maximized="1"
     showguides="true"
     fit-margin-top="0"
     fit-margin-left="0"
     fit-margin-right="0"
     fit-margin-bottom="0"
     inkscape:snap-bbox="true"
     inkscape:snap-global="true">
    <inkscape:grid
       type="xygrid"
       id="grid4120"
       originx="1px"
       originy="0.99998262px" />
    <sodipodi:guide
       position="3,21"
       orientation="18,0"
       id="guide4126" />
    <sodipodi:guide
       position="21,21"
       orientation="0,-18"
       id="guide4132" />
    <sodipodi:guide
       position="4,20"
       orientation="16,0"
       id="guide4134" />
    <sodipodi:guide
       position="4,4"
       orientation="0,16"
       id="guide4136" />
    <sodipodi:guide
       position="20,4"
       orientation="-16,0"
       id="guide4138" />
    <sodipodi:guide
       position="20,20"
       orientation="0,-16"
       id="guide4140" />
    <sodipodi:guide
       position="20,14"
       orientation="-6,0"
       id="guide4199" />
    <sodipodi:guide
       position="20,20"
       orientation="0,-6.0000172"
       id="guide4201" />
  </sodipodi:namedview>
  <metadata
     id="metadata7">
    <rdf:RDF>
      <cc:Work
         rdf:about="">
        <dc:format>image/svg+xml</dc:format>
        <dc:type
           rdf:resource="http://purl.org/dc/dcmitype/StillImage" />
        <dc:title />
      </cc:Work>
    </rdf:RDF>
  </metadata>
  <g
     inkscape:label="Capa 1"
     inkscape:groupmode="layer"
     id="layer1"
     transform="translate(1,-1029.3622)">
    <path
       style="fill:#4d4d4d;fill-opacity:1;stroke:none"
       d="M 4 8 C 3.4459904 8 3 8.446 3 9 L 3 15 C 3 15.554 3.4459904 16 4 16 L 10 16 C 10.55401 16 11 15.554 11 15 L 11 14 L 11 13 L 10 13 L 10 14 L 10 15 L 9 15 L 8 15 L 4 15 L 4 9 L 8 9 L 9 9 L 10 9 L 10 10 L 10 11 L 11 11 L 11 10 L 11 9 C 11 8.446 10.55401 8 10 8 L 4 8 z M 14 8 C 13.44599 8 13 8.446 13 9 L 13 10 L 13 11 L 14 11 L 14 10 L 14 9 L 15 9 L 17 9 L 20 9 L 20 15 L 17 15 L 15 15 L 14 15 L 14 14 L 14 13 L 13 13 L 13 14 L 13 15 C 13 15.554 13.44599 16 14 16 L 20 16 C 20.55401 16 21 15.554 21 15 L 21 9 C 21 8.446 20.55401 8 20 8 L 14 8 z "
       transform="translate(-1,1029.3622)"
       id="rect4161" />
    <rect
       y="1040.8622"
       x="8.000021"
       height="1"
       width="6"
       id="rect4520"
       style="color:#000000;fill:#da4453;fill-opacity:1;fill-rule:evenodd;stroke:none;stroke-width:2;marker:none;visibility:visible;display:inline;overflow:visible;enable-background:accumulate" />
  </g>
</svg>
