<?xml version="1.0" encoding="UTF-8" standalone="no"?>
<!-- Created with Inkscape (http://www.inkscape.org/) -->

<svg
   xmlns:dc="http://purl.org/dc/elements/1.1/"
   xmlns:cc="http://creativecommons.org/ns#"
   xmlns:rdf="http://www.w3.org/1999/02/22-rdf-syntax-ns#"
   xmlns:svg="http://www.w3.org/2000/svg"
   xmlns="http://www.w3.org/2000/svg"
   xmlns:xlink="http://www.w3.org/1999/xlink"
   xmlns:sodipodi="http://sodipodi.sourceforge.net/DTD/sodipodi-0.dtd"
   xmlns:inkscape="http://www.inkscape.org/namespaces/inkscape"
   width="32"
   height="32"
   id="svg5453"
   version="1.1"
   inkscape:version="0.91+devel r"
   sodipodi:docname="preferences-web-browser-cookies.svg">
  <defs
     id="defs5455">
    <linearGradient
       inkscape:collect="always"
       xlink:href="#linearGradient4290-1"
       id="linearGradient4161-5"
       x1="16.000011"
       y1="29.999973"
       x2="16.000011"
       y2="1.999974"
       gradientUnits="userSpaceOnUse"
       gradientTransform="translate(384.57143,515.798)" />
    <linearGradient
       id="linearGradient4290-1">
      <stop
         id="stop4292-9"
         offset="0"
         style="stop-color:#a5a5a5;stop-opacity:1;" />
      <stop
         id="stop4294-1"
         offset="1"
         style="stop-color:#f5f2f5;stop-opacity:1;" />
    </linearGradient>
    <linearGradient
       inkscape:collect="always"
       id="linearGradient4175">
      <stop
         style="stop-color:#ffd42a;stop-opacity:1;"
         offset="0"
         id="stop4177" />
      <stop
         style="stop-color:#ffdf62;stop-opacity:1"
         offset="1"
         id="stop4179" />
    </linearGradient>
    <linearGradient
       inkscape:collect="always"
       xlink:href="#linearGradient4175"
       id="linearGradient4251"
       x1="16.000011"
       y1="23"
       x2="16.000011"
       y2="8.9999743"
       gradientUnits="userSpaceOnUse" />
    <linearGradient
       inkscape:collect="always"
       xlink:href="#linearGradient4227"
       id="linearGradient4177"
       x1="9.0000114"
       y1="9"
       x2="23"
       y2="22.999973"
       gradientUnits="userSpaceOnUse" />
    <linearGradient
       inkscape:collect="always"
       id="linearGradient4227">
      <stop
         style="stop-color:#292c2f;stop-opacity:1"
         offset="0"
         id="stop4229" />
      <stop
         style="stop-color:#000000;stop-opacity:0;"
         offset="1"
         id="stop4231" />
    </linearGradient>
  </defs>
  <sodipodi:namedview
     id="base"
     pagecolor="#ffffff"
     bordercolor="#666666"
     borderopacity="1.0"
     inkscape:pageopacity="0"
     inkscape:pageshadow="2"
     inkscape:zoom="22.627417"
     inkscape:cx="10.794205"
     inkscape:cy="16.27496"
     inkscape:document-units="px"
     inkscape:current-layer="layer1"
     showgrid="true"
     fit-margin-top="0"
     fit-margin-left="0"
     fit-margin-right="0"
     fit-margin-bottom="0"
     inkscape:window-width="1366"
     inkscape:window-height="670"
     inkscape:window-x="-4"
     inkscape:window-y="29"
     inkscape:window-maximized="1"
     inkscape:showpageshadow="false"
     borderlayer="true"
     showguides="true"
     inkscape:snap-bbox="true"
     inkscape:snap-global="true">
    <inkscape:grid
       type="xygrid"
       id="grid4063" />
    <sodipodi:guide
       position="1.1650391e-05,32.000026"
       orientation="32,0"
       id="guide4157" />
    <sodipodi:guide
       position="1.1650391e-05,2.6367188e-05"
       orientation="0,32"
       id="guide4159" />
    <sodipodi:guide
       position="32.000012,2.6367188e-05"
       orientation="-32,0"
       id="guide4161" />
    <sodipodi:guide
       position="32.000012,32.000026"
       orientation="0,-32"
       id="guide4163" />
    <sodipodi:guide
       position="2.0000117,30.000026"
       orientation="28,0"
       id="guide4167" />
    <sodipodi:guide
       position="2.0000117,2.0000264"
       orientation="0,28"
       id="guide4169" />
    <sodipodi:guide
       position="30.000012,2.0000264"
       orientation="-28,0"
       id="guide4171" />
    <sodipodi:guide
       position="30.000012,30.000026"
       orientation="0,-28"
       id="guide4173" />
    <sodipodi:guide
       position="2.0000117,30.000026"
       orientation="28,0"
       id="guide4181" />
    <sodipodi:guide
       position="2.0000117,2.0000264"
       orientation="0,14"
       id="guide4183" />
    <sodipodi:guide
       position="16.000012,2.0000264"
       orientation="-28,0"
       id="guide4185" />
    <sodipodi:guide
       position="16.000012,30.000026"
       orientation="0,-14"
       id="guide4187" />
    <sodipodi:guide
       position="9.0000117,23.000026"
       orientation="14,0"
       id="guide4193" />
    <sodipodi:guide
       position="9.0000117,9.0000264"
       orientation="0,14.000031"
       id="guide4195" />
    <sodipodi:guide
       position="23.000042,9.0000264"
       orientation="-14,0"
       id="guide4197" />
    <sodipodi:guide
       position="23.000042,23.000026"
       orientation="0,-14.000031"
       id="guide4199" />
  </sodipodi:namedview>
  <metadata
     id="metadata5458">
    <rdf:RDF>
      <cc:Work
         rdf:about="">
        <dc:format>image/svg+xml</dc:format>
        <dc:type
           rdf:resource="http://purl.org/dc/dcmitype/StillImage" />
        <dc:title />
      </cc:Work>
    </rdf:RDF>
  </metadata>
  <g
     inkscape:label="Capa 1"
     inkscape:groupmode="layer"
     id="layer1"
     transform="translate(-384.57143,-515.798)">
    <rect
       style="opacity:1;fill:#4d4d4d;fill-opacity:1;stroke:none"
       id="rect4130-5"
       width="28.000011"
       height="28.000027"
       x="386.57141"
       y="517.79797"
       ry="14.000006" />
    <path
       inkscape:connector-curvature="0"
       style="fill:url(#linearGradient4161-5);fill-opacity:1;fill-rule:nonzero;stroke:none"
       d="m 400.35269,517.80287 c -1.07248,0.0145 -2.11123,0.15379 -3.11133,0.39453 -0.26327,0.23613 -0.65181,0.35584 -1.08789,0.34375 -0.15609,0.14931 -0.12005,0.42786 -0.20508,0.63282 -0.0716,0.17219 -0.32387,0.35645 -0.49609,0.34179 -0.1274,-0.0108 -0.27302,-0.18992 -0.27344,-0.30859 -4.6e-4,-0.14328 0.19913,-0.22314 0.0898,-0.38281 -1.11444,0.45173 -2.15102,1.04733 -3.0996,1.75586 0.25441,-0.0937 0.53497,-0.25118 0.76562,-0.25586 0.0379,-4.5e-4 0.0728,0.003 0.10742,0.0117 0.15492,0.0406 0.56322,0.48776 0.22266,0.63281 -0.0323,0.014 -0.49939,0.0648 -0.58008,0.0508 -0.11861,-0.0199 -0.18914,-0.18382 -0.30858,-0.20508 -0.20061,-0.0348 -0.45568,0.17365 -0.62892,0.0801 -1.9078,1.53996 -3.38835,3.57494 -4.27539,5.91016 0.0814,-0.0471 0.16466,-0.0964 0.23828,-0.13477 0.24992,-0.12992 0.46098,-0.33993 0.75195,-0.35938 0.14514,-0.003 0.35476,0.0391 0.49414,0.0684 0.12865,0.0264 0.23244,0.11272 0.34375,0.1211 0.31592,0.0241 0.39068,-0.22173 0.64844,-0.35938 0.26628,0.0376 0.44313,-0.0446 0.6836,-0.0176 0.16396,0.0181 0.2824,0.19332 0.41015,0.20313 0.10747,0.0108 0.20265,-0.0999 0.30664,-0.084 0.10103,0.0156 0.27461,0.23591 0.29102,0.35937 0.0207,0.15368 -0.11248,0.29215 -0.0684,0.46094 0.16097,0.16396 0.45353,0.19656 0.68358,0.29102 0.14979,-0.12344 0.0199,-0.35257 0,-0.53125 -0.003,-0.0787 0.0108,-0.14822 0,-0.22071 -0.014,-0.12305 -0.0676,-0.23647 -0.0684,-0.34179 -0.003,-0.48642 0.39247,-0.71418 0.71875,-0.90625 0.14123,-0.0837 0.25246,-0.22975 0.375,-0.29102 0.17307,-0.0868 0.30203,-0.10698 0.44532,-0.1875 0.25893,-0.14545 0.48113,-0.2629 0.68359,-0.42773 0.0936,-0.22055 0.0103,-0.51641 0.0176,-0.73438 0.0937,-0.0574 0.17411,0.0258 0.27344,0.0176 0.15626,-0.0326 0.16926,-0.25375 0.25781,-0.3418 0.0515,-0.0505 0.19191,-0.0866 0.25586,-0.13672 0.15574,-0.12217 0.20581,-0.30672 0.3418,-0.35937 0.0487,-0.0198 0.16143,-0.0145 0.23828,-0.0352 0.10123,-0.0269 0.2453,-0.14661 0.41015,-0.20312 0.10748,-0.0375 0.35351,-0.0447 0.39453,-0.0859 0.0505,-0.0515 -7e-5,-0.19625 0.0176,-0.27344 0.0829,-0.38587 0.66425,-0.46772 1.00782,-0.59765 0.24081,-0.0913 0.48735,-0.25833 0.75195,-0.20704 -0.0518,0.1834 -0.29765,0.11911 -0.25586,0.3418 0.0577,0.30905 0.47094,-0.0892 0.58008,-0.13476 0.20856,-0.0879 0.56621,-0.14097 0.83984,-0.24024 0.23994,-0.0879 0.66952,-0.22165 0.44336,-0.49609 -0.18859,-0.0108 -0.27896,0.22071 -0.44336,0.29101 -0.11352,0.0181 -0.0926,-0.0944 -0.18945,-0.10351 -0.0921,-0.0108 -0.14367,0.0845 -0.23828,0.0684 -0.094,-0.0156 -0.22552,-0.16345 -0.24024,-0.27344 -0.0375,-0.28535 0.2412,-0.40243 0.35938,-0.61524 -0.0781,-0.25813 -0.43462,-0.0533 -0.65039,-0.15429 0.0206,-0.15367 0.17986,-0.25968 0.35937,-0.28906 0.14715,-0.0248 0.47683,-0.012 0.56446,0.0664 0.0507,0.0431 0.004,0.15099 0.0859,0.22266 0.0871,0.0787 0.1936,0.0713 0.30664,0.0527 0.0409,-0.19478 -0.25265,-0.14661 -0.22071,-0.27539 0.2309,-0.15104 0.60597,-0.0264 0.88867,-0.0684 0.16273,-0.0241 0.33432,-0.13955 0.47852,-0.2207 0.13716,-0.0781 0.31544,-0.21366 0.46094,-0.0859 0.0395,0.13958 -0.12738,0.18646 -0.20508,0.25586 -0.26155,0.23266 -0.53109,0.49931 -0.73438,0.76953 0.12473,0.12167 0.35146,0.0608 0.5625,0.0859 0.0825,0.0108 0.1862,0.0354 0.27344,0.0508 0.10188,0.0181 0.21121,0.0125 0.29102,0.0332 0.14358,0.0353 0.18206,0.18946 0.32422,0.18946 0.23386,-4.2e-4 0.23599,-0.25409 0.10351,-0.41211 0.0418,-0.16134 0.10731,-0.24441 0.0508,-0.35742 -0.10532,-0.21071 -0.49185,-0.0108 -0.51172,-0.27344 -0.0127,-0.17043 0.1433,-0.16351 0.20508,-0.29102 -0.0281,-0.32932 0.27014,-0.35326 0.23828,-0.64844 -0.014,-0.12346 -0.11865,-0.12455 -0.20508,-0.24023 -0.0449,-0.0591 -0.0651,-0.17685 -0.11914,-0.22266 -0.17878,-0.15105 -0.54245,-0.12184 -0.56445,-0.41015 -0.003,-0.0976 0.0107,-0.18504 0.0195,-0.27735 -0.16483,-0.008 -0.32783,-0.0231 -0.49414,-0.0254 l -0.38672,0 z m -6.66016,3.35352 c 0.0798,0.0108 0.17664,0.0962 0.27344,0.10351 0.0913,0.003 0.16653,-0.0502 0.22266,-0.0351 0.14295,0.0376 0.20267,0.25357 0.0684,0.35937 -0.11176,0.014 -0.15601,-0.0481 -0.24024,-0.0332 -0.23216,0.0395 -0.32065,0.49356 -0.49414,0.47851 -0.16363,-0.014 -0.25208,-0.41257 -0.0859,-0.53125 0.0108,-0.1036 -0.0755,-0.12025 -0.0703,-0.22265 0.0494,-0.0633 0.18978,-0.13065 0.32617,-0.11914 z m -0.76953,0.0527 c 0.0476,0.002 0.0833,0.0125 0.10156,0.0332 -0.0227,0.18219 -0.16593,0.17093 -0.30664,0.25586 -0.24301,0.14667 -0.38361,0.37026 -0.46093,0.68359 -0.0224,0.0913 -0.26128,0.33276 -0.37696,0.30859 -0.27105,-0.0571 0.0749,-0.55687 0.13672,-0.63281 0.0683,-0.0842 0.15965,-0.15867 0.24025,-0.25585 0.0781,-0.0941 0.12974,-0.22122 0.20506,-0.27345 0.0825,-0.0571 0.31813,-0.12462 0.46094,-0.11914 z m 2.02344,0.61524 c 0.0868,0.002 0.16361,0.0156 0.19922,0.0508 -0.0557,0.22573 -0.54092,0.16553 -0.71875,0.084 0.0116,-0.0851 0.14394,-0.1079 0.25586,-0.11914 0.0787,-0.003 0.17699,-0.0181 0.26367,-0.0156 z m -1.10742,0.41601 c 0.0577,-0.002 0.11703,0.0113 0.17773,0.0274 -0.15732,0.13157 -0.3275,0.20552 -0.59765,0.29101 -0.1299,0.0411 -0.35494,0.0924 -0.37696,-0.0527 -0.0269,-0.1778 0.18998,-0.13644 0.30861,-0.15235 0.14931,-0.0206 0.31333,-0.10768 0.48827,-0.11328 z m 17.16992,0.25391 c 0.0129,0.12844 0.0151,0.25039 -0.0195,0.38867 -0.0465,0.18518 -0.21323,0.35312 -0.20508,0.51367 0.0108,0.0825 0.10091,0.16186 0.1211,0.27344 0.0108,0.0592 -0.0277,0.18629 0,0.24023 0.0868,0.16832 0.32394,0.0257 0.47852,0.0508 0.151,0.0243 0.32591,0.24093 0.32422,0.41016 -0.002,0.11785 -0.11284,0.31419 -0.1875,0.42774 -0.14901,0.22659 -0.35079,0.23656 -0.56445,0.35742 -0.17819,0.10101 -0.25493,0.26959 -0.35938,0.44531 -0.11318,0.18978 -0.18334,0.30512 -0.13673,0.58008 -0.15275,0.30298 -0.38474,0.48868 -0.70116,0.63281 -0.0936,0.0423 -0.22078,0.0569 -0.30665,0.11914 -0.0683,0.0492 -0.10793,0.18185 -0.20508,0.29102 -0.11988,0.13341 -0.24556,0.18908 -0.30858,0.29101 -0.0487,0.0787 -0.0653,0.23608 -0.11915,0.3418 -0.073,0.14355 -0.2284,0.2139 -0.32422,0.35937 -0.0437,0.0673 -0.0728,0.20296 -0.12109,0.29102 -0.10827,0.19679 -0.29332,0.33866 -0.27344,0.51172 0.0198,0.16729 0.2097,0.19597 0.22265,0.3418 0.003,0.0824 -0.0542,0.13282 -0.0508,0.22265 0.003,0.13116 0.0912,0.22328 0.10157,0.32422 0.0255,0.2538 -0.087,0.35578 -0.13477,0.5293 -0.0227,0.0829 -0.0132,0.17546 -0.0352,0.24023 -0.0418,0.12702 -0.21915,0.24237 -0.22264,0.39258 -0.002,0.10672 0.11013,0.19199 0.11914,0.3418 0.003,0.10328 -0.0514,0.21364 -0.0332,0.30859 0.0363,0.18601 0.3691,0.40234 0.51366,0.54688 0.19338,0.19336 0.44599,0.34314 0.52929,0.54687 0.0703,0.17305 0.0703,0.39892 0.20509,0.5293 0.0997,0.0963 0.26485,0.1557 0.39258,0.25586 0.11912,0.0935 0.24961,0.17423 0.37695,0.27343 0.20807,0.16275 0.52204,0.48789 0.85352,0.4629 0.17306,-0.0127 0.35054,-0.15458 0.54687,-0.18946 0.202,-0.0361 0.4642,-0.0542 0.66797,-0.0332 0.15609,0.0156 0.31626,0.10901 0.47852,0.10157 0.17132,-0.0108 0.36782,-0.13763 0.5625,-0.22266 0.30763,-0.13389 0.75501,-0.30025 1.20508,-0.27539 0.0861,-0.63034 0.14648,-1.2691 0.14648,-1.92383 0,-2.6491 -0.74147,-5.11294 -2.00977,-7.22071 -0.0589,-0.004 -0.11306,-0.0121 -0.17773,-0.01 -0.17344,0.0108 -0.45836,0.0108 -0.46094,-0.20507 -0.002,-0.17731 0.16725,-0.21647 0.36914,-0.22852 -0.37762,-0.57782 -0.80115,-1.1209 -1.25781,-1.63476 z m -21.36914,6.41406 c -0.28395,0.0156 -0.46943,0.0286 -0.63086,0.10155 -0.36987,0.16833 -0.29844,0.66886 -0.66797,0.78711 -0.12781,0.0409 -0.30265,0.0424 -0.44336,0.0684 -0.12141,0.0221 -0.26939,0.0885 -0.39453,0.0859 -0.14806,-0.003 -0.40609,-0.14563 -0.49414,-0.24022 -0.0606,-0.0656 -0.15981,-0.29494 -0.22461,-0.44728 -0.0892,0.49211 -0.15078,0.99303 -0.1875,1.50195 0.0303,0.006 0.0623,0.0137 0.0879,0.0137 0.16186,9.8e-4 0.335,-0.16697 0.51367,-0.17187 0.41908,-0.0116 0.60104,0.53328 0.93946,0.70117 0.0851,0.0423 0.19705,0.0441 0.30664,0.0684 0.0885,0.0198 0.155,0.057 0.24023,0.0859 0.18077,0.0613 0.40227,0.0547 0.54688,0.11914 0.21791,0.0967 0.37707,0.50562 0.56445,0.61523 0.0108,0.11049 -0.0204,0.25942 0.0176,0.34179 0.0885,0.12003 0.21352,0.0936 0.35937,0.17188 0.17446,0.0941 0.22723,0.3359 0.39258,0.41016 0.057,0.0254 0.20085,0.0231 0.29102,0.0508 0.22657,0.0686 0.29994,0.33076 0.49414,0.27344 0.12738,-0.0375 0.11803,-0.16925 0.13867,-0.29101 0.0842,-0.0913 0.1754,-0.2357 0.30664,-0.23828 0.21237,-0.0108 0.23131,0.21951 0.30859,0.42578 0.0436,0.11656 0.15772,0.21881 0.1875,0.34179 0.0529,0.21238 0.0272,0.84762 -0.0176,0.97461 -0.0535,0.15573 -0.26452,0.22186 -0.39453,0.39454 -0.0613,0.0809 -0.0905,0.19894 -0.13672,0.25585 -0.0837,0.10188 -0.20887,0.12862 -0.27148,0.22266 -0.0354,0.0529 -0.0691,0.16668 -0.10352,0.23828 -0.10263,0.2175 -0.24063,0.37169 -0.15429,0.63281 0.0361,0.10748 0.20466,0.18017 0.20508,0.30665 4.4e-4,0.14884 -0.31726,0.28215 -0.3418,0.44531 -0.0181,0.12141 0.0982,0.3381 0.13672,0.49609 0.0283,0.11938 0.25386,0.194 0.32422,0.27344 0.12001,0.13468 0.21654,0.32495 0.32617,0.49414 0.21672,0.33278 0.38664,0.73814 0.59765,1.06055 0.11152,0.16886 0.2675,0.32081 0.3418,0.49609 0.038,0.0885 0.0334,0.19396 0.0684,0.27344 0.12216,0.27573 0.66107,0.56432 0.93945,0.70117 0.13034,0.0634 0.27497,0.0861 0.39453,0.15234 0.18117,0.10101 0.53939,0.3724 0.63086,0.53125 0.0815,0.14278 0.13227,0.48973 0.17188,0.71681 0.0529,0.30003 0.002,0.53052 0.0176,0.85546 0.0108,0.17575 0.0665,0.35316 0.0684,0.52929 9.3e-4,0.0617 -0.0325,0.10698 -0.0352,0.16993 -0.003,0.21323 0.0534,0.45343 0.0352,0.66797 -0.001,0.046 -0.006,0.0806 -0.0137,0.12109 1.67757,0.70807 3.52365,1.09961 5.46484,1.09961 0.20315,0 0.40057,-0.0228 0.60156,-0.0312 0.005,-0.0319 0.009,-0.064 0.0156,-0.0898 0.0619,-0.17342 0.22148,-0.23118 0.32422,-0.35938 0.078,-0.0967 0.11364,-0.20998 0.1875,-0.30664 0.0803,-0.10532 0.15216,-0.19827 0.20508,-0.29101 0.0505,-0.31209 -0.12435,-0.52954 -0.0508,-0.80274 0.0817,-0.30688 0.50534,-0.49435 0.80273,-0.63281 0.1023,-0.0475 0.2077,-0.12538 0.29102,-0.1543 0.20581,-0.0717 0.4622,-0.0329 0.65039,-0.10156 0.32025,-0.11721 0.35378,-0.46016 0.51172,-0.75195 0.0745,-0.13818 0.17289,-0.27657 0.1875,-0.375 0.0127,-0.0885 -0.0319,-0.17109 -0.0176,-0.27539 0.0156,-0.10329 0.10807,-0.19321 0.13671,-0.30665 0.0375,-0.14806 0.0527,-0.36436 0.0527,-0.52928 0,-0.13537 -0.0627,-0.25485 -0.0684,-0.37697 -0.0221,-0.44336 0.16017,-0.49307 0.32422,-0.73437 0.0823,-0.11987 0.11247,-0.2559 0.16993,-0.3418 0.27537,-0.41087 0.75331,-0.60938 0.71875,-1.23047 -0.0116,-0.20552 -0.13984,-0.67071 -0.29102,-0.73632 -0.0865,-0.0376 -0.28502,-0.003 -0.41016,-0.0508 -0.40401,-0.15071 -0.64192,-0.65161 -1.06054,-0.6836 -0.0894,-0.0108 -0.17088,0.0368 -0.27149,0.0352 -0.16571,-0.0108 -0.41616,-0.11608 -0.59961,-0.13672 -0.11656,-0.0127 -0.27181,0.0346 -0.34179,0 -0.10673,-0.0519 -0.11826,-0.24799 -0.20508,-0.30664 -0.0689,-0.0473 -0.20223,-0.0631 -0.30664,-0.10351 -0.16833,-0.0648 -0.30187,-0.14076 -0.4961,-0.1543 -0.0599,-0.003 -0.13528,0.0286 -0.20507,0.0176 -0.10748,-0.0181 -0.19186,-0.14471 -0.29102,-0.20508 -0.12421,-0.0756 -0.23967,-0.11285 -0.29102,-0.2207 0.11225,-0.36816 -0.19796,-0.47089 -0.27343,-0.68361 -0.0361,-0.0997 -0.0192,-0.21968 -0.0508,-0.30859 -0.0445,-0.12739 -0.17055,-0.20039 -0.3086,-0.30664 -0.24736,-0.19038 -0.46682,-0.3685 -0.82031,-0.41211 -0.1554,-0.0198 -0.30835,0.0467 -0.49609,0.0352 -0.19897,-0.0127 -0.44882,-0.18732 -0.59766,-0.35742 -0.14468,-0.16606 -0.21576,-0.31513 -0.3418,-0.39453 -0.11939,-0.0767 -0.27783,-0.0747 -0.35937,-0.15235 -0.0363,-0.0339 -0.0296,-0.092 -0.0684,-0.17187 -0.06,-0.12434 -0.16071,-0.19283 -0.0859,-0.3418 -0.13621,-0.07 -0.14001,0.12937 -0.28906,0.10352 -0.13285,-0.18858 -0.24517,-0.27796 -0.54688,-0.22266 -0.13817,0.0255 -0.21595,0.20074 -0.37695,0.20508 -0.13202,0.0108 -0.23579,-0.14711 -0.41016,-0.17188 -0.1316,-0.0181 -0.28132,0.0355 -0.375,0.0176 -0.1459,-0.0291 -0.19095,-0.15064 -0.32422,-0.23828 -0.0977,-0.0642 -0.28698,-0.17362 -0.34179,-0.17188 -0.17182,0.0108 -0.29431,0.36579 -0.53125,0.24023 -0.11515,-0.1459 0.18744,-0.22285 0.0508,-0.35937 -0.1036,-0.1036 -0.1906,0.0463 -0.27344,0.10352 -0.0949,0.0655 -0.18417,0.13111 -0.28906,0.16992 -0.2348,0.0879 -0.38095,0.0418 -0.56445,0.13672 -0.16991,0.088 -0.17717,0.23531 -0.27344,0.41016 -0.0787,0.14325 -0.25869,0.35073 -0.37696,0.35937 -0.14325,0.0108 -0.28021,-0.19966 -0.41015,-0.25586 -0.39145,-0.16956 -0.5812,0.14995 -0.90625,0.1543 -0.30168,0.0108 -0.73195,-0.48591 -0.7168,-0.76953 0.003,-0.17306 0.0989,-0.4363 0.11914,-0.65039 0.0181,-0.17026 0.13476,-0.27232 0.13672,-0.42773 0.003,-0.20763 -0.27547,-0.36796 -0.41016,-0.39258 -0.31936,-0.0587 -0.76289,0.1289 -1.1289,-0.0176 -0.07,-0.11584 0.0819,-0.19592 0.12109,-0.3086 0.0221,-0.064 0.0103,-0.15025 0.0332,-0.2207 0.0406,-0.10886 0.15403,-0.19325 0.20507,-0.30859 0.0382,-0.088 0.0475,-0.21501 0.0859,-0.32422 0.0445,-0.12434 0.1271,-0.20381 0.13672,-0.29102 0.0127,-0.11514 -0.0309,-0.24829 -0.12109,-0.32422 z m 4.57031,3.61914 c 0.11585,0.0108 0.13019,0.25028 0.0117,0.26953 -0.12781,0.0199 -0.19223,-0.20046 -0.0684,-0.25781 0.0207,-0.0108 0.04,-0.0128 0.0566,-0.0117 z"
       id="path34-3" />
    <path
       style="fill:url(#linearGradient4177);fill-rule:evenodd;stroke:none;stroke-width:1px;stroke-linecap:butt;stroke-linejoin:miter;stroke-opacity:1;fill-opacity:1;opacity:0.2"
       d="M 16.099609 9 L 15 10 L 15 12 L 13 12 L 12 13 L 11 14 L 11 15 L 11 16 L 11 20 L 20.318359 29.318359 C 24.427418 27.994597 27.683775 24.829671 29.148438 20.787109 L 20.599609 12.199219 L 19.908203 12.828125 L 16.099609 9 z "
       transform="translate(384.57143,515.798)"
       id="path4165" />
    <path
       style="opacity:1;fill:url(#linearGradient4251);fill-opacity:1.0;stroke:none;stroke-opacity:1"
       d="M 16 9 A 2 2 0 0 0 14 11 A 2 2 0 0 0 14.03125 11.337891 A 6 5.9999738 0 0 0 10 17 A 6 5.9999738 0 0 0 16 23 A 6 5.9999738 0 0 0 22 17 A 6 5.9999738 0 0 0 20.865234 13.498047 A 1 1 0 0 0 21 13 A 1 1 0 0 0 20 12 A 1 1 0 0 0 19.5 12.134766 A 6 5.9999738 0 0 0 17.970703 11.339844 A 2 2 0 0 0 18 11 A 2 2 0 0 0 16 9 z M 16 10 A 1 1 0 0 1 17 11 A 1 1 0 0 1 16.994141 11.083984 A 6 5.9999738 0 0 0 16 11 A 6 5.9999738 0 0 0 15.003906 11.089844 A 1 1 0 0 1 15 11 A 1 1 0 0 1 16 10 z M 16 12 A 4.9999881 5 0 0 1 16.441406 12.021484 A 5 4.9999781 0 0 1 16.5 12.025391 A 5 4.9999781 0 0 1 16.630859 12.044922 A 4.9999881 5 0 0 1 16.949219 12.095703 A 5 4.9999781 0 0 1 17.083984 12.125 A 4.9999881 5 0 0 1 17.453125 12.220703 A 5 4.9999781 0 0 1 17.556641 12.251953 A 5 4.9999781 0 0 1 17.558594 12.251953 A 5 4.9999781 0 0 1 17.621094 12.275391 A 4.9999881 5 0 0 1 17.962891 12.408203 A 5 4.9999781 0 0 1 18.095703 12.46875 A 4.9999881 5 0 0 1 18.423828 12.634766 A 5 4.9999781 0 0 1 18.511719 12.685547 A 4.9999881 5 0 0 1 18.876953 12.919922 A 5 4.9999781 0 0 1 18.890625 12.927734 A 4.9999881 5 0 0 1 18.951172 12.972656 A 5 4.9999781 0 0 1 19 13.007812 A 4.9999881 5 0 0 1 19.992188 14 A 4.9999881 5 0 0 1 19.994141 14.003906 A 4.9999881 5 0 0 1 20.259766 14.394531 A 5 4.9999781 0 0 1 20.273438 14.414062 A 4.9999881 5 0 0 1 20.28125 14.429688 A 4.9999881 5 0 0 1 20.505859 14.845703 A 5 4.9999781 0 0 1 20.509766 14.853516 A 4.9999881 5 0 0 1 20.513672 14.861328 A 4.9999881 5 0 0 1 20.689453 15.283203 A 5 4.9999781 0 0 1 20.710938 15.341797 A 4.9999881 5 0 0 1 20.830078 15.730469 A 5 4.9999781 0 0 1 20.861328 15.853516 A 4.9999881 5 0 0 1 20.925781 16.175781 A 5 4.9999781 0 0 1 20.957031 16.376953 A 4.9999881 5 0 0 1 20.982422 16.65625 A 5 4.9999781 0 0 1 21 17 A 4.9999881 5 0 0 1 20.978516 17.441406 A 5 4.9999781 0 0 1 20.953125 17.650391 A 4.9999881 5 0 0 1 20.910156 17.925781 A 5 4.9999781 0 0 1 20.857422 18.162109 A 4.9999881 5 0 0 1 20.796875 18.404297 A 5 4.9999781 0 0 1 20.712891 18.654297 A 4.9999881 5 0 0 1 20.632812 18.875 A 5 4.9999781 0 0 1 20.513672 19.136719 A 4.9999881 5 0 0 1 20.427734 19.314453 A 5 4.9999781 0 0 1 20.283203 19.568359 A 4.9999881 5 0 0 1 20.167969 19.755859 A 5 4.9999781 0 0 1 20.009766 19.976562 A 4.9999881 5 0 0 1 19.873047 20.15625 A 5 4.9999781 0 0 1 19.699219 20.355469 A 4.9999881 5 0 0 1 19.533203 20.533203 A 5 4.9999781 0 0 1 19.355469 20.699219 A 4.9999881 5 0 0 1 19.15625 20.873047 A 5 4.9999781 0 0 1 18.976562 21.009766 A 4.9999881 5 0 0 1 18.755859 21.167969 A 5 4.9999781 0 0 1 18.568359 21.283203 A 4.9999881 5 0 0 1 18.314453 21.427734 A 5 4.9999781 0 0 1 18.136719 21.513672 A 4.9999881 5 0 0 1 17.875 21.632812 A 5 4.9999781 0 0 1 17.654297 21.712891 A 4.9999881 5 0 0 1 17.404297 21.796875 A 5 4.9999781 0 0 1 17.162109 21.857422 A 4.9999881 5 0 0 1 16.925781 21.910156 A 5 4.9999781 0 0 1 16.650391 21.953125 A 4.9999881 5 0 0 1 16.441406 21.978516 A 5 4.9999781 0 0 1 16 22 A 4.9999881 5 0 0 1 15.558594 21.978516 A 5 4.9999781 0 0 1 15.349609 21.953125 A 4.9999881 5 0 0 1 15.074219 21.910156 A 5 4.9999781 0 0 1 14.837891 21.857422 A 4.9999881 5 0 0 1 14.595703 21.796875 A 5 4.9999781 0 0 1 14.345703 21.712891 A 4.9999881 5 0 0 1 14.125 21.632812 A 5 4.9999781 0 0 1 13.863281 21.513672 A 4.9999881 5 0 0 1 13.685547 21.427734 A 5 4.9999781 0 0 1 13.431641 21.283203 A 4.9999881 5 0 0 1 13.244141 21.167969 A 5 4.9999781 0 0 1 13.023438 21.009766 A 4.9999881 5 0 0 1 12.84375 20.873047 A 5 4.9999781 0 0 1 12.644531 20.699219 A 4.9999881 5 0 0 1 12.466797 20.533203 A 5 4.9999781 0 0 1 12.300781 20.355469 A 4.9999881 5 0 0 1 12.126953 20.15625 A 5 4.9999781 0 0 1 11.990234 19.976562 A 4.9999881 5 0 0 1 11.832031 19.755859 A 5 4.9999781 0 0 1 11.716797 19.568359 A 4.9999881 5 0 0 1 11.572266 19.314453 A 5 4.9999781 0 0 1 11.486328 19.136719 A 4.9999881 5 0 0 1 11.367188 18.875 A 5 4.9999781 0 0 1 11.287109 18.654297 A 4.9999881 5 0 0 1 11.203125 18.404297 A 5 4.9999781 0 0 1 11.142578 18.162109 A 4.9999881 5 0 0 1 11.089844 17.925781 A 5 4.9999781 0 0 1 11.046875 17.650391 A 4.9999881 5 0 0 1 11.021484 17.441406 A 5 4.9999781 0 0 1 11 17 A 4.9999881 5 0 0 1 11.021484 16.558594 A 5 4.9999781 0 0 1 11.044922 16.369141 A 4.9999881 5 0 0 1 11.095703 16.050781 A 5 4.9999781 0 0 1 11.126953 15.90625 A 4.9999881 5 0 0 1 11.214844 15.564453 A 5 4.9999781 0 0 1 11.261719 15.421875 A 4.9999881 5 0 0 1 11.378906 15.099609 A 5 4.9999781 0 0 1 11.451172 14.939453 A 4.9999881 5 0 0 1 11.595703 14.644531 A 5 4.9999781 0 0 1 11.664062 14.523438 A 4.9999881 5 0 0 1 11.859375 14.205078 A 5 4.9999781 0 0 1 11.921875 14.119141 A 4.9999881 5 0 0 1 12.167969 13.796875 A 5 4.9999781 0 0 1 12.207031 13.751953 A 4.9999881 5 0 0 1 12.521484 13.416016 A 4.9999881 5 0 0 1 12.890625 13.091797 A 5 4.9999781 0 0 1 12.914062 13.072266 A 4.9999881 5 0 0 1 13.291016 12.804688 A 5 4.9999781 0 0 1 13.332031 12.779297 A 4.9999881 5 0 0 1 13.738281 12.546875 A 4.9999881 5 0 0 1 14.193359 12.34375 A 4.9999881 5 0 0 1 15.314453 12.052734 A 5 4.9999781 0 0 1 15.339844 12.048828 A 5 4.9999781 0 0 1 15.361328 12.046875 A 4.9999881 5 0 0 1 15.732422 12.013672 A 5 4.9999781 0 0 1 15.845703 12.005859 A 5 4.9999781 0 0 1 16 12 z M 16 13 L 16 16 A 0.99999762 1 0 0 1 17 17 L 20 17 A 3.9999905 4 0 0 0 19.982422 16.662109 A 3.9999905 4 0 0 0 19.957031 16.451172 A 3.9999905 4 0 0 0 19.929688 16.265625 A 3.9999905 4 0 0 0 19.878906 16.042969 A 3.9999905 4 0 0 0 19.839844 15.888672 A 3.9999905 4 0 0 0 19.769531 15.673828 A 3.9999905 4 0 0 0 19.703125 15.494141 A 3.9999905 4 0 0 0 19.625 15.320312 A 3.9999905 4 0 0 0 19.535156 15.134766 A 3.9999905 4 0 0 0 19.441406 14.970703 A 3.9999905 4 0 0 0 19.326172 14.783203 A 3.9999905 4 0 0 0 19.228516 14.648438 A 3.9999905 4 0 0 0 19.087891 14.462891 A 3.9999905 4 0 0 0 18.974609 14.333984 A 3.9999905 4 0 0 0 18.826172 14.173828 A 3.9999905 4 0 0 0 18.666016 14.025391 A 3.9999905 4 0 0 0 18.537109 13.912109 A 3.9999905 4 0 0 0 18.351562 13.771484 A 3.9999905 4 0 0 0 18.216797 13.673828 A 3.9999905 4 0 0 0 18.029297 13.558594 A 3.9999905 4 0 0 0 17.865234 13.464844 A 3.9999905 4 0 0 0 17.679688 13.375 A 3.9999905 4 0 0 0 17.505859 13.296875 A 3.9999905 4 0 0 0 17.326172 13.230469 A 3.9999905 4 0 0 0 17.111328 13.160156 A 3.9999905 4 0 0 0 16.957031 13.121094 A 3.9999905 4 0 0 0 16.734375 13.070312 A 3.9999905 4 0 0 0 16.548828 13.042969 A 3.9999905 4 0 0 0 16.337891 13.017578 A 3.9999905 4 0 0 0 16 13 z "
       transform="translate(384.57143,515.798)"
       id="path4210" />
  </g>
</svg>
