<?xml version="1.0" encoding="UTF-8" standalone="no"?>
<!-- Created with Inkscape (http://www.inkscape.org/) -->

<svg
   xmlns:dc="http://purl.org/dc/elements/1.1/"
   xmlns:cc="http://creativecommons.org/ns#"
   xmlns:rdf="http://www.w3.org/1999/02/22-rdf-syntax-ns#"
   xmlns:svg="http://www.w3.org/2000/svg"
   xmlns="http://www.w3.org/2000/svg"
   xmlns:xlink="http://www.w3.org/1999/xlink"
   xmlns:sodipodi="http://sodipodi.sourceforge.net/DTD/sodipodi-0.dtd"
   xmlns:inkscape="http://www.inkscape.org/namespaces/inkscape"
   width="32"
   height="32"
   id="svg5453"
   version="1.1"
   inkscape:version="0.91+devel r"
   sodipodi:docname="preferences-desktop-cryptography.svg">
  <defs
     id="defs5455">
    <linearGradient
       inkscape:collect="always"
       id="linearGradient4303-2">
      <stop
         style="stop-color:#c6cdd1;stop-opacity:1"
         offset="0"
         id="stop4305-6" />
      <stop
         style="stop-color:#e0e5e7;stop-opacity:1"
         offset="1"
         id="stop4307-5" />
    </linearGradient>
    <linearGradient
       id="linearGradient4903"
       inkscape:collect="always">
      <stop
         id="stop4905"
         offset="0"
         style="stop-color:#eef1f2;stop-opacity:1" />
      <stop
         id="stop4907"
         offset="1"
         style="stop-color:#f9fafb;stop-opacity:1" />
    </linearGradient>
    <linearGradient
       inkscape:collect="always"
       id="linearGradient4227-9">
      <stop
         style="stop-color:#292c2f;stop-opacity:1"
         offset="0"
         id="stop4229-5" />
      <stop
         style="stop-color:#000000;stop-opacity:0;"
         offset="1"
         id="stop4231-6" />
    </linearGradient>
    <linearGradient
       inkscape:collect="always"
       xlink:href="#linearGradient4903"
       id="linearGradient4035"
       gradientUnits="userSpaceOnUse"
       gradientTransform="matrix(0.7499999,0,0,0.78768837,382.57142,512.85956)"
       x1="24.000042"
       y1="38"
       x2="24.000042"
       y2="5" />
    <linearGradient
       inkscape:collect="always"
       xlink:href="#linearGradient4303-2"
       id="linearGradient4042"
       gradientUnits="userSpaceOnUse"
       gradientTransform="matrix(0.87499999,0,0,0.79999648,43.071491,112.76137)"
       x1="409.57144"
       y1="543.79797"
       x2="409.57144"
       y2="503.798" />
    <linearGradient
       inkscape:collect="always"
       xlink:href="#linearGradient4227-9"
       id="linearGradient4363"
       x1="393.57144"
       y1="521.79803"
       x2="407.57144"
       y2="535.79797"
       gradientUnits="userSpaceOnUse"
       gradientTransform="translate(-384.57143,-515.798)" />
  </defs>
  <sodipodi:namedview
     id="base"
     pagecolor="#ffffff"
     bordercolor="#666666"
     borderopacity="1.0"
     inkscape:pageopacity="0"
     inkscape:pageshadow="2"
     inkscape:zoom="22.627416"
     inkscape:cx="16.378582"
     inkscape:cy="17.771933"
     inkscape:document-units="px"
     inkscape:current-layer="layer1"
     showgrid="true"
     fit-margin-top="0"
     fit-margin-left="0"
     fit-margin-right="0"
     fit-margin-bottom="0"
     inkscape:window-width="1366"
     inkscape:window-height="670"
     inkscape:window-x="-4"
     inkscape:window-y="29"
     inkscape:window-maximized="1"
     inkscape:showpageshadow="false"
     borderlayer="true"
     showguides="true"
     inkscape:snap-global="true"
     inkscape:snap-bbox="true">
    <inkscape:grid
       type="xygrid"
       id="grid4063" />
    <sodipodi:guide
       position="4.2167969e-05,32.000026"
       orientation="32,0"
       id="guide4625" />
    <sodipodi:guide
       position="4.2167969e-05,2.6367188e-05"
       orientation="0,31.999969"
       id="guide4627" />
    <sodipodi:guide
       position="32.000012,2.6367188e-05"
       orientation="-32,0"
       id="guide4629" />
    <sodipodi:guide
       position="32.000012,32.000026"
       orientation="0,-31.999969"
       id="guide4631" />
    <sodipodi:guide
       position="2.0000422,30.000026"
       orientation="28,0"
       id="guide4633" />
    <sodipodi:guide
       position="2.0000422,2.0000264"
       orientation="0,27.999969"
       id="guide4635" />
    <sodipodi:guide
       position="30,17"
       orientation="-28,0"
       id="guide4637" />
    <sodipodi:guide
       position="30.000012,30.000026"
       orientation="0,-27.999969"
       id="guide4639" />
    <sodipodi:guide
       position="9.0000117,25.999965"
       orientation="14,0"
       id="guide4174" />
    <sodipodi:guide
       position="9.0000117,11.999965"
       orientation="0,14"
       id="guide4176" />
    <sodipodi:guide
       position="23.000012,11.999965"
       orientation="-14,0"
       id="guide4178" />
    <sodipodi:guide
       position="23.000012,25.999965"
       orientation="0,-14"
       id="guide4180" />
  </sodipodi:namedview>
  <metadata
     id="metadata5458">
    <rdf:RDF>
      <cc:Work
         rdf:about="">
        <dc:format>image/svg+xml</dc:format>
        <dc:type
           rdf:resource="http://purl.org/dc/dcmitype/StillImage" />
        <dc:title />
      </cc:Work>
    </rdf:RDF>
  </metadata>
  <g
     inkscape:label="Capa 1"
     inkscape:groupmode="layer"
     id="layer1"
     transform="translate(-384.57143,-515.798)">
    <flowRoot
       xml:space="preserve"
       id="flowRoot4170"
       style="font-size:10px;font-style:normal;font-variant:normal;font-weight:normal;font-stretch:normal;text-align:start;line-height:125%;letter-spacing:0px;word-spacing:0px;writing-mode:lr-tb;text-anchor:start;fill:#000000;fill-opacity:1;stroke:none;font-family:sans-serif;-inkscape-font-specification:'sans-serif, Normal'"
       transform="translate(389.57142,520.79805)"><flowRegion
         id="flowRegion4172"><rect
           id="rect4174"
           width="27"
           height="15"
           x="22"
           y="3" /></flowRegion><flowPara
         id="flowPara4176">Plasm</flowPara></flowRoot>    <rect
       style="fill:url(#linearGradient4042);fill-opacity:1;stroke:none"
       id="rect4139"
       width="27.999956"
       height="31.999834"
       x="386.57147"
       y="515.79797"
       ry="0" />
    <rect
       style="fill:#99a1a7;fill-opacity:1;stroke:none"
       id="rect4188"
       width="27.999956"
       height="2.9998333"
       x="386.57147"
       y="544.79797" />
    <rect
       style="fill:#737b81;fill-opacity:1;stroke:none"
       id="rect4492"
       width="27.999956"
       height="0.99983472"
       x="386.57147"
       y="546.79797" />
    <rect
       style="fill:#292c2e;fill-opacity:1;stroke:none"
       id="rect4671"
       width="9.9999924"
       height="2.9999883"
       x="394.57144"
       y="544.79797" />
    <path
       style="fill:#292c2e;fill-opacity:1;stroke:none"
       d="m 407.57143,544.798 5,0 0,3 -5,0 z"
       id="rect4673"
       inkscape:connector-curvature="0"
       sodipodi:nodetypes="ccccc" />
    <path
       style="fill:url(#linearGradient4035);fill-opacity:1;stroke:none"
       d="m 388.57143,516.798 0,4.72613 0,7.27387 c 1.53125,0 2,1.10767 2,2.5 0,1.39233 -0.57004,2.52725 -2,2.5 l 0,3 c 0,6.30151 12,5.99372 12,5.99372 l 7,0.006 5,-6 0,-3 -1,0 0,-5 1,0 0,-7.27387 0,-0.78769 0,-0.14307 0,-3.79537 -1.49999,0 -20.25001,0 z"
       id="rect4768"
       inkscape:connector-curvature="0"
       sodipodi:nodetypes="cccscccccccccccccccc" />
    <path
       style="fill:#4c5154;fill-opacity:1;stroke:none"
       d="m 396.17142,545.798 0,1 6.48421,0 0,-1 -6.48421,0 z m 12.1579,0 0,1 2.43158,0 0,1 0.81053,0 0,-1 0,-1 -3.24211,0 z"
       id="rect4191"
       inkscape:connector-curvature="0" />
    <rect
       style="fill:#202324;fill-opacity:1;stroke:none"
       id="rect4194"
       width="9.9999924"
       height="0.99981362"
       x="394.57144"
       y="546.79797" />
    <rect
       style="fill:#202324;fill-opacity:1;stroke:none"
       id="rect4196"
       width="5.0000105"
       height="0.99996012"
       x="407.57144"
       y="546.79797" />
    <path
       style="opacity:0.2;fill:url(#linearGradient4363);fill-opacity:1;fill-rule:evenodd;stroke:none;stroke-width:1px;stroke-linecap:butt;stroke-linejoin:miter;stroke-opacity:1"
       d="M 16.800781 6.0996094 L 15 7 L 13 9 L 13 10 L 13 13 L 11 13 L 11 20 L 31 32 L 31 15 L 16.800781 6.0996094 z "
       transform="translate(384.57143,515.798)"
       id="path4355" />
    <path
       sodipodi:nodetypes="sssssccccccccccccssssssssss"
       inkscape:connector-curvature="0"
       id="rect4119"
       d="m 390.57143,517.79797 c -0.1385,0 -0.25,0.1115 -0.25,0.25 0,0.1385 0.1115,0.25 0.25,0.25 0.1385,0 0.25,-0.1115 0.25,-0.25 0,-0.1385 -0.1115,-0.25 -0.25,-0.25 z m 1.75,0 -0.5,0.5 0.75,0.75 -0.25,0.25 -0.25,0.25 -0.25,0.25 0.5,0.5 0.25,-0.25 0.25,-0.25 0.25,-0.25 0.5,-0.5 z m -2.375,1.5 c -0.20775,0 -0.375,0.16725 -0.375,0.375 0,0.20775 0.16725,0.375 0.375,0.375 0.20775,0 0.375,-0.16725 0.375,-0.375 0,-0.20775 -0.16725,-0.375 -0.375,-0.375 z m 1.125,1.5 c -0.277,0 -0.5,0.223 -0.5,0.5 0,0.277 0.223,0.5 0.5,0.5 0.277,0 0.5,-0.223 0.5,-0.5 0,-0.277 -0.223,-0.5 -0.5,-0.5 z"
       style="fill:#4d4d4d;fill-opacity:1;stroke:none" />
    <rect
       y="517.79797"
       x="405.57144"
       height="1"
       width="6.0000114"
       id="rect4979"
       style="fill:#4d4d4d;fill-opacity:1;stroke:none" />
    <rect
       y="519.79797"
       x="407.57144"
       height="1"
       width="4.0000229"
       id="rect4981"
       style="fill:#4d4d4d;fill-opacity:1;stroke:none" />
    <path
       style="fill:#da4453;fill-opacity:1;stroke:none"
       d="M 16 6 C 14.338 6 13 7.338 13 9 L 13 10 L 13 13 L 12 13 L 11 13 L 11 13.75 L 11 20 L 21 20 L 21 13 L 19 13 L 19 9 C 19 7.338 17.662 6 16 6 z M 16 7 C 17.2465 7 18 7.5458 18 9 L 18 13 L 15 13 L 14 13 L 14 10 L 14 9 C 14 7.5458 14.75351 7 16 7 z M 12 14 L 20 14 L 20 19 L 12 19 L 12 14 z "
       transform="translate(384.57143,515.798)"
       id="rect4136-1" />
  </g>
</svg>
