<?xml version="1.0" encoding="UTF-8" standalone="no"?>
<!-- Created with Inkscape (http://www.inkscape.org/) -->

<svg
   xmlns:dc="http://purl.org/dc/elements/1.1/"
   xmlns:cc="http://creativecommons.org/ns#"
   xmlns:rdf="http://www.w3.org/1999/02/22-rdf-syntax-ns#"
   xmlns:svg="http://www.w3.org/2000/svg"
   xmlns="http://www.w3.org/2000/svg"
   xmlns:xlink="http://www.w3.org/1999/xlink"
   xmlns:sodipodi="http://sodipodi.sourceforge.net/DTD/sodipodi-0.dtd"
   xmlns:inkscape="http://www.inkscape.org/namespaces/inkscape"
   width="32"
   height="32"
   id="svg5453"
   version="1.1"
   inkscape:version="0.91+devel r"
   sodipodi:docname="preferences-web-browser-adblock.svg">
  <defs
     id="defs5455">
    <linearGradient
       id="linearGradient4293"
       inkscape:collect="always">
      <stop
         id="stop4295"
         offset="0"
         style="stop-color:#000000;stop-opacity:1;" />
      <stop
         id="stop4297"
         offset="1"
         style="stop-color:#000000;stop-opacity:0;" />
    </linearGradient>
    <linearGradient
       id="linearGradient4303-6"
       inkscape:collect="always">
      <stop
         id="stop4305-7"
         offset="0"
         style="stop-color:#c6cdd1;stop-opacity:1" />
      <stop
         id="stop4307-0"
         offset="1"
         style="stop-color:#e0e5e7;stop-opacity:1" />
    </linearGradient>
    <linearGradient
       inkscape:collect="always"
       xlink:href="#linearGradient4303-6"
       id="linearGradient4643-8"
       gradientUnits="userSpaceOnUse"
       gradientTransform="matrix(0.66666726,0,0,0.63518419,128.19015,198.5187)"
       x1="409.57144"
       y1="543.79797"
       x2="409.57144"
       y2="502.65509" />
    <linearGradient
       inkscape:collect="always"
       xlink:href="#linearGradient4293"
       id="linearGradient4183"
       x1="391.57144"
       y1="525.79797"
       x2="406.57147"
       y2="540.79797"
       gradientUnits="userSpaceOnUse" />
    <linearGradient
       inkscape:collect="always"
       xlink:href="#linearGradient4227"
       id="linearGradient4181"
       x1="16"
       y1="27"
       x2="16"
       y2="9"
       gradientUnits="userSpaceOnUse" />
    <linearGradient
       id="linearGradient4227">
      <stop
         offset="0"
         style="stop-color:#2e3436;stop-opacity:1"
         id="stop4229" />
      <stop
         offset="1"
         style="stop-color:#555753;stop-opacity:1"
         id="stop4231" />
    </linearGradient>
    <linearGradient
       inkscape:collect="always"
       xlink:href="#linearGradient4227-2"
       id="linearGradient4220"
       x1="18"
       y1="14.999974"
       x2="30"
       y2="26.999973"
       gradientUnits="userSpaceOnUse" />
    <linearGradient
       inkscape:collect="always"
       id="linearGradient4227-2">
      <stop
         style="stop-color:#292c2f;stop-opacity:1"
         offset="0"
         id="stop4229-9" />
      <stop
         style="stop-color:#000000;stop-opacity:0;"
         offset="1"
         id="stop4231-0" />
    </linearGradient>
  </defs>
  <sodipodi:namedview
     id="base"
     pagecolor="#ffffff"
     bordercolor="#666666"
     borderopacity="1.0"
     inkscape:pageopacity="0"
     inkscape:pageshadow="2"
     inkscape:zoom="22.627416"
     inkscape:cx="15.16804"
     inkscape:cy="11.511746"
     inkscape:document-units="px"
     inkscape:current-layer="layer1"
     showgrid="true"
     fit-margin-top="0"
     fit-margin-left="0"
     fit-margin-right="0"
     fit-margin-bottom="0"
     inkscape:window-width="1366"
     inkscape:window-height="670"
     inkscape:window-x="-4"
     inkscape:window-y="29"
     inkscape:window-maximized="1"
     inkscape:showpageshadow="false"
     borderlayer="true"
     showguides="true"
     inkscape:snap-bbox="true"
     inkscape:snap-global="true">
    <inkscape:grid
       type="xygrid"
       id="grid4063" />
    <sodipodi:guide
       position="4.2167969e-05,32.000026"
       orientation="32,0"
       id="guide4625" />
    <sodipodi:guide
       position="4.2167969e-05,2.6367188e-05"
       orientation="0,31.999969"
       id="guide4627" />
    <sodipodi:guide
       position="32.000012,2.6367188e-05"
       orientation="-32,0"
       id="guide4629" />
    <sodipodi:guide
       position="32.000012,32.000026"
       orientation="0,-31.999969"
       id="guide4631" />
    <sodipodi:guide
       position="2.0000422,30.000026"
       orientation="28,0"
       id="guide4633" />
    <sodipodi:guide
       position="2.0000422,2.0000264"
       orientation="0,27.999969"
       id="guide4635" />
    <sodipodi:guide
       position="30,17"
       orientation="-28,0"
       id="guide4637" />
    <sodipodi:guide
       position="30.000012,30.000026"
       orientation="0,-27.999969"
       id="guide4639" />
    <sodipodi:guide
       position="18.000012,17.000026"
       orientation="12,0"
       id="guide4178" />
    <sodipodi:guide
       position="18.000012,5.0000264"
       orientation="0,12"
       id="guide4180" />
    <sodipodi:guide
       position="30.000012,5.0000264"
       orientation="-12,0"
       id="guide4182" />
    <sodipodi:guide
       position="30.000012,17.000026"
       orientation="0,-12"
       id="guide4184" />
  </sodipodi:namedview>
  <metadata
     id="metadata5458">
    <rdf:RDF>
      <cc:Work
         rdf:about="">
        <dc:format>image/svg+xml</dc:format>
        <dc:type
           rdf:resource="http://purl.org/dc/dcmitype/StillImage" />
        <dc:title />
      </cc:Work>
    </rdf:RDF>
  </metadata>
  <g
     inkscape:label="Capa 1"
     inkscape:groupmode="layer"
     id="layer1"
     transform="translate(-384.57143,-515.798)">
    <rect
       ry="0"
       y="517.79797"
       x="384.57144"
       height="28"
       width="32"
       id="rect4641-5"
       style="opacity:1;fill:url(#linearGradient4643-8);fill-opacity:1;stroke:none" />
    <path
       style="fill:url(#linearGradient4183);fill-rule:evenodd;stroke:none;stroke-width:1px;stroke-linecap:butt;stroke-linejoin:miter;stroke-opacity:1;fill-opacity:1;opacity:0.2"
       d="m 385.57143,543.798 30,-20 1.00001,1 -10e-6,20.99997 -29,3e-5 z"
       id="path4167"
       inkscape:connector-curvature="0" />
    <rect
       style="opacity:1;fill:#566069;fill-opacity:1;stroke:none"
       id="rect4647-8"
       width="32.000011"
       height="4"
       x="384.57141"
       y="517.79797" />
    <rect
       style="opacity:1;fill:#3daee9;fill-opacity:1;stroke:none"
       id="rect4649-8"
       width="31.999968"
       height="1"
       x="384.57141"
       y="521.79797" />
    <rect
       style="opacity:1;fill:#ffffff;fill-opacity:1;stroke:none"
       id="rect4653-5"
       width="30"
       height="20.000027"
       x="385.57141"
       y="523.79797" />
    <rect
       style="opacity:1;fill:#eff0f1;fill-opacity:1;stroke:none"
       id="rect4661-1"
       width="2"
       height="2"
       x="413.57141"
       y="518.79797"
       rx="1"
       ry="1" />
    <path
       style="color:#000000;fill:url(#linearGradient4181);fill-opacity:1;fill-rule:nonzero;stroke:none;stroke-width:2;marker:none;visibility:visible;display:inline;overflow:visible;enable-background:accumulate"
       d="M 2 9 L 2 10 L 29 10 L 29 9 L 2 9 z M 2 12 L 2 13 L 24 13 L 24 12 L 2 12 z M 2 15 L 2 16 L 11 16 L 11 15 L 2 15 z M 18 15 L 18 27 L 30 27 L 30 15 L 18 15 z M 19 16 L 29 16 L 29 25 L 29 26 L 19 26 L 19 25 L 19 16 z M 19 25 L 21 25 L 23 23 L 22 22 L 19 25 z M 29 25 L 26 22 L 23 25 L 29 25 z M 21.5 17 C 20.669 17 20 17.669 20 18.5 C 20 19.331 20.669 20 21.5 20 C 22.331 20 23 19.331 23 18.5 C 23 17.669 22.331 17 21.5 17 z M 2 18 L 2 19 L 16 19 L 16 18 L 2 18 z M 2 21 L 2 22 L 13 22 L 13 21 L 2 21 z M 2 24 L 2 25 L 16 25 L 16 24 L 2 24 z "
       transform="translate(384.57143,515.798)"
       id="rect3814" />
    <path
       style="opacity:0.2;fill:url(#linearGradient4220);fill-opacity:1.0;fill-rule:evenodd;stroke:none;stroke-width:1px;stroke-linecap:butt;stroke-linejoin:miter;stroke-opacity:1"
       d="M 25.099609,15.181641 24,15.681641 24,16 22,16 c 0,0 -1,1 -2,1 -1,0 -1,2 -1,2 l 0,3 1,3 0.283203,-0.494141 0.117188,1.175782 L 25,30 l 7,0 0,-9 -3.599609,-4.019531 0.507812,1.529297 z"
       transform="translate(384.57143,515.798)"
       id="path4165"
       inkscape:connector-curvature="0"
       sodipodi:nodetypes="ccccsccccccccccc" />
    <path
       style="color:#000000;fill:#da4453;fill-opacity:1;fill-rule:nonzero;stroke:none;stroke-width:2;marker:none;visibility:visible;display:inline;overflow:visible;enable-background:accumulate"
       d="M 24 15 C 20.68629 15 18 17.68629 18 21 C 18 24.31371 20.68629 27 24 27 C 27.31371 27 30 24.31371 30 21 C 30 17.68629 27.31371 15 24 15 z M 24 16 C 26.76142 16 29 18.23858 29 21 C 29 22.205108 28.555786 23.294852 27.845703 24.158203 L 20.841797 17.154297 C 21.705148 16.444214 22.794892 16 24 16 z M 20.154297 17.841797 L 27.158203 24.845703 C 26.294852 25.555786 25.205108 26 24 26 C 21.23858 26 19 23.76142 19 21 C 19 19.794892 19.444214 18.705148 20.154297 17.841797 z "
       transform="translate(384.57143,515.798)"
       id="path3806" />
    <path
       id="path4164"
       transform="translate(384.57143,515.798)"
       d="M 24 15 C 20.68629 15 18 17.68629 18 21 C 18 24.31371 20.68629 27 24 27 C 27.31371 27 30 24.31371 30 21 C 30 17.68629 27.31371 15 24 15 z M 24 16 C 26.76142 16 29 18.23858 29 21 C 29 22.205108 28.555786 23.294852 27.845703 24.158203 L 20.841797 17.154297 C 21.705148 16.444214 22.794892 16 24 16 z M 20.154297 17.841797 L 27.158203 24.845703 C 26.294852 25.555786 25.205108 26 24 26 C 21.23858 26 19 23.76142 19 21 C 19 19.794892 19.444214 18.705148 20.154297 17.841797 z "
       style="color:#000000;fill:#da4453;fill-opacity:1;fill-rule:nonzero;stroke:none;stroke-width:2;marker:none;visibility:visible;display:inline;overflow:visible;enable-background:accumulate" />
  </g>
</svg>
