<?xml version="1.0" encoding="UTF-8" standalone="no"?>
<!-- Created with Inkscape (http://www.inkscape.org/) -->

<svg
   xmlns:dc="http://purl.org/dc/elements/1.1/"
   xmlns:cc="http://creativecommons.org/ns#"
   xmlns:rdf="http://www.w3.org/1999/02/22-rdf-syntax-ns#"
   xmlns:svg="http://www.w3.org/2000/svg"
   xmlns="http://www.w3.org/2000/svg"
   xmlns:xlink="http://www.w3.org/1999/xlink"
   xmlns:sodipodi="http://sodipodi.sourceforge.net/DTD/sodipodi-0.dtd"
   xmlns:inkscape="http://www.inkscape.org/namespaces/inkscape"
   width="32"
   height="32"
   id="svg5453"
   version="1.1"
   inkscape:version="0.91 r13725"
   sodipodi:docname="system-switch-users.svg">
  <defs
     id="defs5455">
    <linearGradient
       gradientTransform="translate(-9.9503906e-6,3.0367187e-5)"
       y2="517.79797"
       x2="400.57144"
       y1="545.79797"
       x1="400.57144"
       gradientUnits="userSpaceOnUse"
       id="linearGradient3028"
       xlink:href="#linearGradient4298"
       inkscape:collect="always" />
    <linearGradient
       inkscape:collect="always"
       xlink:href="#linearGradient4374"
       id="linearGradient4211"
       gradientUnits="userSpaceOnUse"
       gradientTransform="translate(-385.57143,-514.798)"
       x1="402.57144"
       y1="537.79797"
       x2="402.57144"
       y2="523.79797" />
    <linearGradient
       inkscape:collect="always"
       xlink:href="#linearGradient4227"
       id="linearGradient4309"
       x1="9.0000114"
       y1="9"
       x2="22.999985"
       y2="22.999973"
       gradientUnits="userSpaceOnUse" />
    <linearGradient
       id="linearGradient4227"
       inkscape:collect="always">
      <stop
         id="stop4229"
         offset="0"
         style="stop-color:#292c2f;stop-opacity:1" />
      <stop
         id="stop4231"
         offset="1"
         style="stop-color:#000000;stop-opacity:0;" />
    </linearGradient>
    <linearGradient
       inkscape:collect="always"
       id="linearGradient4298">
      <stop
         style="stop-color:#42a603;stop-opacity:1"
         offset="0"
         id="stop4300" />
      <stop
         style="stop-color:#78da06;stop-opacity:1"
         offset="1"
         id="stop4302" />
    </linearGradient>
    <linearGradient
       inkscape:collect="always"
       id="linearGradient4374">
      <stop
         style="stop-color:#bcfd93;stop-opacity:1"
         offset="0"
         id="stop4376" />
      <stop
         style="stop-color:#fafff5;stop-opacity:1"
         offset="1"
         id="stop4378" />
    </linearGradient>
  </defs>
  <sodipodi:namedview
     id="base"
     pagecolor="#ffffff"
     bordercolor="#666666"
     borderopacity="1.0"
     inkscape:pageopacity="0"
     inkscape:pageshadow="2"
     inkscape:zoom="11.46875"
     inkscape:cx="16"
     inkscape:cy="16"
     inkscape:document-units="px"
     inkscape:current-layer="layer1"
     showgrid="true"
     fit-margin-top="0"
     fit-margin-left="0"
     fit-margin-right="0"
     fit-margin-bottom="0"
     inkscape:window-width="1024"
     inkscape:window-height="544"
     inkscape:window-x="0"
     inkscape:window-y="0"
     inkscape:window-maximized="1"
     inkscape:showpageshadow="false"
     borderlayer="true"
     showguides="true"
     inkscape:snap-bbox="true"
     inkscape:snap-global="true">
    <inkscape:grid
       type="xygrid"
       id="grid4063" />
    <sodipodi:guide
       position="1.1650391e-05,32.000026"
       orientation="32,0"
       id="guide4157" />
    <sodipodi:guide
       position="1.1650391e-05,2.6367188e-05"
       orientation="0,32"
       id="guide4159" />
    <sodipodi:guide
       position="32.000012,2.6367188e-05"
       orientation="-32,0"
       id="guide4161" />
    <sodipodi:guide
       position="32.000012,32.000026"
       orientation="0,-32"
       id="guide4163" />
    <sodipodi:guide
       position="2.0000117,30.000026"
       orientation="28,0"
       id="guide4167" />
    <sodipodi:guide
       position="2.0000117,2.0000264"
       orientation="0,28"
       id="guide4169" />
    <sodipodi:guide
       position="30.000012,2.0000264"
       orientation="-28,0"
       id="guide4171" />
    <sodipodi:guide
       position="30.000012,30.000026"
       orientation="0,-28"
       id="guide4173" />
    <sodipodi:guide
       position="2.0000117,30.000026"
       orientation="28,0"
       id="guide4181" />
    <sodipodi:guide
       position="2.0000117,2.0000264"
       orientation="0,14"
       id="guide4183" />
    <sodipodi:guide
       position="16.000012,2.0000264"
       orientation="-28,0"
       id="guide4185" />
    <sodipodi:guide
       position="16.000012,30.000026"
       orientation="0,-14"
       id="guide4187" />
    <sodipodi:guide
       position="9.0000117,23.000026"
       orientation="14,0"
       id="guide4193" />
    <sodipodi:guide
       position="9.0000117,9.0000264"
       orientation="0,14.000031"
       id="guide4195" />
    <sodipodi:guide
       position="23.000042,9.0000264"
       orientation="-14,0"
       id="guide4197" />
    <sodipodi:guide
       position="23.000042,23.000026"
       orientation="0,-14.000031"
       id="guide4199" />
  </sodipodi:namedview>
  <metadata
     id="metadata5458">
    <rdf:RDF>
      <cc:Work
         rdf:about="">
        <dc:format>image/svg+xml</dc:format>
        <dc:type
           rdf:resource="http://purl.org/dc/dcmitype/StillImage" />
        <dc:title />
      </cc:Work>
    </rdf:RDF>
  </metadata>
  <g
     inkscape:label="Capa 1"
     inkscape:groupmode="layer"
     id="layer1"
     transform="translate(-384.57143,-515.798)">
    <rect
       style="fill:url(#linearGradient3028);fill-opacity:1.0;stroke:none"
       id="rect4130"
       width="28.000011"
       height="28.000027"
       x="386.57144"
       y="517.79797"
       ry="14.000006" />
    <path
       style="fill:url(#linearGradient4309);fill-rule:evenodd;stroke:none;stroke-width:1px;stroke-linecap:butt;stroke-linejoin:miter;stroke-opacity:1;fill-opacity:1;opacity:0.2"
       d="M 18 10 L 17 11 L 17 13 L 18 14 L 19 15 L 19 16 L 15 12 L 14 12 L 12 12 L 11 13 L 11 15 L 12 16 L 13 17 L 13 18 L 11 18 L 10 19 L 9 21 L 8 23 L 14.947266 29.947266 C 15.295937 29.973043 15.644521 30 16 30 C 22.820439 30 28.466359 25.169592 29.730469 18.730469 L 21 10 L 20 10 L 18 10 z "
       transform="translate(384.57143,515.798)"
       id="path4297" />
    <path
       style="fill:url(#linearGradient4211);fill-opacity:1.0;stroke:none"
       d="M 19 9.0996094 C 17.338 9.0996094 16 10.437609 16 12.099609 C 16 13.553859 17.02502 14.760238 18.394531 15.039062 C 17.230356 15.179342 16.192931 15.715879 15.417969 16.511719 A 6 6 0 0 1 16.347656 17.023438 C 17.05393 16.394217 17.975308 16 19 16 C 21.21602 16 23 17.78398 23 20 L 18.650391 20 A 6 6 0 0 1 18.914062 21 L 24 21 L 24 20 C 24 17.43566 22.08694 15.337009 19.605469 15.039062 C 20.97498 14.760238 22 13.553859 22 12.099609 C 22 10.437609 20.662 9.0996094 19 9.0996094 z M 19 10.099609 C 20.108 10.099609 21 10.991609 21 12.099609 C 21 13.207609 20.108 14.099609 19 14.099609 C 17.892 14.099609 17 13.207609 17 12.099609 C 17 10.991609 17.892 10.099609 19 10.099609 z M 13 11 C 11.338 11 10 12.338 10 14 C 10 15.662 11.338 17 13 17 C 14.662 17 16 15.662 16 14 C 16 12.338 14.662 11 13 11 z M 13 17 C 10.22998 17 8 19.22998 8 22 L 8 23 L 18 23 L 18 22 C 18 19.22998 15.77002 17 13 17 z M 13 12 C 14.108 12 15 12.892 15 14 C 15 15.108 14.108 16 13 16 C 11.892 16 11 15.108 11 14 C 11 12.892 11.892 12 13 12 z M 13 18 C 15.21602 18 17 19.78398 17 22 L 9 22 C 9 19.78398 10.78398 18 13 18 z "
       transform="translate(384.57143,515.798)"
       id="path4202" />
  </g>
</svg>
