<?xml version="1.0" encoding="UTF-8" standalone="no"?>
<!-- Created with Inkscape (http://www.inkscape.org/) -->

<svg
   xmlns:dc="http://purl.org/dc/elements/1.1/"
   xmlns:cc="http://creativecommons.org/ns#"
   xmlns:rdf="http://www.w3.org/1999/02/22-rdf-syntax-ns#"
   xmlns:svg="http://www.w3.org/2000/svg"
   xmlns="http://www.w3.org/2000/svg"
   xmlns:sodipodi="http://sodipodi.sourceforge.net/DTD/sodipodi-0.dtd"
   xmlns:inkscape="http://www.inkscape.org/namespaces/inkscape"
   width="24"
   height="24"
   id="svg2"
   version="1.1"
   inkscape:version="0.91 r13725"
   viewBox="0 0 24 24"
   sodipodi:docname="distribute-horizontal-baseline.svg">
  <defs
     id="defs4" />
  <sodipodi:namedview
     id="base"
     pagecolor="#ffffff"
     bordercolor="#666666"
     borderopacity="1.0"
     inkscape:pageopacity="0.0"
     inkscape:pageshadow="2"
     inkscape:zoom="33.683996"
     inkscape:cx="9.1914307"
     inkscape:cy="13.354899"
     inkscape:document-units="px"
     inkscape:current-layer="layer1"
     showgrid="true"
     inkscape:showpageshadow="false"
     borderlayer="true"
     inkscape:window-width="1920"
     inkscape:window-height="957"
     inkscape:window-x="-4"
     inkscape:window-y="0"
     inkscape:window-maximized="1"
     units="px"
     fit-margin-top="0"
     fit-margin-left="0"
     fit-margin-right="0"
     fit-margin-bottom="0"
     inkscape:object-nodes="true"
     inkscape:snap-bbox="true">
    <sodipodi:guide
       position="4,20"
       orientation="16,0"
       id="guide4093" />
    <sodipodi:guide
       position="4,4"
       orientation="0,16"
       id="guide4095" />
    <sodipodi:guide
       position="20,4"
       orientation="-16,0"
       id="guide4097" />
    <sodipodi:guide
       position="20,20"
       orientation="0,-16"
       id="guide4099" />
    <inkscape:grid
       type="xygrid"
       id="grid4101"
       originx="1px"
       originy="0.99998262px" />
    <sodipodi:guide
       position="4,20"
       orientation="16,0"
       id="guide4123" />
    <sodipodi:guide
       position="4,4"
       orientation="0,2.000001"
       id="guide4125" />
    <sodipodi:guide
       position="6.000001,20"
       orientation="0,-2.000001"
       id="guide4129" />
    <sodipodi:guide
       position="18,4"
       orientation="0,2"
       id="guide4133" />
    <sodipodi:guide
       position="20,4"
       orientation="-16,0"
       id="guide4135" />
    <sodipodi:guide
       position="20,20"
       orientation="0,-2"
       id="guide4137" />
  </sodipodi:namedview>
  <metadata
     id="metadata7">
    <rdf:RDF>
      <cc:Work
         rdf:about="">
        <dc:format>image/svg+xml</dc:format>
        <dc:type
           rdf:resource="http://purl.org/dc/dcmitype/StillImage" />
        <dc:title></dc:title>
      </cc:Work>
    </rdf:RDF>
  </metadata>
  <g
     inkscape:label="Capa 1"
     inkscape:groupmode="layer"
     id="layer1"
     transform="translate(1,-1029.3622)">
    <g
       style="font-style:normal;font-variant:normal;font-weight:bold;font-stretch:normal;font-size:9.10746765px;line-height:125%;font-family:Oxygen;-inkscape-font-specification:'Oxygen Bold';letter-spacing:0px;word-spacing:0px;fill:#4d4d4d;fill-opacity:1;stroke:none"
       id="text4225"
       transform="matrix(1.4972899,0,0,1.399986,-635.93709,298.09138)">
      <path
         d="m 429.62869,533.18963 0.12751,0.51002 0.96539,0 0,-3.36977 c 0,-1.02914 -0.71038,-1.53916 -1.80328,-1.53916 l -0.10929,0 c -0.78324,0.0182 -1.38433,0.15483 -1.82149,0.35519 l 0.2459,0.90164 c 0.20947,-0.0729 1.00182,-0.32787 1.4663,-0.32787 l 0.0638,0 c 0.64663,0.0273 0.69217,0.26412 0.69217,0.81967 l 0,0.21858 -0.33697,0.0547 c -1.56649,0.22769 -2.40438,0.41894 -2.40438,1.62113 0,0.83789 0.6102,1.35701 1.49363,1.35701 0.6102,0 1.01093,-0.25501 1.42076,-0.60109 z m -1.20218,-0.20947 c -0.39162,0 -0.58288,-0.24591 -0.58288,-0.59199 0,-0.65574 0.57377,-0.76503 1.27505,-0.86521 l 0.33697,-0.0546 0,1.12021 c -0.33697,0.22769 -0.59198,0.39163 -1.02914,0.39163 z"
         id="path4237"
         inkscape:connector-curvature="0" />
    </g>
    <path
       style="color:#000000;font-style:normal;font-variant:normal;font-weight:normal;font-stretch:normal;font-size:medium;line-height:normal;font-family:Sans;-inkscape-font-specification:Sans;text-indent:0;text-align:start;text-decoration:none;text-decoration-line:none;letter-spacing:normal;word-spacing:normal;text-transform:none;direction:ltr;block-progression:tb;writing-mode:lr-tb;baseline-shift:baseline;text-anchor:start;display:inline;overflow:visible;visibility:visible;fill:#4d4d4d;fill-opacity:1;stroke:none;stroke-width:1px;marker:none;enable-background:accumulate"
       d="m 12.242122,1039.9322 c 0,1.8985 1.3415,3.4704 2.35001,4.4352 -1.19879,1.2178 -2.67725,1.7675 -5.3811008,2.2315 l 0.27693,1.3333 c 6.0273708,-1.0344 8.7230508,-4.8245 8.7230508,-8 l -1.47693,0 c 0,0.9235 -0.46588,2.7069 -1.26503,3.3935 -0.81579,-0.7731 -1.80088,-1.9689 -2.03807,-3.3718 z"
       id="path3781"
       inkscape:connector-curvature="0"
       sodipodi:nodetypes="ccccccccc" />
    <path
       style="opacity:1;fill:#4d4d4d;fill-opacity:1;stroke:none"
       d="m 6.0003112,1033.3627 -3.0000001,2 3.0000001,2 0,-4 z m 3.9999998,0 0,4 3.000001,-2 -3.000001,-2 z"
       id="rect4109"
       inkscape:connector-curvature="0" />
  </g>
</svg>
