<?xml version="1.0" encoding="UTF-8" standalone="no"?>
<!-- Created with Inkscape (http://www.inkscape.org/) -->

<svg
   xmlns:dc="http://purl.org/dc/elements/1.1/"
   xmlns:cc="http://creativecommons.org/ns#"
   xmlns:rdf="http://www.w3.org/1999/02/22-rdf-syntax-ns#"
   xmlns:svg="http://www.w3.org/2000/svg"
   xmlns="http://www.w3.org/2000/svg"
   xmlns:sodipodi="http://sodipodi.sourceforge.net/DTD/sodipodi-0.dtd"
   xmlns:inkscape="http://www.inkscape.org/namespaces/inkscape"
   width="24"
   height="24"
   id="svg3869"
   version="1.1"
   inkscape:version="0.91 r13725"
   sodipodi:docname="edit-select-lasso.svg">
  <defs
     id="defs3871">
    <linearGradient
       id="linearGradient3257">
      <stop
         offset="0"
         style="stop-color:#a50000;stop-opacity:1"
         id="stop3259" />
      <stop
         offset="1"
         style="stop-color:#e73800;stop-opacity:1"
         id="stop3261" />
    </linearGradient>
  </defs>
  <sodipodi:namedview
     id="base"
     pagecolor="#ffffff"
     bordercolor="#666666"
     borderopacity="1.0"
     inkscape:pageopacity="0.0"
     inkscape:pageshadow="2"
     inkscape:zoom="22.627416"
     inkscape:cx="5.4926209"
     inkscape:cy="10.264796"
     inkscape:document-units="px"
     inkscape:current-layer="layer1"
     showgrid="true"
     fit-margin-top="0"
     fit-margin-left="0"
     fit-margin-right="0"
     fit-margin-bottom="0"
     inkscape:window-width="1366"
     inkscape:window-height="709"
     inkscape:window-x="-4"
     inkscape:window-y="0"
     inkscape:window-maximized="1"
     inkscape:showpageshadow="false"
     inkscape:object-nodes="true"
     inkscape:snap-bbox="true">
    <inkscape:grid
       type="xygrid"
       id="grid4132" />
    <sodipodi:guide
       position="4,18"
       orientation="18,0"
       id="guide4138" />
    <sodipodi:guide
       position="5,3"
       orientation="0,18"
       id="guide4140" />
    <sodipodi:guide
       position="20,2.0000174"
       orientation="-18,0"
       id="guide4142" />
    <sodipodi:guide
       position="2,21"
       orientation="0,-18"
       id="guide4144" />
    <sodipodi:guide
       position="3,19.000017"
       orientation="16,0"
       id="guide4146" />
    <sodipodi:guide
       position="2,4"
       orientation="0,16"
       id="guide4148" />
    <sodipodi:guide
       position="21,20"
       orientation="-16,0"
       id="guide4150" />
    <sodipodi:guide
       position="2,20"
       orientation="0,-16"
       id="guide4152" />
  </sodipodi:namedview>
  <metadata
     id="metadata3874">
    <rdf:RDF>
      <cc:Work
         rdf:about="">
        <dc:format>image/svg+xml</dc:format>
        <dc:type
           rdf:resource="http://purl.org/dc/dcmitype/StillImage" />
        <dc:title></dc:title>
      </cc:Work>
    </rdf:RDF>
  </metadata>
  <g
     inkscape:label="Capa 1"
     inkscape:groupmode="layer"
     id="layer1"
     transform="translate(-326,-532.3622)">
    <g
       transform="translate(327.00586,-496.99956)"
       id="layer1-3"
       inkscape:label="Capa 1">
      <path
         id="path4150"
         transform="translate(0,1030.3622)"
         d="M 10.912109,3 A 8,6.0000086 0 0 0 8.4941406,3.3027344 L 9.3320312,4.1445312 A 7,5 0 0 1 11,3.9960938 7,5 0 0 1 11.527344,4.015625 L 10.912109,3 Z m 1.207032,0.0625 0.669921,1.1054688 a 7,5 0 0 1 2.742188,1.0175781 l 0.8125,-0.6445313 A 8,6.0000086 0 0 0 12.119141,3.0625 Z M 7.4179688,3.6386719 a 8,6.0000086 0 0 0 -1.859375,0.96875 L 6.53125,5.1542969 A 7,5 0 0 1 8.1953125,4.421875 L 7.4179688,3.6386719 Z m 9.7402342,1.53125 -0.789062,0.6269531 a 7,5 0 0 1 0.794921,0.8378906 l 1,-0.2929687 A 8,6.0000086 0 0 0 17.158203,5.1699219 Z M 4.71875,5.28125 A 8,6.0000086 0 0 0 3.6855469,6.5859375 L 4.6171875,6.953125 A 7,5 0 0 1 5.6289062,5.7929688 L 4.71875,5.28125 Z m 13.929688,1.9609375 -0.966797,0.2832031 a 7,5 0 0 1 0.296875,1.0898438 l 1.005859,0.1367187 A 8,6.0000086 0 0 0 18.648438,7.2421875 Z m -15.3867192,0.25 A 8,6.0000086 0 0 0 3.0039062,8.9179688 L 4.0078125,8.8730469 A 7,5 0 0 1 4.1894531,7.859375 L 3.2617188,7.4921875 Z M 17.939453,9.6191406 a 7,5 0 0 1 -0.587891,1.4667974 l 0.990235,0.27539 A 8,6.0000086 0 0 0 18.925781,9.7539062 L 17.939453,9.6191406 Z m -13.830078,0.25 -1.0058594,0.044922 a 8,6.0000086 0 0 0 0.5625,1.4726564 L 4.5761719,10.96875 A 7,5 0 0 1 4.109375,9.8691406 Z m 1.0878906,1.9160154 -0.9394531,0.429688 a 8,6.0000086 0 0 0 1.7714844,1.466797 C 6.6653321,16.057247 4.1888458,18.182986 5,18.994141 c 1.1347133,0.108115 1.8091634,-1.566816 2.0820312,-3.189453 0.1020726,-0.13893 0.4709963,-0.666933 0.7675782,-1.296876 a 8,6.0000086 0 0 0 3.1406246,0.488282 L 9.9238281,13.929688 A 7,5 0 0 1 8.1367188,13.544922 C 8.1446418,13.100869 7.8709493,12.821326 7.0019531,13 7.000905,12.998623 7.0010552,12.995491 7,12.994141 c -0.079193,0 -0.1576316,-0.01579 -0.2363281,-0.02734 A 7,5 0 0 1 5.1972656,11.785156 Z m 11.4609374,0.146485 a 7,5 0 0 1 -1.673828,1.167968 l 0.976563,0.595703 a 8,6.0000086 0 0 0 1.777343,-1.46289 l -1.080078,-0.300781 z m -2.833984,1.632812 a 7,5 0 0 1 -2.429688,0.421875 l 0.921875,0.921875 a 8,6.0000086 0 0 0 2.59375,-0.681641 l -1.085937,-0.662109 z"
         style="opacity:1;fill:#4d4d4d;fill-opacity:1;stroke:none;stroke-width:8;stroke-linecap:round;stroke-linejoin:round;stroke-miterlimit:4;stroke-dasharray:none;stroke-opacity:1"
         inkscape:connector-curvature="0" />
    </g>
  </g>
</svg>
