<?xml version="1.0" encoding="UTF-8" standalone="no"?>
<!-- Created with Inkscape (http://www.inkscape.org/) -->

<svg
   xmlns:dc="http://purl.org/dc/elements/1.1/"
   xmlns:cc="http://creativecommons.org/ns#"
   xmlns:rdf="http://www.w3.org/1999/02/22-rdf-syntax-ns#"
   xmlns:svg="http://www.w3.org/2000/svg"
   xmlns="http://www.w3.org/2000/svg"
   xmlns:sodipodi="http://sodipodi.sourceforge.net/DTD/sodipodi-0.dtd"
   xmlns:inkscape="http://www.inkscape.org/namespaces/inkscape"
   width="24"
   height="24"
   id="svg3869"
   version="1.1"
   inkscape:version="0.91 r13725"
   sodipodi:docname="games-highscores.svg">
  <defs
     id="defs3871">
    <linearGradient
       id="linearGradient3257">
      <stop
         offset="0"
         style="stop-color:#a50000;stop-opacity:1"
         id="stop3259" />
      <stop
         offset="1"
         style="stop-color:#e73800;stop-opacity:1"
         id="stop3261" />
    </linearGradient>
    <clipPath
       clipPathUnits="userSpaceOnUse"
       id="clipPath4210">
      <rect
         y="1024.3622"
         x="-7"
         height="34"
         width="34"
         id="rect4212"
         style="opacity:1;fill:#0000ff;fill-opacity:0.51376145;stroke:none;stroke-opacity:1" />
    </clipPath>
    <clipPath
       clipPathUnits="userSpaceOnUse"
       id="clipPath4160">
      <rect
         style="opacity:1;fill:#aade87;fill-opacity:0.47247709;stroke:none;stroke-opacity:1"
         id="rect4162"
         width="32"
         height="32.000015"
         x="-6"
         y="1028.3619" />
    </clipPath>
  </defs>
  <sodipodi:namedview
     id="base"
     pagecolor="#ffffff"
     bordercolor="#666666"
     borderopacity="1.0"
     inkscape:pageopacity="0.0"
     inkscape:pageshadow="2"
     inkscape:zoom="22.627416"
     inkscape:cx="5.4926209"
     inkscape:cy="10.264796"
     inkscape:document-units="px"
     inkscape:current-layer="layer1"
     showgrid="true"
     fit-margin-top="0"
     fit-margin-left="0"
     fit-margin-right="0"
     fit-margin-bottom="0"
     inkscape:window-width="1366"
     inkscape:window-height="709"
     inkscape:window-x="-4"
     inkscape:window-y="0"
     inkscape:window-maximized="1"
     inkscape:showpageshadow="false"
     inkscape:object-nodes="true"
     inkscape:snap-bbox="true">
    <inkscape:grid
       type="xygrid"
       id="grid4132" />
    <sodipodi:guide
       position="4,18"
       orientation="18,0"
       id="guide4138" />
    <sodipodi:guide
       position="5,3"
       orientation="0,18"
       id="guide4140" />
    <sodipodi:guide
       position="20,2.0000174"
       orientation="-18,0"
       id="guide4142" />
    <sodipodi:guide
       position="2,21"
       orientation="0,-18"
       id="guide4144" />
    <sodipodi:guide
       position="3,19.000017"
       orientation="16,0"
       id="guide4146" />
    <sodipodi:guide
       position="2,4"
       orientation="0,16"
       id="guide4148" />
    <sodipodi:guide
       position="21,20"
       orientation="-16,0"
       id="guide4150" />
    <sodipodi:guide
       position="2,20"
       orientation="0,-16"
       id="guide4152" />
  </sodipodi:namedview>
  <metadata
     id="metadata3874">
    <rdf:RDF>
      <cc:Work
         rdf:about="">
        <dc:format>image/svg+xml</dc:format>
        <dc:type
           rdf:resource="http://purl.org/dc/dcmitype/StillImage" />
        <dc:title></dc:title>
      </cc:Work>
    </rdf:RDF>
  </metadata>
  <g
     inkscape:label="Capa 1"
     inkscape:groupmode="layer"
     id="layer1"
     transform="translate(-326,-532.3622)">
    <g
       transform="translate(-224.28572,-74.2857)"
       id="layer1-6"
       inkscape:label="Capa 1">
      <path
         inkscape:connector-curvature="0"
         id="rect4118"
         transform="translate(550.28572,606.6479)"
         d="M 16.978516,4 C 15.465022,4.4377241 13.748442,4.6693848 12,4.671875 10.251603,4.6707433 8.5343535,4.4404299 7.0195312,4.0039062 7.0416342,4.6933546 7.0966507,5.3493587 7.15625,6 L 7,6 C 7,5 6,5 6,5 L 5,5 4,5 4,7 4.0078125,7 C 4.0072569,7.0337531 4,7.0657146 4,7.0996094 4,10.812041 6.506106,13.909543 9.9238281,14.820312 10.264788,15.22506 10.624017,15.538585 11,15.736328 L 11,18 l -1,0 0,1 -1,0 0,1 6,0 0,-1 -1,0 0,-1 -1,0 0,-2.263672 C 13.375468,15.53846 13.733706,15.224629 14.074219,14.820312 17.492875,13.91016 20,10.812702 20,7.0996094 20,7.0657146 19.992743,7.0337531 19.992188,7 L 20,7 20,5 19,5 18,5 17.984375,5 c 0,0 -0.70623,0.0051 -0.984375,0.9570312 L 17,6 16.984375,6 16.841797,6 c 0.05971,-0.6518197 0.114651,-1.3092529 0.136719,-2 z M 5.09375,6 6,6 c 0.26795,1 1,1 1,1 l 0.2636719,0 c 0.3251719,2.6160501 0.9374852,4.849622 1.75,6.427734 C 6.6395546,12.310166 5,9.906602 5,7.0996094 5,6.7241857 5.0373785,6.3591067 5.09375,6 Z M 12,6 12.619141,7.3164062 14,7.5273438 13,8.5527344 13.236328,10 12,9.3164062 10.763672,10 11,8.5527344 10,7.5273438 11.380859,7.3164062 12,6 Z m 6,0 0.90625,0 C 18.962621,6.3591067 19,6.7241857 19,7.0996094 19,9.908793 17.357592,12.313268 14.980469,13.429688 15.793939,11.851297 16.408955,9.6180147 16.734375,7 L 17,7 c 0,0 1,0 1,-1 z"
         style="opacity:1;fill:#4d4d4d;fill-opacity:1;stroke:none" />
    </g>
  </g>
</svg>
