<?xml version="1.0" encoding="UTF-8" standalone="no"?>
<!-- Created with Inkscape (http://www.inkscape.org/) -->

<svg
   xmlns:dc="http://purl.org/dc/elements/1.1/"
   xmlns:cc="http://creativecommons.org/ns#"
   xmlns:rdf="http://www.w3.org/1999/02/22-rdf-syntax-ns#"
   xmlns:svg="http://www.w3.org/2000/svg"
   xmlns="http://www.w3.org/2000/svg"
   xmlns:sodipodi="http://sodipodi.sourceforge.net/DTD/sodipodi-0.dtd"
   xmlns:inkscape="http://www.inkscape.org/namespaces/inkscape"
   width="24"
   height="24"
   id="svg3049"
   version="1.1"
   inkscape:version="0.91 r13725"
   sodipodi:docname="im-user-online.svg"
   inkscape:export-filename="/home/uri/.kde/share/icons/NITRUX-KDE/16x16/actions/view-right-new.png"
   inkscape:export-xdpi="30"
   inkscape:export-ydpi="30">
  <defs
     id="defs3051" />
  <sodipodi:namedview
     id="base"
     pagecolor="#ffffff"
     bordercolor="#666666"
     borderopacity="1.0"
     inkscape:pageopacity="0.0"
     inkscape:pageshadow="2"
     inkscape:zoom="25.005867"
     inkscape:cx="16.134677"
     inkscape:cy="13.288428"
     inkscape:document-units="px"
     inkscape:current-layer="layer1"
     showgrid="true"
     fit-margin-top="0"
     fit-margin-left="0"
     fit-margin-right="0"
     fit-margin-bottom="0"
     inkscape:window-width="2560"
     inkscape:window-height="957"
     inkscape:window-x="0"
     inkscape:window-y="30"
     inkscape:window-maximized="1"
     inkscape:showpageshadow="false"
     borderlayer="true">
    <sodipodi:guide
       position="2.9999912,21"
       orientation="18,0"
       id="guide4067" />
    <sodipodi:guide
       position="2.9999912,3.0000008"
       orientation="0,18"
       id="guide4069" />
    <sodipodi:guide
       position="20.999992,3.0000008"
       orientation="-18,0"
       id="guide4071" />
    <sodipodi:guide
       position="20.999992,21"
       orientation="0,-18"
       id="guide4073" />
    <sodipodi:guide
       position="3.9999912,20"
       orientation="16,0"
       id="guide4077" />
    <sodipodi:guide
       position="3.9999912,4.0000008"
       orientation="0,16"
       id="guide4079" />
    <sodipodi:guide
       position="19.999992,4.0000008"
       orientation="-16,0"
       id="guide4081" />
    <sodipodi:guide
       position="19.999992,20"
       orientation="0,-16"
       id="guide4083" />
    <inkscape:grid
       type="xygrid"
       id="grid4085"
       originx="0.9999867"
       originy="0.99997135" />
  </sodipodi:namedview>
  <metadata
     id="metadata3054">
    <rdf:RDF>
      <cc:Work
         rdf:about="">
        <dc:format>image/svg+xml</dc:format>
        <dc:type
           rdf:resource="http://purl.org/dc/dcmitype/StillImage" />
        <dc:title></dc:title>
      </cc:Work>
    </rdf:RDF>
  </metadata>
  <g
     inkscape:label="Capa 1"
     inkscape:groupmode="layer"
     id="layer1"
     transform="translate(-420.71429,-524.79071)">
    <path
       style="opacity:1;fill:#43be80;fill-opacity:1;stroke:none"
       d="m 12,4.0996094 a 3.9999902,4.0000296 0 0 0 -4,4 3.9999902,4.0000296 0 0 0 4,3.9999996 3.9999902,4.0000296 0 0 0 4,-3.9999996 3.9999902,4.0000296 0 0 0 -4,-4 z m 0,1 a 3,3.0000296 0 0 1 3,3 3,3.0000296 0 0 1 -3,2.9999996 3,3.0000296 0 0 1 -3,-2.9999996 3,3.0000296 0 0 1 3,-3 z"
       transform="translate(420.71429,524.79071)"
       id="path4149"
       inkscape:connector-curvature="0" />
    <path
       style="opacity:1;fill:#43be80;fill-opacity:1;stroke:none"
       d="m 11,12 a 7.9999504,8.0000296 0 0 0 -7.9277344,7 l 1.0078125,0 A 6.9999604,7.0000296 0 0 1 11,13 a 6.9999604,7.0000296 0 0 1 1,0.08008 l 0,-1.009766 A 7.9999504,8.0000296 0 0 0 11,12 Z"
       transform="translate(421.71429,525.79071)"
       id="ellipse4156"
       inkscape:connector-curvature="0" />
    <circle
       style="opacity:1;fill:#43be80;fill-opacity:1;stroke:none"
       id="path4144"
       cx="437.21429"
       cy="541.29071"
       r="3.5" />
    <path
       style="fill:#ffffff;fill-rule:evenodd;stroke:none;stroke-width:1px;stroke-linecap:butt;stroke-linejoin:miter;stroke-opacity:1"
       d="m 438.71428,539.79074 1,1 -3,3 -2,-2 1,-1 1,1 z"
       id="path4166"
       inkscape:connector-curvature="0" />
  </g>
</svg>
