<?xml version="1.0" encoding="UTF-8" standalone="no"?>
<!-- Created with Inkscape (http://www.inkscape.org/) -->

<svg
   xmlns:dc="http://purl.org/dc/elements/1.1/"
   xmlns:cc="http://creativecommons.org/ns#"
   xmlns:rdf="http://www.w3.org/1999/02/22-rdf-syntax-ns#"
   xmlns:svg="http://www.w3.org/2000/svg"
   xmlns="http://www.w3.org/2000/svg"
   xmlns:sodipodi="http://sodipodi.sourceforge.net/DTD/sodipodi-0.dtd"
   xmlns:inkscape="http://www.inkscape.org/namespaces/inkscape"
   width="24"
   height="24"
   id="svg3869"
   version="1.1"
   inkscape:version="0.91 r13725"
   sodipodi:docname="irc-voice.svg">
  <defs
     id="defs3871">
    <linearGradient
       id="linearGradient4066">
      <stop
         offset="0"
         style="stop-color:#dbc9ee;stop-opacity:1"
         id="stop4068" />
      <stop
         offset="1"
         style="stop-color:#faf7fd;stop-opacity:1"
         id="stop4070" />
    </linearGradient>
    <linearGradient
       id="linearGradient3843-5">
      <stop
         id="stop3845-0"
         style="stop-color:#5a2c8b;stop-opacity:1"
         offset="0" />
      <stop
         id="stop3847-4"
         style="stop-color:#9d59cf;stop-opacity:1"
         offset="1" />
    </linearGradient>
  </defs>
  <sodipodi:namedview
     id="base"
     pagecolor="#ffffff"
     bordercolor="#666666"
     borderopacity="1.0"
     inkscape:pageopacity="0.0"
     inkscape:pageshadow="2"
     inkscape:zoom="22.627416"
     inkscape:cx="5.4926209"
     inkscape:cy="10.264796"
     inkscape:document-units="px"
     inkscape:current-layer="layer1"
     showgrid="true"
     fit-margin-top="0"
     fit-margin-left="0"
     fit-margin-right="0"
     fit-margin-bottom="0"
     inkscape:window-width="1366"
     inkscape:window-height="709"
     inkscape:window-x="-4"
     inkscape:window-y="0"
     inkscape:window-maximized="1"
     inkscape:showpageshadow="false"
     inkscape:snap-bbox="true"
     inkscape:object-nodes="true">
    <inkscape:grid
       type="xygrid"
       id="grid4132" />
    <sodipodi:guide
       position="4,18"
       orientation="18,0"
       id="guide4138" />
    <sodipodi:guide
       position="5,3"
       orientation="0,18"
       id="guide4140" />
    <sodipodi:guide
       position="20,2.0000174"
       orientation="-18,0"
       id="guide4142" />
    <sodipodi:guide
       position="2,21"
       orientation="0,-18"
       id="guide4144" />
    <sodipodi:guide
       position="3,19.000017"
       orientation="16,0"
       id="guide4146" />
    <sodipodi:guide
       position="2,4"
       orientation="0,16"
       id="guide4148" />
    <sodipodi:guide
       position="21,20"
       orientation="-16,0"
       id="guide4150" />
    <sodipodi:guide
       position="2,20"
       orientation="0,-16"
       id="guide4152" />
  </sodipodi:namedview>
  <metadata
     id="metadata3874">
    <rdf:RDF>
      <cc:Work
         rdf:about="">
        <dc:format>image/svg+xml</dc:format>
        <dc:type
           rdf:resource="http://purl.org/dc/dcmitype/StillImage" />
        <dc:title></dc:title>
      </cc:Work>
    </rdf:RDF>
  </metadata>
  <g
     inkscape:label="Capa 1"
     inkscape:groupmode="layer"
     id="layer1"
     transform="translate(-326,-532.3622)">
    <g
       transform="translate(-226.72253,-49.75706)"
       id="layer1-9"
       inkscape:label="Capa 1">
      <path
         inkscape:connector-curvature="0"
         id="rect3353"
         d="m 568.72253,587.11926 -12,3.41797 0,1.04297 0,4.53906 0,0.58203 1,0.28516 0,2.13281 0,0.30078 6,1.69922 0,-1 0,-1.42383 5,1.42383 0,-1.04297 0,-10.91406 0,-1.04297 z m -1,1.32813 0,10.34375 -10,-2.84766 0,-4.64844 10,-2.84765 z m -12,2.375 -1,0.28515 0,0.0117 0,1 0,3 0,1 0,0.0117 1,0.28516 0,-0.29688 0,-0.74609 0,-3.50782 0,-0.74609 0,-0.29687 z m 3,6.44921 4,1.13868 0,1.42578 -4,-1.13282 0,-1.43164 z"
         style="opacity:1;fill:#4d4d4d;fill-opacity:1;stroke:none;stroke-width:0.1;stroke-linecap:round;stroke-linejoin:miter;stroke-miterlimit:4;stroke-dasharray:none;stroke-opacity:0.29943501" />
      <path
         sodipodi:nodetypes="cccccccccccccc"
         id="path4173"
         d="m 572.75183,587.547 -0.77149,0.63086 c 1.13726,1.77224 1.74193,3.83369 1.74219,5.93944 -0.004,2.10388 -0.61142,4.16247 -1.75,5.93164 l 0.7832,0.64258 c 1.28155,-1.95324 1.96511,-4.23808 1.9668,-6.57422 -0.004,-2.3352 -0.6885,-4.61861 -1.9707,-6.5703 z m -2.33985,1.91601 -0.78125,0.63868 c 0.71179,1.21879 1.08847,2.6042 1.0918,4.01562 -0.002,1.4119 -0.3784,2.79802 -1.08984,4.01758 l 0.78125,0.64062 c 0.85323,-1.40417 1.30578,-3.01513 1.30859,-4.6582 -0.004,-1.64193 -0.45732,-3.25146 -1.31055,-4.6543 z"
         style="opacity:1;fill:#4d4d4d;fill-opacity:1;stroke:none;stroke-width:2.79999995;stroke-miterlimit:4;stroke-dasharray:none;stroke-opacity:0.55026455"
         inkscape:connector-curvature="0" />
    </g>
  </g>
</svg>
