<?xml version="1.0" encoding="UTF-8" standalone="no"?>
<!-- Created with Inkscape (http://www.inkscape.org/) -->

<svg
   xmlns:dc="http://purl.org/dc/elements/1.1/"
   xmlns:cc="http://creativecommons.org/ns#"
   xmlns:rdf="http://www.w3.org/1999/02/22-rdf-syntax-ns#"
   xmlns:svg="http://www.w3.org/2000/svg"
   xmlns="http://www.w3.org/2000/svg"
   xmlns:sodipodi="http://sodipodi.sourceforge.net/DTD/sodipodi-0.dtd"
   xmlns:inkscape="http://www.inkscape.org/namespaces/inkscape"
   width="24"
   height="24"
   id="svg3049"
   version="1.1"
   inkscape:version="0.91 r13725"
   sodipodi:docname="media-random-albums-amarok.svg"
   inkscape:export-filename="/home/uri/.kde/share/icons/NITRUX-KDE/16x16/actions/view-right-new.png"
   inkscape:export-xdpi="30"
   inkscape:export-ydpi="30">
  <defs
     id="defs3051" />
  <sodipodi:namedview
     id="base"
     pagecolor="#ffffff"
     bordercolor="#666666"
     borderopacity="1.0"
     inkscape:pageopacity="0.0"
     inkscape:pageshadow="2"
     inkscape:zoom="16"
     inkscape:cx="10.851321"
     inkscape:cy="4.4766971"
     inkscape:document-units="px"
     inkscape:current-layer="layer1"
     showgrid="true"
     fit-margin-top="0"
     fit-margin-left="0"
     fit-margin-right="0"
     fit-margin-bottom="0"
     inkscape:window-width="2560"
     inkscape:window-height="955"
     inkscape:window-x="0"
     inkscape:window-y="35"
     inkscape:window-maximized="1"
     inkscape:showpageshadow="false"
     borderlayer="true"
     showguides="true"
     inkscape:object-nodes="true">
    <sodipodi:guide
       position="3,21"
       orientation="18,0"
       id="guide4067" />
    <sodipodi:guide
       position="3,3"
       orientation="0,18"
       id="guide4069" />
    <sodipodi:guide
       position="21,3"
       orientation="-18,0"
       id="guide4071" />
    <sodipodi:guide
       position="21,21"
       orientation="0,-18"
       id="guide4073" />
    <sodipodi:guide
       position="4,20"
       orientation="16,0"
       id="guide4077" />
    <sodipodi:guide
       position="4,4"
       orientation="0,16"
       id="guide4079" />
    <sodipodi:guide
       position="20,4"
       orientation="-16,0"
       id="guide4081" />
    <sodipodi:guide
       position="20,20"
       orientation="0,-16"
       id="guide4083" />
    <inkscape:grid
       type="xygrid"
       id="grid4085"
       originx="0.99999557"
       originy="0.99997045" />
  </sodipodi:namedview>
  <metadata
     id="metadata3054">
    <rdf:RDF>
      <cc:Work
         rdf:about="">
        <dc:format>image/svg+xml</dc:format>
        <dc:type
           rdf:resource="http://purl.org/dc/dcmitype/StillImage" />
        <dc:title></dc:title>
      </cc:Work>
    </rdf:RDF>
  </metadata>
  <g
     inkscape:label="Capa 1"
     inkscape:groupmode="layer"
     id="layer1"
     transform="translate(-420.71429,-524.79071)">
    <path
       style="fill:#4d4d4d;fill-opacity:1;stroke:none"
       d="m 2,3 0,16 5,0 0,-1 -3,0 0,-14 14,0 0,6 1.000004,0 L 19,3 Z"
       transform="translate(421.71429,525.79074)"
       id="rect4143-4"
       inkscape:connector-curvature="0"
       sodipodi:nodetypes="ccccccccccc" />
    <path
       style="opacity:1;fill:#4d4d4d;fill-opacity:1;stroke:none"
       d="m 17,11 0,1 -1,0 -0.02344,0 C 14.327554,12 13,13.327554 13,14.976562 L 13,15 c 0,1.108 -0.892,2 -2,2 l -3,0 0,1 3,0 0.02344,0 C 12.672446,18 14,16.672446 14,15.023438 L 14,15 c 0,-1.108 0.892,-2 2,-2 l 1,0 0,1 2,-1.5 -2,-1.5 z m -9,1 0,1 3,0 c 0.398899,0 0.766762,0.118675 1.078125,0.318359 0.07572,-0.336861 0.209875,-0.649217 0.388672,-0.93164 C 12.037922,12.147813 11.551108,12 11.023438,12 L 11,12 8,12 Z m 9,4 0,1 -1,0 c -0.398899,0 -0.766762,-0.118675 -1.078125,-0.318359 -0.07572,0.336861 -0.209875,0.649217 -0.388672,0.93164 C 14.962077,17.852187 15.44889,18 15.976562,18 L 16,18 l 1,0 0,1 2,-1.5 -2,-1.5 z"
       transform="translate(421.71429,525.79074)"
       id="rect3368"
       inkscape:connector-curvature="0" />
  </g>
</svg>
