<?xml version="1.0" encoding="UTF-8" standalone="no"?>
<!-- Created with Inkscape (http://www.inkscape.org/) -->

<svg
   xmlns:dc="http://purl.org/dc/elements/1.1/"
   xmlns:cc="http://creativecommons.org/ns#"
   xmlns:rdf="http://www.w3.org/1999/02/22-rdf-syntax-ns#"
   xmlns:svg="http://www.w3.org/2000/svg"
   xmlns="http://www.w3.org/2000/svg"
   xmlns:sodipodi="http://sodipodi.sourceforge.net/DTD/sodipodi-0.dtd"
   xmlns:inkscape="http://www.inkscape.org/namespaces/inkscape"
   width="24"
   height="24"
   id="svg3869"
   version="1.1"
   inkscape:version="0.91 r13725"
   sodipodi:docname="run-build-prune.svg">
  <defs
     id="defs3871" />
  <sodipodi:namedview
     id="base"
     pagecolor="#ffffff"
     bordercolor="#666666"
     borderopacity="1.0"
     inkscape:pageopacity="0.0"
     inkscape:pageshadow="2"
     inkscape:zoom="22.627416"
     inkscape:cx="5.4926209"
     inkscape:cy="10.264796"
     inkscape:document-units="px"
     inkscape:current-layer="layer1"
     showgrid="true"
     fit-margin-top="0"
     fit-margin-left="0"
     fit-margin-right="0"
     fit-margin-bottom="0"
     inkscape:window-width="1366"
     inkscape:window-height="709"
     inkscape:window-x="-4"
     inkscape:window-y="0"
     inkscape:window-maximized="1"
     inkscape:showpageshadow="false">
    <inkscape:grid
       type="xygrid"
       id="grid4132" />
    <sodipodi:guide
       position="4,18"
       orientation="18,0"
       id="guide4138" />
    <sodipodi:guide
       position="5,3"
       orientation="0,18"
       id="guide4140" />
    <sodipodi:guide
       position="20,2.0000174"
       orientation="-18,0"
       id="guide4142" />
    <sodipodi:guide
       position="2,21"
       orientation="0,-18"
       id="guide4144" />
    <sodipodi:guide
       position="3,19.000017"
       orientation="16,0"
       id="guide4146" />
    <sodipodi:guide
       position="2,4"
       orientation="0,16"
       id="guide4148" />
    <sodipodi:guide
       position="21,20"
       orientation="-16,0"
       id="guide4150" />
    <sodipodi:guide
       position="2,20"
       orientation="0,-16"
       id="guide4152" />
  </sodipodi:namedview>
  <metadata
     id="metadata3874">
    <rdf:RDF>
      <cc:Work
         rdf:about="">
        <dc:format>image/svg+xml</dc:format>
        <dc:type
           rdf:resource="http://purl.org/dc/dcmitype/StillImage" />
        <dc:title></dc:title>
      </cc:Work>
    </rdf:RDF>
  </metadata>
  <g
     inkscape:label="Capa 1"
     inkscape:groupmode="layer"
     id="layer1"
     transform="translate(-326,-532.3622)">
    <path
       inkscape:connector-curvature="0"
       style="opacity:1;fill:#4d4d4d;fill-opacity:1;stroke:none;stroke-width:2.79999995;stroke-miterlimit:4;stroke-dasharray:none;stroke-opacity:0.55026455"
       d="m 337,536.3622 0,1.07813 c -1.18775,0.16904 -2.27605,0.63197 -3.19141,1.3164 l -1.39453,-1.39453 -1.41406,1.41406 1.39453,1.39453 c -0.68443,0.91536 -1.14736,2.00366 -1.31641,3.19141 l -1.07812,0 0,2 1.07812,0 c 0.16905,1.18776 0.63198,2.27605 1.31641,3.19141 L 331,549.94814 l 1.41406,1.41406 1.39453,-1.39453 c 0.91536,0.68443 2.00366,1.14736 3.19141,1.31641 l 0,1.07812 2,0 0,-1.07812 0,-1.01172 c -0.32565,0.0543 -0.65846,0.0898 -1,0.0898 -0.34154,0 -0.67435,-0.0355 -1,-0.0898 -0.91324,-0.15229 -1.75404,-0.50602 -2.47656,-1.01953 -0.5472,-0.38891 -1.02516,-0.86687 -1.41407,-1.41407 -0.51351,-0.72252 -0.86724,-1.56332 -1.01953,-2.47656 -0.0543,-0.32565 -0.0898,-0.65846 -0.0898,-1 0,-0.34154 0.0355,-0.67435 0.0898,-1 0.15229,-0.91324 0.50602,-1.75404 1.01953,-2.47656 0.38891,-0.5472 0.86687,-1.02516 1.41407,-1.41406 0.72252,-0.51352 1.56332,-0.86725 2.47656,-1.01954 0.32565,-0.0543 0.65846,-0.0898 1,-0.0898 0.34154,0 0.67435,0.0355 1,0.0898 0.91324,0.15229 1.75404,0.50602 2.47656,1.01954 0.5472,0.3889 1.02516,0.86686 1.41406,1.41406 0.51352,0.72252 0.86725,1.56332 1.01954,2.47656 0.0543,0.32565 0.0898,0.65846 0.0898,1 0,0.34154 -0.0355,0.67435 -0.0898,1 -0.0577,0.34589 -0.15242,0.67738 -0.26562,1 l 1.05078,0 c 0.0962,-0.32495 0.17769,-0.65665 0.22656,-1 l 1.07812,0 0,-2 -1.07813,0 c -0.16904,-1.18775 -0.63197,-2.27605 -1.3164,-3.19141 L 345,538.77626 l -1.41406,-1.41406 -1.39453,1.39453 c -0.91536,-0.68443 -2.00366,-1.14736 -3.19141,-1.3164 l 0,-1.07813 -2,0 z m -1,5 0,6 5,-3 -5,-3 z m 5.70703,6 -0.70703,0.70703 1.79297,1.79297 -1.79297,1.79297 0.70703,0.70703 1.79297,-1.79297 1.79297,1.79297 L 346,551.65517 344.20703,549.8622 346,548.06923 345.29297,547.3622 343.5,549.15517 341.70703,547.3622 Z"
       id="rect4144" />
  </g>
</svg>
