<?xml version="1.0" encoding="UTF-8" standalone="no"?>
<!-- Created with Inkscape (http://www.inkscape.org/) -->

<svg
   xmlns:dc="http://purl.org/dc/elements/1.1/"
   xmlns:cc="http://creativecommons.org/ns#"
   xmlns:rdf="http://www.w3.org/1999/02/22-rdf-syntax-ns#"
   xmlns:svg="http://www.w3.org/2000/svg"
   xmlns="http://www.w3.org/2000/svg"
   xmlns:sodipodi="http://sodipodi.sourceforge.net/DTD/sodipodi-0.dtd"
   xmlns:inkscape="http://www.inkscape.org/namespaces/inkscape"
   width="24"
   height="24"
   id="svg3869"
   version="1.1"
   inkscape:version="0.91 r13725"
   sodipodi:docname="view-media-playlist.svg">
  <defs
     id="defs3871" />
  <sodipodi:namedview
     id="base"
     pagecolor="#ffffff"
     bordercolor="#666666"
     borderopacity="1.0"
     inkscape:pageopacity="0.0"
     inkscape:pageshadow="2"
     inkscape:zoom="22.627416"
     inkscape:cx="5.4926209"
     inkscape:cy="10.264796"
     inkscape:document-units="px"
     inkscape:current-layer="layer1"
     showgrid="true"
     fit-margin-top="0"
     fit-margin-left="0"
     fit-margin-right="0"
     fit-margin-bottom="0"
     inkscape:window-width="1366"
     inkscape:window-height="709"
     inkscape:window-x="-4"
     inkscape:window-y="0"
     inkscape:window-maximized="1"
     inkscape:showpageshadow="false"
     inkscape:snap-bbox="true"
     inkscape:object-nodes="true">
    <inkscape:grid
       type="xygrid"
       id="grid4132" />
    <sodipodi:guide
       position="4,18"
       orientation="18,0"
       id="guide4138" />
    <sodipodi:guide
       position="5,3"
       orientation="0,18"
       id="guide4140" />
    <sodipodi:guide
       position="20,2.0000174"
       orientation="-18,0"
       id="guide4142" />
    <sodipodi:guide
       position="2,21"
       orientation="0,-18"
       id="guide4144" />
    <sodipodi:guide
       position="3,19.000017"
       orientation="16,0"
       id="guide4146" />
    <sodipodi:guide
       position="2,4"
       orientation="0,16"
       id="guide4148" />
    <sodipodi:guide
       position="21,20"
       orientation="-16,0"
       id="guide4150" />
    <sodipodi:guide
       position="2,20"
       orientation="0,-16"
       id="guide4152" />
  </sodipodi:namedview>
  <metadata
     id="metadata3874">
    <rdf:RDF>
      <cc:Work
         rdf:about="">
        <dc:format>image/svg+xml</dc:format>
        <dc:type
           rdf:resource="http://purl.org/dc/dcmitype/StillImage" />
        <dc:title></dc:title>
      </cc:Work>
    </rdf:RDF>
  </metadata>
  <g
     inkscape:label="Capa 1"
     inkscape:groupmode="layer"
     id="layer1"
     transform="translate(-326,-532.3622)">
    <g
       transform="translate(-94.71429,7.57146)"
       id="layer1-2"
       inkscape:label="Capa 1">
      <path
         id="path4174"
         transform="translate(421.71429,525.79074)"
         d="M 4.5,3 C 3.6715787,3 3.0000083,3.6715704 3,4.5 3.0000083,5.3284296 3.6715787,6 4.5,6 5.3284213,6 5.9999917,5.3284296 6,4.5 5.9999917,3.6715704 5.3284213,3 4.5,3 Z M 7,4 7,5 8,5 8,4 7,4 Z M 9,4 9,5 19,5 19,4 9,4 Z M 9,6 9,7 12,7 12,6 9,6 Z M 4.5,9 C 3.6715732,8.9999988 3,9.6715721 3,10.5 3,11.328428 3.6715732,12.000001 4.5,12 5.3284268,12.000001 6,11.328428 6,10.5 6,9.6715721 5.3284268,8.9999988 4.5,9 Z m 2.5,1 0,1 1,0 0,-1 -1,0 z m 2,0 0,1 10,0 0,-1 -10,0 z m 0,2 0,1 4,0 0,-1 -4,0 z M 4.5,15 C 3.6715732,14.999999 3,15.671572 3,16.5 3,17.328428 3.6715732,18.000001 4.5,18 5.3284268,18.000001 6,17.328428 6,16.5 6,15.671572 5.3284268,14.999999 4.5,15 Z m 2.5,1 0,1 1,0 0,-1 -1,0 z m 2,0 0,1 10,0 0,-1 -10,0 z m 0,2 0,1 7,0 0,-1 -7,0 z"
         style="opacity:1;fill:#4d4d4d;fill-opacity:1;stroke:none"
         inkscape:connector-curvature="0" />
    </g>
  </g>
</svg>
