<?xml version="1.0" encoding="UTF-8" standalone="no"?>
<svg
   xmlns:dc="http://purl.org/dc/elements/1.1/"
   xmlns:cc="http://creativecommons.org/ns#"
   xmlns:rdf="http://www.w3.org/1999/02/22-rdf-syntax-ns#"
   xmlns:svg="http://www.w3.org/2000/svg"
   xmlns="http://www.w3.org/2000/svg"
   xmlns:xlink="http://www.w3.org/1999/xlink"
   xmlns:sodipodi="http://sodipodi.sourceforge.net/DTD/sodipodi-0.dtd"
   xmlns:inkscape="http://www.inkscape.org/namespaces/inkscape"
   viewBox="0 0 64 64"
   id="svg2"
   version="1.1"
   inkscape:version="0.91+devel r"
   sodipodi:docname="application-x-deb.svg"
   width="64"
   height="64">
  <metadata
     id="metadata84">
    <rdf:RDF>
      <cc:Work
         rdf:about="">
        <dc:format>image/svg+xml</dc:format>
        <dc:type
           rdf:resource="http://purl.org/dc/dcmitype/StillImage" />
        <dc:title />
      </cc:Work>
    </rdf:RDF>
  </metadata>
  <sodipodi:namedview
     pagecolor="#ffffff"
     bordercolor="#666666"
     borderopacity="1"
     objecttolerance="10"
     gridtolerance="10"
     guidetolerance="10"
     inkscape:pageopacity="0"
     inkscape:pageshadow="2"
     inkscape:window-width="1366"
     inkscape:window-height="670"
     id="namedview82"
     showgrid="true"
     inkscape:showpageshadow="false"
     inkscape:zoom="8"
     inkscape:cx="-0.829908"
     inkscape:cy="35.114165"
     inkscape:window-x="-4"
     inkscape:window-y="29"
     inkscape:window-maximized="1"
     inkscape:current-layer="svg2"
     showguides="true">
    <inkscape:grid
       type="xygrid"
       id="grid3413" />
    <sodipodi:guide
       position="0,64"
       orientation="64,0"
       id="guide3482" />
    <sodipodi:guide
       position="0,0"
       orientation="0,64"
       id="guide3484" />
    <sodipodi:guide
       position="64,0"
       orientation="-64,0"
       id="guide3486" />
    <sodipodi:guide
       position="64,64"
       orientation="0,-64"
       id="guide3488" />
    <sodipodi:guide
       position="10,61"
       orientation="58,0"
       id="guide3492" />
    <sodipodi:guide
       position="10,3"
       orientation="0,44"
       id="guide3494" />
    <sodipodi:guide
       position="54,3"
       orientation="-58,0"
       id="guide3496" />
    <sodipodi:guide
       position="54,61"
       orientation="0,-44"
       id="guide3498" />
    <sodipodi:guide
       position="54,47"
       orientation="-14,0"
       id="guide4310" />
    <sodipodi:guide
       position="54,61"
       orientation="0,-14"
       id="guide4312" />
    <sodipodi:guide
       position="21,43"
       orientation="22,0"
       id="guide4250" />
    <sodipodi:guide
       position="21,21"
       orientation="0,22"
       id="guide4252" />
    <sodipodi:guide
       position="43,21"
       orientation="-22,0"
       id="guide4254" />
    <sodipodi:guide
       position="43,43"
       orientation="0,-22"
       id="guide4256" />
  </sodipodi:namedview>
  <defs
     id="defs4">
    <linearGradient
       inkscape:collect="always"
       xlink:href="#linearGradient4300"
       id="linearGradient4306"
       x1="32"
       y1="61"
       x2="32"
       y2="3"
       gradientUnits="userSpaceOnUse" />
    <linearGradient
       gradientTransform="matrix(1,0,0,-1,-14,78)"
       inkscape:collect="always"
       xlink:href="#linearGradient4410"
       id="linearGradient4427"
       x1="54"
       y1="31"
       x2="40"
       y2="17"
       gradientUnits="userSpaceOnUse" />
    <linearGradient
       inkscape:collect="always"
       id="linearGradient4410">
      <stop
         style="stop-color:#383e51;stop-opacity:1"
         offset="0"
         id="stop4412" />
      <stop
         style="stop-color:#655c6f;stop-opacity:0"
         offset="1"
         id="stop4414" />
    </linearGradient>
    <linearGradient
       inkscape:collect="always"
       xlink:href="#linearGradient4351"
       id="linearGradient4357"
       x1="47"
       y1="61"
       x2="47"
       y2="47"
       gradientUnits="userSpaceOnUse" />
    <linearGradient
       id="linearGradient4351">
      <stop
         style="stop-color:#ffd6af;stop-opacity:1"
         offset="0"
         id="stop4353" />
      <stop
         style="stop-color:#fffcf9;stop-opacity:1"
         offset="1"
         id="stop4355" />
    </linearGradient>
    <linearGradient
       id="linearGradient4300">
      <stop
         style="stop-color:#f62459;stop-opacity:1"
         offset="0"
         id="stop4302" />
      <stop
         style="stop-color:#f73768;stop-opacity:1"
         offset="1"
         id="stop4304" />
    </linearGradient>
  </defs>
  <path
     style="fill:url(#linearGradient4306);fill-opacity:1;stroke:none"
     d="M 10,3 10,61 40,61 54,47 54,17 54,3 40,3 10,3 Z"
     id="rect3500"
     inkscape:connector-curvature="0" />
  <rect
     style="opacity:1;fill:#2e3132;fill-opacity:0.29411765;stroke:none"
     id="rect4169"
     width="30"
     height="1"
     x="10"
     y="60" />
  <rect
     style="opacity:1;fill:#ffffff;fill-opacity:0.40983605;stroke:none"
     id="rect4236"
     width="44"
     height="1"
     x="10"
     y="3" />
  <path
     style="fill:url(#linearGradient4357);fill-opacity:1.0;fill-rule:evenodd;stroke:none;stroke-width:1px;stroke-linecap:butt;stroke-linejoin:miter;stroke-opacity:1"
     d="M 54,47 40,61 40,47 Z"
     id="path4314"
     inkscape:connector-curvature="0" />
  <path
     inkscape:connector-curvature="0"
     id="path4320"
     d="M 26,61 40,47 40,61 Z"
     style="opacity:0.2;fill:url(#linearGradient4427);fill-opacity:1;fill-rule:evenodd;stroke:none;stroke-width:1px;stroke-linecap:butt;stroke-linejoin:miter;stroke-opacity:1" />
  <path
     style="fill:#fffcf9;fill-opacity:1"
     d="M 33.535793,42.936862 C 32.355535,42.740284 30.663742,42.072 29.615558,41.388306 27.313552,39.886794 25.810127,38.21988 24.879699,36.137452 24.57059,35.445624 24.401689,34.908763 23.918562,33.082438 23.798431,32.628314 23.648927,32.128202 23.58633,31.97108 c -0.105594,-0.265056 -0.110232,-0.354465 -0.06424,-1.238519 0.04368,-0.839923 0.185743,-1.976392 0.261976,-2.095929 0.0148,-0.0232 0.04963,-0.02869 0.07741,-0.01222 0.09402,0.05576 0.18092,-0.202178 0.266331,-0.790619 0.0468,-0.322388 0.120321,-0.66047 0.163393,-0.751295 0.04307,-0.09082 0.116033,-0.291279 0.162136,-0.445454 0.106112,-0.354851 0.250797,-0.62761 0.698075,-1.315995 0.196712,-0.30275 0.401187,-0.632498 0.454392,-0.732774 0.0626,-0.117974 0.130994,-0.175778 0.193799,-0.163785 0.06047,0.01155 0.160346,-0.06498 0.264916,-0.202996 0.454759,-0.600194 2.596676,-2.370974 2.794881,-2.310604 0.05409,0.01647 0.28012,-0.05789 0.502275,-0.165243 0.401803,-0.19418 0.57886,-0.239104 0.57886,-0.14687 0,0.02658 -0.05808,0.08699 -0.12906,0.134234 -0.124571,0.08292 -0.122079,0.08428 0.0717,0.03927 0.110417,-0.02565 0.29638,-0.06219 0.413248,-0.08122 0.14439,-0.0235 0.203096,-0.05808 0.183176,-0.10789 -0.01748,-0.04372 0.02409,-0.08703 0.102986,-0.107314 0.197457,-0.05075 0.505143,-0.04243 0.505143,0.01365 0,0.06725 -0.175932,0.135263 -0.315479,0.121976 -0.09517,-0.0091 -0.100058,-0.0013 -0.02868,0.04575 0.07105,0.04679 0.07188,0.05681 0.0048,0.05751 -0.04468,4.63e-4 -0.06655,0.01495 -0.04858,0.03221 0.01797,0.01724 0.137577,-0.02 0.265784,-0.08276 0.128207,-0.06277 0.363016,-0.140859 0.521798,-0.173537 0.19546,-0.04022 0.288695,-0.08689 0.288695,-0.144495 0,-0.07409 0.09078,-0.0804 0.702658,-0.04879 0.386462,0.01996 0.969642,0.07809 1.295956,0.129189 0.59326,0.0929 0.59331,0.0929 0.814401,-0.02921 0.265181,-0.14646 0.691712,-0.16552 0.803794,-0.03592 0.041,0.04741 0.153861,0.125548 0.250803,0.173642 0.158144,0.07846 0.168602,0.07859 0.101766,0.0013 -0.126975,-0.146899 -8.76e-4,-0.143196 0.489384,0.01437 1.580569,0.50799 2.869107,1.412705 3.825236,2.685791 0.226738,0.301901 0.240471,0.437725 0.02568,0.253953 l -0.122919,-0.105166 0.09389,0.176164 c 0.05163,0.09689 0.09388,0.205778 0.09388,0.241974 0,0.0362 0.151991,0.303707 0.337757,0.59447 0.418674,0.655312 0.535803,0.876085 0.507709,0.956965 -0.01205,0.03468 -0.197527,-0.196131 -0.412186,-0.512902 -0.214656,-0.316769 -0.532307,-0.743567 -0.705886,-0.948436 -0.259217,-0.305942 -0.327106,-0.358267 -0.379998,-0.292881 -0.03542,0.04379 -0.121915,0.08755 -0.192218,0.09726 l -0.127824,0.01765 0.126454,0.23789 c 0.06955,0.13084 0.135672,0.211343 0.146943,0.178897 0.06037,-0.173774 0.341447,0.05467 0.46925,0.38137 0.04145,0.105962 0.151648,0.324173 0.24488,0.484912 0.09323,0.16074 0.157776,0.303517 0.143432,0.317281 -0.01434,0.01376 -0.09935,-0.03027 -0.188888,-0.09787 l -0.162802,-0.122893 0.111031,0.18293 c 0.06106,0.100613 0.163328,0.223688 0.227245,0.273501 0.07975,0.06215 0.117839,0.160361 0.121392,0.313018 0.0066,0.281831 0.174815,0.614787 0.266306,0.526988 0.142532,-0.136781 0.171842,-0.05128 0.135965,0.396633 -0.02644,0.330028 -0.01238,0.547549 0.0503,0.778468 0.09516,0.350573 0.07474,0.437103 -0.06449,0.273257 -0.08854,-0.1042 -0.08942,-0.104129 -0.04977,0.004 0.085,0.231815 0.148468,0.578597 0.13081,0.714713 -0.03295,0.25399 -0.132311,0.148384 -0.166508,-0.176974 l -0.03338,-0.317558 -0.0096,0.337953 c -0.0053,0.185874 -0.05078,0.545044 -0.101068,0.798157 -0.05079,0.255659 -0.07659,0.565445 -0.05805,0.696985 0.03488,0.247463 0.01021,0.257055 -0.205322,0.07981 -0.08773,-0.07215 -0.10283,-0.0576 -0.163081,0.157146 -0.0507,0.180681 -0.05028,0.283544 0.0018,0.434873 0.03749,0.109019 0.05926,0.256871 0.04836,0.328561 -0.02515,0.165449 -0.163204,0.217043 -0.163204,0.06099 0,-0.196204 -0.07777,-0.126379 -0.315479,0.283246 -0.641889,1.106115 -1.65752,1.962147 -2.807027,2.365921 -0.67769,0.238044 -1.132226,0.326315 -1.896481,0.368293 l -0.688318,0.03781 0.340087,0.10068 c 0.274238,0.08119 0.435278,0.0933 0.831718,0.06256 0.519375,-0.04026 1.129207,-0.148424 1.405725,-0.249315 0.110358,-0.04026 0.184887,-0.0421 0.223032,-0.0055 0.08994,0.08631 -0.708902,0.425594 -1.18309,0.502477 -0.80686,0.13082 -1.886918,-0.01056 -2.840329,-0.371794 -0.646874,-0.245094 -1.606789,-0.883399 -1.459695,-0.97064 0.02786,-0.01652 0.210493,0.06692 0.405834,0.185453 0.249693,0.151507 0.355163,0.191399 0.355163,0.134335 0,-0.107793 0.03693,-0.102625 0.235293,0.03292 0.179148,0.122418 0.73015,0.349719 1.127004,0.464917 0.432601,0.125573 0.264867,-0.02663 -0.31548,-0.286275 -1.834966,-0.820943 -2.596733,-1.64205 -2.97638,-3.208233 -0.139217,-0.574319 0.0099,-1.833394 0.263854,-2.227702 0.06435,-0.09991 0.116993,-0.222794 0.116993,-0.273065 0,-0.218139 0.379055,-0.794486 0.768006,-1.167742 0.685371,-0.657716 1.397937,-0.930763 2.322948,-0.890127 0.447163,0.01965 0.638142,0.05738 1.010276,0.199597 0.422107,0.16132 0.95359,0.499023 0.79082,0.502487 -0.03826,8.15e-4 -0.206044,-0.05309 -0.372838,-0.119797 -0.253543,-0.101395 -0.416113,-0.1217 -0.99158,-0.123852 -0.808085,-0.003 -1.203055,0.106999 -1.778156,0.495312 -0.815344,0.55053 -1.268738,1.184638 -1.4293,1.998995 -0.10774,0.546443 -0.111041,0.697855 -0.02703,1.239887 0.0484,0.312322 0.08283,0.403978 0.143399,0.381678 0.05088,-0.01874 0.0797,0.0087 0.0797,0.07578 0,0.193577 0.438914,0.978817 0.743319,1.329836 0.732672,0.844933 1.917829,1.384108 3.042363,1.384108 0.583651,0 1.055459,-0.107507 1.489747,-0.339455 0.174398,-0.09315 0.394525,-0.20702 0.489168,-0.253058 0.333929,-0.162436 0.541104,-0.347973 0.783307,-0.701499 0.134651,-0.196541 0.281033,-0.357348 0.325292,-0.357348 0.06539,0 0.06256,0.02836 -0.01511,0.151375 -0.256031,0.405485 0.344841,-0.33179 0.656001,-0.804918 l 0.348516,-0.529931 -0.038,-0.348107 c -0.03652,-0.334519 -0.03122,-0.354932 0.135555,-0.522931 0.160615,-0.161787 0.175048,-0.209671 0.193556,-0.642177 0.01656,-0.387086 0.0052,-0.467445 -0.06603,-0.467885 -0.06615,-3.86e-4 -0.0946,-0.102327 -0.123096,-0.440893 -0.0377,-0.448063 -0.417871,-1.95578 -0.506378,-2.008274 -0.02672,-0.01584 -0.10085,-0.160824 -0.164733,-0.322173 -0.2156,-0.544522 -0.593763,-1.068124 -1.183394,-1.638527 -0.848412,-0.820747 -1.917146,-1.454517 -2.926666,-1.735546 -0.858718,-0.239049 -2.316905,-0.152283 -3.355551,0.199665 -0.506913,0.171769 -1.006362,0.399209 -1.090637,0.496658 -0.03825,0.04424 -0.09369,0.06611 -0.123205,0.04861 -0.03107,-0.01844 -0.02252,-0.06781 0.02036,-0.117389 0.191341,-0.221248 -0.443593,0.183688 -0.852352,0.543597 -0.247124,0.217593 -0.458325,0.402242 -0.469332,0.410331 -0.01101,0.0081 0.0371,3.81e-4 0.106889,-0.01713 0.116146,-0.02914 0.121068,-0.02138 0.05806,0.09161 -0.04037,0.07239 -0.250662,0.202593 -0.508408,0.314785 -0.433075,0.18851 -0.713169,0.395691 -0.935718,0.692137 -0.08885,0.118359 -0.09397,0.143845 -0.0237,0.117963 0.04931,-0.01816 0.08965,-0.0068 0.08965,0.02533 0,0.157206 -0.148831,0.332718 -0.369304,0.43551 -0.488476,0.227743 -1.346558,1.444219 -1.806213,2.56061 -0.204836,0.497496 -0.201591,0.480214 -0.09019,0.480214 0.117387,0 0.109221,0.127941 -0.05203,0.815196 -0.234892,1.001094 -0.235172,0.969061 0.02063,2.377431 0.311673,1.715987 0.493747,2.2892 0.839955,2.644389 0.08122,0.08333 0.160151,0.260561 0.19534,0.438624 0.04201,0.212615 0.112561,0.352928 0.244577,0.486467 0.120362,0.121752 0.160496,0.196428 0.114262,0.212606 -0.0907,0.03174 0.193278,0.438074 0.452379,0.647296 0.130345,0.105252 0.226949,0.14063 0.331593,0.121432 0.229341,-0.04207 0.462859,0.08469 0.82167,0.446032 0.372875,0.375504 0.410239,0.476461 0.163478,0.441707 -0.159159,-0.02242 -0.162804,-0.01826 -0.08445,0.09652 0.04505,0.06597 0.211225,0.224598 0.369294,0.352505 0.222018,0.179654 0.279193,0.257375 0.251324,0.341641 -0.04008,0.121185 0.07424,0.234235 0.332827,0.329115 0.160357,0.05884 0.21202,0.185705 0.09134,0.224308 -0.03652,0.01168 0.189335,0.234769 0.501898,0.49575 0.352148,0.294032 0.589022,0.455189 0.622788,0.42371 0.08918,-0.08314 0.203489,-0.05782 0.205536,0.04553 0.0022,0.112724 0.103475,0.231146 0.467671,0.547019 0.230148,0.199612 0.287604,0.224736 0.428674,0.187444 0.129172,-0.03415 0.210414,-0.01224 0.392343,0.105785 0.362976,0.235478 0.583066,0.329465 0.771511,0.329465 0.185431,0 0.211836,0.05114 0.115549,0.2238 -0.05097,0.0914 -0.04006,0.106472 0.07706,0.106472 0.07504,0 0.286484,0.04954 0.469876,0.110091 0.416972,0.137671 0.590918,0.147038 0.486408,0.02619 -0.154381,-0.178511 0.0094,-0.129733 0.560929,0.167084 0.770733,0.414767 1.160616,0.46215 2.695392,0.327575 0.227227,-0.01993 0.30114,-0.0083 0.30114,0.0474 0,0.04778 -0.197172,0.119578 -0.559259,0.203637 -0.475996,0.110503 -0.730054,0.131882 -1.706455,0.143592 -0.769387,0.0092 -1.294941,-0.01085 -1.595814,-0.06096 z m -0.784621,-8.251779 c 0,-0.01166 -0.07098,-0.06267 -0.157738,-0.113358 l -0.15774,-0.09217 0.135414,0.113358 c 0.132141,0.110618 0.180064,0.135147 0.180064,0.09217 z m 7.897482,-5.768887 c -0.01831,-0.04392 -0.0319,-0.03087 -0.03466,0.03326 -0.0025,0.05803 0.01107,0.09053 0.03012,0.07225 0.01907,-0.0183 0.0211,-0.06577 0.0045,-0.105504 z m -13.052551,-5.81072 c 0.07135,-0.0873 0.06933,-0.08925 -0.02166,-0.02079 -0.05521,0.04155 -0.10038,0.0849 -0.10038,0.09633 0,0.04531 0.0471,0.01614 0.122036,-0.07554 z m 0.652322,-0.509169 c 0.0571,-0.06055 0.09091,-0.110091 0.07514,-0.110091 -0.01578,0 -0.0754,0.04954 -0.1325,0.110091 -0.05709,0.06055 -0.09091,0.11009 -0.07514,0.11009 0.01577,0 0.0754,-0.04954 0.1325,-0.11009 z m 0.722014,-0.386947 c 0.189079,-0.06143 0.296523,-0.0723 0.336396,-0.03404 0.03987,0.03826 0.187821,0.01556 0.463205,-0.07108 0.222541,-0.07002 0.394389,-0.137115 0.381886,-0.149115 -0.0125,-0.012 -0.195731,0.03362 -0.407172,0.101364 -0.290413,0.09306 -0.394925,0.106895 -0.427318,0.0566 -0.05473,-0.08498 -0.576651,0.08253 -0.801,0.257092 l -0.153292,0.119272 0.164741,-0.09492 c 0.09061,-0.0522 0.289757,-0.135537 0.442554,-0.185176 z m 1.653666,-0.139729 c 0.166578,-0.04747 0.292929,-0.09585 0.280782,-0.107508 -0.02679,-0.02571 -0.620188,0.137361 -0.620188,0.170439 0,0.03333 0.0047,0.03245 0.339406,-0.06293 z m 0.95119,-0.300085 0.229441,-0.04018 -0.20076,-0.0049 c -0.110418,-0.0027 -0.265289,0.03305 -0.34416,0.07949 -0.09283,0.05465 -0.102943,0.07056 -0.02868,0.04513 0.0631,-0.02161 0.217968,-0.05738 0.344159,-0.07948 z m 0.455573,-0.103876 c 0.01767,-0.02745 -0.01952,-0.03695 -0.08265,-0.0211 -0.133935,0.03361 -0.150864,0.07102 -0.03214,0.07102 0.04547,0 0.09712,-0.02246 0.114799,-0.04991 z m 1.851966,0.01665 c -0.01907,-0.0183 -0.06853,-0.02025 -0.10994,-0.0043 -0.04576,0.01757 -0.03216,0.03062 0.03466,0.03326 0.06047,0.0024 0.09434,-0.01062 0.07529,-0.02891 z M 33.53987,21.62259 c -0.05521,-0.01384 -0.145551,-0.01384 -0.200758,0 -0.05521,0.01384 -0.01,0.02517 0.10038,0.02517 0.110417,0 0.155588,-0.01133 0.10038,-0.02517 z m -0.572082,-0.05712 c -0.11747,-0.01183 -0.323966,-0.01199 -0.458878,-3.63e-4 -0.134914,0.01163 -0.0388,0.02131 0.213583,0.02151 0.252383,1.98e-4 0.362765,-0.0093 0.245295,-0.02114 z m -0.748389,-0.04829 c -0.01907,-0.01829 -0.06853,-0.02025 -0.109939,-0.0043 -0.04577,0.01757 -0.03217,0.03061 0.03466,0.03326 0.06047,0.0024 0.09434,-0.01062 0.07529,-0.02891 z m -0.388267,13.230472 c -0.584275,-0.401734 -0.800755,-0.609529 -0.800755,-0.768631 0,-0.08441 0.0199,-0.153479 0.04423,-0.153479 0.08274,0 1.059481,0.978437 1.038124,1.039921 -0.01236,0.03557 -0.130232,-0.01374 -0.281586,-0.117811 z M 31.53048,33.727616 c -0.303435,-0.294261 -0.400673,-0.452528 -0.278034,-0.452528 0.07369,0 0.638329,0.62039 0.638329,0.701362 0,0.0381 -0.0073,0.06928 -0.01613,0.06928 -0.0089,0 -0.163746,-0.143148 -0.34416,-0.318107 z m 3.357347,-1.204572 c -0.160197,-0.06203 -0.06018,-0.176977 0.20076,-0.230706 0.149853,-0.03086 0.387989,-0.105755 0.529191,-0.166441 0.141203,-0.06069 0.266927,-0.100554 0.279389,-0.08859 0.01246,0.01196 -0.05145,0.134301 -0.142011,0.271871 -0.163665,0.248603 -0.166597,0.250103 -0.48015,0.245882 -0.173513,-0.0023 -0.347745,-0.01674 -0.387179,-0.03201 z m 1.720795,-1.231302 c -0.154837,-0.05973 -0.16124,-0.161347 -0.03197,-0.507454 0.111031,-0.297281 0.226189,-0.355928 0.162129,-0.08257 -0.02306,0.09839 -0.05382,0.240824 -0.06837,0.316511 l -0.02646,0.137613 0.114625,-0.125279 c 0.06779,-0.0741 0.13062,-0.24813 0.153774,-0.425978 0.02154,-0.165385 0.06202,-0.287132 0.08998,-0.27055 0.07098,0.04209 0.06344,0.477308 -0.01334,0.769909 -0.06707,0.255589 -0.127398,0.285375 -0.380371,0.187796 z M 23.034815,30.600897 c -0.01914,-0.04789 -0.03482,-0.235731 -0.03482,-0.417427 0,-0.239723 0.01967,-0.324115 0.0717,-0.307605 0.08522,0.02704 0.135161,0.812102 0.05166,0.812102 -0.02955,0 -0.0694,-0.03918 -0.08855,-0.08707 z M 36.83396,29.313352 c -0.08913,-0.115689 -0.116589,-0.207011 -0.0913,-0.303662 0.0519,-0.198481 0.187696,-0.170254 0.28788,0.05984 0.155855,0.357961 0.02061,0.525716 -0.19657,0.243819 z M 23.023008,28.439437 c -0.0044,-0.31213 -3.1e-5,-0.321777 0.143956,-0.316509 0.122091,0.0045 0.151563,0.03534 0.165647,0.1735 0.01588,0.155836 -0.160715,0.464953 -0.265631,0.464953 -0.02169,0 -0.04146,-0.144875 -0.04396,-0.321944 z m 14.868313,-6.766852 c 0.0085,-0.492611 0.09446,-0.659487 0.161893,-0.31459 0.04699,0.24032 -0.01277,0.664691 -0.103798,0.737186 -0.04951,0.03943 -0.06428,-0.06804 -0.0581,-0.422596 z m -7.536948,-0.295201 c 0.02307,-0.06643 0.814318,-0.377391 0.960277,-0.377391 0.171482,0 -0.136134,0.201647 -0.490921,0.321808 -0.395577,0.133974 -0.500919,0.146449 -0.469356,0.05559 z"
     id="path4181"
     inkscape:connector-curvature="0" />
</svg>
