<?xml version="1.0" encoding="UTF-8" standalone="no"?>
<svg
   xmlns:dc="http://purl.org/dc/elements/1.1/"
   xmlns:cc="http://creativecommons.org/ns#"
   xmlns:rdf="http://www.w3.org/1999/02/22-rdf-syntax-ns#"
   xmlns:svg="http://www.w3.org/2000/svg"
   xmlns="http://www.w3.org/2000/svg"
   xmlns:xlink="http://www.w3.org/1999/xlink"
   xmlns:sodipodi="http://sodipodi.sourceforge.net/DTD/sodipodi-0.dtd"
   xmlns:inkscape="http://www.inkscape.org/namespaces/inkscape"
   viewBox="0 0 64 64"
   id="svg2"
   version="1.1"
   inkscape:version="0.91+devel r"
   sodipodi:docname="application-x-rpm.svg"
   width="64"
   height="64">
  <metadata
     id="metadata84">
    <rdf:RDF>
      <cc:Work
         rdf:about="">
        <dc:format>image/svg+xml</dc:format>
        <dc:type
           rdf:resource="http://purl.org/dc/dcmitype/StillImage" />
        <dc:title></dc:title>
      </cc:Work>
    </rdf:RDF>
  </metadata>
  <sodipodi:namedview
     pagecolor="#ffffff"
     bordercolor="#666666"
     borderopacity="1"
     objecttolerance="10"
     gridtolerance="10000"
     guidetolerance="10"
     inkscape:pageopacity="0"
     inkscape:pageshadow="2"
     inkscape:window-width="1366"
     inkscape:window-height="670"
     id="namedview82"
     showgrid="true"
     inkscape:showpageshadow="false"
     inkscape:zoom="8.0000004"
     inkscape:cx="31.259516"
     inkscape:cy="23.558862"
     inkscape:window-x="-4"
     inkscape:window-y="29"
     inkscape:window-maximized="1"
     inkscape:current-layer="svg2"
     showguides="true">
    <inkscape:grid
       type="xygrid"
       id="grid3413" />
    <sodipodi:guide
       position="0,64"
       orientation="64,0"
       id="guide3482" />
    <sodipodi:guide
       position="0,0"
       orientation="0,64"
       id="guide3484" />
    <sodipodi:guide
       position="64,0"
       orientation="-64,0"
       id="guide3486" />
    <sodipodi:guide
       position="64,64"
       orientation="0,-64"
       id="guide3488" />
    <sodipodi:guide
       position="10,61"
       orientation="58,0"
       id="guide3492" />
    <sodipodi:guide
       position="10,3"
       orientation="0,44"
       id="guide3494" />
    <sodipodi:guide
       position="54,3"
       orientation="-58,0"
       id="guide3496" />
    <sodipodi:guide
       position="54,61"
       orientation="0,-44"
       id="guide3498" />
    <sodipodi:guide
       position="54,47"
       orientation="-14,0"
       id="guide4310" />
    <sodipodi:guide
       position="54,61"
       orientation="0,-14"
       id="guide4312" />
    <sodipodi:guide
       position="21,43"
       orientation="22,0"
       id="guide4250" />
    <sodipodi:guide
       position="21,21"
       orientation="0,22"
       id="guide4252" />
    <sodipodi:guide
       position="43,21"
       orientation="-22,0"
       id="guide4254" />
    <sodipodi:guide
       position="43,43"
       orientation="0,-22"
       id="guide4256" />
  </sodipodi:namedview>
  <defs
     id="defs4">
    <linearGradient
       inkscape:collect="always"
       xlink:href="#linearGradient4300"
       id="linearGradient4306"
       x1="32"
       y1="61"
       x2="32"
       y2="3"
       gradientUnits="userSpaceOnUse" />
    <linearGradient
       gradientTransform="matrix(1,0,0,-1,-14,78)"
       inkscape:collect="always"
       xlink:href="#linearGradient4410"
       id="linearGradient4427"
       x1="54"
       y1="31"
       x2="40"
       y2="17"
       gradientUnits="userSpaceOnUse" />
    <linearGradient
       inkscape:collect="always"
       id="linearGradient4410">
      <stop
         style="stop-color:#383e51;stop-opacity:1"
         offset="0"
         id="stop4412" />
      <stop
         style="stop-color:#655c6f;stop-opacity:0"
         offset="1"
         id="stop4414" />
    </linearGradient>
    <linearGradient
       inkscape:collect="always"
       xlink:href="#linearGradient4351-3"
       id="linearGradient4357"
       x1="47"
       y1="61"
       x2="47"
       y2="47"
       gradientUnits="userSpaceOnUse" />
    <linearGradient
       id="linearGradient4351-3"
       inkscape:collect="always">
      <stop
         id="stop4353-4"
         offset="0"
         style="stop-color:#fb7d80;stop-opacity:1" />
      <stop
         id="stop4355-4"
         offset="1"
         style="stop-color:#fcbcbe;stop-opacity:1" />
    </linearGradient>
    <linearGradient
       id="linearGradient4300"
       inkscape:collect="always">
      <stop
         id="stop4302"
         offset="0"
         style="stop-color:#cf000f;stop-opacity:1" />
      <stop
         id="stop4304"
         offset="1"
         style="stop-color:#d91e18;stop-opacity:1" />
    </linearGradient>
  </defs>
  <path
     style="fill:url(#linearGradient4306);fill-opacity:1.0;stroke:none"
     d="M 10 3 L 10 61 L 40 61 L 54 47 L 54 17 L 54 3 L 40 3 L 10 3 z "
     id="rect3500" />
  <rect
     style="opacity:1;fill:#2e3132;fill-opacity:0.29411765;stroke:none"
     id="rect4169"
     width="30"
     height="1"
     x="10"
     y="60" />
  <rect
     style="opacity:1;fill:#ffffff;fill-opacity:0.40983605;stroke:none"
     id="rect4236"
     width="44"
     height="1"
     x="10"
     y="3" />
  <path
     style="fill:url(#linearGradient4357);fill-opacity:1.0;fill-rule:evenodd;stroke:none;stroke-width:1px;stroke-linecap:butt;stroke-linejoin:miter;stroke-opacity:1"
     d="M 54,47 40,61 40,47 Z"
     id="path4314"
     inkscape:connector-curvature="0" />
  <path
     inkscape:connector-curvature="0"
     id="path4320"
     d="M 26,61 40,47 40,61 Z"
     style="opacity:0.2;fill:url(#linearGradient4427);fill-opacity:1;fill-rule:evenodd;stroke:none;stroke-width:1px;stroke-linecap:butt;stroke-linejoin:miter;stroke-opacity:1" />
  <path
     style="opacity:1;fill:#fcbcbe;fill-opacity:1;stroke:none;stroke-opacity:1"
     d="M 32 21 A 11 11 0 0 0 21 32 A 11 11 0 0 0 32 43 A 11 11 0 0 0 43 32 A 11 11 0 0 0 32 21 z M 32 22 A 10 10 0 0 1 42 32 A 10 10 0 0 1 32 42 A 10 10 0 0 1 22 32 A 10 10 0 0 1 32 22 z M 32 23 A 9 9 0 0 0 29.607422 23.333984 L 29.849609 24.306641 A 8 8 0 0 1 32 24 A 8 8 0 0 1 40 32 A 8 8 0 0 1 39.929688 33 L 40.933594 33 A 9 9 0 0 0 41 32 A 9 9 0 0 0 32 23 z M 27.078125 24.476562 A 9 9 0 0 0 23.640625 28.671875 L 24.539062 29.136719 A 8 8 0 0 1 27.580078 25.34375 L 27.078125 24.476562 z M 34.140625 26.058594 L 32.011719 34 A 2 2 0 0 0 32 34 A 2 2 0 0 0 30 36 A 2 2 0 0 0 32 38 A 2 2 0 0 0 34 36 A 2 2 0 0 0 32.9375 34.234375 A 2 2 0 0 1 32.978516 34.255859 L 35.107422 26.316406 L 34.140625 26.058594 z M 23.056641 31.083984 A 9 9 0 0 0 23 32 A 9 9 0 0 0 23.060547 33 L 24.072266 33 A 8 8 0 0 1 24 32 A 8 8 0 0 1 24.035156 31.292969 L 23.056641 31.083984 z M 32.169922 34.009766 A 2 2 0 0 1 32.269531 34.021484 A 2 2 0 0 0 32.169922 34.009766 z M 32.75 34.148438 A 2 2 0 0 1 32.851562 34.193359 A 2 2 0 0 0 32.75 34.148438 z M 32 35 A 1 1 0 0 1 33 36 A 1 1 0 0 1 32 37 A 1 1 0 0 1 31 36 A 1 1 0 0 1 32 35 z "
     id="path4165" />
</svg>
