<?xml version="1.0" encoding="UTF-8" standalone="no"?>
<svg
   xmlns:dc="http://purl.org/dc/elements/1.1/"
   xmlns:cc="http://creativecommons.org/ns#"
   xmlns:rdf="http://www.w3.org/1999/02/22-rdf-syntax-ns#"
   xmlns:svg="http://www.w3.org/2000/svg"
   xmlns="http://www.w3.org/2000/svg"
   xmlns:xlink="http://www.w3.org/1999/xlink"
   xmlns:sodipodi="http://sodipodi.sourceforge.net/DTD/sodipodi-0.dtd"
   xmlns:inkscape="http://www.inkscape.org/namespaces/inkscape"
   viewBox="0 0 64 64"
   id="svg2"
   version="1.1"
   inkscape:version="0.91+devel r"
   sodipodi:docname="application-x-kexiproject-shortcut.svg"
   width="64"
   height="64">
  <metadata
     id="metadata84">
    <rdf:RDF>
      <cc:Work
         rdf:about="">
        <dc:format>image/svg+xml</dc:format>
        <dc:type
           rdf:resource="http://purl.org/dc/dcmitype/StillImage" />
        <dc:title />
      </cc:Work>
    </rdf:RDF>
  </metadata>
  <sodipodi:namedview
     pagecolor="#ffffff"
     bordercolor="#666666"
     borderopacity="1"
     objecttolerance="10"
     gridtolerance="10000"
     guidetolerance="10"
     inkscape:pageopacity="0"
     inkscape:pageshadow="2"
     inkscape:window-width="1366"
     inkscape:window-height="670"
     id="namedview82"
     showgrid="true"
     inkscape:showpageshadow="false"
     inkscape:zoom="15.999999"
     inkscape:cx="38.564238"
     inkscape:cy="33.02967"
     inkscape:window-x="-4"
     inkscape:window-y="29"
     inkscape:window-maximized="1"
     inkscape:current-layer="svg2"
     showguides="true"
     inkscape:snap-bbox="true">
    <inkscape:grid
       type="xygrid"
       id="grid3413" />
    <sodipodi:guide
       position="0,64"
       orientation="64,0"
       id="guide3482" />
    <sodipodi:guide
       position="0,0"
       orientation="0,64"
       id="guide3484" />
    <sodipodi:guide
       position="64,0"
       orientation="-64,0"
       id="guide3486" />
    <sodipodi:guide
       position="64,64"
       orientation="0,-64"
       id="guide3488" />
    <sodipodi:guide
       position="10,61"
       orientation="58,0"
       id="guide3492" />
    <sodipodi:guide
       position="10,3"
       orientation="0,44"
       id="guide3494" />
    <sodipodi:guide
       position="54,3"
       orientation="-58,0"
       id="guide3496" />
    <sodipodi:guide
       position="54,61"
       orientation="0,-44"
       id="guide3498" />
    <sodipodi:guide
       position="54,47"
       orientation="-14,0"
       id="guide4310" />
    <sodipodi:guide
       position="54,61"
       orientation="0,-14"
       id="guide4312" />
    <sodipodi:guide
       position="21,43"
       orientation="22,0"
       id="guide4250" />
    <sodipodi:guide
       position="34,21"
       orientation="0,22"
       id="guide4252" />
    <sodipodi:guide
       position="43,21"
       orientation="-22,0"
       id="guide4254" />
    <sodipodi:guide
       position="43,43"
       orientation="0,-22"
       id="guide4256" />
  </sodipodi:namedview>
  <defs
     id="defs4">
    <linearGradient
       inkscape:collect="always"
       xlink:href="#linearGradient4300-1"
       id="linearGradient4306"
       x1="32"
       y1="61"
       x2="32"
       y2="3"
       gradientUnits="userSpaceOnUse" />
    <linearGradient
       gradientTransform="matrix(1,0,0,-1,-14,78)"
       inkscape:collect="always"
       xlink:href="#linearGradient4410"
       id="linearGradient4427"
       x1="54"
       y1="31"
       x2="40"
       y2="17"
       gradientUnits="userSpaceOnUse" />
    <linearGradient
       inkscape:collect="always"
       id="linearGradient4410">
      <stop
         style="stop-color:#383e51;stop-opacity:1"
         offset="0"
         id="stop4412" />
      <stop
         style="stop-color:#655c6f;stop-opacity:0"
         offset="1"
         id="stop4414" />
    </linearGradient>
    <linearGradient
       inkscape:collect="always"
       xlink:href="#linearGradient4351-2"
       id="linearGradient4357"
       x1="47"
       y1="61"
       x2="47"
       y2="47"
       gradientUnits="userSpaceOnUse" />
    <linearGradient
       id="linearGradient4351-2"
       inkscape:collect="always">
      <stop
         id="stop4353-8"
         offset="0"
         style="stop-color:#d3bdd7;stop-opacity:1" />
      <stop
         id="stop4355-6"
         offset="1"
         style="stop-color:#e8d9eb;stop-opacity:1" />
    </linearGradient>
    <linearGradient
       id="linearGradient4300-1"
       inkscape:collect="always">
      <stop
         id="stop4302-0"
         offset="0"
         style="stop-color:#8e44ad;stop-opacity:1" />
      <stop
         id="stop4304-6"
         offset="1"
         style="stop-color:#9b59b6;stop-opacity:1" />
    </linearGradient>
  </defs>
  <path
     style="fill:url(#linearGradient4306);fill-opacity:1.0;stroke:none"
     d="M 10 3 L 10 61 L 40 61 L 54 47 L 54 17 L 54 3 L 40 3 L 10 3 z "
     id="rect3500" />
  <rect
     style="opacity:1;fill:#2e3132;fill-opacity:0.29411765;stroke:none"
     id="rect4169"
     width="30"
     height="1"
     x="10"
     y="60" />
  <rect
     style="opacity:1;fill:#ffffff;fill-opacity:0.40983605;stroke:none"
     id="rect4236"
     width="44"
     height="1"
     x="10"
     y="3" />
  <path
     style="fill:url(#linearGradient4357);fill-opacity:1.0;fill-rule:evenodd;stroke:none;stroke-width:1px;stroke-linecap:butt;stroke-linejoin:miter;stroke-opacity:1"
     d="M 54,47 40,61 40,47 Z"
     id="path4314"
     inkscape:connector-curvature="0" />
  <path
     inkscape:connector-curvature="0"
     id="path4320"
     d="M 26,61 40,47 40,61 Z"
     style="opacity:0.2;fill:url(#linearGradient4427);fill-opacity:1;fill-rule:evenodd;stroke:none;stroke-width:1px;stroke-linecap:butt;stroke-linejoin:miter;stroke-opacity:1" />
  <path
     style="opacity:1;fill:#e8d9eb;fill-opacity:1;stroke:none;stroke-opacity:1"
     d="M 32 21 A 11 3 0 0 0 29.875 21.058594 C 29.855382 21.059642 29.834033 21.05947 29.814453 21.060547 C 29.755538 21.063788 29.701148 21.068769 29.642578 21.072266 A 11 3 0 0 0 27.71875 21.236328 A 11 3 0 0 0 27.716797 21.236328 A 11 3 0 0 0 25.933594 21.5 C 25.897297 21.506564 25.858259 21.5109 25.822266 21.517578 A 11 3 0 0 0 24.304688 21.861328 C 24.267795 21.871199 24.227788 21.878662 24.191406 21.888672 A 11 3 0 0 0 22.976562 22.289062 C 22.919427 22.311445 22.85767 22.332647 22.802734 22.355469 A 11 3 0 0 0 22.580078 22.457031 C 22.469579 22.507092 22.359645 22.557466 22.259766 22.609375 A 11 3 0 0 0 22.066406 22.71875 C 21.973002 22.772497 21.880651 22.825415 21.798828 22.880859 A 11 3 0 0 0 21.660156 22.984375 C 21.581063 23.044252 21.504721 23.10444 21.439453 23.166016 A 11 3 0 0 0 21.34375 23.267578 C 21.28656 23.329634 21.232218 23.391554 21.189453 23.455078 A 11 3 0 0 0 21.121094 23.576172 C 21.092587 23.631073 21.064328 23.686372 21.046875 23.742188 A 11 3 0 0 0 21 24 L 21 29 L 21 33 L 21 34 A 11 3 0 0 0 22 35.242188 A 11 3 0 0 0 22.011719 35.248047 A 11 3 0 0 0 22.488281 35.5 A 11 3 0 0 0 22.519531 35.513672 A 11 3 0 0 0 23.070312 35.746094 A 11 3 0 0 0 23.134766 35.769531 A 11 3 0 0 0 23.724609 35.970703 A 11 3 0 0 0 23.857422 36.011719 A 11 3 0 0 0 24.507812 36.191406 A 11 3 0 0 0 24.607422 36.216797 A 11 3 0 0 0 25.380859 36.392578 A 11 3 0 0 0 25.433594 36.402344 A 11 3 0 0 0 26.248047 36.552734 A 11 3 0 0 0 26.386719 36.576172 A 11 3 0 0 0 27.166016 36.691406 A 11 3 0 0 0 27.386719 36.720703 A 11 3 0 0 0 28.123047 36.802734 A 11 3 0 0 0 28.490234 36.839844 A 11 3 0 0 0 29.029297 36.884766 A 11 3 0 0 0 29.621094 36.925781 A 11 3 0 0 0 30.111328 36.951172 A 11 3 0 0 0 30.6875 36.974609 A 11 3 0 0 0 31.150391 36.988281 A 11 3 0 0 0 32 37 A 11 3 0 0 0 32.958984 36.986328 A 11 3 0 0 0 33.373047 36.972656 A 11 3 0 0 0 34.089844 36.943359 A 11 3 0 0 0 34.435547 36.921875 A 11 3 0 0 0 35.142578 36.873047 A 11 3 0 0 0 35.460938 36.84375 A 11 3 0 0 0 36.228516 36.767578 A 11 3 0 0 0 36.408203 36.746094 A 11 3 0 0 0 37.216797 36.638672 A 11 3 0 0 0 37.429688 36.603516 A 11 3 0 0 0 38.107422 36.492188 A 11 3 0 0 0 38.419922 36.431641 A 11 3 0 0 0 39.015625 36.306641 A 11 3 0 0 0 39.210938 36.259766 A 11 3 0 0 0 39.873047 36.091797 A 11 3 0 0 0 39.886719 36.087891 A 11 3 0 0 0 39.910156 36.080078 A 11 3 0 0 0 40.611328 35.861328 A 11 3 0 0 0 41.248047 35.617188 A 11 3 0 0 0 41.25 35.617188 A 11 3 0 0 0 41.255859 35.615234 A 11 3 0 0 0 41.791016 35.361328 A 11 3 0 0 0 41.796875 35.357422 A 11 3 0 0 0 42 35.242188 A 11 3 0 0 0 43 34 L 43 33 L 43 30 L 40.615234 30 C 38.883374 30.595607 35.693194 31 32 31 C 26.477153 31 22 30.104569 22 29 L 22 25.242188 C 22.001138 25.24287 22.002767 25.243459 22.003906 25.244141 A 11 3 0 0 0 22.748047 25.615234 C 22.758746 25.6198 22.768513 25.624359 22.779297 25.628906 A 11 3 0 0 0 23.708984 25.96875 A 11 3 0 0 0 24.767578 26.255859 C 24.796862 26.262853 24.825925 26.268485 24.855469 26.275391 A 11 3 0 0 0 27.367188 26.716797 C 27.403521 26.721419 27.440034 26.725954 27.476562 26.730469 A 11 3 0 0 0 28.792969 26.867188 C 28.831744 26.870428 28.86927 26.873828 28.908203 26.876953 A 11 3 0 0 0 30.306641 26.962891 C 30.414578 26.967511 30.524064 26.968906 30.632812 26.972656 A 11 3 0 0 0 32 27 A 11 3 0 0 0 35 26.882812 L 35 25.90625 A 10 2 0 0 1 34 25.958984 L 34 25.949219 C 33.352764 25.978634 32.692712 26 32 26 C 31.309644 26 30.635351 25.985626 29.984375 25.958984 C 29.388944 25.934616 28.819327 25.898026 28.267578 25.853516 A 10 2 0 0 1 27.978516 25.830078 C 27.454463 25.7839 26.950808 25.728742 26.478516 25.666016 C 26.447202 25.661857 26.413878 25.658524 26.382812 25.654297 C 25.896869 25.58817 25.448802 25.511461 25.029297 25.429688 A 10 2 0 0 1 24.890625 25.404297 C 24.497718 25.32475 24.144482 25.23825 23.822266 25.146484 A 10 2 0 0 1 23.650391 25.097656 C 23.357802 25.008785 23.106531 24.914404 22.886719 24.816406 A 10 2 0 0 1 22.708984 24.738281 C 22.67965 24.723505 22.654565 24.708306 22.626953 24.693359 A 10 2 0 0 1 22.394531 24.552734 C 22.363504 24.531112 22.337991 24.508243 22.310547 24.486328 A 10 2 0 0 1 22.177734 24.369141 C 22.15036 24.339889 22.130307 24.310935 22.109375 24.28125 A 10 2 0 0 1 22.041016 24.167969 C 22.018048 24.112657 22 24.056498 22 24 A 10 2 0 0 1 22.199219 23.603516 A 10 2 0 0 1 22.822266 23.207031 C 23.050338 23.101514 23.326985 23.001422 23.638672 22.90625 A 10 2 0 0 1 23.742188 22.873047 A 10 2 0 0 1 23.746094 22.871094 C 24.088346 22.771105 24.475333 22.679547 24.900391 22.59375 C 24.915972 22.590605 24.929629 22.587109 24.945312 22.583984 C 25.366963 22.499991 25.829517 22.423427 26.320312 22.355469 A 10 2 0 0 1 26.462891 22.335938 C 26.919222 22.275098 27.40906 22.223133 27.914062 22.177734 A 10 2 0 0 1 28.263672 22.146484 C 28.775768 22.105124 29.307345 22.072898 29.857422 22.048828 A 10 2 0 0 1 30.078125 22.039062 C 30.700852 22.014785 31.341754 22 32 22 C 32.692712 22 33.352764 22.021366 34 22.050781 L 34 22.041016 A 10 2 0 0 1 35 22.09375 L 35 21.115234 A 11 3 0 0 0 32 21 z M 32 37 L 31 37 L 31 40 L 32 40 L 32 41 L 24 41 L 24 40 L 21 40 L 21 43 L 24 43 L 24 42 L 32 42 L 33 42 L 40 42 L 40 43 L 43 43 L 43 40 L 40 40 L 40 41 L 33 41 L 33 40 L 34 40 L 34 37 L 32 37 z M 39 21 L 39 22 L 39 22.181641 L 39 24 L 40 24 L 40 22.78125 C 40.610727 23.326532 41 24.112065 41 25 C 41 26.662 39.662 28 38 28 L 36 28 L 36 29 L 38 29 C 40.216 29 42 27.216 42 25 C 42 23.795417 41.46564 22.72849 40.626953 22 L 42 22 L 42 21 L 39 21 z M 22 30.242188 C 23.78371 31.311606 27.69217 31.99864 32 32 C 36.30783 31.9986 40.21629 31.311606 42 30.242188 L 42 32 L 42 32.757812 L 42 33 L 42 34 A 10 2 0 0 1 32 36 A 10 2 0 0 1 22 34 L 22 33 L 22 32.757812 L 22 32 L 22 30.242188 z M 32 38 L 33 38 L 33 39 L 32 39 L 32 38 z M 22 41 L 23 41 L 23 42 L 22 42 L 22 41 z M 41 41 L 42 41 L 42 42 L 41 42 L 41 41 z "
     id="path4209" />
</svg>
