<?xml version="1.0" encoding="UTF-8" standalone="no"?>
<svg
   xmlns:dc="http://purl.org/dc/elements/1.1/"
   xmlns:cc="http://creativecommons.org/ns#"
   xmlns:rdf="http://www.w3.org/1999/02/22-rdf-syntax-ns#"
   xmlns:svg="http://www.w3.org/2000/svg"
   xmlns="http://www.w3.org/2000/svg"
   xmlns:xlink="http://www.w3.org/1999/xlink"
   xmlns:sodipodi="http://sodipodi.sourceforge.net/DTD/sodipodi-0.dtd"
   xmlns:inkscape="http://www.inkscape.org/namespaces/inkscape"
   viewBox="0 0 64 64"
   id="svg2"
   version="1.1"
   inkscape:version="0.48.4 r9939"
   sodipodi:docname="application-vnd.sun.xml.draw.template.svg"
   width="64"
   height="64">
  <metadata
     id="metadata84">
    <rdf:RDF>
      <cc:Work
         rdf:about="">
        <dc:format>image/svg+xml</dc:format>
        <dc:type
           rdf:resource="http://purl.org/dc/dcmitype/StillImage" />
        <dc:title></dc:title>
      </cc:Work>
    </rdf:RDF>
  </metadata>
  <sodipodi:namedview
     pagecolor="#ffffff"
     bordercolor="#666666"
     borderopacity="1"
     objecttolerance="10"
     gridtolerance="10"
     guidetolerance="10"
     inkscape:pageopacity="0"
     inkscape:pageshadow="2"
     inkscape:window-width="1864"
     inkscape:window-height="1060"
     id="namedview82"
     showgrid="true"
     inkscape:showpageshadow="false"
     inkscape:zoom="16"
     inkscape:cx="17.908328"
     inkscape:cy="29.569911"
     inkscape:window-x="54"
     inkscape:window-y="-3"
     inkscape:window-maximized="1"
     inkscape:current-layer="svg2"
     showguides="true"
     inkscape:snap-bbox="true">
    <inkscape:grid
       type="xygrid"
       id="grid3413" />
    <sodipodi:guide
       position="0,64"
       orientation="64,0"
       id="guide3482" />
    <sodipodi:guide
       position="0,0"
       orientation="0,64"
       id="guide3484" />
    <sodipodi:guide
       position="64,0"
       orientation="-64,0"
       id="guide3486" />
    <sodipodi:guide
       position="64,64"
       orientation="0,-64"
       id="guide3488" />
    <sodipodi:guide
       position="10,61"
       orientation="58,0"
       id="guide3492" />
    <sodipodi:guide
       position="10,3"
       orientation="0,44"
       id="guide3494" />
    <sodipodi:guide
       position="54,3"
       orientation="-58,0"
       id="guide3496" />
    <sodipodi:guide
       position="54,61"
       orientation="0,-44"
       id="guide3498" />
    <sodipodi:guide
       position="54,47"
       orientation="-14,0"
       id="guide4310" />
    <sodipodi:guide
       position="54,61"
       orientation="0,-14"
       id="guide4312" />
    <sodipodi:guide
       position="21,43"
       orientation="22,0"
       id="guide4250" />
    <sodipodi:guide
       position="21,21"
       orientation="0,22"
       id="guide4252" />
    <sodipodi:guide
       position="43,21"
       orientation="-22,0"
       id="guide4254" />
    <sodipodi:guide
       position="43,43"
       orientation="0,-22"
       id="guide4256" />
  </sodipodi:namedview>
  <defs
     id="defs4">
    <linearGradient
       inkscape:collect="always"
       xlink:href="#linearGradient4300-7"
       id="linearGradient4306"
       x1="32"
       y1="61"
       x2="32"
       y2="3"
       gradientUnits="userSpaceOnUse" />
    <linearGradient
       gradientTransform="matrix(1,0,0,-1,-14,78)"
       inkscape:collect="always"
       xlink:href="#linearGradient4410"
       id="linearGradient4427"
       x1="54"
       y1="31"
       x2="40"
       y2="17"
       gradientUnits="userSpaceOnUse" />
    <linearGradient
       inkscape:collect="always"
       id="linearGradient4410">
      <stop
         style="stop-color:#383e51;stop-opacity:1"
         offset="0"
         id="stop4412" />
      <stop
         style="stop-color:#655c6f;stop-opacity:0"
         offset="1"
         id="stop4414" />
    </linearGradient>
    <linearGradient
       inkscape:collect="always"
       xlink:href="#linearGradient4300-0"
       id="linearGradient4357"
       x1="47"
       y1="61"
       x2="47"
       y2="47"
       gradientUnits="userSpaceOnUse" />
    <linearGradient
       inkscape:collect="always"
       id="linearGradient4300-0">
      <stop
         style="stop-color:#bdc3c7;stop-opacity:1"
         offset="0"
         id="stop4302-0" />
      <stop
         style="stop-color:#dadfe1;stop-opacity:1"
         offset="1"
         id="stop4304-0" />
    </linearGradient>
    <linearGradient
       inkscape:collect="always"
       id="linearGradient4300-7">
      <stop
         style="stop-color:#5e6b78;stop-opacity:1"
         offset="0"
         id="stop4302-2" />
      <stop
         style="stop-color:#768492;stop-opacity:1"
         offset="1"
         id="stop4304-4" />
    </linearGradient>
  </defs>
  <path
     style="fill:url(#linearGradient4306);fill-opacity:1.0;stroke:none"
     d="M 10 3 L 10 61 L 40 61 L 54 47 L 54 17 L 54 3 L 40 3 L 10 3 z "
     id="rect3500" />
  <rect
     style="opacity:1;fill:#2e3132;fill-opacity:0.29411765;stroke:none"
     id="rect4169"
     width="30"
     height="1"
     x="10"
     y="60" />
  <rect
     style="opacity:1;fill:#ffffff;fill-opacity:0.40983605;stroke:none"
     id="rect4236"
     width="44"
     height="1"
     x="10"
     y="3" />
  <path
     style="fill:url(#linearGradient4357);fill-opacity:1.0;fill-rule:evenodd;stroke:none;stroke-width:1px;stroke-linecap:butt;stroke-linejoin:miter;stroke-opacity:1"
     d="M 54,47 40,61 40,47 Z"
     id="path4314"
     inkscape:connector-curvature="0" />
  <path
     inkscape:connector-curvature="0"
     id="path4320"
     d="M 26,61 40,47 40,61 Z"
     style="opacity:0.2;fill:url(#linearGradient4427);fill-opacity:1;fill-rule:evenodd;stroke:none;stroke-width:1px;stroke-linecap:butt;stroke-linejoin:miter;stroke-opacity:1" />
  <rect
     style="fill:#5e6b78;fill-opacity:1;stroke:none"
     id="rect4035"
     width="0"
     height="20.166636"
     x="-53.833336"
     y="22.833298" />
  <path
     inkscape:connector-curvature="0"
     style="color:#000000;fill:#d5dadc;fill-opacity:1;fill-rule:nonzero"
     d="m 32,21 c -6.094,0 -11,4.906 -11,11 0,6.094 4.906,11 11,11 6.094,0 11,-4.906 11,-11 0,-6.094 -4.906,-11 -11,-11 z m 0,1 c 1.661623,0 3.221543,0.407903 4.597656,1.119141 0.0043,0.03974 0.0032,0.06899 0,0.113281 0.05799,0.02599 0.09146,0.133518 0.189453,0.1875 0.036,0.02 0.05975,0.02888 0.09375,0.04687 0.05799,0.03199 0.105753,0.08464 0.09375,0.140625 -0.016,0.08197 -0.131505,0.0787 -0.1875,0.138672 0.008,0.11596 -0.06375,0.11148 -0.09375,0.189453 0.018,0.04999 0.08576,0.03377 0.09375,0.09375 -0.01004,0.06398 -0.117751,0.0727 -0.09375,0.138672 0.107989,0.08397 0.226134,0.014 0.328125,0 0.223981,-0.02799 0.422557,0.01422 0.560547,-0.09375 -0.018,-0.10596 0.152624,-0.138407 0.140625,-0.234375 -0.01004,-0.07198 -0.133505,-0.08869 -0.1875,-0.138672 -0.01211,-0.01125 -0.02762,-0.03941 -0.04102,-0.06055 0.165016,0.108418 0.322508,0.226004 0.480468,0.34375 -0.03892,0.03165 -0.07109,0.07165 -0.111328,0.08984 -0.042,0.01799 -0.102626,0.02289 -0.140625,0.04687 -0.056,0.03799 -0.07663,0.09668 -0.140625,0.138672 -0.04599,0.03199 -0.186379,0.140625 -0.234375,0.140625 -0.05799,0 -0.145503,-0.05892 -0.1875,-0.04492 -0.05999,0.01799 -0.02576,0.11468 -0.09375,0.138672 -0.131989,0.04798 -0.375879,-0.104183 -0.421875,0.09375 0.056,0.113962 0.228133,0.07865 0.328125,0.140625 0.062,0.03998 0.171502,0.213273 0.1875,0.28125 0.016,0.05599 0.024,0.268146 0,0.328125 -0.062,0.159946 -0.23789,0.144623 -0.421875,0.140625 -0.05,0 -0.09463,0.004 -0.140625,0 -0.309974,-0.02 -0.608058,-0.128177 -0.748047,0.09375 0.01004,0.169941 0.038,0.273926 0,0.421875 -0.028,0.107968 -0.146624,0.187283 -0.140625,0.28125 0.002,0.04798 0.08175,0.121523 0.09375,0.1875 0.008,0.03599 -0.016,0.10864 0,0.140625 0.05199,0.09796 0.189258,-0.01599 0.28125,0 0.08799,0.014 0.189454,0.136409 0.189454,0.234375 0,0.06997 -0.05171,0.213273 -0.0957,0.28125 -0.08799,0.131955 -0.249011,0.115525 -0.375,0.1875 -0.103996,0.05998 -0.125506,0.179238 -0.1875,0.283203 -0.06599,0.111962 -0.119751,0.16818 -0.09375,0.328125 -0.08999,0.177939 -0.190968,0.289029 -0.376953,0.375 -0.05399,0.02399 -0.137504,0.05776 -0.1875,0.09375 -0.03999,0.02799 -0.08463,0.07664 -0.140625,0.140625 -0.06999,0.07798 -0.149504,0.127521 -0.1875,0.1875 -0.028,0.04598 -0.01689,0.125521 -0.04687,0.1875 -0.044,0.08397 -0.131505,0.150404 -0.1875,0.234375 -0.026,0.03998 -0.06575,0.08864 -0.09375,0.140625 -0.06399,0.11596 -0.152623,0.22616 -0.140625,0.328125 0.01004,0.09796 0.134626,0.101531 0.140625,0.1875 0.006,0.04798 -0.04888,0.08669 -0.04687,0.138672 0.002,0.07597 0.04087,0.129474 0.04687,0.189453 0.014,0.14795 -0.06576,0.179285 -0.09375,0.28125 -0.014,0.04798 0.012,0.102639 0,0.140625 -0.024,0.07397 -0.138626,0.144452 -0.140625,0.232422 -0.002,0.06197 0.08775,0.101487 0.09375,0.189453 0.004,0.05998 -0.05692,0.131519 -0.04492,0.1875 0.02199,0.107967 0.244131,0.244153 0.328125,0.328125 0.11399,0.113962 0.231253,0.208166 0.28125,0.328125 0.042,0.101967 0.06264,0.252151 0.140625,0.328125 0.05799,0.05598 0.160382,0.08069 0.234375,0.138672 0.06999,0.05398 0.158429,0.08264 0.232422,0.140625 0.12199,0.09597 0.274766,0.295246 0.46875,0.28125 0.101989,-0.008 0.214135,-0.07375 0.328125,-0.09375 0.11799,-0.02 0.255009,-0.05692 0.375,-0.04492 0.092,0.01004 0.18721,0.05092 0.283203,0.04492 0.09999,-0.006 0.214135,-0.04376 0.328125,-0.09375 0.197983,-0.08597 0.506946,-0.229486 0.794922,-0.1875 0.219981,0.03199 0.222966,0.277033 0.376953,0.375 0.175986,0.01599 0.326809,-0.03399 0.466797,0 0.105993,0.026 0.224377,0.199231 0.234375,0.283203 0.01004,0.08597 -0.08175,0.178441 -0.09375,0.232422 -0.028,0.115961 -0.02689,0.254151 -0.04687,0.328125 -0.016,0.05798 -0.04693,0.129519 -0.04492,0.1875 0,0.05198 0.08664,0.166398 0.140625,0.234375 0.06599,0.08397 0.152429,0.142407 0.232422,0.234375 0.145989,0.167943 0.226134,0.387451 0.328125,0.609375 0.026,0.05598 -0.024,0.07064 0,0.140625 -0.044,0.335885 -0.155018,0.565626 -0.375,0.9375 -0.103985,0.119958 -0.236375,0.271926 -0.234375,0.421875 -0.008,0.359877 0.203499,0.54079 0.1875,0.888671 -0.036,0.467841 -0.009,0.546959 -0.04492,0.796876 0.157986,0.07997 0.09093,0.300854 0.04492,0.466796 -0.068,0.197934 -0.149504,0.244999 -0.1875,0.376954 0.123869,0.05359 0.259904,0.04049 0.398438,0.0059 C 37.47105,40.783753 34.885243,42 32,42 c -1.227716,0 -2.397571,-0.229578 -3.482422,-0.630859 -0.03984,-0.01577 -0.08379,-0.0248 -0.123047,-0.04687 -0.062,-0.03599 -0.101749,-0.111526 -0.09375,-0.1875 0.103997,-0.04399 0.30096,0.09907 0.376953,-0.04687 0.038,-0.06998 -0.05,-0.211275 0,-0.28125 0.036,-0.04798 0.254131,-0.08175 0.328125,-0.09375 0.105993,-0.01799 0.221254,-0.0089 0.28125,-0.04687 0.06599,-0.04199 0.152624,-0.157292 0.140625,-0.28125 -0.006,-0.05798 -0.04776,-0.08864 -0.09375,-0.140625 -0.038,-0.04399 -0.02088,-0.09869 -0.04687,-0.138672 -0.048,-0.06997 -0.120627,-0.08553 -0.140625,-0.1875 0.143988,-0.02799 0.354517,0.151728 0.5625,0.09375 0.098,-0.02799 0.235254,-0.236156 0.28125,-0.328125 0.014,-0.02799 -0.016,-0.106633 0,-0.140625 0.018,-0.03799 0.0897,-0.07375 0.0957,-0.09375 0.014,-0.05398 -0.012,-0.05976 0,-0.09375 0.036,-0.101967 0.127504,-0.160401 0.1875,-0.234375 0.04599,-0.05599 0.09864,-0.129519 0.140624,-0.1875 0.048,-0.06197 0.06176,-0.08664 0.09375,-0.140625 0.03,-0.181939 -0.09088,-0.306851 -0.04687,-0.466797 0.048,-0.179939 0.294764,-0.294981 0.46875,-0.376953 0.05999,-0.02799 0.137502,-0.07575 0.1875,-0.09375 0.11999,-0.04199 0.263008,-0.05376 0.375,-0.09375 0.187984,-0.06797 0.236132,-0.249934 0.328124,-0.421875 0.044,-0.07997 0.08771,-0.176396 0.0957,-0.234375 0.008,-0.05198 -0.01004,-0.0787 0,-0.138672 0.01004,-0.05998 0.02893,-0.123475 0.04492,-0.189453 0.022,-0.08598 0.04687,-0.230205 0.04687,-0.326172 0,-0.07997 -0.04488,-0.117478 -0.04687,-0.189453 -0.014,-0.259912 0.09152,-0.279924 0.1875,-0.421875 0.048,-0.06997 0.05975,-0.182439 0.09375,-0.232422 0.161987,-0.239918 0.441873,-0.341202 0.421874,-0.705078 -0.008,-0.11996 -0.05067,-0.383887 -0.138671,-0.421875 -0.05,-0.02199 -0.160382,-0.01693 -0.234375,-0.04492 -0.235981,-0.08797 -0.410271,-0.356959 -0.65625,-0.376953 -0.05199,-0.002 -0.08263,0.002 -0.140625,0 -0.09599,-0.002 -0.218181,-0.08175 -0.326172,-0.09375 -0.068,-0.008 -0.194378,0.02 -0.234375,0 -0.062,-0.02999 -0.04376,-0.153511 -0.09375,-0.1875 -0.03999,-0.02799 -0.127458,-0.02488 -0.189453,-0.04687 -0.098,-0.03798 -0.167258,-0.08575 -0.28125,-0.09375 -0.036,-0.002 -0.100628,0.006 -0.140625,0 -0.062,-0.01004 -0.129505,-0.05776 -0.1875,-0.09375 -0.072,-0.04399 -0.110628,-0.0767 -0.140625,-0.138672 0.06599,-0.215927 -0.143503,-0.250996 -0.1875,-0.376953 -0.02,-0.05798 0.02,-0.135517 0,-0.1875 -0.026,-0.07397 -0.105508,-0.125521 -0.1875,-0.1875 -0.143988,-0.111963 -0.262768,-0.208384 -0.46875,-0.234375 -0.092,-0.01004 -0.218134,0.008 -0.328125,0 -0.11599,-0.008 -0.240132,-0.08753 -0.328125,-0.1875 -0.08399,-0.09796 -0.113507,-0.188391 -0.1875,-0.234375 -0.06999,-0.04399 -0.186378,-0.04776 -0.234375,-0.09375 -0.02199,-0.02 -0.02493,-0.04777 -0.04492,-0.09375 -0.036,-0.07198 -0.09088,-0.101488 -0.04687,-0.189453 -0.08,-0.03998 -0.05268,0.06287 -0.138672,0.04687 -0.078,-0.109962 -0.152139,-0.174615 -0.328125,-0.140625 -0.08,0.01599 -0.140384,0.138626 -0.234375,0.140625 -0.07799,0.002 -0.132383,-0.126631 -0.234375,-0.140625 -0.07799,-0.01004 -0.18038,0.05888 -0.234375,0.04687 -0.086,-0.01599 -0.109507,-0.08864 -0.1875,-0.140625 -0.05799,-0.03799 -0.155503,-0.140671 -0.1875,-0.138672 -0.09999,0.002 -0.190137,0.212646 -0.328125,0.138672 -0.068,-0.08598 0.124921,-0.107532 0.04492,-0.1875 -0.05999,-0.05998 -0.09068,0.01489 -0.138672,0.04687 -0.056,0.03799 -0.125506,0.07176 -0.1875,0.09375 -0.137989,0.05198 -0.220134,0.03777 -0.328125,0.09375 -0.09999,0.05198 -0.131459,0.13241 -0.189453,0.234375 -0.04599,0.08397 -0.117506,0.228424 -0.1875,0.232421 -0.08399,0.006 -0.158381,-0.106686 -0.234375,-0.138671 -0.229981,-0.09997 -0.370563,0.04293 -0.560547,0.04492 -0.175985,0.002 -0.429875,-0.255931 -0.421875,-0.421874 0.006,-0.101967 0.08175,-0.249044 0.09375,-0.375 0.01004,-0.09997 0.09176,-0.191235 0.09375,-0.283204 0.002,-0.121959 -0.203209,-0.218424 -0.283203,-0.232422 -0.187983,-0.03399 -0.440314,0.08397 -0.654297,0 -0.03999,-0.06797 0.06975,-0.123476 0.09375,-0.189453 0.014,-0.03798 -0.014,-0.05176 0,-0.09375 0.024,-0.06398 0.108676,-0.119523 0.138672,-0.1875 0.02199,-0.05198 0.02489,-0.123521 0.04687,-0.1875 0.026,-0.07198 0.08775,-0.135518 0.09375,-0.1875 0.008,-0.06797 -0.03975,-0.145468 -0.09375,-0.189453 -0.165986,0.01004 -0.280961,0.0029 -0.376953,0.04687 -0.215982,0.09796 -0.157019,0.400774 -0.375,0.46875 -0.074,0.02399 -0.197257,0.03093 -0.28125,0.04492 -0.03657,0.0071 -0.07814,0.01312 -0.119141,0.02344 0.139669,-0.725997 0.35587,-1.423858 0.642578,-2.083985 0.0481,-1.3e-5 0.09796,-0.0064 0.13086,0 0.07599,0.014 0.123459,0.08775 0.189453,0.09375 0.183985,0.014 0.223013,-0.154403 0.375,-0.234375 0.155987,0.02199 0.234964,-0.01599 0.376953,0 0.09599,0.01004 0.205256,0.134627 0.28125,0.140625 0.06399,0.002 0.08064,-0.05689 0.140625,-0.04687 0.06,0.01004 0.1775,0.115524 0.1875,0.1875 0.01004,0.08997 -0.07287,0.183237 -0.04687,0.283203 0.09399,0.09597 0.287886,0.131519 0.421875,0.1875 0.08799,-0.07198 0.014,-0.224161 0,-0.328125 -0.002,-0.04598 0.006,-0.09863 0,-0.140625 -0.01004,-0.07198 -0.04492,-0.125521 -0.04492,-0.1875 0,-0.285903 0.229891,-0.403663 0.421875,-0.515625 0.08199,-0.04799 0.162381,-0.151513 0.234375,-0.1875 0.101989,-0.04999 0.150382,-0.04576 0.234375,-0.09375 0.151987,-0.08597 0.303885,-0.185236 0.421875,-0.283203 0.054,-0.129956 -0.006,-0.293919 0,-0.421875 0.054,-0.03399 0.08067,0.006 0.138672,0 0.092,-0.02 0.137458,-0.135517 0.189453,-0.1875 0.03,-0.02999 0.102679,-0.06376 0.138672,-0.09375 0.092,-0.07198 0.107505,-0.15551 0.1875,-0.1875 0.02799,-0.01004 0.09663,-0.03488 0.140625,-0.04687 0.06,-0.01599 0.138383,-0.05976 0.234375,-0.09375 0.062,-0.02199 0.210377,-0.02093 0.234375,-0.04492 0.03,-0.02999 -0.008,-0.143469 0,-0.189453 0.048,-0.225923 0.407392,-0.250198 0.609375,-0.326172 0.139987,-0.05398 0.265889,-0.170615 0.421875,-0.140625 -0.03,0.107968 -0.166623,0.104418 -0.140625,0.234375 0.03399,0.181937 0.26413,-0.06776 0.328125,-0.09375 0.12199,-0.05198 0.355639,-0.08264 0.515625,-0.140625 0.139989,-0.04998 0.366364,-0.119305 0.234375,-0.28125 -0.109991,-0.008 -0.138383,0.09869 -0.234375,0.138672 -0.06599,0.01004 -0.08267,-0.04093 -0.138672,-0.04492 -0.054,-0.002 -0.08664,0.05493 -0.140625,0.04492 -0.054,-0.01004 -0.132626,-0.123522 -0.140625,-0.1875 -0.022,-0.167944 0.166381,-0.204168 0.234375,-0.328125 -0.04599,-0.151949 -0.247012,-0.03377 -0.375,-0.09375 0.014,-0.08997 0.08151,-0.169506 0.1875,-0.1875 0.086,-0.014 0.27613,0.0029 0.328125,0.04492 0.03,0.02599 -0.0011,0.09863 0.04492,0.140625 0.05199,0.04598 0.121459,0.01004 0.189453,0 0.024,-0.113962 -0.160624,-0.06665 -0.140625,-0.140625 0.135988,-0.08797 0.396514,-0.02293 0.5625,-0.04492 0.09599,-0.014 0.195257,-0.09464 0.28125,-0.140625 0.08,-0.04598 0.150383,-0.120901 0.234375,-0.04492 0.024,0.08197 -0.04776,0.145515 -0.09375,0.1875 -0.153988,0.135955 -0.301886,0.263929 -0.421875,0.421875 0.074,0.07198 0.204135,0.03092 0.328125,0.04492 0.048,0.006 0.08867,0.03888 0.138672,0.04687 0.06,0.01004 0.141456,-0.01004 0.189453,0 0.08399,0.02 0.103501,0.140625 0.1875,0.140625 0.135989,0 0.122922,-0.142406 0.04492,-0.234375 0.024,-0.09397 0.08089,-0.168396 0.04687,-0.234375 -0.062,-0.123957 -0.316125,0.01732 -0.328125,-0.140625 -0.008,-0.09997 0.104633,-0.111525 0.140625,-0.1875 -0.016,-0.191934 0.158671,-0.201059 0.138672,-0.375 -0.01004,-0.07198 -0.08867,-0.07265 -0.138672,-0.140625 -0.026,-0.03599 -0.01688,-0.114634 -0.04687,-0.140625 -0.103986,-0.08797 -0.316126,-0.06448 -0.328125,-0.232422 -0.006,-0.09997 0.014,-0.17524 0,-0.283203 -0.014,-0.101967 -0.09951,-0.401882 -0.1875,-0.421875 -0.11199,-0.02399 -0.194136,0.172396 -0.328125,0.234375 -0.07199,0.03399 -0.207256,0.06087 -0.28125,0.04687 -0.048,-0.01004 -0.134627,-0.04865 -0.140625,-0.140625 -0.01004,-0.10596 0.07376,-0.122412 0.09375,-0.234375 C 30.154532,22.138456 31.059681,22 32,22 z m -4.033203,0.847656 c -0.02879,0.411303 -0.395683,0.624415 -0.828125,0.613282 -0.092,0.08797 -0.04376,0.25304 -0.09375,0.375 -0.042,0.101966 -0.179259,0.197451 -0.28125,0.189453 -0.074,-0.006 -0.1875,-0.119478 -0.1875,-0.189453 0,-0.08598 0.118922,-0.134456 0.04492,-0.232422 0.0031,-0.02054 0.03001,-0.04123 0.05078,-0.0625 0.413526,-0.26035 0.8431,-0.494889 1.294922,-0.69336 z m 8.347656,0.476563 c -0.03678,0.0068 -0.05726,0.02577 -0.08984,0.04492 -0.07599,0.04598 -0.08263,0.118634 -0.140625,0.140625 -0.08199,0.02999 -0.175501,0.01978 -0.1875,0.09375 -0.01004,0.06198 0.04888,0.08269 0.04687,0.138672 -0.03,0.07398 -0.07775,0.09752 -0.09375,0.1875 0.101989,0.165943 0.340808,-0.009 0.466797,-0.04492 0.056,-0.01599 0.110627,-0.0029 0.140625,-0.04687 0.03399,-0.05398 0.01893,-0.156447 0.04492,-0.232422 0.02799,-0.08397 0.103757,-0.06665 0.09375,-0.140625 -0.008,-0.07398 -0.157261,-0.152621 -0.28125,-0.140625 z m -10.947265,1.193359 c 0.09728,0.04983 0.26147,0.274972 0.07422,0.355469 -0.02,0.01004 -0.280129,0.05493 -0.328125,0.04492 -0.03873,-0.0056 -0.07093,-0.04113 -0.103515,-0.07617 0.11496,-0.112264 0.237145,-0.217585 0.357422,-0.324219 z m 0.353515,0.447266 c 0.048,0.002 0.08463,0.08975 0.140625,0.09375 0.054,0.004 0.108625,-0.05688 0.140625,-0.04687 0.08399,0.02199 0.124921,0.172396 0.04492,0.234375 -0.066,0.008 -0.09068,-0.05492 -0.138672,-0.04492 -0.135988,0.02399 -0.181212,0.289248 -0.283203,0.28125 -0.09599,-0.01004 -0.14292,-0.211273 -0.04492,-0.28125 0.002,-0.05998 -0.05089,-0.08064 -0.04687,-0.140625 0.03,-0.03799 0.107505,-0.09975 0.1875,-0.09375 l 0,-0.002 z m -0.466797,0.04687 c 0.028,0 0.03493,-0.012 0.04492,0 -0.014,0.10596 -0.05667,0.139469 -0.138672,0.189453 -0.141988,0.08597 -0.237206,0.191063 -0.283203,0.375 -0.014,0.05398 -0.164428,0.201495 -0.232422,0.1875 -0.157987,-0.03399 0.05775,-0.329016 0.09375,-0.375 0.03999,-0.04998 0.09267,-0.08464 0.138672,-0.140625 0.04599,-0.05599 0.04976,-0.15551 0.09375,-0.1875 0.048,-0.03399 0.19921,-0.05088 0.283203,-0.04687 l 0,-0.002 z m 14.148438,0.267578 c 0.06315,0.06955 0.128262,0.137655 0.189453,0.208984 -0.06305,-0.07379 -0.165964,-0.102078 -0.189453,-0.208984 z m -0.611328,0.01953 c 0.157987,-0.01004 0.256132,0.185283 0.328125,0.28125 0.06,0.07798 0.230133,0.180392 0.328125,0.234375 0.056,0.02999 0.125504,0.06576 0.1875,0.09375 0.129989,0.05798 0.369,0.247044 0.375,0.375 0.002,0.06398 -0.05493,0.129473 -0.04492,0.189453 0.09799,0.01599 0.185499,-0.136408 0.1875,-0.234375 0,-0.02324 -0.0079,-0.0377 -0.01758,-0.05273 0.283038,0.395998 0.538054,0.811546 0.761718,1.248047 -0.08816,0.02587 -0.163532,0.06843 -0.177734,0.154297 -0.02,0.111963 0.07424,0.261257 -0.09375,0.28125 -0.105992,0.014 -0.230966,-0.108641 -0.376953,-0.140625 -0.05999,-0.014 -0.139503,0.01599 -0.1875,0 -0.109991,-0.03799 -0.09351,-0.166445 -0.1875,-0.232422 -0.054,-0.03799 -0.19721,-0.08375 -0.283203,-0.09375 -0.054,-0.006 -0.08267,0.008 -0.138672,0 -0.068,-0.008 -0.17838,-0.0129 -0.234375,-0.04687 -0.054,-0.03399 -0.173501,-0.09464 -0.1875,-0.140625 -0.02199,-0.07397 0.134672,-0.170445 0.138672,-0.232422 0.004,-0.04799 -0.03493,-0.06865 -0.04492,-0.140625 -0.008,-0.04399 0.01004,-0.112634 0,-0.140625 -0.014,-0.05198 -0.107461,-0.09174 -0.189453,-0.09375 -0.072,0 -0.125506,0.04687 -0.1875,0.04687 -0.08799,0.002 -0.265009,-0.05687 -0.375,-0.04687 -0.06599,0.006 -0.127459,0.04289 -0.189453,0.04687 -0.173986,0.014 -0.285887,-0.01004 -0.421875,0 -0.098,0.006 -0.283008,0.05176 -0.375,0.09375 -0.04599,0.02199 -0.08064,0.06376 -0.140625,0.09375 -0.02799,0.014 -0.05775,0.02893 -0.09375,0.04492 -0.056,0.026 -0.133505,0.0817 -0.1875,0.0957 -0.07799,0.02 -0.186136,-0.006 -0.328125,0 -0.101989,0.006 -0.27925,-0.01866 -0.28125,-0.140625 -0.002,-0.185937 0.339639,-0.108639 0.515625,-0.140625 0.06599,-0.014 0.107505,-0.09269 0.1875,-0.138672 0.038,-0.02199 0.05775,-0.02288 0.09375,-0.04687 0.06,-0.04199 0.177501,-0.139516 0.1875,-0.1875 0.008,-0.04398 -0.05092,-0.10864 -0.04492,-0.140625 0.008,-0.04199 0.08468,-0.0847 0.138672,-0.138672 0.08399,-0.08397 0.130385,-0.180394 0.234375,-0.234375 0.06999,-0.03799 0.202377,-0.03777 0.234375,-0.09375 0.008,-0.06398 -0.002,-0.08264 0,-0.140625 0.044,-0.03998 0.05775,-0.08575 0.09375,-0.09375 0.107989,-0.02399 0.202135,0.05092 0.328125,0.04492 0.054,-0.002 0.129505,-0.0069 0.1875,-0.04492 0.048,-0.03198 0.09264,-0.06975 0.140625,-0.09375 0.05199,-0.02799 0.07663,-0.08975 0.140625,-0.09375 z m -12.513672,0.0957 0.002,0 c 0.04599,-0.002 0.09063,0 0.140625,0 0.05,0 0.118673,-0.02 0.138672,0 -0.032,0.131956 -0.317883,0.09291 -0.421875,0.04492 0.006,-0.04998 0.07663,-0.03892 0.140625,-0.04492 z m 13.314453,0.0957 c 0.05713,0.06662 0.11649,0.131088 0.171875,0.199219 -0.0093,-0.0052 -0.02315,-0.0075 -0.03125,-0.01367 -0.05563,-0.0437 -0.08536,-0.117924 -0.140625,-0.185547 z m -13.783203,0.138672 c 0.03399,0 0.0597,-0.014 0.0957,0 -0.092,0.07797 -0.216966,0.137518 -0.376953,0.1875 -0.07599,0.02399 -0.173502,0.03709 -0.1875,-0.04687 -0.016,-0.103963 0.07264,-0.08375 0.140625,-0.09375 0.08799,-0.01004 0.224181,-0.04292 0.326172,-0.04492 l 0.002,-0.002 z m 13.029297,0.002 c -0.06599,0.02199 -0.098,0.169506 0,0.1875 0.04599,-0.02799 0.05888,-0.103527 0.04687,-0.1875 -0.026,-0.02799 -0.02689,-0.008 -0.04687,0 z m -0.04492,0.28125 c -0.032,0.01004 -0.05976,0.009 -0.09375,0.04492 0.002,0.111961 0.022,0.185236 0,0.283203 0.06399,0.123957 0.200425,0.0371 0.232422,-0.04687 0.038,-0.207928 -0.04268,-0.30724 -0.138672,-0.28125 z m 0.888672,0.5625 c -0.08799,-0.004 -0.180426,0.0029 -0.232422,0.04492 0.074,0.119958 0.209014,0.157511 0.375,0.1875 0.05999,-0.04399 0.06575,-0.156448 0.09375,-0.232422 -0.07199,0 -0.146382,0.004 -0.234375,0 l -0.002,0 z M 22.109375,30.59375 c 0.112737,0.102437 0.191253,0.273082 0.326172,0.339844 0.05,0.02599 0.123505,0.03289 0.1875,0.04687 0.05199,0.01004 0.09063,0.02893 0.140625,0.04492 0.105993,0.03599 0.244133,0.05772 0.328125,0.0957 0.12799,0.05598 0.218134,0.262193 0.328125,0.326172 0.006,0.06398 -0.02,0.141469 0,0.189453 0.05199,0.06997 0.150381,0.09269 0.234375,0.138672 0.101989,0.05598 0.13643,0.19039 0.232422,0.234375 0.03399,0.014 0.08863,-0.01599 0.140625,0 0.131989,0.03998 0.169213,0.221489 0.283203,0.1875 0.074,-0.02199 0.08175,-0.115524 0.09375,-0.1875 0.05,-0.05398 0.109507,-0.140625 0.1875,-0.140625 0.12399,-0.002 0.141503,0.161245 0.1875,0.283203 0.026,0.06798 0.07575,0.115524 0.09375,0.1875 0.03,0.123957 0.026,0.488525 0,0.5625 -0.032,0.09197 -0.158381,0.132457 -0.234375,0.232422 -0.036,0.04799 -0.06575,0.10864 -0.09375,0.140625 -0.048,0.05998 -0.102669,0.08665 -0.138672,0.140625 -0.02,0.02999 -0.02888,0.09668 -0.04687,0.138672 -0.06,0.127955 -0.143748,0.223006 -0.09375,0.376953 0.02,0.06197 0.09375,0.113526 0.09375,0.1875 0,0.08797 -0.173501,0.138408 -0.1875,0.234375 -0.01004,0.06998 0.07175,0.187281 0.09375,0.28125 0.016,0.06997 0.145504,0.141516 0.1875,0.1875 0.06999,0.07798 0.125458,0.183238 0.189453,0.283203 0.125989,0.193934 0.202182,0.41944 0.326172,0.609375 0.06599,0.09796 0.190379,0.177285 0.234375,0.28125 0.02199,0.05198 -0.02,0.139517 0,0.1875 0.07199,0.161945 0.400513,0.341903 0.5625,0.421875 0.07599,0.03798 0.16438,0.05571 0.234375,0.0957 0.105993,0.05998 0.321004,0.187281 0.375,0.28125 0.048,0.08397 0.06975,0.287921 0.09375,0.421875 0.03,0.17594 -0.008,0.32569 0,0.515625 0.006,0.103964 0.04687,0.177285 0.04687,0.28125 0,0.03599 0.002,0.104636 0,0.140625 -0.002,0.123957 0.01004,0.249043 0,0.375 -0.006,0.06798 -0.004,0.131472 0,0.189453 0.006,0.06197 0.04093,0.08469 0.04492,0.138672 0.004,0.05798 -0.05092,0.143467 -0.04492,0.189453 0.014,0.125956 0.116627,0.210211 0.140625,0.326172 0.02,0.09197 0.05692,0.311913 0.04492,0.421875 -0.008,0.05798 -0.03693,0.125475 -0.04492,0.189453 -0.006,0.04998 0.008,0.09269 0,0.138672 -0.0064,0.04467 -0.01739,0.08232 -0.0293,0.121094 C 23.844961,38.659589 22,35.55658 22,32 c 0,-0.478912 0.0449,-0.945663 0.109375,-1.40625 z M 26,31.689453 c 0.09599,-0.04398 0.07799,0.128629 0,0.140625 -0.074,0.01004 -0.072,-0.106633 0,-0.140625 z"
     id="path26-2" />
</svg>
