<?xml version="1.0" encoding="UTF-8" standalone="no"?>
<!-- Created with Inkscape (http://www.inkscape.org/) -->

<svg
   xmlns:dc="http://purl.org/dc/elements/1.1/"
   xmlns:cc="http://creativecommons.org/ns#"
   xmlns:rdf="http://www.w3.org/1999/02/22-rdf-syntax-ns#"
   xmlns:svg="http://www.w3.org/2000/svg"
   xmlns="http://www.w3.org/2000/svg"
   xmlns:sodipodi="http://sodipodi.sourceforge.net/DTD/sodipodi-0.dtd"
   xmlns:inkscape="http://www.inkscape.org/namespaces/inkscape"
   width="16"
   height="16"
   id="svg2"
   version="1.1"
   inkscape:version="0.91+devel r"
   viewBox="0 0 16 16"
   sodipodi:docname="application-x-deb.svg">
  <defs
     id="defs4">
    <linearGradient
       id="linearGradient4351">
      <stop
         id="stop4353"
         offset="0"
         style="stop-color:#ffd6af;stop-opacity:1" />
      <stop
         id="stop4355"
         offset="1"
         style="stop-color:#ffecdb;stop-opacity:1" />
    </linearGradient>
    <linearGradient
       id="linearGradient4300">
      <stop
         id="stop4302"
         offset="0"
         style="stop-color:#f62459;stop-opacity:1" />
      <stop
         id="stop4304"
         offset="1"
         style="stop-color:#f73768;stop-opacity:1" />
    </linearGradient>
  </defs>
  <sodipodi:namedview
     id="base"
     pagecolor="#ffffff"
     bordercolor="#666666"
     borderopacity="1.0"
     inkscape:pageopacity="0.0"
     inkscape:pageshadow="2"
     inkscape:zoom="15.8125"
     inkscape:cx="11.929374"
     inkscape:cy="8.5199527"
     inkscape:document-units="px"
     inkscape:current-layer="layer1"
     showgrid="true"
     inkscape:showpageshadow="false"
     borderlayer="true"
     inkscape:window-width="1366"
     inkscape:window-height="670"
     inkscape:window-x="-4"
     inkscape:window-y="29"
     inkscape:window-maximized="1"
     units="px"
     inkscape:snap-bbox="true"
     inkscape:snap-global="true">
    <inkscape:grid
       type="xygrid"
       id="grid4101" />
    <sodipodi:guide
       position="2,14.000017"
       orientation="12,0"
       id="guide4071" />
    <sodipodi:guide
       position="2,2.0000174"
       orientation="0,12"
       id="guide4073" />
    <sodipodi:guide
       position="14,2.0000174"
       orientation="-12,0"
       id="guide4075" />
    <sodipodi:guide
       position="14,14.000017"
       orientation="0,-12"
       id="guide4077" />
  </sodipodi:namedview>
  <metadata
     id="metadata7">
    <rdf:RDF>
      <cc:Work
         rdf:about="">
        <dc:format>image/svg+xml</dc:format>
        <dc:type
           rdf:resource="http://purl.org/dc/dcmitype/StillImage" />
        <dc:title />
      </cc:Work>
    </rdf:RDF>
  </metadata>
  <g
     inkscape:label="Capa 1"
     inkscape:groupmode="layer"
     id="layer1"
     transform="translate(0,-1036.3622)">
    <path
       inkscape:connector-curvature="0"
       id="path4181-7"
       d="m 8.8380468,1050.3325 c -0.6440398,-0.1073 -1.5672124,-0.472 -2.1391824,-0.845 -1.256152,-0.8194 -2.0765365,-1.729 -2.5842497,-2.8653 -0.1686737,-0.3775 -0.2608391,-0.6705 -0.5244705,-1.6671 -0.065553,-0.2478 -0.1471336,-0.5207 -0.1812914,-0.6064 -0.05762,-0.1447 -0.060151,-0.1934 -0.035054,-0.6758 0.023835,-0.4584 0.1013557,-1.0785 0.1429543,-1.1438 0.00808,-0.012 0.027082,-0.016 0.042241,-0.01 0.051305,0.031 0.098724,-0.1103 0.1453308,-0.4314 0.025538,-0.1759 0.065656,-0.3604 0.08916,-0.41 0.023502,-0.05 0.063317,-0.1589 0.088474,-0.243 0.057903,-0.1937 0.1368541,-0.3425 0.3809235,-0.7181 0.1073412,-0.1653 0.2189185,-0.3452 0.2479513,-0.3999 0.034159,-0.064 0.07148,-0.096 0.1057517,-0.089 0.032997,0.01 0.087497,-0.035 0.1445585,-0.1108 0.2481516,-0.3275 1.4169466,-1.2938 1.5251025,-1.2608 0.029516,0.01 0.1528551,-0.032 0.27408,-0.09 0.2192547,-0.1059 0.3158706,-0.1304 0.3158706,-0.08 0,0.015 -0.031693,0.047 -0.070425,0.073 -0.067975,0.045 -0.066616,0.046 0.039125,0.021 0.060252,-0.014 0.1617278,-0.034 0.2255,-0.044 0.07879,-0.013 0.1108248,-0.032 0.099955,-0.059 -0.00954,-0.024 0.013145,-0.047 0.056197,-0.058 0.1077478,-0.028 0.275645,-0.024 0.275645,0.01 0,0.037 -0.096002,0.074 -0.1721497,0.067 -0.051932,-0.01 -0.054599,0 -0.01565,0.025 0.03877,0.026 0.039223,0.031 0.00262,0.032 -0.024381,3e-4 -0.036315,0.01 -0.026509,0.018 0.00981,0.01 0.075073,-0.011 0.1450323,-0.045 0.06996,-0.034 0.1980895,-0.077 0.2847332,-0.095 0.106658,-0.022 0.1575342,-0.047 0.1575342,-0.079 0,-0.04 0.049537,-0.044 0.3834244,-0.027 0.2108835,0.011 0.5291114,0.043 0.7071735,0.071 0.3237283,0.051 0.3237556,0.051 0.4443999,-0.016 0.1447032,-0.08 0.3774514,-0.09 0.438612,-0.02 0.022373,0.026 0.083958,0.069 0.1368574,0.095 0.086296,0.043 0.092002,0.043 0.055532,0 -0.069287,-0.08 -4.78e-4,-0.078 0.267045,0.01 0.86248,0.2772 1.565606,0.7709 2.087344,1.4656 0.123726,0.1647 0.131219,0.2389 0.01401,0.1386 l -0.06707,-0.057 0.05123,0.096 c 0.02817,0.053 0.05123,0.1123 0.05123,0.1321 0,0.02 0.08294,0.1657 0.184306,0.3243 0.228461,0.3576 0.292375,0.4781 0.277045,0.5222 -0.0066,0.019 -0.107786,-0.107 -0.22492,-0.2798 -0.117133,-0.1729 -0.290468,-0.4058 -0.385186,-0.5176 -0.141449,-0.1669 -0.178494,-0.1955 -0.207356,-0.1598 -0.01933,0.024 -0.06653,0.048 -0.104889,0.053 l -0.06975,0.01 0.069,0.1298 c 0.03795,0.071 0.07403,0.1153 0.08018,0.098 0.03294,-0.095 0.18632,0.03 0.256059,0.2081 0.02262,0.058 0.08275,0.1769 0.133625,0.2646 0.05087,0.088 0.0861,0.1656 0.07827,0.1731 -0.0078,0.01 -0.05421,-0.016 -0.103072,-0.053 l -0.08884,-0.067 0.06059,0.1 c 0.03332,0.055 0.08912,0.122 0.124003,0.1492 0.04352,0.034 0.0643,0.087 0.06624,0.1708 0.0036,0.1538 0.09539,0.3355 0.145317,0.2876 0.07778,-0.075 0.09377,-0.028 0.07419,0.2164 -0.01443,0.1801 -0.0068,0.2988 0.02745,0.4248 0.05193,0.1913 0.04078,0.2385 -0.03519,0.1491 -0.04831,-0.057 -0.0488,-0.057 -0.02716,0 0.04638,0.1265 0.08102,0.3158 0.07138,0.39 -0.01798,0.1386 -0.0722,0.081 -0.09086,-0.097 l -0.01821,-0.1733 -0.0052,0.1844 c -0.0029,0.1014 -0.02771,0.2974 -0.05515,0.4355 -0.02772,0.1395 -0.04179,0.3086 -0.03168,0.3803 0.01903,0.1351 0.0056,0.1403 -0.11204,0.044 -0.04787,-0.039 -0.05611,-0.032 -0.08899,0.086 -0.02767,0.099 -0.02744,0.1547 9.83e-4,0.2373 0.02046,0.06 0.03234,0.1402 0.02639,0.1793 -0.01372,0.09 -0.08906,0.1184 -0.08906,0.033 0,-0.1071 -0.04244,-0.069 -0.17215,0.1546 -0.350264,0.6035 -0.904471,1.0706 -1.53173,1.291 -0.3698,0.1298 -0.61783,0.178 -1.0348667,0.2009 l -0.3755994,0.021 0.1855777,0.055 c 0.1496454,0.044 0.2375212,0.051 0.4538495,0.034 0.2834109,-0.022 0.6161829,-0.081 0.7670719,-0.1361 0.06022,-0.022 0.100889,-0.023 0.121703,-0.01 0.04908,0.047 -0.386831,0.2322 -0.645585,0.2742 -0.4402847,0.071 -1.0296476,-0.01 -1.5499021,-0.2029 -0.3529843,-0.1338 -0.8767879,-0.4821 -0.7965221,-0.5296 0.015203,-0.01 0.1148612,0.037 0.2214543,0.1011 0.1362518,0.083 0.1938044,0.1045 0.1938044,0.073 0,-0.059 0.020152,-0.056 0.128394,0.018 0.097757,0.067 0.3984261,0.1908 0.6149802,0.2537 0.2360604,0.069 0.1445318,-0.015 -0.1721502,-0.1563 -1.0012989,-0.4479 -1.4169777,-0.896 -1.6241424,-1.7506 -0.075967,-0.3134 0.0054,-1.0005 0.1439791,-1.2156 0.035114,-0.055 0.06384,-0.1216 0.06384,-0.149 0,-0.1191 0.2068416,-0.4336 0.4190833,-0.6372 0.3739912,-0.3589 0.7628222,-0.5079 1.2675795,-0.4858 0.2440065,0.011 0.3482194,0.031 0.5512844,0.1089 0.2303341,0.088 0.5203526,0.2724 0.4315326,0.2742 -0.02088,5e-4 -0.1124337,-0.029 -0.2034494,-0.065 -0.1383526,-0.055 -0.2270633,-0.066 -0.5410825,-0.068 -0.4409534,0 -0.6564795,0.058 -0.9702989,0.2703 -0.4449146,0.3004 -0.6923213,0.6464 -0.7799363,1.0908 -0.058791,0.2981 -0.060592,0.3808 -0.01475,0.6766 0.026411,0.1704 0.045198,0.2204 0.07825,0.2083 0.027764,-0.01 0.04349,0.01 0.04349,0.041 0,0.1057 0.2395053,0.5342 0.4056121,0.7257 0.3998024,0.4611 1.0465153,0.7553 1.6601478,0.7553 0.3184852,0 0.5759402,-0.059 0.8129212,-0.1853 0.09516,-0.051 0.215283,-0.1129 0.266927,-0.138 0.182218,-0.089 0.295268,-0.1899 0.427433,-0.3828 0.07348,-0.1073 0.153353,-0.195 0.177504,-0.195 0.03568,0 0.03414,0.015 -0.0083,0.083 -0.13971,0.2212 0.188172,-0.1811 0.357965,-0.4392 l 0.190177,-0.2892 -0.02074,-0.19 c -0.01993,-0.1825 -0.01704,-0.1937 0.07397,-0.2853 0.08764,-0.088 0.09552,-0.1145 0.105619,-0.3505 0.009,-0.2112 0.0028,-0.255 -0.03603,-0.2553 -0.0361,-2e-4 -0.05162,-0.056 -0.06717,-0.2405 -0.02057,-0.2445 -0.228022,-1.0673 -0.276319,-1.0959 -0.01458,-0.01 -0.05503,-0.088 -0.08989,-0.1758 -0.117648,-0.2971 -0.324002,-0.5829 -0.645751,-0.8941 -0.462959,-0.4479 -1.0461422,-0.7937 -1.5970142,-0.9471 -0.4685826,-0.1304 -1.2642819,-0.083 -1.8310472,0.109 -0.2766108,0.094 -0.5491487,0.2178 -0.5951356,0.271 -0.020872,0.024 -0.051124,0.036 -0.06723,0.027 -0.016954,-0.01 -0.012289,-0.037 0.01111,-0.064 0.1044104,-0.1208 -0.2420585,0.1002 -0.4651089,0.2966 -0.1348499,0.1188 -0.2500975,0.2195 -0.2561038,0.2239 -0.00601,0.01 0.020245,2e-4 0.058327,-0.01 0.063378,-0.016 0.066064,-0.011 0.031682,0.05 -0.022029,0.039 -0.1367805,0.1106 -0.2774266,0.1718 -0.2363191,0.1029 -0.3891599,0.2159 -0.5105998,0.3777 -0.048483,0.065 -0.051277,0.079 -0.012933,0.064 0.026907,-0.01 0.04892,-0.01 0.04892,0.014 0,0.086 -0.081214,0.1816 -0.2015208,0.2377 -0.2665501,0.1243 -0.7347858,0.788 -0.985609,1.3972 -0.1117743,0.2715 -0.1100036,0.2621 -0.049215,0.2621 0.064055,0 0.059599,0.07 -0.028392,0.4448 -0.1281751,0.5463 -0.1283279,0.5288 0.011257,1.2973 0.1700728,0.9364 0.2694265,1.2492 0.4583442,1.443 0.04432,0.045 0.087391,0.1422 0.1065926,0.2394 0.022924,0.116 0.061422,0.1925 0.1334601,0.2654 0.065679,0.066 0.087579,0.1072 0.06235,0.116 -0.049493,0.017 0.1054673,0.239 0.2468528,0.3532 0.071126,0.058 0.1238408,0.077 0.1809427,0.066 0.1251461,-0.023 0.2525715,0.046 0.4483664,0.2434 0.2034694,0.2049 0.2238581,0.26 0.089206,0.241 -0.086849,-0.012 -0.088838,-0.01 -0.046082,0.053 0.024583,0.036 0.1152607,0.1226 0.2015153,0.1924 0.1211501,0.098 0.1523492,0.1404 0.1371417,0.1864 -0.021871,0.066 0.040511,0.1278 0.1816161,0.1796 0.087503,0.032 0.1156945,0.1014 0.049842,0.1224 -0.019928,0.01 0.1033157,0.1281 0.2738742,0.2706 0.1921591,0.1604 0.3214158,0.2483 0.3398411,0.2312 0.048663,-0.045 0.1110393,-0.032 0.1121563,0.024 0.0012,0.062 0.056464,0.1261 0.2551974,0.2985 0.1255865,0.1089 0.1569389,0.1226 0.2339175,0.1023 0.070486,-0.019 0.1148181,-0.01 0.2140926,0.058 0.1980677,0.1285 0.3181658,0.1798 0.4209959,0.1798 0.1011855,0 0.1155941,0.028 0.063052,0.1221 -0.027813,0.05 -0.02186,0.058 0.04205,0.058 0.040948,0 0.1563278,0.027 0.2564006,0.06 0.2275321,0.075 0.3224504,0.08 0.2654217,0.014 -0.084242,-0.098 0.00513,-0.071 0.306086,0.091 0.4205714,0.2264 0.6333216,0.2522 1.4708134,0.1788 0.123993,-0.011 0.164326,-0.01 0.164326,0.026 0,0.026 -0.107593,0.065 -0.305175,0.1112 -0.25974,0.06 -0.398374,0.072 -0.9311737,0.078 -0.4198369,0.01 -0.7066196,-0.01 -0.8707991,-0.033 z m -0.4281497,-4.5028 c 0,-0.01 -0.038732,-0.034 -0.086074,-0.062 l -0.086075,-0.05 0.073892,0.062 c 0.072106,0.06 0.098257,0.074 0.098257,0.05 z m 4.3094749,-3.148 c -0.01,-0.024 -0.01741,-0.017 -0.01891,0.018 -0.0014,0.032 0.006,0.05 0.01644,0.039 0.01041,-0.01 0.01151,-0.036 0.0025,-0.058 z m -7.122478,-3.1707 c 0.038934,-0.047 0.037832,-0.049 -0.011819,-0.011 -0.030127,0.023 -0.054775,0.046 -0.054775,0.052 0,0.024 0.025701,0.01 0.066592,-0.042 z m 0.3559572,-0.2779 c 0.031158,-0.033 0.049608,-0.06 0.041002,-0.06 -0.00861,0 -0.041144,0.027 -0.072302,0.06 -0.031153,0.033 -0.049608,0.06 -0.041002,0.06 0.00861,0 0.041144,-0.027 0.072302,-0.06 z m 0.3939865,-0.2111 c 0.1031761,-0.034 0.1618058,-0.039 0.1835636,-0.019 0.021756,0.021 0.1024896,0.01 0.2527604,-0.039 0.1214355,-0.038 0.215209,-0.075 0.2083864,-0.081 -0.00682,-0.01 -0.1068059,0.019 -0.2221844,0.055 -0.1584718,0.051 -0.2155016,0.058 -0.2331777,0.031 -0.029865,-0.046 -0.3146652,0.045 -0.4370873,0.1403 l -0.083648,0.065 0.089895,-0.052 c 0.049444,-0.028 0.1581138,-0.074 0.2414916,-0.101 z m 0.9023677,-0.076 c 0.090898,-0.026 0.1598446,-0.052 0.1532163,-0.059 -0.014619,-0.014 -0.3384224,0.075 -0.3384224,0.093 0,0.018 0.00256,0.017 0.1852061,-0.034 z m 0.5190425,-0.1637 0.1252007,-0.022 -0.1095501,0 c -0.060253,0 -0.1447621,0.018 -0.1878002,0.043 -0.050655,0.03 -0.056174,0.039 -0.01565,0.024 0.034432,-0.012 0.1189401,-0.031 0.1877996,-0.043 z m 0.2485958,-0.057 c 0.00964,-0.015 -0.010652,-0.02 -0.0451,-0.012 -0.073085,0.019 -0.082323,0.039 -0.017538,0.039 0.024812,0 0.052996,-0.013 0.062643,-0.027 z m 1.0105754,0.01 c -0.010406,-0.01 -0.037395,-0.011 -0.059992,0 -0.02497,0.01 -0.017549,0.017 0.018913,0.018 0.032997,0 0.051479,-0.01 0.041084,-0.016 z m -0.1871476,-0.033 c -0.030127,-0.01 -0.079424,-0.01 -0.109549,0 -0.030127,0.01 -0.00546,0.014 0.054775,0.014 0.060252,0 0.084901,-0.01 0.054775,-0.014 z m -0.312172,-0.031 c -0.064101,-0.01 -0.1767809,-0.01 -0.2503992,-2e-4 -0.07362,0.01 -0.021172,0.012 0.1165473,0.012 0.1377196,10e-5 0.1979526,-0.01 0.1338519,-0.012 z m -0.4083788,-0.026 c -0.010406,-0.01 -0.037395,-0.011 -0.059991,0 -0.024976,0.01 -0.017554,0.017 0.018913,0.018 0.032997,0 0.051479,-0.01 0.041084,-0.016 z m -0.2118684,7.2196 c -0.3188254,-0.2192 -0.4369536,-0.3326 -0.4369536,-0.4195 0,-0.046 0.010859,-0.084 0.024135,-0.084 0.045149,0 0.5781345,0.5339 0.5664805,0.5675 -0.00674,0.02 -0.071065,-0.01 -0.1536551,-0.064 z m -0.1640589,-0.5566 c -0.1655775,-0.1606 -0.2186381,-0.247 -0.1517168,-0.247 0.040211,0 0.3483216,0.3386 0.3483216,0.3828 0,0.021 -0.00398,0.038 -0.0088,0.038 -0.00486,0 -0.089352,-0.078 -0.1878002,-0.1735 z m 1.8320273,-0.6573 c -0.087416,-0.034 -0.032839,-0.097 0.1095501,-0.1259 0.081771,-0.017 0.2117167,-0.058 0.2887674,-0.091 0.077051,-0.033 0.1456558,-0.055 0.1524558,-0.049 0.0068,0.01 -0.02808,0.073 -0.07749,0.1484 -0.089308,0.1356 -0.090908,0.1364 -0.2620065,0.1341 -0.094682,0 -0.1897565,-0.01 -0.2112747,-0.017 z m 0.9389983,-0.672 c -0.08449,-0.033 -0.08798,-0.088 -0.01744,-0.2768 0.06059,-0.1623 0.123426,-0.1942 0.08847,-0.045 -0.01258,0.053 -0.02937,0.1314 -0.03731,0.1727 l -0.01444,0.075 0.06255,-0.068 c 0.03699,-0.04 0.07128,-0.1355 0.08391,-0.2325 0.01175,-0.09 0.03384,-0.1567 0.0491,-0.1477 0.03873,0.023 0.03462,0.2605 -0.0073,0.4202 -0.0366,0.1394 -0.06952,0.1557 -0.20756,0.1024 z m -7.4069153,-0.3772 c -0.010444,-0.026 -0.019001,-0.1286 -0.019001,-0.2277 0,-0.1308 0.010734,-0.1769 0.039125,-0.1679 0.046503,0.015 0.073754,0.4431 0.02819,0.4431 -0.016125,0 -0.03787,-0.021 -0.04832,-0.047 z m 7.5298773,-0.7025 c -0.04864,-0.063 -0.06362,-0.1131 -0.04982,-0.1658 0.02832,-0.1083 0.102421,-0.093 0.157089,0.033 0.08505,0.1953 0.01125,0.2869 -0.107263,0.1331 z m -7.5363201,-0.477 c -0.0024,-0.1703 -1.69e-5,-0.1755 0.078553,-0.1727 0.066622,0 0.082704,0.019 0.09039,0.095 0.00866,0.085 -0.087699,0.2537 -0.1449487,0.2537 -0.011836,0 -0.022624,-0.079 -0.023988,-0.1757 z m 8.1132981,-3.6924 c 0.0046,-0.2689 0.05154,-0.3599 0.08834,-0.1717 0.02564,0.1311 -0.007,0.3627 -0.05664,0.4023 -0.02702,0.021 -0.03508,-0.037 -0.0317,-0.2306 z m -4.1127402,-0.1611 c 0.012589,-0.036 0.4443547,-0.206 0.5240011,-0.206 0.093574,0 -0.074285,0.11 -0.2678843,0.1756 -0.2158573,0.073 -0.27334,0.08 -0.2561168,0.031 z"
       style="fill:#f62459;fill-opacity:1" />
  </g>
</svg>
