<?xml version="1.0" encoding="UTF-8" standalone="no"?>
<!-- Created with Inkscape (http://www.inkscape.org/) -->

<svg
   xmlns:dc="http://purl.org/dc/elements/1.1/"
   xmlns:cc="http://creativecommons.org/ns#"
   xmlns:rdf="http://www.w3.org/1999/02/22-rdf-syntax-ns#"
   xmlns:svg="http://www.w3.org/2000/svg"
   xmlns="http://www.w3.org/2000/svg"
   xmlns:sodipodi="http://sodipodi.sourceforge.net/DTD/sodipodi-0.dtd"
   xmlns:inkscape="http://www.inkscape.org/namespaces/inkscape"
   width="16"
   height="16"
   id="svg2"
   version="1.1"
   inkscape:version="0.91+devel r"
   viewBox="0 0 16 16"
   sodipodi:docname="plasma.svg">
  <defs
     id="defs4" />
  <sodipodi:namedview
     id="base"
     pagecolor="#ffffff"
     bordercolor="#666666"
     borderopacity="1.0"
     inkscape:pageopacity="0.0"
     inkscape:pageshadow="2"
     inkscape:zoom="15.839192"
     inkscape:cx="16.434179"
     inkscape:cy="8.1663822"
     inkscape:document-units="px"
     inkscape:current-layer="layer1"
     showgrid="true"
     inkscape:showpageshadow="false"
     borderlayer="true"
     units="px"
     inkscape:window-width="1366"
     inkscape:window-height="670"
     inkscape:window-x="-4"
     inkscape:window-y="29"
     inkscape:window-maximized="1">
    <inkscape:grid
       type="xygrid"
       id="grid4062" />
    <sodipodi:guide
       position="2,14.000017"
       orientation="12,0"
       id="guide4066" />
    <sodipodi:guide
       position="2,2.0000174"
       orientation="0,12"
       id="guide4068" />
    <sodipodi:guide
       position="14,2.0000174"
       orientation="-12,0"
       id="guide4070" />
    <sodipodi:guide
       position="14,14.000017"
       orientation="0,-12"
       id="guide4072" />
  </sodipodi:namedview>
  <metadata
     id="metadata7">
    <rdf:RDF>
      <cc:Work
         rdf:about="">
        <dc:format>image/svg+xml</dc:format>
        <dc:type
           rdf:resource="http://purl.org/dc/dcmitype/StillImage" />
        <dc:title />
      </cc:Work>
    </rdf:RDF>
  </metadata>
  <g
     inkscape:label="Capa 1"
     inkscape:groupmode="layer"
     id="layer1"
     transform="translate(0,-1036.3622)">
    <path
       style="font-size:medium;font-style:normal;font-variant:normal;font-weight:normal;font-stretch:normal;text-indent:0;text-align:start;text-decoration:none;line-height:normal;letter-spacing:normal;word-spacing:normal;text-transform:none;direction:ltr;block-progression:tb;writing-mode:lr-tb;text-anchor:start;baseline-shift:baseline;color:#000000;fill:#8e44ad;fill-opacity:1;stroke:none;stroke-width:5;marker:none;visibility:visible;display:inline;overflow:visible;enable-background:accumulate;font-family:Sans;-inkscape-font-specification:Sans"
       d="M 5 2 A 1 1 0 0 0 4 3 A 1 1 0 0 0 5 4 A 1 1 0 0 0 6 3 A 1 1 0 0 0 5 2 z M 10 2 L 8.0625 3.5625 L 10.65625 6.78125 L 8.21875 9.21875 L 10 11 L 14 7 L 10 2 z M 3.5 6 A 1.5 1.5 0 0 0 2 7.5 A 1.5 1.5 0 0 0 3.5 9 A 1.5 1.5 0 0 0 5 7.5 A 1.5 1.5 0 0 0 3.5 6 z M 6.5 11 A 1.5 1.5 0 0 0 5 12.5 A 1.5 1.5 0 0 0 6.5 14 A 1.5 1.5 0 0 0 8 12.5 A 1.5 1.5 0 0 0 6.5 11 z "
       transform="translate(0,1036.3622)"
       id="path2994" />
  </g>
</svg>
